<?xml version="1.0" encoding="UTF-8"?>
<svg id="Layer_1" data-name="Layer 1" xmlns="http://www.w3.org/2000/svg" xmlns:xlink="http://www.w3.org/1999/xlink" viewBox="0 0 512 512">
  <defs>
    <style>
      .cls-1 {
        fill: url(#linear-gradient-2);
      }

      .cls-2 {
        fill: #fff;
      }

      .cls-3 {
        fill: #fffdeb;
        opacity: .1;
      }

      .cls-4, .cls-5, .cls-6 {
        fill: none;
      }

      .cls-5 {
        clip-path: url(#clippath);
      }

      .cls-6 {
        clip-path: url(#clippath-1);
      }

      .cls-7 {
        fill: url(#linear-gradient);
      }
    </style>
    <clipPath id="clippath">
      <path class="cls-4" d="m256.05,7.92C119.05,7.92,7.97,119,7.97,256s111.08,248.08,248.08,248.08,248.08-111.08,248.08-248.08S393.05,7.92,256.05,7.92Z"/>
    </clipPath>
    <linearGradient id="linear-gradient" x1="264.87" y1="-106.53" x2="259.67" y2="973.85" gradientUnits="userSpaceOnUse">
      <stop offset="0" stop-color="#000134"/>
      <stop offset=".49" stop-color="#2f245f"/>
      <stop offset="1" stop-color="#00559c"/>
    </linearGradient>
    <clipPath id="clippath-1">
      <path class="cls-4" d="m-342.11,7.92c-137,0-248.08,111.08-248.08,248.08s111.08,248.08,248.08,248.08,248.08-111.08,248.08-248.08S-205.11,7.92-342.11,7.92Z"/>
    </clipPath>
    <linearGradient id="linear-gradient-2" x1="-333.28" y1="-106.53" x2="-338.49" y2="973.85" xlink:href="#linear-gradient"/>
  </defs>
  <g class="cls-5">
    <g>
      <rect class="cls-7" x="-108.99" y="7.92" width="744.24" height="496.16"/>
      <g>
        <path class="cls-2" d="m115.76,187.28c1.3,0,1.3-2.02,0-2.02s-1.3,2.02,0,2.02h0Z"/>
        <path class="cls-2" d="m103.79,106.68c1.3,0,1.3-2.02,0-2.02s-1.3,2.02,0,2.02h0Z"/>
        <path class="cls-2" d="m73.46,250.08c.97,0,.97-1.51,0-1.51s-.97,1.51,0,1.51h0Z"/>
        <path class="cls-2" d="m241.05,392.92c.97,0,.97-1.51,0-1.51s-.97,1.51,0,1.51h0Z"/>
        <path class="cls-2" d="m461.95,229.43c1.3,0,1.3-2.02,0-2.02s-1.3,2.02,0,2.02h0Z"/>
        <path class="cls-2" d="m363.15,254.07c.97,0,.97-1.51,0-1.51s-.97,1.51,0,1.51h0Z"/>
        <path class="cls-2" d="m347.99,132.22c1.3,0,1.3-2.02,0-2.02s-1.3,2.02,0,2.02h0Z"/>
        <path class="cls-2" d="m492.43,167.33c1.3,0,1.3-2.02,0-2.02s-1.3,2.02,0,2.02h0Z"/>
        <path class="cls-2" d="m498.01,289.73c.65,0,.65-1.01,0-1.01s-.65,1.01,0,1.01h0Z"/>
        <path class="cls-2" d="m399.19,331.9c.65,0,.65-1.01,0-1.01s-.65,1.01,0,1.01h0Z"/>
        <path class="cls-2" d="m239,283.94c.65,0,.65-1.01,0-1.01s-.65,1.01,0,1.01h0Z"/>
        <path class="cls-2" d="m204.93,323c.65,0,.65-1.01,0-1.01s-.65,1.01,0,1.01h0Z"/>
        <path class="cls-2" d="m376.48,407.53c.65,0,.65-1.01,0-1.01s-.65,1.01,0,1.01h0Z"/>
        <path class="cls-2" d="m284.57,455.96c.97,0,.97-1.51,0-1.51s-.97,1.51,0,1.51h0Z"/>
        <path class="cls-2" d="m39.95,448.53c.65,0,.65-1.01,0-1.01s-.65,1.01,0,1.01h0Z"/>
        <path class="cls-2" d="m370.06,385.76c1.3,0,1.3-2.02,0-2.02s-1.3,2.02,0,2.02h0Z"/>
        <path class="cls-2" d="m483.18,435.67c1.3,0,1.3-2.02,0-2.02s-1.3,2.02,0,2.02h0Z"/>
        <path class="cls-2" d="m264.83,331.4c1.3,0,1.3-2.02,0-2.02s-1.3,2.02,0,2.02h0Z"/>
        <path class="cls-2" d="m111.7,299.42c.97,0,.97-1.51,0-1.51s-.97,1.51,0,1.51h0Z"/>
      </g>
      <g>
        <path class="cls-2" d="m238.76,142.04c1.3,0,1.3-2.02,0-2.02s-1.3,2.02,0,2.02h0Z"/>
        <path class="cls-2" d="m226.79,61.44c1.3,0,1.3-2.02,0-2.02s-1.3,2.02,0,2.02h0Z"/>
        <path class="cls-2" d="m120.65,76.35c.97,0,.97-1.51,0-1.51s-.97,1.51,0,1.51h0Z"/>
        <path class="cls-2" d="m196.46,204.83c.97,0,.97-1.51,0-1.51s-.97,1.51,0,1.51h0Z"/>
        <path class="cls-2" d="m364.05,347.68c.97,0,.97-1.51,0-1.51s-.97,1.51,0,1.51h0Z"/>
        <path class="cls-2" d="m486.15,208.82c.97,0,.97-1.51,0-1.51s-.97,1.51,0,1.51h0Z"/>
        <path class="cls-2" d="m470.99,86.98c1.3,0,1.3-2.02,0-2.02s-1.3,2.02,0,2.02h0Z"/>
        <path class="cls-2" d="m362,238.7c.65,0,.65-1.01,0-1.01s-.65,1.01,0,1.01h0Z"/>
        <path class="cls-2" d="m327.93,277.75c.65,0,.65-1.01,0-1.01s-.65,1.01,0,1.01h0Z"/>
        <path class="cls-2" d="m499.48,362.29c.65,0,.65-1.01,0-1.01s-.65,1.01,0,1.01h0Z"/>
        <path class="cls-2" d="m407.57,410.72c.97,0,.97-1.51,0-1.51s-.97,1.51,0,1.51h0Z"/>
        <path class="cls-2" d="m162.95,403.29c.65,0,.65-1.01,0-1.01s-.65,1.01,0,1.01h0Z"/>
        <path class="cls-2" d="m95.11,367.88c1.3,0,1.3-2.02,0-2.02s-1.3,2.02,0,2.02h0Z"/>
        <path class="cls-2" d="m493.06,340.52c1.3,0,1.3-2.02,0-2.02s-1.3,2.02,0,2.02h0Z"/>
        <path class="cls-2" d="m91.12,221.84c1.3,0,1.3-2.02,0-2.02s-1.3,2.02,0,2.02h0Z"/>
        <path class="cls-2" d="m387.83,286.15c1.3,0,1.3-2.02,0-2.02s-1.3,2.02,0,2.02h0Z"/>
        <path class="cls-2" d="m234.7,254.18c.97,0,.97-1.51,0-1.51s-.97,1.51,0,1.51h0Z"/>
      </g>
    </g>
  </g>
  <g class="cls-6">
    <g>
      <rect class="cls-1" x="-707.15" y="7.92" width="744.24" height="496.16"/>
      <g>
        <path class="cls-2" d="m17.27,122.09c1.3,0,1.3-2.02,0-2.02s-1.3,2.02,0,2.02h0Z"/>
        <path class="cls-2" d="m22.86,244.48c.65,0,.65-1.01,0-1.01s-.65,1.01,0,1.01h0Z"/>
        <path class="cls-2" d="m8.03,390.43c1.3,0,1.3-2.02,0-2.02s-1.3,2.02,0,2.02h0Z"/>
      </g>
    </g>
  </g>
  <path class="cls-3" d="m410.24,173.65c-6.19-7.88-17.59-9.25-25.47-3.06l-48.11,37.8-48.67-37.86c-6.42-5-15.39-5.1-21.93-.26l-51.65,38.25-47.15-37.82c-7.21-5.8-17.63-5.25-24.18,1.28l-46.57,46.61c-6.96,7.21-6.76,18.69.44,25.65,7.03,6.79,18.18,6.79,25.21,0l35.07-35.06,45.37,36.39c6.43,5.16,15.53,5.33,22.15.43l51.83-38.38,49,38.11c6.57,5.11,15.79,5.09,22.34-.05l59.26-46.57c7.87-6.19,9.24-17.58,3.06-25.46Z"/>
  <path class="cls-3" d="m410.24,287.34c-6.18-7.88-17.58-9.25-25.46-3.07,0,0,0,0-.01.01l-48.11,37.8-48.67-37.86c-6.42-5-15.39-5.1-21.93-.26l-51.65,38.25-47.15-37.82c-7.22-5.79-17.64-5.22-24.18,1.33l-46.57,46.56c-7.1,7.09-7.11,18.58-.02,25.68s18.58,7.11,25.68.02h0l35.07-35.06,45.37,36.39c6.43,5.16,15.53,5.33,22.15.43l51.83-38.37,49,38.11c6.57,5.11,15.79,5.09,22.34-.05l59.26-46.57c7.89-6.18,9.27-17.58,3.09-25.47-.01-.02-.03-.04-.04-.05Z"/>
  <g>
    <path class="cls-2" d="m120.97,222.33c-.68-.92-.5-2.22.42-2.9s2.22-.5,2.9.42.5,2.22-.42,2.9c-.92.68-2.22.5-2.9-.42Z"/>
    <path class="cls-2" d="m239.31,275.72c.05-1.12,1-1.98,2.12-1.92,1.12.05,1.98,1,1.92,2.12-.05,1.12-1,1.98-2.12,1.92s-1.98-1-1.92-2.12Z"/>
    <path class="cls-2" d="m230.09,271.92c.05-1.12,1-1.98,2.12-1.92,1.12.05,1.98,1,1.92,2.12s-1,1.98-2.12,1.92c-1.12-.05-1.98-1-1.92-2.12Z"/>
    <path class="cls-2" d="m220.72,268.06c.05-1.12,1-1.98,2.12-1.92s1.98,1,1.92,2.12-1,1.98-2.12,1.92c-1.12-.05-1.98-1-1.92-2.12Z"/>
    <path class="cls-2" d="m211.75,264.36c.05-1.12,1-1.98,2.12-1.92,1.12.05,1.98,1,1.92,2.12-.05,1.12-1,1.98-2.12,1.92s-1.98-1-1.92-2.12Z"/>
    <path class="cls-2" d="m202.84,260.69c.05-1.12,1-1.98,2.12-1.92,1.12.05,1.98,1,1.92,2.12-.05,1.12-1,1.98-2.12,1.92-1.12-.05-1.98-1-1.92-2.12Z"/>
    <polygon class="cls-2" points="255.58 276.82 264.76 280.65 257.08 282.63 254.07 294.11 250.98 282.11 242.4 279.95 251.66 277.56 253.09 270.32 255.58 276.82"/>
    <polygon class="cls-2" points="111.83 223.2 115.79 227.69 110.84 226.94 110.29 232.49 108.86 228.68 99.91 225.89 106.12 223.51 105.55 216.78 108.41 220.52 113.89 219.52 111.83 223.2"/>
    <path class="cls-2" d="m112.97,342.8c-1.46-.07-11.16-1.75-11.16-1.75l8.93-2.75-2.79-8.2,5.39,4.9,2.34-8.2,2.36,6.95,7.39-6.49-3.55,7.9,7.56.36-7.24,3.32,5.24,8.07-7.33-5.23-.3,11.47-3.29-7.97-6.34,4.83,2.78-7.2Z"/>
    <polygon class="cls-2" points="95.55 242.92 86.94 241.98 93.2 237.72 89.5 232.27 96.56 234.85 102.94 229.04 102.2 236.63 110.23 241.5 101.43 241.58 98.11 249.73 95.55 242.92"/>
    <path class="cls-2" d="m110.5,312.91c-.99.51-2.21.13-2.73-.86s-.13-2.21.86-2.73,2.21-.13,2.73.86.13,2.21-.86,2.73Z"/>
    <path class="cls-2" d="m111.87,322.97c-.99.51-2.21.13-2.73-.86s-.13-2.21.86-2.73c.99-.51,2.21-.13,2.73.86.51.99.13,2.21-.86,2.73Z"/>
    <path class="cls-2" d="m103.97,261.51c-.99.51-2.21.13-2.73-.87-.51-.99-.13-2.21.87-2.73.99-.51,2.21-.13,2.73.87.51.99.13,2.21-.87,2.73Z"/>
    <path class="cls-2" d="m105.31,271.39c-.99.51-2.21.13-2.73-.87-.51-.99-.13-2.21.87-2.73.99-.51,2.21-.13,2.73.87.51.99.13,2.21-.87,2.73Z"/>
    <path class="cls-2" d="m106.68,281.44c-.99.51-2.21.13-2.73-.87s-.13-2.21.87-2.73c.99-.51,2.21-.13,2.73.87.51.99.13,2.21-.87,2.73Z"/>
    <path class="cls-2" d="m107.99,291.05c-.99.51-2.21.13-2.73-.87-.51-.99-.13-2.21.87-2.73.99-.51,2.21-.13,2.73.87.51.99.13,2.21-.87,2.73Z"/>
    <path class="cls-2" d="m109.3,300.59c-.99.51-2.21.13-2.73-.87-.51-.99-.13-2.21.87-2.73.99-.51,2.21-.13,2.73.87.51.99.13,2.21-.87,2.73Z"/>
    <polygon class="cls-2" points="154.51 188.54 152.43 196.94 149.05 190.17 143.16 193.11 146.66 186.46 141.75 179.36 149.17 181.11 155.07 173.8 153.97 182.53 161.61 186.9 154.51 188.54"/>
    <path class="cls-2" d="m144.34,203.63c-1.12.04-2.06-.83-2.1-1.95-.04-1.12.83-2.06,1.95-2.1,1.12-.04,2.06.83,2.1,1.95.04,1.12-.83,2.06-1.95,2.1Z"/>
    <path class="cls-2" d="m141.3,213.3c-1.12.04-2.06-.83-2.1-1.95-.04-1.12.83-2.06,1.95-2.1s2.06.83,2.1,1.95-.83,2.06-1.95,2.1Z"/>
    <path class="cls-2" d="m283.84,143.88c.83.79.85,2.11.06,2.93-.79.83-2.11.85-2.93.06s-.85-2.11-.06-2.93c.79-.83,2.11-.85,2.93-.06Z"/>
    <path class="cls-2" d="m292.99,139.31c.83.79.85,2.11.06,2.93-.79.83-2.11.85-2.93.06s-.85-2.11-.06-2.93c.79-.83,2.11-.85,2.93-.06Z"/>
    <path class="cls-2" d="m302.29,134.66c.83.79.85,2.11.06,2.93s-2.11.85-2.93.06c-.83-.79-.85-2.11-.06-2.93.79-.83,2.11-.85,2.93-.06Z"/>
    <path class="cls-2" d="m311.18,130.22c.83.79.85,2.11.06,2.93-.79.83-2.11.85-2.93.06-.83-.79-.85-2.11-.06-2.93.79-.83,2.11-.85,2.93-.06Z"/>
    <path class="cls-2" d="m320.03,125.8c.83.79.85,2.11.06,2.93-.79.83-2.11.85-2.93.06-.83-.79-.85-2.11-.06-2.93.79-.83,2.11-.85,2.93-.06Z"/>
    <path class="cls-2" d="m329.17,121.23c.83.79.85,2.11.06,2.93s-2.11.85-2.93.06c-.83-.79-.85-2.11-.06-2.93.79-.83,2.11-.85,2.93-.06Z"/>
    <path class="cls-2" d="m339.1,116.28c.83.79.85,2.11.06,2.93-.79.83-2.11.85-2.93.06-.83-.79-.85-2.11-.06-2.93.79-.83,2.11-.85,2.93-.06Z"/>
    <path class="cls-2" d="m348.68,112.4c.83.79.85,2.11.06,2.93-.79.83-2.11.85-2.93.06-.83-.79-.85-2.11-.06-2.93.79-.83,2.11-.85,2.93-.06Z"/>
    <path class="cls-2" d="m357.83,107.83c.83.79.85,2.11.06,2.93-.79.83-2.11.85-2.93.06-.83-.79-.85-2.11-.06-2.93.79-.83,2.11-.85,2.93-.06Z"/>
    <path class="cls-2" d="m367.76,102.87c.83.79.85,2.11.06,2.93-.79.83-2.11.85-2.93.06-.83-.79-.85-2.11-.06-2.93.79-.83,2.11-.85,2.93-.06Z"/>
    <polygon class="cls-2" points="377.11 96.73 376.58 86.8 381.7 92.85 393.35 90.58 383.88 98.57 385.66 107.25 379.48 99.94 372.34 101.79 377.11 96.73"/>
    <polygon class="cls-2" points="130.87 224.52 128.06 218.74 132.63 221.06 139.01 216.77 135.37 223.92 138.61 228.65 133.09 225.84 129.3 228.74 130.87 224.52"/>
    <polygon class="cls-2" points="264.25 148.03 270.36 139.19 269.24 149.4 277.52 152.45 268.53 153.65 269.33 164.3 265.47 158.07 259.46 163.12 259.98 156.35 251.94 155.54 259.44 152.42 255.48 146.12 264.25 148.03"/>
    <path class="cls-2" d="m225.39,164.34c-.67-.89-.49-2.16.4-2.83.89-.67,2.16-.49,2.83.4s.49,2.16-.4,2.83-2.16.49-2.83-.4Z"/>
    <path class="cls-2" d="m215.87,167.3c-.67-.89-.49-2.16.4-2.83s2.16-.49,2.83.4c.67.89.49,2.16-.4,2.83-.89.67-2.16.49-2.83-.4Z"/>
    <path class="cls-2" d="m206.19,170.31c-.67-.89-.49-2.16.4-2.83.89-.67,2.16-.49,2.83.4s.49,2.16-.4,2.83-2.16.49-2.83-.4Z"/>
    <path class="cls-2" d="m196.93,173.2c-.67-.89-.49-2.16.4-2.83s2.16-.49,2.83.4.49,2.16-.4,2.83-2.16.49-2.83-.4Z"/>
    <path class="cls-2" d="m187.73,176.06c-.67-.89-.49-2.16.4-2.83s2.16-.49,2.83.4.49,2.16-.4,2.83-2.16.49-2.83-.4Z"/>
    <path class="cls-2" d="m178.21,179.02c-.67-.89-.49-2.16.4-2.83s2.16-.49,2.83.4c.67.89.49,2.16-.4,2.83-.89.67-2.16.49-2.83-.4Z"/>
    <path class="cls-2" d="m167.48,182.23c-.67-.89-.49-2.16.4-2.83.89-.67,2.16-.49,2.83.4s.49,2.16-.4,2.83c-.89.67-2.16.49-2.83-.4Z"/>
    <path class="cls-2" d="m244.9,159.52c-.67-.89-.49-2.16.4-2.83s2.16-.49,2.83.4.49,2.16-.4,2.83c-.89.67-2.16.49-2.83-.4Z"/>
    <path class="cls-2" d="m234.38,161.44c-.67-.89-.49-2.16.4-2.83.89-.67,2.16-.49,2.83.4.67.89.49,2.16-.4,2.83-.89.67-2.16.49-2.83-.4Z"/>
    <path class="cls-2" d="m180.63,235.03c.67-.93,1.97-1.14,2.9-.47s1.14,1.97.47,2.9c-.67.93-1.97,1.14-2.9.47-.93-.67-1.14-1.97-.47-2.9Z"/>
    <path class="cls-2" d="m174.34,225.89c.67-.93,1.97-1.14,2.9-.47.93.67,1.14,1.97.47,2.9s-1.97,1.14-2.9.47c-.93-.67-1.14-1.97-.47-2.9Z"/>
    <path class="cls-2" d="m167.98,216.67c.67-.93,1.97-1.14,2.9-.47s1.14,1.97.47,2.9-1.97,1.14-2.9.47c-.93-.67-1.14-1.97-.47-2.9Z"/>
    <path class="cls-2" d="m162.01,208c.67-.93,1.97-1.14,2.9-.47.93.67,1.14,1.97.47,2.9s-1.97,1.14-2.9.47-1.14-1.97-.47-2.9Z"/>
    <path class="cls-2" d="m156.08,199.39c.67-.93,1.97-1.14,2.9-.47.93.67,1.14,1.97.47,2.9s-1.97,1.14-2.9.47-1.14-1.97-.47-2.9Z"/>
    <polygon class="cls-2" points="193.55 250.47 202.52 249.28 195.29 255.54 196.88 261.17 192.26 255.84 183.11 259.53 188.74 254.64 183.25 247.35 188.13 249 192.04 243.91 193.55 250.47"/>
    <path class="cls-2" d="m189.1,437.66c.94-.66,2.23-.44,2.89.5.66.94.44,2.23-.5,2.89-.94.66-2.23.44-2.89-.5-.66-.94-.44-2.23.5-2.89Z"/>
    <path class="cls-2" d="m186.13,426.97c.94-.66,2.23-.44,2.89.5.66.94.44,2.23-.5,2.89s-2.23.44-2.89-.5c-.66-.94-.44-2.23.5-2.89Z"/>
    <path class="cls-2" d="m183.13,416.18c.94-.66,2.23-.44,2.89.5.66.94.44,2.23-.5,2.89-.94.66-2.23.44-2.89-.5-.66-.94-.44-2.23.5-2.89Z"/>
    <polygon class="cls-2" points="196.29 456.47 205.15 458.26 196.28 461.83 195.95 467.67 193.31 461.12 183.46 461.63 190.38 458.84 187.56 450.17 191.64 453.31 197 449.77 196.29 456.47"/>
    <polygon class="cls-2" points="171.57 377.14 167.94 385.43 166.33 376 160.7 374.44 167.65 373.25 169.24 363.51 170.5 370.87 179.57 369.95 175.64 373.26 177.96 379.25 171.57 377.14"/>
    <path class="cls-2" d="m153.12,365.27c.33-1.07,1.46-1.67,2.52-1.34,1.07.33,1.67,1.46,1.34,2.53-.33,1.07-1.46,1.67-2.53,1.34-1.07-.33-1.67-1.46-1.34-2.52Z"/>
    <path class="cls-2" d="m145.33,359.5c.33-1.07,1.46-1.67,2.53-1.34s1.67,1.46,1.34,2.52c-.33,1.07-1.46,1.67-2.52,1.34-1.07-.33-1.67-1.46-1.34-2.53Z"/>
    <path class="cls-2" d="m137.59,353.75c.33-1.07,1.46-1.67,2.53-1.34,1.07.33,1.67,1.46,1.34,2.52-.33,1.07-1.46,1.67-2.52,1.34-1.07-.33-1.67-1.46-1.34-2.53Z"/>
    <path class="cls-2" d="m129.58,347.81c.33-1.07,1.46-1.67,2.53-1.34,1.07.33,1.67,1.46,1.34,2.53-.33,1.07-1.46,1.67-2.52,1.34-1.07-.33-1.67-1.46-1.34-2.52Z"/>
    <polygon class="cls-2" points="175.81 395.55 176.43 384.83 180.78 394.13 189.44 392.44 182.38 398.14 188.6 406.81 182.07 403.5 179.55 410.93 176.49 404.88 169.19 408.37 173.98 401.8 167.32 398.48 175.81 395.55"/>
  </g>
</svg>