<?xml version="1.0" encoding="UTF-8"?>
<svg id="Layer_1" data-name="Layer 1" xmlns="http://www.w3.org/2000/svg" xmlns:xlink="http://www.w3.org/1999/xlink" viewBox="0 0 512 512">
  <defs>
    <style>
      .cls-1 {
        fill: url(#linear-gradient);
      }

      .cls-1, .cls-2, .cls-3, .cls-4, .cls-5, .cls-6 {
        stroke-width: 0px;
      }

      .cls-7 {
        clip-path: url(#clippath-2);
      }

      .cls-2 {
        fill: none;
      }

      .cls-8 {
        clip-path: url(#clippath-1);
      }

      .cls-3 {
        fill: #fff;
      }

      .cls-4 {
        fill: url(#linear-gradient-2);
      }

      .cls-5 {
        fill: url(#linear-gradient-3);
      }

      .cls-9 {
        clip-path: url(#clippath);
      }

      .cls-6 {
        fill: #fffdeb;
        opacity: .1;
      }
    </style>
    <clipPath id="clippath">
      <path class="cls-2" d="m854.2,7.92c-137,0-248.08,111.08-248.08,248.08s111.08,248.08,248.08,248.08,248.08-111.08,248.08-248.08S991.2,7.92,854.2,7.92Z"/>
    </clipPath>
    <linearGradient id="linear-gradient" x1="863.02" y1="-106.53" x2="857.82" y2="973.85" gradientUnits="userSpaceOnUse">
      <stop offset="0" stop-color="#000134"/>
      <stop offset=".49" stop-color="#2f245f"/>
      <stop offset="1" stop-color="#00559c"/>
    </linearGradient>
    <clipPath id="clippath-1">
      <path class="cls-2" d="m256.05,7.92C119.05,7.92,7.97,119,7.97,256s111.08,248.08,248.08,248.08,248.08-111.08,248.08-248.08S393.05,7.92,256.05,7.92Z"/>
    </clipPath>
    <linearGradient id="linear-gradient-2" x1="264.87" y1="-106.53" x2="259.67" y2="973.85" xlink:href="#linear-gradient"/>
    <clipPath id="clippath-2">
      <path class="cls-2" d="m-327.87,7.92c-137,0-248.08,111.08-248.08,248.08s111.08,248.08,248.08,248.08,248.08-111.08,248.08-248.08S-190.87,7.92-327.87,7.92Z"/>
    </clipPath>
    <linearGradient id="linear-gradient-3" x1="-319.04" x2="-324.24" xlink:href="#linear-gradient"/>
  </defs>
  <g class="cls-9">
    <rect class="cls-1" x="489.16" y="7.92" width="744.24" height="496.16"/>
  </g>
  <g class="cls-8">
    <g>
      <rect class="cls-4" x="-108.99" y="7.92" width="744.24" height="496.16"/>
      <g>
        <path class="cls-3" d="m115.76,187.28c1.3,0,1.3-2.02,0-2.02s-1.3,2.02,0,2.02h0Z"/>
        <path class="cls-3" d="m103.79,106.68c1.3,0,1.3-2.02,0-2.02s-1.3,2.02,0,2.02h0Z"/>
        <path class="cls-3" d="m73.46,250.08c.97,0,.97-1.51,0-1.51s-.97,1.51,0,1.51h0Z"/>
        <path class="cls-3" d="m241.05,392.92c.97,0,.97-1.51,0-1.51s-.97,1.51,0,1.51h0Z"/>
        <path class="cls-3" d="m461.95,229.43c1.3,0,1.3-2.02,0-2.02s-1.3,2.02,0,2.02h0Z"/>
        <path class="cls-3" d="m363.15,254.07c.97,0,.97-1.51,0-1.51s-.97,1.51,0,1.51h0Z"/>
        <path class="cls-3" d="m347.99,132.22c1.3,0,1.3-2.02,0-2.02s-1.3,2.02,0,2.02h0Z"/>
        <path class="cls-3" d="m492.43,167.33c1.3,0,1.3-2.02,0-2.02s-1.3,2.02,0,2.02h0Z"/>
        <path class="cls-3" d="m498.01,289.73c.65,0,.65-1.01,0-1.01s-.65,1.01,0,1.01h0Z"/>
        <path class="cls-3" d="m399.19,331.9c.65,0,.65-1.01,0-1.01s-.65,1.01,0,1.01h0Z"/>
        <path class="cls-3" d="m239,283.94c.65,0,.65-1.01,0-1.01s-.65,1.01,0,1.01h0Z"/>
        <path class="cls-3" d="m204.93,323c.65,0,.65-1.01,0-1.01s-.65,1.01,0,1.01h0Z"/>
        <path class="cls-3" d="m376.48,407.53c.65,0,.65-1.01,0-1.01s-.65,1.01,0,1.01h0Z"/>
        <path class="cls-3" d="m284.57,455.96c.97,0,.97-1.51,0-1.51s-.97,1.51,0,1.51h0Z"/>
        <path class="cls-3" d="m39.95,448.53c.65,0,.65-1.01,0-1.01s-.65,1.01,0,1.01h0Z"/>
        <path class="cls-3" d="m370.06,385.76c1.3,0,1.3-2.02,0-2.02s-1.3,2.02,0,2.02h0Z"/>
        <path class="cls-3" d="m483.18,435.67c1.3,0,1.3-2.02,0-2.02s-1.3,2.02,0,2.02h0Z"/>
        <path class="cls-3" d="m264.83,331.4c1.3,0,1.3-2.02,0-2.02s-1.3,2.02,0,2.02h0Z"/>
        <path class="cls-3" d="m111.7,299.42c.97,0,.97-1.51,0-1.51s-.97,1.51,0,1.51h0Z"/>
      </g>
      <g>
        <path class="cls-3" d="m238.76,142.04c1.3,0,1.3-2.02,0-2.02s-1.3,2.02,0,2.02h0Z"/>
        <path class="cls-3" d="m226.79,61.44c1.3,0,1.3-2.02,0-2.02s-1.3,2.02,0,2.02h0Z"/>
        <path class="cls-3" d="m120.65,76.35c.97,0,.97-1.51,0-1.51s-.97,1.51,0,1.51h0Z"/>
        <path class="cls-3" d="m196.46,204.83c.97,0,.97-1.51,0-1.51s-.97,1.51,0,1.51h0Z"/>
        <path class="cls-3" d="m364.05,347.68c.97,0,.97-1.51,0-1.51s-.97,1.51,0,1.51h0Z"/>
        <path class="cls-3" d="m486.15,208.82c.97,0,.97-1.51,0-1.51s-.97,1.51,0,1.51h0Z"/>
        <path class="cls-3" d="m470.99,86.98c1.3,0,1.3-2.02,0-2.02s-1.3,2.02,0,2.02h0Z"/>
        <path class="cls-3" d="m362,238.7c.65,0,.65-1.01,0-1.01s-.65,1.01,0,1.01h0Z"/>
        <path class="cls-3" d="m327.93,277.75c.65,0,.65-1.01,0-1.01s-.65,1.01,0,1.01h0Z"/>
        <path class="cls-3" d="m499.48,362.29c.65,0,.65-1.01,0-1.01s-.65,1.01,0,1.01h0Z"/>
        <path class="cls-3" d="m407.57,410.72c.97,0,.97-1.51,0-1.51s-.97,1.51,0,1.51h0Z"/>
        <path class="cls-3" d="m162.95,403.29c.65,0,.65-1.01,0-1.01s-.65,1.01,0,1.01h0Z"/>
        <path class="cls-3" d="m95.11,367.88c1.3,0,1.3-2.02,0-2.02s-1.3,2.02,0,2.02h0Z"/>
        <path class="cls-3" d="m493.06,340.52c1.3,0,1.3-2.02,0-2.02s-1.3,2.02,0,2.02h0Z"/>
        <path class="cls-3" d="m91.12,221.84c1.3,0,1.3-2.02,0-2.02s-1.3,2.02,0,2.02h0Z"/>
        <path class="cls-3" d="m387.83,286.15c1.3,0,1.3-2.02,0-2.02s-1.3,2.02,0,2.02h0Z"/>
        <path class="cls-3" d="m234.7,254.18c.97,0,.97-1.51,0-1.51s-.97,1.51,0,1.51h0Z"/>
      </g>
    </g>
  </g>
  <g class="cls-7">
    <g>
      <rect class="cls-5" x="-692.91" y="7.92" width="744.24" height="496.16"/>
      <g>
        <path class="cls-3" d="m1.04,184.18c1.3,0,1.3-2.02,0-2.02s-1.3,2.02,0,2.02h0Z"/>
        <path class="cls-3" d="m31.52,122.09c1.3,0,1.3-2.02,0-2.02s-1.3,2.02,0,2.02h0Z"/>
        <path class="cls-3" d="m37.1,244.48c.65,0,.65-1.01,0-1.01s-.65,1.01,0,1.01h0Z"/>
        <path class="cls-3" d="m22.27,390.43c1.3,0,1.3-2.02,0-2.02s-1.3,2.02,0,2.02h0Z"/>
      </g>
    </g>
  </g>
  <path class="cls-6" d="m431.71,217.32c-1.31-23.77-12.29-44.66-32.65-62.1-12.38-10.62-50.83-28.8-90.52-17.42-16.13,4.61-36.03,15.4-52.54,39.74-16.51-24.33-36.44-35.1-52.54-39.74-39.7-11.44-78.14,6.8-90.52,17.42-20.36,17.44-31.33,38.34-32.65,62.1-2.44,44.47,31.62,81.43,33.07,82.94,7.89,8.43,21.11,8.87,29.54.98,8.43-7.89,8.87-21.11.98-29.54h0c-.23-.25-23.32-25.71-21.89-52.13.67-12.11,6.59-22.8,18.12-32.67,4.42-3.79,28.58-15.67,51.75-8.99,19.07,5.49,33.51,22.79,42.98,51.44l.23,115.76-.12,55.77c-.03,11.54,9.31,20.92,20.85,20.94,0,0,0,0,.01,0h.3c11.54-.02,20.88-9.39,20.86-20.93,0,0,0,0,0-.01l-.12-55.81.23-115.72c9.47-28.64,23.92-45.94,42.98-51.44,23.17-6.67,47.33,5.2,51.75,8.99,11.52,9.84,17.39,20.47,18.11,32.5,1.57,26.5-21.52,51.92-21.89,52.36-7.87,8.44-7.41,21.67,1.04,29.54,8.44,7.87,21.67,7.41,29.54-1.04,1.46-1.51,35.53-38.48,33.08-82.94Z"/>
  <g>
    <polygon class="cls-3" points="431.58 160.52 420.03 157.82 428.57 166.18 418.94 176.01 430.67 171.28 435.48 178.27 436.53 168.91 446.75 166.76 435.2 163.55 435.89 156.12 431.58 160.52"/>
    <polygon class="cls-3" points="345.6 188.29 334.22 177.14 338.72 191.68 327.53 198.46 340.96 197.68 342.79 213.4 346.65 203.25 356.82 208.9 354.16 199.2 365.64 195.76 353.84 193.32 357.83 183.04 345.6 188.29"/>
    <path class="cls-3" d="m195.32,137.87c-1.55-1.52-13.16-10.36-13.16-10.36l6.02,12.48-11.72,5.24,10.76.91-6.54,10.82,9.94-4.45.41,14.59,5-11.83,8.02,7.85-3.7-11.23,14.05-2.45-13.08-2.68,12.16-11.9-11.99,4.48-1.15-11.76-5.01,10.29Z"/>
    <polygon class="cls-3" points="108.14 345.08 95.33 344.19 103.35 352.04 96.51 359.02 107.5 357.12 115.28 367.28 116.19 356 129.19 351 116.37 348.58 113.68 335.8 108.14 345.08"/>
    <polygon class="cls-3" points="113.45 403.22 105.77 403.3 112.23 409.63 111.53 415.53 115.07 411.91 121.02 417.73 118.62 408.29 128.03 402.3 116.26 402.93 114.13 394.76 113.45 403.22"/>
    <path class="cls-3" d="m128.06,434.65c-1.43.44-7.5,2.21-7.5,2.21l7.59-.4.56,10.48,3.21-7.78,8.56,4.26-4.84-9.17,5.32-8.98-10.23,5.26-5.31-4.43,2.63,8.56Z"/>
    <path class="cls-3" d="m410.64,178.67c1.21,1.19,3.16,1.17,4.35-.04,1.19-1.21,1.17-3.16-.04-4.35s-3.16-1.17-4.35.04-1.17,3.16.04,4.35Z"/>
    <path class="cls-3" d="m395.79,182.58c1.21,1.19,3.16,1.17,4.35-.04s1.17-3.16-.04-4.35-3.16-1.17-4.35.04c-1.19,1.21-1.17,3.16.04,4.35Z"/>
    <path class="cls-3" d="m381.8,187.8c1.21,1.19,3.16,1.17,4.35-.04s1.17-3.16-.04-4.35-3.16-1.17-4.35.04-1.17,3.16.04,4.35Z"/>
    <path class="cls-3" d="m367.26,192.28c1.21,1.19,3.16,1.17,4.35-.04,1.19-1.21,1.17-3.16-.04-4.35-1.21-1.19-3.16-1.17-4.35.04-1.19,1.21-1.17,3.16.04,4.35Z"/>
    <path class="cls-3" d="m320.06,192.65c1.21,1.19,3.16,1.17,4.35-.04,1.19-1.21,1.17-3.16-.04-4.35-1.21-1.19-3.16-1.17-4.35.04-1.19,1.21-1.17,3.16.04,4.35Z"/>
    <path class="cls-3" d="m303.21,186.53c1.21,1.19,3.16,1.17,4.35-.04s1.17-3.16-.04-4.35c-1.21-1.19-3.16-1.17-4.35.04s-1.17,3.16.04,4.35Z"/>
    <path class="cls-3" d="m288.12,181.67c1.21,1.19,3.16,1.17,4.35-.04s1.17-3.16-.04-4.35-3.16-1.17-4.35.04-1.17,3.16.04,4.35Z"/>
    <path class="cls-3" d="m271.48,176c1.21,1.19,3.16,1.17,4.35-.04,1.19-1.21,1.17-3.16-.04-4.35s-3.16-1.17-4.35.04-1.17,3.16.04,4.35Z"/>
    <path class="cls-3" d="m255.1,170.34c1.21,1.19,3.16,1.17,4.35-.04,1.19-1.21,1.17-3.16-.04-4.35s-3.16-1.17-4.35.04c-1.19,1.21-1.17,3.16.04,4.35Z"/>
    <path class="cls-3" d="m237.68,165.04c1.21,1.19,3.16,1.17,4.35-.04s1.17-3.16-.04-4.35-3.16-1.17-4.35.04-1.17,3.16.04,4.35Z"/>
    <path class="cls-3" d="m221.65,159.49c1.21,1.19,3.16,1.17,4.35-.04,1.19-1.21,1.17-3.16-.04-4.35s-3.16-1.17-4.35.04c-1.19,1.21-1.17,3.16.04,4.35Z"/>
    <path class="cls-3" d="m182.42,175.75c1.21,1.19,3.16,1.17,4.35-.04,1.19-1.21,1.17-3.16-.04-4.35-1.21-1.19-3.16-1.17-4.35.04-1.19,1.21-1.17,3.16.04,4.35Z"/>
    <path class="cls-3" d="m175.92,189.46c1.21,1.19,3.16,1.17,4.35-.04s1.17-3.16-.04-4.35-3.16-1.17-4.35.04c-1.19,1.21-1.17,3.16.04,4.35Z"/>
    <path class="cls-3" d="m170.4,203.89c1.21,1.19,3.16,1.17,4.35-.04,1.19-1.21,1.17-3.16-.04-4.35s-3.16-1.17-4.35.04c-1.19,1.21-1.17,3.16.04,4.35Z"/>
    <path class="cls-3" d="m164.79,217.54c1.21,1.19,3.16,1.17,4.35-.04s1.17-3.16-.04-4.35-3.16-1.17-4.35.04c-1.19,1.21-1.17,3.16.04,4.35Z"/>
    <path class="cls-3" d="m158.98,231.01c1.21,1.19,3.16,1.17,4.35-.04s1.17-3.16-.04-4.35-3.16-1.17-4.35.04c-1.19,1.21-1.17,3.16.04,4.35Z"/>
    <path class="cls-3" d="m152.48,244.71c1.21,1.19,3.16,1.17,4.35-.04s1.17-3.16-.04-4.35c-1.21-1.19-3.16-1.17-4.35.04-1.19,1.21-1.17,3.16.04,4.35Z"/>
    <path class="cls-3" d="m145.6,259.67c1.21,1.19,3.16,1.17,4.35-.04,1.19-1.21,1.17-3.16-.04-4.35s-3.16-1.17-4.35.04c-1.19,1.21-1.17,3.16.04,4.35Z"/>
    <path class="cls-3" d="m139.19,275c1.21,1.19,3.16,1.17,4.35-.04,1.19-1.21,1.17-3.16-.04-4.35-1.21-1.19-3.16-1.17-4.35.04-1.19,1.21-1.17,3.16.04,4.35Z"/>
    <path class="cls-3" d="m133.51,289.59c1.21,1.19,3.16,1.17,4.35-.04,1.19-1.21,1.17-3.16-.04-4.35s-3.16-1.17-4.35.04c-1.19,1.21-1.17,3.16.04,4.35Z"/>
    <path class="cls-3" d="m127.35,303.82c1.21,1.19,3.16,1.17,4.35-.04s1.17-3.16-.04-4.35c-1.21-1.19-3.16-1.17-4.35.04-1.19,1.21-1.17,3.16.04,4.35Z"/>
    <path class="cls-3" d="m121.04,317.91c1.21,1.19,3.16,1.17,4.35-.04,1.19-1.21,1.17-3.16-.04-4.35-1.21-1.19-3.16-1.17-4.35.04s-1.17,3.16.04,4.35Z"/>
    <path class="cls-3" d="m110.02,377.4c1.21,1.19,3.16,1.17,4.35-.04,1.19-1.21,1.17-3.16-.04-4.35s-3.16-1.17-4.35.04c-1.19,1.21-1.17,3.16.04,4.35Z"/>
    <path class="cls-3" d="m110.98,387.9c1.21,1.19,3.16,1.17,4.35-.04s1.17-3.16-.04-4.35-3.16-1.17-4.35.04c-1.19,1.21-1.17,3.16.04,4.35Z"/>
    <path class="cls-3" d="m117.76,427.2c1.7-.09,3-1.54,2.91-3.24-.09-1.7-1.54-3-3.24-2.91-1.7.09-3,1.54-2.91,3.24s1.54,3,3.24,2.91Z"/>
    <path class="cls-3" d="m116.33,331.52c1.21,1.19,3.16,1.17,4.35-.04s1.17-3.16-.04-4.35-3.16-1.17-4.35.04c-1.19,1.21-1.17,3.16.04,4.35Z"/>
  </g>
</svg>