<?xml version="1.0" encoding="UTF-8"?>
<svg id="Layer_1" data-name="Layer 1" xmlns="http://www.w3.org/2000/svg" xmlns:xlink="http://www.w3.org/1999/xlink" viewBox="0 0 512 512">
  <defs>
    <style>
      .cls-1 {
        fill: url(#linear-gradient-2);
      }

      .cls-2 {
        clip-path: url(#clippath-2);
      }

      .cls-2, .cls-3, .cls-4, .cls-5 {
        fill: none;
      }

      .cls-6 {
        fill: #fff;
      }

      .cls-7 {
        fill: #fffdeb;
        opacity: .1;
      }

      .cls-4 {
        clip-path: url(#clippath);
      }

      .cls-8 {
        fill: url(#linear-gradient-3);
      }

      .cls-5 {
        clip-path: url(#clippath-1);
      }

      .cls-9 {
        fill: url(#linear-gradient);
      }
    </style>
    <clipPath id="clippath">
      <path class="cls-3" d="m854.2,7.92c-137,0-248.08,111.08-248.08,248.08s111.08,248.08,248.08,248.08,248.08-111.08,248.08-248.08S991.2,7.92,854.2,7.92Z"/>
    </clipPath>
    <linearGradient id="linear-gradient" x1="863.02" y1="-106.53" x2="857.82" y2="973.85" gradientUnits="userSpaceOnUse">
      <stop offset="0" stop-color="#000134"/>
      <stop offset=".49" stop-color="#2f245f"/>
      <stop offset="1" stop-color="#00559c"/>
    </linearGradient>
    <clipPath id="clippath-1">
      <path class="cls-3" d="m256.05,7.92C119.05,7.92,7.97,119,7.97,256s111.08,248.08,248.08,248.08,248.08-111.08,248.08-248.08S393.05,7.92,256.05,7.92Z"/>
    </clipPath>
    <linearGradient id="linear-gradient-2" x1="264.87" y1="-106.53" x2="259.67" y2="973.85" xlink:href="#linear-gradient"/>
    <clipPath id="clippath-2">
      <path class="cls-3" d="m-327.87,7.92c-137,0-248.08,111.08-248.08,248.08s111.08,248.08,248.08,248.08,248.08-111.08,248.08-248.08S-190.87,7.92-327.87,7.92Z"/>
    </clipPath>
    <linearGradient id="linear-gradient-3" x1="-319.04" x2="-324.24" xlink:href="#linear-gradient"/>
  </defs>
  <g class="cls-4">
    <rect class="cls-9" x="489.16" y="7.92" width="744.24" height="496.16"/>
  </g>
  <g class="cls-5">
    <g>
      <rect class="cls-1" x="-108.99" y="7.92" width="744.24" height="496.16"/>
      <g>
        <path class="cls-6" d="m115.76,187.28c1.3,0,1.3-2.02,0-2.02s-1.3,2.02,0,2.02h0Z"/>
        <path class="cls-6" d="m103.79,106.68c1.3,0,1.3-2.02,0-2.02s-1.3,2.02,0,2.02h0Z"/>
        <path class="cls-6" d="m73.46,250.08c.97,0,.97-1.51,0-1.51s-.97,1.51,0,1.51h0Z"/>
        <path class="cls-6" d="m241.05,392.92c.97,0,.97-1.51,0-1.51s-.97,1.51,0,1.51h0Z"/>
        <path class="cls-6" d="m461.95,229.43c1.3,0,1.3-2.02,0-2.02s-1.3,2.02,0,2.02h0Z"/>
        <path class="cls-6" d="m363.15,254.07c.97,0,.97-1.51,0-1.51s-.97,1.51,0,1.51h0Z"/>
        <path class="cls-6" d="m347.99,132.22c1.3,0,1.3-2.02,0-2.02s-1.3,2.02,0,2.02h0Z"/>
        <path class="cls-6" d="m492.43,167.33c1.3,0,1.3-2.02,0-2.02s-1.3,2.02,0,2.02h0Z"/>
        <path class="cls-6" d="m498.01,289.73c.65,0,.65-1.01,0-1.01s-.65,1.01,0,1.01h0Z"/>
        <path class="cls-6" d="m399.19,331.9c.65,0,.65-1.01,0-1.01s-.65,1.01,0,1.01h0Z"/>
        <path class="cls-6" d="m239,283.94c.65,0,.65-1.01,0-1.01s-.65,1.01,0,1.01h0Z"/>
        <path class="cls-6" d="m204.93,323c.65,0,.65-1.01,0-1.01s-.65,1.01,0,1.01h0Z"/>
        <path class="cls-6" d="m376.48,407.53c.65,0,.65-1.01,0-1.01s-.65,1.01,0,1.01h0Z"/>
        <path class="cls-6" d="m284.57,455.96c.97,0,.97-1.51,0-1.51s-.97,1.51,0,1.51h0Z"/>
        <path class="cls-6" d="m39.95,448.53c.65,0,.65-1.01,0-1.01s-.65,1.01,0,1.01h0Z"/>
        <path class="cls-6" d="m370.06,385.76c1.3,0,1.3-2.02,0-2.02s-1.3,2.02,0,2.02h0Z"/>
        <path class="cls-6" d="m483.18,435.67c1.3,0,1.3-2.02,0-2.02s-1.3,2.02,0,2.02h0Z"/>
        <path class="cls-6" d="m264.83,331.4c1.3,0,1.3-2.02,0-2.02s-1.3,2.02,0,2.02h0Z"/>
        <path class="cls-6" d="m111.7,299.42c.97,0,.97-1.51,0-1.51s-.97,1.51,0,1.51h0Z"/>
      </g>
      <g>
        <path class="cls-6" d="m238.76,142.04c1.3,0,1.3-2.02,0-2.02s-1.3,2.02,0,2.02h0Z"/>
        <path class="cls-6" d="m226.79,61.44c1.3,0,1.3-2.02,0-2.02s-1.3,2.02,0,2.02h0Z"/>
        <path class="cls-6" d="m120.65,76.35c.97,0,.97-1.51,0-1.51s-.97,1.51,0,1.51h0Z"/>
        <path class="cls-6" d="m196.46,204.83c.97,0,.97-1.51,0-1.51s-.97,1.51,0,1.51h0Z"/>
        <path class="cls-6" d="m364.05,347.68c.97,0,.97-1.51,0-1.51s-.97,1.51,0,1.51h0Z"/>
        <path class="cls-6" d="m486.15,208.82c.97,0,.97-1.51,0-1.51s-.97,1.51,0,1.51h0Z"/>
        <path class="cls-6" d="m470.99,86.98c1.3,0,1.3-2.02,0-2.02s-1.3,2.02,0,2.02h0Z"/>
        <path class="cls-6" d="m362,238.7c.65,0,.65-1.01,0-1.01s-.65,1.01,0,1.01h0Z"/>
        <path class="cls-6" d="m327.93,277.75c.65,0,.65-1.01,0-1.01s-.65,1.01,0,1.01h0Z"/>
        <path class="cls-6" d="m499.48,362.29c.65,0,.65-1.01,0-1.01s-.65,1.01,0,1.01h0Z"/>
        <path class="cls-6" d="m407.57,410.72c.97,0,.97-1.51,0-1.51s-.97,1.51,0,1.51h0Z"/>
        <path class="cls-6" d="m162.95,403.29c.65,0,.65-1.01,0-1.01s-.65,1.01,0,1.01h0Z"/>
        <path class="cls-6" d="m95.11,367.88c1.3,0,1.3-2.02,0-2.02s-1.3,2.02,0,2.02h0Z"/>
        <path class="cls-6" d="m493.06,340.52c1.3,0,1.3-2.02,0-2.02s-1.3,2.02,0,2.02h0Z"/>
        <path class="cls-6" d="m91.12,221.84c1.3,0,1.3-2.02,0-2.02s-1.3,2.02,0,2.02h0Z"/>
        <path class="cls-6" d="m387.83,286.15c1.3,0,1.3-2.02,0-2.02s-1.3,2.02,0,2.02h0Z"/>
        <path class="cls-6" d="m234.7,254.18c.97,0,.97-1.51,0-1.51s-.97,1.51,0,1.51h0Z"/>
      </g>
    </g>
  </g>
  <g class="cls-2">
    <g>
      <rect class="cls-8" x="-692.91" y="7.92" width="744.24" height="496.16"/>
      <g>
        <path class="cls-6" d="m1.04,184.18c1.3,0,1.3-2.02,0-2.02s-1.3,2.02,0,2.02h0Z"/>
        <path class="cls-6" d="m31.52,122.09c1.3,0,1.3-2.02,0-2.02s-1.3,2.02,0,2.02h0Z"/>
        <path class="cls-6" d="m37.1,244.48c.65,0,.65-1.01,0-1.01s-.65,1.01,0,1.01h0Z"/>
        <path class="cls-6" d="m22.27,390.43c1.3,0,1.3-2.02,0-2.02s-1.3,2.02,0,2.02h0Z"/>
      </g>
    </g>
  </g>
  <path class="cls-7" d="m431.71,217.32c-1.31-23.77-12.29-44.66-32.65-62.1-12.38-10.62-50.83-28.8-90.52-17.42-16.13,4.61-36.03,15.4-52.54,39.74-16.51-24.33-36.44-35.1-52.54-39.74-39.7-11.44-78.14,6.8-90.52,17.42-20.36,17.44-31.33,38.34-32.65,62.1-2.44,44.47,31.62,81.43,33.07,82.94,7.89,8.43,21.11,8.87,29.54.98,8.43-7.89,8.87-21.11.98-29.54h0c-.23-.25-23.32-25.71-21.89-52.13.67-12.11,6.59-22.8,18.12-32.67,4.42-3.79,28.58-15.67,51.75-8.99,19.07,5.49,33.51,22.79,42.98,51.44l.23,115.76-.12,55.77c-.03,11.54,9.31,20.92,20.85,20.94,0,0,0,0,.01,0h.3c11.54-.02,20.88-9.39,20.86-20.93,0,0,0,0,0-.01l-.12-55.81.23-115.72c9.47-28.64,23.92-45.94,42.98-51.44,23.17-6.67,47.33,5.2,51.75,8.99,11.52,9.84,17.39,20.47,18.11,32.5,1.57,26.5-21.52,51.92-21.89,52.36-7.87,8.44-7.41,21.67,1.04,29.54,8.44,7.87,21.67,7.41,29.54-1.04,1.46-1.51,35.53-38.48,33.08-82.94Z"/>
  <g>
    <path class="cls-6" d="m181.47,213.47c-.39-1.19.26-2.47,1.45-2.86s2.47.26,2.86,1.45c.39,1.19-.26,2.47-1.45,2.86-1.19.39-2.47-.26-2.86-1.45Z"/>
    <path class="cls-6" d="m137.28,212.35c-.39-1.19.26-2.47,1.45-2.86,1.19-.39,2.47.26,2.86,1.45.39,1.19-.26,2.47-1.45,2.86s-2.47-.26-2.86-1.45Z"/>
    <path class="cls-6" d="m126.11,212.06c-.39-1.19.26-2.47,1.45-2.86,1.19-.39,2.47.26,2.86,1.45s-.26,2.47-1.45,2.86-2.47-.26-2.86-1.45Z"/>
    <path class="cls-6" d="m113.99,211.75c-.39-1.19.26-2.47,1.45-2.86s2.47.26,2.86,1.45c.39,1.19-.26,2.47-1.45,2.86-1.19.39-2.47-.26-2.86-1.45Z"/>
    <path class="cls-6" d="m101.76,211.44c-.39-1.19.26-2.47,1.45-2.86,1.19-.39,2.47.26,2.86,1.45.39,1.19-.26,2.47-1.45,2.86-1.19.39-2.47-.26-2.86-1.45Z"/>
    <path class="cls-6" d="m67.11,211.6c-.39-1.19.26-2.47,1.45-2.86,1.19-.39,2.47.26,2.86,1.45.39,1.19-.26,2.47-1.45,2.86s-2.47-.26-2.86-1.45Z"/>
    <path class="cls-6" d="m202.61,213.89c-.39-1.19.26-2.47,1.45-2.86,1.19-.39,2.47.26,2.86,1.45.39,1.19-.26,2.47-1.45,2.86-1.19.39-2.47-.26-2.86-1.45Z"/>
    <path class="cls-6" d="m192.06,213.63c-.39-1.19.26-2.47,1.45-2.86,1.19-.39,2.47.26,2.86,1.45s-.26,2.47-1.45,2.86c-1.19.39-2.47-.26-2.86-1.45Z"/>
    <polygon class="cls-6" points="278.43 413.17 277.46 424.27 272.73 416.75 259.45 417.46 271.21 410.06 270.59 400.16 276.3 409.24 284.51 408.29 278.43 413.17"/>
    <path class="cls-6" d="m253.81,405.56c.18-1.24,1.33-2.1,2.57-1.91s2.1,1.33,1.91,2.57c-.18,1.24-1.33,2.1-2.57,1.91-1.24-.18-2.1-1.33-1.91-2.57Z"/>
    <path class="cls-6" d="m243.94,400.32c.18-1.24,1.33-2.1,2.57-1.91s2.1,1.33,1.91,2.57-1.33,2.1-2.57,1.91-2.1-1.33-1.91-2.57Z"/>
    <path class="cls-6" d="m233.91,394.99c.18-1.24,1.33-2.1,2.57-1.91,1.24.18,2.1,1.33,1.91,2.57s-1.33,2.1-2.57,1.91c-1.24-.18-2.1-1.33-1.91-2.57Z"/>
    <path class="cls-6" d="m224.31,389.89c.18-1.24,1.33-2.1,2.57-1.91,1.24.18,2.1,1.33,1.91,2.57s-1.33,2.1-2.57,1.91c-1.24-.18-2.1-1.33-1.91-2.57Z"/>
    <path class="cls-6" d="m214.77,384.83c.18-1.24,1.33-2.1,2.57-1.91s2.1,1.33,1.91,2.57c-.18,1.24-1.33,2.1-2.57,1.91s-2.1-1.33-1.91-2.57Z"/>
    <polygon class="cls-6" points="310.15 375.93 314.52 384.91 306.06 379.46 299.8 389.2 301.49 378.69 294.85 376.05 302.33 373.44 302.19 364.65 306.98 373.53 312.96 371.57 310.15 375.93"/>
    <path class="cls-6" d="m292.14,393.6c-1.12-.57-1.56-1.93-1-3.05.57-1.12,1.93-1.56,3.05-.99,1.12.57,1.56,1.93,1,3.05-.57,1.12-1.93,1.56-3.05.99Z"/>
    <path class="cls-6" d="m283.26,402.02c-1.12-.57-1.56-1.93-.99-3.05.57-1.12,1.93-1.56,3.05-1,1.12.57,1.56,1.93.99,3.05-.57,1.12-1.93,1.56-3.05,1Z"/>
    <path class="cls-6" d="m145.48,340.56c-.22,1.23-1.4,2.05-2.63,1.83-1.23-.22-2.05-1.4-1.83-2.63.22-1.23,1.4-2.05,2.63-1.83,1.23.22,2.05,1.4,1.83,2.63Z"/>
    <path class="cls-6" d="m155.18,346.12c-.22,1.23-1.4,2.05-2.63,1.83-1.23-.22-2.05-1.4-1.83-2.63.22-1.23,1.4-2.05,2.63-1.83,1.23.22,2.05,1.4,1.83,2.63Z"/>
    <path class="cls-6" d="m165.03,351.77c-.22,1.23-1.4,2.05-2.63,1.83-1.23-.22-2.05-1.4-1.83-2.63s1.4-2.05,2.63-1.83c1.23.22,2.05,1.4,1.83,2.63Z"/>
    <path class="cls-6" d="m174.46,357.17c-.22,1.23-1.4,2.05-2.63,1.83-1.23-.22-2.05-1.4-1.83-2.63.22-1.23,1.4-2.05,2.63-1.83s2.05,1.4,1.83,2.63Z"/>
    <path class="cls-6" d="m183.83,362.54c-.22,1.23-1.4,2.05-2.63,1.83s-2.05-1.4-1.83-2.63c.22-1.23,1.4-2.05,2.63-1.83s2.05,1.4,1.83,2.63Z"/>
    <polygon class="cls-6" points="198.53 368.19 206.34 361.72 203.21 371.97 208.06 376.37 200.5 374.06 194.01 383.01 196.45 375.01 186.9 371.36 192.5 370.02 193.2 362.86 198.53 368.19"/>
    <path class="cls-6" d="m126.93,323.35c1.52.62,11.12,6.05,11.12,6.05l-10.46-.45-.14,9.7-3.85-7.2-5.56,7.77.13-8.23-10.25,4.07,6.72-7-7.84-3.22,8.9-.78-2.49-10.49,5.77,8.28,4.63-12,.47,9.66,8.51-2.72-5.65,6.55Z"/>
    <polygon class="cls-6" points="96.73 302.18 91.54 293.98 99.64 296.49 101.83 289.44 104.51 297.43 114.06 298.96 106.89 303.61 108.23 314.05 102.01 306.39 92.55 309.19 96.73 302.18"/>
    <path class="cls-6" d="m332.11,321.95c-1.24-.14-2.14-1.26-2-2.51.14-1.24,1.26-2.14,2.51-2,1.24.14,2.14,1.26,2,2.51-.14,1.24-1.26,2.14-2.51,2Z"/>
    <path class="cls-6" d="m327.2,331.99c-1.24-.14-2.14-1.26-2-2.51.14-1.24,1.26-2.14,2.51-2,1.24.14,2.14,1.26,2,2.51-.14,1.24-1.26,2.14-2.51,2Z"/>
    <path class="cls-6" d="m322.21,342.19c-1.24-.14-2.14-1.26-2-2.51.14-1.24,1.26-2.14,2.51-2,1.24.14,2.14,1.26,2,2.51-.14,1.24-1.26,2.14-2.51,2Z"/>
    <path class="cls-6" d="m317.44,351.95c-1.24-.14-2.14-1.26-2-2.51.14-1.24,1.26-2.14,2.51-2,1.24.14,2.14,1.26,2,2.51-.14,1.24-1.26,2.14-2.51,2Z"/>
    <path class="cls-6" d="m312.69,361.66c-1.24-.14-2.14-1.26-2-2.51.14-1.24,1.26-2.14,2.51-2,1.24.14,2.14,1.26,2,2.51-.14,1.24-1.26,2.14-2.51,2Z"/>
    <path class="cls-6" d="m411.26,152.51c-1.25-.05-2.22-1.11-2.17-2.36.05-1.25,1.11-2.22,2.36-2.17,1.25.05,2.22,1.11,2.17,2.36-.05,1.25-1.11,2.22-2.36,2.17Z"/>
    <path class="cls-6" d="m406.7,163.75c-1.25-.05-2.22-1.11-2.17-2.36.05-1.25,1.11-2.22,2.36-2.17,1.25.05,2.22,1.11,2.17,2.36-.05,1.25-1.11,2.22-2.36,2.17Z"/>
    <path class="cls-6" d="m346.3,292.69c-1.24-.14-2.14-1.26-2-2.51.14-1.24,1.26-2.14,2.51-2,1.24.14,2.14,1.26,2,2.51-.14,1.24-1.26,2.14-2.51,2Z"/>
    <path class="cls-6" d="m341.3,302.91c-1.24-.14-2.14-1.26-2-2.51.14-1.24,1.26-2.14,2.51-2,1.24.14,2.14,1.26,2,2.51-.14,1.24-1.26,2.14-2.51,2Z"/>
    <path class="cls-6" d="m336.66,312.39c-1.24-.14-2.14-1.26-2-2.51.14-1.24,1.26-2.14,2.51-2,1.24.14,2.14,1.26,2,2.51-.14,1.24-1.26,2.14-2.51,2Z"/>
    <path class="cls-6" d="m372.32,240.78c-1.24-.14-2.14-1.26-2-2.51.14-1.24,1.26-2.14,2.51-2,1.24.14,2.14,1.26,2,2.51-.14,1.24-1.26,2.14-2.51,2Z"/>
    <path class="cls-6" d="m367.4,250.82c-1.24-.14-2.14-1.26-2-2.51.14-1.24,1.26-2.14,2.51-2,1.24.14,2.14,1.26,2,2.51-.14,1.24-1.26,2.14-2.51,2Z"/>
    <path class="cls-6" d="m362.4,261.02c-1.24-.14-2.14-1.26-2-2.51.14-1.24,1.26-2.14,2.51-2,1.24.14,2.14,1.26,2,2.51-.14,1.24-1.26,2.14-2.51,2Z"/>
    <path class="cls-6" d="m357.62,270.78c-1.24-.14-2.14-1.26-2-2.51.14-1.24,1.26-2.14,2.51-2,1.24.14,2.14,1.26,2,2.51-.14,1.24-1.26,2.14-2.51,2Z"/>
    <path class="cls-6" d="m352.87,280.48c-1.24-.14-2.14-1.26-2-2.51.14-1.24,1.26-2.14,2.51-2,1.24.14,2.14,1.26,2,2.51-.14,1.24-1.26,2.14-2.51,2Z"/>
    <polygon class="cls-6" points="167.63 216.37 164.04 225.38 161.32 217.35 154.33 219.72 159.22 212.87 154.85 204.24 162.83 207.31 170.49 200.09 167.94 209.62 175.76 215.64 167.63 216.37"/>
    <path class="cls-6" d="m375.01,221.47c-1.19-1.13-8.22-9.62-8.22-9.62l9.61,4.16,3.6-9.01,1.02,8.1,7.97-5.27-3.06,7.64,11.03-.14-8.78,4.13,6.17,5.81-8.59-2.45-1.42,10.69-2.42-9.8-8.62,9.55,3.01-9.19-8.92-.51,7.62-4.1Z"/>
    <polygon class="cls-6" points="396.05 174.95 388.68 168.65 397.16 168.66 397.17 161.28 402.08 168.12 411.66 166.77 406.18 173.33 410.54 182.91 402.34 177.42 394.13 182.88 396.05 174.95"/>
    <path class="cls-6" d="m392.11,197.49c-1.24-.15-2.13-1.28-1.98-2.52s1.28-2.13,2.52-1.98c1.24.15,2.13,1.28,1.98,2.52-.15,1.24-1.28,2.13-2.52,1.98Z"/>
    <path class="cls-6" d="m387.13,207.49c-1.24-.15-2.13-1.28-1.98-2.52.15-1.24,1.28-2.13,2.52-1.98s2.13,1.28,1.98,2.52-1.28,2.13-2.52,1.98Z"/>
    <path class="cls-6" d="m70.31,240.88c.83-.94,2.26-1.02,3.2-.19.94.83,1.02,2.26.19,3.2-.83.94-2.26,1.02-3.2.19-.94-.83-1.02-2.26-.19-3.2Z"/>
    <path class="cls-6" d="m64.83,230.92c.83-.94,2.26-1.02,3.2-.19.94.83,1.02,2.26.19,3.2-.83.94-2.26,1.02-3.2.19-.94-.83-1.02-2.26-.19-3.2Z"/>
    <path class="cls-6" d="m59.74,221.67c.83-.94,2.26-1.02,3.2-.19.94.83,1.02,2.26.19,3.2-.83.94-2.26,1.02-3.2.19-.94-.83-1.02-2.26-.19-3.2Z"/>
    <path class="cls-6" d="m92.4,282.25c.83-.94,2.26-1.02,3.2-.19.94.83,1.02,2.26.19,3.2-.83.94-2.26,1.02-3.2.19-.94-.83-1.02-2.26-.19-3.2Z"/>
    <path class="cls-6" d="m86.93,272.29c.83-.94,2.26-1.02,3.2-.19s1.02,2.26.19,3.2c-.83.94-2.26,1.02-3.2.19-.94-.83-1.02-2.26-.19-3.2Z"/>
    <path class="cls-6" d="m81.7,262.76c.83-.94,2.26-1.02,3.2-.19s1.02,2.26.19,3.2c-.83.94-2.26,1.02-3.2.19s-1.02-2.26-.19-3.2Z"/>
    <path class="cls-6" d="m76.51,253.29c.83-.94,2.26-1.02,3.2-.19s1.02,2.26.19,3.2c-.83.94-2.26,1.02-3.2.19-.94-.83-1.02-2.26-.19-3.2Z"/>
    <path class="cls-6" d="m343.1,190.39c-.65-1.1-.29-2.53.81-3.19,1.1-.66,2.53-.29,3.19.81s.29,2.53-.81,3.19-2.53.29-3.19-.81Z"/>
    <path class="cls-6" d="m331.85,192.58c-.65-1.1-.29-2.53.81-3.19,1.1-.65,2.53-.29,3.19.81.65,1.1.29,2.53-.81,3.19s-2.53.29-3.19-.81Z"/>
    <path class="cls-6" d="m320.41,194.82c-.65-1.1-.29-2.53.81-3.19,1.1-.65,2.53-.29,3.19.81s.29,2.53-.81,3.19c-1.1.65-2.53.29-3.19-.81Z"/>
    <path class="cls-6" d="m309.47,196.95c-.65-1.1-.29-2.53.81-3.19s2.53-.29,3.19.81c.66,1.1.29,2.53-.81,3.19-1.1.65-2.53.29-3.19-.81Z"/>
    <path class="cls-6" d="m369.19,185.45c-.65-1.1-.29-2.53.81-3.19,1.1-.65,2.53-.29,3.19.81s.29,2.53-.81,3.19-2.53.29-3.19-.81Z"/>
    <path class="cls-6" d="m357.94,187.65c-.65-1.1-.29-2.53.81-3.19,1.1-.65,2.53-.29,3.19.81.65,1.1.29,2.53-.81,3.19s-2.53.29-3.19-.81Z"/>
    <path class="cls-6" d="m298.6,199.08c-.65-1.1-.29-2.53.81-3.19s2.53-.29,3.19.81c.65,1.1.29,2.53-.81,3.19-1.1.65-2.53.29-3.19-.81Z"/>
    <path class="cls-6" d="m287.35,201.27c-.65-1.1-.29-2.53.81-3.19s2.53-.29,3.19.81c.65,1.1.29,2.53-.81,3.19-1.1.65-2.53.29-3.19-.81Z"/>
    <path class="cls-6" d="m275.15,203.66c-.65-1.1-.29-2.53.81-3.19,1.1-.65,2.53-.29,3.19.81s.29,2.53-.81,3.19c-1.1.65-2.53.29-3.19-.81Z"/>
    <path class="cls-6" d="m263.64,204.98c-.65-1.1-.29-2.53.81-3.19s2.53-.29,3.19.81c.65,1.1.29,2.53-.81,3.19s-2.53.29-3.19-.81Z"/>
    <path class="cls-6" d="m252.39,207.18c-.65-1.1-.29-2.53.81-3.19s2.53-.29,3.19.81c.65,1.1.29,2.53-.81,3.19s-2.53.29-3.19-.81Z"/>
    <path class="cls-6" d="m240.19,209.56c-.65-1.1-.29-2.53.81-3.19,1.1-.66,2.53-.29,3.19.81s.29,2.53-.81,3.19-2.53.29-3.19-.81Z"/>
    <polygon class="cls-6" points="228.25 213.4 225.85 224.28 222.14 216.21 208.87 215.18 221.49 209.38 222.17 199.48 226.65 209.22 234.91 209.35 228.25 213.4"/>
    <polygon class="cls-6" points="420.44 139.63 418.04 150.51 414.33 142.44 401.07 141.41 413.69 135.61 414.36 125.71 418.84 135.45 427.11 135.59 420.44 139.63"/>
    <polygon class="cls-6" points="52.76 210.7 49.98 220.45 46.76 210.22 40.27 209.34 47.82 206.97 48.1 195.91 50.61 203.89 60.55 201.5 56.69 205.77 60.17 212.07 52.76 210.7"/>
    <polygon class="cls-6" points="84.94 212.41 84.33 219.41 81.35 214.66 72.97 215.11 80.39 210.44 80 204.2 83.6 209.92 88.78 209.33 84.94 212.41"/>
  </g>
</svg>