<?xml version="1.0" encoding="UTF-8"?>
<svg id="object" xmlns="http://www.w3.org/2000/svg" viewBox="0 0 1200 800">
  <defs>
    <style>
      .cls-1 {
        fill: #fff;
      }

      .cls-2 {
        fill: none;
      }

      .cls-2, .cls-3 {
        opacity: .42;
      }

      .cls-3, .cls-4 {
        fill: #a1d9d4;
      }
    </style>
  </defs>
  <g>
    <g class="cls-2">
      <path class="cls-4" d="m578.2,308.96s1.09,8.23,1.41,11.63l-1.41-11.63Z"/>
    </g>
    <path class="cls-3" d="m566.86,285.41c.29-2.34.62-4.67.98-6.99-.38.05-.77.1-1.15.15,2.42,4,5.18,7.85,6.85,12.25.28.75,1.5.42,1.21-.33-1.7-4.51-4.5-8.45-6.97-12.55-.25-.42-1.06-.41-1.15.15-.37,2.44-.71,4.88-1.02,7.33-.1.8,1.16.79,1.26,0h0Z"/>
    <path class="cls-3" d="m612.41,200.25c-1.3,7.43,4.01,14.49,10.9,16.82,4.23,1.43,8.77,1.28,13.13.63,5.15-.77,10.44-2.84,15.69-1.96.79.13,1.13-1.08.33-1.21-4.28-.72-8.37.43-12.54,1.28-4.27.86-8.72,1.54-13.07.84-7.53-1.21-14.66-7.9-13.24-16.07.14-.79-1.07-1.13-1.21-.33h0Z"/>
    <path class="cls-3" d="m577.57,308.96c.51,3.87,1.04,7.74,1.41,11.63.08.8,1.33.81,1.26,0-.37-3.88-.89-7.76-1.41-11.63-.1-.79-1.36-.8-1.26,0h0Z"/>
    <path class="cls-3" d="m576.89,343.45c-1.26.59-2.41,1.53-3.46,2.43-2.96,2.52-5.41,5.64-7.45,8.94-3.47,5.59-5.82,11.83-7.47,18.18-2.56,9.86-3.48,20.13-3.53,30.3-.08,15.06,1.72,30.1,4.42,44.89,1.78,9.74,3.97,19.41,6.46,28.99,1.41,5.45,2.93,10.87,4.52,16.26,1.62,5.5,3.11,11.15,5.23,16.49,3.41,8.58,9.32,16.57,17.3,21.4,9.41,5.69,20.79,5.14,31.06,8.19,20.61,6.11,32.77,25.05,49.05,37.6,8.49,6.55,18.28,10.2,28.91,11.41,10.99,1.26,22.04.12,32.94-1.36,12.19-1.65,24.44-3.71,36.79-3.14,8.64.4,18.01,2.67,24.69,8.46,3.16,2.73,5.44,6.2,6.47,10.26.19.74,1.15.49,1.23-.17,1.6-12,2.04-24.59-1.86-36.22-3.46-10.32-10.37-18.95-18.62-25.89-18.37-15.45-42.19-22.23-60.87-37.21-17.04-13.67-29.21-33.23-33.98-54.55-5.55-24.8.21-50.56-5.36-75.36-1.21-5.39-2.95-10.69-5.4-15.65-2.1-4.27-4.71-8.58-8.2-11.86-3.01-2.83-6.43-5.19-9.62-7.81-3.08-2.53-6.38-5.38-8.07-9.08-.78-1.71-1.08-3.56-.77-5.42.13-.79-1.08-1.13-1.21-.33-1.32,7.91,6.49,13.67,11.94,17.94,3.06,2.39,6.38,4.71,8.86,7.73,3.68,4.48,6.43,9.77,8.44,15.19,8.95,24.17,3.5,50.28,6.53,75.29,2.61,21.48,12.43,41.8,27.59,57.24,8.15,8.3,17.78,14.69,27.95,20.24,10.68,5.83,21.8,10.92,31.98,17.64,9.23,6.09,17.88,13.6,23.51,23.24,6.31,10.78,7.65,23.37,6.86,35.63-.2,3.09-.53,6.17-.94,9.24.41-.06.82-.11,1.23-.17-1.99-7.83-8.38-13.11-15.6-16.1-9.05-3.75-18.97-4.01-28.61-3.38-22.51,1.47-45.56,8.68-67.95,2.4-10.99-3.08-19.63-9.9-27.72-17.71-7.23-6.99-14.2-14.32-22.34-20.28-3.89-2.85-8.04-5.36-12.5-7.23-5.04-2.12-10.35-3.16-15.73-4.03-5.45-.88-11.02-1.69-16.15-3.84-4.54-1.9-8.52-4.98-11.84-8.59-3.3-3.6-5.99-7.77-8-12.22-2.35-5.21-3.79-10.88-5.42-16.34-3.1-10.37-5.91-20.82-8.31-31.37-3.71-16.3-6.51-32.89-7.37-49.61-.59-11.3-.32-22.74,1.71-33.89,1.32-7.26,3.4-14.48,6.77-21.07,2.03-3.96,4.54-7.73,7.71-10.88,1.51-1.5,2.94-2.4,4.61-3.62.07-.05.15-.08.23-.12.73-.34.09-1.43-.63-1.08h0Z"/>
    <path class="cls-3" d="m655.3,305.85c.14-3.95.9-7.79,2.25-11.5.28-.76-.94-1.09-1.21-.33-1.39,3.81-2.15,7.78-2.3,11.84-.03.81,1.23.81,1.26,0h0Z"/>
    <path class="cls-3" d="m659.2,269.05c-.24-6.67.17-13.98,4-19.71,3.49-5.22,11.69-7.56,12.09-14.64.17-2.94-1.5-4.65-3.89-6.01-1.84-1.05-2.68-2.19-3.2-4.27-.4-1.58-.76-3.09-1.6-4.51-1.43-2.42-3.73-4.3-6.34-5.31-2.17-.84-6.24-1.67-7.91.53-.76,1-.73,2.3-.69,3.49.07,1.95-.03,3.83-.5,5.73-.88,3.56-2.74,6.85-5.2,9.56-5.09,5.6-12.2,8.33-19.4,10.01-3.46.81-7,1.59-10.13,3.35-2.6,1.47-4.76,3.58-6.65,5.87-3.82,4.62-6.77,10.31-11.88,13.7-6.83,4.53-15.72,2.98-22.9,6.71-2.68,1.39-5.74,3.87-6.25,7.04-.59,3.65,3.44,5.36,3.76,8.69.08.8,1.33.81,1.26,0-.27-2.78-2.73-4.22-3.6-6.71-1.24-3.51,2.99-6.69,5.68-8.04,6.14-3.07,13.35-2.36,19.64-4.99,5.35-2.24,8.77-6.87,12.07-11.42,1.77-2.44,3.56-4.89,5.76-6.97,2.49-2.35,5.42-3.83,8.69-4.8,3.29-.97,6.68-1.53,9.95-2.57,3.17-1.01,6.25-2.36,9.06-4.15,5.26-3.36,9.56-8.37,11.22-14.47.36-1.34.6-2.71.68-4.09.11-1.78-.72-4.77,1.22-5.73,1.38-.68,3.54-.25,4.94.18,1.58.48,3.06,1.33,4.29,2.44,1.23,1.1,2.23,2.47,2.84,4.01.6,1.51.71,3.17,1.36,4.66.45,1.02,1.13,1.82,2.05,2.46,1.44,1,3.21,1.5,4,3.21,1.78,3.87-1.69,7.58-4.48,9.76-2.79,2.17-5.52,4.16-7.41,7.22-3.6,5.83-4.04,13.08-3.8,19.76.03.81,1.29.81,1.26,0h0Z"/>
    <path class="cls-3" d="m637.03,545.24c.27,8.34.58,16.68.9,25.02.7,18.16,1.48,36.31,2.4,54.46.9,17.68,1.84,35.37,3.43,53,.49,5.47.98,10.99,1.96,16.4.87,4.76,2.03,9.41,1.84,14.3-.12,3.26-.76,6.97-3.03,9.48-.95,1.05-1.65,1.18-2.41,2.09-2.79,3.34-5.82,6.88-7.67,10.84-.62,1.33-.58,2.36-1.91,3.17-1.71,1.05-3.76,1.6-5.7,2.07-2.29.56-4.62.95-6.97,1.13-1.72.13-3.74.32-5.41-.23-2.54-.82-1.06-4.67-.29-6.25,2.95-6.07,7.16-11.6,10.91-17.18,3.35-4.98,6.43-10.03,5.74-16.25-1.13-10.18-3.09-20.31-4.8-30.4-2.89-17.11-5.88-34.19-8.89-51.28-2.99-16.96-6.01-33.92-9.04-50.88-1.74-9.7-3.48-19.41-5.23-29.11-.08-.46-.17-.92-.25-1.37-.14-.79-1.35-.46-1.21.33,1.28,7.09,2.55,14.17,3.83,21.26,2.9,16.15,5.78,32.3,8.64,48.46,3.16,17.84,6.29,35.69,9.35,53.55,2.08,12.15,4.25,24.3,5.97,36.51.55,3.91.81,7.55-.86,11.33-.96,2.18-2.31,4.18-3.62,6.16-2.12,3.2-4.3,6.36-6.4,9.57-1.66,2.54-3.34,5.09-4.76,7.77-.72,1.37-1.45,2.83-1.67,4.38-.16,1.08-.02,2.19.44,3.18.53,1.12,1.6,1.45,2.76,1.64,4.12.66,8.73-.22,12.71-1.26,1.83-.48,3.76-1.05,5.39-2.05,1.27-.78,1.58-1.51,2.04-2.85.75-2.21,2.31-4.24,3.67-6.1,1.29-1.78,2.66-3.51,4.07-5.2.12-.15.93-1,.33-.56.11-.08.29-.12.41-.19.57-.33,1.09-.75,1.54-1.22,2.11-2.18,3.02-5.29,3.39-8.23.96-7.61-1.59-15.06-2.53-22.55-1.96-15.79-2.77-31.75-3.67-47.63-1.09-19.23-1.96-38.47-2.75-57.72-.49-11.95-.94-23.9-1.35-35.86-.02-.58-.04-1.16-.06-1.74-.03-.81-1.28-.81-1.26,0h0Z"/>
    <path class="cls-3" d="m609.44,579.59c-4.11,17.54-8.23,35.07-12.24,52.63-2.02,8.83-4.02,17.67-5.98,26.52-1.01,4.57-2.02,9.14-3.01,13.72-.83,3.83-2.56,7.94-.91,11.74,1.64,3.78,5.47,6.12,8.14,9.13,2.95,3.33,5.07,7.19,5.5,11.67l.46-.61c-5.34,1.99-11.38,1.96-16.71-.07-2.42-.92-5.26-2.4-6.9-4.48-1.11-1.41-.98-3.68-1.2-5.36-.18-1.4-.49-2.67-1.11-3.92-.56-1.13-.82-2.04-1.69-2.99-.88-.97-1.86-1.84-2.81-2.74-1.96-1.85-4.08-3.92-4.02-6.82.08-3.32,1.78-6.5,3.57-9.21.85-1.28,1.76-2.51,2.69-3.73.92-1.22,2.08-2.4,2.51-3.9.39-1.35.24-2.78.48-4.15.25-1.46.37-2.9.49-4.38.27-3.48.56-6.96.86-10.43.6-6.89,1.27-13.77,2.07-20.63,1.61-13.85,3.74-27.65,6.88-41.24,3.49-15.16,8.27-30.03,14.87-44.13.34-.73-.74-1.37-1.08-.63-12.16,25.99-18.04,54.29-21.51,82.62-.88,7.15-1.6,14.31-2.25,21.48-.33,3.67-.64,7.33-.93,11-.14,1.72-.18,3.48-.44,5.19-.24,1.55-.19,3.25-.57,4.76-.43,1.7-1.91,3.12-2.94,4.49-1.01,1.36-2.01,2.73-2.89,4.17-1.57,2.56-2.88,5.49-3.03,8.53-.12,2.39,1.03,4.41,2.58,6.13,1.86,2.06,4.67,3.74,5.72,6.36.29.73.69,1.41.93,2.16.34,1.08.43,2.24.55,3.36.16,1.44.23,3.22,1.03,4.48,1.42,2.25,4.67,3.92,7.02,4.91,5.71,2.41,12.39,2.56,18.19.4.24-.09.49-.32.46-.61-.7-7.24-5.37-12.51-10.56-17.2-1.55-1.4-2.88-2.94-3.52-4.98-.78-2.47.25-5.17.78-7.62.99-4.59,2-9.18,3.01-13.76,3.84-17.4,7.83-34.77,11.87-52.13,2.28-9.79,4.58-19.59,6.87-29.38.18-.79-1.03-1.12-1.21-.33h0Z"/>
    <path class="cls-3" d="m696.92,228.72c2.76,1.86,4.48,4.72,4.93,8.01.11.8,1.32.46,1.21-.33-.5-3.61-2.5-6.73-5.51-8.76-.67-.45-1.3.63-.63,1.08h0Z"/>
    <path class="cls-3" d="m734.64,251.06c-.65,14.99-6.07,31.16,1.49,45.3,3.18,5.96,8.47,9.87,14.9,11.74,7.02,2.05,14.44,2.1,21.52,3.86,8.63,2.15,16.71,6.21,23.61,11.82.62.51,1.52-.38.89-.89-5.62-4.57-11.96-8.15-18.8-10.54-6.99-2.44-14.22-2.98-21.46-4.24-6.98-1.22-13.64-3.7-17.9-9.67-3.93-5.49-5.41-12.49-5.51-19.14-.14-9.48,2.11-18.8,2.52-28.25.04-.81-1.22-.81-1.26,0h0Z"/>
    <path class="cls-3" d="m723.78,265.1c0,3.88.37,7.74,1.07,11.56.15.79,1.36.46,1.21-.33-.68-3.71-1.02-7.45-1.03-11.23,0-.81-1.26-.81-1.26,0h0Z"/>
    <path class="cls-3" d="m725.59,285.05c1.73,5.88,3.52,11.92,7.04,17.03,3.08,4.46,7.39,7.81,12.09,10.42,9.78,5.45,21.07,7.99,29.93,15.08,4.7,3.76,8.43,8.65,9.44,14.7.13.8,1.34.46,1.21-.33-1.75-10.44-11.04-17.23-19.97-21.55-10.06-4.86-21.78-7.69-29.52-16.29-4.87-5.42-7-12.54-9.01-19.38-.23-.77-1.44-.44-1.21.33h0Z"/>
    <path class="cls-3" d="m700.41,298.28c1.81,11.79,7.28,22.87,15.35,31.64,3.97,4.31,8.58,8.06,13.65,11.01,5.72,3.34,12.16,5.43,17.53,9.38,5.55,4.09,10.25,11.89,6.67,18.71-.31.6.52,1.34.99.76,4.78-5.96,6.72-13.77,5.55-21.3-1.33-8.56-6.98-14.79-13.45-20.11-7.49-6.14-14.91-12.18-21.67-19.14-3.26-3.36-6.66-6.83-8.66-11.13-2.17-4.68-2.45-9.97-3.08-15.02-1.3-10.4-3.45-20.83-8.53-30.11-.39-.71-1.47-.08-1.08.63,4.55,8.3,6.7,17.58,8.01,26.88.65,4.62.88,9.35,2.05,13.88,1.04,4.05,3.07,7.51,5.74,10.7,6.06,7.22,13.27,13.69,20.59,19.6,6.55,5.3,14.1,10.46,17.36,18.58,3.38,8.43,1.97,18.55-3.72,25.64.33.25.66.51.99.76,2.72-5.18,1.1-11.24-2.26-15.73-3.86-5.16-9.92-7.92-15.58-10.6-6.01-2.85-11.6-6.13-16.53-10.63-4.61-4.21-8.54-9.13-11.64-14.54-3.57-6.24-5.97-13.09-7.06-20.2-.12-.8-1.33-.46-1.21.33h0Z"/>
    <path class="cls-3" d="m681.63,240.91c6.21,8.54,10.2,18.53,11.51,29.02.1.79,1.36.8,1.26,0-1.34-10.71-5.33-20.91-11.68-29.65-.47-.65-1.56-.02-1.08.63h0Z"/>
    <path class="cls-3" d="m698.94,268.34c7.3,10.72,6.34,24.35,9.15,36.51,1.35,5.84,3.7,11.26,7.49,15.93,3.72,4.58,8.41,8.26,13.13,11.75,5.6,4.15,11.37,8.11,16.22,13.15.56.58,1.45-.31.89-.89-8.33-8.63-19.41-14.04-27.56-22.85-4.37-4.72-7.18-10.27-8.73-16.49-1.5-6.01-2.01-12.21-2.93-18.32-1.03-6.82-2.64-13.65-6.57-19.43-.45-.66-1.54-.04-1.08.63h0Z"/>
    <path class="cls-3" d="m732.57,329.07c5.95,2.25,10.81,6.68,13.66,12.35.36.72,1.45.09,1.08-.63-3.01-5.98-8.16-10.57-14.41-12.93-.76-.29-1.08.93-.33,1.21h0Z"/>
    <path class="cls-3" d="m837.33,362.16c-7.02-3.33-15.96-1.5-22.25-6.63-6.42-5.24-4.78-14.21-3.86-21.4.98-7.61,1.24-15.04-3.41-21.58-4.66-6.56-12-10.47-19.69-12.34-8.3-2.02-16.74-1.46-25.16-2.27-3.78-.36-7.7-1.09-11.02-3.04-3.63-2.13-5.88-5.65-6.59-9.77-.74-4.26-.08-8.67.41-12.92.44-3.85.68-7.69.47-11.57-.78-14.89-6.85-29.3-16.48-40.63-4.78-5.62-10.46-10.49-16.81-14.26-6.96-4.13-14.66-6.66-22.34-9.07-7.97-2.5-16.1-4.89-23.37-9.1-6.62-3.83-11.96-9.22-15.93-15.74-7.49-12.31-10.24-26.79-14.96-40.24-2.34-6.68-5.16-13.27-9.17-19.13-3.99-5.82-9.15-10.65-15.25-14.2-12.27-7.14-27.63-9.16-41.27-5.12-3.25.96-6.38,2.28-9.34,3.91-2.83,1.6-5.44,3.51-7.48,6.07-2.06,2.58-3.59,5.54-5.22,8.4-4.56,7.99-6.62,16.74-7.55,25.84-1.92,18.68.12,37.73-3.81,56.2-1.99,9.36-5.88,17.71-10.89,25.81-4.94,7.99-9.83,15.84-13.12,24.69-6.28,16.88-7.44,35.63-2.15,52.94,2.47,8.09,6.28,15.8,11.31,22.61,4.92,6.65,11.08,13.04,18.73,16.47,1.84.82,3.74,1.45,5.7,1.88.79.17,1.12-1.04.33-1.21-8.53-1.87-15.38-7.75-20.9-14.26-5.48-6.47-9.75-13.96-12.66-21.92-6.14-16.79-5.96-35.24-.54-52.2,2.87-8.97,7.3-17.06,12.28-25.01,4.71-7.52,9.13-15.06,11.64-23.62,5.06-17.24,3.8-35.47,4.66-53.2.49-10.15,1.46-20.7,5.76-30.05,1.72-3.73,3.86-7.46,6.15-10.87,2.17-3.23,5.02-5.57,8.4-7.48,12.79-7.05,28.54-7.45,42.07-2.28,6.76,2.59,12.99,6.63,17.91,11.96,4.89,5.3,8.37,11.77,11.07,18.4,5.27,12.94,7.85,26.85,13.71,39.57,2.82,6.13,6.5,11.92,11.43,16.59,5.62,5.32,12.58,8.78,19.78,11.44,7.68,2.84,15.65,4.85,23.31,7.76,7.4,2.81,14.25,6.68,20.25,11.85,11.31,9.76,19.32,23.3,22.32,37.95,1.57,7.66,1.35,15.14.48,22.86-.83,7.32-1.09,15.58,5.32,20.57,5.6,4.36,13.44,4.57,20.21,4.74,9.15.23,18.68.81,26.94,5.15,6.99,3.67,12.91,10.15,13.77,18.26.78,7.42-1.75,14.71-1.41,22.13.15,3.24.95,6.45,2.94,9.08,2.1,2.78,5.15,4.45,8.44,5.44,3.8,1.14,7.78,1.46,11.65,2.25,3.78.77,7.21,2.38,9.86,5.26,2.16,2.35,3.48,5.46,2.24,8.37-3.42-8.51-13.98-11.3-22.38-11.79-5.94-.35-11.92.15-17.83-.74-2.91-.44-5.82-1.19-8.43-2.57-2.83-1.5-5-3.7-7.05-6.12-3.82-4.51-9.22-10.52-15.86-7.93-.5.19-.69,1.11,0,1.21,7.34,1.04,7.44,10.23,8.97,15.72,1.39,4.99,4.77,8.49,9.48,10.52,9.68,4.17,21.47,2.93,29.57,10.59,4.43,4.2,7.12,10.04,7.31,16.11-5.34-7.59-15.2-10.18-24.12-10.63-5.93-.3-11.86.09-17.79,0-5.65-.09-11.32-.46-16.89-1.47-5.38-.98-10.69-2.55-15.58-5.04-4.67-2.37-8.79-5.6-12.76-8.98-7.63-6.5-15.04-13.4-24.97-16.09-6.1-1.65-12.47-1.97-18.75-2.34-7.19-.42-14.37-.84-21.56-1.27-.81-.05-.81,1.21,0,1.26,6.25.37,12.5.73,18.75,1.1,5.8.34,11.66.53,17.39,1.59,5.28.98,10.19,2.86,14.7,5.78,4.17,2.7,7.91,6,11.66,9.24,3.6,3.11,7.24,6.21,11.28,8.74,4.39,2.76,9.24,4.73,14.25,6.06,10.37,2.75,21.15,2.79,31.8,2.61,11.54-.19,26.28.38,32.63,11.87.32.58,1.13.27,1.17-.32.39-5.86-1.52-11.68-5.11-16.31-3.52-4.54-8.32-7.32-13.77-8.89-5.21-1.5-10.63-2.1-15.8-3.71-5.82-1.82-10.24-5.17-11.82-11.29-1.34-5.18-1.91-12.97-7.37-15.42,5.28-.41,9.46,4.84,12.64,8.56,3.55,4.15,7.73,6.9,13.09,8.12,10.25,2.34,20.99-.23,31.08,3.19,5.06,1.72,9.77,4.95,11.33,10.3.16.55.84.58,1.15.15,4.2-5.96-2.03-12.66-7.3-15.16Z"/>
    <path class="cls-3" d="m600.48,208.29c-.12,0-.25,0-.37,0-5.4-.19-11.84-3.07-19.13-8.57-5.39-4.07-9.28-8.14-9.32-8.18l.91-.87c.15.16,15.28,15.94,27.58,16.36,12.1.43,21.81-23.53,21.91-23.77l1.17.47c-.02.06-2.52,6.28-6.55,12.36-5.37,8.1-10.82,12.2-16.2,12.2Z"/>
    <g class="cls-2">
      <path class="cls-4" d="m573.37,288.99c.39.75.67,1.35.77,1.67l1.82-.64c-.94-.24-1.8-.59-2.59-1.02Z"/>
    </g>
    <path class="cls-3" d="m588.22,204.79c1.99,4.04,3.48,8.44,2.73,13-.61,3.7-2.33,7.12-5.27,9.49-2.71,2.18-6.28,3.46-9.76,3.42-4.32-.05-8.66-.39-12.98-.03-3.8.32-8.02,1.1-11.18,3.36-2.36,1.68-4.1,4.03-5.25,6.68-1.22,2.8-1.8,5.8-2.19,8.81-.46,3.64-.83,7.28-1.28,10.92-2.29,18.18-1.87,36.55-.05,54.75.79,7.84,1.26,16.06,4.28,23.44,2.35,5.73,7.32,13.32,14.3,13.25,3.71-.04,7.11-2,10.18-3.88,3.78-2.32,7.51-4.72,11.23-7.13,7.14-4.64,14.18-9.43,21.12-14.37,6.74-4.81,13.38-9.77,19.92-14.85,3.45-2.68,6.87-5.4,10.27-8.14,1.65-1.34,3.3-2.68,4.93-4.03.75-.62,1.5-1.24,2.25-1.86.57-.47,1.21-1.13,1.92-1.36.81-.26,1.74-.12,2.55,0,1.78.26,3.34.44,5.15.24,1.85-.21,3.69-.49,5.5-.89,3.68-.81,7.29-2.11,10.49-4.12,5.81-3.65,8.39-9.47,8.28-16.23-.05-3.41-.69-6.81-1.62-10.09-.75-2.66-1.42-5.94-4.72-6.32-2.99-.35-5.66,2.98-7.17,5.16-.96,1.38-1.77,2.86-2.58,4.34-.95,1.74-1.82,3.71-3.26,5.11-2.57,2.49-6.19,3.26-8.84,5.53-1.38,1.19-2.48,2.63-3.65,4.02-1.45,1.72-2.99,2.87-4.92,4.02-7.66,4.55-15.49,8.83-23.33,13.05-7.81,4.2-15.64,8.35-23.37,12.7-3.93,2.22-7.83,4.48-11.69,6.82-1.05.64-2.1,1.28-3.15,1.93-.94.59-1.9,1.35-2.97,1.67-2.69.8-4.73-1.44-5.95-3.52-1.81-3.08-2.39-6.77-2.47-10.29-.02-.81-1.28-.81-1.26,0,.08,3.25.57,6.53,1.92,9.51,1.24,2.74,3.53,5.89,6.9,5.72,1.7-.08,3.08-1.14,4.47-2.01,2.08-1.29,4.18-2.56,6.28-3.81,3.77-2.23,7.57-4.4,11.39-6.53,7.48-4.16,15.05-8.16,22.58-12.22,7.74-4.17,15.68-8.24,23.07-13.02,3.1-2.01,4.62-5.7,7.73-7.64,2.88-1.79,6.11-2.89,8.5-5.4,2.27-2.38,3.42-5.85,5.19-8.6.92-1.43,1.98-2.79,3.3-3.88.76-.63,1.76-1.41,2.79-1.44,1.6-.04,2.55,1.09,3.06,2.42,2.33,6.05,3.63,13.68,1.48,19.95-2.62,7.61-11.01,10.91-18.32,12.26-1.78.33-3.64.68-5.46.71-1.93.03-3.85-.84-5.79-.48-1.63.31-2.82,1.7-4.05,2.72-1.72,1.42-3.44,2.83-5.17,4.23-6.56,5.32-13.21,10.53-19.98,15.59-13.52,10.12-27.49,19.61-41.81,28.56-3.41,2.13-7.25,4.77-11.45,4.57-4.07-.19-7.33-3.61-9.55-6.75-4.49-6.37-5.62-14.09-6.5-21.64-2.08-17.76-3.07-35.69-1.58-53.54.38-4.52,1.08-8.98,1.6-13.48.36-3.1.49-6.2,1.16-9.26.69-3.17,1.83-6.34,4-8.81,2.73-3.11,6.73-4.4,10.72-4.98,4.22-.62,8.5-.36,12.75-.25,3.39.09,6.45-.15,9.56-1.62,5.94-2.79,9.35-8.96,9.2-15.46-.09-3.77-1.46-7.32-3.1-10.66-.36-.73-1.44-.09-1.09.63h0Z"/>
    <path class="cls-3" d="m635.52,303.66c5.11.91,10.28,1.52,15.46,1.89,2.64.19,5.28.32,7.92.41,1.43.05,2.87.08,4.3.1,1.18.02,2.64.27,3.78.01,2.87-.65,4.27-4.27,4.33-6.84.07-3.3-1.12-6.49-1.92-9.64-.2-.78-1.41-.45-1.21.33.72,2.82,1.76,5.64,1.87,8.58.06,1.47-.14,2.99-.95,4.26-.43.67-1.06,1.36-1.77,1.74-1.04.56-2.36.33-3.51.32-9.36-.11-18.73-.72-27.96-2.37-.79-.14-1.13,1.07-.33,1.21h0Z"/>
    <path class="cls-3" d="m602.2,306.91c-4.93-1.37-10.01-1.41-15.06-.77-2.47.31-4.93.76-7.37,1.25-2.54.51-5.1,1.22-7.7,1.37-4.17.24-8.79-.28-12.1-3.07-2.95-2.49-5.32-6.14-6.98-9.59-1.73-3.59-2.83-7.81-1.66-11.74.55-1.85,1.96-4.87,4.06-5.26,2.11-.39,4.37,1.22,6.01,2.38,1.83,1.29,3.16,3.19,4.85,4.66,1.44,1.24,3.05,2.09,4.79,2.82,2.1.88,4.13,1.84,6.4,2.17,2.62.37,5.12.42,7.48,1.74,2.27,1.27,4.44,2.73,7.02,3.28,2.67.57,5.39.93,8.09,1.28,6.03.76,12.08,1.34,17.98,2.85.78.2,1.12-1.01.33-1.21-5.43-1.39-10.99-2.01-16.55-2.68-2.89-.35-5.78-.72-8.64-1.27-2.85-.55-5.1-1.93-7.6-3.33-2.26-1.27-4.59-1.5-7.12-1.79-2.67-.31-5.12-1.38-7.57-2.47-4.29-1.91-6.64-5.98-10.63-8.3-1.5-.87-3.32-1.69-5.1-1.37-1.87.33-3.08,2.1-3.96,3.66-1.87,3.33-1.93,7.24-.95,10.85,1.08,4,3.27,7.67,5.83,10.9,2.63,3.31,5.58,5.6,9.81,6.41,5.5,1.05,10.66-.39,16.04-1.41,6.62-1.26,13.37-1.96,19.96-.13.78.22,1.11-.99.33-1.21h0Z"/>
    <path class="cls-3" d="m672.46,240.21c4.38,10.04,9.01,20.04,12.9,30.27,3.75,9.87,6.43,19.85,8.13,30.26.83,5.09,1.64,10.33.81,15.47-.18,1.15-.46,2.28-.83,3.38-.43,1.28-1.17,2.29-1.82,3.45-.73,1.31-1.49,2.21-2.81,2.93-1.03.56-2.15.94-3.31,1.15-4.46.8-9.03-.71-13.35-1.66-5.11-1.12-10.35-1.55-15.47-2.63-11.79-2.48-23.24-6.27-34.56-10.35-.76-.27-1.09.94-.33,1.21,10.76,3.88,21.65,7.5,32.83,9.98,2.7.6,5.41,1.13,8.13,1.58,2.7.45,5.44.67,8.12,1.22,4.41.9,8.9,2.43,13.45,2.06,2.03-.16,4.02-.74,5.75-1.83.85-.54,1.63-1.09,2.1-1.99.57-1.09,1.4-2.07,1.87-3.18,1.97-4.62,2.06-9.7,1.55-14.62-1.14-10.87-3.64-21.55-7.25-31.85-4.23-12.08-9.71-23.76-14.83-35.48-.32-.74-1.41-.1-1.08.63h0Z"/>
    <path class="cls-3" d="m593.8,132.69c4.31,3.34,6.75,8.25,8.95,13.11,2.49,5.49,4.8,11.07,7.29,16.56,4.52,9.97,9.74,19.77,17.38,27.73,7.44,7.75,16.58,12.8,27.25,14.36,5.96.87,12,1.07,17.95,2.06,5.87.98,11.68,2.54,17.11,4.98,10.87,4.9,20.3,13.66,23.66,25.37.22.78,1.44.45,1.21-.33-2.75-9.59-9.56-17.51-17.92-22.75-9.94-6.22-21.49-8.54-33-9.61-6.16-.57-12.39-1.09-18.24-3.26-5-1.86-9.57-4.79-13.57-8.3-8.53-7.49-14.37-17.34-19.17-27.5-2.91-6.14-5.49-12.43-8.26-18.64-2.41-5.38-4.96-10.97-9.74-14.67-.63-.49-1.53.39-.89.89h0Z"/>
    <path class="cls-3" d="m611.18,143.71c5.23,10.02,5.6,21.55,9.15,32.13,1.53,4.56,3.64,8.99,6.78,12.67,3.31,3.87,7.7,6.51,12.49,8.14,11.07,3.76,22.99,2.11,34.38,3.99,9.81,1.62,19.25,5.27,27.67,10.54,9.54,5.98,17.72,14.04,23.72,23.57.43.68,1.52.05,1.09-.63-10.33-16.41-27.04-28.52-45.81-33.36-4.95-1.28-10-1.97-15.09-2.28-6.26-.38-12.59-.3-18.79-1.36-5.28-.9-10.57-2.59-14.89-5.84-4.41-3.31-7.37-8.12-9.38-13.18-4.5-11.37-4.5-24.08-10.22-35.03-.37-.72-1.46-.08-1.08.63h0Z"/>
    <path class="cls-3" d="m587.96,129.74c-8.78-.73-14.42,7.21-16.51,14.76-2.69,9.66-1.76,19.84-.86,29.68.92,10,1.93,20.41-1.03,30.17-2.59,8.57-8.12,15.93-16.67,19.15-8.46,3.19-19.29,3.74-24.45,12.31-.42.69.67,1.33,1.08.63,4.73-7.86,14.81-8.65,22.67-11.37,7.7-2.66,13.38-8.12,16.74-15.51,8.09-17.81.66-37.51,2.23-56.11.78-9.27,4.89-23.46,16.8-22.47.81.07.8-1.19,0-1.26h0Z"/>
    <path class="cls-3" d="m549.1,218.13c7.87-2.32,12.48-10.17,13.7-17.89,1.74-11-2.35-21.82-2.47-32.78-.06-5.76.95-11.54,4.21-16.4.45-.67-.64-1.3-1.08-.63-11.81,17.59,4.9,39.24-4.39,57.34-2.18,4.25-5.64,7.78-10.3,9.15-.77.23-.44,1.44.33,1.21h0Z"/>
    <path class="cls-3" d="m577.88,120.92c-10,6.37-17.63,16.02-21.84,27.07-2.09,5.48-3.32,11.3-3.57,17.17-.29,7.05,1.23,13.9,2.23,20.83.62,4.3,1.08,8.82.36,13.13-.54,3.27-2.04,7-5.56,7.92-.78.21-.45,1.42.33,1.21,5.65-1.49,6.73-8.4,6.8-13.34.11-7.74-2.05-15.26-2.74-22.92-1.13-12.41,2.39-24.95,9.39-35.21,4.02-5.89,9.2-10.95,15.22-14.79.68-.43.05-1.52-.63-1.09h0Z"/>
    <path class="cls-3" d="m619.86,110.94c-8.38-7.79-19.67-12.01-31.1-11.7-.81.02-.81,1.28,0,1.26,11.11-.3,22.07,3.76,30.22,11.33.59.55,1.48-.34.89-.89h0Z"/>
    <path class="cls-3" d="m578.46,99.4c-9.72,2.58-18.3,8.51-24.09,16.74-.47.66.62,1.29,1.08.63,5.6-7.96,13.95-13.67,23.34-16.16.78-.21.45-1.42-.33-1.21h0Z"/>
    <path class="cls-3" d="m550.9,122.67c-.82,4.11-1.31,8.26-1.48,12.44-.03.81,1.22.81,1.26,0,.16-4.07.64-8.11,1.43-12.11.16-.79-1.05-1.13-1.21-.33h0Z"/>
    <path class="cls-3" d="m662.85,190.87c6.86,4.85,15.38,6.6,23.46,8.27,8.19,1.69,16.52,3.29,23.85,7.52.7.41,1.33-.68.63-1.08-7.11-4.1-15.15-5.8-23.11-7.43-8.31-1.71-17.14-3.36-24.2-8.36-.66-.47-1.29.62-.63,1.08h0Z"/>
    <path class="cls-3" d="m522.28,244.65c-1.38,11.13-1.79,22.6-.46,33.75,1.15,9.6,4.28,19.3,11.59,26,.6.55,1.49-.34.89-.89-7.52-6.89-10.45-16.99-11.41-26.85-1.03-10.62-.66-21.43.65-32.01.1-.8-1.16-.79-1.26,0h0Z"/>
    <path class="cls-3" d="m535.75,242.03c-3.83,4.57-3.51,11.67-3.47,17.29.05,6.37,1.01,12.82,4.38,18.34.42.69,1.51.06,1.08-.63-3.16-5.18-4.11-11.19-4.2-17.17-.04-2.77.06-5.56.28-8.33.24-3.05.8-6.19,2.82-8.6.52-.62-.37-1.51-.89-.89h0Z"/>
    <path class="cls-3" d="m515.36,275.12c-1.89,20.48,8.05,40.5,25.46,51.41.69.43,1.32-.66.63-1.08-17.06-10.69-26.69-30.28-24.84-50.32.07-.8-1.18-.8-1.26,0h0Z"/>
    <path class="cls-3" d="m572.83,318.22c1.75.96,3.61,1.53,5.59,1.71.8.08.8-1.18,0-1.26-1.76-.17-3.41-.69-4.96-1.54-.71-.39-1.34.69-.63,1.08h0Z"/>
    <path class="cls-3" d="m581.47,201.57c.74,4.94-.91,9.95-4.39,13.52-.56.58.32,1.47.89.89,3.82-3.92,5.52-9.34,4.71-14.75-.12-.8-1.33-.46-1.21.33h0Z"/>
    <path class="cls-3" d="m583.46,211.65c-1.1,4.36-3.75,8.02-7.14,10.92-3.24,2.78-7.56,4.31-10.33,7.62-.51.62.37,1.51.89.89,1.57-1.87,3.62-3.05,5.68-4.3,1.91-1.16,3.72-2.45,5.37-3.96,3.2-2.93,5.67-6.6,6.74-10.84.2-.78-1.01-1.12-1.21-.33h0Z"/>
    <path class="cls-3" d="m620.53,197.68c5.07,6.76,12.39,11.52,20.65,13.35.79.17,1.12-1.04.33-1.21-7.92-1.75-15.03-6.27-19.9-12.77-.48-.64-1.57-.01-1.08.63h0Z"/>
    <path class="cls-3" d="m665.88,212.12c5.3,4.51,12.38,5.97,17.81,10.25,5.57,4.39,8.8,11.29,8.77,18.35,0,.81,1.25.81,1.26,0,.03-6.84-2.85-13.58-7.91-18.21-5.55-5.07-13.35-6.44-19.04-11.29-.61-.52-1.51.36-.89.89h0Z"/>
    <path class="cls-3" d="m602.05,117.59c4.77,2.25,9,5.48,12.37,9.55,3.74,4.51,6.02,9.86,7.58,15.46,2.93,10.54,3.86,22.5,11.36,31.08,3.59,4.11,8.48,7.06,14,7.43.81.06.8-1.2,0-1.26-11.82-.81-17.83-12.61-20.55-22.69-2.83-10.5-4.04-21.56-11.04-30.35-3.5-4.4-8-7.92-13.08-10.32-.73-.34-1.37.74-.63,1.08h0Z"/>
    <path class="cls-3" d="m568.12,246.9c5.12.7,10.28,1,15.44.8,2.55-.1,5.1-.5,7.66-.54,2.44-.04,5.31.78,5.7,3.58.11.8,1.32.46,1.21-.33-.73-5.23-7.14-4.5-10.9-4.19-6.26.51-12.56.32-18.77-.53-.79-.11-1.13,1.1-.33,1.21h0Z"/>
    <path class="cls-3" d="m626.96,240.72c.16-1.68.57-3.35,1.49-4.78.97-1.51,2.53-2.52,3.99-3.5,2.94-1.97,6.07-3.63,9.33-4.97.74-.3.41-1.52-.33-1.21-3.89,1.61-7.61,3.6-11.03,6.07-2.93,2.12-4.36,4.81-4.71,8.4-.08.8,1.18.8,1.26,0h0Z"/>
    <path class="cls-3" d="m619.67,180.69c-.95,2.1-1.96,4.16-3.04,6.2-.38.71.71,1.35,1.08.63,1.08-2.04,2.09-4.1,3.04-6.2.33-.73-.75-1.37-1.08-.63h0Z"/>
    <path class="cls-3" d="m614.84,183.28c-1.2,2.83-2.7,5.5-4.48,8.01-.47.66.62,1.29,1.08.63,1.78-2.51,3.28-5.18,4.48-8.01.31-.74-.77-1.38-1.08-.63h0Z"/>
    <path class="cls-3" d="m570.09,330.36c5.52.69,10.16-2.55,14.36-5.7.64-.48.01-1.57-.63-1.08-4.02,3.02-8.42,6.19-13.72,5.52-.8-.1-.79,1.16,0,1.26h0Z"/>
    <path class="cls-3" d="m565.82,335.39c2.22-.1,4.32-.6,6.36-1.48.74-.32.1-1.4-.63-1.09-1.83.79-3.74,1.21-5.73,1.31-.81.04-.81,1.29,0,1.26h0Z"/>
    <path class="cls-3" d="m657.62,223.82c1.27,10.05-4.96,19.84-14.52,23.07-4.89,1.65-9.92,2.57-14.64,4.75-4.38,2.02-8.31,4.85-11.19,8.75-.48.65.61,1.28,1.09.63,3.31-4.49,8.18-7.42,13.31-9.38,4.99-1.91,10.5-2.53,15.26-4.99,8.17-4.22,13.1-13.73,11.95-22.83-.1-.79-1.36-.8-1.26,0h0Z"/>
    <path class="cls-3" d="m632.95,257.21c-4.18,1.93-7.38,5.22-10.34,8.66-3.2,3.72-6.29,7.46-10.24,10.43-7.96,5.98-17.89,9.07-27.84,8.66-.81-.03-.81,1.22,0,1.26,9.81.4,19.67-2.53,27.66-8.24,3.99-2.85,7.2-6.39,10.35-10.1,3.19-3.75,6.49-7.48,11.04-9.58.73-.34.1-1.42-.63-1.08h0Z"/>
    <path class="cls-3" d="m603.08,292.54c6.98-1.31,13.3-5.06,17.8-10.56.51-.62-.38-1.52-.89-.89-4.37,5.35-10.45,8.96-17.24,10.23-.79.15-.46,1.36.33,1.21h0Z"/>
    <path class="cls-3" d="m577.83,309.84c2.82,3.74,7.52,5.5,12.11,4.47.79-.18.45-1.39-.33-1.21-3.98.89-8.22-.62-10.69-3.89-.48-.64-1.57-.01-1.08.63h0Z"/>
    <path class="cls-3" d="m656.1,295.41c-3.31,4.32-8.55,6.74-13.97,6.57-.81-.02-.81,1.23,0,1.26,5.9.18,11.47-2.52,15.05-7.19.49-.64-.6-1.27-1.09-.63h0Z"/>
    <path class="cls-3" d="m649.83,323.9c-.18,2.9-.84,5.73-2.04,8.38-1.01,2.24-2.34,4.32-3.48,6.49-2.24,4.27-3.31,8.86-2.89,13.68.07.8,1.33.81,1.26,0-.48-5.52,1.14-10.28,3.81-15.04,2.42-4.31,4.29-8.51,4.6-13.52.05-.81-1.21-.8-1.26,0h0Z"/>
    <path class="cls-3" d="m653.01,333.08c-1.49,3.56-5.22,5.74-5.42,9.88-.04.81,1.22.81,1.26,0,.18-3.81,3.97-6.19,5.37-9.54.31-.74-.9-1.07-1.21-.33h0Z"/>
    <path class="cls-3" d="m647.23,353.45c.9,3.72,3.1,6.87,6.25,9.04.67.46,1.3-.63.63-1.08-2.88-1.99-4.85-4.89-5.67-8.29-.19-.79-1.4-.45-1.21.33h0Z"/>
    <path class="cls-3" d="m582.25,346.08c.92,3.88,1.09,7.86,1.69,11.79.5,3.29,1.35,6.52,2.52,9.64,2.26,6.02,5.65,11.6,10,16.35,9,9.84,22.06,15.68,35.38,15.98,7.29.17,15.3-1.59,19.41-8.2.43-.69-.66-1.32-1.09-.63-3.82,6.13-11.32,7.69-18.07,7.58-6.49-.11-12.97-1.57-18.89-4.22-11.6-5.19-20.78-14.87-25.36-26.73-1.2-3.1-2.08-6.33-2.62-9.61-.67-4.09-.8-8.24-1.77-12.28-.19-.79-1.4-.45-1.21.33h0Z"/>
    <path class="cls-3" d="m623.09,388.92c12.64.52,25.17-4.77,33.6-14.21.54-.6-.35-1.49-.89-.89-8.23,9.2-20.37,14.35-32.71,13.84-.81-.03-.81,1.22,0,1.26h0Z"/>
    <path class="cls-3" d="m560.65,385.61c0,6.38,2.2,12.39,5.07,18.01,2.98,5.84,6.39,11.59,10.03,17.04,3.5,5.25,7.55,10.05,12.63,13.83,5.33,3.96,11.35,7.1,17.24,10.15,6.58,3.41,13.48,6.31,20.93,6.96.81.07.8-1.19,0-1.26-6.64-.58-12.87-3.04-18.79-6.01-5.54-2.78-11.11-5.75-16.27-9.18-10.64-7.08-17.07-18.28-23.12-29.23-3.48-6.28-6.47-13.02-6.47-20.32,0-.81-1.26-.81-1.26,0h0Z"/>
    <path class="cls-3" d="m614.41,435c15.18,12.06,34.86,17,49.32,30.09,3.88,3.51,7.23,7.56,9.7,12.18.38.71,1.47.08,1.09-.63-9.14-17.1-28.15-24.39-44.32-33.04-5.2-2.78-10.27-5.82-14.89-9.49-.63-.5-1.52.39-.89.89h0Z"/>
    <path class="cls-3" d="m675.08,407.66c-1.56,23.95,3.27,48.18,13.81,69.73,9.85,20.15,24.77,37.62,42.94,50.75,10,7.23,20.96,13.09,32.52,17.4.76.28,1.09-.93.33-1.21-20.36-7.6-38.78-20.14-53.41-36.21-15.56-17.1-26.46-38.13-31.68-60.64-3.03-13.03-4.13-26.47-3.26-39.82.05-.81-1.2-.8-1.26,0h0Z"/>
    <path class="cls-3" d="m574.18,434.46c3.91,4.79,8.7,8.75,14.15,11.68.71.38,1.35-.7.63-1.08-5.36-2.89-10.05-6.76-13.9-11.48-.51-.63-1.4.27-.89.89h0Z"/>
    <path class="cls-3" d="m599.44,452.22c5.51,2.68,11.26,4.76,17.21,6.19.79.19,1.12-1.02.33-1.21-5.85-1.41-11.51-3.43-16.91-6.06-.72-.35-1.36.73-.63,1.08h0Z"/>
    <path class="cls-3" d="m633.86,464.06c9.75,2.83,18.54,8.28,25.43,15.73.55.6,1.44-.3.89-.89-7.03-7.61-16.04-13.16-25.99-16.05-.78-.23-1.11.99-.33,1.21h0Z"/>
    <path class="cls-3" d="m573.57,469.23c12.18,25.04,32.4,46.03,56.99,59.11,6.84,3.64,14.14,6.35,20.96,10.02,6.79,3.65,12.28,8.74,17.98,13.84,5.18,4.64,10.66,8.81,17.28,11.15,6.45,2.27,13.37,2.91,20.17,3.07,15.44.38,32.43-2.11,46.35,6.17.7.41,1.33-.67.63-1.09-11.91-7.08-26.17-6.41-39.52-6.31-6.96.06-13.99.02-20.84-1.33-7.23-1.43-13.58-4.56-19.27-9.2-5.57-4.54-10.51-9.85-16.44-13.95-6.44-4.44-13.78-7.25-20.82-10.55-12.77-5.99-24.52-14.06-34.73-23.79-11.37-10.84-20.78-23.65-27.65-37.78-.35-.73-1.44-.09-1.09.63h0Z"/>
    <path class="cls-3" d="m647.49,523.83c15.54,5.29,25.42,19.75,40.12,26.54,8.61,3.98,18.07,4.27,27.39,4.37,9.8.11,19.38.8,28.89,3.33,10.47,2.78,20.41,7.33,29.39,13.38.67.45,1.3-.64.63-1.09-15.75-10.61-34.21-16.3-53.16-16.79-10.01-.26-20.37.38-29.91-3.2-7.8-2.93-14.33-8.34-20.69-13.56-6.85-5.62-13.84-11.3-22.34-14.19-.77-.26-1.1.95-.33,1.21h0Z"/>
    <path class="cls-3" d="m689.74,573.03c4.05,1.67,8.39,2.28,12.74,1.78.79-.09.8-1.35,0-1.26-4.26.49-8.45-.1-12.4-1.74-.75-.31-1.07.91-.33,1.21h0Z"/>
    <path class="cls-3" d="m710.86,575.59c3.92,1.16,7.97,1.58,12.04,1.24.8-.07.81-1.32,0-1.26-3.97.33-7.89-.06-11.71-1.19-.78-.23-1.11.98-.33,1.21h0Z"/>
    <path class="cls-3" d="m734.12,577.39c6.14.51,12.28,1.02,18.43,1.54.81.07.8-1.19,0-1.26-6.14-.51-12.28-1.02-18.43-1.54-.81-.07-.8,1.19,0,1.26h0Z"/>
    <path class="cls-3" d="m791.81,577.97c2.5,1.29,4.4,3.3,5.57,5.85.34.73,1.42.1,1.08-.63-1.25-2.73-3.35-4.93-6.02-6.3-.72-.37-1.35.71-.63,1.08h0Z"/>
    <path class="cls-3" d="m637.31,657.25v13.17c0,.81,1.26.81,1.26,0v-13.17c0-.81-1.26-.81-1.26,0h0Z"/>
    <path class="cls-3" d="m636.54,643.43c.24,2.19.47,4.39.71,6.58.09.8,1.34.8,1.26,0-.24-2.19-.47-4.39-.71-6.58-.09-.8-1.34-.8-1.26,0h0Z"/>
    <path class="cls-3" d="m634.01,650v9.22c0,.81,1.26.81,1.26,0v-9.22c0-.81-1.26-.81-1.26,0h0Z"/>
    <path class="cls-3" d="m586.36,662c.46-2.63.92-5.26,1.38-7.89.14-.79-1.07-1.13-1.21-.33-.46,2.63-.92,5.26-1.38,7.89-.14.79,1.07,1.13,1.21.33h0Z"/>
    <path class="cls-3" d="m548.38,254.1c-.64,2.05-1,4.13-1.09,6.28-.03.81,1.22.81,1.26,0,.08-2.03.43-4,1.05-5.94.24-.77-.97-1.1-1.21-.33h0Z"/>
    <path class="cls-3" d="m552.41,255.27c.39-1.47.77-2.95,1.16-4.42.21-.78-1.01-1.12-1.21-.33-.39,1.47-.77,2.95-1.16,4.42-.21.78,1.01,1.12,1.21.33h0Z"/>
    <path class="cls-3" d="m571.17,169c3.77,1.42,7.85.4,10.48-2.65.53-.61-.36-1.5-.89-.89-2.37,2.73-5.88,3.6-9.26,2.32-.76-.29-1.08.93-.33,1.21h0Z"/>
    <path class="cls-3" d="m578.18,168.09c.17,1.21.67,2.28,1.42,3.23.5.64,1.38-.26.89-.89-.61-.78-.96-1.7-1.1-2.68-.11-.8-1.32-.46-1.21.33h0Z"/>
    <path class="cls-3" d="m574.44,169.08c.07,1.05.14,2.11.21,3.16.05.8,1.31.81,1.26,0-.07-1.05-.14-2.11-.21-3.16-.05-.8-1.31-.81-1.26,0h0Z"/>
    <path class="cls-3" d="m599.89,162.44c3.15.85,7.85,1.05,9.96-1.91.47-.66-.62-1.29-1.08-.63-1.7,2.37-6.08,2-8.54,1.33-.78-.21-1.12,1-.33,1.21h0Z"/>
    <path class="cls-3" d="m603.55,162.65v2.63c0,.81,1.26.81,1.26,0v-2.63c0-.81-1.26-.81-1.26,0h0Z"/>
    <path class="cls-3" d="m606.82,162.43c.44.92.88,1.84,1.32,2.76.35.73,1.43.09,1.08-.63-.44-.92-.88-1.84-1.32-2.76-.35-.73-1.43-.09-1.08.63h0Z"/>
    <path class="cls-3" d="m590.29,175.99c.15,2,.33,4,.53,5.99.04.41.1.84.36,1.16.24.29.62.42.97.54,1.17.39,2.35.79,3.52,1.18-.72-3.17-1.43-6.35-2.15-9.52-.46-2.04-.92-4.08-1.55-6.07-.32-1-.87-4.23-1.89-4.7-1.11,1.71-.14,5.95-.02,7.97.07,1.15.14,2.31.23,3.46Z"/>
  </g>
  <g>
    <path class="cls-1" d="m564.11,468.76c1.67,1.67,11.4,14.21,11.4,14.21l-13.63-6.41-5.58,12.8-1.1-11.69-11.7,7.23,4.74-10.85-15.86-.29,12.81-5.55-8.62-8.64,12.24,3.91,2.52-15.31,3.05,14.2,12.82-13.35-4.74,13.08,12.8,1.13-11.14,5.56Z"/>
    <path class="cls-1" d="m621.34,488.3c.11,1.8-1.26,3.35-3.06,3.46-1.8.11-3.35-1.26-3.46-3.06-.11-1.8,1.26-3.35,3.06-3.46,1.8-.11,3.35,1.26,3.46,3.06Z"/>
    <path class="cls-1" d="m636.79,492.77c.11,1.8-1.26,3.35-3.06,3.45-1.8.11-3.35-1.26-3.45-3.06-.11-1.8,1.26-3.35,3.06-3.45,1.8-.11,3.35,1.26,3.45,3.06Z"/>
    <path class="cls-1" d="m652.5,497.3c.11,1.8-1.26,3.35-3.06,3.46-1.8.11-3.35-1.26-3.45-3.06-.11-1.8,1.26-3.35,3.06-3.46,1.8-.11,3.35,1.26,3.45,3.06Z"/>
    <path class="cls-1" d="m667.52,501.65c.11,1.8-1.26,3.35-3.06,3.46-1.8.11-3.35-1.26-3.45-3.06-.11-1.8,1.26-3.35,3.06-3.46,1.8-.11,3.35,1.26,3.45,3.06Z"/>
    <path class="cls-1" d="m682.45,505.96c.11,1.8-1.26,3.35-3.06,3.45-1.8.11-3.35-1.26-3.45-3.06-.11-1.8,1.26-3.35,3.06-3.46,1.8-.11,3.35,1.26,3.45,3.06Z"/>
    <path class="cls-1" d="m697.9,510.43c.11,1.8-1.26,3.35-3.06,3.45-1.8.11-3.35-1.26-3.46-3.06-.11-1.8,1.26-3.35,3.06-3.45,1.8-.11,3.35,1.26,3.46,3.06Z"/>
    <path class="cls-1" d="m592.07,480c.11,1.8-1.26,3.35-3.06,3.46-1.8.11-3.35-1.26-3.46-3.06-.11-1.8,1.26-3.35,3.06-3.46,1.8-.11,3.35,1.26,3.46,3.06Z"/>
    <path class="cls-1" d="m606.67,484.22c.11,1.8-1.26,3.35-3.06,3.45-1.8.11-3.35-1.26-3.45-3.06-.11-1.8,1.26-3.35,3.06-3.45,1.8-.11,3.35,1.26,3.45,3.06Z"/>
    <polygon class="cls-1" points="717.32 513.07 726.03 501.36 725.15 516.76 733.43 521.26 722.07 520.61 716.05 535.33 716.74 523.31 702.14 521.47 709.52 517.69 708.05 507.43 717.32 513.07"/>
    <path class="cls-1" d="m535.55,318.66c-.18-1.79,1.13-3.39,2.92-3.57,1.79-.18,3.39,1.13,3.57,2.92.18,1.79-1.13,3.39-2.92,3.57-1.79.18-3.39-1.13-3.57-2.92Z"/>
    <path class="cls-1" d="m519.94,314.8c-.18-1.79,1.13-3.39,2.92-3.57,1.79-.18,3.39,1.13,3.57,2.92.18,1.79-1.13,3.39-2.92,3.57-1.79.18-3.39-1.13-3.57-2.92Z"/>
    <path class="cls-1" d="m504.07,310.89c-.18-1.79,1.13-3.39,2.92-3.57,1.79-.18,3.39,1.13,3.57,2.92.18,1.79-1.13,3.39-2.92,3.57-1.79.18-3.39-1.13-3.57-2.92Z"/>
    <path class="cls-1" d="m488.88,307.14c-.18-1.79,1.13-3.39,2.92-3.57,1.79-.18,3.39,1.13,3.57,2.92.18,1.79-1.13,3.39-2.92,3.57-1.79.18-3.39-1.13-3.57-2.92Z"/>
    <path class="cls-1" d="m473.8,303.41c-.18-1.79,1.13-3.39,2.92-3.57,1.79-.18,3.39,1.13,3.57,2.92.18,1.79-1.13,3.39-2.92,3.57-1.79.18-3.39-1.13-3.57-2.92Z"/>
    <path class="cls-1" d="m458.18,299.56c-.18-1.79,1.13-3.39,2.92-3.57,1.79-.18,3.39,1.13,3.57,2.92.18,1.79-1.13,3.39-2.92,3.57-1.79.18-3.39-1.13-3.57-2.92Z"/>
    <polygon class="cls-1" points="438.67 297.68 430.43 309.72 430.7 294.3 422.25 290.13 433.63 290.34 439.07 275.39 438.85 287.42 453.51 288.69 446.28 292.76 448.16 302.95 438.67 297.68"/>
    <path class="cls-1" d="m432.58,649.76c1.84.18,3.18,1.82,3,3.66-.18,1.84-1.82,3.18-3.66,3-1.84-.18-3.18-1.82-3-3.66.18-1.84,1.82-3.18,3.66-3Z"/>
    <path class="cls-1" d="m439.37,635.34c1.84.18,3.18,1.82,3,3.66-.18,1.84-1.82,3.18-3.66,3-1.84-.18-3.18-1.82-3-3.66.18-1.84,1.82-3.18,3.66-3Z"/>
    <path class="cls-1" d="m446.39,620.42c1.84.18,3.18,1.82,3,3.66-.18,1.84-1.82,3.18-3.66,3-1.84-.18-3.18-1.82-3-3.66.18-1.84,1.82-3.18,3.66-3Z"/>
    <path class="cls-1" d="m454.02,604.23c1.84.18,3.18,1.82,3,3.66-.18,1.84-1.82,3.18-3.66,3-1.84-.18-3.18-1.82-3-3.66.18-1.84,1.82-3.18,3.66-3Z"/>
    <path class="cls-1" d="m462.28,589.75c1.84.18,3.18,1.82,3,3.66-.18,1.84-1.82,3.18-3.66,3-1.84-.18-3.18-1.82-3-3.66s1.82-3.18,3.66-3Z"/>
    <path class="cls-1" d="m657.08,398.52c1.68-.78,3.67-.04,4.44,1.63.77,1.68.04,3.67-1.63,4.44-1.68.78-3.67.04-4.44-1.63-.77-1.68-.04-3.67,1.63-4.44Z"/>
    <path class="cls-1" d="m655.64,382.54c1.68-.78,3.67-.04,4.44,1.63.78,1.68.04,3.67-1.63,4.44-1.68.78-3.67.04-4.44-1.63-.78-1.68-.04-3.67,1.63-4.44Z"/>
    <path class="cls-1" d="m654.2,366.67c1.68-.77,3.67-.04,4.44,1.63.78,1.68.04,3.67-1.63,4.44-1.68.77-3.67.04-4.44-1.63-.77-1.68-.04-3.67,1.63-4.44Z"/>
    <path class="cls-1" d="m652.71,350.24c1.68-.78,3.67-.04,4.44,1.63.77,1.68.04,3.67-1.63,4.44-1.68.78-3.67.04-4.44-1.63-.78-1.68-.04-3.67,1.63-4.44Z"/>
    <path class="cls-1" d="m651.09,332.42c1.68-.78,3.67-.04,4.44,1.63.78,1.68.04,3.67-1.63,4.44-1.68.78-3.67.04-4.44-1.63-.77-1.68-.04-3.67,1.63-4.44Z"/>
    <path class="cls-1" d="m650.89,315.76c1.68-.77,3.67-.04,4.44,1.63.78,1.68.04,3.67-1.63,4.44-1.68.77-3.67.04-4.44-1.63-.78-1.68-.04-3.67,1.63-4.44Z"/>
    <path class="cls-1" d="m469.3,574.83c1.84.18,3.18,1.82,3,3.66-.18,1.84-1.82,3.18-3.66,3-1.84-.18-3.18-1.82-3-3.66.18-1.84,1.82-3.18,3.66-3Z"/>
    <path class="cls-1" d="m476.93,558.64c1.84.18,3.18,1.82,3,3.66-.18,1.84-1.82,3.18-3.66,3-1.84-.18-3.18-1.82-3-3.66.18-1.84,1.82-3.18,3.66-3Z"/>
    <path class="cls-1" d="m422.2,686.68c.71,2.25,3.55,17.86,3.55,17.86l-9.13-11.99-10.86,8.77,4.42-10.88-13.71,1.01,9.22-7.43-13.94-7.59,13.93.99-3.66-11.64,9.05,9.12,9.3-12.41-3.85,14,17.53-5.92-10.25,9.41,10.83,6.91-12.45-.22Z"/>
    <polygon class="cls-1" points="667.16 104.69 663.38 121.59 658.87 105.66 644.65 106.11 657.37 98.87 649.72 83.44 659.26 90.42 665.18 79.24 668.5 89.66 681.01 86.01 671.69 95.22 681.42 102.23 667.16 104.69"/>
    <path class="cls-1" d="m534.12,494.26c.79-1.67,2.79-2.38,4.46-1.59,1.67.79,2.38,2.79,1.59,4.46-.79,1.67-2.79,2.38-4.46,1.59-1.67-.79-2.38-2.79-1.59-4.46Z"/>
    <path class="cls-1" d="m519.24,506.84c.79-1.67,2.79-2.38,4.46-1.59,1.67.79,2.38,2.79,1.59,4.46-.79,1.67-2.79,2.38-4.46,1.59-1.67-.79-2.38-2.79-1.59-4.46Z"/>
    <path class="cls-1" d="m505.67,517.48c.79-1.67,2.79-2.38,4.46-1.59,1.67.79,2.38,2.79,1.59,4.46-.79,1.67-2.79,2.38-4.46,1.59-1.67-.79-2.38-2.79-1.59-4.46Z"/>
    <path class="cls-1" d="m559.75,438.01c1.71-.69,3.66.14,4.35,1.86.69,1.71-.14,3.66-1.86,4.35s-3.66-.14-4.35-1.86c-.69-1.71.14-3.66,1.86-4.35Z"/>
    <path class="cls-1" d="m559.09,421.53c1.71-.69,3.66.14,4.35,1.86.69,1.71-.14,3.66-1.86,4.35-1.71.69-3.66-.14-4.35-1.86-.69-1.71.14-3.66,1.86-4.35Z"/>
    <path class="cls-1" d="m558.42,404.78c1.71-.69,3.66.14,4.35,1.86.69,1.71-.14,3.66-1.86,4.35-1.71.69-3.66-.14-4.35-1.86-.69-1.71.14-3.66,1.86-4.35Z"/>
    <path class="cls-1" d="m557.77,388.75c1.71-.69,3.66.14,4.35,1.86.69,1.71-.14,3.66-1.86,4.35-1.71.69-3.66-.14-4.35-1.86-.69-1.71.14-3.66,1.86-4.35Z"/>
    <path class="cls-1" d="m557.14,372.83c1.71-.69,3.66.14,4.35,1.86.69,1.71-.14,3.66-1.86,4.35-1.71.69-3.66-.14-4.35-1.86-.69-1.71.14-3.66,1.86-4.35Z"/>
    <path class="cls-1" d="m556.48,356.35c1.71-.69,3.66.14,4.35,1.86.69,1.71-.14,3.66-1.86,4.35-1.71.69-3.66-.14-4.35-1.86-.69-1.71.14-3.66,1.86-4.35Z"/>
    <path class="cls-1" d="m656.91,261.86c1.83-.27,3.53.99,3.8,2.82.27,1.83-.99,3.53-2.82,3.8s-3.53-.99-3.8-2.82c-.27-1.83.99-3.53,2.82-3.8Z"/>
    <path class="cls-1" d="m660.37,244.3c1.83-.27,3.53.99,3.8,2.82.27,1.83-.99,3.53-2.82,3.8s-3.53-.99-3.8-2.82c-.27-1.83.99-3.53,2.82-3.8Z"/>
    <path class="cls-1" d="m662.77,222.2l-11.84-10.81,12.73,1.17,10.81-15.8-1.83,19.9,11.86,7.95-15.36-1.41s-6.1,10.21-6.1,10.21c0,0-.26-11.22-.26-11.22Z"/>
    <path class="cls-1" d="m561.15,343.37c1.11,1.42.87,3.47-.54,4.58-1.42,1.11-3.47.87-4.58-.54-1.11-1.42-.87-3.47.54-4.58,1.42-1.11,3.47-.87,4.58.54Z"/>
    <path class="cls-1" d="m619.56,308.82c-.73-1.65.02-3.57,1.66-4.3,1.65-.73,3.57.02,4.3,1.66s-.02,3.57-1.66,4.3c-1.65.73-3.57-.02-4.3-1.66Z"/>
    <path class="cls-1" d="m604.06,309.98c-.73-1.65.02-3.57,1.66-4.3s3.57.02,4.3,1.66c.73,1.65-.02,3.57-1.66,4.3-1.65.73-3.57-.02-4.3-1.66Z"/>
    <path class="cls-1" d="m588.02,311.17c-.73-1.65.02-3.57,1.66-4.3,1.65-.73,3.57.02,4.3,1.66.73,1.65-.02,3.57-1.66,4.3-1.65.73-3.57-.02-4.3-1.66Z"/>
    <path class="cls-1" d="m495.72,542.75l-3.23,16.12-5.7-11.8-19.6-1.14,18.46-8.92.72-14.62,6.88,14.24s12.2-.04,12.2-.04-9.72,6.16-9.72,6.16Z"/>
    <path class="cls-1" d="m705.97,545.75c-1.83-.25-3.11-1.93-2.87-3.77.25-1.83,1.93-3.11,3.77-2.87,1.83.25,3.11,1.93,2.87,3.76-.25,1.83-1.93,3.11-3.77,2.87Z"/>
    <path class="cls-1" d="m698.66,559.91c-1.83-.25-3.11-1.93-2.87-3.76s1.93-3.11,3.76-2.87c1.83.25,3.11,1.93,2.87,3.76-.25,1.83-1.93,3.11-3.77,2.87Z"/>
    <path class="cls-1" d="m691.08,574.56c-1.83-.25-3.11-1.93-2.87-3.77.25-1.83,1.93-3.11,3.77-2.87,1.83.25,3.11,1.93,2.87,3.76s-1.93,3.11-3.76,2.87Z"/>
    <path class="cls-1" d="m682.86,590.46c-1.83-.25-3.11-1.93-2.87-3.76.25-1.83,1.93-3.11,3.77-2.87,1.83.25,3.11,1.93,2.87,3.76-.25,1.83-1.93,3.11-3.77,2.87Z"/>
    <path class="cls-1" d="m674.07,604.62c-1.83-.25-3.11-1.93-2.87-3.77.25-1.83,1.93-3.11,3.77-2.87,1.83.25,3.11,1.93,2.87,3.77s-1.93,3.11-3.77,2.87Z"/>
    <path class="cls-1" d="m666.5,619.27c-1.83-.25-3.11-1.93-2.87-3.76.25-1.83,1.93-3.11,3.76-2.87,1.83.25,3.11,1.93,2.87,3.77-.25,1.83-1.93,3.11-3.76,2.87Z"/>
    <path class="cls-1" d="m658.28,635.16c-1.83-.25-3.11-1.93-2.87-3.77s1.93-3.11,3.77-2.87c1.83.25,3.11,1.93,2.87,3.77-.25,1.83-1.93,3.11-3.76,2.87Z"/>
    <path class="cls-1" d="m631.45,658.52l-2.66-16.22,9.5,9.03,18.75-5.85-14.12,14.86,4.49,13.94-11.47-10.9s-11.4,4.34-11.4,4.34c0,0,6.92-9.19,6.92-9.19Z"/>
    <path class="cls-1" d="m707.37,494.73c1.6.92,2.15,2.97,1.23,4.57-.92,1.6-2.97,2.15-4.57,1.23-1.6-.92-2.15-2.97-1.23-4.57.92-1.6,2.97-2.15,4.57-1.23Z"/>
    <path class="cls-1" d="m696.01,478.89c1.6.92,2.15,2.97,1.23,4.57-.92,1.6-2.97,2.15-4.57,1.23s-2.15-2.97-1.23-4.57c.92-1.6,2.97-2.15,4.57-1.23Z"/>
    <path class="cls-1" d="m686.49,464.53c1.6.92,2.15,2.97,1.23,4.57s-2.97,2.15-4.57,1.23-2.15-2.97-1.23-4.57,2.97-2.15,4.57-1.23Z"/>
    <path class="cls-1" d="m675.65,448.77c1.6.92,2.15,2.97,1.23,4.57s-2.97,2.15-4.57,1.23c-1.6-.92-2.15-2.97-1.23-4.57.92-1.6,2.97-2.15,4.57-1.23Z"/>
    <polygon class="cls-1" points="542.04 732.42 556.33 735.37 542 741.08 541.43 750.48 537.21 739.91 521.32 740.68 532.51 736.22 528 722.21 534.56 727.3 543.22 721.63 542.04 732.42"/>
    <path class="cls-1" d="m554.45,715.65c-.16,1.84-1.78,3.21-3.62,3.05s-3.21-1.78-3.05-3.62c.16-1.84,1.78-3.21,3.62-3.05,1.84.16,3.21,1.78,3.05,3.62Z"/>
    <path class="cls-1" d="m564,698.66c-.16,1.84-1.78,3.21-3.62,3.05-1.84-.16-3.21-1.78-3.05-3.62.16-1.84,1.78-3.21,3.62-3.05,1.84.16,3.21,1.78,3.05,3.62Z"/>
    <path class="cls-1" d="m572.99,683.96c-.16,1.84-1.78,3.21-3.62,3.05-1.84-.16-3.21-1.78-3.05-3.62.16-1.84,1.78-3.21,3.62-3.05,1.84.16,3.21,1.78,3.05,3.62Z"/>
    <path class="cls-1" d="m582.69,667.48c-.16,1.84-1.78,3.21-3.62,3.05-1.84-.16-3.21-1.78-3.05-3.62.16-1.84,1.78-3.21,3.62-3.05,1.84.16,3.21,1.78,3.05,3.62Z"/>
    <path class="cls-1" d="m659.74,437.07l-15.81-4.5,12.22-4.75,2.7-19.45,7.42,19.11,14.52,1.88-14.75,5.73s-.93,12.16-.93,12.17c0,0-5.37-10.18-5.37-10.18Z"/>
    <polygon class="cls-1" points="566.36 322.36 562.27 336.37 557.74 321.62 548.41 320.29 559.29 316.95 559.81 301.05 563.35 312.55 577.67 309.2 572.07 315.32 577.02 324.41 566.36 322.36"/>
    <polygon class="cls-1" points="648.7 288.63 654.43 275.21 657.17 290.39 666.28 292.82 655.08 294.85 652.67 310.58 650.53 298.73 635.91 300.36 642.2 294.95 638.36 285.33 648.7 288.63"/>
    <circle class="cls-1" cx="614.57" cy="650.59" r="3.35" transform="translate(-204.19 289.21) rotate(-22.82)"/>
    <polygon class="cls-1" points="588.39 647.61 574.44 645.93 587.74 639.3 587.54 630.22 592.43 640.04 607.63 638.03 597.25 643.2 602.69 656.29 595.99 651.93 588.12 658.07 588.39 647.61"/>
    <path class="cls-1" d="m666.5,182.59c1.76-.57,3.64.39,4.21,2.15.57,1.76-.39,3.64-2.15,4.21-1.76.57-3.64-.39-4.21-2.15-.57-1.76.39-3.64,2.15-4.21Z"/>
    <path class="cls-1" d="m667.02,164.7c1.76-.57,3.64.39,4.21,2.15.57,1.76-.39,3.64-2.15,4.21-1.76.57-3.64-.39-4.21-2.15-.57-1.76.39-3.64,2.15-4.21Z"/>
    <path class="cls-1" d="m667.53,146.65c1.76-.57,3.64.39,4.21,2.15.57,1.76-.39,3.64-2.15,4.21-1.76.57-3.64-.39-4.21-2.15-.57-1.76.39-3.64,2.15-4.21Z"/>
    <path class="cls-1" d="m668.02,129.67c1.76-.57,3.64.39,4.21,2.15.57,1.76-.39,3.64-2.15,4.21-1.76.57-3.64-.39-4.21-2.15-.57-1.76.39-3.64,2.15-4.21Z"/>
  </g>
</svg>