<?xml version="1.0" encoding="UTF-8"?>
<svg id="object" xmlns="http://www.w3.org/2000/svg" viewBox="0 0 1200 800">
  <defs>
    <style>
      .cls-1 {
        fill: #fff;
      }

      .cls-2 {
        fill: none;
      }

      .cls-2, .cls-3 {
        opacity: .42;
      }

      .cls-3, .cls-4 {
        fill: #a1d9d4;
      }
    </style>
  </defs>
  <g>
    <g>
      <path class="cls-3" d="m454.22,602.37c-3.73-4.57-6.75-9.68-8.07-15.48-.8-3.51-1.58-7.81.94-10.88,3.54-4.31,9.17,1.12,12.55,3,4.26,2.37,8.8,4.23,13.47,5.64,19.8,5.99,41.24,4.19,61.34.83,20.33-3.39,40.61-8.12,60.2-14.54,6.23-2.04,12.38-4.31,18.46-6.76,4.18-1.68,8.31-3.47,12.55-5,3.35-1.21,6.8-2.21,10.35-2.6,4.02-.44,8.08-.14,12.06.52,13.55,2.23,29.25,7.08,35.9,20.23,1.97,3.89,2.93,8.26,2.84,12.62-.03,1.45-.32,2.86-.43,4.29-.51,7.02-2.5,13.53-6.04,19.67-8.91,15.43-24.8,25.16-41,31.49-23.66,9.25-49.1,13.83-74.5,11.43-6.28-.59-12.51-1.61-18.66-2.99-.72-.16-1.03.95-.31,1.11,25.2,5.64,51.25,4.51,76.07-2.48,19.72-5.55,40.44-13.91,53.87-30.09,6.07-7.31,10.68-16.35,11.6-25.91.07-.75.08-1.5.12-2.26.02-.31-.03.07,0-.08.03-.26.1-.52.14-.78.52-3.24.36-6.61-.32-9.82-3.11-14.78-17.19-22.39-30.75-25.79-8.49-2.13-17.21-3.54-25.83-1.35-3.89.98-7.62,2.49-11.33,3.99-5.22,2.12-10.42,4.26-15.7,6.2-18.87,6.93-38.47,11.76-58.17,15.69-21.05,4.2-43.29,7.43-64.6,3.16-5.25-1.05-10.43-2.59-15.34-4.74-2.36-1.03-4.66-2.21-6.88-3.52-2.21-1.31-4.39-3.34-6.97-3.82-3.38-.63-5.96,1.48-6.98,4.58-1.22,3.71-.32,7.62.75,11.25,1.54,5.21,4.43,9.82,7.85,14,.47.57,1.28-.24.81-.81h0Z"/>
      <path class="cls-3" d="m615.92,561.85c.27.04-.04,0-.14-.02-.27-.04-.54-.09-.8-.14-.97-.18-1.94-.39-2.89-.63-3.39-.84-6.72-1.97-9.93-3.34-10.25-4.34-19.4-11.12-26.43-19.76-4.81-5.92-8.56-12.67-11.26-19.79-2.77-7.33-5.51-14.4-10.04-20.87-6.39-9.13-15.21-16.33-25.54-20.55-3.41-1.39-6.96-2.46-10.58-3.15-1.71-.32-3.73-.84-5.49-.7-.08,0-.17,0-.25,0-.47,0-.8.66-.41.98,5.03,4.16,8.44,11.23,6.53,17.72-.74,2.52-2.24,4.67-3.63,6.86-1.17,1.86-2.33,3.72-3.43,5.62-2.02,3.5-3.95,7.21-4.86,11.18-.74,3.26-.66,6.76,1.14,9.67,2.27,3.68,6.57,5.71,10.57,6.87,5.04,1.46,12.21,2.11,12.69,8.71.22,3.03-.7,5.99-1.22,8.94-.5,2.86-.74,5.78-.35,8.67.8,5.94,4.65,10.28,9.97,12.77,2.72,1.27,5.61,2.09,8.54,2.71,3.52.74,8.05,1.67,8.87,5.81.14.73,1.25.42,1.11-.31-1.18-5.94-8.51-6.14-13.16-7.47-5.58-1.59-11.29-4.6-13.39-10.37-2.23-6.16.15-12.09.74-18.26.24-2.51-.01-5.17-1.63-7.21-1.37-1.73-3.44-2.69-5.49-3.38-4.87-1.64-10.18-2.14-14.2-5.68-3.09-2.72-3.97-6.57-3.21-10.52.81-4.18,2.85-8.07,4.97-11.72,2.26-3.9,5.4-7.67,6.87-11.95,2.41-7.03-1.1-14.91-6.63-19.48-.14.33-.27.65-.41.98,4.57.08,9.27,1.36,13.54,2.87,10.41,3.7,19.51,10.51,26.13,19.33,4.76,6.34,7.94,13.42,10.6,20.85,2.52,7.03,5.99,13.71,10.5,19.68,6.84,9.06,15.9,16.28,26.2,21.04,3.42,1.58,6.97,2.91,10.6,3.92,1.72.48,3.62,1.1,5.42,1.21.12,0,.25.04.37.05.73.09.73-1.06,0-1.15h0Z"/>
      <path class="cls-3" d="m650.36,641.06c-1.05,2.42-2.42,4.73-3.8,6.97-3.61,5.84-7.89,11.26-12.63,16.22-15.61,16.31-36.24,26.81-58.38,30.88-8.15,1.5-16.35,2.62-24.48,4.24-8.36,1.67-16.66,3.64-24.82,6.1-6.59,1.99-13.1,4.3-19.47,6.91-5.49,2.25-10.92,4.83-15.73,8.35-4.39,3.22-8.26,7.29-10.26,12.43-.43,1.1-.91,4.81-2.56,4.61-1.87-.23-3.05-3.03-3.33-4.6-.71-3.9,1.52-7.42,4.38-9.86,2.89-2.46,6.62-3.76,9.37-6.4,2.09-2,3.65-5.07,2.76-8-.46-1.5-1.5-2.71-2.49-3.88-1.4-1.67-2.8-3.34-4.06-5.12-2.26-3.19-4.15-6.74-4.72-10.65-.59-4,.23-8.26,3.07-11.27,2.64-2.79,6.46-4.26,10.23-4.54,4.35-.33,8.65.74,12.73,2.15,3.71,1.29,7.36,2.92,11.3,3.4,7.41.91,13.91-3.23,19.35-7.79,6.23-5.24,11.88-10.78,20.15-12.45,3.97-.8,8.04-.9,12.08-.88.74,0,.74-1.15,0-1.15-7.97-.03-15.87.66-22.67,5.2-6.66,4.44-11.81,11.01-19.21,14.34-4.09,1.84-8.32,2.13-12.65.98-4.09-1.09-7.94-2.93-12.04-3.98-6.93-1.77-15.33-1.52-20.39,4.27-4.88,5.58-3.64,13.68-.29,19.68,1.89,3.38,4.42,6.26,6.85,9.25,1.52,1.87,2.35,3.85,1.51,6.22-.77,2.17-2.5,3.76-4.36,5.03-3.13,2.12-6.59,3.65-9.12,6.56-2.08,2.39-3.37,5.41-2.96,8.61.31,2.42,1.9,5.74,4.65,6.07,1.07.13,1.87-.4,2.32-1.35.69-1.46.83-3.23,1.48-4.74,4.89-11.39,18.33-16.92,29.13-21.03,15.71-5.98,31.94-10.01,48.48-12.94,7.93-1.41,15.96-2.36,23.78-4.33,6.31-1.59,12.49-3.72,18.43-6.39,9.88-4.44,19.06-10.4,27.13-17.64,8.8-7.9,17-17.59,22.03-28.39.08-.17.16-.34.23-.51.29-.67-.7-1.26-.99-.58h0Z"/>
      <path class="cls-3" d="m481.16,585.67c-.58-4.47-2.51-8.9-4.44-12.91-5.58-11.61-13.95-21.16-22.88-30.29-7.42-7.59-13.16-16.79-18.26-26.04-5.29-9.59-9.9-19.55-14.11-29.66-2.89-6.95-5.59-13.97-8.07-21.08-.63-1.8-1.26-3.59-1.76-5.44-3.52-13.21-4.59-27.23-3.95-40.84,1.18-24.77,9.14-48.93,23.88-68.97,2.25-3.06,4.65-6,7.16-8.85.37-.42.02-1.11-.56-.96-12.76,3.37-25.52,6.73-38.27,10.12-1.26.34-2.52.73-3.79,1.01.29-.06-.18.02-.32.05-.34.06-.68.13-1.02.21-2.91.7-5.68,2.16-7.8,4.27-3.44,3.4-4.76,8.19-4.73,12.92.02,3.22.58,6.27-.24,9.46-.6,2.32-1.74,4.47-3.33,6.25-2.6,2.91-6.15,4.82-9.83,6.01-1.43.46-3.44.82-4.59,1.08-3.73.83-7.42,2.44-10.87,4.04-14.73,6.84-27.7,19.23-27.79,36.49-.04,7.36,1.83,14.9,5.65,21.21,5.89,9.72,15.13,16.72,25.88,20.27,5.26,1.74,11.23,4.43,13.67,9.79,1.26,2.77,1.25,5.92.29,8.77-.6,1.77-1.74,3.22-2.76,4.78-.97,1.48-1.86,3.06-2.93,4.47.17-.22-.15.15-.23.24-.33.39-.66.79-.97,1.19-6.4,8.43-7.22,19.51-2.79,29.04,1.82,3.91,4.44,7.38,6.69,11.04,1.79,2.92,3.5,5.9,5.04,8.96,1.63,3.22,3.2,6.6,4.02,10.14.64,2.75.44,5.85-.25,8.61-.89,3.57-2.84,6.83-5.84,9.01-1.93,1.4-4.16,2.32-6.47,2.87-3.12.74-6.84,1.22-9.9.16-3.76-1.31-7.37-3.41-10.23-6.2-3.07-3-4.38-6.46-4.55-10.71-.26-6.55.75-13.84-5.31-18.2-6.35-4.57-14.55-3.06-21.83-3.5-6.43-.39-12.75-3.05-15.79-9.02-2.4-4.73-2.52-10.34-2.29-15.53.24-5.46,1.05-10.88,1.28-16.34.57-13.96-4.06-28.25-11.29-40.07-3.79-6.2-8.37-11.87-13.47-17.04-.45-.45-1.27.14-.9.7,1.03,1.55,1.39,3.69,1.62,5.49.8,6.24-.54,12.67-2.41,18.59-1.62,5.16-3.79,10.14-6.24,14.96-2.57,5.06-5.48,9.84-7.37,15.22-3.35,9.51-4.35,19.74-3.85,29.78.63,12.57,3.37,25.27,8.05,36.97.08.21.2.53.43,1.08.51,1.26,1.07,2.5,1.65,3.72,2.28,4.8,4.97,9.41,7.92,13.83,9.93,14.86,23.06,27.56,38.33,36.87,2.41,1.47,4.86,2.84,7.36,4.15.66.34,1.24-.65.58-.99-16.99-8.85-31.75-21.63-42.92-37.19-4.81-6.69-9.12-13.9-12.16-21.58-.07-.18-.04-.09-.19-.46-.23-.57-.45-1.14-.66-1.71-.81-2.18-1.55-4.4-2.22-6.63-2.32-7.68-3.95-15.6-4.69-23.6-.93-9.99-.49-20.22,2.23-29.91,1.55-5.52,3.97-10.48,6.7-15.49,2.66-4.9,5.06-9.95,6.98-15.19,2.34-6.38,4.12-13.27,3.83-20.12-.08-1.82-.3-3.65-.79-5.41-.21-.78-.46-1.99-.99-2.63-.08-.09-.12-.22-.18-.32-.3.23-.6.46-.9.7,10.94,11.08,19.31,24.65,22.74,39.95,1.44,6.41,1.99,12.9,1.49,19.45-.41,5.39-1.15,10.77-1.16,16.19,0,4.92.57,10.16,3.24,14.42,3.1,4.96,8.64,7.54,14.31,8.18,7.7.87,17.09-1.52,23.6,3.95,6.2,5.21,3.1,13.87,4.62,20.76,1.52,6.91,8.46,11.54,14.7,13.84,4.97,1.83,11.72.56,16.27-2.05,5.69-3.26,8.44-9.57,8.47-15.95.01-3.27-.99-6.31-2.23-9.32-2.37-5.73-5.52-11.13-8.84-16.35-2.36-3.71-4.86-7.26-6.33-11.44-1.15-3.27-1.72-6.72-1.57-10.18.21-4.81,1.84-9.51,4.5-13.51,1.13-1.71,2.45-3.24,3.58-4.96,2.83-4.32,5.76-7.99,5.04-13.48-.53-4.1-3.16-7.39-6.46-9.71-2.86-2.01-6.12-3.25-9.42-4.35-3.39-1.13-6.64-2.61-9.68-4.48-7.44-4.56-13.92-11.52-17.38-19.61-3.5-8.19-4.29-18.13-1.42-26.6,2.73-8.09,8.69-14.6,15.6-19.4,5.19-3.61,10.96-6.41,16.93-8.46,2.98-1.02,5.01-1.18,8.05-2.14,3.54-1.12,6.97-2.88,9.64-5.5,3.47-3.4,5.12-8.05,4.98-12.88-.1-3.23-.51-6.3.25-9.5.57-2.41,1.66-4.68,3.32-6.52,2.08-2.29,4.9-3.85,7.9-4.56,11.82-2.79,24.3-6.35,36.3-9.51,2.35-.62,4.7-1.24,7.04-1.86-.19-.32-.37-.64-.56-.96-17.08,19.34-27.58,43.37-30.59,68.96-1.86,15.82-1.13,32.17,2.43,47.71,1.72,7.55,4.69,14.8,7.51,21.98,3.74,9.54,7.81,18.95,12.37,28.13,4.92,9.9,10.38,19.66,17.13,28.44,3.52,4.58,7.63,8.48,11.57,12.69,4.79,5.12,9.18,10.63,12.9,16.57,3.74,5.97,7.17,12.6,8.61,19.56.04.18.19,1.09.16.83.09.72,1.25.73,1.15,0h0Z"/>
      <path class="cls-3" d="m452.93,603.38c2.88-1.57,6.5-2.14,9.73-1.99,3.47.16,6.82,1.3,9.73,3.18,1.44.93,2.67,2.14,4.19,2.95,5.73,3.04,12.86,3.79,19.19,4.54,11.19,1.34,22.51,1.69,33.78,1.77,14.54.09,29.08-.41,43.59-1.29,18.62-1.13,37.2-2.9,55.71-5.26-.14-.33-.27-.65-.41-.98-2.93,2.41-6.03,4.64-9.12,6.84-8.3,5.91-16.9,11.39-25.69,16.54-12.87,7.53-26.17,14.33-39.81,20.33-16.82,7.41-34.19,13.61-51.94,18.4-20.12,5.43-40.74,9.02-61.53,10.44-2.74.19-5.49.33-8.23.45.05.38.1.75.15,1.13,3.14-.53,6.26-1.21,9.35-1.95,5.35-1.28,10.83-2.71,15.77-5.18,1.84-.92,3.89-2.07,4.94-3.92.25-.44-.16-.96-.65-.85-4.29,1.04-8.66,1.81-13.01,2.52-10.59,1.73-21.28,2.83-32,3.22-13.43.49-26.98-.12-40.2-2.67-13.29-2.57-26.44-7.17-37.45-15.21-11.69-8.53-19.84-20.74-23.76-34.64-.55-1.96-1.02-3.94-1.43-5.94-.37.1-.74.2-1.11.31,1.58,5.95,6.9,10.77,12.51,12.82,5.14,1.88,12.23,2.6,17.13-.28,4.52-2.66,6.94-7.7,9.59-12.01,1.41-2.3,2.93-4.59,4.98-6.37,2.91-2.52,6.76-3.45,10.55-3.32,8.64.31,15.84,5.52,23.56,8.74,8.2,3.42,17.09,3.69,25.66,1.56,7.93-1.97,15.5-5.6,23.07-8.62,4.34-1.73,8.68-3.45,13.02-5.19.68-.27.38-1.39-.31-1.11-2.96,1.19-5.93,2.37-8.89,3.55-6.22,2.48-12.45,4.97-18.67,7.45-8.61,3.42-17.87,5.37-27.07,3.36-8.3-1.81-15.16-7.18-23.23-9.63-6.27-1.9-13.62-2.03-18.75,2.62-3.87,3.51-5.92,8.52-8.85,12.74-1.48,2.13-3.23,4.14-5.53,5.41-2.83,1.56-6.18,1.61-9.33,1.38-7.81-.56-16.19-5.36-18.33-13.4-.19-.72-1.26-.41-1.11.31,2.95,14.55,9.96,27.95,21.26,37.73,10.36,8.97,23.25,14.44,36.47,17.63,13.31,3.21,27.11,4.25,40.78,4.08,11.42-.14,22.83-1.14,34.12-2.82,3.74-.56,7.47-1.19,11.19-1.92,1.14-.22,2.28-.46,3.41-.7.49-.11,1.37-.13,1.8-.4.06-.04.17-.04.24-.06l-.65-.85c-1.24,2.18-4.11,3.38-6.3,4.32-3.22,1.38-6.61,2.39-9.99,3.3-4.31,1.15-8.68,2.14-13.08,2.89-.64.11-.49,1.16.15,1.13,21.11-.87,42.11-3.97,62.62-9.01,18.25-4.48,36.12-10.48,53.45-17.76,14.31-6.01,28.26-12.87,41.76-20.54,9.5-5.4,18.79-11.19,27.76-17.45,2.66-1.86,5.29-3.75,7.88-5.71,1.09-.82,2.65-1.67,3.53-2.74.04-.05.1-.08.15-.12.37-.3.08-1.04-.41-.98-31.57,4.03-63.45,6.52-95.29,6.56-11.66.01-23.37-.27-34.98-1.47-4.23-.44-8.45-1-12.61-1.88-2.86-.61-5.8-1.32-8.44-2.63-1.68-.83-2.99-2.13-4.56-3.14-2.9-1.88-6.23-3.03-9.68-3.3-3.63-.28-7.71.35-10.94,2.11-.65.36-.07,1.35.58.99h0Z"/>
      <g class="cls-2">
        <path class="cls-4" d="m635.76,569.89c4.08.03,8.02-1.64,11.4-3.92,1.37-.93,2.72-2.01,3.44-3.5.72-1.49.63-3.49-.61-4.59-.49-.44-1.1-.7-1.71-.93-5.38-2-11.58-1.66-16.71.91-8.98,4.51-4.42,11.97,4.18,12.02Z"/>
      </g>
      <g class="cls-2">
        <path class="cls-4" d="m672.17,619.68c.93.03,2.02.24,2.46,1.15.39.81.1,1.81-.19,2.67-.68,1.97-1.37,3.98-2.58,5.61-1.72,2.31-4.29,3.58-6.78,4.75-5.15,2.43-11.91,1.17-7.66-6.29,2.91-5.11,9.53-8.04,14.75-7.89Z"/>
      </g>
      <path class="cls-3" d="m659.47,604.38c-4.72,1.08-8.42,5.08-10.8,9.11-2.49,4.22-3.7,9.09-3.51,13.98.03.74,1.18.74,1.15,0-.18-4.52.87-9.01,3.1-12.96,2.23-3.96,5.78-7.97,10.37-9.03.72-.17.42-1.28-.31-1.11h0Z"/>
      <path class="cls-3" d="m625.94,580.31c8.91,4.51,19.68,2.61,26.44-4.75.5-.54-.31-1.36-.81-.81-6.4,6.97-16.58,8.86-25.05,4.57-.66-.33-1.24.66-.58.99h0Z"/>
      <path class="cls-3" d="m623.66,584.01c4.09,1.65,8.44,2.23,12.83,1.72.73-.09.74-1.24,0-1.15-4.29.51-8.52-.06-12.52-1.68-.69-.28-.99.84-.31,1.11h0Z"/>
      <path class="cls-3" d="m640.46,585.52c1.58-.28,3.06-.87,4.4-1.76.61-.41.04-1.4-.58-.99-1.27.84-2.63,1.38-4.13,1.64-.73.13-.42,1.24.31,1.11h0Z"/>
      <path class="cls-3" d="m640.03,597.76c13.4-7.26,27.03-14.57,42.08-17.7.72-.15.42-1.26-.31-1.11-15.14,3.16-28.87,10.52-42.35,17.82-.65.35-.07,1.35.58.99h0Z"/>
      <path class="cls-3" d="m615.12,562.05c-3.36,3.79-5.98,8.16-7.7,12.92-1.64,4.55-2.76,9.85-2.15,14.7.14,1.09.39,2.14.83,3.15.09.22.96,1.38.16,1.11-.58-.2-1.1-1.71-1.28-2.19-.94-2.56-1.46-5.32-1.7-8.03-.51-5.8.44-11.6,2.7-16.96.29-.68-.83-.98-1.11-.31-1.85,4.4-2.84,9.11-2.87,13.88-.02,2.31.19,4.62.61,6.89.39,2.08.85,4.42,1.9,6.29.51.9,1.75,2.47,2.95,1.77,1.4-.81-.41-3.03-.69-3.98-1.3-4.47-.15-9.93,1.18-14.26,1.61-5.24,4.35-10.07,7.99-14.18.49-.55-.32-1.37-.81-.81h0Z"/>
      <path class="cls-3" d="m625.52,637.07c8.4,3.65,17.55,4.91,26.62,3.67.73-.1.42-1.21-.31-1.11-8.73,1.19-17.65-.04-25.73-3.55-.67-.29-1.26.7-.58.99h0Z"/>
      <path class="cls-3" d="m625.26,637.3c2.36,2.36,5.76,2.84,8.7,4.15,3.34,1.48,6.57,3.41,10.36,3,.73-.08.74-1.23,0-1.15-3.8.41-6.98-1.66-10.34-3.09-2.67-1.14-5.79-1.6-7.92-3.73-.52-.52-1.34.29-.81.81h0Z"/>
      <path class="cls-3" d="m583.63,573.56c-2.46.55-6.8,2.32-6.14,5.55.66,3.21,4.93,4.13,7.67,4.1-.1-.36-.19-.72-.29-1.07-3.18,1.61-8.92,3.77-8.04,8.39.8,4.23,7.12,4.38,10.38,4.09.73-.06.74-1.22,0-1.15-2.67.24-9.24.31-9.29-3.67-.04-3.68,4.86-5.31,7.54-6.66.52-.26.26-1.08-.29-1.07-2.03.02-5.24-.46-6.29-2.51-1.43-2.78,3.09-4.44,5.07-4.88.72-.16.42-1.27-.31-1.11h0Z"/>
      <path class="cls-3" d="m578,577.47c-3.12.22-6.03,2.24-6.31,5.56-.25,3.06,2.2,5.68,5.29,5.46.73-.05.74-1.2,0-1.15-2.6.19-4.55-2.07-4.09-4.64.45-2.49,2.73-3.91,5.11-4.08.73-.05.74-1.2,0-1.15h0Z"/>
      <path class="cls-3" d="m551.56,597.96c-1.87-.41-5.46-.44-6.75,1.35-1.61,2.24,1.25,3.95,3.01,4.54v-1.11c-2.05.72-5.95.22-6.47,3.18-.4,2.26,2.13,2.87,3.83,2.96.74.04.74-1.11,0-1.15-.64-.03-1.41-.05-1.99-.38-1.35-.77-.33-2.19.7-2.64,1.31-.57,2.86-.38,4.23-.86.54-.19.55-.92,0-1.11-.53-.18-1.22-.32-1.65-.7-1.8-1.6-.71-2.42.6-2.79,1.3-.37,2.87-.47,4.18-.18.72.16,1.03-.95.31-1.11h0Z"/>
      <path class="cls-3" d="m544.98,599.92c-1.67.21-3.57.64-4.29,2.36-.55,1.29.11,2.89,1.53,3.2.72.16,1.03-.95.31-1.11-1.12-.24-1.04-1.54-.39-2.23.73-.76,1.85-.94,2.85-1.07.73-.09.73-1.24,0-1.15h0Z"/>
      <path class="cls-3" d="m500.97,592.87c4.82,1.01,9.72,1.32,14.63.9.73-.06.74-1.21,0-1.15-4.81.41-9.6.13-14.33-.86-.72-.15-1.03.96-.31,1.11h0Z"/>
      <path class="cls-3" d="m520.03,592.85c7.88-.31,15.64-1.82,23.06-4.5.69-.25.39-1.36-.31-1.11-7.33,2.64-14.97,4.15-22.76,4.46-.74.03-.74,1.18,0,1.15h0Z"/>
      <path class="cls-3" d="m511.79,597.46c3.96.1,7.92,0,11.87-.31.73-.06.74-1.21,0-1.15-3.95.31-7.91.41-11.87.31-.74-.02-.74,1.13,0,1.15h0Z"/>
      <path class="cls-3" d="m489.13,593.07c-1.7-.33-3.95-.53-4.78,1.4-.72,1.68.63,2.67,2.11,3.02-.05-.35-.09-.7-.14-1.05-1.55.67-4.42.29-4.86,2.52-.4,2.01,1.84,2.86,3.38,3.15.72.14,1.03-.97.31-1.11-.61-.12-1.75-.27-2.12-.77-1.09-1.47.33-1.93,1.13-2.14.95-.24,1.84-.26,2.75-.66.46-.2.31-.94-.14-1.05-.33-.07-.65-.17-.97-.3-.54-1-.42-1.61.36-1.84.77-.52,1.83-.23,2.66-.06.72.14,1.03-.97.31-1.11h0Z"/>
      <path class="cls-3" d="m451.07,586.2c1.25,3.55,3.29,6.68,6.06,9.24.54.5,1.36-.31.81-.81-2.62-2.42-4.58-5.36-5.76-8.73-.24-.69-1.36-.4-1.11.31h0Z"/>
      <path class="cls-3" d="m458.41,586.48c-3.36-1.89-5.78-4.93-6.87-8.62-.21-.71-1.32-.41-1.11.31,1.17,3.98,3.79,7.27,7.4,9.31.65.36,1.23-.63.58-.99h0Z"/>
      <path class="cls-3" d="m608.09,631.04c-1.59,1.35-4.6,3.91-4.1,6.33.51,2.45,3.43,2.17,5.24,1.69l-.44-1.05c-1.87,1.2-4.83,4.46-3.28,6.88.69,1.08,2.02,1.17,3.18,1.22,2.04.09,4.06-.16,6.03-.64.72-.17.42-1.28-.31-1.11-1.88.45-4.77,1.14-6.68.51-3.27-1.07.03-4.83,1.64-5.87.54-.35.2-1.22-.44-1.05-.83.22-1.77.52-2.63.27-1.47-.42-1.23-1.95-.55-2.98.85-1.28,1.98-2.39,3.15-3.38.56-.48-.25-1.29-.81-.81h0Z"/>
      <path class="cls-3" d="m578.19,649.16c-2,.32-5.65.88-6.05,3.41-.36,2.29,2.19,2.74,3.89,2.64-.05-.38-.1-.75-.15-1.13-1.61.55-3.28,1.41-3.14,3.37.05.74,1.2.74,1.15,0-.09-1.39,1.23-1.89,2.3-2.26.58-.2.53-1.17-.15-1.13-.54.03-1.26.12-1.77-.09-1.3-.53-.82-2,.19-2.57,1.2-.67,2.71-.92,4.04-1.13.73-.12.42-1.22-.31-1.11h0Z"/>
      <path class="cls-3" d="m572.58,652.22c-1.36.42-2.91.94-3.69,2.24-.66,1.09-.65,2.47.23,3.42.5.55,1.31-.27.81-.81-.7-.76-.31-1.88.36-2.51.7-.66,1.69-.94,2.59-1.22.71-.22.4-1.33-.31-1.11h0Z"/>
      <path class="cls-3" d="m529.66,536.37c1.27,2.9,3.34,5.57,5.38,7.95,5.32,6.2,12.16,11.01,19.57,14.39,6.04,2.76,12.44,4.58,18.97,5.71.72.12,1.04-.98.31-1.11-16.12-2.78-32.78-10.48-41.73-24.8-.55-.87-1.09-1.77-1.5-2.72-.3-.68-1.29-.09-.99.58h0Z"/>
      <path class="cls-3" d="m519.12,485.4c-.45,3.28.51,6.89,1.54,9.96,3.22,9.64,9.79,17.97,16.9,25.05,7.04,7.01,15.01,13.05,23.3,18.5.62.41,1.2-.59.58-.99-12.49-8.23-24.75-17.93-33.27-30.4-3.78-5.54-7.1-11.95-7.85-18.72-.09-.79-.14-1.59-.12-2.38,0-.14.08-1.05.03-.71.1-.72-1.01-1.04-1.11-.31h0Z"/>
      <path class="cls-3" d="m489.88,715.47c-.05.12.18-.38.28-.59.34-.67.73-1.32,1.14-1.95,1.6-2.48,3.57-4.72,5.65-6.8,8.98-8.95,20.52-15.21,32.07-20.19,11.43-4.93,23.37-8.61,35.44-11.6.72-.18.41-1.29-.31-1.11-18.74,4.65-37.63,10.89-54.07,21.23-7.26,4.57-14.47,10.1-19.37,17.26-.74,1.08-1.48,2.22-1.95,3.44-.27.69.84.99,1.11.31h0Z"/>
      <path class="cls-3" d="m392.27,616.07c1.75,1.05,3.64,1.87,5.51,2.68,5.45,2.35,11.12,4.21,16.85,5.77,9.39,2.56,19,4.29,28.65,5.47,13.79,1.68,27.71,2.19,41.6,1.87,18.16-.42,36.28-2.27,54.21-5.12,2.57-.41,5.14-.84,7.7-1.29.73-.13.42-1.24-.31-1.11-32.43,5.67-65.75,8.39-98.6,5.01-16.36-1.68-32.98-4.78-48.26-11.06-2.29-.94-4.64-1.93-6.77-3.21-.64-.38-1.22.61-.58.99h0Z"/>
      <path class="cls-3" d="m320.92,626.92c2.23,1.68,4.66,3.12,7.08,4.52,6.59,3.81,13.53,7.01,20.62,9.77,10.9,4.25,22.23,7.4,33.73,9.56,14.97,2.82,30.24,3.97,45.47,3.64,19.11-.41,38.15-3.13,56.72-7.65,2.64-.64,5.27-1.32,7.9-2.04.71-.19.41-1.3-.31-1.11-19.03,5.16-38.56,8.52-58.27,9.44-15.66.73-31.42-.06-46.89-2.63-11.8-1.96-23.44-4.94-34.67-9.05-7.59-2.78-15.01-6.06-22.07-10-2.03-1.13-4.03-2.31-5.98-3.57-.83-.53-1.72-1.41-2.63-1.79-.04-.02-.08-.06-.11-.08-.59-.45-1.16.55-.58.99h0Z"/>
      <path class="cls-3" d="m371.04,484.27c.05,6.91,1.92,14.04,4.13,20.52,5.39,15.78,15.16,29.8,27.71,40.73,10.15,8.85,21.91,15.62,34.33,20.75.68.28.98-.83.31-1.11-20.05-8.29-38.4-21.22-50.63-39.38-6.99-10.38-11.96-22.26-13.99-34.64-.37-2.26-.7-4.58-.71-6.87,0-.74-1.16-.74-1.15,0h0Z"/>
      <path class="cls-3" d="m294.13,533.51c.39,2.32,1.12,4.61,1.87,6.83,1.94,5.69,4.57,11.15,7.75,16.25,4.54,7.29,10.22,13.86,16.77,19.41,8.48,7.19,18.31,12.61,28.75,16.38,14.12,5.1,29.2,7.19,44.16,7.45,2.22.04,4.45.03,6.67,0,.74-.01.74-1.16,0-1.15-15.49.27-31.13-1.24-45.97-5.87-10.94-3.41-21.37-8.56-30.4-15.66-6.87-5.4-12.88-11.87-17.71-19.15-3.43-5.18-6.3-10.75-8.42-16.6-.65-1.8-1.24-3.62-1.73-5.47-.21-.8-.26-1.85-.6-2.6-.01-.03-.02-.08-.02-.12-.12-.73-1.23-.42-1.11.31h0Z"/>
      <path class="cls-3" d="m264.62,511.99c-.29,8.39.51,16.91,1.66,25.2,2.35,16.97,7.06,34.05,15.98,48.8,5.43,8.99,12.52,16.93,21.26,22.81.62.41,1.19-.58.58-.99-15.51-10.43-25.16-27.18-30.81-44.64-4.44-13.72-6.75-28.17-7.39-42.56-.13-2.87-.23-5.75-.13-8.62.03-.74-1.13-.74-1.15,0h0Z"/>
      <path class="cls-3" d="m382.31,377.24c-3.38,8.99-5.08,18.85-6.14,28.35-2.4,21.41-.18,43.46,7.8,63.55,5.7,14.35,14.24,27.38,24.83,38.59.51.54,1.32-.28.81-.81-17.88-18.92-29.17-42.9-32.26-68.76-2.04-17.01-.85-34.49,3.27-51.11.79-3.19,1.64-6.42,2.8-9.5.26-.69-.85-.99-1.11-.31h0Z"/>
      <path class="cls-3" d="m573.86,691.08c3.25.18,6.41-.45,9.55-1.21,2.94-.71,5.89-1.43,8.8-2.28,5.58-1.63,11.02-3.81,15.67-7.36.58-.44,0-1.44-.58-.99-4.57,3.5-9.9,5.64-15.39,7.25-2.61.76-5.26,1.42-7.9,2.06-3.34.81-6.68,1.57-10.14,1.38-.74-.04-.74,1.11,0,1.15h0Z"/>
      <path class="cls-3" d="m598.14,680.81c10.37-5.27,19.49-12.73,26.7-21.86.45-.58-.35-1.39-.81-.81-7.16,9.06-16.18,16.45-26.47,21.68-.66.34-.08,1.33.58.99h0Z"/>
      <path class="cls-3" d="m613.58,676.83c1.89-1.23,3.79-2.45,5.68-3.68.62-.4.04-1.4-.58-.99-1.89,1.23-3.79,2.45-5.68,3.68-.62.4-.04,1.4.58.99h0Z"/>
      <path class="cls-3" d="m489.01,694.28c-4.88-3.63-4.61-10.71-.78-14.97,4.28-4.78,11.03-5.53,16.98-4.12.72.17,1.03-.94.31-1.11-6.7-1.58-14.36-.49-18.8,5.26-3.75,4.87-3.39,12.15,1.71,15.94.59.44,1.17-.56.58-.99h0Z"/>
      <path class="cls-3" d="m494.27,686.03c.14-4.64,5.17-6.24,9.04-5.96,4.02.29,7.81,1.87,11.87,1.91.74,0,.74-1.14,0-1.15-5.05-.05-9.9-2.58-15-1.81-3.61.55-6.95,3.15-7.06,7.01-.02.74,1.13.74,1.15,0h0Z"/>
      <path class="cls-3" d="m523.07,682.28c7.45-2.11,14.33-5.77,20.26-10.74.57-.48-.25-1.29-.81-.81-5.78,4.85-12.5,8.39-19.75,10.45-.71.2-.41,1.31.31,1.11h0Z"/>
      <path class="cls-3" d="m498.88,710.06c2.87-3.72,6.42-6.81,10.48-9.18.64-.37.06-1.37-.58-.99-4.24,2.47-7.89,5.71-10.89,9.6-.45.59.55,1.16.99.58h0Z"/>
      <path class="cls-3" d="m534.32,552.03c13.81,11.75,31.88,17.98,50,17.19.74-.03.74-1.18,0-1.15-17.81.78-35.6-5.3-49.19-16.86-.56-.48-1.38.33-.81.81h0Z"/>
      <path class="cls-3" d="m545.1,546.05c4.03,2.84,8.4,5.08,13.05,6.72.7.25,1-.87.31-1.11-4.56-1.6-8.83-3.82-12.78-6.6-.61-.43-1.18.57-.58.99h0Z"/>
      <path class="cls-3" d="m523.02,480.56c7.94,2.77,14.04,8.8,19.93,14.55,5.74,5.61,11.6,11.69,13.63,19.7.18.72,1.29.41,1.11-.31-2.07-8.2-8.04-14.46-13.92-20.21-6.04-5.9-12.29-12-20.43-14.85-.7-.24-1,.87-.31,1.11h0Z"/>
      <path class="cls-3" d="m541.81,501.34c8.59,7.6,6.65,23.31,18.1,28.33.67.29,1.26-.7.58-.99-11.18-4.91-9.37-20.64-17.86-28.15-.55-.49-1.37.32-.81.81h0Z"/>
      <path class="cls-3" d="m425.7,621.59c12.36,2.94,24.98,4.67,37.68,5.17.74.03.74-1.12,0-1.15-12.6-.49-25.11-2.21-37.38-5.13-.72-.17-1.03.94-.31,1.11h0Z"/>
      <path class="cls-3" d="m454.52,622.32c21.41,1.97,42.96,2.01,64.37.12.73-.06.74-1.22,0-1.15-21.41,1.89-42.96,1.84-64.37-.12-.74-.07-.73,1.08,0,1.15h0Z"/>
      <path class="cls-3" d="m344.72,627.22c4.53.95,8.58-1.43,12.05-4.1,4.12-3.17,7.95-6.09,13.42-6.01,10.36.15,18.18,8.02,27.14,12.06,5.27,2.38,10.76,2.84,16.46,3.04.74.03.74-1.12,0-1.15-5.49-.19-10.81-.61-15.88-2.89-4.35-1.96-8.28-4.71-12.39-7.11-7.88-4.59-17.3-7.51-25.43-1.89-4.47,3.09-9.04,8.2-15.05,6.93-.72-.15-1.03.96-.31,1.11h0Z"/>
      <path class="cls-3" d="m368.97,625.74c4.95.43,9.36,2.72,13.62,5.13,4.02,2.28,8.01,4.52,12.33,6.19,9.45,3.65,19.2,4.55,29.25,4.2,6.22-.22,12.47-.58,18.65.38.72.11,1.04-1,.31-1.11-10.49-1.63-21.09.43-31.61-.65-5.09-.52-10.11-1.69-14.93-3.42-4.74-1.71-9.06-4.11-13.42-6.58-4.44-2.52-9.03-4.83-14.2-5.28-.74-.06-.73,1.09,0,1.15h0Z"/>
      <path class="cls-3" d="m426.91,636.97h4.83c.74,0,.74-1.15,0-1.15h-4.83c-.74,0-.74,1.15,0,1.15h0Z"/>
      <path class="cls-3" d="m334.09,647.06c13.98,9.36,28.56,18.98,45.49,21.7.72.12,1.04-.99.31-1.11-16.84-2.71-31.32-12.28-45.22-21.59-.62-.41-1.19.58-.58.99h0Z"/>
      <path class="cls-3" d="m487.27,665.48c18.66-1.18,36.98-5.68,54.07-13.28.68-.3.09-1.29-.58-.99-16.89,7.51-35.04,11.96-53.48,13.12-.74.05-.74,1.2,0,1.15h0Z"/>
      <path class="cls-3" d="m523.06,653.4c19.1-5.21,35.66-16.41,51.82-27.45.61-.42.03-1.41-.58-.99-16.07,10.98-32.55,22.15-51.55,27.33-.71.19-.41,1.31.31,1.11h0Z"/>
      <path class="cls-3" d="m377.81,490.12c5.97,13.61,14.13,26.16,24.13,37.14.5.55,1.31-.27.81-.81-9.94-10.92-18.02-23.39-23.95-36.91-.3-.68-1.29-.09-.99.58h0Z"/>
      <path class="cls-3" d="m409.75,534.72c13.94,16.3,36.55,20.08,52.78,33.29,5.09,4.14,9.78,9.32,11.01,15.97.13.73,1.24.42,1.11-.31-2-10.84-12.48-18.18-21.41-23.31-9.32-5.35-19.39-9.27-28.59-14.86-5.24-3.18-10.09-6.93-14.09-11.6-.48-.56-1.29.25-.81.81h0Z"/>
      <path class="cls-3" d="m426.88,343.87c-17.67,14.68-23.17,38.18-23.98,60.13-.27,7.29-.13,14.59.02,21.89.01.74,1.17.74,1.15,0-.46-23.11-.67-47.46,12.02-67.77,3.16-5.05,7.02-9.63,11.61-13.43.57-.47-.25-1.28-.81-.81h0Z"/>
      <path class="cls-3" d="m406.26,358.22c-3.29,6.48-6.56,13.07-7.75,20.31-.12.72.99,1.04,1.11.31,1.17-7.15,4.39-13.63,7.63-20.03.33-.66-.66-1.24-.99-.58h0Z"/>
      <path class="cls-3" d="m395.77,393.93c-1.18,13.42-.47,26.93,2.11,40.14.14.73,1.25.42,1.11-.31-2.55-13.12-3.24-26.53-2.07-39.84.07-.74-1.09-.73-1.15,0h0Z"/>
      <path class="cls-3" d="m397.99,441.03c.9,5.35,2.09,10.64,3.58,15.86.2.71,1.31.41,1.11-.31-1.49-5.22-2.69-10.51-3.58-15.86-.12-.73-1.23-.42-1.11.31h0Z"/>
      <path class="cls-3" d="m373.29,593.86c22.41,3.56,45.49.26,67.66,5.69.72.18,1.03-.93.31-1.11-22.18-5.43-45.25-2.13-67.66-5.69-.72-.11-1.04.99-.31,1.11h0Z"/>
      <path class="cls-3" d="m422.08,589.53c6.76-.62,13.51.23,19.9,2.51.7.25,1-.86.31-1.11-6.48-2.32-13.35-3.18-20.21-2.56-.73.07-.74,1.22,0,1.15h0Z"/>
      <path class="cls-3" d="m293.37,587.2c5.07,8.92,13.51,15.04,22.1,20.29,4.96,3.03,10.04,5.86,14.85,9.12,4.47,3.02,9.15,6.48,11.28,11.63.28.68,1.39.38,1.11-.31-1.86-4.52-5.46-7.78-9.35-10.6-4.7-3.42-9.76-6.31-14.74-9.28-9.31-5.57-18.77-11.77-24.26-21.43-.37-.64-1.36-.06-.99.58h0Z"/>
      <path class="cls-3" d="m297.42,582.5c3.07,4.6,6.61,8.84,10.57,12.7.53.52,1.35-.3.81-.81-3.89-3.79-7.37-7.95-10.39-12.47-.41-.61-1.41-.04-.99.58h0Z"/>
      <path class="cls-3" d="m289.96,565.97c1.44,4.04,3.46,7.8,6.06,11.21.44.58,1.44,0,.99-.58-2.54-3.33-4.54-6.99-5.95-10.94-.25-.69-1.36-.39-1.11.31h0Z"/>
      <path class="cls-3" d="m277.25,463.46c4.71,7.13,7.99,15.05,9.7,23.42.15.73,1.26.42,1.11-.31-1.73-8.46-5.06-16.49-9.82-23.7-.41-.62-1.4-.04-.99.58h0Z"/>
      <path class="cls-3" d="m288.44,492.37c.39,11.62.14,23.26-.73,34.85-.06.74,1.1.74,1.15,0,.87-11.6,1.11-23.23.73-34.85-.02-.74-1.18-.74-1.15,0h0Z"/>
    </g>
    <g>
      <path class="cls-3" d="m684.12,220.85c3.9,4.43,7.11,9.42,8.64,15.17.91,3.42,1.8,7.42-.32,10.63-3.2,4.83-9-.24-12.48-2.04-4.4-2.27-9.06-4.02-13.84-5.29-20.28-5.39-41.98-2.7-62.22,1.5-20.19,4.19-40.3,9.66-59.64,16.86-6.03,2.24-11.98,4.71-17.86,7.33-4.1,1.83-8.15,3.77-12.32,5.43-3.3,1.31-6.7,2.4-10.23,2.89-4.02.56-8.11.36-12.13-.16-13.58-1.78-29.4-6.13-36.39-19.08-2.03-3.77-3.12-8.04-3.18-12.32-.02-1.47.22-2.84.27-4.23.26-7.19,2.07-13.9,5.52-20.27,8.63-15.97,24.55-26.18,40.84-33.12,23.06-9.83,48.01-15.11,73.13-13.6,6.18.37,12.33,1.15,18.41,2.28.72.13,1.03-.97.31-1.11-24.91-4.62-50.42-2.73-74.56,4.82-19.77,6.18-40.55,15.25-53.7,31.95-6,7.62-10.45,16.98-11.06,26.78-.09,1.39-.02,2.21-.15,3.24-.39,3.18-.12,6.47.63,9.57,3.51,14.52,17.58,21.78,31.13,24.7,8.61,1.86,17.49,3.08,26.11.63,3.81-1.08,7.45-2.68,11.05-4.3,5.09-2.28,10.17-4.61,15.33-6.73,18.52-7.63,37.85-13.19,57.31-17.86,21.16-5.08,43.6-9.27,65.35-5.72,5.26.86,10.44,2.2,15.4,4.15,2.54,1,5.02,2.16,7.4,3.48,2.17,1.2,4.34,3.07,6.87,3.38,3.41.42,5.85-1.83,6.71-4.98,1.02-3.72,0-7.52-1.19-11.06-1.73-5.15-4.78-9.65-8.35-13.71-.49-.56-1.3.26-.81.81h0Z"/>
      <path class="cls-3" d="m524,267.28c4.6.42,9.41,1.91,13.76,3.56,10.46,3.95,19.93,10.42,27.3,18.85,4.97,5.69,8.94,12.22,11.89,19.16,1.62,3.82,3.05,7.67,4.98,11.35,1.7,3.24,3.65,6.35,5.85,9.26,6.73,8.92,15.82,15.83,26.33,19.68,3.45,1.26,7.03,2.2,10.67,2.75,1.73.26,3.74.69,5.5.5.08,0,.17,0,.25,0,.62-.01.72-.74.29-1.07.23.18-.26-.21-.33-.27-.37-.32-.72-.64-1.07-.98-1.13-1.1-2.16-2.31-3.04-3.61-2.52-3.71-3.78-8.18-2.62-12.6.65-2.49,2.04-4.64,3.32-6.85,1.08-1.87,2.16-3.74,3.17-5.64,1.9-3.57,3.71-7.34,4.49-11.34.65-3.28.5-6.78-1.36-9.66-2.35-3.62-6.67-5.53-10.7-6.57-4.82-1.24-11.95-1.49-13.1-7.55-.58-3.04.25-6.16.7-9.17.41-2.75.61-5.55.25-8.32-.81-6.32-4.79-10.83-10.54-13.29-2.67-1.14-5.5-1.85-8.35-2.35-3.59-.63-8.36-1.29-9.37-5.52-.17-.72-1.28-.42-1.11.31,1.42,5.98,8.89,5.85,13.64,7.05,5.75,1.45,11.58,4.38,13.73,10.29,1.11,3.04,1.19,6.36.88,9.55-.29,3.02-1.11,5.98-1.16,9.02-.04,2.39.46,4.84,2.14,6.63,1.57,1.68,3.85,2.52,6.02,3.11,4.9,1.32,10.24,1.79,14.19,5.34,2.99,2.68,3.78,6.49,3.12,10.34-.73,4.27-2.7,8.27-4.74,12.05-2.16,4.02-5.28,8-6.39,12.47-1.72,6.99,2.12,14.33,7.64,18.56.1-.36.19-.72.29-1.07-4.56.09-9.28-1-13.6-2.36-10.5-3.29-19.78-9.7-26.75-18.2-5.07-6.19-8.55-13.22-11.5-20.61-2.74-6.84-6.39-13.29-11.01-19.04-7.17-8.92-16.58-15.87-27.12-20.3-3.48-1.46-7.08-2.67-10.76-3.54-1.71-.41-3.77-1.07-5.56-1.03-.08,0-.17-.02-.26-.03-.74-.07-.73,1.08,0,1.15h0Z"/>
      <path class="cls-3" d="m486.75,189.27c3.31-8.49,9.47-16.87,15.61-23.75,15.06-16.88,35.33-28.12,57.36-32.95,8.2-1.8,16.47-3.26,24.64-5.22,8.29-1.99,16.51-4.28,24.56-7.06,6.36-2.2,12.64-4.7,18.77-7.48,5.34-2.42,10.6-5.18,15.23-8.82,4.29-3.36,8.04-7.61,9.85-12.82.22-.63.41-1.27.56-1.92.09-.38.12-.82.25-1.19.17-.48.94-1.56,1.56-1.61.87-.07,1.92,1.19,2.37,1.82.56.78.94,1.69,1.15,2.63.86,3.88-1.22,7.47-4,10.02-2.86,2.62-6.63,4.07-9.3,6.92-2,2.14-3.34,5.29-2.22,8.16.61,1.55,1.79,2.75,2.89,3.96,1.46,1.61,2.91,3.25,4.21,5,2.33,3.13,4.26,6.64,4.87,10.53.62,3.96-.19,8.16-2.99,11.15-2.53,2.7-6.15,4.23-9.79,4.64-4.33.49-8.67-.41-12.8-1.68-3.76-1.15-7.46-2.64-11.41-2.99-7.43-.66-13.8,3.73-19.05,8.48-6.03,5.46-11.47,11.22-19.67,13.19-3.94.95-8,1.2-12.04,1.33-.74.02-.74,1.18,0,1.15,7.97-.27,15.83-1.23,22.47-6.02,6.49-4.68,11.4-11.43,18.68-15.04,4.12-2.05,8.42-2.44,12.88-1.39,4.22.99,8.22,2.74,12.49,3.6,6.87,1.38,14.97.65,19.68-5.17,4.5-5.57,3.19-13.38-.17-19.15-1.99-3.42-4.66-6.33-7.28-9.27-1.68-1.88-2.72-3.81-1.93-6.36.68-2.2,2.35-3.87,4.16-5.19,3.06-2.24,6.44-3.89,8.88-6.89,1.94-2.38,3.11-5.33,2.7-8.43-.33-2.5-2.03-5.94-4.9-6.19-1.07-.1-1.86.44-2.28,1.41-.61,1.4-.68,3.1-1.22,4.56-4.3,11.64-17.56,17.72-28.18,22.23-15.74,6.69-32.1,11.36-48.8,14.93-7.83,1.68-15.75,2.93-23.44,5.2-6.21,1.84-12.26,4.2-18.06,7.08-9.65,4.8-18.55,11.09-26.29,18.59-8.47,8.22-16.22,18.15-20.87,29.09-.09.2-.17.4-.25.61-.27.69.84.99,1.11.31h0Z"/>
      <path class="cls-3" d="m657.84,238.68c.73,4.38,2.84,8.71,4.88,12.59,5.94,11.26,14.52,20.55,23.72,29.2,7.62,7.16,13.64,15.99,19.04,24.89,5.59,9.23,10.52,18.86,15.07,28.65,3.26,7.03,6.33,14.16,9.17,21.38.73,1.86,1.49,3.72,2.08,5.63,4.03,12.98,5.64,26.89,5.54,40.43-.18,24.88-7.18,49.43-21.18,70.1-2.18,3.22-4.52,6.33-6.98,9.33-.34.41-.04,1.14.56.96,12.58-3.82,25.16-7.63,37.73-11.47,4.64-1.42,9.38-2.33,12.87-6.04,3.31-3.52,4.48-8.35,4.27-13.08-.14-3.09-.79-6.03-.18-9.13.48-2.46,1.56-4.77,3.16-6.71,3.62-4.39,8.82-6.27,14.14-7.62,3.75-.95,7.47-2.76,10.89-4.52,6.71-3.44,13.07-7.94,17.91-13.77,5.75-6.91,8.83-15.5,8.33-24.52-.41-7.34-2.65-14.63-6.79-20.71-2.7-3.96-6.01-7.5-9.78-10.46-5.26-4.12-11.11-6.62-17.45-8.55-5.16-1.57-10.98-4.29-13.25-9.55-1.14-2.63-1.15-5.61-.3-8.32.6-1.92,1.83-3.56,2.86-5.27.52-.86,1.03-1.71,1.55-2.57.22-.36.43-.72.65-1.08.04-.07.35-.56.16-.3.44-.6.94-1.16,1.36-1.78,6.43-9.32,6.23-21.14.56-30.79-2.21-3.77-4.98-7.21-7.34-10.88-1.72-2.68-3.37-5.42-4.85-8.24-1.5-2.85-2.97-5.85-3.74-9-.21-.88-.26-1.35-.32-2.08-.19-2.3-.02-4.64.55-6.88.94-3.68,3.05-6.96,6.22-9.1,2.08-1.4,4.45-2.28,6.89-2.8,1.6-.34,3.22-.53,4.85-.61,2.04-.1,3.79.42,5.68,1.17,3.69,1.45,7.26,3.64,9.91,6.63,2.71,3.06,3.34,6.76,3.5,10.72.14,3.39.03,6.9,1.17,10.15,1.06,3.04,3.18,5.44,6.05,6.9,7.01,3.58,14.88,1.43,22.35,2,6.24.47,12.06,3.48,14.84,9.26,2.27,4.73,2.47,10.24,2.38,15.39-.1,5.4-.7,10.78-.66,16.18.1,13.86,5.29,27.82,12.93,39.24,3.97,5.94,8.69,11.34,13.88,16.23.45.43,1.3-.14.9-.7-1.1-1.54-1.53-3.68-1.84-5.49-1.03-6.17.08-12.65,1.72-18.61,1.43-5.22,3.41-10.28,5.68-15.18,2.42-5.23,5.19-10.18,6.89-15.71,2.96-9.64,3.56-19.88,2.67-29.89-1.11-12.49-4.31-25.04-9.41-36.51-.06-.13-.25-.59-.47-1.07-.55-1.22-1.15-2.42-1.77-3.61-2.48-4.75-5.36-9.29-8.5-13.63-10.46-14.44-24.01-26.61-39.58-35.32-2.45-1.37-4.95-2.65-7.48-3.86-.67-.32-1.25.68-.58.99,17.25,8.2,32.41,20.37,44.15,35.44,5.04,6.47,9.87,14.02,13.07,21.27,4.41,10.02,7.41,20.75,8.89,31.6,1.37,10.1,1.33,20.52-1.06,30.47-1.31,5.46-3.48,10.45-5.98,15.45-2.5,5.01-4.75,10.17-6.49,15.49-2.14,6.52-3.71,13.55-3.17,20.46.14,1.79.42,3.59.96,5.32.25.79.53,2.01,1.1,2.65.08.09.13.22.2.31.3-.23.6-.46.9-.7-11.14-10.49-19.91-23.46-23.99-38.31-1.74-6.33-2.66-12.84-2.45-19.4.18-5.36.73-10.71.62-16.08-.1-4.93-.71-10.14-3.3-14.45-2.85-4.74-7.93-7.48-13.32-8.23-7.89-1.1-16.56,1.82-23.92-2.24-7.49-4.13-5.5-12.77-6.6-19.82-1.12-7.19-7.28-11.82-13.68-14.39-1.49-.6-3.19-1.31-4.8-1.34-1.53-.03-3.09.13-4.6.34-2.63.37-5.24,1.09-7.6,2.34-6.06,3.21-9.01,9.65-8.95,16.32,0,.71.06,1.42.13,2.12.06.57-.02-.01.06.53.29,2.1,1.09,4.11,1.92,6.05,2.23,5.19,5.21,10.05,8.32,14.74,2.51,3.77,5.42,7.32,7.4,11.42,1.63,3.37,2.67,7.03,2.85,10.78.25,5.17-1.12,10.32-3.75,14.77-1.04,1.76-2.33,3.32-3.39,5.07-2.66,4.41-5.56,8.19-4.84,13.63,1.6,11.97,16.61,12.89,25.11,17.35,8.07,4.24,15.11,11.09,19.13,19.33,3.73,7.65,5.05,17.65,2.73,26.12-2.31,8.39-8.03,15.31-14.88,20.49-5.08,3.84-10.79,6.9-16.73,9.19-2.68,1.03-5.45,1.52-8.13,2.5-3.5,1.27-6.87,3.16-9.43,5.91-3.28,3.52-4.74,8.16-4.42,12.94.22,3.29.75,6.39.07,9.68-.49,2.36-1.48,4.61-3.04,6.47-2,2.39-4.79,4.06-7.78,4.87-12.08,3.27-24.03,7.23-36,10.86-2.28.69-4.56,1.38-6.83,2.07.19.32.37.64.56.96,16.52-20.15,26.16-44.8,28.11-70.75,1.19-15.82-.18-32.08-4.37-47.41-2.08-7.61-5.42-14.9-8.57-22.1-4.18-9.55-8.7-18.96-13.73-28.09-5.22-9.47-10.96-18.77-17.94-27.06-3.85-4.58-8.36-8.42-12.54-12.67-4.81-4.9-9.25-10.18-13.05-15.9-3.72-5.61-7.18-11.85-8.76-18.45-.07-.29-.14-.59-.19-.89-.12-.73-1.23-.42-1.11.31h0Z"/>
      <path class="cls-3" d="m685.4,219.8c-2.97,1.76-6.77,2.47-10.18,2.35-3.68-.13-7.2-1.37-10.26-3.39-1.24-.82-2.3-1.72-3.66-2.34-6.01-2.77-13.24-3.26-19.74-3.77-11.18-.87-22.43-.81-33.62-.46-14.66.46-29.31,1.52-43.91,2.96-18.32,1.8-36.58,4.23-54.74,7.23.19.32.37.64.56.96,2.83-2.5,5.82-4.84,8.81-7.14,8.07-6.21,16.47-12,25.06-17.47,12.59-8.01,25.64-15.29,39.07-21.8,16.56-8.03,33.7-14.87,51.28-20.31,19.93-6.16,40.43-10.52,61.18-12.7,2.7-.28,5.41-.53,8.12-.74-.05-.38-.1-.75-.15-1.13-4.71.98-9.38,2.22-13.96,3.68-3.37,1.07-6.74,2.26-9.9,3.85-2.11,1.06-4.64,2.41-5.78,4.6-.23.43.15.99.65.85,4.26-1.2,8.6-2.13,12.94-3,10.49-2.11,21.12-3.6,31.79-4.38,13.36-.98,26.9-.88,40.17,1.17,13.4,2.06,26.73,6.17,38.05,13.79,12.07,8.12,20.72,20.08,25.14,33.9.61,1.9,1.14,3.83,1.6,5.77.37-.1.74-.2,1.11-.31-1.83-5.98-7.43-10.65-13.22-12.45-5.25-1.63-12.38-2.05-17.12,1.16-4.35,2.95-6.53,8.06-9.04,12.48-1.33,2.34-2.79,4.66-4.81,6.47-2.98,2.66-7.03,3.61-10.95,3.48-8.74-.29-16.12-5.43-24.14-8.24-8.24-2.88-17.09-2.54-25.37-.03-7.63,2.31-14.88,6.09-22.16,9.31-4.27,1.89-8.55,3.77-12.82,5.67-.68.3-.09,1.29.58.99,2.87-1.28,5.75-2.54,8.62-3.81,6.17-2.73,12.34-5.46,18.52-8.18,8.43-3.72,17.6-5.97,26.82-4.3,8.18,1.48,15.1,6.4,23.03,8.62,6.45,1.81,14.07,1.82,19.16-3.15,3.65-3.56,5.52-8.5,8.19-12.76,1.41-2.24,3.08-4.41,5.37-5.82,2.76-1.71,6.05-1.92,9.22-1.83,7.88.23,16.56,4.67,19.01,12.7.22.71,1.28.42,1.11-.31-3.47-14.4-10.94-27.51-22.54-36.87-10.64-8.58-23.68-13.6-36.97-16.31-13.48-2.75-27.37-3.3-41.09-2.63-11.42.56-22.8,1.97-34.03,4.07-3.7.69-7.39,1.46-11.05,2.32-1.14.27-2.28.55-3.42.84-.48.12-1.37.18-1.78.47-.05.04-.16.04-.23.06.22.28.43.56.65.85,1.18-2.25,4.02-3.56,6.21-4.59,3.15-1.49,6.47-2.61,9.79-3.63,4.26-1.31,8.59-2.45,12.96-3.36.63-.13.5-1.18-.15-1.13-21.01,1.64-41.81,5.48-62.08,11.24-18.08,5.14-35.73,11.79-52.79,19.68-14.13,6.53-27.86,13.93-41.1,22.11-9.34,5.77-18.45,11.92-27.21,18.53-2.58,1.95-5.13,3.93-7.64,5.97-1.06.87-2.51,1.75-3.38,2.83-.04.05-.09.08-.14.12-.47.42.05,1.05.56.96,31.35-5.18,63.07-8.82,94.84-10.02,11.6-.44,23.25-.59,34.83.17,6.94.45,14.67.84,21.15,3.64,1.57.68,2.78,1.72,4.21,2.64,3.04,1.96,6.53,3.16,10.15,3.36,3.74.21,7.93-.55,11.19-2.49.64-.38.06-1.37-.58-.99h0Z"/>
      <g class="cls-2">
        <path class="cls-4" d="m503.9,259.98c-4.08.12-7.95,1.93-11.25,4.33-1.34.98-2.65,2.11-3.31,3.63-.66,1.52-.5,3.51.77,4.57.5.42,1.12.66,1.74.86,5.45,1.8,11.63,1.23,16.66-1.52,8.81-4.83,3.98-12.12-4.62-11.86Z"/>
      </g>
      <g class="cls-2">
        <path class="cls-4" d="m465.69,211.56c-.94,0-2.03-.16-2.5-1.06-.42-.8-.17-1.8.09-2.67.6-2,1.23-4.03,2.38-5.7,1.64-2.37,4.16-3.74,6.6-5,5.06-2.62,11.85-1.61,7.89,6-2.72,5.21-9.23,8.38-14.45,8.43Z"/>
      </g>
      <path class="cls-3" d="m478.92,226.39c4.68-1.26,8.24-5.36,10.47-9.49,2.33-4.31,3.37-9.22,3.01-14.1-.06-.73-1.21-.74-1.15,0,.34,4.51-.53,9.04-2.61,13.07-2.08,4.03-5.47,8.19-10.02,9.41-.71.19-.41,1.3.31,1.11h0Z"/>
      <path class="cls-3" d="m513.35,249.22c-9.07-4.18-19.76-1.92-26.26,5.69-.48.56.33,1.38.81.81,6.14-7.2,16.24-9.49,24.86-5.51.67.31,1.25-.68.58-.99h0Z"/>
      <path class="cls-3" d="m515.5,245.43c-4.21-1.52-8.61-1.92-13.03-1.23-.73.11-.42,1.22.31,1.11,4.21-.65,8.42-.22,12.42,1.23.7.25,1-.86.31-1.11h0Z"/>
      <path class="cls-3" d="m498.66,244.53c-1.57.33-3.03.98-4.34,1.91-.6.43-.02,1.43.58.99,1.23-.89,2.57-1.48,4.06-1.8.72-.15.42-1.26-.31-1.11h0Z"/>
      <path class="cls-3" d="m498.63,232.28c-13.12,7.74-26.47,15.55-41.4,19.24-.72.18-.41,1.29.31,1.11,15.02-3.71,28.47-11.56,41.67-19.35.64-.38.06-1.37-.58-.99h0Z"/>
      <path class="cls-3" d="m524.8,267.07c3.17-3.85,5.61-8.23,7.16-12.97,1.51-4.64,2.45-10,1.71-14.88-.18-1.16-.49-2.3-1.01-3.36-.04-.08-.76-1.08-.42-1.2.53-.19,1.49,1.99,1.63,2.33,1.07,2.6,1.7,5.46,2.03,8.24.67,5.68-.08,11.42-2.1,16.77-.26.69.85.99,1.11.31,1.66-4.37,2.48-9.02,2.38-13.7-.09-4.28-.75-9.36-2.87-13.16-.52-.93-1.71-2.48-2.97-2-1.68.65.25,2.93.57,3.8,1.58,4.33.65,9.86-.47,14.2-1.4,5.42-3.99,10.48-7.54,14.8-.47.57.34,1.39.81.81h0Z"/>
      <path class="cls-3" d="m511.55,192.43c-8.46-3.32-17.64-4.21-26.59-2.65-.73.13-.42,1.24.31,1.11,8.75-1.52,17.72-.59,25.98,2.65.69.27.99-.84.31-1.11h0Z"/>
      <path class="cls-3" d="m511.93,192.25c-2.53-2.34-6.11-2.71-9.2-3.98-3.34-1.37-6.55-3-10.26-2.46-.73.11-.42,1.21.31,1.11,3.53-.51,6.7,1.27,9.86,2.55,2.82,1.14,6.17,1.47,8.48,3.6.54.5,1.36-.31.81-.81h0Z"/>
      <path class="cls-3" d="m555.84,254.41c2.44-.64,6.72-2.56,5.95-5.76-.76-3.19-5.07-3.96-7.8-3.84.1.36.19.71.29,1.07,3.12-1.72,8.67-4.03,7.77-8.59-.85-4.3-7.28-4.21-10.52-3.81-.73.09-.73,1.24,0,1.15,2.62-.32,9.5-.66,9.44,3.46-.05,3.63-4.61,5.32-7.27,6.79-.49.27-.28,1.1.29,1.07,2.06-.09,5.22.26,6.39,2.26,1.6,2.72-2.94,4.57-4.86,5.07-.72.19-.41,1.3.31,1.11h0Z"/>
      <path class="cls-3" d="m561.32,250.29c3.1-.33,5.96-2.44,6.12-5.77.15-3.06-2.38-5.62-5.47-5.28-.73.08-.74,1.23,0,1.15,2.47-.27,4.45,1.64,4.32,4.13-.14,2.66-2.51,4.35-4.97,4.61-.73.08-.74,1.23,0,1.15h0Z"/>
      <path class="cls-3" d="m587,228.84c1.91.35,5.47.26,6.71-1.58,1.54-2.28-1.36-3.91-3.14-4.44v1.11c2.04-.8,5.93-.43,6.37-3.4.34-2.27-2.21-2.81-3.92-2.84-.74-.01-.74,1.14,0,1.15.59,0,1.23,0,1.79.22,1.52.59.75,2.21-.36,2.74-1.29.62-2.85.49-4.19,1.02-.51.2-.58.94,0,1.11.55.16,1.19.32,1.68.64,1.34.88.93,2.36-.46,2.81-1.3.42-2.83.59-4.17.34-.72-.13-1.03.98-.31,1.11h0Z"/>
      <path class="cls-3" d="m593.65,226.62c1.62-.26,3.43-.81,4.07-2.5.49-1.3-.21-2.88-1.63-3.13-.72-.13-1.04.98-.31,1.11,1.21.21,1.1,1.58.42,2.29-.73.77-1.86.95-2.86,1.11-.73.12-.42,1.23.31,1.11h0Z"/>
      <path class="cls-3" d="m637.78,232.09c-4.86-.84-9.76-.97-14.66-.37-.73.09-.73,1.24,0,1.15,4.79-.59,9.59-.49,14.35.33.72.12,1.04-.98.31-1.11h0Z"/>
      <path class="cls-3" d="m618.73,232.8c-7.87.6-15.56,2.39-22.88,5.34-.68.27-.38,1.39.31,1.11,7.22-2.91,14.81-4.7,22.58-5.29.73-.06.74-1.21,0-1.15h0Z"/>
      <path class="cls-3" d="m626.8,227.88c-3.96.05-7.91.3-11.85.75-.73.08-.74,1.23,0,1.15,3.94-.45,7.89-.7,11.85-.75.74,0,.74-1.16,0-1.15h0Z"/>
      <path class="cls-3" d="m649.56,231.43c1.69.26,3.89.41,4.7-1.48.73-1.7-.63-2.71-2.16-3.03.05.35.09.7.14,1.05,1.53-.73,4.49-.46,4.79-2.76.26-2-1.94-2.73-3.47-2.97-.72-.11-1.04,1-.31,1.11.43.07,1.67.18,1.92.52-.02.7-.04,1.39-.06,2.09-.32.16-.65.26-.99.32-.86.21-1.66.31-2.46.7-.44.21-.33.95.14,1.05.57-.02.84.31.81.99.61.74.44,1.19-.51,1.36-.68.21-1.56.04-2.23-.06-.72-.11-1.04,1-.31,1.11h0Z"/>
      <path class="cls-3" d="m687.88,236.93c-1.38-3.51-3.52-6.56-6.39-9.01-.56-.48-1.38.33-.81.81,2.71,2.32,4.78,5.19,6.09,8.5.27.68,1.38.38,1.11-.31h0Z"/>
      <path class="cls-3" d="m680.5,236.89c3.42,1.77,5.97,4.7,7.19,8.35.23.7,1.35.4,1.11-.31-1.32-3.93-4.03-7.14-7.72-9.04-.66-.34-1.24.65-.58.99h0Z"/>
      <path class="cls-3" d="m529.3,197.87c1.54-1.41,4.46-4.07,3.88-6.47-.59-2.43-3.49-2.07-5.29-1.52.15.35.3.7.44,1.05,1.81-1.27,4.67-4.62,3.06-6.99-.72-1.06-2.05-1.11-3.21-1.12-2.04-.02-4.05.3-6.01.85-.71.2-.41,1.31.31,1.11,1.94-.54,4.64-1.27,6.66-.76,3.35.84.21,4.81-1.38,5.92-.51.35-.22,1.25.44,1.05.83-.25,1.74-.58,2.62-.38,1.48.35,1.3,1.92.69,2.94-.8,1.32-1.89,2.46-3.02,3.5-.55.5.27,1.31.81.81h0Z"/>
      <path class="cls-3" d="m558.5,178.66c1.99-.39,5.6-1.08,5.94-3.61.3-2.3-2.27-2.68-3.96-2.52.05.38.1.75.15,1.13,1.58-.61,3.24-1.51,3.04-3.47-.08-.73-1.23-.74-1.15,0,.15,1.39-1.12,1.94-2.19,2.36-.55.21-.55,1.2.15,1.13.54-.05,1.26-.17,1.78.02,1.42.51.98,1.92-.06,2.57-1.15.73-2.68,1.03-4,1.28-.73.14-.42,1.25.31,1.11h0Z"/>
      <path class="cls-3" d="m564,175.4c1.35-.47,2.87-1.04,3.62-2.36.62-1.1.58-2.5-.33-3.41-.52-.53-1.34.29-.81.81.71.72.42,1.87-.24,2.53-.69.68-1.64,1.01-2.54,1.32-.7.24-.4,1.35.31,1.11h0Z"/>
      <path class="cls-3" d="m611.17,289.61c-1.37-2.85-3.54-5.45-5.67-7.75-5.49-5.94-12.4-10.45-19.83-13.57-6.2-2.6-12.76-4.22-19.42-5.12-.72-.1-1.04,1.01-.31,1.11,16.2,2.19,33.15,9.26,42.62,23.24.58.85,1.15,1.73,1.6,2.66.32.67,1.31.08.99-.58h0Z"/>
      <path class="cls-3" d="m623.57,340.01c.33-3.28-.84-6.93-1.98-9.93-3.6-9.43-10.4-17.46-17.73-24.24-7.3-6.75-15.48-12.49-23.96-17.64-.63-.39-1.21.61-.58.99,12.87,7.81,25.58,17.14,34.56,29.42,3.93,5.38,7.4,11.62,8.37,18.31.15,1,.27,2.07.17,3.09-.07.74,1.08.73,1.15,0h0Z"/>
      <path class="cls-3" d="m644.35,109.14c-1.14,3.3-4.23,6.93-6.74,9.62-8.68,9.29-20.02,15.99-31.41,21.39-11.2,5.32-22.95,9.41-34.86,12.83-.71.2-.41,1.32.31,1.11,18.52-5.32,37.14-12.23,53.17-23.13,7.11-4.84,14.16-10.64,18.8-17.99.7-1.1,1.41-2.28,1.84-3.52.24-.7-.87-1-1.11-.31h0Z"/>
      <path class="cls-3" d="m745.55,204.92c-1.79-.98-3.73-1.75-5.63-2.49-5.52-2.15-11.24-3.79-17.01-5.13-9.53-2.22-19.25-3.61-28.99-4.43-13.78-1.16-27.65-1.16-41.44-.33-18.12,1.08-36.15,3.59-53.96,7.08-2.58.51-5.15,1.04-7.72,1.58-.72.15-.42,1.26.31,1.11,32.2-6.85,65.39-10.8,98.33-8.63,16.41,1.08,33.14,3.56,48.63,9.27,2.33.86,4.72,1.76,6.9,2.96.65.36,1.23-.64.58-.99h0Z"/>
      <path class="cls-3" d="m816.46,191.46c-2.3-1.61-4.8-2.97-7.27-4.27-6.72-3.55-13.76-6.5-20.93-9-11.03-3.83-22.43-6.56-33.97-8.3-15.1-2.28-30.43-2.88-45.67-1.99-19.14,1.11-38.11,4.54-56.55,9.76-2.56.73-5.11,1.49-7.66,2.28-.7.22-.4,1.33.31,1.11,18.79-5.84,38.15-9.91,57.77-11.56,15.59-1.31,31.32-1.1,46.85.87,11.92,1.51,23.71,4.08,35.14,7.78,7.68,2.49,15.22,5.5,22.42,9.16,2.1,1.07,4.18,2.2,6.21,3.41.84.5,1.75,1.33,2.66,1.68.04.01.08.05.11.08.61.43,1.18-.57.58-.99h0Z"/>
      <path class="cls-3" d="m771.59,335.86c-.3-6.89-2.42-13.93-4.86-20.31-5.94-15.55-16.18-29.18-29.08-39.65-10.5-8.51-22.53-14.88-35.17-19.58-.7-.26-1,.85-.31,1.11,20.32,7.54,39.13,19.76,52.01,37.44,7.39,10.14,12.82,21.85,15.29,34.17.45,2.24.87,4.53.97,6.82.03.74,1.18.74,1.15,0h0Z"/>
      <path class="cls-3" d="m846.64,283.83c-.48-2.31-1.29-4.58-2.13-6.78-2.14-5.6-4.96-10.95-8.31-15.92-4.81-7.13-10.73-13.5-17.49-18.82-8.71-6.85-18.7-11.91-29.23-15.29-14.31-4.59-29.49-6.15-44.47-5.85-2.23.04-4.45.13-6.68.25-.74.04-.74,1.19,0,1.15,15.5-.84,31.21.09,46.23,4.19,10.98,3,21.5,7.73,30.75,14.41,7.12,5.15,13.43,11.45,18.56,18.6,3.61,5.03,6.68,10.49,9.01,16.23.72,1.78,1.38,3.58,1.93,5.42.25.8.34,1.83.7,2.59.02.03.02.08.03.12.15.72,1.26.42,1.11-.31h0Z"/>
      <path class="cls-3" d="m876.92,304.26c-.02-8.41-1.13-16.92-2.59-25.19-2.99-16.9-8.33-33.84-17.83-48.26-5.75-8.72-13.08-16.36-21.99-21.88-.63-.39-1.21.6-.58.99,15.9,9.87,26.18,26.27,32.47,43.55,4.92,13.52,7.75,27.85,8.93,42.17.23,2.86.44,5.75.45,8.62,0,.74,1.15.74,1.15,0h0Z"/>
      <path class="cls-3" d="m764.24,443.24c3.05-9.12,4.39-19.04,5.11-28.58,1.6-21.34-1.39-43.1-9.94-62.79-6.21-14.3-15.3-27.15-26.4-38.07-.53-.52-1.34.29-.81.81,18.53,18.22,30.64,41.66,34.74,67.31,2.72,16.99,2.16,34.61-1.36,51.44-.67,3.21-1.4,6.45-2.44,9.56-.24.7.88,1.01,1.11.31h0Z"/>
      <path class="cls-3" d="m561.34,136.6c-3.25-.06-6.39.68-9.5,1.55-3,.84-6.01,1.69-8.97,2.69-5.48,1.84-10.76,4.23-15.25,7.93-.57.47.25,1.28.81.81,4.47-3.69,9.79-6.01,15.26-7.81,2.6-.86,5.23-1.61,7.86-2.35,3.21-.91,6.43-1.74,9.79-1.68.74.01.74-1.14,0-1.15h0Z"/>
      <path class="cls-3" d="m537.45,147.74c-10.22,5.67-19.07,13.51-25.97,22.93-.44.6.56,1.17.99.58,6.79-9.27,15.52-16.95,25.56-22.52.65-.36.07-1.35-.58-.99h0Z"/>
      <path class="cls-3" d="m522.17,152.28c-1.85,1.3-3.69,2.59-5.54,3.89-.6.42-.03,1.42.58.99,1.85-1.3,3.69-2.59,5.54-3.89.6-.42.03-1.42-.58-.99h0Z"/>
      <path class="cls-3" d="m645.98,130.28c5.01,3.45,5.03,10.51,1.36,14.93-4.1,4.93-10.81,5.95-16.81,4.76-.72-.14-1.03.97-.31,1.11,6.76,1.33,14.36-.02,18.6-5.92,3.58-4.99,2.96-12.27-2.27-15.87-.61-.42-1.19.58-.58.99h0Z"/>
      <path class="cls-3" d="m641.04,138.71c.03,4.63-4.9,6.44-8.8,6.31-4.03-.14-7.88-1.58-11.93-1.47-.74.02-.74,1.17,0,1.15,5-.13,9.85,2.14,14.86,1.3,3.65-.61,7.04-3.34,7.02-7.28,0-.74-1.16-.74-1.15,0h0Z"/>
      <path class="cls-3" d="m612.41,143.53c-7.37,2.38-14.11,6.28-19.86,11.47-.55.5.27,1.31.81.81,5.6-5.06,12.18-8.85,19.35-11.17.7-.23.4-1.34-.31-1.11h0Z"/>
      <path class="cls-3" d="m635.56,114.87c-2.74,3.83-6.15,7.05-10.13,9.57-.62.4-.05,1.39.58.99,4.15-2.63,7.69-5.99,10.54-9.98.43-.6-.57-1.18-.99-.58h0Z"/>
      <path class="cls-3" d="m605.94,274.12c-14.23-11.24-32.5-16.82-50.59-15.36-.73.06-.74,1.21,0,1.15,17.76-1.43,35.78,3.98,49.78,15.03.58.45,1.39-.36.81-.81h0Z"/>
      <path class="cls-3" d="m595.39,280.5c-4.13-2.69-8.58-4.77-13.29-6.24-.71-.22-1.01.89-.31,1.11,4.61,1.44,8.96,3.49,13.01,6.12.62.41,1.2-.59.58-.99h0Z"/>
      <path class="cls-3" d="m619.86,345.12c-8.11-2.5-14.48-8.37-20.63-13.96-5.88-5.34-11.88-11.17-14.17-19.02-.21-.71-1.32-.41-1.11.31,2.35,8.05,8.44,14.04,14.47,19.53,6.3,5.73,12.83,11.69,21.13,14.25.71.22,1.01-.89.31-1.11h0Z"/>
      <path class="cls-3" d="m600.32,325.05c-8.93-7.34-7.52-23.07-19.26-27.71-.69-.27-.99.84-.31,1.11,5.55,2.2,8.31,8,10.37,13.22,2.03,5.14,3.98,10.58,8.38,14.2.57.47,1.39-.34.81-.81h0Z"/>
      <path class="cls-3" d="m711.95,200.62c-12.46-2.49-25.14-3.76-37.85-3.79-.74,0-.74,1.15,0,1.15,12.61.03,25.18,1.29,37.54,3.75.72.14,1.03-.96.31-1.11h0Z"/>
      <path class="cls-3" d="m683.12,200.95c-21.46-1.18-43-.43-64.33,2.24-.73.09-.73,1.24,0,1.15,21.33-2.67,42.87-3.42,64.33-2.24.74.04.74-1.11,0-1.15h0Z"/>
      <path class="cls-3" d="m792.66,192.03c-4.42-.76-8.29,1.56-11.59,4.26-4.13,3.38-7.86,6.64-13.49,6.77-10.22.23-18.26-7.13-27.2-10.89-5.47-2.3-11.06-2.61-16.92-2.6-.74,0-.74,1.15,0,1.15,5.34,0,10.57.18,15.61,2.15,4.57,1.79,8.7,4.49,13.01,6.8,8.03,4.3,17.57,6.9,25.49.98,4.34-3.24,8.75-8.53,14.78-7.5.72.12,1.04-.98.31-1.11h0Z"/>
      <path class="cls-3" d="m768.49,194.39c-4.96-.25-9.46-2.36-13.8-4.61-4.19-2.18-8.34-4.31-12.82-5.83-9.72-3.3-19.58-3.73-29.73-2.99-6.06.45-12.12.95-18.18.24-.73-.09-.73,1.07,0,1.15,10.59,1.25,21.15-1.25,31.75-.51,5.1.36,10.16,1.36,15.03,2.94,4.78,1.55,9.18,3.82,13.62,6.12,4.45,2.3,9.05,4.39,14.13,4.64.74.04.74-1.11,0-1.15h0Z"/>
      <path class="cls-3" d="m710.18,185.3c-1.61.06-3.22.12-4.82.18-.74.03-.74,1.18,0,1.15,1.61-.06,3.22-.12,4.82-.18.74-.03.74-1.18,0-1.15h0Z"/>
      <path class="cls-3" d="m802.56,171.81c-14.37-8.88-29.32-17.93-46.41-20.05-.73-.09-.73,1.06,0,1.15,16.86,2.08,31.66,11.14,45.83,19.89.63.39,1.21-.6.58-.99h0Z"/>
      <path class="cls-3" d="m648.81,159.01c-18.6,1.86-36.75,7.03-53.54,15.24-.67.33-.08,1.32.58.99,16.6-8.12,34.57-13.25,52.96-15.09.73-.07.74-1.22,0-1.15h0Z"/>
      <path class="cls-3" d="m613.48,172.39c-18.9,5.91-35.04,17.7-50.78,29.33-.59.44-.02,1.43.58.99,15.66-11.56,31.71-23.34,50.51-29.21.7-.22.4-1.33-.31-1.11h0Z"/>
      <path class="cls-3" d="m764.61,330.26c-6.46-13.38-15.08-25.63-25.47-36.24-.52-.53-1.33.28-.81.81,10.33,10.55,18.87,22.71,25.29,36,.32.67,1.32.08.99-.58h0Z"/>
      <path class="cls-3" d="m731.07,286.85c-14.5-15.74-37.15-18.75-53.88-31.27-5.27-3.95-10.21-8.99-11.69-15.61-.16-.72-1.27-.42-1.11.31,2.39,10.72,13.05,17.67,22.13,22.46,9.57,5.05,19.86,8.62,29.32,13.91,5.31,2.97,10.28,6.53,14.42,11.02.5.55,1.32-.27.81-.81h0Z"/>
      <path class="cls-3" d="m720.91,478.21c17.12-15.31,21.77-38.99,21.77-60.96,0-7.3-.41-14.59-.82-21.87-.04-.74-1.19-.74-1.15,0,1.3,23.07,2.41,47.42-9.52,68.16-2.97,5.16-6.66,9.88-11.1,13.85-.55.49.26,1.31.81.81h0Z"/>
      <path class="cls-3" d="m740.99,463.12c3.07-6.65,6.1-13.39,7.02-20.73.09-.73-1.06-.73-1.15,0-.9,7.12-3.88,13.69-6.86,20.15-.31.67.68,1.25.99.58h0Z"/>
      <path class="cls-3" d="m750.18,427.05c.69-13.45-.52-26.93-3.57-40.04-.17-.72-1.28-.42-1.11.31,3.03,13.02,4.22,26.39,3.53,39.74-.04.74,1.11.74,1.15,0h0Z"/>
      <path class="cls-3" d="m746.24,380.06c-1.09-5.32-2.48-10.56-4.16-15.72-.23-.7-1.34-.4-1.11.31,1.68,5.16,3.07,10.41,4.16,15.72.15.73,1.26.42,1.11-.31h0Z"/>
      <path class="cls-3" d="m765.19,226.39c-22.48-2.73-45.36,1.42-67.67-3.18-.72-.15-1.03.96-.31,1.11,22.42,4.62,45.39.48,67.98,3.22.73.09.73-1.06,0-1.15h0Z"/>
      <path class="cls-3" d="m716.74,232.52c-6.73.87-13.51.27-19.98-1.78-.71-.22-1.01.89-.31,1.11,6.56,2.08,13.46,2.7,20.29,1.82.72-.09.73-1.25,0-1.15h0Z"/>
      <path class="cls-3" d="m845.44,230.16c-5.45-8.82-14.21-14.65-23.08-19.62-5.07-2.84-10.25-5.49-15.17-8.58-4.56-2.87-9.21-6.12-11.51-11.18-.31-.67-1.3-.09-.99.58,2,4.38,5.74,7.49,9.66,10.12,4.91,3.3,10.16,6.04,15.33,8.88,9.42,5.18,18.99,11.01,24.77,20.38.39.63,1.38.05.99-.58h0Z"/>
      <path class="cls-3" d="m841.57,234.99c-3.24-4.48-6.92-8.6-11.02-12.31-.55-.5-1.36.32-.81.81,4.03,3.64,7.66,7.67,10.84,12.07.43.59,1.43.02.99-.58h0Z"/>
      <path class="cls-3" d="m849.62,251.24c-1.61-4.04-3.8-7.74-6.55-11.1-.47-.57-1.28.25-.81.81,2.62,3.2,4.73,6.75,6.26,10.59.27.68,1.38.38,1.11-.31h0Z"/>
      <path class="cls-3" d="m866.08,353.21c-4.97-6.95-8.54-14.75-10.56-23.05-.17-.72-1.28-.41-1.11.31,2.04,8.39,5.65,16.3,10.68,23.32.43.6,1.43.02.99-.58h0Z"/>
      <path class="cls-3" d="m853.83,324.74c-.81-11.6-1-23.24-.55-34.86.03-.74-1.12-.74-1.15,0-.45,11.62-.26,23.26.55,34.86.05.73,1.2.74,1.15,0h0Z"/>
    </g>
  </g>
  <g>
    <path class="cls-1" d="m869.43,138.25c.71,1.35.19,3.02-1.15,3.73s-3.02.19-3.73-1.15c-.71-1.35-.19-3.02,1.15-3.73,1.35-.71,3.02-.19,3.73,1.15Z"/>
    <path class="cls-1" d="m869.12,124.04c.71,1.35.19,3.02-1.15,3.73-1.35.71-3.02.19-3.73-1.15-.71-1.35-.19-3.02,1.15-3.73,1.35-.71,3.02-.19,3.73,1.15Z"/>
    <path class="cls-1" d="m376.56,400.42c1.12,1.04,1.18,2.78.14,3.9-1.04,1.12-2.78,1.18-3.9.14s-1.18-2.79-.14-3.9c1.04-1.12,2.79-1.18,3.9-.14Z"/>
    <path class="cls-1" d="m490.76,630.72c-1.15-1-1.27-2.74-.27-3.89,1-1.15,2.74-1.27,3.89-.27,1.15,1,1.27,2.74.27,3.89-1,1.15-2.74,1.27-3.89.27Z"/>
    <path class="cls-1" d="m867.12,181.43c-1.41.58-3.02-.08-3.61-1.49-.58-1.41.08-3.02,1.49-3.61,1.41-.58,3.02.08,3.61,1.49.58,1.41-.08,3.02-1.49,3.61Z"/>
    <path class="cls-1" d="m867.87,196.17c-1.41.58-3.02-.08-3.61-1.49-.58-1.41.08-3.02,1.49-3.61,1.41-.58,3.02.08,3.61,1.49.58,1.41-.08,3.02-1.49,3.61Z"/>
    <path class="cls-1" d="m760.19,230.83c-1.22-.85-1.51-2.53-.66-3.75.85-1.22,2.53-1.51,3.75-.66,1.22.85,1.51,2.53.66,3.75-.85,1.22-2.53,1.51-3.75.66Z"/>
    <path class="cls-1" d="m749.37,238.51c-1.22-.85-1.51-2.53-.66-3.75.85-1.22,2.53-1.51,3.75-.66,1.22.85,1.51,2.53.66,3.75-.85,1.22-2.53,1.51-3.75.66Z"/>
    <path class="cls-1" d="m738.37,246.31c-1.22-.85-1.51-2.53-.66-3.75.85-1.22,2.53-1.51,3.75-.66,1.22.85,1.51,2.53.66,3.75-.85,1.22-2.53,1.51-3.75.66Z"/>
    <path class="cls-1" d="m303.45,350.13c.12,1.52-1.02,2.85-2.54,2.96-1.52.12-2.85-1.02-2.96-2.54s1.02-2.85,2.54-2.96,2.85,1.02,2.96,2.54Z"/>
    <path class="cls-1" d="m317.69,354.01c.12,1.52-1.02,2.85-2.54,2.96-1.52.12-2.85-1.02-2.96-2.54s1.02-2.85,2.54-2.96c1.52-.12,2.85,1.02,2.96,2.54Z"/>
    <path class="cls-1" d="m483.97,669.6c-.99,1.16-2.73,1.29-3.89.3-1.16-.99-1.29-2.73-.3-3.89.99-1.16,2.73-1.29,3.89-.3s1.29,2.73.3,3.89Z"/>
    <path class="cls-1" d="m447.67,606.35c-.99,1.16-2.73,1.29-3.89.3-1.16-.99-1.29-2.73-.3-3.89s2.73-1.29,3.89-.3c1.16.99,1.29,2.73.3,3.89Z"/>
    <path class="cls-1" d="m772.98,213.3l10.82-7.6-3.22,10.04,10.79,11.54-15.7-5.04-8.53,8.12,3.89-12.12s-7.13-6.74-7.13-6.74c0,0,9.08,1.8,9.08,1.8Z"/>
    <path class="cls-1" d="m450.24,618.04c-1.25.8-2.92.44-3.72-.81-.8-1.25-.44-2.92.81-3.72,1.25-.8,2.92-.44,3.72.81.8,1.25.44,2.92-.81,3.72Z"/>
    <path class="cls-1" d="m453.24,630.96c-1.25.8-2.92.44-3.72-.81-.8-1.25-.44-2.92.81-3.72,1.25-.8,2.92-.44,3.72.81.8,1.25.44,2.92-.81,3.72Z"/>
    <path class="cls-1" d="m456.3,644.09c-1.25.8-2.92.44-3.72-.81-.8-1.25-.44-2.92.81-3.72,1.25-.8,2.92-.44,3.72.81.8,1.25.44,2.92-.81,3.72Z"/>
    <path class="cls-1" d="m459.22,656.66c-1.25.8-2.92.44-3.72-.81s-.44-2.92.81-3.72c1.25-.8,2.92-.44,3.72.81.8,1.25.44,2.92-.81,3.72Z"/>
    <path class="cls-1" d="m462.12,669.14c-1.25.8-2.92.44-3.72-.81-.8-1.25-.44-2.92.81-3.72,1.25-.8,2.92-.44,3.72.81.8,1.25.44,2.92-.81,3.72Z"/>
    <path class="cls-1" d="m814.62,153.6c1.16.93,1.34,2.63.41,3.78-.93,1.16-2.63,1.34-3.78.41-1.16-.93-1.34-2.63-.41-3.78.93-1.16,2.63-1.34,3.78-.41Z"/>
    <polygon class="cls-1" points="871.77 102.82 871.47 116.38 865.13 107.61 849.05 109.51 862.75 99.61 861.22 87.63 868.87 98.2 878.77 96.41 871.77 102.82"/>
    <polygon class="cls-1" points="873.1 213.69 884.72 210.56 876.28 220.08 879.35 227.22 872.32 221 860.9 227.46 867.48 220.03 858.97 211.38 865.68 212.7 869.96 205.3 873.1 213.69"/>
    <path class="cls-1" d="m842.61,154.71c.19-1.51,1.57-2.58,3.08-2.39,1.51.19,2.58,1.57,2.39,3.08-.19,1.51-1.57,2.58-3.08,2.39-1.51-.19-2.58-1.57-2.39-3.08Z"/>
    <polygon class="cls-1" points="584.04 413.53 573.04 408.64 585.6 406.56 587.71 399.08 589.25 408.34 602.19 410.51 592.39 412.14 593.56 424.22 589.18 418.96 581.19 422.01 584.04 413.53"/>
    <path class="cls-1" d="m788.19,197.91c1.48-.12,2.78.98,2.9,2.46.12,1.48-.98,2.78-2.46,2.9-1.48.12-2.78-.98-2.9-2.46-.12-1.48.98-2.78,2.46-2.9Z"/>
    <path class="cls-1" d="m791.67,184.88c1.48-.12,2.78.98,2.9,2.46.12,1.48-.98,2.78-2.46,2.9-1.48.12-2.78-.98-2.9-2.46-.12-1.48.98-2.78,2.46-2.9Z"/>
    <polygon class="cls-1" points="791.94 168.99 782.14 162 794.85 162.47 798.42 155.57 798.07 164.95 810.32 169.67 800.4 169.3 799.12 181.37 795.88 175.34 787.45 176.74 791.94 168.99"/>
    <polygon class="cls-1" points="468.77 687.93 457.44 691.99 465.09 681.82 461.46 674.94 468.96 680.59 479.83 673.23 473.86 681.17 483.04 689.11 476.24 688.33 472.56 696.04 468.77 687.93"/>
    <polygon class="cls-1" points="371.17 480.49 362 473.4 374.22 474.32 377.91 467.8 377.23 476.82 388.85 481.82 379.31 481.1 377.64 492.67 374.73 486.75 366.57 487.78 371.17 480.49"/>
    <polygon class="cls-1" points="336.27 355.99 342.15 361.37 335.49 361.08 335.56 368.51 333.12 363.67 320.88 361.27 328.76 357.22 327.04 348.41 331.36 352.94 338.46 350.84 336.27 355.99"/>
    <path class="cls-1" d="m374.02,456.65c1.42-.56,3.02.14,3.58,1.56.56,1.42-.14,3.02-1.56,3.58-1.42.56-3.02-.14-3.58-1.56-.56-1.42.14-3.02,1.56-3.58Z"/>
    <path class="cls-1" d="m373.58,443.05c1.42-.56,3.02.14,3.58,1.56.56,1.42-.14,3.02-1.56,3.58-1.42.56-3.02-.14-3.58-1.56-.56-1.42.14-3.02,1.56-3.58Z"/>
    <path class="cls-1" d="m373.11,428.3c1.42-.56,3.02.14,3.58,1.56.56,1.42-.14,3.02-1.56,3.58-1.42.56-3.02-.14-3.58-1.56-.56-1.42.14-3.02,1.56-3.58Z"/>
    <path class="cls-1" d="m372.64,413.41c1.42-.56,3.02.14,3.58,1.56.56,1.42-.14,3.02-1.56,3.58-1.42.56-3.02-.14-3.58-1.56s.14-3.02,1.56-3.58Z"/>
    <path class="cls-1" d="m633.09,362.15c-1.4-.51-2.12-2.05-1.61-3.45.51-1.4,2.05-2.12,3.45-1.61,1.4.51,2.12,2.05,1.61,3.45-.51,1.4-2.05,2.12-3.45,1.61Z"/>
    <path class="cls-1" d="m624.63,372.37c-1.4-.51-2.12-2.05-1.61-3.45.51-1.4,2.05-2.12,3.45-1.61,1.4.51,2.12,2.05,1.61,3.45-.51,1.4-2.05,2.12-3.45,1.61Z"/>
    <path class="cls-1" d="m616.04,382.75c-1.4-.51-2.12-2.05-1.61-3.45.51-1.4,2.05-2.12,3.45-1.61,1.4.51,2.12,2.05,1.61,3.45-.51,1.4-2.05,2.12-3.45,1.61Z"/>
    <path class="cls-1" d="m607.81,392.69c-1.4-.51-2.12-2.05-1.61-3.45.51-1.4,2.05-2.12,3.45-1.61s2.12,2.05,1.61,3.45c-.51,1.4-2.05,2.12-3.45,1.61Z"/>
    <path class="cls-1" d="m599.63,402.56c-1.4-.51-2.12-2.05-1.61-3.45.51-1.4,2.05-2.12,3.45-1.61,1.4.51,2.12,2.05,1.61,3.45-.51,1.4-2.05,2.12-3.45,1.61Z"/>
    <path class="cls-1" d="m657.6,332.34c-1.4-.51-2.12-2.05-1.61-3.45.51-1.4,2.05-2.12,3.45-1.61,1.4.51,2.12,2.05,1.61,3.45-.51,1.4-2.05,2.12-3.45,1.61Z"/>
    <path class="cls-1" d="m649,342.74c-1.4-.51-2.12-2.05-1.61-3.45.51-1.4,2.05-2.12,3.45-1.61,1.4.51,2.12,2.05,1.61,3.45-.51,1.4-2.05,2.12-3.45,1.61Z"/>
    <path class="cls-1" d="m641,352.39c-1.4-.51-2.12-2.05-1.61-3.45.51-1.4,2.05-2.12,3.45-1.61,1.4.51,2.12,2.05,1.61,3.45-.51,1.4-2.05,2.12-3.45,1.61Z"/>
    <path class="cls-1" d="m702.08,279.68c-1.4-.51-2.12-2.05-1.61-3.45.51-1.4,2.05-2.11,3.45-1.61,1.4.51,2.11,2.05,1.61,3.45-.51,1.4-2.05,2.12-3.45,1.61Z"/>
    <path class="cls-1" d="m693.61,289.89c-1.4-.51-2.12-2.05-1.61-3.45.51-1.4,2.05-2.12,3.45-1.61,1.4.51,2.12,2.05,1.61,3.45-.51,1.4-2.05,2.12-3.45,1.61Z"/>
    <path class="cls-1" d="m685.01,300.28c-1.4-.51-2.11-2.05-1.61-3.45.51-1.4,2.05-2.12,3.45-1.61,1.4.51,2.12,2.05,1.61,3.45-.51,1.4-2.05,2.11-3.45,1.61Z"/>
    <path class="cls-1" d="m676.77,310.21c-1.4-.51-2.12-2.05-1.61-3.45s2.05-2.12,3.45-1.61c1.4.51,2.12,2.05,1.61,3.45-.51,1.4-2.05,2.11-3.45,1.61Z"/>
    <path class="cls-1" d="m668.59,320.08c-1.4-.51-2.12-2.05-1.61-3.45.51-1.4,2.05-2.12,3.45-1.61,1.4.51,2.11,2.05,1.61,3.45-.51,1.4-2.05,2.12-3.45,1.61Z"/>
    <path class="cls-1" d="m710.56,258.15c-1.07-1.63-6.81-13.39-6.81-13.39l9.93,7.48,6.66-9.39-1.08,9.63,10.66-3.86-5.66,7.96,12.76,2.91-11.28,2.33,5.51,8.43-9.23-5.22-4.61,11.93-.07-11.98-12.6,8.62,6.03-9.76-10.15-3.07,9.93-2.61Z"/>
    <polygon class="cls-1" points="271.47 286.37 275.27 297.24 266.58 292.16 262.16 299.73 261.21 289.77 250.58 285.44 260.12 281.99 261.37 269.56 266.5 280.08 278.19 279.39 271.47 286.37"/>
    <path class="cls-1" d="m271.13,310.58c-1.21.86-2.89.57-3.75-.64-.86-1.21-.57-2.89.64-3.75,1.21-.86,2.89-.57,3.75.64.86,1.21.57,2.89-.64,3.75Z"/>
    <path class="cls-1" d="m274.78,323.56c-1.21.86-2.89.57-3.75-.64-.86-1.21-.57-2.89.64-3.75,1.21-.86,2.89-.57,3.75.64.86,1.21.57,2.89-.64,3.75Z"/>
    <path class="cls-1" d="m442.54,588.23l-7.93,10.58-.06-10.54-13.84-7.62,16.49-.09,5.58-10.37.07,12.72s8.87,4.2,8.87,4.2-9.19,1.11-9.19,1.11Z"/>
    <path class="cls-1" d="m534.2,484.07c-1.52.12-2.85-1.02-2.97-2.54-.12-1.52,1.02-2.85,2.54-2.97,1.52-.12,2.85,1.02,2.97,2.54.12,1.52-1.02,2.85-2.54,2.97Z"/>
    <path class="cls-1" d="m530.58,497.42c-1.52.12-2.85-1.02-2.97-2.54-.12-1.52,1.02-2.85,2.54-2.97,1.52-.12,2.85,1.02,2.97,2.54.12,1.52-1.02,2.85-2.54,2.97Z"/>
    <path class="cls-1" d="m527.12,510.19c-1.52.12-2.85-1.02-2.97-2.54-.12-1.52,1.02-2.85,2.54-2.97,1.52-.12,2.85,1.02,2.97,2.54.12,1.52-1.02,2.85-2.54,2.97Z"/>
    <path class="cls-1" d="m523.69,522.88c-1.52.12-2.85-1.02-2.97-2.54-.12-1.52,1.02-2.85,2.54-2.97,1.52-.12,2.85,1.02,2.97,2.54.12,1.52-1.02,2.85-2.54,2.97Z"/>
    <path class="cls-1" d="m520.13,536.01c-1.52.12-2.85-1.02-2.97-2.54-.12-1.52,1.02-2.85,2.54-2.97,1.52-.12,2.85,1.02,2.97,2.54.12,1.52-1.02,2.85-2.54,2.97Z"/>
    <path class="cls-1" d="m516.27,550.26c-1.52.12-2.85-1.02-2.97-2.54-.12-1.52,1.02-2.85,2.54-2.97,1.52-.12,2.85,1.02,2.97,2.54.12,1.52-1.02,2.85-2.54,2.97Z"/>
    <path class="cls-1" d="m511.65,563.2c-1.52.12-2.85-1.02-2.97-2.54-.12-1.52,1.02-2.85,2.54-2.97,1.52-.12,2.85,1.02,2.97,2.54.12,1.52-1.02,2.85-2.54,2.97Z"/>
    <path class="cls-1" d="m508.09,576.34c-1.52.12-2.85-1.02-2.97-2.54-.12-1.52,1.02-2.85,2.54-2.97,1.52-.12,2.85,1.02,2.97,2.54.12,1.52-1.02,2.85-2.54,2.97Z"/>
    <path class="cls-1" d="m504.23,590.58c-1.52.12-2.85-1.02-2.97-2.54-.12-1.52,1.02-2.85,2.54-2.97,1.52-.12,2.85,1.02,2.97,2.54.12,1.52-1.02,2.85-2.54,2.97Z"/>
    <path class="cls-1" d="m416.41,553.55c.91-1.17,2.6-1.38,3.78-.47,1.17.91,1.38,2.6.47,3.78s-2.6,1.38-3.78.47c-1.17-.91-1.38-2.6-.47-3.78Z"/>
    <path class="cls-1" d="m409.28,542.36c.91-1.17,2.6-1.38,3.78-.47,1.17.91,1.38,2.6.47,3.78-.91,1.17-2.6,1.38-3.78.47-1.17-.91-1.38-2.6-.47-3.78Z"/>
    <path class="cls-1" d="m402.04,530.99c.91-1.17,2.6-1.38,3.78-.47,1.17.91,1.38,2.6.47,3.78-.91,1.17-2.6,1.38-3.78.47-1.17-.91-1.38-2.6-.47-3.78Z"/>
    <path class="cls-1" d="m395.11,520.11c.91-1.17,2.6-1.38,3.78-.47,1.17.91,1.38,2.6.47,3.78-.91,1.17-2.6,1.38-3.78.47-1.17-.91-1.38-2.6-.47-3.78Z"/>
    <path class="cls-1" d="m388.23,509.29c.91-1.17,2.6-1.38,3.78-.47,1.17.91,1.38,2.6.47,3.78-.91,1.17-2.6,1.38-3.78.47-1.17-.91-1.38-2.6-.47-3.78Z"/>
    <path class="cls-1" d="m381.1,498.1c.91-1.17,2.6-1.38,3.78-.47,1.17.91,1.38,2.6.47,3.78-.91,1.17-2.6,1.38-3.78.47-1.17-.91-1.38-2.6-.47-3.78Z"/>
    <g>
      <path class="cls-1" d="m559.66,432.93c1.22-.92,2.95-.68,3.87.54.92,1.22.68,2.95-.54,3.87-1.22.92-2.95.68-3.87-.54s-.68-2.95.54-3.87Z"/>
      <path class="cls-1" d="m572.83,422.97c1.39.52,2.09,2.08,1.57,3.47-.52,1.39-2.08,2.09-3.47,1.57-1.39-.52-2.09-2.08-1.57-3.47.52-1.39,2.08-2.09,3.47-1.57Z"/>
    </g>
    <path class="cls-1" d="m423.26,564.08c.91-1.17,2.6-1.38,3.78-.47,1.17.91,1.38,2.6.47,3.78-.91,1.17-2.6,1.38-3.78.47-1.17-.91-1.38-2.6-.47-3.78Z"/>
    <path class="cls-1" d="m831.01,250.23c-.61,1.4-2.23,2.04-3.63,1.43-1.4-.61-2.04-2.23-1.43-3.63s2.23-2.04,3.63-1.43,2.04,2.23,1.43,3.63Z"/>
    <path class="cls-1" d="m841.91,241.11c-.61,1.4-2.23,2.04-3.63,1.43s-2.04-2.23-1.43-3.63,2.23-2.04,3.63-1.43,2.04,2.23,1.43,3.63Z"/>
    <path class="cls-1" d="m853.83,230.78c-.61,1.4-2.23,2.04-3.63,1.43s-2.04-2.23-1.43-3.63c.61-1.4,2.23-2.04,3.63-1.43s2.04,2.23,1.43,3.63Z"/>
    <polygon class="cls-1" points="826.59 148.06 818.26 146.11 824.49 143.34 825.4 133.16 829.74 142.91 837.34 143.52 829.82 146.87 829.64 153.22 826.59 148.06"/>
    <path class="cls-1" d="m353.26,366.51c-.55,1.38-2.11,2.06-3.49,1.51-1.38-.55-2.06-2.11-1.51-3.49.55-1.38,2.11-2.06,3.49-1.51,1.38.55,2.06,2.11,1.51,3.49Z"/>
    <path class="cls-1" d="m364.18,376.09c-.55,1.38-2.11,2.06-3.49,1.51-1.38-.55-2.06-2.11-1.51-3.49.55-1.38,2.11-2.06,3.49-1.51,1.38.55,2.06,2.11,1.51,3.49Z"/>
    <polygon class="cls-1" points="373.01 385.89 372.41 377.36 376.9 382.49 386.9 380.35 378.87 387.38 380.53 394.82 375.1 388.62 368.99 390.33 373.01 385.89"/>
    <polygon class="cls-1" points="859.39 156.88 867.78 148.25 865.39 160.74 871.68 165.31 862.46 163.55 855.94 174.94 857.8 165.19 846.07 162.11 852.51 159.81 852.41 151.27 859.39 156.88"/>
    <polygon class="cls-1" points="548.75 461.08 552.12 474.96 542.97 464.82 532.62 470.35 539.38 460.35 528.1 451.73 537.69 453.41 538 442.98 544.26 449.48 552.18 442.2 548.65 452.42 558.4 454.06 548.75 461.08"/>
    <polygon class="cls-1" points="277.07 345.53 268.98 354.44 270.94 341.87 264.5 337.51 273.78 338.96 279.91 327.36 278.37 337.17 290.21 339.85 283.84 342.37 284.23 350.9 277.07 345.53"/>
    <polygon class="cls-1" points="493.01 654.48 491.65 666.44 485.9 655.09 478.13 655.32 486.5 651.07 484.7 638.07 489.19 646.93 500.36 642.19 496.66 647.95 501.96 654.65 493.01 654.48"/>
    <path class="cls-1" d="m815.98,264.29c1.89.48,14.09,5.22,14.09,5.22l-12.37,1.24,1.48,11.42-5.74-7.81-5.21,10.07-1.24-9.69-11.35,6.52,6.71-9.36-9.76-2.46,10.32-2.42-4.71-11.9,8.18,8.75,3.41-14.88,2.19,11.26,9.54-4.63-5.53,8.65Z"/>
    <polygon class="cls-1" points="500.43 611.85 497.26 622.89 491.74 612.14 483.66 616.29 488.66 607.48 484.63 599.64 494.12 604.68 502.03 600.62 501.59 605.8 507.53 611.31 500.43 611.85"/>
  </g>
</svg>