<?xml version="1.0" encoding="UTF-8"?>
<svg id="object" xmlns="http://www.w3.org/2000/svg" viewBox="0 0 1200 800">
  <defs>
    <style>
      .cls-1 {
        fill: #fff;
      }

      .cls-2 {
        fill: #a1d9d4;
        opacity: .42;
      }
    </style>
  </defs>
  <g>
    <path class="cls-2" d="m377.18,507.68c5.59,1.5,11.19,3,16.78,4.51.93.25,1.33-1.19.4-1.44-5.59-1.5-11.19-3-16.78-4.51-.93-.25-1.33,1.19-.4,1.44h0Z"/>
    <path class="cls-2" d="m348.74,602.17c2.08-6.74,5.17-13.05,9.19-18.85.55-.79-.75-1.54-1.29-.75-4.09,5.9-7.22,12.35-9.34,19.2-.29.92,1.16,1.32,1.44.4h0Z"/>
    <path class="cls-2" d="m349.27,589.17c1.94-4.62,3.99-9.26,7.7-12.75.7-.66-.36-1.71-1.06-1.06-3.91,3.66-6.05,8.55-8.09,13.41-.37.89,1.07,1.27,1.44.4h0Z"/>
    <path class="cls-2" d="m418.08,669.13c1.13,1.02,2.26,2.07,3.26,3.23,1.09,1.27,4.2,6.44.26,6.24-.96-.05-.96,1.45,0,1.5,2.45.13,3.75-2.19,3.3-4.42-.62-3.11-3.52-5.59-5.76-7.6-.71-.64-1.78.41-1.06,1.06h0Z"/>
    <path class="cls-2" d="m451.1,708.35c5.41,4.11,9.9,9.23,13.32,15.1.48.83,1.78.08,1.29-.75-3.55-6.1-8.23-11.37-13.85-15.64-.77-.58-1.51.72-.75,1.29h0Z"/>
    <path class="cls-2" d="m810.91,457.87h-14.4c.24.32.48.63.72.95,3.11-10.56,3.32-22.34,2.54-33.28-.03-.4-.32-.75-.75-.75h-27.24l.38,1.39c3.59-2.43,4.49-7.83,5.09-11.79.49-3.24.77-6.55.78-9.83,0-.43-.34-.72-.75-.75-8.2-.59-16.41-1.19-24.61-1.78.13.46.25.93.38,1.39,1.91-.95,2.23-5.34,2.58-7.1.47-2.41.86-4.84,1.19-7.27.05-.39-.39-.76-.75-.75-4.56.17-9.18-.24-13.72-.59-8.58-.66-17.34-1.23-23.35-8.15-1.26-1.45-2.42-3.14-3.13-4.94-.43-1.08-.59-2.23-1.07-3.31-1.6-3.56-4.86-6.11-8.18-7.98-9.9-5.58-22.08-7.27-33.23-8.17-12.39-1-25.14-.76-37.37,1.58-4.42.85-8.94,1.97-12.96,4.05-1.44.75-2.74,1.65-3.92,2.77-3.68,3.51-7.64,6.49-12.58,7.96-9.93,2.97-18.9-1.26-26.04-8.03-2.71-2.57-6.31-3.98-9.83-5.06-11.08-3.39-23.19-3.97-34.71-3.75-12.19.24-24.93,1.48-36.44,5.73-4.19,1.55-8.45,3.56-11.66,6.75-1.27,1.26-2.35,2.72-3.05,4.37-.44,1.04-.59,2.15-1.02,3.19-2.09,5.12-6.89,9.05-12.01,10.87-4.78,1.7-10.06,1.79-15.07,2.17-3.33.25-6.66.45-10,.53-1.03.02-2.06.05-3.09.01-.37-.01-.8.36-.75.75.33,2.43.72,4.86,1.19,7.27.35,1.76.67,6.15,2.58,7.1.13-.46.25-.93.38-1.39-8.2.59-16.41,1.19-24.61,1.78-.4.03-.75.32-.75.75,0,3.28.29,6.58.78,9.83.6,3.96,1.5,9.36,5.09,11.79l.38-1.39h-27.24c-.43,0-.72.34-.75.75-.79,10.93-.58,22.71,2.53,33.28.24-.32.48-.63.72-.95h-14.4c-.41,0-.74.34-.75.75-.1,4.86.84,9.88,2.1,14.55,2.74,10.16,8.08,19.47,15.88,26.59.18-.43.35-.85.53-1.28-4.27.41-8.55.81-12.82,1.22-.49.05-.84.44-.72.95.99,4.14,3.31,8.15,5.63,11.66,6.14,9.29,14.8,16.74,24.33,22.4,6.97,4.15,14.55,7.08,21.55,11.17,6.14,3.58,11.97,7.69,17.38,12.31,6.56,5.6,12.67,11.95,17.57,19.07,1.22,1.77,2.22,3.64,3.36,5.46,3.24,5.13,7.08,9.92,11.27,14.31,14.88,15.57,34.78,25.54,56.36,27.17,7.21.54,14.58.39,21.82.57,7.96.2,15.91.41,23.87.61.54.01,1.07.03,1.61.04-.25-.25-.5-.5-.75-.75v.11c0,.4.34.76.75.75,1.41-.04,2.81-.04,4.23,0,.4.01.75-.35.75-.75v-.11c-.25.25-.5.5-.75.75,12.84-.33,25.69-.86,38.53-.99,12.23-.12,24-1.82,35.34-6.61,9.26-3.91,17.76-9.5,25.17-16.28,7.13-6.52,12.92-13.99,17.9-22.22,3.47-5.75,8.13-10.91,12.89-15.6,9.9-9.76,21.56-17.62,34.17-23.44,11.94-5.51,23.16-12.78,31.52-23.08,3.76-4.64,7.16-9.93,8.97-15.67.09-.29.18-.58.25-.88.12-.51-.23-.9-.72-.95-4.27-.41-8.55-.81-12.82-1.22.18.43.35.85.53,1.28,7.8-7.12,13.14-16.43,15.88-26.59,1.26-4.66,2.2-9.69,2.1-14.55-.02-.96-1.52-.96-1.5,0,.1,4.58-.77,9.29-1.93,13.7-2.64,10.1-7.88,19.32-15.62,26.38-.52.48-.07,1.22.53,1.28,4.27.41,8.55.81,12.82,1.22-.24-.32-.48-.63-.72-.95-.99,4.14-3.34,8.11-5.68,11.6-6.49,9.7-15.81,17.28-25.94,22.92-6.98,3.89-14.39,6.85-21.23,11.02-5.66,3.45-11.04,7.36-16.06,11.69-6.4,5.52-12.32,11.74-17.16,18.68-1.22,1.75-2.22,3.58-3.34,5.38-3.13,5.04-6.85,9.72-10.92,14.02-15.02,15.89-35.26,25.94-57.19,27.22-6.87.4-13.83.3-20.7.48-7.85.2-15.7.4-23.56.6-.51.01-1.02.03-1.52.04-.4.01-.75.33-.75.75v.11c.25-.25.5-.5.75-.75-1.41-.04-2.81-.04-4.23,0l.75.75v-.11c0-.41-.34-.74-.75-.75-12.81-.33-25.62-.83-38.43-.98-12.17-.14-23.88-1.79-35.15-6.61-9.21-3.93-17.66-9.57-24.99-16.38-6.89-6.4-12.29-13.65-17.21-21.58-3.49-5.62-7.98-10.72-12.66-15.37-9.43-9.38-20.51-17.1-32.47-22.9-6.93-3.36-13.73-6.64-19.99-11.19-4.68-3.41-9-7.34-12.74-11.76-3.96-4.68-7.59-10.15-9.43-16.06-.09-.27-.17-.55-.24-.83-.24.32-.48.63-.72.95,4.27-.41,8.55-.81,12.82-1.22.6-.06,1.05-.8.53-1.28-7.74-7.06-12.97-16.28-15.62-26.38-1.15-4.41-2.02-9.11-1.92-13.7-.25.25-.5.5-.75.75h14.4c.48,0,.86-.48.72-.95-3.07-10.44-3.26-22.07-2.48-32.88-.25.25-.5.5-.75.75h27.24c.78,0,.97-.99.38-1.39-3.42-2.32-4.07-8.26-4.56-12.01-.36-2.75-.57-5.55-.57-8.32-.25.25-.5.5-.75.75,8.21-.59,16.41-1.19,24.61-1.78.68-.05,1.09-1.04.38-1.39-.65-.32-.91-2-1.08-2.62-.4-1.46-.7-2.94-.97-4.43-.26-1.39-.49-2.78-.7-4.17-.07-.48-.27-1.83-.27-1.87-.25.25-.5.5-.75.75,4.56.17,9.18-.24,13.72-.59,8.18-.63,16.48-1.09,22.81-6.94,2.42-2.24,4.59-5.16,5.46-8.38,1.05-3.88,3.81-6.57,7.16-8.64,9.75-6.02,22.35-7.69,33.54-8.59,12.48-1,25.38-.8,37.69,1.67,4.35.87,8.87,1.99,12.74,4.23,2.23,1.29,3.82,3.25,5.8,4.87,3.32,2.71,7.16,4.82,11.33,5.86,8.42,2.09,16.94-.61,23.5-6.07,1.96-1.63,3.52-3.51,5.75-4.77,1.79-1.01,3.72-1.75,5.68-2.37,11.11-3.55,23.33-4.11,34.91-3.88,12.29.24,25.15,1.49,36.71,5.93,4.14,1.59,8.51,3.75,11.37,7.25,1.86,2.28,2.14,5.08,3.53,7.59,2.82,5.09,7.7,8.74,13.23,10.44,4.61,1.41,9.63,1.51,14.41,1.87,3.33.25,6.66.45,10,.53,1.03.02,2.06.05,3.09.01l-.75-.75c-.19,1.39-.63,4.2-.98,6.04-.28,1.48-.58,2.97-.97,4.43-.17.62-.43,2.3-1.08,2.62-.71.36-.3,1.34.38,1.39,8.2.59,16.41,1.19,24.61,1.78-.25-.25-.5-.5-.75-.75,0,2.77-.21,5.57-.57,8.32-.48,3.75-1.13,9.68-4.56,12.01-.59.4-.4,1.39.38,1.39h27.24c-.25-.25-.5-.5-.75-.75.78,10.8.59,22.44-2.48,32.88-.14.47.24.95.72.95h14.4c.96,0,.96-1.5,0-1.5Z"/>
    <path class="cls-2" d="m757.89,313.26c.33-9.38-.31-19.93-4.12-28.6-1.42-3.23-3.74-5.68-5.79-8.51-2.58-3.56-4.88-7.34-6.81-11.29-1.1-2.24-1.94-4.47-2.59-6.86-.54-1.99-1.68-3.89-2.66-5.69-1.39-2.56-2.88-5.08-4.42-7.55-.76-1.22-1.49-2.49-2.48-3.52.16.17-.47-.46-.63-.63-.57-.61-1.07-1.27-1.55-1.95-5.01-7.12-7.47-16.05-9.21-24.46-1.74-8.41-2.62-16.98-3.04-25.55-.13-2.62-.2-5.22-.04-7.85.66-10.71,3.94-22.06,11.86-29.69,1.19-1.15,2.48-2.2,3.85-3.13.67-.46,1.37-.89,2.07-1.29.32-.18,1.97-.95,1.62-1.1,1.68.75-.93,6.88-1.38,8-1.16,2.88-3.09,6.06-2.01,9.26,1.33,3.92,4.54,6.68,1.66,10.89-1.68,2.46-3.38,5.49-.78,8.05,2.7,2.64,6.74.73,9.43,3.37,3.44,3.39,2.03,8.49,2.58,12.82.62,4.86,2.35,9.77,5.85,13.32,3.19,3.25,7.74,4.21,11.19,7.14,2.54,2.15,4.65,5.02,4.97,8.43.34,3.65-.2,7.72-1.16,11.26-.9,3.34-1.91,6.54-2.2,10.07-.16,1.98-.29,4.56,1.19,6.11.67.7,1.72-.36,1.06-1.06-1.72-1.79-.71-6.05-.33-8.18.2-1.13.45-2.26.72-3.38.12-.49.22-.84.23-.88.7-2.08,1.25-4.11,1.55-6.29.5-3.58,1-7.59-.39-11.04-1.66-4.12-5.58-7.59-9.61-9.38-2.72-1.22-5.08-2.46-7.04-4.79-1.86-2.21-3.07-4.9-3.82-7.68-.54-2-.86-4.06-.95-6.13-.07-1.57.21-3.13.08-4.69-.26-3.11-1.71-6.39-4.54-7.95-2.71-1.5-9.41.07-8.65-4.93.32-2.12,2.32-3.55,3.01-5.55.54-1.55.44-3.14-.08-4.68-.59-1.74-1.68-3.21-2.39-4.89-.75-1.75-.33-3.41.32-5.12,1.31-3.45,3.65-7.21,3.36-11.03-.07-.9-.48-2.46-1.64-2.51-1.16-.05-3.17,1.56-4.09,2.15-1.31.85-2.57,1.8-3.74,2.83-2.29,2.02-4.28,4.39-5.93,6.95-3.08,4.75-5.03,10.19-6.18,15.72-1.84,8.86-1.32,17.67-.45,26.62,1.18,12.11,3.29,24.7,8.68,35.74,1.16,2.37,2.5,4.7,4.18,6.75.96,1.17,1.61,1.65,2.36,2.77,2.88,4.33,5.98,9.04,7.84,13.91.68,1.79,1.05,3.65,1.82,5.44,1.57,3.65,3.52,7.13,5.67,10.46,2.23,3.44,5.24,6.47,7.21,10.05,1.55,2.82,2.46,5.98,3.14,9.11,1.24,5.73,1.68,11.65,1.73,17.51,0,1.04.01,2.08-.03,3.12-.03.96,1.46.96,1.49,0h0Z"/>
    <path class="cls-2" d="m765.64,223.93c1.11-.83,1.75-2.32,2.26-3.55,1.99-4.75,2.62-10.09,3.03-15.17.4-4.92.48-9.87.39-14.81-.05-2.75-.67-5.04-1.65-7.63-.74-1.93-1.61-3.83-2.69-5.59-1.19-1.96-2.95-3.57-3.68-5.78-1.09-3.31-.53-7.11.53-10.36.3-.93.77-2.01.94-3.43.39-3.36-.73-6.73-2.65-9.47-1.76-2.53-4.22-4.4-5.96-6.95-1.51-2.21-2.8-4.58-4.02-6.97-5.85-11.44-10.33-23.64-14.57-35.75-.44-1.25-.71-2.91-1.39-4.04-.57-.95.16.83-.47.41.02.02.47-.29.54-.3,1.41-.34,2.69-.77,4.17-.89,3.4-.28,6.86.05,10.23.55,4.79.71,9.76,1.63,14.26,3.43,3.88,1.55,7.49,3.78,10.8,6.32,5.87,4.5,10.95,10.05,15.39,15.94,9.38,12.48,16.46,26.62,21.64,41.32,6.33,17.95,10,36.8,11.34,55.77.33,4.71.23,9.31.06,14.03-.22,6.33-.46,12.7-1.24,18.99-.21,1.67-.29,3.77-1.13,5.26-.47.84.82,1.59,1.29.75,1.06-1.88,1.16-4.43,1.4-6.52.43-3.73.67-7.48.86-11.23.28-5.38.62-10.82.56-16.21-.07-6.14-.85-12.38-1.65-18.46-.76-5.82-1.73-11.61-2.95-17.36-2.08-9.83-4.85-19.52-8.38-28.93-3.83-10.22-8.45-20.42-14.59-29.49-5.6-8.26-11.28-16.25-18.94-22.81-3.59-3.08-7.5-5.83-11.79-7.84-5.01-2.35-10.53-3.48-15.97-4.33-3.81-.6-7.75-1.03-11.61-.65-1.52.15-3.3.34-4.66,1.13-.2.12-.38.22-.56.36-.19.16-.27.5-.19.73,2.24,6.7,4.68,13.34,7.25,19.93,2.08,5.34,4.26,10.64,6.67,15.83,2.01,4.33,4.12,8.74,6.94,12.61,1.41,1.93,3.26,3.39,4.73,5.25,2.07,2.62,3.47,5.9,3.12,9.29-.11,1.06-.44,1.96-.74,2.81-.76,2.11-1.21,4.39-1.31,6.63-.13,2.96.48,5.9,2.33,8.27,2.35,3,4.05,6.26,5.24,9.88.88,2.67.99,4.82,1.01,7.67.03,4.05-.07,8.1-.38,12.13-.38,4.94-.97,10.12-2.81,14.77-.36.91-.78,1.84-1.37,2.64-.06.09-.71.74-.42.53-.76.57-.02,1.87.75,1.29h0Z"/>
    <path class="cls-2" d="m729.17,353.17c3.75-.36,8.65-1.78,10.29-5.53,1.53-3.49,1.35-7.15,1.11-10.82-.68-10.3,9.68-17.04,16.8-22.41,3.54-2.67,7.08-5.35,10.62-8.02,2.12-1.6,4.03-3.4,6.38-4.69,1.59-.87,4.38-2.23,5.64-.2.93,1.51.79,3.79.72,5.49-.08,2.1-.47,4.17-1.08,6.18-.87,2.87-2.5,5.31-3.47,8.11-.99,2.85-1.43,5.9-1.51,8.91-.12,4.66,1.22,9.04,1.44,13.65.2,4.13-.88,9.97-4.25,12.39-.78.56-.03,1.85.75,1.29,2.59-1.86,4.04-5.3,4.63-8.32.71-3.64.27-7.21-.4-10.82-.75-4.11-.97-8.36-.28-12.49.54-3.28,1.86-5.76,3.17-8.7,1.35-3.01,2.24-6.25,2.45-9.56.16-2.4.36-6.28-1.82-7.96-3.19-2.46-8.19,1.45-10.63,3.37-2.2,1.73-4.09,3.26-6.6,5.15-3.25,2.46-6.45,5.02-9.81,7.33-5.51,3.78-10.84,8.69-13.22,15.1-.66,1.79-1.08,3.72-1.06,5.64,0,.54.06,1.07.13,1.6.07.54.04.12.08.51.36,3.78-.01,9.03-3.51,11.23-1.91,1.21-4.34,1.88-6.59,2.1-.95.09-.96,1.59,0,1.5h0Z"/>
    <path class="cls-2" d="m774.16,356.03c3.43.64,7.88,1.31,11.16-.17,2.52-1.14,5.27-3.82,5.08-6.75-.19-2.86-1.9-5.62-3.32-8.01-1.69-2.83-3.4-5.66-5.09-8.49-1.02-1.69-3.07-4.22-3.15-6.28-.07-1.75,1.11-2.49,2.24-3.53.81-.75,1.47-1.64,2.06-2.57,1.48-2.36,2.51-5.03,3.3-7.69.84-2.8,1.41-5.72,1.52-8.64.11-2.9-.54-5.69-1.18-8.5-.51-2.21-1.18-4.34-2.08-6.43-1.53-3.56-3.91-6.93-4.71-10.75-.71-3.38-.03-7.37,2.73-9.59,1.36-1.1,2.82-1.34,4.51-.98,1.11.23,2.14.44,3.23,0,1.16-.47,2.07-1.59,2.32-2.82.14-.69.12-1.33.43-2.01.89-1.94,2.94-2.9,4.92-3.32,1.64-.35,3.35-.31,5.02-.5,1.94-.22,3.88-.45,5.82-.67,3.21-.37,6.49-.58,9.69-1.12,3.2-.54,7.69-2.09,10.65-.05,2.93,2.03,1.76,6.61.53,9.2-1,2.11-2.3,4.06-3.53,6.03-5.08,8.14-8.89,16.89-11.63,26.09-3.86,12.94-5.13,26.52-9.64,39.29-4.04,11.47-10.87,21.3-20.3,28.99-2.81,2.29-5.78,4.36-8.84,6.3-.81.51-.06,1.81.75,1.29,10.79-6.84,20.14-15.63,25.98-27.11,5.68-11.16,7.81-23.48,10.31-35.62,2.48-12.05,6.23-23.95,12.37-34.66,2.1-3.67,4.77-7.15,6.38-11.08,1.82-4.46.94-10.21-4.55-10.98-2.12-.29-4.3-.05-6.4.33-1.05.19-1.96.45-2.55.53-3.88.53-7.78.9-11.67,1.35-3.46.4-7.68.23-10.87,1.6-2.78,1.19-3.79,3.12-4.34,5.87.05-.27-.25.62-.4.84-1.1,1.6-2.83.74-4.38.56-2.18-.25-4.25.76-5.69,2.37-.53.6-.92,1.08-1.41,2.06-1.02,2.04-1.35,4.36-1.12,6.62.38,3.7,2.34,6.84,3.93,10.12,1.16,2.39,2.16,4.82,2.81,7.39.73,2.88,1.49,5.86,1.44,8.84-.06,3.32-.77,6.64-1.8,9.78-.89,2.72-2.04,5.68-3.96,7.87-1.63,1.85-3.65,2.84-3.34,5.68.23,2.14,1.87,4.22,2.96,6.03,1.56,2.6,3.12,5.21,4.68,7.81,1.55,2.58,4.22,6.09,3.9,9.31-.17,1.67-1.51,2.55-2.69,3.54-1.94,1.62-4.11,1.79-6.59,1.72-1.69-.05-3.4-.22-5.07-.54-.94-.18-1.34,1.26-.4,1.44h0Z"/>
    <path class="cls-2" d="m691.6,358.19c1.17-1.28,2.93-2.13,4.47-2.84,5.21-2.37,11.13-3.12,16.79-3.25,9.32-.23,18.44,1.86,27.74,2.03,4.55.08,9.61,0,13.86-1.86,1.23-.54,2.88-1.4,3.35-2.78-.37.15-.73.3-1.1.45,4.15,2.97-1.84,9.75-3.77,12.36-1.62,2.19-4.02,5.25-2.77,8.03-.45-.99-.2-.11.01.19.34.48.79.76,1.32.98,3.16,1.32,7.44.64,10.7.3,5.38-.57,10.6-1.67,15.87-2.82l-.92-.92c-.96,2.73-1.76,5.56-2.23,8.41-.35,2.1-1.15,6.92,1.99,7.4-.11-.42-.22-.83-.33-1.25-2.07,2.51-3.91,5.28-5.44,8.15-2.09,3.91-4.26,9.04-2.43,13.45.36.88,1.81.49,1.44-.4-1.79-4.3.6-9.32,2.7-13.07,1.39-2.47,2.97-4.89,4.78-7.07.31-.38.28-1.16-.33-1.25-3.42-.51.55-11.89,1.29-13.97.2-.57-.4-1.03-.92-.92-4.22.92-8.39,1.85-12.67,2.43-2.8.38-5.62.69-8.45.69-1.36,0-2.86.02-4.18-.43-.5-.17-.84-.41-.95-.53.26.31-.12-.18-.17-.37-.1-.45.26-1.79.63-2.56,1.55-3.24,4.29-5.65,6.07-8.73,1.6-2.77,2.58-7.18-.5-9.38-.42-.3-.96.03-1.1.45.08-.22-.24.32-.36.45-.6.63-1.42,1.06-2.21,1.4-4.51,1.95-10,1.83-14.8,1.65-14.29-.54-29.18-4.7-42.98,1.17-1.89.81-4.06,1.83-5.48,3.38-.65.71.4,1.77,1.06,1.06h0Z"/>
    <path class="cls-2" d="m906.51,332.34c.76-4.84.9-9.84.71-14.72-.34-8.97-2.01-18.42-6.96-26.07-2.98-4.61-7.13-8.24-12.18-10.41-.56-.24-1.3.16-1.1.84,1.72,5.97,2.86,12.16,3.75,18.3,1.79,12.38,2.34,25.3-.48,37.57-.22.94,1.23,1.34,1.44.4,2.81-12.2,2.33-24.98.63-37.3-.9-6.5-2.08-13.05-3.9-19.36-.37.28-.73.56-1.1.84,16.85,7.25,19.37,28.55,18.24,44.68-.11,1.61-.26,3.33-.5,4.84-.15.94,1.29,1.35,1.44.4h0Z"/>
    <path class="cls-2" d="m868.18,365.78c-.31-3.69,1.06-7.67,2.87-10.8,4.55-7.89,13.28-11.29,20.73-15.8,2.48-1.5,5.11-2.99,7.3-4.91.82-.72,1.6-1.45,2.62-1.91,3.04-1.38,4.5,1.41,5.12,4.05,2.57,10.87-.8,21.79-6.2,31.18-.48.84.81,1.59,1.29.75,5.13-8.92,8.11-18.5,6.91-28.87-.33-2.87-.84-7.48-4.02-8.75-1.87-.74-3.87.17-5.37,1.28-1.78,1.32-3.38,2.72-5.28,3.94-3.68,2.36-7.47,4.53-11.28,6.67-4.28,2.39-8.26,4.97-11.29,8.9-2.98,3.86-5.31,9.26-4.89,14.26.08.95,1.58.96,1.5,0h0Z"/>
    <path class="cls-2" d="m837.95,406.91c5.01-9.65,10.02-19.3,15.03-28.94,1.65-3.18,3.5-6.33,4.81-9.67.1-.26-.06-.18.2-.55.44-.63,1.12-.9,1.85-1.07,1.56-.36,3.26-.06,4.85,0,3.33.14,6.67.18,10.01.23,6.39.09,12.78.13,19.16.14,3.37,0,7.56,1.02,7.19,5.26-.34,3.96-3.3,7.98-5.57,11.14-2.18,3.04-4.76,5.77-7.6,8.18-7.5,6.37-16.58,11.08-25.35,15.42-5.85,2.9-12.35,5.73-17.17,10.21-1.81,1.68-4.5,3.47-7.07,2.54-2.26-.82-3.31-2.91-3.16-5.25.17-2.73,1.51-5.31,2.83-7.64.48-.84-.82-1.59-1.29-.75-1.89,3.32-4.21,7.95-2.47,11.81.77,1.71,2.38,2.98,4.19,3.43,2.68.66,5.59-.81,7.52-2.57,3.15-2.87,6.78-4.94,10.52-6.96,15.41-8.31,32.72-15.14,42.35-30.64,1.94-3.12,4.67-7.28,3.6-11.15-.66-2.39-2.88-3.72-5.18-4.23-3.76-.83-8.02-.3-11.82-.33-7.44-.05-14.93.05-22.36-.42-2.87-.18-5.56.02-6.64,2.9.28-.75-.2.33-.25.42-.19.39-.35.8-.53,1.19-.1.23-.2.47-.32.7-.23.48-.5.96-.74,1.43-5.79,11.15-11.58,22.31-17.37,33.46-.17.32-.33.64-.5.96-.44.85.85,1.61,1.29.75h0Z"/>
    <path class="cls-2" d="m838.05,406.53c-.41-3.14-8.02.69-9.03,1.13-.88.38-.12,1.67.75,1.29,1.9-.83,4.05-1.87,6.16-2.05.15-.01.77.05.79.03-.04.03-.14-.16-.17-.4.12.94,1.62.95,1.5,0h0Z"/>
    <path class="cls-2" d="m845.88,417.24c.07,1.37-.22,2.83-.76,4.09-1.45,3.37-4.73,4.57-8.21,4.57-.96,0-.96,1.5,0,1.5,3.75,0,7.4-1.27,9.23-4.75.84-1.61,1.33-3.58,1.23-5.4-.05-.96-1.55-.96-1.49,0h0Z"/>
    <path class="cls-2" d="m777.01,414.96c.72-.63,2.7-1.29,3.96-1.57,4.94-1.11,10.27-.47,15.16.52,6.14,1.24,11.83,2.88,18.16,2.03,3.96-.54,7.85-1.88,11.2-4.08,1.73-1.13,3.21-2.17,3.95-4.09-.46.06-.91.12-1.37.18,1.62,2.16,1.66,4.6,1.06,7.13-.56,2.37-.17,4.92.89,7.1,1.01,2.09,2.61,3.73,4.87,4.39,1.58.47,3.72,1.01,5.37.5-.31-.31-.61-.61-.92-.92-.83,2.71-2.47,5.62-4.81,7.28-2.05,1.46-4.69,1.37-7.02,2.14-2.52.84-4.87,2.11-7,3.69-3.88,2.87-6.61,6.67-9.91,10.11-3.66,3.83-7.95,5.93-13.33,5.61-.96-.06-.96,1.44,0,1.5,5.2.31,9.68-1.5,13.41-5.07,3.83-3.67,6.69-8.11,11.08-11.22,2.53-1.79,5.36-3.13,8.4-3.8,2.25-.49,4.14-.77,5.94-2.31,2.22-1.9,3.82-4.75,4.67-7.54.16-.54-.38-1.08-.92-.92-1.6.49-4.15-.15-5.57-.86-2.25-1.13-3.49-3.82-3.83-6.21-.35-2.43.84-4.61.56-7.03-.17-1.52-.74-3.11-1.66-4.34-.4-.53-1.12-.45-1.37.18-.12.3-.2.66-.36.93.01-.02.22-.33.1-.16-.14.18-.34.35-.51.5-.82.74-1.68,1.4-2.61,2-3.52,2.28-7.62,3.59-11.78,3.96-6.85.62-13.13-1.78-19.81-2.74-4.14-.6-8.49-.84-12.6.12-1.52.35-3.28.87-4.48,1.93-.73.63.34,1.69,1.06,1.06h0Z"/>
    <path class="cls-2" d="m802.77,488.36c5.56.78,11.12,1.56,16.68,2.34,2.12.3,4.28.73,6.41.9,1.12.09,2.5-.21,3.54.29,1.25.6,1.07,2.14.64,3.3-.54,1.43-1.93,2.04-2.59,3.31-1.22,2.34,1.06,5.04,2.76,6.47,1,.84,2.63,1.89,2.82,3.23.26,1.81-1.77,2.67-3.18,3.16-2.75.97-5.67,1.6-8.48,2.38-3.88,1.07-7.75,2.15-11.63,3.22-5.99,1.66-11.97,3.32-17.96,4.99-.93.26-.53,1.7.4,1.44,5.57-1.55,11.13-3.09,16.7-4.64,4.12-1.14,8.23-2.28,12.35-3.42,3.08-.85,6.31-1.52,9.3-2.64,2.29-.86,4.89-2.74,3.83-5.54-1.07-2.82-5.27-3.62-5.7-6.93-.19-1.41,1.26-2.02,1.98-3.05.7-1,1.14-2.2,1.18-3.43.06-1.81-.61-2.97-2.4-3.41-.79-.19-1.63-.23-2.44-.24-.47,0-.74.03-.82.03-.9-.06-1.82-.26-2.71-.38-6.77-.95-13.54-1.9-20.31-2.85-.94-.13-1.35,1.31-.4,1.44h0Z"/>
    <path class="cls-2" d="m935.22,448.94c2.77-5,4.46-10.81,5.57-16.38,2.51-12.58,1.38-25.57-3.46-37.45-.3-.74-1.46-.7-1.47.2-.17,11.85-4.11,24.41-10.23,34.46-3.05,5-6.83,9.48-11.28,13.29-.73.63.33,1.68,1.06,1.06,12.99-11.1,19.87-27.9,21.65-44.63.15-1.39.28-2.78.3-4.18-.49.07-.98.13-1.47.2,4.81,11.8,5.95,24.68,3.37,37.15-1.09,5.28-2.68,10.78-5.32,15.53-.47.84.82,1.6,1.29.75h0Z"/>
    <path class="cls-2" d="m895.87,461.93c3.26-4.73,7.64-8.87,11.98-12.58,4.81-4.1,10.04-7.72,15.56-10.8,2.12-1.19,4.25-2.23,6.72-2.43,5.25-.41,4.56,4.66,3.93,8.4-.64,3.79-1.29,7.57-1.99,11.35-.41,2.23-1.15,4.8-2.52,7.12-5.14,8.74-15.29,12.59-24.84,14.12-.95.15-.55,1.59.4,1.44,9.31-1.49,18.91-5.13,24.6-13.06,1.41-1.97,2.54-4.19,3.23-6.52.16-.56.29-1.13.4-1.7.13-.68,0,0,.09-.55.71-3.81,1.37-7.63,2.02-11.45.56-3.33,1.83-8.67-2.32-10.27-2.35-.91-5.2-.16-7.45.73-4.92,1.95-9.59,5.39-13.81,8.54-6.35,4.74-12.74,10.33-17.27,16.91-.55.79.75,1.54,1.29.75h0Z"/>
    <path class="cls-2" d="m830.36,496.6c1.51.29,3.16.06,4.66-.18,4.7-.76,9.2-2.68,13.39-4.86,8.27-4.31,15.75-10.08,22.73-16.21,5.36-4.71,10.23-10.57,16.48-14.14,2.94-1.68,7.43-2.8,7.84,1.93.18,2.12-.5,4.01-.97,6.03-1.07,4.62,1.66,8.78,6.41,9.34,1.69.2,4.12-.44,5.54.77,1.03.88.88,2.39.63,3.58-.53,2.47-1.82,4.77-3.14,6.91-1.67,2.7-3,5.64-5.23,8.17-2.46,2.79-5.42,5.1-8.75,6.78-4.98,2.51-10.31,3.04-15.78,3.63-11.16,1.19-22.88,2.72-34.06.99-2.07-.32-4.12-.8-6.1-1.49-.91-.31-1.3,1.13-.4,1.44,9.88,3.41,21.2,2.34,31.4,1.45,10.41-.91,21.62-1.02,30.29-7.62,4.04-3.07,7.22-7.08,9.37-11.66.3-.65.03-.13.34-.62.54-.86,1.07-1.73,1.54-2.64,1.19-2.26,2.58-5.14,2.11-7.77-.59-3.33-3.83-3.26-6.52-3.32-3.5-.09-6.17-1.93-6.34-5.56-.18-3.94,3.05-8.55-.2-12.03-2.24-2.39-5.72-1.22-8.19.1-3.21,1.72-6.08,4.16-8.73,6.64-6.87,6.43-13.69,12.81-21.45,18.18-5.69,3.94-11.84,7.56-18.5,9.58-2.55.77-5.14,1.28-7.81,1.17-.3-.01.05.02-.16-.02-.94-.18-1.34,1.26-.4,1.44h0Z"/>
    <path class="cls-2" d="m761.88,542.27c8.67,1.88,17.32,3.87,25.96,5.92,14.23,3.38,28.55,6.76,42.46,11.3,2.58.84,5.18,1.71,7.65,2.83.88.4,2.93,1.28,3.12,1.97.17-.31.35-.61.52-.92-3.91,1.23-6.58,5.29-7.88,8.94-.91,2.57.05,4.9-2.87,6.11-2.18.9-4.58-.14-6.69-.76-2.23-.66-4.48-1.25-6.76-1.74-6-1.31-12.15-2-18.3-1.99-7.22.02-14.46,1.02-21.64,1.73-4.35.43-8.71.88-13.06,1.33-4.52.47-9.11.51-13.64.49-5.14-.03-10.32-.25-15.41-.99-4.33-.62-9.02-1.52-12.71-4.02-.8-.54-1.55.75-.75,1.29,3.13,2.13,6.98,3.1,10.65,3.78,4.48.82,9.05,1.18,13.6,1.34,5.82.21,11.73.19,17.54-.32,9.83-.86,19.63-2.13,29.47-2.89,6.98-.54,14.01-.15,20.9,1.1,2.51.46,5.01,1.03,7.47,1.7,2.1.57,4.23,1.47,6.4,1.71,2.55.29,6.09-.84,6.59-3.78.1-.59.02-1.22.14-1.83.35-1.78,1.12-3.49,2.05-5.03,1.18-1.94,3.05-4.02,5.31-4.73.38-.12.64-.52.52-.92-.31-1.06-1.52-1.7-2.42-2.19-1.82-.98-3.78-1.71-5.72-2.41-6.2-2.24-12.58-4-18.94-5.72-14.29-3.86-28.7-7.27-43.13-10.53-3.34-.75-6.68-1.5-10.02-2.23-.94-.2-1.34,1.24-.4,1.44h0Z"/>
    <path class="cls-2" d="m860.85,621.08c2.35,1.35,4.83,3.66,5.42,6.38.75,3.47-2.07,7.25-3.97,9.91-1.92,2.69-3.99,4.98-5.62,7.87-3.57,6.34-6.1,13.32-7.43,20.46-.93,5-.86,9.95-1.18,15-.24,3.85-.87,7.87-2.59,11.38-1.16,2.36-3.33,5.46-6.21,5.85-.86.12-.61,1.44.2,1.47,5.43.2,11.09-3.21,15.07-6.52,11.39-9.48,16.46-24.44,20.27-38.24,2.81-10.18,4.23-21.13,2.51-31.61-.16-.95-1.6-.55-1.44.4,1.59,9.71.32,19.82-2.1,29.29-1.77,6.9-3.87,13.81-6.83,20.29-4.48,9.82-11.55,20.25-22.27,23.9-1.63.55-3.46,1.07-5.21,1,.07.49.13.98.2,1.47,2.41-.33,4.53-2.5,5.84-4.37,4.92-7.03,3.67-16.02,4.49-24.06.88-8.62,3.61-17.11,7.82-24.68.73-1.3,1.47-2.65,2.37-3.84.9-1.19,3.03-3.72,4.19-5.44,2.07-3.08,4.46-6.99,3.06-10.81-.98-2.7-3.38-4.98-5.84-6.39-.84-.48-1.59.81-.75,1.29h0Z"/>
    <path class="cls-2" d="m837.38,568.27c.48,0,1.01.13,1.74.36,1.95.61,3.76,1.68,5.44,2.82,8.47,5.77,14.93,14.61,20.53,23.02,6.15,9.23,11.46,18.99,16.39,28.92.28-.37.56-.73.84-1.1-8.47-1.2-16.95-2.41-25.42-3.6-3.41-.48-6.1-2.08-7.95-5.13-2.42-3.98-2.98-9.07-4.42-13.47-.81-2.49-1.63-5.06-2.78-7.42-.71-1.45-1.96-2.66-2.86-3.99-2.41-3.56-4.75-7.83-4.4-12.26.08-.96-1.42-.95-1.5,0-.3,3.78,1.28,7.48,3.14,10.69,1.22,2.11,2.86,3.89,4.17,5.91-.15-.23.28.69.38.92.6,1.42,1.14,2.86,1.65,4.31,1.58,4.49,2.35,9.36,4.17,13.74,1.71,4.11,5.21,7.48,9.37,8.04,3.51.47,7.99,1.13,11.8,1.67,4.75.67,9.5,1.35,14.25,2.02.65.09,1.15-.47.84-1.1-7.58-15.26-16.02-30.73-27.5-43.47-4.19-4.65-9.23-9.67-15.28-11.82-.81-.29-1.74-.59-2.62-.58-.96.02-.96,1.51,0,1.5h0Z"/>
    <path class="cls-2" d="m706.44,596.01c6.88.91,15.35,2.36,22.67,3.74,14.38,2.71,28.8,5.89,42.63,10.71,6.52,2.27,13.15,4.88,18.79,8.93.13-.46.25-.93.38-1.39-3.72-.27-6.89,2.59-8.2,5.84-1.53,3.78-.54,8.24-2.9,11.72-1.94,2.86-5.5,3.66-8.72,4.04-10.73,1.27-21.86,0-32.11-3.33-5.26-1.71-11.52-3.82-15.39-7.98-3.12-3.35-4.66-7.92-8.18-10.94-7.99-6.87-19.76-2.42-28.86-6.35-.87-.38-1.64.91-.75,1.29,4.11,1.77,8.51,2.05,12.93,2.23,4.69.19,9.8.2,13.95,2.69,4.31,2.59,6.02,7.49,9.07,11.24,3.23,3.96,8.13,6.01,12.77,7.81,10.33,4.01,21.52,5.75,32.58,5.15,6.34-.35,13.48-1.22,15.41-8.34,1.11-4.12.24-9.03,3.95-12.05,1.2-.98,2.88-1.64,4.45-1.53.81.06.92-1,.38-1.39-4.92-3.53-10.62-5.95-16.27-8.05-7.05-2.62-14.29-4.69-21.58-6.53-12.8-3.23-25.8-5.73-38.84-7.8-2.72-.43-5.44-.85-8.16-1.21-.95-.13-.94,1.37,0,1.5h0Z"/>
    <path class="cls-2" d="m782.61,685.24c-3.38,6.52-7.61,12.69-12.05,18.51-8.79,11.54-19.49,22.42-32.63,28.9-7.91,3.9-16.63,5.83-25.45,4.96.13.46.25.93.38,1.39,3.79-1.68,7.7-4.61,9.58-8.37,1.3-2.6,1.91-5.54,3.15-8.2,1.57-3.35,3.63-6.44,6.22-9.08,3.81-3.88,8.62-6.96,12.99-10.18,4.71-3.47,9.44-6.9,14.28-10.17,2.24-1.52,4.51-3.02,6.85-4.38,1.2-.7,2.8-1.87,4.24-1.95.96-.06.96-1.55,0-1.49-1.2.07-2.37.72-3.41,1.27-1.91,1-3.74,2.17-5.55,3.35-4.94,3.21-9.73,6.65-14.49,10.13-4.01,2.93-8.01,5.88-11.97,8.89-5.72,4.35-9.62,10.06-12.07,16.77-.57,1.57-.96,3.26-1.77,4.73-.87,1.58-2.13,2.91-3.51,4.06-1.59,1.33-3.41,2.5-5.31,3.34-.75.33-.27,1.33.38,1.39,15.69,1.54,30.2-5.75,41.84-15.71,10.01-8.57,18.38-19.09,25.38-30.22,1.47-2.35,2.93-4.72,4.2-7.18.44-.85-.85-1.61-1.29-.75h0Z"/>
    <path class="cls-2" d="m794.25,632.73c2.61,4.37,3.67,9.98,3.94,14.97.29,5.49-.52,10.98-2.22,16.2-1.11,3.4-2.58,6.67-4.33,9.78-1.95,3.47-4.23,7.19-6.96,10.11-1.13,1.2-4.03,1.81-6,1.95-1.29.09-2.59.07-3.88,0-1.99-.12-4.47-.14-6.36-.83.02,0-.77-.48-1.04-.77-2.88-3.03.56-8.17,2.41-10.72,3.97-5.47,9.08-10.01,13.2-15.36,1.26-1.64,2.39-3.4,3.05-5.37.77-2.3.52-4.63.97-6.97.96-4.97,4.61-9.59,8.4-12.83.73-.62-.33-1.68-1.06-1.06-3.4,2.9-6.45,6.78-8.05,10.96-1.01,2.65-.74,5.3-1.31,8.01-.41,1.98-1.33,3.75-2.49,5.4-4.01,5.71-9.42,10.35-13.62,15.93-2.3,3.07-5.63,8.17-3.3,12.11,1.65,2.81,5.14,2.65,8.04,2.9,3.56.31,8.49.56,11.53-1.8,1.1-.85,1.88-2.12,2.7-3.22,2.56-3.39,4.83-6.99,6.69-10.81,2.82-5.79,4.65-12.05,5.08-18.5.45-6.83-.51-14.83-4.11-20.83-.49-.82-1.79-.07-1.29.75Z"/>
    <path class="cls-2" d="m797.23,635.55l-1.46-.32c.88-4.01-.47-7.58-4.01-10.62-2.73-2.33-5.78-3.46-5.81-3.47l.51-1.4c.13.05,13.18,4.91,10.77,15.81Z"/>
    <path class="cls-2" d="m776.75,638.3c-.24,5.46,5.73,6.8,10,6.18.95-.14.55-1.58-.4-1.44-3.34.48-8.3-.34-8.11-4.74.04-.96-1.45-.96-1.49,0h0Z"/>
    <path class="cls-2" d="m443.08,312.1c-.13-3.58.02-7.19.31-10.75.51-6.36,1.41-13.3,4.53-18.98,1.97-3.58,4.98-6.6,7.21-10.05,2.15-3.33,4.1-6.82,5.67-10.46.77-1.78,1.14-3.65,1.82-5.43.95-2.48,2.38-4.84,3.7-7.14,1.32-2.29,2.67-4.57,4.14-6.78.54-.81.68-.99,1.17-1.47,1.19-1.16,2.18-2.52,3.07-3.92,5.26-8.23,7.72-18.28,9.37-27.78,3.43-19.81,5.95-46.48-10.96-61.37-1.17-1.03-2.43-1.98-3.74-2.83-.91-.59-2.95-2.2-4.09-2.15-1.16.05-1.57,1.6-1.64,2.51-.29,3.82,2.06,7.58,3.36,11.03.64,1.7,1.07,3.37.32,5.12-.71,1.67-1.81,3.15-2.39,4.89-.52,1.54-.61,3.13-.08,4.68.69,1.99,2.69,3.43,3.01,5.55.76,4.99-5.93,3.43-8.65,4.93-2.84,1.57-4.28,4.84-4.54,7.95-.13,1.56.15,3.12.08,4.69-.21,4.87-1.59,10.02-4.77,13.81-3.08,3.67-7.79,4.67-11.45,7.59-2.2,1.76-4.13,3.95-5.2,6.59-1.39,3.44-.89,7.46-.39,11.04.57,4.04,1.83,6.75,2.51,10.55.38,2.13,1.39,6.38-.33,8.18-.67.69.39,1.75,1.06,1.06,1.58-1.65,1.36-4.44,1.16-6.53-.22-2.3-.62-4.65-1.26-6.88-1.35-4.68-2.81-9.83-1.95-14.79.84-4.82,5.25-8.79,9.58-10.72,5.11-2.28,8.7-5.59,10.74-10.9,1.27-3.29,1.97-7.05,1.83-10.59-.13-3.28-.04-6.75,2.69-9.07,2.75-2.34,6.85-.42,9.37-3.36,2.23-2.59.53-5.4-1.07-7.74-1.42-2.08-1.57-4.15-.58-6.44.71-1.64,1.91-3.13,2.37-4.87.83-3.16-1.14-6.32-2.26-9.14-.74-1.84-1.59-3.92-1.66-5.94-.02-.5.21-1.72.34-1.74-.17.02,1.49.97,1.68,1.08.71.4,1.4.83,2.07,1.29,1.5,1.02,2.89,2.18,4.18,3.45,2.16,2.14,3.98,4.6,5.48,7.25,2.76,4.87,4.42,10.31,5.34,15.82,1.56,9.35.63,19.01-.52,28.34-1.35,11.04-3.6,22.67-9.02,32.53-2.1,3.83-4.72,6.21-6.89,9.71-1.51,2.43-2.96,4.9-4.33,7.42-.98,1.8-2.07,3.68-2.6,5.67-1.73,6.5-5.45,12.57-9.37,17.98-2.14,2.96-4.52,5.5-5.96,8.91-1.19,2.82-1.96,5.8-2.52,8.8-1.02,5.45-1.42,11.02-1.46,16.55,0,.95,0,1.9.03,2.84.03.96,1.53.96,1.5,0h0Z"/>
    <path class="cls-2" d="m434.59,221.49c.36.27-.3-.37-.28-.33-.46-.64-.84-1.32-1.17-2.04-1.58-3.45-2.23-7.39-2.7-11.12-.42-3.33-.64-6.68-.75-10.03-.12-3.61-.56-7.69.07-11.24.48-2.72,1.66-5.51,2.89-7.95,1.55-3.06,4.29-5.48,5.14-8.86.97-3.85.04-8.13-1.16-11.59-.68-1.96-.69-4.07-.17-6.07.97-3.72,3.55-6.07,6.04-8.79,2.82-3.08,4.79-7.02,6.64-10.72,2.55-5.12,4.79-10.4,6.93-15.7,3.16-7.84,6.11-15.78,8.79-23.81.08-.23,0-.57-.19-.73-2.54-2.03-7.23-1.71-10.19-1.56-10.15.51-20.55,2.97-29.01,8.74-9.94,6.79-17.08,16.22-23.71,26.06-5.21,7.73-9.4,16.08-12.97,24.69-8.14,19.65-12.82,40.68-14.64,61.84-.56,6.45-.53,12.64-.28,19.1.27,6.96.3,14.23,1.74,21.08.17.82.36,1.66.78,2.39.47.84,1.76.09,1.29-.75-.89-1.58-.97-3.83-1.17-5.6-.37-3.09-.58-6.2-.77-9.3-.33-5.57-.52-11.15-.64-16.72-.17-7.78.96-15.76,2.08-23.44,1.38-9.41,3.36-18.74,5.99-27.89,3.58-12.45,8.31-24.65,14.58-36,2.06-3.73,4.4-7.27,6.71-10.85,7.37-11.39,17.61-23.06,30.55-28.01,4.55-1.74,9.54-2.65,14.35-3.33,3.28-.46,6.65-.75,9.95-.44,1.41.13,2.63.59,3.97.9.05.01.44.28.46.27-.17.12-.12-.81-.36-.72-.05.02-.11.36-.14.4-.68,1.22-.99,2.88-1.45,4.2-.87,2.46-1.75,4.92-2.65,7.37-2.4,6.52-4.92,12.99-7.71,19.36-2.39,5.46-4.89,11.07-8.31,15.99-1.82,2.61-4.4,4.52-6.13,7.2-1.75,2.71-2.71,5.94-2.28,9.17.2,1.52.64,2.36.98,3.46,1.05,3.34,1.6,7.26.3,10.6-.77,1.99-2.41,3.5-3.51,5.31-1.12,1.84-2.02,3.81-2.77,5.82-1.06,2.84-1.53,5.13-1.58,8.14-.11,7.95.06,16.11,1.8,23.9.61,2.73,1.39,5.82,3.13,8.09.23.3.46.58.77.81.77.58,1.52-.72.75-1.29h0Z"/>
    <path class="cls-2" d="m470.3,350.52c-1.93-.19-3.95-.73-5.68-1.59-3.82-1.91-4.48-6.12-4.48-10.08,0-2.01.46-4.08.02-6.5-1.96-10.84-12.62-16.86-20.71-22.98-1.95-1.47-3.9-2.94-5.85-4.42-.58-.44-1.17-.87-1.75-1.32-.47-.37,0,0-.45-.38-2.67-2.3-6.33-5.54-10.08-5.48-6.17.1-4.02,10.9-3.01,14.37.92,3.15,2.75,5.83,3.73,8.92,1.09,3.42,1.4,7.04,1.24,10.61-.22,4.8-1.81,9.43-1.35,14.26.35,3.69,1.75,8.12,4.92,10.4.78.56,1.53-.73.75-1.29-2.57-1.85-3.99-6.31-4.23-9.62-.29-4.14.93-8.08,1.28-12.17.28-3.26.17-6.57-.47-9.79-.55-2.8-1.67-5.05-2.87-7.56-1.49-3.14-2.45-6.62-2.58-10.09-.09-2.33-.27-6.99,3.21-6.51,3.4.47,6.26,3.3,8.82,5.37,2.77,2.23,5.7,4.3,8.54,6.45,7.75,5.86,18.5,11.95,19.55,22.64.1.98.03,1.91-.09,2.87-.27,2.32-.12,4.71.37,6.99.75,3.46,2.39,5.64,5.67,7.01,1.74.72,3.62,1.19,5.49,1.37.96.09.95-1.4,0-1.5h0Z"/>
    <path class="cls-2" d="m424.92,353.43c-3.83.72-8.59,1.36-11.76-1.26-1.21-1-2.5-1.89-2.6-3.6-.2-3.31,2.5-6.81,4.1-9.48,2.06-3.43,4.11-6.87,6.18-10.3.65-1.07,1.21-2.15,1.29-3.43.19-2.82-1.89-3.75-3.47-5.62-3.78-4.49-5.56-11.77-5.65-17.51-.09-5.59,1.96-11.53,4.38-16.5,2.55-5.23,5.6-10.85,2.62-16.59-.55-1.06-.85-1.42-1.53-2.13-1.59-1.66-3.77-2.52-6.05-2.1-1.36.25-2.78.75-3.77-.54-.19-.25-.33-.55-.43-.85-.1-.3-.04-.14-.04-.12-.18-.92-.21-1.73-.66-2.6-1.9-3.73-6.27-4.01-9.95-4.32-3.84-.32-7.67-.89-11.5-1.33-1.61-.19-3.24-.33-4.85-.56-.54-.08-.1,0-.42-.08-.74-.16-1.47-.35-2.22-.48-3.92-.69-9.27-1.18-11.08,3.22-2.12,5.14,1.58,10.24,4.2,14.42,5.32,8.48,9.25,17.59,12.02,27.21,3.8,13.21,5.07,27.03,9.96,39.95,4.23,11.16,11.16,20.7,20.47,28.18,2.77,2.23,5.69,4.26,8.69,6.17.81.52,1.57-.78.75-1.29-10.87-6.9-20.16-15.77-25.87-27.44-5.59-11.4-7.44-23.92-10.11-36.2-2.49-11.45-6.18-22.74-11.99-32.95-2.02-3.56-4.57-6.91-6.23-10.65-1.11-2.5-1.94-6.79.78-8.66,1.91-1.32,4.89-.97,7.05-.67,2.34.33,4.59.83,6.95,1.1,4.09.47,8.18.94,12.27,1.42,3.44.4,8.25.11,9.88,3.91.79,1.85.34,3.77,2.71,4.73,1.1.44,2.11.22,3.23,0,1.8-.35,3.31-.08,4.71,1.15.7.61,1.19,1.26,1.62,2.04,3.44,6.2-1.4,12.54-3.81,18.13-1.95,4.52-3.45,9.98-3.26,14.93.21,5.61,1.88,11.76,4.94,16.51,1.29,2,4.43,3.69,4.15,6.21-.12,1.05-.65,1.9-1.18,2.77-2.44,3.99-4.84,8.01-7.22,12.04-1.95,3.3-4.94,8.29-1.61,11.67.98.99,2.29,2.18,3.56,2.76,2.11.95,4.72.85,6.97.69,1.4-.1,2.81-.26,4.19-.52.94-.18.54-1.62-.4-1.44h0Z"/>
    <path class="cls-2" d="m508.94,355.98c-1.13-1.22-2.76-2.1-4.23-2.81-4.48-2.18-9.49-3.12-14.42-3.52-9.08-.74-17.89,1.02-26.91,1.63-5.43.37-11.4.64-16.65-1.11-1.1-.36-2.24-.84-3.1-1.63-.25-.23-.57-.77-.52-.6-.14-.42-.68-.75-1.1-.45-2.38,1.7-2.36,5.03-1.4,7.5,1.29,3.33,4.03,5.79,5.92,8.76.78,1.22,1.86,2.81,1.7,4.34-.05.47-.12.56-.69.81-2.95,1.32-7.22.56-10.27.23-5.25-.55-10.33-1.64-15.47-2.77-.52-.11-1.12.35-.92.92.73,2.07,4.7,13.46,1.28,13.97-.61.09-.64.87-.33,1.25,1.81,2.19,3.39,4.6,4.78,7.07,2.1,3.75,4.5,8.77,2.7,13.07-.37.89,1.08,1.27,1.44.4,1.84-4.4-.34-9.53-2.43-13.45-1.53-2.87-3.36-5.64-5.44-8.15l-.33,1.25c3.14-.47,2.33-5.3,1.99-7.4-.47-2.85-1.27-5.69-2.23-8.41-.31.31-.61.61-.92.92,4.32.94,8.59,1.88,12.98,2.47,4.05.54,8.93,1.43,12.97.26,1.23-.36,1.67-.8,2.14-1.86-.49,1.1.22-.27.25-.76.1-1.57-.9-3.24-1.68-4.52-2.13-3.5-6.11-6.59-6.58-10.87-.15-1.35.44-3.15,1.27-3.75-.37-.15-.73-.3-1.1-.45.36,1.07,1.5,1.83,2.44,2.34,3.51,1.92,7.94,2.2,11.84,2.29,15.31.38,30.96-5.04,45.9.59,2.06.78,4.5,1.82,6.03,3.48.65.71,1.71-.35,1.06-1.06h0Z"/>
    <path class="cls-2" d="m294.4,330.78c-.69-4.36-.81-9.14-.68-13.63.26-8.75,1.78-17.96,6.45-25.51,2.87-4.63,6.95-8.22,11.96-10.38-.37-.28-.73-.56-1.1-.84-1.82,6.31-3,12.86-3.9,19.36-1.7,12.32-2.17,25.1.63,37.3.22.94,1.66.54,1.44-.4-2.82-12.27-2.27-25.19-.49-37.57.89-6.14,2.03-12.33,3.75-18.3.2-.69-.54-1.09-1.1-.84-17.29,7.44-20.13,29.25-18.99,45.85.12,1.79.28,3.59.56,5.36.15.95,1.59.55,1.44-.4h0Z"/>
    <path class="cls-2" d="m332.79,364.63c.34-4.07-1.23-8.51-3.29-11.93-4.97-8.25-14.3-11.8-22.16-16.64-2.22-1.37-4.43-2.74-6.39-4.47-1.31-1.16-3.01-2.3-4.83-2.29-2.87,0-4.23,2.9-4.84,5.3-2.86,11.28.67,22.84,6.29,32.6.48.83,1.77.08,1.29-.75-4.88-8.47-7.78-17.54-6.79-27.41.24-2.4.66-8.45,4.28-8.23,1.54.1,2.83,1.23,3.92,2.2,8.25,7.29,20.4,9.73,26.95,18.95,2.5,3.52,4.44,8.26,4.07,12.68-.08.96,1.42.95,1.5,0h0Z"/>
    <path class="cls-2" d="m363.21,406.61c-5.4-10.64-10.8-21.29-16.21-31.93-.9-1.76-1.82-3.52-2.69-5.3-.34-.7-.63-1.42-.96-2.13-.06-.12-.41-.91-.28-.57.13.34.03-.07,0-.16-.16-.39-.29-.74-.56-1.08-1.95-2.42-6-1.48-8.71-1.39-3.95.14-7.9.18-11.84.22-5.67.06-11.35,0-17.02.1-5,.09-9.12,3.03-7.72,8.5,1.05,4.11,3.86,8.07,6.41,11.4,2.44,3.18,5.28,5.99,8.42,8.47,7.77,6.15,16.77,10.74,25.61,15.14,3.71,1.85,7.4,3.77,10.92,5.96,1.58.98,3.12,2.01,4.48,3.29,1.76,1.65,3.75,2.97,6.21,3.19,4.44.38,7.07-3.84,6.47-7.92-.39-2.65-1.62-5.12-2.92-7.42-.47-.84-1.77-.08-1.29.75,1.71,3.02,4.54,8.32,1.69,11.55-.76.86-1.9,1.46-3.04,1.57-2.46.25-4.58-1.4-6.25-2.96-1.18-1.1-2.51-2.01-3.87-2.88-3.34-2.13-6.86-3.99-10.39-5.78-8.04-4.08-16.17-8.12-23.57-13.31-6.5-4.57-11.7-10.2-15.59-17.13-1.57-2.8-3.76-7.51-.22-9.77,1.37-.88,3.08-1.12,4.67-1.15,5.15-.09,10.3-.04,15.45-.09,3.81-.04,7.63-.08,11.44-.18,1.33-.04,2.67-.07,4-.15,1.62-.09,3.8-.48,5.16.63.75.61.61.94.97,1.76.32.72.62,1.45.97,2.16.7,1.45,1.46,2.87,2.18,4.3,5.45,10.75,10.91,21.49,16.36,32.24.14.27.27.54.41.81.44.86,1.73.1,1.29-.75h0Z"/>
    <path class="cls-2" d="m362.58,405.9c-.02.09-.05.15-.08.14.15.03.63-.15.83-.16,2.13-.07,4.49,1.09,6.37,1.91.87.38,1.64-.91.75-1.29-1.21-.52-8.48-4.08-9.31-.99-.25.93,1.19,1.33,1.44.4h0Z"/>
    <path class="cls-2" d="m352.1,416.08c-.1,1.83.38,3.8,1.23,5.4,1.83,3.48,5.48,4.75,9.23,4.75.96,0,.96-1.49,0-1.5-3.47,0-6.77-1.19-8.21-4.57-.54-1.26-.84-2.72-.76-4.09.05-.96-1.44-.96-1.5,0h0Z"/>
    <path class="cls-2" d="m423.52,412.74c-.96-.84-2.28-1.31-3.48-1.66-3.74-1.12-7.82-1.05-11.66-.63-6.62.72-12.92,3.25-19.64,3.11-4.49-.09-8.97-1.2-12.87-3.46-1.19-.69-2.33-1.47-3.36-2.38-.24-.22-.52-.44-.73-.69-.03-.04-.07-.07-.1-.11.35.49-.14-.53-.22-.72-.24-.63-.97-.71-1.37-.18-.92,1.23-1.49,2.83-1.66,4.34-.28,2.41.91,4.6.56,7.03-.34,2.39-1.57,5.08-3.83,6.21-1.44.72-3.95,1.35-5.57.86-.54-.16-1.08.38-.92.92.85,2.78,2.45,5.64,4.67,7.54,1.8,1.54,3.7,1.82,5.94,2.31,3.04.66,5.87,2.01,8.4,3.8,4.39,3.11,7.25,7.55,11.08,11.22,3.73,3.57,8.22,5.38,13.41,5.07.96-.06.96-1.55,0-1.5-5.38.32-9.67-1.78-13.33-5.61-3.29-3.44-6.03-7.25-9.91-10.11-2.13-1.57-4.49-2.85-7-3.69-2.32-.77-4.98-.69-7.02-2.14-2.34-1.67-3.98-4.56-4.81-7.28-.31.31-.61.61-.92.92,1.55.47,3.51,0,5.01-.4,2.43-.65,4.14-2.24,5.23-4.49,1.02-2.11,1.43-4.57.94-6.87-.56-2.64-.7-5.08,1.01-7.36-.46-.06-.91-.12-1.37-.18.64,1.65,1.64,2.45,3.09,3.5,3.01,2.17,6.54,3.63,10.17,4.36,5.87,1.18,11.51.31,17.25-1.08,5.4-1.31,11.23-2.28,16.78-1.37,1.62.26,4.14.93,5.15,1.8.72.63,1.78-.42,1.06-1.06h0Z"/>
    <path class="cls-2" d="m396.31,485.76c-6.02.85-12.04,1.69-18.05,2.54-1.32.19-2.63.37-3.95.55-.91.13-1.01.13-1.68.11-1.4-.03-3.6.02-4.49,1.31-1.08,1.55-.38,4.1.54,5.53.72,1.11,2.32,1.84,2.14,3.28-.12.93-.87,1.98-1.48,2.66-.8.9-1.83,1.58-2.69,2.42-1.8,1.74-2.52,4.14-.32,5.99,2.39,2.01,6.4,2.5,9.37,3.32,3.92,1.08,7.84,2.17,11.77,3.26,6.62,1.84,13.24,3.67,19.86,5.51.93.26,1.32-1.18.4-1.44-11.91-3.31-23.83-6.64-35.75-9.91-2.29-.63-7.57-2.25-4.67-5.26,1.86-1.94,4.36-3.3,4.98-6.15.54-2.44-1.69-3.15-2.63-5.06-.5-1.01-.94-2.9.22-3.59.79-.47,2.04-.36,2.93-.37,1.65-.02,3.3-.36,4.93-.59,6.34-.89,12.67-1.78,19.01-2.67.95-.13.55-1.57-.4-1.44h0Z"/>
    <path class="cls-2" d="m265.54,447.03c-2.64-4.75-4.22-10.25-5.32-15.53-2.58-12.47-1.45-25.35,3.37-37.15-.49-.07-.98-.13-1.47-.2.18,12.05,4.32,24.81,10.67,34.94,3.08,4.92,6.87,9.35,11.28,13.12.73.62,1.79-.43,1.06-1.06-12.6-10.76-19.55-26.96-21.25-43.24-.13-1.25-.25-2.51-.27-3.76-.01-.9-1.16-.95-1.47-.2-4.85,11.89-5.97,24.88-3.47,37.45,1.11,5.56,2.79,11.38,5.57,16.38.47.84,1.76.09,1.29-.75h0Z"/>
    <path class="cls-2" d="m304.15,459.28c-3.59-5.35-8.65-9.95-13.63-13.96-4.88-3.92-10.27-7.78-15.96-10.43-1.94-.91-4.24-1.56-6.39-1.42-3.53.23-4.97,3.08-4.77,6.36.3,4.86,1.56,9.82,2.45,14.62.07.37.14.74.21,1.11.02.1.11.57.04.14.07.37.11.74.19,1.1.43,1.99,1.27,3.92,2.29,5.67,5.3,9.15,15.82,13.32,25.8,14.92.94.15,1.35-1.29.4-1.44-8.89-1.42-18.25-4.78-23.71-12.37-1.31-1.83-2.38-3.86-3.03-6.01-.24-.8-.4-1.69-.49-2.15-.43-2.41-.88-4.81-1.3-7.23-.52-3-1.44-6.21-1.38-9.26.04-1.64.57-3.23,2.24-3.78,2.03-.67,4.63.11,6.51.94,4.95,2.18,9.67,5.55,13.96,8.81,5.58,4.24,11.33,9.24,15.28,15.12.53.8,1.83.05,1.29-.75h0Z"/>
    <path class="cls-2" d="m368.72,494.01c-.22.04.16,0-.16.02-.33.02-.65.04-.98.04-1.32,0-2.63-.19-3.91-.46-5.65-1.17-10.97-3.81-15.89-6.76-9.02-5.39-17.38-12.25-24.82-19.64-1.99-1.98-4.03-3.89-6.24-5.63-2.54-1.99-5.76-4.45-9.13-4.61-3.14-.16-4.91,2.28-5.07,5.19-.12,2.19.56,4.14,1.03,6.23.4,1.79.13,4.01-1.02,5.47-2.59,3.3-6.9.91-10,2.8-4.44,2.72.06,10.03,1.93,13.03.32.51.03-.03.34.62.29.63.58,1.25.91,1.86,1.25,2.3,2.83,4.44,4.62,6.35,2.64,2.81,5.81,5.14,9.31,6.76,4.76,2.21,9.75,2.77,14.9,3.33,11.47,1.24,23.45,2.79,34.95,1.06,2.16-.33,4.29-.81,6.36-1.52.9-.31.52-1.76-.4-1.44-9.64,3.33-20.68,2.28-30.65,1.42-10.45-.9-21.85-.94-30.4-7.85-3.65-2.95-6.3-6.77-8.34-10.76-.65-1.28-1.49-2.46-2.14-3.76-.92-1.85-2.94-5.87-.89-7.62,1.42-1.22,3.84-.57,5.54-.77,1.49-.18,2.96-.64,4.15-1.59,1.77-1.43,2.48-3.69,2.45-5.91-.04-3.29-3.7-11.11,1.94-11.39,3.42-.17,7.09,2.98,9.55,5,1.87,1.54,3.6,3.21,5.32,4.91,7.31,7.22,15.48,13.94,24.26,19.31,4.88,2.98,10.13,5.66,15.7,7.07,2.03.52,4.6,1.17,6.73.77.15-.03.3-.03.44-.06.94-.18.54-1.62-.4-1.44h0Z"/>
    <path class="cls-2" d="m437.19,539.68c-9.05,1.96-18.07,4.04-27.07,6.19-14.41,3.43-28.96,6.82-42.99,11.59-2.43.82-4.87,1.68-7.17,2.82-1.05.52-2.64,1.24-3,2.48-.11.4.14.8.52.92,4.38,1.38,7.18,6.89,7.51,11.16.15,1.93,1.73,3.45,3.57,4,2.1.63,4.2.02,6.22-.6,2.2-.67,4.43-1.28,6.67-1.79,6.32-1.46,12.79-2.21,19.28-2.16,7.31.05,14.65,1.07,21.92,1.79,4.22.42,8.44.87,12.66,1.29,4.86.48,9.81.51,14.69.45,5.08-.07,10.17-.35,15.19-1.13,4.24-.66,8.79-1.62,12.4-4.07.79-.54.04-1.83-.75-1.29-3.21,2.18-7.17,3.09-10.94,3.74-4.59.79-9.26,1.09-13.9,1.21-5.38.14-10.83.11-16.2-.36-9.96-.87-19.87-2.19-29.84-2.92-6.6-.48-13.25-.12-19.78.99-4.69.79-9.11,2.31-13.71,3.38-2.16.5-4.6.26-5.8-1.82-.26-.45-.15-.31-.18-.47-.1-.67-.07-1.36-.2-2.05-.86-4.31-3.97-9.4-8.4-10.8.17.31.35.61.52.92.16-.55,1.78-1.33,2.55-1.7,1.99-.96,4.1-1.7,6.19-2.42,6.3-2.16,12.74-3.93,19.17-5.65,13.85-3.7,27.82-6.99,41.8-10.15,3.16-.71,6.32-1.42,9.49-2.11.94-.2.54-1.64-.4-1.44h0Z"/>
    <path class="cls-2" d="m337.88,618.64c-2.17,1.24-4.23,3.14-5.39,5.37-1.68,3.23-.56,6.42,1.11,9.39,1.54,2.76,3.49,5.26,5.51,7.68.38.46.05.01.41.53.46.65.87,1.33,1.28,2.02,4.01,6.71,6.74,14.25,8.1,21.94,1.55,8.82-.29,18.54,4.11,26.72,1.33,2.46,3.79,5.53,6.8,5.94.07-.49.13-.98.2-1.47-5.13.18-10.53-3.13-14.25-6.28-10.95-9.27-15.76-23.58-19.52-36.93-2.83-10.03-4.34-20.91-2.64-31.27.15-.94-1.29-1.35-1.44-.4-1.6,9.73-.44,19.8,1.91,29.31,1.76,7.11,3.95,14.23,6.95,20.92,4.64,10.37,12.07,21.19,23.3,25.06,1.78.61,3.79,1.16,5.69,1.09.8-.03,1.07-1.35.2-1.47-2.33-.32-4.29-2.57-5.43-4.43-4.51-7.32-2.95-16.38-4.02-24.49-1.43-10.82-5.48-21.21-12.18-29.79-2.21-2.83-5.44-6.77-5.49-10.54-.04-3.25,2.91-6.09,5.55-7.6.83-.48.08-1.77-.75-1.29h0Z"/>
    <path class="cls-2" d="m362.09,565.62c-2.7-.05-5.66,1.85-7.78,3.28-8.5,5.72-14.99,14.42-20.65,22.8-6.4,9.48-11.89,19.55-16.97,29.78-.31.63.2,1.19.84,1.1,8.63-1.22,17.25-2.51,25.88-3.67.52-.07-.16.04.39-.04.71-.11,1.39-.27,2.07-.53,2.45-.94,4.41-2.77,5.8-4.97,2.51-3.99,3.1-9.05,4.52-13.48.84-2.62,1.67-5.39,2.92-7.86.2-.4-.04-.01.1-.22.2-.29.47-.57.69-.84.96-1.22,1.87-2.48,2.69-3.8,2.21-3.5,4.21-7.65,3.88-11.9-.08-.95-1.57-.96-1.49,0,.32,4-1.59,7.84-3.67,11.15-1.01,1.6-2.39,3.01-3.36,4.61-.94,1.54-1.49,3.55-2.09,5.23-1.58,4.42-2.4,9.11-4.05,13.48-1.49,3.96-4.42,7.12-8.7,7.72-4.17.58-8.33,1.18-12.5,1.77-4.49.64-8.98,1.27-13.47,1.91.28.37.56.73.84,1.1,7.47-15.04,15.77-30.31,27.03-42.91,4.05-4.53,8.96-9.6,14.85-11.69.82-.29,1.67-.53,2.22-.52.96.02.96-1.48,0-1.5h0Z"/>
    <path class="cls-2" d="m491.54,593.36c-7.72,1.03-15.42,2.35-23.07,3.79-14.52,2.74-29.09,5.95-43.05,10.85-6.49,2.28-13.11,4.9-18.73,8.94-.54.39-.43,1.45.38,1.39,1.25-.09,2.59.33,3.65.97,3.5,2.11,3.86,6.27,4.26,9.92.34,3.08,1.37,6.14,3.91,8.09,2.53,1.94,5.86,2.43,8.94,2.72,10.59,1.01,21.44-.19,31.56-3.48,4.83-1.57,10.1-3.45,14.14-6.62,3.92-3.08,5.53-7.85,8.82-11.45,3.91-4.28,9.67-4.81,15.12-5.05,5-.22,10.04-.29,14.71-2.3.88-.38.12-1.67-.75-1.29-8.37,3.61-18.3.22-26.41,4.65-4.08,2.23-6.08,6.26-8.57,9.97-3.22,4.8-8.15,7.17-13.39,9.21-10.55,4.1-21.93,5.77-33.22,5.03-3.43-.23-7.56-.46-10.31-2.79-3.15-2.66-2.77-6.72-3.44-10.38-.8-4.35-4.04-9.04-9.01-8.68.13.46.25.93.38,1.39,4.93-3.54,10.65-5.96,16.32-8.05,6.92-2.55,14.03-4.58,21.18-6.38,12.71-3.21,25.61-5.7,38.56-7.75,1.98-.32,3.97-.62,5.96-.91.54-.08,1.07-.15,1.61-.23.15-.02.78-.11.48-.07.94-.12.95-1.62,0-1.49h0Z"/>
    <path class="cls-2" d="m414.07,684.84c3.54,6.82,8,13.26,12.68,19.33,9.02,11.69,20.02,22.74,33.53,29.09,7.88,3.71,16.5,5.54,25.21,4.69.65-.06,1.13-1.06.38-1.39-4.53-2-8.31-5.37-9.89-10.12-2.14-6.44-5.3-12.34-10.44-16.89-3.85-3.41-8.23-6.33-12.36-9.37-4.88-3.58-9.78-7.13-14.82-10.49-2.13-1.42-4.27-2.82-6.51-4.05-1.22-.67-2.62-1.53-4.04-1.61-.96-.06-.96,1.44,0,1.5,1.22.07,2.53.98,3.55,1.56,2.02,1.13,3.96,2.39,5.89,3.67,4.84,3.2,9.55,6.6,14.23,10.02,4.18,3.06,8.55,6.03,12.5,9.39,5.58,4.73,8.51,10.79,10.86,17.55,1.62,4.67,5.85,8.17,10.29,10.14.13-.46.25-.93.38-1.39-15.76,1.54-30.23-5.98-41.77-16.13-9.57-8.42-17.62-18.6-24.36-29.39-1.4-2.24-2.78-4.51-4-6.86-.44-.85-1.73-.1-1.29.75h0Z"/>
    <path class="cls-2" d="m402.44,630.82c-2.92,4.88-4.02,11.16-4.18,16.74-.18,6.03.94,12.08,3.06,17.72,1.35,3.6,3.08,7.06,5.11,10.33,1.69,2.73,3.55,5.68,5.77,8.02,1.76,1.85,4.69,2.28,7.11,2.45,1.58.11,3.16.06,4.74-.07,1.83-.15,4.18-.18,5.9-.82.55-.2,1.06-.55,1.49-.94,2.51-2.32,1.76-5.99.46-8.74-1.68-3.58-4.41-6.56-6.99-9.5-2.31-2.63-4.7-5.2-6.98-7.85-1.68-1.95-3.39-4.02-4.34-6.44-.97-2.47-.68-5-1.18-7.54-1.02-5.21-4.81-10.1-8.79-13.49-.73-.62-1.79.43-1.06,1.06,3.27,2.78,6.27,6.5,7.75,10.55.88,2.4.69,4.83,1.13,7.29.31,1.76.97,3.42,1.89,4.95,2.72,4.54,6.81,8.33,10.28,12.27,2.53,2.88,5.21,5.77,6.89,9.26.8,1.67,1.55,3.81.87,5.65-.29.79-.84,1.48-1.58,1.9-.11.06-.48.23-.25.14-1.85.72-4.39.71-6.36.83-3.02.18-7.21.34-9.7-1.76-.13-.11-.27-.28-.17-.17-1.36-1.45-2.52-3.2-3.65-4.83-2.15-3.1-4.06-6.37-5.61-9.81-2.54-5.62-4.1-11.71-4.29-17.89-.19-6.11.77-13.17,3.98-18.53.5-.83-.8-1.58-1.29-.75Z"/>
    <path class="cls-2" d="m400.75,634.39c-2.4-10.9,10.64-15.77,10.77-15.81l.51,1.4s-3.08,1.14-5.81,3.47c-3.55,3.04-4.9,6.61-4.02,10.62l-1.46.32Z"/>
    <path class="cls-2" d="m419.6,637.39c.04,1.85-1.53,3.12-3.05,3.88-1.66.84-3.28.68-5.06.4-.94-.15-1.35,1.29-.4,1.44,2.4.38,4.51.47,6.68-.81,1.82-1.08,3.38-2.69,3.33-4.91-.02-.96-1.51-.96-1.5,0h0Z"/>
    <path class="cls-2" d="m637.99,356.49c-5.58-4.39-11.15-8.79-16.73-13.18-1.38-1.09-3.01-2.51-4.88-1.62-3.45,1.65-1.69,10.51-6.87,9.04-.23-.06.23.09-.13-.06-.29-.12-.57-.27-.85-.4-1.09-.52-2.17-1.08-3.22-1.66-1.99-1.1-5.59-2.75-6.3-5.12-.19-.64-1.01-.71-1.37-.18-1.63,2.45-3.76,5.17-6.36,6.62-1.43.8-3.77,1.04-5.39.7-2.37-.51-2.39-3.38-3-5.24-.6-1.84-2.27-4.09-4.48-3.07-.54.25-1.01.75-1.46,1.12-1.82,1.5-3.59,3.06-5.36,4.63-3.28,2.91-6.59,5.79-9.92,8.65-.73.63.33,1.68,1.06,1.06,2.88-2.47,5.74-4.96,8.59-7.47,1.94-1.71,3.86-3.43,5.84-5.1.49-.41.97-.81,1.47-1.21.18-.15.73-.42.37-.31,1.37-.43,2.17,1.19,2.53,2.4.54,1.8.71,3.89,2.25,5.19,2,1.68,6.15,1.15,8.25-.04,2.83-1.61,5.11-4.48,6.9-7.16-.46-.06-.91-.12-1.37-.18.57,1.9,2.52,3.21,4.08,4.26,1.98,1.33,4.1,2.45,6.25,3.48,2.16,1.03,4.42,1.07,5.99-1.09.85-1.17,1.18-2.56,1.47-3.94.26-1.21.57-3.55,2.19-3.68.76-.06,1.4.49,1.97.91,2.96,2.23,5.83,4.59,8.74,6.89,2.89,2.28,5.79,4.56,8.68,6.84.75.59,1.81-.46,1.06-1.06h0Z"/>
    <path class="cls-2" d="m616.67,365.94c-5.24,3.75-9.79,9.41-8.98,16.25.36,3.1,1.76,5.29,4.68,6.49,3.33,1.37,7.03,1.33,10.56,1.15.96-.05.96-1.54,0-1.5-2.79.14-5.64.22-8.36-.5-1.37-.36-3-.9-3.98-2-1.13-1.27-1.44-3.28-1.49-4.92-.15-5.79,3.89-10.49,8.33-13.68.78-.56.03-1.85-.75-1.29h0Z"/>
    <path class="cls-2" d="m587.98,371.32c4.48,3.2,8.44,7.87,8.33,13.68-.03,1.49-.31,3.21-1.18,4.46-.93,1.33-2.43,1.94-3.96,2.38-2.82.81-5.79.73-8.69.58-.96-.05-.96,1.45,0,1.5,3.51.18,7.16.21,10.47-1.11,2.97-1.18,4.4-3.38,4.77-6.52.8-6.83-3.74-12.5-8.98-16.25-.78-.56-1.53.74-.75,1.29h0Z"/>
    <path class="cls-2" d="m623.52,345.05c-4.79-3.49-4.17-10.68-.34-14.67,1.71-1.78,4.15-2.79,6.56-1.94,1.19.42,2.27,1.34,2.65,2.57.27.89.18,2.1-.54,2.79-1.18,1.12-3.72.15-2.64-1.66.49-.83-.8-1.58-1.29-.75-2.09,3.51,3.04,6.11,5.34,3.05,2.47-3.28-.88-7.15-4.21-7.71-4.46-.75-8.07,2.97-9.57,6.81-1.79,4.6-.8,9.82,3.29,12.8.78.57,1.53-.73.75-1.29h0Z"/>
    <path class="cls-2" d="m574.56,347.24c4.08-2.98,5.08-8.2,3.29-12.8-1.5-3.84-5.1-7.56-9.57-6.81-3.32.56-6.69,4.44-4.21,7.71,2.31,3.04,7.44.46,5.34-3.06-.49-.83-1.79-.07-1.29.75.98,1.64-1.45,2.79-2.64,1.66-.61-.59-.74-1.57-.61-2.35.24-1.46,1.37-2.52,2.72-3,2.39-.86,4.89.17,6.56,1.94,3.8,4.01,4.48,11.16-.34,14.67-.77.56-.02,1.86.75,1.29h0Z"/>
    <path class="cls-2" d="m633.28,359.1c.25,1.13.58,2.26,1.2,3.23,1.88,2.98,5.82,3.78,9.34,4.08,2.14.18,4.28.29,6.43.31,1.44.02,2.91-.01,4.26-.52,3.18-1.2,4.84-4.76,5.33-8.12.46-3.12.07-6.62-2.15-8.86-.95-.96-2.16-1.61-3.39-2.16-3.98-1.79-10.4-3.77-14.77-2.21-6.06,2.17-7.52,8.57-6.25,14.25Z"/>
    <path class="cls-2" d="m538.43,358.87c.25,1.13.58,2.26,1.2,3.23,1.88,2.98,5.82,3.78,9.34,4.08,2.14.18,4.28.29,6.43.31,1.44.02,2.91-.01,4.26-.52,3.18-1.2,4.84-4.76,5.33-8.12.46-3.12.07-6.62-2.15-8.86-.95-.96-2.16-1.61-3.39-2.16-3.98-1.79-10.4-3.77-14.77-2.21-6.06,2.17-7.52,8.57-6.25,14.25Z"/>
    <path class="cls-2" d="m607.06,408.6c.42,28.43,3.56,56.74,4.36,85.15.23,8.04.25,16.08-.02,24.12-.03.96,1.46.96,1.5,0,.97-28.43-1.89-56.79-3.45-85.14-.44-8.04-.78-16.08-.9-24.13-.01-.96-1.51-.96-1.5,0h0Z"/>
    <path class="cls-2" d="m696.84,605.02c5.43-7.74,5.79-18.35,1.4-26.66-5.26-9.95-16.42-13.07-26.17-16.85-3.25-1.26-6.79-2.67-9.12-5.4-2.24-2.63-3.09-6.79-.57-9.53.65-.71-.4-1.77-1.06-1.06-3.08,3.35-2.26,8.41.57,11.64,3.63,4.15,9.62,5.74,14.61,7.58,5.71,2.12,11.61,4.39,16.11,8.64,3.92,3.7,6.31,8.82,6.96,14.15.72,5.88-.62,11.85-4.03,16.72-.55.79.74,1.54,1.29.75h0Z"/>
    <path class="cls-2" d="m528.47,618.11c-6.11-8.71-5.56-21.46,1.57-29.47,4.06-4.56,9.77-7.12,15.36-9.25,5.06-1.93,10.89-3.37,15.15-6.86,3.84-3.15,5.88-9.1,2.15-13.16-.65-.71-1.71.35-1.06,1.06,2.1,2.28,1.89,5.73.35,8.27-1.62,2.67-4.5,4.29-7.27,5.52-5.28,2.35-10.89,3.89-16.1,6.43-4.63,2.25-8.89,5.33-11.74,9.68-2.57,3.91-3.94,8.58-4.11,13.24-.2,5.43,1.28,10.84,4.41,15.29.55.78,1.84.04,1.29-.75h0Z"/>
    <path class="cls-2" d="m690.66,609.06c2.59-4.64,3.79-9.81,3.47-15.12-.06-.96-1.55-.96-1.5,0,.3,5.06-.8,9.94-3.27,14.37-.47.84.82,1.6,1.29.75h0Z"/>
    <path class="cls-2" d="m691.02,586.38c-3.67-5.55-8.69-9.99-14.67-12.92-.86-.42-1.62.87-.75,1.29,5.75,2.82,10.6,7.04,14.14,12.39.53.8,1.82.05,1.29-.75h0Z"/>
    <path class="cls-2" d="m683.22,595.06c.43,3.49.76,7.15-1.61,10.06-1.79,2.2-4.41,3.59-6.85,4.95-5.87,3.25-12.49,7.99-19.54,6.94-.94-.14-1.35,1.3-.4,1.44,7.75,1.15,14.82-3.82,21.27-7.41,2.67-1.49,5.45-3.13,7.22-5.7,2.12-3.08,1.85-6.75,1.41-10.28-.12-.94-1.61-.95-1.5,0h0Z"/>
    <path class="cls-2" d="m669.07,605c-9.06,2.46-18.36,3.69-27.74,3.67-.96,0-.96,1.49,0,1.49,9.51.02,18.96-1.23,28.14-3.72.93-.25.53-1.69-.4-1.44h0Z"/>
    <path class="cls-2" d="m643.42,614.73c-5.52.37-11.05.36-16.57-.03-.96-.07-.96,1.43,0,1.5,5.52.39,11.05.4,16.57.03.95-.06.96-1.56,0-1.5h0Z"/>
    <path class="cls-2" d="m563.03,580.89c8.85-4.23,13.46-13.89,11.38-23.44-.2-.94-1.65-.54-1.44.4,1.95,8.94-2.47,17.82-10.69,21.76-.87.42-.11,1.7.75,1.29h0Z"/>
    <path class="cls-2" d="m569.76,557.72c-1.94-3.93-4.19-7.66-6.77-11.21-.56-.77-1.86-.03-1.29.75,2.58,3.54,4.83,7.28,6.77,11.21.43.86,1.71.11,1.29-.75h0Z"/>
    <path class="cls-2" d="m569.56,546.79c-1.75-1.66-2.62-3.84-2.51-6.25.05-.96-1.45-.96-1.49,0-.13,2.78.93,5.4,2.95,7.31.7.66,1.76-.39,1.06-1.06h0Z"/>
    <path class="cls-2" d="m581.84,565.79c.16,3.6-.19,7.12-1.09,10.62-.24.93,1.2,1.33,1.44.4.93-3.62,1.31-7.29,1.14-11.02-.04-.96-1.54-.96-1.5,0h0Z"/>
    <path class="cls-2" d="m660.34,527.97c5.98-16.73,15.39-32.08,27.57-45.01.66-.7-.4-1.76-1.06-1.06-12.36,13.13-21.88,28.7-27.95,45.67-.32.91,1.12,1.3,1.44.4h0Z"/>
    <path class="cls-2" d="m672.84,490.47c7.45-12.01,17.55-22.17,29.53-29.67.81-.51.06-1.8-.75-1.29-12.19,7.64-22.49,17.98-30.07,30.2-.51.82.78,1.57,1.29.75h0Z"/>
    <path class="cls-2" d="m684.79,464.58c10.53-9.97,22.72-18,36.02-23.78.88-.38.12-1.67-.75-1.29-13.41,5.83-25.7,13.96-36.33,24.01-.7.66.36,1.72,1.06,1.06h0Z"/>
    <path class="cls-2" d="m715.07,451.97c3.26-2.3,6.69-4.29,10.3-5.98.87-.41.11-1.7-.75-1.29-3.61,1.69-7.04,3.69-10.3,5.98-.78.55-.03,1.85.75,1.29h0Z"/>
    <path class="cls-2" d="m732.48,442.04c3.54-2.1,7.23-3.86,11.1-5.27.9-.33.51-1.77-.4-1.44-3.99,1.45-7.81,3.25-11.45,5.42-.83.49-.08,1.78.75,1.29h0Z"/>
    <path class="cls-2" d="m577.19,530.3c-6.07-16.98-15.59-32.55-27.95-45.67-.66-.7-1.72.36-1.06,1.06,12.18,12.93,21.59,28.28,27.57,45.01.32.9,1.77.51,1.44-.4h0Z"/>
    <path class="cls-2" d="m564.53,492.44c-7.58-12.23-17.88-22.57-30.07-30.2-.82-.51-1.57.78-.75,1.29,11.98,7.5,22.08,17.66,29.53,29.67.51.82,1.8.07,1.29-.75h0Z"/>
    <path class="cls-2" d="m552.35,466.25c-10.62-10.05-22.91-18.19-36.33-24.01-.87-.38-1.64.91-.75,1.29,13.3,5.78,25.49,13.81,36.02,23.78.7.66,1.76-.39,1.06-1.06h0Z"/>
    <path class="cls-2" d="m521.77,453.41c-3.26-2.3-6.69-4.29-10.3-5.98-.87-.41-1.63.88-.75,1.29,3.61,1.69,7.04,3.69,10.3,5.98.79.56,1.54-.74.75-1.29h0Z"/>
    <path class="cls-2" d="m504.36,443.47c-3.65-2.17-7.47-3.97-11.45-5.42-.91-.33-1.3,1.12-.4,1.44,3.87,1.4,7.56,3.16,11.1,5.27.83.49,1.58-.8.75-1.29h0Z"/>
    <g>
      <path class="cls-2" d="m500.2,564.02c.41-.29.92-.48,1.41-.38.53.11.94.54,1.32.93,2.02,2.08,12.56,9.98,4.49,10.62-4.59.36-12.45-7.48-7.21-11.17Z"/>
      <path class="cls-2" d="m498.94,556.27c-1.9-.99-3.96-2.17-4.64-4.2-.16-.47-.22-1.01,0-1.45.47-.95,1.84-.88,2.85-.58,2.48.73,11.98,5.14,12.21,8.18.37,4.84-8.99-1.2-10.42-1.95Z"/>
      <path class="cls-2" d="m489.26,562.56c.07.2.14.4.12.61-.05.54-.64.86-1.17.96-1.22.24-2.5-.1-3.57-.73-1.07-.63-1.96-1.52-2.8-2.44-.77-.85-1.5-1.74-2.19-2.66-.66-.88-1.31-2.02-.83-3.02,1.1-2.3,4.3-.75,5.61.38,2.17,1.86,3.86,4.19,4.83,6.89Z"/>
      <path class="cls-2" d="m481.6,536.05c-1.23-.63-2.64-.99-4-.72-.24.05-.49.12-.65.29-.43.44-.11,1.17.24,1.67.61.88,1.29,1.72,2.02,2.5.79.84,1.67,1.64,2.73,2.1,1.39.6,5.2,1.51,4.6-1.14-.48-2.09-3.17-3.8-4.94-4.71Z"/>
      <path class="cls-2" d="m474.32,546.88c.12.31.37.54.62.77.55.5,1.1,1.01,1.64,1.51.27.25.56.51.92.62,1.94.58,1.99-2.35.94-3.26-.75-.65-4.77-1.31-4.12.36Z"/>
      <path class="cls-2" d="m500.84,586.01c-.05,1.55.83,3.09,2.18,3.85,2.53,1.42,3.78-2.76,2.8-4.55-1.16-2.09-4.89-2.11-4.97.7Z"/>
      <path class="cls-2" d="m520.16,569.99c.56.52,1.2.98,1.94,1.15.36.09.76.1,1.08-.1.34-.21.51-.62.51-1.02,0-.4-.13-.78-.28-1.14-.67-1.56-2.4-3.81-4.4-3.1-2.08.74.26,3.38,1.15,4.2Z"/>
      <path class="cls-2" d="m457.35,535.68c-2.48-1.59-5.11-3.1-8.01-3.64-.5-.09-1.04-.15-1.48.1-.65.37-.79,1.29-.5,1.98.28.69.87,1.2,1.45,1.67,3.53,2.92,7.22,5.66,11.04,8.19.95.63,1.93,1.26,3.01,1.63,1.29.44,3.26.52,4.07-.85.74-1.25-.47-2.45-1.36-3.21-2.55-2.18-5.4-4.08-8.22-5.89Z"/>
      <path class="cls-2" d="m465.03,530.6c1.17,1.31,2.66,2.5,4.41,2.63.57.04,1.26-.1,1.48-.63.56-1.33-1.99-3.31-3.12-3.66-1.35-.42-4.71-.49-2.78,1.67Z"/>
      <path class="cls-2" d="m455.35,508.1c-1.88-.58-3.93-.79-5.81-.23-.38.11-.78.28-.97.63-.13.24-.14.53-.12.81.12,1.43.94,2.7,1.85,3.81,1.8,2.19,4.03,3.99,6.37,5.58,1.32.89,2.71,1.74,4.26,2.12,1.5.37,3.08.29,4.62.21.48-.03.97-.06,1.4-.26,1.05-.5,1.4-1.86,1.24-3.01-.23-1.66-1.23-3.15-2.5-4.25-1.4-1.21-3.12-2.03-4.76-2.88-1.81-.93-3.62-1.93-5.57-2.53Z"/>
      <path class="cls-2" d="m442.66,517.89c-1.64-.84-3.47-1.4-5.32-1.31-.2,0-.41.03-.58.13-.32.18-.45.61-.39.97.06.37.28.69.51.98.86,1.08,1.97,1.93,3.08,2.76,1.52,1.14,5.37,3.75,7.05,1.41,1.44-2.01-3.05-4.27-4.35-4.95Z"/>
      <path class="cls-2" d="m419.62,512.21c-.31-.6-.6-1.26-.49-1.92.12-.66.84-1.25,1.45-.97.26.12.44.36.6.59,2.11,2.95,4.05,6.18,7.09,8.16.66.43,1.37.8,1.95,1.34.58.54,1.01,1.31.92,2.09-.4,3.4-5.39-1.17-6.34-2.08-2.15-2.06-3.84-4.57-5.18-7.21Z"/>
      <path class="cls-2" d="m428.52,503.09c.03-.2.12-.43.31-.5.08-.03.16-.03.25-.03.75.04,1.37.59,1.88,1.14.71.76,2.81,2.77.64,2.95-1.54.13-3.27-2.12-3.07-3.56Z"/>
      <path class="cls-2" d="m432.2,494.84c-.21-.37-.41-.76-.51-1.18-.07-.3-.08-.65.14-.86.12-.12.3-.16.47-.18,1.12-.13,2.09.71,2.9,1.5.54.53,1.09,1.06,1.63,1.59.76.74,1.92,1.85,1.72,3.05-.15.89-.77.94-1.54.69-2.05-.65-3.8-2.82-4.82-4.6Z"/>
      <path class="cls-2" d="m415.8,493.16c.17-.37.54-.67.95-.65.41.02.74.36.94.71.21.37.33.79.45,1.2.4,1.41,1.33,3.32,1.1,4.8-.15.98-.7,1.42-1.52.82-1.59-1.16-2.74-5.15-1.93-6.89Z"/>
      <path class="cls-2" d="m425.59,485.62c.72,1.09.69,5.01-1.11,2.99-.54-.6-.84-1.51-.74-2.31.13-1.01,1.13-1.78,1.85-.68Z"/>
      <path class="cls-2" d="m411.6,487.13c.57.8,1.47,2.64.93,3.65-.41.77-.99.43-1.5-.1-.69-.7-1.12-1.74-1.17-2.71-.07-1.25.82-2.14,1.74-.84Z"/>
    </g>
    <g>
      <path class="cls-2" d="m712.14,549.56c-.43-.25-.95-.4-1.43-.26-.52.15-.89.61-1.24,1.03-1.84,2.24-11.71,10.96-3.62,10.95,4.61,0,11.8-8.45,6.29-11.72Z"/>
      <path class="cls-2" d="m712.77,541.73c1.81-1.14,3.77-2.48,4.29-4.56.12-.48.14-1.02-.11-1.45-.55-.9-1.9-.73-2.89-.35-2.41.93-11.52,6.09-11.51,9.14.02,4.85,8.87-1.92,10.22-2.78Z"/>
      <path class="cls-2" d="m722.93,547.22c-.05.2-.1.41-.07.62.09.53.71.8,1.24.87,1.23.14,2.48-.3,3.5-1.01,1.02-.71,1.84-1.67,2.59-2.65.7-.91,1.35-1.85,1.97-2.82.59-.93,1.14-2.12.59-3.08-1.28-2.21-4.35-.4-5.56.83-2.01,2.03-3.51,4.48-4.26,7.25Z"/>
      <path class="cls-2" d="m728.42,520.18c1.17-.73,2.56-1.2,3.93-1.04.24.03.49.08.68.24.46.4.21,1.15-.1,1.68-.54.93-1.15,1.82-1.81,2.66-.72.91-1.53,1.77-2.56,2.31-1.34.71-5.06,1.92-4.67-.76.31-2.13,2.86-4.05,4.54-5.09Z"/>
      <path class="cls-2" d="m736.55,530.4c-.09.32-.33.57-.55.82-.51.55-1.01,1.09-1.52,1.64-.25.27-.52.55-.86.69-1.89.74-2.17-2.18-1.2-3.17.69-.7,4.64-1.69,4.13.03Z"/>
      <path class="cls-2" d="m713.27,571.54c.17,1.54-.57,3.15-1.86,4.01-2.41,1.62-3.99-2.45-3.15-4.31.98-2.18,4.7-2.49,5.01.29Z"/>
      <path class="cls-2" d="m692.72,557.12c-.52.56-1.12,1.07-1.84,1.31-.35.12-.75.16-1.09,0-.35-.18-.55-.58-.59-.97-.04-.39.06-.79.19-1.16.54-1.61,2.09-3.99,4.14-3.44,2.13.57.01,3.39-.81,4.28Z"/>
      <path class="cls-2" d="m752.56,517.86c2.35-1.79,4.84-3.5,7.69-4.27.49-.13,1.03-.23,1.48-.02.67.32.89,1.23.66,1.94-.23.71-.77,1.26-1.31,1.78-3.29,3.2-6.74,6.22-10.35,9.06-.9.71-1.82,1.41-2.87,1.87-1.25.55-3.21.78-4.13-.52-.84-1.19.27-2.48,1.1-3.31,2.36-2.38,5.05-4.51,7.71-6.53Z"/>
      <path class="cls-2" d="m744.5,513.42c-1.06,1.4-2.45,2.7-4.19,2.98-.57.09-1.26,0-1.53-.51-.67-1.28,1.72-3.46,2.81-3.9,1.31-.53,4.65-.87,2.9,1.44Z"/>
      <path class="cls-2" d="m752.34,490.21c1.83-.73,3.85-1.1,5.78-.7.39.08.8.22,1.02.55.15.23.18.52.18.79,0,1.43-.72,2.77-1.54,3.95-1.61,2.33-3.69,4.3-5.9,6.08-1.24,1-2.56,1.95-4.07,2.46-1.47.49-3.04.54-4.59.58-.48.01-.97.02-1.41-.15-1.09-.41-1.54-1.74-1.48-2.9.09-1.68.97-3.24,2.15-4.43,1.3-1.32,2.95-2.28,4.51-3.25,1.73-1.08,3.46-2.21,5.35-2.97Z"/>
      <path class="cls-2" d="m765.77,498.94c1.57-.97,3.35-1.67,5.2-1.73.2,0,.41,0,.59.08.34.16.5.57.47.94s-.22.71-.43,1.02c-.77,1.15-1.81,2.09-2.85,3-1.43,1.26-5.05,4.17-6.91,1.97-1.6-1.89,2.69-4.51,3.94-5.28Z"/>
      <path class="cls-2" d="m788.29,491.43c.26-.62.5-1.3.33-1.95-.17-.65-.94-1.18-1.53-.85-.25.14-.41.39-.55.64-1.87,3.11-3.54,6.48-6.41,8.7-.63.48-1.3.91-1.83,1.49-.53.59-.9,1.38-.75,2.16.67,3.35,5.28-1.6,6.15-2.58,1.98-2.22,3.46-4.86,4.59-7.6Z"/>
      <path class="cls-2" d="m778.68,483.05c-.04-.2-.15-.42-.35-.47-.08-.02-.17-.02-.25,0-.74.1-1.31.7-1.78,1.29-.64.81-2.58,2.99-.4,2.99,1.55,0,3.09-2.38,2.78-3.8Z"/>
      <path class="cls-2" d="m774.35,475.13c.18-.39.35-.79.41-1.22.05-.3.03-.66-.21-.85-.13-.11-.31-.14-.48-.14-1.13-.04-2.03.88-2.77,1.73-.5.57-1,1.14-1.5,1.71-.7.8-1.77,2-1.47,3.17.22.88.84.87,1.59.57,1.99-.81,3.56-3.11,4.43-4.97Z"/>
      <path class="cls-2" d="m790.55,472.14c-.2-.35-.6-.63-1-.57-.41.05-.71.41-.88.79-.18.39-.27.82-.35,1.24-.29,1.44-1.06,3.42-.71,4.88.23.97.81,1.36,1.58.69,1.49-1.29,2.32-5.35,1.37-7.02Z"/>
      <path class="cls-2" d="m780.19,465.4c-.63,1.14-.29,5.05,1.35,2.89.49-.65.71-1.57.55-2.36-.21-.99-1.27-1.68-1.9-.53Z"/>
      <path class="cls-2" d="m794.25,465.79c-.51.85-1.25,2.75-.64,3.71.47.74,1.02.35,1.49-.22.63-.75.97-1.83.95-2.8-.03-1.25-.99-2.07-1.81-.7Z"/>
    </g>
    <path class="cls-2" d="m462.96,398.99c11.8.89,23.47-5.01,29.82-14.98.52-.81-.78-1.56-1.29-.75-6.08,9.55-17.25,15.09-28.53,14.24-.96-.07-.95,1.42,0,1.5h0Z"/>
    <path class="cls-2" d="m494.74,397.75c4.6-4.15,8.41-8.97,11.46-14.36,1.57-2.76,3.07-5.63,5.57-7.68,2.68-2.2,6.04-3.29,9.48-3.28.96,0,.96-1.49,0-1.5-6.44,0-11.47,3.49-14.72,8.86-1.73,2.86-3.27,5.8-5.24,8.51-2.23,3.06-4.8,5.84-7.61,8.38-.72.65.34,1.7,1.06,1.06h0Z"/>
    <path class="cls-2" d="m502.06,373.31c2.31-2.49,4.73-5.03,8.13-5.91.93-.24.54-1.68-.4-1.44-3.65.95-6.3,3.61-8.79,6.29-.65.7.4,1.76,1.06,1.06h0Z"/>
    <path class="cls-2" d="m518.17,365.27c4.16-.43,8.32-.55,12.5-.38.96.04.96-1.46,0-1.5-4.18-.17-8.34-.05-12.5.38-.95.1-.96,1.59,0,1.5h0Z"/>
    <path class="cls-2" d="m432.55,411.83c10.02-.04,20.23-.22,29.56-4.33.88-.39.12-1.68-.75-1.29-9.05,4-19.08,4.09-28.8,4.13-.96,0-.96,1.5,0,1.5h0Z"/>
    <path class="cls-2" d="m456.77,414.9c8.87-.09,17.51-2.59,25.05-7.26.82-.51.07-1.8-.75-1.29-7.33,4.54-15.68,6.97-24.3,7.06-.96.01-.96,1.51,0,1.49h0Z"/>
    <path class="cls-2" d="m628.22,365.54c-2.46,1.94-4.87,4.37-5.68,7.5-.72,2.78.66,4.32,3.13,5.33.89.36,1.28-1.08.4-1.44-5.45-2.22.6-8.28,3.22-10.34.76-.6-.31-1.65-1.06-1.06h0Z"/>
    <path class="cls-2" d="m628.62,380.45c2.97,1.76,6.36,1.94,9.73,2,.96.02.96-1.48,0-1.5-3.11-.06-6.23-.17-8.98-1.79-.83-.49-1.58.8-.75,1.29h0Z"/>
    <path class="cls-2" d="m644.98,382.45h6.17c.96,0,.96-1.49,0-1.49h-6.17c-.96,0-.96,1.49,0,1.49h0Z"/>
    <path class="cls-2" d="m590.99,399.58c-6.88.1-13.72-.5-20.47-1.82-.94-.18-1.34,1.26-.4,1.44,6.88,1.35,13.85,1.98,20.87,1.87.96-.01.96-1.51,0-1.49h0Z"/>
    <path class="cls-2" d="m561.21,396.53c-3.81-.03-8.54-.18-11.82,2.07-.79.54-.04,1.83.75,1.29,3.05-2.08,7.53-1.89,11.07-1.86.96,0,.96-1.49,0-1.5h0Z"/>
    <path class="cls-2" d="m545.22,402.6c-.81.54-1.61,1.08-2.42,1.62-.79.53-.05,1.83.75,1.29.81-.54,1.61-1.08,2.42-1.62.79-.53.05-1.83-.75-1.29h0Z"/>
    <path class="cls-2" d="m695.71,369.85c3.75,1.54,7.41,3.28,9.75,6.74,2.03,2.99,3.48,6.3,5.66,9.21,3.9,5.22,8.94,9.48,15.11,11.71.91.33,1.3-1.12.4-1.44-6.96-2.52-12.41-7.87-16.3-14.06-1.81-2.88-3.09-6.18-5.56-8.59-2.42-2.37-5.58-3.73-8.67-5.01-.89-.37-1.28,1.08-.4,1.44h0Z"/>
    <g>
      <path class="cls-2" d="m753.81,120.02c.25.36.52.73.92.92.4.18.95.1,1.16-.29.1-.18.1-.4.1-.61-.03-1.45-.48-6.64-2.85-6.1-2.67.61-.12,4.92.68,6.08Z"/>
      <path class="cls-2" d="m753.51,109.14c.22.9.94,1.66,1.83,1.92.39.11.89.1,1.12-.24.13-.19.14-.43.15-.66,0-.7-.04-1.44-.38-2.05-.95-1.72-3.17-.91-2.71,1.03Z"/>
      <path class="cls-2" d="m765.23,126.77c.84.75,1.8,1.43,2.92,1.58.36.05.76.02,1.02-.23.14-.14.22-.33.27-.53.2-.88-.22-1.77-.65-2.56-.85-1.58-4.57-8.28-7.14-6.41-2.48,1.81,2.32,7.01,3.58,8.14Z"/>
      <path class="cls-2" d="m764.07,137.58c.13.02.26.04.38,0,.25-.08.37-.37.42-.63.24-1.25-.4-2.48-1.07-3.56-.79-1.28-5.07-6.28-5.79-2.39-.51,2.77,3.65,6.13,6.06,6.57Z"/>
      <path class="cls-2" d="m746.12,101.72c-.01-.34.01-.7.2-.99s.59-.46.88-.29c.23.13.34.4.42.66.28.86,1.7,3.64.32,4.11-1.32.45-1.8-2.62-1.83-3.49Z"/>
      <path class="cls-2" d="m773.18,137.58c0,.13-.02.26-.09.36-.13.2-.42.25-.66.22-1.01-.12-3.02-2.03-1.74-2.91,1.43-.99,2.56,1.18,2.49,2.32Z"/>
      <path class="cls-2" d="m760.65,112.32c-.2.72.49,1.52,1.23,1.43.74-.09,1.21-1.05.83-1.69-.38-.64-1.44-.7-1.88-.1l-.18.36Z"/>
      <path class="cls-2" d="m757.32,101.66c-.33.32-.21.91.12,1.22.33.32.8.43,1.25.51.33.06.72.1.97-.13.18-.16.24-.42.25-.66.03-.96-.74-1.92-1.7-1.98-.44-.03-.94.18-1.05.61l.16.44Z"/>
      <path class="cls-2" d="m762.27,107.23c-.18.3,0,.71.29.9.29.19.66.22,1,.24.42.03.88.04,1.2-.23.35-.3.38-.86.15-1.25-.23-.39-.67-.63-1.11-.74-.32-.08-.67-.09-.97.04-.3.13-.54.43-.53.76l-.03.27Z"/>
      <path class="cls-2" d="m768.66,146.97c.24.33.61.68,1.01.58.27-.06.45-.31.56-.56.31-.67.29-1.45.12-2.17-.17-.72-.49-1.39-.76-2.08-.49-1.23-1.97-2.14-2.36-.28-.31,1.47.59,3.35,1.43,4.5Z"/>
      <path class="cls-2" d="m777.26,149.54c.13-.02.27-.07.37-.16.16-.15.21-.39.23-.61.07-.86-1.31-4.74-2.41-3.01-.74,1.17.19,4.07,1.81,3.78Z"/>
      <path class="cls-2" d="m773.51,154.3c-.01.33,0,.67.14.97.19.43.6.73,1.04.92.12.05.26.1.39.08.2-.02.37-.18.5-.34.36-.44.61-.99.64-1.56s-.19-1.16-.63-1.53c-1.34-1.13-2.04.28-2.08,1.46Z"/>
      <path class="cls-2" d="m773.4,165.11c.04.7.3,1.47.92,1.77.66.33,1.47.01,2.05-.45,1.04-.84,1.67-2.18,1.63-3.52-.01-.6-.19-1.25-.68-1.59-.76-.53-2.1-.15-2.76.43-.87.76-1.23,2.25-1.17,3.35Z"/>
      <path class="cls-2" d="m781.13,157.61c.49-.17,1.1.11,1.28.6.18.49-.1,1.1-.58,1.29s-1.1-.08-1.3-.56c-.2-.48.06-1.1.54-1.3l.06-.02Z"/>
      <path class="cls-2" d="m772.67,175.59c.24.72,1.15,1.15,1.82.82.22-.11.41-.28.56-.48.34-.44.52-1.05.31-1.57-.71-1.75-3.26-.47-2.69,1.23Z"/>
      <path class="cls-2" d="m780.28,172.39c-.02,1.1.09,2.29.81,3.11.27.31.65.57,1.07.59.55.02,1.05-.37,1.31-.86.25-.49.3-1.06.33-1.61.03-.74,0-1.51-.27-2.2-.35-.88-1.54-2.09-2.61-1.91-.92.16-.62,2.14-.64,2.88Z"/>
      <path class="cls-2" d="m781.49,186.67c.42.17.91.28,1.33.11.61-.26.84-1.01.83-1.67-.03-1.34-.75-2.56-1.56-3.62-.4-.52-.84-1.04-1.42-1.35-.58-.32-1.32-.41-1.89-.07-2.58,1.5,1.08,5.95,2.72,6.61Z"/>
      <path class="cls-2" d="m770.88,169c-.24.44-.33.96-.26,1.46.06.41.31.86.72.9.47.05.81-.46.92-.93.1-.42.1-.89-.16-1.23-.26-.34-.84-.44-1.1-.1l-.12-.11Z"/>
      <path class="cls-2" d="m725.56,156.94c-.41.84-.62,1.77-.78,2.7-.04.2-.05.44.12.55.08.05.17.06.26.06.25.02.51.03.75-.05.24-.08.43-.26.6-.43.83-.83,1.48-1.83,1.91-2.93.29-.74.31-2.13-.83-1.95-.88.13-1.67,1.33-2.02,2.05Z"/>
      <path class="cls-2" d="m724.45,164.4c.02.34.13.72.44.88.39.21.86-.03,1.18-.34.38-.38.65-.89.66-1.43.01-.62-.6-1.73-1.37-1.39-.58.25-.92,1.75-.9,2.28Z"/>
      <path class="cls-2" d="m721.03,164.69c-.37.2-.64.57-.75.97-.06.25-.03.58.21.69.09.04.2.04.31.03.38-.03.77-.15,1.04-.41.27-.27.4-.7.23-1.04-.17-.34-.68-.48-.96-.23h-.08Z"/>
      <path class="cls-2" d="m721.44,159.43c-.13.06-.27.13-.35.24-.09.12-.1.3,0,.39.05.04.11.06.18.08.27.07.57.08.8-.07.23-.16.32-.5.15-.73-.16-.22-.57-.2-.68.05l-.1.03Z"/>
      <path class="cls-2" d="m729.75,151.93c-.37.23-.71.53-.97.87-.1.12-.19.26-.19.42-.02.32.33.56.64.55.32-.01.6-.21.84-.42.23-.21.46-.46.49-.77s-.23-.66-.53-.6l-.27-.06Z"/>
      <path class="cls-2" d="m725.38,170.01c0,.36.14.77.47.89.28.11.6-.02.86-.17.32-.17.63-.37.86-.65s.37-.65.3-1.01c-.08-.42-.42-.73-.78-.98-1.08-.75-1.74,1.02-1.73,1.91Z"/>
      <path class="cls-2" d="m728.11,173.02c-.26.13-.36.47-.26.74.1.27.36.46.64.51.21.04.46.01.59-.16.1-.13.1-.3.1-.46,0-.15,0-.3-.05-.43s-.19-.25-.34-.24c-.15.01-.31.16-.44.08l-.24-.04Z"/>
      <path class="cls-2" d="m722.05,173.38c-.17.3-.21.68-.02.97.12.18.31.29.51.35.39.12.84.04,1.14-.24s.39-.76.19-1.12c-.2-.35-.69-.52-1.05-.32,0,0-.6.07-.76.36Z"/>
    </g>
    <g>
      <path class="cls-2" d="m445.91,120.14c-.25.36-.52.73-.92.92s-.95.1-1.16-.29c-.1-.18-.1-.4-.1-.61.03-1.45.48-6.64,2.85-6.1,2.67.61.12,4.92-.68,6.08Z"/>
      <path class="cls-2" d="m446.21,109.26c-.22.9-.94,1.66-1.83,1.92-.39.11-.89.1-1.12-.24-.13-.19-.14-.43-.15-.65,0-.7.04-1.44.38-2.05.95-1.72,3.17-.91,2.71,1.03Z"/>
      <path class="cls-2" d="m434.49,126.89c-.84.75-1.8,1.43-2.92,1.58-.36.05-.76.02-1.02-.23-.14-.14-.22-.34-.27-.53-.2-.88.22-1.76.65-2.56.85-1.58,4.57-8.28,7.14-6.41,2.48,1.81-2.32,7.01-3.58,8.14Z"/>
      <path class="cls-2" d="m435.65,137.69c-.13.02-.26.04-.38,0-.25-.08-.37-.37-.42-.63-.24-1.25.4-2.48,1.07-3.56.79-1.28,5.07-6.28,5.79-2.39.51,2.77-3.65,6.13-6.06,6.57Z"/>
      <path class="cls-2" d="m453.6,101.84c.01-.34-.01-.7-.2-.99s-.59-.46-.88-.29c-.23.13-.34.4-.42.66-.28.85-1.7,3.64-.32,4.11,1.32.45,1.8-2.62,1.83-3.49Z"/>
      <path class="cls-2" d="m426.54,137.69c0,.13.02.26.09.36.13.2.42.25.66.22,1.01-.12,3.02-2.03,1.74-2.91-1.43-.99-2.56,1.18-2.49,2.32Z"/>
      <path class="cls-2" d="m439.08,112.44c.2.72-.49,1.52-1.23,1.43-.74-.1-1.21-1.05-.83-1.7.38-.64,1.44-.7,1.88-.1l.18.36Z"/>
      <path class="cls-2" d="m442.4,101.77c.33.32.21.91-.12,1.22-.33.32-.8.43-1.25.51-.33.06-.72.1-.97-.13-.18-.16-.24-.42-.25-.66-.03-.96.74-1.92,1.7-1.98.44-.03.94.18,1.05.6l-.16.44Z"/>
      <path class="cls-2" d="m437.45,107.34c.18.3,0,.71-.29.9s-.66.22-1,.24c-.42.03-.88.04-1.2-.23-.35-.3-.38-.86-.15-1.25.23-.39.67-.63,1.11-.74.32-.08.67-.09.97.04.3.13.54.43.53.76l.03.27Z"/>
      <path class="cls-2" d="m431.06,147.09c-.24.33-.6.68-1.01.58-.27-.06-.45-.31-.56-.55-.31-.67-.29-1.45-.12-2.17.17-.72.49-1.39.76-2.08.49-1.23,1.97-2.14,2.36-.28.31,1.47-.59,3.35-1.43,4.5Z"/>
      <path class="cls-2" d="m422.46,149.66c-.13-.02-.27-.07-.37-.16-.16-.15-.21-.39-.23-.61-.07-.86,1.31-4.74,2.41-3.01.74,1.17-.19,4.07-1.81,3.78Z"/>
      <path class="cls-2" d="m426.22,154.42c.01.33,0,.67-.14.97-.19.43-.6.73-1.04.92-.13.05-.26.1-.39.08-.2-.02-.37-.18-.5-.34-.36-.44-.61-.99-.64-1.56-.03-.57.19-1.16.63-1.53,1.34-1.13,2.04.28,2.08,1.46Z"/>
      <path class="cls-2" d="m426.32,165.22c-.04.7-.3,1.47-.92,1.77-.66.33-1.47.01-2.05-.45-1.04-.84-1.67-2.18-1.63-3.52.01-.6.19-1.25.68-1.59.76-.53,2.1-.15,2.76.43.87.76,1.23,2.25,1.17,3.35Z"/>
      <path class="cls-2" d="m418.59,157.72c-.49-.17-1.1.11-1.28.6-.18.49.1,1.1.58,1.29.49.19,1.1-.08,1.3-.56.2-.48-.06-1.1-.54-1.31l-.06-.02Z"/>
      <path class="cls-2" d="m427.06,175.71c-.24.72-1.15,1.16-1.82.82-.22-.11-.41-.28-.56-.48-.34-.44-.52-1.05-.31-1.57.71-1.75,3.26-.47,2.69,1.23Z"/>
      <path class="cls-2" d="m419.44,172.5c.02,1.1-.09,2.29-.81,3.11-.28.31-.65.57-1.07.59-.55.02-1.05-.37-1.31-.86-.25-.49-.3-1.06-.33-1.61-.03-.74,0-1.51.27-2.2.35-.88,1.54-2.09,2.61-1.91.92.16.62,2.14.64,2.88Z"/>
      <path class="cls-2" d="m418.23,186.79c-.42.17-.91.28-1.33.11-.61-.26-.84-1.01-.83-1.67.03-1.34.75-2.56,1.56-3.62.4-.52.84-1.04,1.42-1.35.58-.32,1.32-.41,1.89-.07,2.58,1.5-1.08,5.95-2.72,6.62Z"/>
      <path class="cls-2" d="m428.84,169.11c.24.44.33.96.26,1.46-.06.41-.31.86-.72.9-.47.05-.81-.46-.92-.93-.1-.42-.1-.89.16-1.23.26-.34.84-.44,1.1-.1l.12-.11Z"/>
      <path class="cls-2" d="m474.16,156.31c.41.84.62,1.77.78,2.7.04.2.05.44-.12.55-.08.05-.17.06-.26.06-.25.02-.51.03-.75-.05-.24-.08-.43-.26-.6-.43-.83-.83-1.48-1.83-1.91-2.93-.29-.74-.31-2.13.83-1.95.88.13,1.67,1.33,2.02,2.05Z"/>
      <path class="cls-2" d="m475.27,163.77c-.02.34-.13.72-.44.88-.38.21-.86-.03-1.17-.34-.38-.38-.65-.89-.66-1.43-.01-.62.6-1.73,1.37-1.39.58.25.92,1.75.9,2.28Z"/>
      <path class="cls-2" d="m478.69,164.06c.37.21.64.57.75.97.06.25.03.58-.21.69-.09.04-.2.04-.31.03-.38-.03-.77-.15-1.04-.41-.27-.27-.4-.7-.22-1.04.17-.34.68-.48.96-.23h.08Z"/>
      <path class="cls-2" d="m478.28,158.8c.13.06.27.13.35.24.09.12.1.3,0,.39-.05.04-.11.06-.18.08-.27.07-.57.08-.8-.07-.23-.16-.32-.5-.15-.73s.57-.2.68.05l.1.03Z"/>
      <path class="cls-2" d="m469.97,151.29c.37.23.7.53.97.87.1.12.19.26.19.42.02.32-.33.56-.64.55s-.6-.21-.84-.42c-.23-.21-.46-.46-.49-.77-.03-.31.23-.66.53-.6l.27-.06Z"/>
      <path class="cls-2" d="m474.34,169.38c0,.36-.14.77-.47.89-.28.11-.6-.02-.86-.17-.32-.17-.63-.37-.86-.65-.23-.28-.37-.65-.3-1.01.08-.42.43-.73.78-.98,1.08-.75,1.74,1.02,1.73,1.91Z"/>
      <path class="cls-2" d="m471.61,172.39c.26.13.36.47.26.74-.1.27-.36.46-.64.51-.21.04-.46.01-.59-.16-.1-.13-.1-.3-.11-.46,0-.15,0-.3.05-.43.06-.13.19-.25.34-.24.15.01.31.16.44.08l.24-.04Z"/>
      <path class="cls-2" d="m477.67,172.75c.17.3.21.68.02.97-.12.18-.31.29-.51.35-.39.12-.84.04-1.14-.24-.29-.28-.39-.76-.19-1.12.2-.35.69-.52,1.05-.32,0,0,.59.07.76.36Z"/>
    </g>
    <path class="cls-2" d="m817.67,221.21c.37,11.79.68,23.75-2.58,35.21-.26.93,1.18,1.32,1.44.4,3.3-11.59,3.01-23.68,2.64-35.61-.03-.96-1.53-.96-1.5,0h0Z"/>
    <path class="cls-2" d="m810.78,206.94c1.37,5.98,1.87,12.05,1.53,18.17-.05.96,1.44.96,1.5,0,.34-6.25-.19-12.47-1.59-18.57-.21-.94-1.66-.54-1.44.4h0Z"/>
    <path class="cls-2" d="m812.17,232.25c-.46,8.1-1.42,16.15-2.9,24.13-.17.94,1.27,1.34,1.44.4,1.5-8.11,2.49-16.29,2.95-24.53.05-.96-1.44-.96-1.5,0h0Z"/>
    <path class="cls-2" d="m804.82,249.41c-.42,2.6-.84,5.2-1.27,7.81-.15.94,1.29,1.35,1.44.4.42-2.6.84-5.2,1.27-7.81.15-.94-1.29-1.35-1.44-.4h0Z"/>
    <path class="cls-2" d="m746.27,345.66c.28-4.6,1.16-8.95,3.7-12.86,2.24-3.44,5.26-6.3,8.22-9.11.7-.66-.36-1.72-1.06-1.06-3.21,3.05-6.47,6.16-8.8,9.96-2.45,3.98-3.27,8.46-3.56,13.07-.06.96,1.44.96,1.5,0h0Z"/>
    <path class="cls-2" d="m757.25,331.42c5.38-5.5,10.28-11.45,14.66-17.78.55-.79-.75-1.54-1.29-.75-4.31,6.23-9.13,12.06-14.43,17.47-.67.69.38,1.75,1.06,1.06h0Z"/>
    <path class="cls-2" d="m876.07,365.39c.94-4.48,3.05-8.48,6.23-11.77.67-.69-.39-1.75-1.06-1.06-3.35,3.47-5.63,7.71-6.62,12.43-.2.94,1.24,1.34,1.44.4h0Z"/>
    <path class="cls-2" d="m883.48,359.84c5.15-6.85,11.23-12.95,18.06-18.11.76-.57.01-1.87-.75-1.29-7.06,5.33-13.29,11.57-18.6,18.65-.58.77.72,1.52,1.29.75h0Z"/>
    <path class="cls-2" d="m811.83,441.73c1.92-2.43,4.22-4.57,6.54-6.61,2.56-2.24,5.49-4.05,9.02-3.58.95.13.94-1.37,0-1.49-3.27-.44-6.23.94-8.76,2.92-2.85,2.23-5.61,4.87-7.85,7.71-.59.75.46,1.81,1.06,1.06h0Z"/>
    <path class="cls-2" d="m807.56,442.4c.44-1.27,1.04-2.45,1.79-3.56.54-.8-.75-1.55-1.29-.75-.82,1.22-1.46,2.53-1.94,3.92-.31.91,1.13,1.3,1.44.4h0Z"/>
    <path class="cls-2" d="m898.95,476c10.28-1.36,17.96-8.46,25.12-15.38.69-.67-.36-1.73-1.06-1.06-6.82,6.6-14.23,13.64-24.06,14.94-.94.12-.95,1.62,0,1.49h0Z"/>
    <path class="cls-2" d="m911.58,463.25c6.32-3.69,12.35-8.02,16.37-14.26.52-.81-.77-1.56-1.29-.75-3.87,6.02-9.74,10.17-15.83,13.73-.83.49-.08,1.78.75,1.29h0Z"/>
    <path class="cls-2" d="m822,497.44c-1.17,4.56.79,9.1,5.01,11.24.86.43,1.61-.86.75-1.29-3.63-1.83-5.34-5.58-4.32-9.55.24-.93-1.2-1.33-1.44-.4h0Z"/>
    <path class="cls-2" d="m816.53,506.48c2.02,3.49,4.48,7.13,8.88,7.39.96.06.96-1.44,0-1.49-3.79-.23-5.88-3.69-7.59-6.65-.48-.83-1.77-.08-1.29.75h0Z"/>
    <path class="cls-2" d="m833.22,573.15c-7.45-3.63-15.71-4.34-23.85-4.93-.96-.07-.96,1.43,0,1.5,7.87.57,15.9,1.22,23.1,4.73.86.42,1.62-.87.75-1.29h0Z"/>
    <path class="cls-2" d="m802.42,569.13c-9.5-.67-19.03-.86-28.55-.56-.96.03-.96,1.53,0,1.5,9.52-.3,19.05-.12,28.55.56.96.07.96-1.43,0-1.5h0Z"/>
    <path class="cls-2" d="m860.77,651.93c-2.82,6.66-4.32,13.7-4.4,20.94-.01.96,1.48.96,1.5,0,.08-6.96,1.48-13.78,4.2-20.19.37-.88-.92-1.64-1.29-.75h0Z"/>
    <path class="cls-2" d="m865.13,659.79c2.22-7.14,5.46-13.86,9.65-20.05.54-.8-.75-1.55-1.29-.75-4.25,6.3-7.54,13.15-9.8,20.41-.29.92,1.16,1.31,1.44.4h0Z"/>
    <path class="cls-2" d="m776.87,686.25c7.7-7.44,13.87-16.29,18.14-26.11.38-.87-.91-1.64-1.29-.75-4.23,9.71-10.29,18.45-17.91,25.81-.69.67.36,1.73,1.06,1.06h0Z"/>
    <path class="cls-2" d="m749.56,611.41c5.86,1.37,11.63,3.07,17.29,5.1.91.33,1.3-1.12.4-1.44-5.67-2.03-11.43-3.73-17.29-5.1-.94-.22-1.34,1.22-.4,1.44h0Z"/>
    <path class="cls-2" d="m736.94,604.61c2.31.51,4.64.79,7.01.85.96.02.96-1.47,0-1.5-2.23-.06-4.43-.32-6.61-.8-.94-.21-1.34,1.23-.4,1.44h0Z"/>
    <path class="cls-2" d="m440.23,237.35c.76,4.39,2.75,8.44,3.54,12.81.91,5.04-.34,10.01-2.67,14.49-.44.85.85,1.61,1.29.75,2.25-4.34,3.64-9.19,3.05-14.1-.59-4.95-2.94-9.46-3.78-14.35-.16-.95-1.6-.55-1.44.4h0Z"/>
    <path class="cls-2" d="m444.22,229.25c-.09,4.18.74,8.19,2.44,12.01.39.88,1.68.12,1.29-.75-1.59-3.58-2.32-7.35-2.23-11.26.02-.96-1.47-.96-1.49,0h0Z"/>
    <path class="cls-2" d="m440.29,229.49c.06-1.39-.08-2.86.24-4.23.38-1.62,1.38-2.5,2.78-3.34.82-.49.07-1.79-.75-1.29-1.39.83-2.58,1.73-3.18,3.29-.68,1.77-.51,3.71-.58,5.57-.04.96,1.46.96,1.49,0h0Z"/>
    <path class="cls-2" d="m409.61,283.03c-.39,4.44-2.33,8.55-2.95,12.95-.58,4.06-.35,8.15.02,12.21.09.95,1.58.96,1.5,0-.4-4.4-.68-8.88.17-13.25.78-4.02,2.4-7.8,2.77-11.91.09-.96-1.41-.95-1.5,0h0Z"/>
    <path class="cls-2" d="m399.21,303.15c-.28,7.85.17,17.04,7.53,21.72.81.52,1.57-.78.75-1.29-6.87-4.36-7.05-13.17-6.79-20.43.03-.96-1.46-.96-1.49,0h0Z"/>
    <path class="cls-2" d="m409.71,320.25c1.99,4.26,6.29,6.92,8.06,11.29.36.88,1.8.5,1.44-.4-1.84-4.52-6.16-7.26-8.21-11.64-.41-.87-1.7-.11-1.29.75h0Z"/>
    <path class="cls-2" d="m478.21,366.67c-2.93,7.5-10.28,12.04-18.28,11.52-.96-.06-.96,1.43,0,1.49,8.72.57,16.56-4.51,19.72-12.61.35-.9-1.09-1.29-1.44-.4h0Z"/>
    <path class="cls-2" d="m458.31,372.18c-4.28,2.95-9.64,2.7-14.37,4.49-4.06,1.53-7.28,4.59-9.09,8.53-.4.87.89,1.63,1.29.75,2.06-4.51,5.83-7.37,10.6-8.58,4.21-1.08,8.64-1.37,12.32-3.9.79-.54.04-1.84-.75-1.29h0Z"/>
    <path class="cls-2" d="m333.63,373.48c5.86,9.89,11.73,19.78,17.59,29.67.49.83,1.78.08,1.29-.75-5.86-9.89-11.73-19.78-17.59-29.67-.49-.83-1.78-.08-1.29.75h0Z"/>
    <path class="cls-2" d="m320.22,367.5c3.93,6.81,7.51,14.22,13.16,19.81.69.68,1.74-.38,1.06-1.06-5.56-5.48-9.07-12.81-12.93-19.5-.48-.83-1.77-.08-1.29.75h0Z"/>
    <path class="cls-2" d="m299.01,308.78c-.17-2.83.11-5.58.85-8.31.25-.93-1.19-1.33-1.44-.4-.78,2.86-1.08,5.75-.9,8.71.06.96,1.55.96,1.5,0h0Z"/>
    <path class="cls-2" d="m289.3,453.17c6,4.36,11.33,10.01,14.24,16.92.37.87,1.81.49,1.44-.4-3.07-7.31-8.57-13.2-14.93-17.81-.78-.57-1.53.73-.75,1.29h0Z"/>
    <path class="cls-2" d="m291.64,459.95c-3.35-4.16-7.23-9.24-12.31-11.31-.89-.36-1.28,1.08-.4,1.44,2.63,1.07,4.63,3.16,6.57,5.16,1.78,1.84,3.47,3.77,5.07,5.77.6.75,1.66-.31,1.06-1.06h0Z"/>
  </g>
  <g>
    <polygon class="cls-1" points="969.21 149.4 983.6 168.01 960.76 158.7 949.61 182.65 949.31 158.54 932.07 154.89 949.16 146.48 945.12 126.85 960.5 145.11 974.19 138.69 969.21 149.4"/>
    <path class="cls-1" d="m847.38,229.81c-2.56-1.58-3.28-4.75-1.6-7.06,1.67-2.32,5.1-2.92,7.66-1.33,2.56,1.58,3.28,4.75,1.6,7.06-1.67,2.32-5.1,2.92-7.66,1.33Z"/>
    <path class="cls-1" d="m825.64,244.56c-2.56-1.58-3.28-4.75-1.6-7.06,1.67-2.32,5.1-2.92,7.66-1.33,2.56,1.58,3.28,4.75,1.6,7.06-1.67,2.32-5.1,2.92-7.66,1.33Z"/>
    <path class="cls-1" d="m803.55,259.56c-2.56-1.58-3.28-4.75-1.6-7.06,1.67-2.32,5.1-2.92,7.66-1.33s3.28,4.75,1.6,7.06c-1.67,2.32-5.1,2.92-7.66,1.33Z"/>
    <path class="cls-1" d="m782.41,273.91c-2.56-1.58-3.28-4.75-1.6-7.06,1.67-2.32,5.1-2.92,7.66-1.33,2.56,1.58,3.28,4.75,1.6,7.06-1.67,2.32-5.1,2.92-7.66,1.33Z"/>
    <path class="cls-1" d="m761.4,288.16c-2.56-1.58-3.28-4.75-1.6-7.06,1.67-2.32,5.1-2.92,7.66-1.33,2.56,1.58,3.28,4.75,1.6,7.06-1.67,2.32-5.1,2.92-7.66,1.33Z"/>
    <path class="cls-1" d="m739.67,302.92c-2.56-1.58-3.28-4.75-1.6-7.06,1.67-2.32,5.1-2.92,7.66-1.33,2.56,1.58,3.28,4.75,1.6,7.06-1.67,2.32-5.1,2.92-7.66,1.33Z"/>
    <path class="cls-1" d="m716.08,318.93c-2.56-1.58-3.28-4.75-1.6-7.06,1.67-2.32,5.1-2.92,7.66-1.33s3.28,4.75,1.6,7.06c-1.67,2.32-5.1,2.92-7.66,1.33Z"/>
    <path class="cls-1" d="m692.28,335.08c-2.56-1.58-3.28-4.75-1.6-7.06,1.67-2.32,5.1-2.92,7.66-1.33s3.28,4.75,1.6,7.06c-1.67,2.32-5.1,2.92-7.66,1.33Z"/>
    <path class="cls-1" d="m455.11,391.36c-.46-2.86,1.68-5.47,4.78-5.83,3.1-.37,5.99,1.65,6.45,4.51.46,2.86-1.68,5.47-4.78,5.83-3.1.37-5.99-1.65-6.45-4.51Z"/>
    <path class="cls-1" d="m427.66,385.88c-.46-2.86,1.68-5.47,4.78-5.83,3.1-.37,5.99,1.65,6.45,4.51s-1.68,5.47-4.78,5.83c-3.1.37-5.99-1.65-6.45-4.51Z"/>
    <path class="cls-1" d="m399.75,380.31c-.46-2.86,1.68-5.47,4.78-5.83,3.1-.37,5.99,1.65,6.45,4.51.46,2.86-1.68,5.47-4.78,5.83-3.1.37-5.99-1.65-6.45-4.51Z"/>
    <path class="cls-1" d="m373.05,374.98c-.46-2.86,1.68-5.47,4.78-5.83,3.1-.37,5.99,1.65,6.45,4.51.46,2.86-1.68,5.47-4.78,5.83-3.1.37-5.99-1.65-6.45-4.51Z"/>
    <path class="cls-1" d="m346.52,369.68c-.46-2.86,1.68-5.47,4.78-5.83,3.1-.37,5.99,1.65,6.45,4.51.46,2.86-1.68,5.47-4.78,5.83-3.1.37-5.99-1.65-6.45-4.51Z"/>
    <path class="cls-1" d="m319.06,364.19c-.46-2.86,1.68-5.47,4.78-5.83,3.1-.37,5.99,1.65,6.45,4.51.46,2.86-1.68,5.47-4.78,5.83-3.1.37-5.99-1.65-6.45-4.51Z"/>
    <path class="cls-1" d="m289.27,358.24c-.46-2.86,1.68-5.47,4.78-5.83,3.1-.37,5.99,1.65,6.45,4.51s-1.68,5.47-4.78,5.83c-3.1.37-5.99-1.65-6.45-4.51Z"/>
    <path class="cls-1" d="m910.45,186.69c-2.56-1.58-3.28-4.75-1.6-7.06,1.67-2.32,5.1-2.92,7.66-1.33,2.56,1.58,3.28,4.75,1.6,7.06-1.67,2.32-5.1,2.92-7.66,1.33Z"/>
    <path class="cls-1" d="m888.34,201.7c-2.56-1.58-3.28-4.75-1.6-7.06,1.67-2.32,5.1-2.92,7.66-1.33,2.56,1.58,3.28,4.75,1.6,7.06-1.67,2.32-5.1,2.92-7.66,1.33Z"/>
    <path class="cls-1" d="m867.8,215.64c-2.56-1.58-3.28-4.75-1.6-7.06,1.67-2.32,5.1-2.92,7.66-1.33,2.56,1.58,3.28,4.75,1.6,7.06-1.67,2.32-5.1,2.92-7.66,1.33Z"/>
    <path class="cls-1" d="m626.7,375.53c-1.66-2.47-.84-5.67,1.82-7.15,2.66-1.47,6.16-.66,7.82,1.81,1.66,2.47.84,5.67-1.82,7.15-2.66,1.47-6.16.66-7.82-1.81Z"/>
    <path class="cls-1" d="m598.76,380.62c-1.66-2.47-.84-5.67,1.82-7.15,2.66-1.47,6.16-.66,7.82,1.81,1.66,2.47.84,5.67-1.82,7.15-2.66,1.47-6.16.66-7.82-1.81Z"/>
    <path class="cls-1" d="m570.93,385.69c-1.66-2.47-.84-5.67,1.82-7.15,2.66-1.47,6.16-.66,7.82,1.81,1.66,2.47.84,5.67-1.82,7.15-2.66,1.47-6.16.66-7.82-1.81Z"/>
    <path class="cls-1" d="m545.1,390.4c-1.66-2.47-.84-5.67,1.82-7.15,2.66-1.47,6.16-.66,7.82,1.81,1.66,2.47.84,5.67-1.82,7.15s-6.16.66-7.82-1.81Z"/>
    <path class="cls-1" d="m675.45,347.42l14.05,21.64-20.14-7.75-25.21,18.36,12.58-28.69-15.45-17.41,24.31,9.35s14.85-12.28,14.86-12.29c0,0-4.99,16.78-4.99,16.78Z"/>
    <path class="cls-1" d="m451.09,527.17c-3.02-.47-5.1-3.1-4.64-5.87.46-2.77,3.28-4.62,6.3-4.15,3.02.48,5.1,3.1,4.64,5.87-.46,2.77-3.28,4.62-6.3,4.15Z"/>
    <path class="cls-1" d="m438.19,549.01c-3.02-.47-5.1-3.1-4.64-5.87s3.28-4.62,6.3-4.15c3.02.48,5.1,3.1,4.64,5.87-.46,2.77-3.28,4.62-6.3,4.15Z"/>
    <path class="cls-1" d="m425.07,571.22c-3.02-.48-5.1-3.1-4.64-5.87.46-2.77,3.28-4.63,6.3-4.15,3.02.47,5.1,3.1,4.64,5.87s-3.28,4.63-6.3,4.15Z"/>
    <path class="cls-1" d="m412.52,592.45c-3.02-.48-5.1-3.1-4.64-5.87.46-2.77,3.28-4.62,6.3-4.15,3.02.47,5.1,3.1,4.64,5.87s-3.28,4.62-6.3,4.15Z"/>
    <path class="cls-1" d="m400.04,613.56c-3.02-.48-5.1-3.1-4.64-5.87.46-2.77,3.28-4.63,6.3-4.15,3.02.48,5.1,3.1,4.64,5.87-.46,2.77-3.28,4.63-6.3,4.15Z"/>
    <path class="cls-1" d="m387.14,635.4c-3.02-.47-5.1-3.1-4.64-5.87.46-2.77,3.28-4.63,6.3-4.15,3.02.48,5.1,3.1,4.64,5.87-.46,2.77-3.28,4.63-6.3,4.15Z"/>
    <path class="cls-1" d="m373.13,659.1c-3.02-.48-5.1-3.1-4.64-5.87.46-2.77,3.28-4.62,6.3-4.15,3.02.47,5.1,3.1,4.64,5.87s-3.28,4.62-6.3,4.15Z"/>
    <path class="cls-1" d="m359,683.02c-3.02-.48-5.1-3.1-4.64-5.87.46-2.77,3.28-4.62,6.3-4.15,3.02.48,5.1,3.1,4.64,5.87-.46,2.77-3.28,4.62-6.3,4.15Z"/>
    <path class="cls-1" d="m488.41,463.52c-3.02-.47-5.1-3.1-4.64-5.87s3.28-4.63,6.3-4.15,5.1,3.1,4.64,5.87c-.46,2.77-3.28,4.63-6.3,4.15Z"/>
    <path class="cls-1" d="m475.27,485.74c-3.02-.48-5.1-3.1-4.64-5.87.46-2.77,3.28-4.63,6.3-4.15,3.02.48,5.1,3.1,4.64,5.87-.46,2.77-3.28,4.63-6.3,4.15Z"/>
    <path class="cls-1" d="m463.08,506.38c-3.02-.48-5.1-3.1-4.64-5.87.46-2.77,3.28-4.63,6.3-4.15,3.02.47,5.1,3.1,4.64,5.87s-3.28,4.63-6.3,4.15Z"/>
    <path class="cls-1" d="m349.42,700.76l22.46,14.49-21.66.58-14.41,26.47-1.66-31.13-21.81-10.07,26.15-.7s7.82-16.94,7.82-16.95c0,0,3.1,17.31,3.1,17.31Z"/>
    <polygon class="cls-1" points="257.69 355.08 258.12 377.82 243.35 357.71 227.56 359.76 243.51 350.04 236.34 326.01 247.87 341.71 269.39 330.48 263.39 342.07 276 353.54 257.69 355.08"/>
    <path class="cls-1" d="m507.57,396.88c3.42-1.86,27.95-11.6,27.95-11.6l-15.98,18.03,18.91,13.44-19.73-2.93,7.29,20.48-16.03-11.42-6.76,23.81-4.1-21.5-17.66,9.6,11.29-16.92-24.26-9.82,24.63.99-16.95-24.57,19.7,12.29,6.92-18.86,4.76,18.98Z"/>
  </g>
</svg>