<?xml version="1.0" encoding="UTF-8"?>
<svg id="object" xmlns="http://www.w3.org/2000/svg" viewBox="0 0 1200 800">
  <defs>
    <style>
      .cls-1 {
        fill: #fff;
      }

      .cls-2 {
        fill: none;
      }

      .cls-2, .cls-3 {
        opacity: .42;
      }

      .cls-3, .cls-4 {
        fill: #a1d9d4;
      }
    </style>
  </defs>
  <g>
    <path class="cls-3" d="m812.05,211.39c6.1,8.46,11.76,17.28,17.21,26.18,10.43,17.04,20.24,34.81,27.02,53.65,2.95,8.19,5.41,16.78,5.87,25.52.44,8.31-1.35,17.07-8.31,22.42-4.54,3.49-10.45,4.9-16.11,4.38-2.82-.26-5.58-.97-8.18-2.11-3.53-1.56-5.87-4.2-8.39-7.03-4.72-5.29-9.3-10.99-15.46-14.69-3.11-1.87-6.39-3.48-9.6-5.18-9.71-5.12-19.56-10.26-28.47-16.71-6.5-4.7-12.01-11-15.34-18.36-1.33-2.93-2.21-6-2.38-9.22-.05-.96,1.44-.96,1.49,0,.31,6.08,3.41,11.85,7.13,16.55,1.89,2.4,3.62,4.71,5.97,6.72,7.91,6.75,17.42,11.75,26.54,16.65,7.78,4.18,16.12,7.7,22.58,13.88,2.67,2.56,5.1,5.36,7.55,8.13,2.55,2.88,4.99,6.05,8.54,7.71,5.56,2.61,12.18,3.06,17.98.97,19.03-6.87,13-31.9,8.21-46.17-6.2-18.49-15.65-35.91-25.66-52.59-3.98-6.63-8.12-13.17-12.4-19.61-2.21-3.32-4.63-6.52-6.77-9.88-.1-.15-.21-.29-.31-.43-.56-.78.73-1.53,1.29-.75h0Z"/>
    <path class="cls-3" d="m810.76,211.39c.88-1.38.95-4,.8-5.85-.57-7.31-4.62-14.28-8.62-20.22-3.89-5.78-8.4-11.13-13.14-16.23-2.08-2.23-4.15-4.59-6.43-6.62-.36-.32-.66-.56-1.11-.79-6.45-3.37-2.63,20.33-2.3,21.95,1.08,5.26,2.74,10.89,6.24,15.09.95,1.14,2.58,2.69,3.72,3.06.91.29.52,1.73-.4,1.44-1.39-.44-2.64-1.56-3.62-2.59-3.1-3.24-4.93-7.6-6.19-11.84-2.08-7-3.28-14.98-2.69-22.28.19-2.29.67-6.33,3.61-6.69,1.42-.18,2.77.67,3.79,1.58,5.52,4.93,10.52,10.86,15.08,16.68,5.67,7.25,11.49,15.64,13.21,24.88.51,2.74.95,6.65-.66,9.18-.51.81-1.81.06-1.29-.75h0Z"/>
    <path class="cls-3" d="m276.67,532.32c-.77,11.8-.22,23.62.98,35.38,1.11,10.91,2.37,21.92,4.49,32.69,3.75,19.07,11.28,38.32,26.54,51.1,15.26,12.78,35.81,16.96,55.28,15.61,21.38-1.48,42-9.45,60.32-20.29,16.37-9.68,27.02-27.42,32.02-45.4,3.06-11,4.34-22.64,2.74-33.99-1.31-9.29-4.18-18.86-9.78-26.5-3.24-4.42-7.66-7.97-11.48-11.87-3.74-3.81-7.52-7.62-11.17-11.51-3.36-3.57-6.15-7.58-8.53-11.87-2.38-4.29-3.77-8.83-3.43-13.78.35-5.08,2.29-9.6,4.47-14.13,2.51-5.22,4.83-10.52,6.91-15.93,3.86-10.04,6.89-20.43,8.58-31.07,3.51-22.09.12-44.31-9.43-64.51-8.66-18.33-21.84-34.51-37.96-46.8-4.31-3.28-8.82-6.27-13.51-8.98.3-.39.6-.78.9-1.17.62.68,1.29,1.14,2.11,1.54-.3.39-.6.78-.9,1.17-.68-.58-1.37-1.05-2.11-1.54l1.02-1.02c.43.69.88,1.38,1.36,2.04.36.5.74,1,1.17,1.44.18.19,1.15,1.16.63.83-.81-.51-1.53-1.44-2.33-2.03-.6-.44-1.22-.85-1.84-1.26l1.02-1.02c5.49,9.39,4.57,20.89,2.54,31.15-2.41,12.17-8.57,22.85-14.38,33.65-6.06,11.26-9.09,23.61-9.28,36.38-.19,12.66,2.14,25.23,5.55,37.39,3.93,14.03,9.36,27.63,16.64,40.26.44.76-.55,1.44-1.17.9-.59-.5-1.18-1.01-1.76-1.52-.73-.63.33-1.67,1.06-1.06.59.5,1.18,1,1.76,1.52.65.58-.18,1.57-.9,1.17-7.57-4.14-14.71-9.21-21.94-13.91-9.2-5.98-18.36-12.03-27.7-17.79-2.21-1.36-4.51-2.96-6.89-3.88-4.46-1.72-9.04-3.19-13.59-4.63-6.19-1.96-12.44-3.83-18.79-5.2-8.43-1.82-17.23-2.11-25.83-2.17-5.59-.04-11.18.13-16.75.44-5.69.32-11.26,1.33-16.88,2.25-4.99.82-10.03,1.53-15.09,1.39-2.45-.07-4.9-.35-7.29-.88-2.59-.58-4.99-1.82-7.62-2.13l.75-.75c.13.71-.24.93-1.12.64.37-.21.75-.43,1.12-.64.98,7.97,1.64,16.02,3.52,23.84,1.72,7.14,4.65,13.96,8.25,20.35,5.1,9.03,11.69,17.22,19.44,24.11,17.93,15.96,42.28,22.26,65.88,22.1,15.58-.11,31.03-2.69,46.24-5.89,7.57-1.59,15.07-3.56,22.65-5.04,6.19-1.21,12.85-1.72,18.81.76,5.89,2.45,10.36,7.82,13.79,13.02,3.56,5.4,6.03,11.44,7.86,17.62,1.89,6.4,3.24,13.22-.49,19.3-2.98,4.87-8.68,7.74-14.01,9.21-2.78.77-5.64,1.22-8.5,1.54-3.01.34-5.47.49-8.25-.95-5.52-2.87-7-10.84-6.1-16.51.93-5.86,4.41-11.36,9.24-14.78,4.49-3.19,9.98-4.59,15.37-5.31,2.76-.37,5.53-.55,8.31-.69.96-.05.96,1.45,0,1.49-11.12.54-23.49,2.3-29.24,13.14-1.7,3.2-2.65,6.77-2.42,10.4.23,3.61,1.57,8.49,4.79,10.52,2.95,1.85,5.81,1.51,9.09,1.1,2.91-.36,5.81-.9,8.61-1.78,6.29-1.99,12.07-6.04,13.61-12.78,1.52-6.61-1.32-13.98-3.71-20.1-2.36-6.02-5.63-11.69-9.98-16.49-2.27-2.51-4.74-4.82-7.84-6.26-3.04-1.42-6.4-1.96-9.74-1.96-7.13-.01-14.14,2.15-21.04,3.71-7.28,1.64-14.57,3.21-21.92,4.54-14.06,2.54-28.39,4.22-42.7,3.54-21.26-1.02-42.73-7.8-58.81-21.86-6.94-6.06-12.98-13.18-17.89-20.97-3.3-5.23-6.08-10.79-8.28-16.56-2.61-6.85-3.84-14.08-4.76-21.32-.46-3.67-.85-7.35-1.31-11.02-.07-.56.69-.94,1.12-.64.79.53,1.62,1.87.51,2.62-1.36.91-1.69-1.12-1.63-1.97.02-.37.32-.8.75-.75,1.88.22,3.39.84,5.18,1.42,2.57.84,5.27,1.31,7.96,1.5,5.04.36,10.08-.23,15.05-1.01,4.56-.72,9.09-1.61,13.67-2.13,4.94-.56,9.95-.69,14.92-.8,9.63-.21,19.51-.09,29.05,1.41,6.14.97,12.17,2.73,18.12,4.51,5.43,1.63,10.82,3.39,16.16,5.3,2.38.85,4.47,1.85,6.64,3.15,9,5.36,17.72,11.2,26.5,16.9,8.53,5.54,16.93,11.58,25.87,16.47-.3.39-.6.78-.9,1.17-.58-.52-1.17-1.02-1.76-1.52.35-.35.7-.7,1.06-1.06.58.51,1.17,1.01,1.76,1.52-.39.3-.78.6-1.17.9-6.28-10.89-11.21-22.52-14.98-34.51-3.71-11.82-6.51-24.05-7.24-36.44-.71-12.02.69-24.22,5.08-35.49,4.55-11.71,12.16-21.94,16.22-33.89,2.1-6.17,3.33-12.75,3.69-19.25.37-6.64-.42-13.42-3.83-19.24-.36-.62.38-1.45,1.02-1.02,1.22.81,6.27,3.56,4.9,5.56-1.72,2.51-5.28-3.49-5.93-4.53-.39-.62.39-1.43,1.02-1.02.84.55,1.65,1.12,2.41,1.77.68.58-.19,1.51-.9,1.17-.95-.45-1.71-1-2.41-1.77-.56-.61.15-1.61.9-1.17,36.48,21.08,63.39,61.43,63.1,104.31-.15,22.22-7.12,43.84-16.55,63.76-2.54,5.37-5.03,10.61-4.92,16.71.1,5.8,2.98,10.71,6.04,15.46,2.98,4.63,6.84,8.36,10.67,12.28,4.15,4.24,8.2,8.56,12.49,12.65,14.66,13.96,17.85,36.67,14.95,55.88-2.87,19-11.49,38.17-25.99,51.12-7.57,6.76-17.02,11.43-26.21,15.57-9.81,4.42-20.08,7.9-30.66,9.92-19.44,3.71-40.53,2.67-58.32-6.66-17.71-9.28-28.81-26.19-34.7-44.89-3.04-9.65-4.66-19.58-6-29.59-1.59-11.81-3.03-23.67-3.43-35.59-.2-5.93-.13-11.87.26-17.79.06-.95,1.56-.96,1.49,0h0Z"/>
    <path class="cls-3" d="m353.89,428.33c-7.53,3.01-14.99,6.19-21.97,10.34-6.29,3.74-11.88,8.36-17.49,13.01-.73.61-1.8-.44-1.06-1.06,5.71-4.74,11.39-9.45,17.79-13.25,7.09-4.21,14.68-7.43,22.32-10.49.89-.36,1.28,1.09.4,1.44h0Z"/>
    <path class="cls-3" d="m780.43,193.56c-2.98,1.62-6.13,2.84-9.32,3.98-3.15,1.13-6.71,2.05-9.54,3.89-1.38.9-2.63,1.99-4.08,2.78-1.51.82-3.08,1.54-4.61,2.33-2.85,1.47-5.69,2.98-8.5,4.53-11.27,6.21-22.18,13.08-32.66,20.55-21.08,15.01-40.35,32.44-57.89,51.45-9.03,9.79-18.03,19.92-25.84,30.73-8.26,11.44-15.71,23.17-26.6,32.37-10.72,9.05-22.88,16.37-35,23.38-12.37,7.15-25.14,13.46-38.45,18.68-25.94,10.17-53.27,16.33-80.87,19.79-3.44.43-6.89.82-10.34,1.17-.96.1-.95-1.4,0-1.49,27.91-2.85,55.62-8.25,82.1-17.65,13.39-4.75,26.43-10.51,38.91-17.3,12.62-6.86,25.12-14.33,36.65-22.92,5.59-4.17,10.8-8.75,15.44-13.96,4.88-5.48,9.01-11.55,13.19-17.58,7.52-10.85,16.05-20.99,24.83-30.83,16.91-18.96,35.48-36.46,55.79-51.75,10.16-7.65,20.74-14.73,31.7-21.19,5.61-3.3,11.31-6.44,17.1-9.41,1.44-.74,2.9-1.43,4.33-2.18,1.55-.82,2.85-2.02,4.33-2.95,2.61-1.62,5.8-2.5,8.67-3.53,3.39-1.21,6.76-2.45,9.93-4.18.84-.46,1.6.83.75,1.29h0Z"/>
    <path class="cls-3" d="m724.23,443.06c14.02,8.48,28.61,16.16,43.4,23.22,12.14,5.79,24.55,11.17,37.38,15.24,5.58,1.77,11.26,3.3,17.05,4.25,2.58.42,5.18.72,7.8.82,2.19.08,4.38-.11,6.57.12,19.8,2.13,34.4,24.11,30.49,43.15-2.86,13.93-14.25,24.38-26.1,31.19-6.72,3.86-14.41,6.12-21.83,8.19-23.4,6.53-47.62,10.37-71.67,13.57-23.58,3.13-47.47,5.69-71.29,5.77-6.91.02-14.22.1-20.97-1.58-3.15-.78-7.5-2.31-8.88-5.56-1.31-3.08,1.12-6.09,3.25-8.07,5.58-5.17,13.03-8.58,19.99-11.47,2.79-1.16,5.79-1.88,8.73-2.54,3.13-.7,6.37-1.27,9.58-1.22,3.27.05,6.42,1.24,9.61,1.84,3.44.65,6.9,1.15,10.37,1.57.92.11,1.89.3,2.82.3,1.62,0,3.3-.29,4.91-.44,8.62-.81,17.23-1.76,25.82-2.85,11.84-1.5,23.66-3.26,35.38-5.56,10.12-1.99,20.52-4.17,30.04-8.26,2.91-1.25,5.94-2.72,8.19-5,.11.42.22.83.33,1.25-19.59-3.19-39.39-5.49-59.17-7.09-15.13-1.23-30.37-2.06-45.54-1.42-9.1.39-17.91,1.74-26.77,3.74-13.62,3.08-27.17,6.33-40.98,8.43-21.83,3.33-43.94,4.44-66,4.38-37.12-.1-74.21-3.28-111.05-7.56-5.8-.67-11.6-1.38-17.4-2.11-.94-.12-.95-1.61,0-1.49,39.07,4.93,78.38,8.8,117.77,9.55,23.63.45,47.37-.24,70.81-3.42,14.44-1.95,28.61-5.09,42.79-8.38,7.29-1.69,14.58-3.33,22.05-4.05,14.59-1.4,29.38-.85,43.98.08,22.99,1.45,45.97,4.13,68.73,7.71.39.06.79.12,1.18.19.57.09.69.88.33,1.25-2.25,2.27-5.21,3.79-8.11,5.06-4.12,1.81-8.42,3.19-12.75,4.4-10.9,3.05-22.09,5.1-33.25,6.88-16.78,2.68-33.7,4.75-50.63,6.16-2.25.19-4.58-.37-6.8-.67-3.61-.49-7.22-1.05-10.76-1.88-3.15-.74-5.86-1.27-9.13-.94-7.17.72-13.86,2.97-20.29,6.08-3.94,1.91-7.86,4-11.39,6.62-2.19,1.62-6.27,4.69-5.44,7.92.83,3.25,5.69,4.61,8.55,5.27,2.94.67,5.96.94,8.96,1.13,9.19.58,18.44.26,27.63-.22,11.84-.62,23.66-1.66,35.45-2.94,25.08-2.73,50.16-6.4,74.79-11.92,20.21-4.52,41.65-9.77,55.22-26.8,7.26-9.11,10.12-20.8,6.48-32.01-3.06-9.42-10.15-17.66-19.06-22.02-4.1-2.01-8.38-2.89-12.93-2.8-4.91.1-9.83-.6-14.63-1.6-12.08-2.52-23.75-6.94-35.09-11.75-19.31-8.19-38.01-17.93-56.11-28.52-1.06-.62-2.12-1.24-3.17-1.87-.82-.5-.07-1.79.75-1.29h0Z"/>
    <path class="cls-3" d="m769.09,298.09c-4.6,5.37-8.12,12.17-11.09,18.6-7.85,17.02-11.69,35.78-12.19,54.47-.41,15.21,1.41,30.39,4.83,45.19-.31-.17-.61-.35-.92-.52,13.22-5.47,26.46-10.9,39.75-16.21,6.16-2.46,12.34-5.2,18.69-7.14,2.85-.87,5.49-2.3,8.4-3.03,15.74-3.94,31.7,7.56,43.07,16.92,12.47,10.27,23.57,22.26,34.77,33.88,10.71,11.11,21.27,22.36,31.73,33.71,12.53,13.6,24.95,27.31,37.16,41.2.19.22.39.44.58.66.28.32.32.96-.15,1.17-2.31,1.02-5.02,1.33-7.51,1.4-6.67.2-13.26-1.87-19.1-4.99-10.79-5.76-18.58-14.94-26.56-23.95-8.26-9.32-16.78-18.44-25.81-27.02-6.44-6.12-13.15-12.12-20.56-17.06-3.8-2.53-7.84-4.46-12.03-6.24-8.52-3.63-17.42-4.94-26.61-3.48-18.5,2.95-35.38,13.77-50.18,24.66-2.92,2.15-5.8,4.37-8.64,6.62-.74.59-1.81-.46-1.06-1.06,15.86-12.6,33.58-25.2,53.48-30.4,9.87-2.58,20.08-2.69,29.74.76,3.27,1.17,6.53,2.57,9.65,4.09,6.45,3.15,12.22,7.76,17.66,12.38,8.33,7.07,16.08,14.81,23.58,22.74,4.7,4.97,9.29,10.04,13.8,15.17,4.44,5.06,8.81,10.12,13.99,14.45,6.69,5.59,14.64,10.23,23.38,11.51,2.51.37,5.1.44,7.62.14,1.37-.17,2.64-.62,3.98-.88.15-.03.69-.27.42-.15-.05.39-.1.78-.15,1.17-9.96-11.38-20.1-22.6-30.31-33.77-9.89-10.82-19.86-21.56-29.95-32.19-11.04-11.63-22.1-23.33-33.73-34.38-9.17-8.72-19.21-17.27-30.81-22.58-5.76-2.64-12.21-4.44-18.59-3.55-3.42.48-6.35,1.94-9.55,3.11-4.83,1.76-9.67,3.46-14.46,5.35-14.84,5.85-29.61,11.92-44.35,18.02-.32.13-.63.26-.95.39-.36.15-.84-.17-.92-.52-5.58-24.14-6.83-49.41-1.51-73.71,3.06-13.96,8.2-27.72,15.92-39.8,1.36-2.13,2.78-4.28,4.43-6.2.63-.73,1.68.33,1.06,1.06h0Z"/>
    <path class="cls-3" d="m823.34,229.69c3.66-3.54,6.62-8.01,9.01-12.46,5.22-9.73,7.45-20.96,5.22-31.86-1.51-7.38-4.87-14.24-9.23-20.34-2.97-4.16-6.33-8.28-10.36-11.49-8.75-6.95-21.11-11.65-31.45-5.19-2.64,1.65-5.25,3.19-4.08,6.55,1.88,5.39,10.87,6.12,15.44,6.55.95.09.96,1.58,0,1.49-5.18-.49-12.64-1.23-15.98-5.9-1.2-1.68-1.63-4.08-.74-6.01.81-1.76,3.24-3.13,4.84-4.1,2.89-1.76,6.13-2.83,9.49-3.12,6.11-.54,12.19,1.54,17.44,4.54,2.91,1.66,5.8,3.64,8.23,5.98,6.25,6.02,11.59,13.49,14.96,21.5,5.02,11.94,4.9,25.11-.07,37.04-2.69,6.46-6.61,12.99-11.68,17.9-.69.67-1.75-.39-1.06-1.06h0Z"/>
    <path class="cls-3" d="m781.78,155.98c-.97.04-1.06-1.1-.29-1.49.32-.16.81-.14,1.17-.16,1.87-.15,3.8.07,5.62.49,7.07,1.62,12.34,6.93,15.21,13.43,2.95,6.68,3.73,14.14,3.77,21.37,0,.96-1.49.96-1.49,0-.06-9.55-1.36-20.65-8.3-27.89-3.37-3.51-7.99-5.69-12.86-5.93-.71-.03-1.43.08-2.13.03-.26-.02-.23.12-.42.05-.41-.15-1.03-1.37-.29-1.4.96-.04.96,1.46,0,1.49h0Z"/>
    <path class="cls-3" d="m809.77,147.29c-3.92-9.3-9.73-18.77-17.35-25.45-2.61-2.29-5.6-4.28-8.93-5.33-4.09-1.29-7.94-.58-12.02.43-4.29,1.06-12.73,3.02-10.81,9.1.25.79.52,1.75.96,2.47.91,1.5,3.13,1.62,4.7,1.65,2.75.06,5.57-.36,8.24-1.01.93-.23,1.33,1.21.4,1.44-4.19,1.02-12.85,3.01-14.97-2.15-.66-1.61-1.37-3.32-1.12-5.1.35-2.44,2.42-4.06,4.47-5.13,4.19-2.19,9.52-3.6,14.21-3.92,3.52-.24,7.01.74,10.1,2.38,6.78,3.61,11.91,10.01,16.05,16.33,2.81,4.28,5.37,8.83,7.37,13.55.37.88-.92,1.64-1.29.75h0Z"/>
    <path class="cls-3" d="m770.68,127.49c-1.95.49-5.73,1.66-7.53.33-1.46-1.08-.14-3.82,1.14-4.54,2.92-1.65,6.87,2.18,8.77,3.89,3.87,3.5,6.67,8,8.82,12.73,1.29,2.85,2.45,5.81,3.23,8.85.24.93-1.2,1.33-1.44.4-1.86-7.28-5.45-14.98-10.91-20.21-1.25-1.2-6.97-6.97-8.5-3.3-.18.43-.33.8-.05,1.06.4.36,1.79.1,2.31.05,1.27-.12,2.53-.37,3.77-.68.93-.23,1.33,1.21.4,1.44h0Z"/>
    <path class="cls-3" d="m836.17,250.96c4.5-2.74,8.67-6.13,12.6-9.61,8.47-7.51,15.97-16.33,21.15-26.44,6.45-12.59,8.53-26.87,5.08-40.67-.55-2.18-1.35-4.29-1.87-6.47-.38-1.59-.98-3.13-1.73-4.58-3.04-5.85-8.61-9.44-15.14-10.11-4.78-.49-13.29-.08-12.69,6.67.38,4.27,2.9,8.29,7.17,9.51.92.26.53,1.71-.4,1.44-4.56-1.31-7.18-5.1-8.06-9.58-.63-3.24.3-6.41,3.32-8.12,3.12-1.77,7.2-1.76,10.66-1.41,3.56.36,7.06,1.44,10.02,3.49,4,2.77,6.84,7.05,8.14,11.72,1.67,6,3.36,11.84,3.71,18.11.4,7.3-.68,14.65-3.02,21.58-4.12,12.2-11.87,22.92-20.98,31.9-5.2,5.12-10.95,10.06-17.2,13.87-.82.5-1.57-.79-.75-1.29h0Z"/>
    <path class="cls-3" d="m851.43,166.64c-1.98-.1-4.28-.84-5.45-2.55-1.14-1.67-1.2-6.38,1.86-5.6,3.14.79,4.1,4.62,4.3,7.33.54,7.61-2.58,15.46-4.94,22.58-2.71,8.16-5.73,16.24-9.33,24.04-3.09,6.69-6.72,14.8-12.88,19.27-.78.57-1.52-.73-.75-1.29,4.53-3.29,7.44-8.93,9.94-13.79,3.4-6.6,6.19-13.52,8.74-20.49,2.14-5.84,4.1-11.76,5.82-17.74,1.07-3.72,2-7.56,1.95-11.45-.02-1.73-.18-3.77-1.13-5.28-.37-.59-1.68-2.11-2.45-1.76-.88.41-.27,2.77.06,3.28.45.69,1.2,1.14,1.94,1.44.73.29,1.54.47,2.32.51.96.05.96,1.54,0,1.49h0Z"/>
    <path class="cls-3" d="m870.65,161.41c-.04.26.01-.09.03-.24.04-.36.07-.72.1-1.08.1-1.25.13-2.5.13-3.75-.03-3.93-.52-7.88-1.63-11.65-1.37-4.65-3.74-8.99-7.3-12.32-3.1-2.9-7.27-5.62-11.69-5.22-1.38.12-2.8.54-3.79,1.57-1.04,1.08-1.79,3.11-.87,4.48.84,1.25,2.78,1.65,4.2,1.69.96.02.96,1.52,0,1.49-4.05-.1-7.54-2.97-5.43-7.22,2.05-4.13,7.73-4.2,11.44-2.56,10.66,4.71,15.64,15.53,16.44,26.64.2,2.84.22,5.75-.18,8.57-.13.95-1.57.54-1.44-.4h0Z"/>
    <path class="cls-3" d="m849.71,133.66c-1.06.4-2.58.51-3.12-.72-.56-1.28.57-2.63,1.91-2.51.86.08-.54,0,.06.08.21.03.4-.15.66-.08.56.14.79.78.98,1.25.61,1.58.81,3.39,1.05,5.05.45,3.07.77,6.16,1.15,9.23.25,2,.44,4.04.82,6.02.18.94-1.26,1.34-1.44.4-.8-4.24-1.12-8.59-1.65-12.87-.23-1.85-.47-3.71-.86-5.54-.09-.43-.71-1.73-.61-2.13.03-.11-.01-.12.5.02-.07-.02.62-.12.12-.04-.09.02-.7.05-.78.1-.71.47.29.49.81.3.9-.34,1.29,1.1.4,1.44h0Z"/>
    <path class="cls-3" d="m780.28,115.06c-12.12-20.43-41.35-18.27-55.79-36.27.42-.18.85-.35,1.27-.53,1.16,9.61,8.67,16.85,16.36,21.94,8.13,5.38,17.16,9.4,24.25,16.23.69.67-.36,1.72-1.06,1.06-13.22-12.73-38.47-17.95-41.05-39.23-.08-.62.88-1.01,1.27-.53,14.53,18.1,43.75,15.88,56.02,36.57.49.83-.8,1.58-1.29.75h0Z"/>
    <path class="cls-3" d="m862.07,131.8c-4.28-18.63-25.37-27.71-29.13-46.62h1.44c-2.72,15.3,1.32,31.2,11.83,42.78.64.71-.41,1.77-1.06,1.06-10.89-12-15.03-28.38-12.21-44.23.13-.72,1.3-.7,1.44,0,3.75,18.84,24.84,27.95,29.13,46.62.21.94-1.22,1.33-1.44.4h0Z"/>
    <path class="cls-3" d="m797.7,265.56c.35.77.78,1.51,1.33,2.11.58.63,1.28,1.08,1.98,1.51,1.66,1.01,3.39,1.88,5.15,2.61,1.15.47,2.4.89,3.54.52,1.31-.43,2.19-1.83,2.53-3.34.34-1.5.22-3.11.1-4.68-.11-1.45-.22-2.9-.48-4.33-.63-3.45-2.25-6.88-4.92-8.78-1.38-.98-2.96-1.51-4.54-1.83-1.13-.23-2.32-.37-3.39.02-1.52.54-2.51,2.24-2.69,3.99-.27,2.62-.32,5.35.12,7.98.25,1.46.65,2.89,1.27,4.22Z"/>
    <g class="cls-2">
      <path class="cls-4" d="m847.4,328.63c.01-.9.1-1.8.03-2.7-.07-.9-.32-1.81-.89-2.5-.58-.69-1.53-1.11-2.4-.88-.87.24-1.5,1.24-1.19,2.08.17.44.54.77.91,1.08,1.02.86,2.03,1.72,3.05,2.58l.5.33Z"/>
    </g>
    <path class="cls-3" d="m813.68,248.24c4.27,5.06,8.68,10.6,8.36,17.61-.04.96-1.54.96-1.49,0,.3-6.59-3.9-11.8-7.92-16.55-.62-.73.44-1.79,1.06-1.06h0Z"/>
    <path class="cls-3" d="m824.99,255.02c2.04,3.59,1.59,7.64,1.02,11.56-.14.95-1.58.54-1.44-.4.51-3.5.96-7.2-.87-10.41-.48-.84.81-1.59,1.29-.75h0Z"/>
    <path class="cls-3" d="m764.85,289.96c-3.05-3.53-5.52-7.45-7.34-11.74-.37-.87.92-1.64,1.29-.75,1.77,4.18,4.13,8.01,7.11,11.44.63.72-.43,1.78-1.06,1.06h0Z"/>
    <path class="cls-3" d="m764.31,281.87c-3.27-4.78-4.83-10.43-4.49-16.21.06-.96,1.55-.96,1.49,0-.33,5.54,1.15,10.88,4.29,15.46.54.8-.75,1.54-1.29.75h0Z"/>
    <path class="cls-3" d="m756.79,270.22c-.51-2.96-1.36-7.17-4.02-8.98-.79-.54-.04-1.83.75-1.29,3.05,2.07,4.12,6.46,4.71,9.87.16.94-1.28,1.34-1.44.4h0Z"/>
    <path class="cls-3" d="m776.32,201.53c-4.85,1.51-9.61,3.27-14.26,5.31-.87.38-1.63-.9-.75-1.29,4.77-2.09,9.64-3.91,14.62-5.46.92-.29,1.31,1.15.4,1.44h0Z"/>
    <path class="cls-3" d="m762.69,211.57c-8.47,4.93-16.94,9.86-25.4,14.78-.83.48-1.58-.81-.75-1.29l25.4-14.78c.83-.48,1.58.81.75,1.29h0Z"/>
    <path class="cls-3" d="m739.44,221c-3.66,1.51-7.09,3.45-10.29,5.78-.78.57-1.52-.73-.75-1.29,3.31-2.41,6.86-4.37,10.65-5.93.89-.37,1.27,1.08.4,1.44h0Z"/>
    <path class="cls-3" d="m794.81,203.72c.7-10.37-6.18-18.63-13.14-25.46-.69-.67.37-1.73,1.06-1.06,7.23,7.09,14.31,15.76,13.58,26.51-.06.95-1.56.96-1.49,0h0Z"/>
    <path class="cls-3" d="m802.89,205.1c-.15-2.83-1-5.43-2.52-7.82-.52-.81.77-1.56,1.29-.75,1.66,2.6,2.56,5.49,2.73,8.57.05.96-1.44.96-1.49,0h0Z"/>
    <path class="cls-3" d="m797.68,192.05c-1.49-1.7-3.06-3.32-4.72-4.85-.71-.65.35-1.71,1.06-1.06,1.66,1.53,3.23,3.15,4.72,4.85.63.72-.42,1.78-1.06,1.06h0Z"/>
    <path class="cls-3" d="m736.22,384.47c.14,7.74.82,15.45,2.04,23.1.15.94-1.29,1.34-1.44.4-1.25-7.78-1.95-15.62-2.1-23.5-.02-.96,1.48-.96,1.49,0h0Z"/>
    <path class="cls-3" d="m724.3,394.57c-.48-7.42-.42-14.85.17-22.27.08-.95,1.57-.96,1.49,0-.59,7.41-.64,14.85-.17,22.27.06.96-1.43.96-1.49,0h0Z"/>
    <path class="cls-3" d="m731.34,373.34c-.08-6.08.39-12.13,1.4-18.12.16-.95,1.6-.54,1.44.4-.99,5.86-1.43,11.78-1.34,17.72.01.96-1.48.96-1.49,0h0Z"/>
    <path class="cls-3" d="m641.54,316.98c-7.54,10.49-11.71,23.96-23.13,31.16-.82.51-1.57-.78-.75-1.29,11.15-7.03,15.23-20.38,22.59-30.63.56-.77,1.85-.03,1.29.75h0Z"/>
    <path class="cls-3" d="m637.42,341.61c-5.65,8.49-11.48,16.54-20.07,22.28-8.93,5.96-19.07,10.4-29.08,14.19-.9.34-1.29-1.1-.4-1.44,9.69-3.68,19.45-7.99,28.15-13.66,8.65-5.64,14.47-13.64,20.11-22.12.53-.8,1.82-.05,1.29.75h0Z"/>
    <path class="cls-3" d="m589.34,366.62c-4.95,2.13-10.07,3.68-15.37,4.64-.94.17-1.34-1.27-.4-1.44,5.17-.93,10.19-2.42,15.01-4.49.87-.38,1.64.91.75,1.29h0Z"/>
    <path class="cls-3" d="m814.06,428.72c-8.47,1.96-16.36,5.64-23.31,10.85-.77.58-1.51-.72-.75-1.29,7.05-5.28,15.09-9.02,23.67-11,.94-.22,1.33,1.22.4,1.44h0Z"/>
    <path class="cls-3" d="m835.25,428.6c-2.26.19-4.52.38-6.78.57-.96.08-.95-1.41,0-1.49,2.26-.19,4.52-.38,6.78-.57.96-.08.95,1.41,0,1.49h0Z"/>
    <path class="cls-3" d="m834.55,422.84c-7.03-1.04-14.15-.7-21.06.99-.93.23-1.33-1.21-.4-1.44,7.18-1.75,14.54-2.07,21.85-.99.95.14.54,1.58-.4,1.44h0Z"/>
    <path class="cls-3" d="m812.16,530.75c-7.1-2.02-14.28-3.75-21.53-5.18-.94-.19-.54-1.63.4-1.44,7.25,1.44,14.42,3.16,21.53,5.18.92.26.53,1.7-.4,1.44h0Z"/>
    <path class="cls-3" d="m807.94,521.45c-10.92-1.56-21.74-3.71-32.43-6.43-.93-.24-.54-1.68.4-1.44,10.69,2.73,21.51,4.87,32.43,6.43.95.14.54,1.57-.4,1.44h0Z"/>
    <path class="cls-3" d="m774.53,522.56c-5.57-1.57-11.26-2.41-17.04-2.51-.96-.02-.96-1.51,0-1.49,5.91.11,11.75.97,17.44,2.57.92.26.53,1.7-.4,1.44h0Z"/>
    <path class="cls-3" d="m831.84,191.53c.39-4.5.09-8.97-.9-13.38-.21-.94,1.23-1.34,1.44-.4,1.02,4.54,1.35,9.14.96,13.78-.08.95-1.58.96-1.49,0h0Z"/>
    <path class="cls-3" d="m826.18,181.82c-1.62-5.04-4.44-9.47-8.29-13.1-.7-.66.36-1.71,1.06-1.06,4.03,3.8,6.97,8.49,8.67,13.76.29.92-1.15,1.31-1.44.4h0Z"/>
    <path class="cls-3" d="m823.65,167.9c-.8-1.45-1.94-2.59-3.39-3.38-.84-.46-.09-1.75.75-1.29,1.66.91,3.01,2.26,3.93,3.92.46.84-.83,1.6-1.29.75h0Z"/>
    <path class="cls-3" d="m763.21,111.18c-2.18-2.26-4.72-4.01-7.6-5.27-.88-.38-.12-1.67.75-1.29,2.99,1.31,5.64,3.16,7.9,5.5.67.69-.39,1.75-1.06,1.06h0Z"/>
    <path class="cls-3" d="m761.33,104.44c-2.42-1.5-4.98-2.64-7.71-3.45-.92-.27-.53-1.71.4-1.44,2.85.84,5.54,2.04,8.06,3.6.82.5.07,1.8-.75,1.29h0Z"/>
    <path class="cls-3" d="m857.04,149.25c-.18-1.91-.36-3.83-.54-5.74-.09-.96,1.4-.95,1.49,0,.18,1.91.36,3.83.54,5.74.09.96-1.4.95-1.49,0h0Z"/>
    <path class="cls-3" d="m861.49,146.64c.23-3.73-1.34-7.13-4.28-9.42-.76-.59.31-1.64,1.06-1.06,3.23,2.51,4.97,6.4,4.72,10.47-.06.95-1.55.96-1.49,0h0Z"/>
    <path class="cls-3" d="m862.11,213.14c-.88,4.92-2.94,9.4-6.04,13.31-.6.75-1.65-.31-1.06-1.06,2.93-3.71,4.82-8.01,5.65-12.66.17-.94,1.61-.54,1.44.4h0Z"/>
    <path class="cls-3" d="m854.21,218.55c-3.15,6.13-6.93,11.88-11.27,17.22-.61.75-1.66-.32-1.06-1.06,4.27-5.25,7.95-10.91,11.04-16.92.44-.85,1.73-.1,1.29.75h0Z"/>
    <path class="cls-3" d="m384.34,460.34c-.32-10.8-6.59-20.04-9.58-30.16-3.04-10.28-2.99-21.33-.05-31.63.26-.92,1.7-.53,1.44.4-3.06,10.74-2.88,22.21.68,32.81,3.18,9.49,8.71,18.32,9.01,28.58.03.96-1.46.96-1.49,0h0Z"/>
    <path class="cls-3" d="m370.19,440.55c-9.23-20-5.41-44.84,9.44-61.12.65-.71,1.7.35,1.06,1.06-14.37,15.75-18.14,39.94-9.21,59.31.4.87-.89,1.63-1.29.75h0Z"/>
    <path class="cls-3" d="m398.71,473.74c11.28-21.54,16.23-46.18,14.28-70.41-.56-6.93-1.7-13.8-3.38-20.55-.23-.93,1.21-1.33,1.44-.4,5.96,23.95,4.92,49.48-2.87,72.9-2.2,6.62-4.95,13.04-8.19,19.22-.45.85-1.74.1-1.29-.75h0Z"/>
    <path class="cls-3" d="m404.96,414.41c-1.54-22.19,3.03-47.96-11.98-66.7-.59-.74.45-1.81,1.06-1.06,15.35,19.15,10.84,45.06,12.42,67.76.07.96-1.43.95-1.49,0h0Z"/>
    <path class="cls-3" d="m418.5,372.33c-1.72-6.96-4.44-13.57-8.14-19.71-.5-.83.79-1.58,1.29-.75,3.76,6.25,6.55,12.99,8.29,20.07.23.93-1.21,1.33-1.44.4h0Z"/>
    <path class="cls-3" d="m402.1,344.72c-2-2.9-4-5.79-6.01-8.69-.55-.79.75-1.54,1.29-.75,2,2.9,4,5.79,6.01,8.69.55.79-.75,1.54-1.29.75h0Z"/>
    <path class="cls-3" d="m361.35,495.59c-6.46.06-12.85-1.26-18.73-3.96-6.11-2.81-11.17-7.22-16.35-11.41-10.4-8.4-22.94-16.66-36.94-14.95-.95.12-.94-1.38,0-1.49,13.16-1.61,25.19,5.47,35.23,13.2,5.38,4.15,10.38,8.9,16.4,12.15,6.26,3.38,13.29,5.03,20.39,4.96.96,0,.96,1.48,0,1.49h0Z"/>
    <path class="cls-3" d="m321.73,490.08c-18.23-20.34-48.59-17.06-73.1-20.36-7.66-1.03-15.18-2.78-22.28-5.87-.88-.38-.12-1.67.75-1.29,25.18,10.99,54.19,3.85,79.4,14.93,6.16,2.71,11.78,6.52,16.28,11.54.64.71-.41,1.77-1.06,1.06h0Z"/>
    <path class="cls-3" d="m261.14,461.54c-7.86.31-15.67-.73-23.17-3.08-.91-.29-.52-1.73.4-1.44,7.39,2.31,15.04,3.33,22.77,3.03.96-.04.96,1.46,0,1.49h0Z"/>
    <path class="cls-3" d="m218.71,455.2c-2.97-1.02-5.93-2.04-8.9-3.06-.9-.31-.52-1.75.4-1.44,2.97,1.02,5.93,2.04,8.9,3.06.9.31.52,1.75-.4,1.44h0Z"/>
    <path class="cls-3" d="m367.36,509.28c-13.79,6.33-28.49,10.33-43.58,11.88-.95.1-.95-1.4,0-1.49,14.81-1.51,29.3-5.46,42.83-11.67.87-.4,1.63.89.75,1.29h0Z"/>
    <path class="cls-3" d="m308.09,523.49c-12.45,1.58-25.16-1.12-35.91-7.6-.82-.5-.07-1.79.75-1.29,10.55,6.36,22.95,8.95,35.16,7.4.95-.12.94,1.37,0,1.49h0Z"/>
    <path class="cls-3" d="m252.59,514.81c-10.18-3.45-19.38-9.26-26.85-16.99-.67-.69.39-1.75,1.06-1.06,7.29,7.54,16.25,13.24,26.19,16.61.9.31.52,1.75-.4,1.44h0Z"/>
    <path class="cls-3" d="m242.44,498.66c-12.21-6.37-22.54-15.92-29.87-27.57-.51-.82.78-1.57,1.29-.75,7.2,11.45,17.34,20.78,29.34,27.04.85.44.1,1.73-.75,1.29h0Z"/>
    <path class="cls-3" d="m285.31,500.1c-2.26-1.39-4.53-2.78-6.79-4.17-.82-.5-.07-1.79.75-1.29,2.26,1.39,4.53,2.78,6.79,4.17.82.5.07,1.79-.75,1.29h0Z"/>
    <path class="cls-3" d="m643.49,527.1c-11.49,4.08-23.6,6.05-35.79,5.84-.96-.02-.96-1.51,0-1.49,12.06.21,24.02-1.75,35.4-5.79.91-.32,1.3,1.12.4,1.44h0Z"/>
    <path class="cls-3" d="m676.01,520.13c-7.05,3.14-14.67,4.53-22.38,4.01-.95-.06-.96-1.56,0-1.49,7.43.5,14.81-.77,21.62-3.8.87-.39,1.63.9.75,1.29h0Z"/>
    <path class="cls-3" d="m659.29,511.7c-7.77,4.24-16.5,5.89-25.21,6.85-10.14,1.12-20.35,1.59-30.55,1.53-.96,0-.96-1.5,0-1.49,9.75.06,19.5-.38,29.19-1.38,8.9-.92,17.88-2.46,25.82-6.79.84-.46,1.6.83.75,1.29h0Z"/>
    <path class="cls-3" d="m584.21,536.65c-4.35.2-8.7.41-13.04.61-.96.04-.96-1.45,0-1.49,4.35-.2,8.7-.41,13.04-.61.96-.05.96,1.45,0,1.49h0Z"/>
    <path class="cls-3" d="m508.11,502.13c-3.71-.43-9.3-.81-12.39,1.71-1.9,1.55-2.02,3.96-.23,5.68,1.58,1.51,3.9,1.86,5.97,2.22.84.14.63,1.47-.2,1.47-2.69-.03-5.54.3-6.56,3.21-.86,2.43-.23,5.11,1.07,7.26,2.62,4.35,7.75,6.08,12.4,7.26.93.24.54,1.68-.4,1.44-5.86-1.49-12.24-4.06-14.38-10.27-.85-2.47-.84-5.45.63-7.69,1.6-2.44,4.56-2.73,7.24-2.7-.07.49-.13.98-.2,1.47-2.61-.44-5.45-1.03-7.19-3.21-1.2-1.5-1.6-3.43-.78-5.21,2.33-5.01,10.54-4.64,15.02-4.12.94.11.95,1.6,0,1.49h0Z"/>
    <path class="cls-3" d="m493.3,506.4c-4.14-.34-7.48,2.93-7.37,7.06.11,4.35,3.88,7.4,8,7.74.95.08.96,1.57,0,1.49-4.99-.42-9.31-4.02-9.49-9.24-.17-4.9,3.96-8.95,8.86-8.55.95.08.96,1.57,0,1.49h0Z"/>
    <path class="cls-3" d="m458.15,482.69c-4.56.04-10.85-1.27-13.56-5.38-2.6-3.95,1.11-6.77,4.51-8.1v1.44c-3.99-1.38-10.2-4.44-8.18-9.81.76-2.01,2.7-2.97,4.64-3.54,3.2-.94,6.56-1.45,9.87-1.8-.07.49-.13.98-.2,1.47-4.82-1.79-11.63-5.09-10.19-11.45,1.46-6.45,8.82-7.65,14.35-7.38.96.05.96,1.54,0,1.49-4.69-.23-11.1.39-12.77,5.74-1.77,5.66,4.85,8.62,9.01,10.16.81.3.65,1.38-.2,1.47-2.31.25-4.6.6-6.86,1.1-1.84.41-4.36.77-5.64,2.29-1.47,1.75-.75,4.28.74,5.79,1.56,1.59,3.78,2.32,5.83,3.03.73.25.68,1.17,0,1.44-1.42.56-3.27,1.28-3.99,2.75-.94,1.93.63,3.77,2.11,4.84,2.99,2.15,6.92,2.98,10.54,2.95.96,0,.96,1.48,0,1.49h0Z"/>
    <path class="cls-3" d="m445.69,447.32c-1.67,1.05-3.44,2.39-3.84,4.45-.5,2.61,1.46,4.63,3.86,5.19.94.22.54,1.66-.4,1.44-2.79-.66-5.05-2.88-5.05-5.87,0-2.98,2.35-5.04,4.67-6.5.82-.51,1.57.78.75,1.29h0Z"/>
    <path class="cls-3" d="m442.63,467.4c-3.84,1.24-2.64,6.99,1.42,6.42.94-.13,1.35,1.31.4,1.44-2.45.35-5.05-1.03-5.65-3.57-.59-2.51,1.07-4.97,3.43-5.73.92-.3,1.31,1.14.4,1.44h0Z"/>
    <path class="cls-3" d="m439.76,501.71c-2.08-.36-5.18-.85-6.43,1.43-1.19,2.18.46,4.56,1.85,6.15.53.6,0,1.35-.73,1.25-1.16-.16-2.75-.33-3.3.9-.5,1.12.38,2.47,1.02,3.39,1.18,1.72,2.81,3,4.9,3.34.95.16.54,1.6-.4,1.44-3.22-.53-6.24-3.43-7.05-6.6-.9-3.54,2.52-4.28,5.22-3.91-.24.42-.48.83-.73,1.25-1.86-2.12-3.63-5.14-2.08-7.95,1.62-2.94,5.32-2.6,8.11-2.12.95.16.54,1.6-.4,1.44h0Z"/>
    <path class="cls-3" d="m499.78,403.1c-2.22.23-5.48.56-6.37,3.05-1.16,3.24,2.71,4.53,5.09,5.15.7.18.73,1.27,0,1.44-2.24.51-3.75,2.64-3.01,4.92.6,1.85,2.3,3.29,3.85,4.34,2.92,1.97,6.33,2.87,9.84,2.76.96-.03.96,1.46,0,1.49-4.95.16-10.24-1.68-13.54-5.51-2.82-3.27-2.19-8.39,2.46-9.45v1.44c-2.95-.77-7.09-2.47-6.35-6.31.72-3.72,4.88-4.5,8.03-4.82.95-.1.95,1.4,0,1.49h0Z"/>
    <path class="cls-3" d="m455.21,412.66c-2.15.27-4.47,1.01-3.58,3.75.56,1.72,2.03,2.85,3.73,3.33.87.25.59,1.36-.2,1.47-1.35.18-2.2,1.73-1.09,3.01.5.58,1.29.98,2,1.23.9.33.51,1.77-.4,1.44-1.82-.66-3.92-2.15-4.01-4.29-.09-2.07,1.8-2.66,3.5-2.89-.07.49-.13.98-.2,1.47-2.61-.73-5.02-3-5.05-5.88-.03-3.01,2.84-3.83,5.3-4.14.95-.12.94,1.38,0,1.49h0Z"/>
    <path class="cls-3" d="m449.85,416.35c-2.44.58-4.53,2.91-3.87,5.57.69,2.78,4.57,3.01,6.92,2.76.95-.1.95,1.39,0,1.49-3.08.32-7.7-.35-8.41-3.99-.67-3.42,1.69-6.51,4.96-7.27.93-.22,1.33,1.22.4,1.44h0Z"/>
    <path class="cls-3" d="m350.35,452.87c-2.97,2.22-7.13,3.86-10.91,3.31-3.91-.57-3.21-4.63-1.79-7.21.28.37.56.73.84,1.1-2.27.78-5.88,1.37-6.85-1.65-.88-2.75,2.74-5.28,4.79-6.28.86-.42,1.62.87.75,1.29-1.32.64-2.87,1.55-3.6,2.88-2.08,3.77,2.87,2.87,4.5,2.32.64-.22,1.14.56.84,1.1-.83,1.51-1.84,3.76.2,4.89.93.52,3.25.03,4.2-.16,2.3-.46,4.38-1.47,6.26-2.87.77-.58,1.51.72.75,1.29h0Z"/>
    <path class="cls-3" d="m363.59,537.46c-.79,4.87-3.7,9.71-8.44,11.6-1.96.78-4.3,1.14-6.07-.25-1.78-1.4-2.35-3.86-2.73-5.97.46.06.91.12,1.36.18-2.36,3.08-5.98,6.57-10.24,5-3.62-1.34-4.15-5.53-4.31-8.88-.05-.96,1.45-.96,1.49,0,.13,2.59.34,6.08,3.04,7.33,3.55,1.65,6.77-1.65,8.73-4.21.34-.45,1.24-.53,1.36.18.31,1.69.67,3.8,2.01,5.02,1.77,1.61,4.6.52,6.37-.58,3.41-2.12,5.35-5.95,5.98-9.81.15-.95,1.59-.54,1.44.4h0Z"/>
    <path class="cls-3" d="m353.65,549.68c-2.59,3.49-6.77,5.69-11.18,5.38-4.47-.32-6.92-3.79-7.04-8.08-.03-.96,1.47-.96,1.49,0,.11,4.04,2.54,6.75,6.71,6.6,3.45-.12,6.68-1.9,8.73-4.66.57-.76,1.86-.02,1.29.75h0Z"/>
    <path class="cls-3" d="m287.54,569.49c-.17,9.46.69,18.88,2.6,28.15.19.94-1.25,1.34-1.44.4-1.94-9.4-2.83-18.96-2.65-28.55.02-.96,1.51-.96,1.49,0h0Z"/>
    <path class="cls-3" d="m295.4,582.45c1.01,13.25,3.51,26.32,7.45,39,.29.92-1.16,1.31-1.44.4-3.98-12.81-6.49-26.02-7.5-39.4-.07-.96,1.42-.95,1.49,0h0Z"/>
    <path class="cls-3" d="m333.55,589.23c.17,2,1.49,4.19-1.32,4.82-2.39.54-4.92-.71-6.38-2.56.42-.11.83-.22,1.25-.33-.39,2.26.84,5.9-1.98,7.12-2.65,1.15-4.64-2.45-5.94-4.09.42-.24.83-.48,1.25-.73.99,4.43-2.26,8.55-6.83,8.5-4.69-.05-8.61-3.76-9.44-8.27-.17-.94,1.27-1.34,1.44-.4.61,3.32,3,6.17,6.36,6.97,4.07.97,8.01-2.09,7.04-6.41-.15-.66.75-1.36,1.25-.73.75.95,4.18,5.95,5.23,2.49.47-1.53-.08-3.27.19-4.86.09-.52.91-.76,1.25-.33.91,1.16,2.54,2.39,4.14,2.22,2.05-.22,1.13-2.07,1.02-3.43-.08-.96,1.41-.95,1.49,0h0Z"/>
    <path class="cls-3" d="m367.08,626.62c3.3.5,7.19,1.34,8.46,4.87,1.16,3.23-.95,5.49-3.95,6.3-.07-.49-.13-.98-.2-1.47,3.12-.05,7.19.19,8.61,3.55,1.12,2.65-.41,5.65-2.77,6.99-.84.48-1.59-.81-.75-1.29,1.86-1.06,3.13-3.53,1.93-5.55-1.38-2.33-4.68-2.25-7.02-2.21-.84.01-1.01-1.25-.2-1.47,1.22-.33,2.59-.85,3.06-2.15.44-1.22-.15-2.69-.96-3.6-1.64-1.84-4.31-2.19-6.61-2.53-.95-.14-.54-1.58.4-1.44h0Z"/>
    <path class="cls-3" d="m378.44,638.13c1.38-2.92-.88-5.95-4.01-5.73-.96.07-.95-1.43,0-1.49,4.36-.3,7.13,4.11,5.3,7.98-.41.87-1.7.11-1.29-.75h0Z"/>
    <path class="cls-3" d="m380.24,597.83c1.89-2.11,4.91-3.94,7.85-3.4,2.35.43,3.94,2.83,2.66,5.04-.34-.34-.68-.68-1.02-1.02,2.65-1.62,6.25-2.15,8.57.35,1.84,1.98,1.49,5.01-.7,6.54-.25-.43-.5-.86-.75-1.29,4.96-2.75,10.22,2.45,7.58,7.45-.45.85-1.74.1-1.29-.75,1.94-3.67-1.91-7.42-5.54-5.41-.85.47-1.53-.75-.75-1.29,2.1-1.46,1.1-4.18-.89-5.11-1.86-.86-3.82-.21-5.47.8-.64.39-1.39-.39-1.02-1.02,1.7-2.92-2.82-3-4.24-2.52-1.57.53-2.83,1.47-3.93,2.7-.64.72-1.7-.34-1.06-1.06h0Z"/>
    <path class="cls-3" d="m403.02,605.55c.29-1.08.58-2.8-.08-3.83-.79-1.23-2.6-.87-3.78-.65-.94.18-1.34-1.26-.4-1.44,1.76-.33,3.85-.57,5.16.93,1.22,1.38.96,3.76.52,5.39-.25.93-1.69.53-1.44-.4h0Z"/>
    <path class="cls-3" d="m446.98,593.64c1.49-1.54,2.36-3.56,2.3-5.72-.03-1.15-.3-2.69-1.44-3.3-1.27-.68-2.95.53-3.7,1.45-.51.63-1.38-.07-1.25-.73.6-3.01-2.71-4.39-5.15-4.48-2.1-.08-4.22.66-5.44,2.43-.54.79-1.83.04-1.29-.75,1.79-2.61,4.96-3.54,8.01-3.04,3.15.51,5.98,2.79,5.3,6.24-.42-.24-.83-.48-1.25-.73,1.74-2.16,5.74-3.06,7.1-.04,1.47,3.27.23,7.26-2.14,9.72-.67.69-1.72-.36-1.06-1.06h0Z"/>
    <path class="cls-3" d="m421.27,542.27c-.51-1.57-2.32-4.78-3.95-2.4-.8,1.17-.4,2.5-.59,3.88-.11.78-1.24.63-1.44,0-.7-2.16-3.24-4.08-5.22-1.98-1.58,1.68-1.05,4.13-.38,6.08.31.91-1.13,1.3-1.44.4-.99-2.9-1.21-7.04,2.15-8.53,2.87-1.27,5.48,1.01,6.33,3.63h-1.44c.31-2.26-.56-5.53,2.75-5.8,2.6-.21,3.98,2.18,4.67,4.32.3.92-1.15,1.31-1.44.4h0Z"/>
    <path class="cls-3" d="m416.79,538.57c-1.15-2.66-4.96-1.98-4.9,1.01.02.96-1.47.96-1.49,0-.04-1.95,1.27-3.83,3.25-4.19,1.84-.33,3.7.73,4.43,2.43.38.87-.91,1.63-1.29.75h0Z"/>
    <path class="cls-3" d="m419,515.35c-1.22-1.24-2.35-3.01-4.07-3.58-1.07-.36-2.33-.2-2.46,1.07-.11.98.6,2.02,1.17,2.76.59.76-.71,1.51-1.29.75-1.34-1.74-2.41-5.14.41-6.08,3.15-1.05,5.42,2.11,7.3,4.03.68.69-.38,1.74-1.06,1.06h0Z"/>
    <path class="cls-3" d="m393.82,512.66c-.5-1.46-1.66-2.56-3.18-2.93-1.15-.28-1.78-.39-2.02.84-.21,1.09.14,1.27.58,2.2.36.75-.53,1.51-1.17.9-.66-.62-1.47-1.15-2.41-1.14-2.36.02-1.94,2.33-1.32,3.7.4.87-.89,1.63-1.29.75-.78-1.71-1.42-4.43.6-5.57,1.82-1.02,4.1-.1,5.48,1.2-.39.3-.78.6-1.17.9-.55-1.15-1.55-2.23-1.27-3.6.25-1.2,1.32-1.66,2.45-1.79,2.78-.32,5.29,1.57,6.17,4.12.31.91-1.13,1.3-1.44.4h0Z"/>
    <path class="cls-3" d="m324.64,597.48c.61,4.38-4.94,8.73-8.32,4.7-.61-.73.44-1.79,1.06-1.06,2.29,2.72,6.26-.16,5.83-3.25-.13-.94,1.31-1.35,1.44-.4h0Z"/>
    <path class="cls-3" d="m332.69,593.5c1.28,3.68-4.06,5.24-6.52,3.52-.78-.55-.04-1.84.75-1.29,1.35.95,5.17.6,4.33-1.83-.32-.91,1.13-1.3,1.44-.4h0Z"/>
    <path class="cls-3" d="m333.79,625.31c1.66,1.77,3.91,5.94,1.9,8.22-1.95,2.2-5.44.24-6.77-1.6-.49-.68.64-1.56,1.17-.9,1.49,1.84,3.4,5.61,1.96,7.97-1.42,2.32-5.36.07-6.83-1.1-.75-.6.31-1.65,1.06-1.06,1.22.97,4.45,2.83,4.65.11.13-1.72-.85-3.59-1.89-4.87.39-.3.78-.6,1.17-.9.55.76,1.27,1.35,2.19,1.61,1.43.41,2.6-1.22,2.37-2.53-.26-1.5-1-2.79-2.03-3.89-.66-.7.4-1.76,1.06-1.06h0Z"/>
    <path class="cls-3" d="m559.61,444.43c-4.69.61-12.35,2.23-11.18,8.63.49,2.67,2.42,2.94,4.66,3.48,1.43.34,2.55.93,2.7,2.5.04.44-.38.7-.75.75-3.18.39-4.3,4.56-2.93,7.08,1.63,3.02,5.49,3.86,8.63,3.71.96-.05.96,1.45,0,1.49-4.08.19-9.31-1.41-10.5-5.86-.93-3.47,1.09-7.46,4.8-7.92-.25.25-.5.5-.75.75-.12-1.25-2.97-1.26-3.81-1.51-.92-.27-1.71-.77-2.33-1.51-1.26-1.51-1.53-3.68-1.15-5.56,1.15-5.71,7.77-6.88,12.6-7.51.95-.12.94,1.37,0,1.49h0Z"/>
  </g>
  <g>
    <path class="cls-1" d="m457.09,322.93c-.77-2.36.51-4.89,2.87-5.67,2.36-.77,4.89.51,5.67,2.87.77,2.36-.51,4.89-2.87,5.67-2.36.77-4.89-.51-5.67-2.87Z"/>
    <path class="cls-1" d="m369.58,320.71c-.77-2.36.51-4.89,2.87-5.67,2.36-.77,4.89.51,5.67,2.87.77,2.36-.51,4.89-2.87,5.67-2.36.77-4.89-.51-5.67-2.87Z"/>
    <path class="cls-1" d="m347.45,320.15c-.77-2.36.51-4.89,2.87-5.67,2.36-.77,4.89.51,5.67,2.87.77,2.36-.51,4.89-2.87,5.67s-4.89-.51-5.67-2.87Z"/>
    <path class="cls-1" d="m323.45,319.54c-.77-2.36.51-4.89,2.87-5.67s4.89.51,5.67,2.87c.77,2.36-.51,4.89-2.87,5.67-2.36.77-4.89-.51-5.67-2.87Z"/>
    <path class="cls-1" d="m299.22,318.93c-.77-2.36.51-4.89,2.87-5.67,2.36-.77,4.89.51,5.67,2.87.77,2.36-.51,4.89-2.87,5.67-2.36.77-4.89-.51-5.67-2.87Z"/>
    <path class="cls-1" d="m230.62,319.23c-.77-2.36.51-4.89,2.87-5.67,2.36-.77,4.89.51,5.67,2.87.77,2.36-.51,4.89-2.87,5.67-2.36.77-4.89-.51-5.67-2.87Z"/>
    <path class="cls-1" d="m498.94,323.78c-.77-2.36.51-4.89,2.87-5.67,2.36-.77,4.89.51,5.67,2.87.77,2.36-.51,4.89-2.87,5.67-2.36.77-4.89-.51-5.67-2.87Z"/>
    <path class="cls-1" d="m478.04,323.25c-.77-2.36.51-4.89,2.87-5.67,2.36-.77,4.89.51,5.67,2.87.77,2.36-.51,4.89-2.87,5.67-2.36.77-4.89-.51-5.67-2.87Z"/>
    <path class="cls-1" d="m649.09,718.41l-1.92,21.98-9.36-14.89-26.31,1.39,23.29-14.64-1.22-19.61,11.3,17.97s16.26-1.86,16.27-1.87c0,0-12.05,9.66-12.05,9.66Z"/>
    <path class="cls-1" d="m600.34,703.33c.36-2.45,2.64-4.15,5.09-3.79,2.45.36,4.15,2.64,3.79,5.09-.36,2.45-2.64,4.15-5.09,3.79-2.45-.36-4.15-2.64-3.79-5.09Z"/>
    <path class="cls-1" d="m580.79,692.96c.36-2.45,2.64-4.15,5.09-3.79,2.45.36,4.15,2.64,3.79,5.09s-2.64,4.15-5.09,3.79c-2.45-.36-4.15-2.64-3.79-5.09Z"/>
    <path class="cls-1" d="m560.92,682.4c.36-2.45,2.64-4.15,5.09-3.79,2.45.36,4.15,2.64,3.79,5.09-.36,2.45-2.64,4.15-5.09,3.79-2.45-.36-4.15-2.64-3.79-5.09Z"/>
    <path class="cls-1" d="m541.91,672.31c.36-2.45,2.64-4.15,5.09-3.79,2.45.36,4.15,2.64,3.79,5.09-.36,2.45-2.64,4.15-5.09,3.79-2.45-.36-4.15-2.64-3.79-5.09Z"/>
    <path class="cls-1" d="m523.02,662.28c.36-2.45,2.64-4.15,5.09-3.79,2.45.36,4.15,2.64,3.79,5.09-.36,2.45-2.64,4.15-5.09,3.79-2.45-.36-4.15-2.64-3.79-5.09Z"/>
    <polygon class="cls-1" points="711.91 644.66 720.56 662.44 703.81 651.65 691.4 670.94 694.75 650.13 681.61 644.9 696.42 639.72 696.14 622.31 705.63 639.91 717.46 636.03 711.91 644.66"/>
    <path class="cls-1" d="m676.23,679.65c-2.21-1.12-3.09-3.83-1.97-6.04,1.12-2.21,3.83-3.09,6.04-1.97,2.21,1.12,3.09,3.82,1.97,6.04-1.12,2.21-3.83,3.09-6.04,1.97Z"/>
    <path class="cls-1" d="m658.65,696.32c-2.21-1.12-3.09-3.83-1.97-6.04,1.12-2.21,3.83-3.09,6.04-1.97,2.21,1.12,3.09,3.83,1.97,6.04-1.12,2.21-3.82,3.09-6.04,1.97Z"/>
    <path class="cls-1" d="m385.81,574.62c-.44,2.44-2.77,4.06-5.21,3.62-2.44-.44-4.06-2.77-3.62-5.21.44-2.44,2.77-4.06,5.21-3.62,2.44.44,4.06,2.77,3.62,5.21Z"/>
    <path class="cls-1" d="m405.01,585.63c-.44,2.44-2.77,4.06-5.21,3.62-2.44-.44-4.06-2.77-3.62-5.21.44-2.44,2.77-4.06,5.21-3.62,2.44.44,4.06,2.77,3.62,5.21Z"/>
    <path class="cls-1" d="m424.53,596.81c-.44,2.44-2.77,4.06-5.21,3.62-2.44-.44-4.06-2.77-3.62-5.21.44-2.44,2.77-4.06,5.21-3.62,2.44.44,4.06,2.77,3.62,5.21Z"/>
    <path class="cls-1" d="m443.2,607.51c-.44,2.44-2.77,4.06-5.21,3.62-2.44-.44-4.06-2.77-3.62-5.21.44-2.44,2.77-4.06,5.21-3.62,2.44.44,4.06,2.77,3.62,5.21Z"/>
    <path class="cls-1" d="m461.75,618.15c-.44,2.44-2.77,4.06-5.21,3.62-2.44-.44-4.06-2.77-3.62-5.21.44-2.44,2.77-4.06,5.21-3.62,2.44.44,4.06,2.77,3.62,5.21Z"/>
    <polygon class="cls-1" points="490.87 629.33 506.33 616.51 500.13 636.82 509.74 645.52 494.75 640.95 481.9 658.68 486.74 642.83 467.83 635.61 478.93 632.96 480.3 618.77 490.87 629.33"/>
    <path class="cls-1" d="m349.08,540.54c3.01,1.23,22.02,11.97,22.02,11.97l-20.71-.89-.28,19.21-7.61-14.25-11.01,15.39.25-16.29-20.29,8.06,13.31-13.86-15.53-6.38,17.62-1.55-4.94-20.77,11.42,16.4,9.17-23.76.93,19.12,16.85-5.38-11.18,12.97Z"/>
    <polygon class="cls-1" points="289.27 498.61 278.99 482.38 295.03 487.35 299.37 473.38 304.67 489.21 323.58 492.24 309.38 501.44 312.04 522.12 299.73 506.96 280.99 512.49 289.27 498.61"/>
    <path class="cls-1" d="m755.39,537.75c-2.46-.28-4.24-2.5-3.96-4.97.28-2.46,2.5-4.24,4.97-3.96,2.46.28,4.24,2.5,3.96,4.97-.28,2.46-2.5,4.24-4.97,3.96Z"/>
    <path class="cls-1" d="m745.67,557.64c-2.46-.28-4.24-2.5-3.96-4.97.28-2.46,2.5-4.24,4.97-3.96,2.46.28,4.24,2.5,3.96,4.97-.28,2.46-2.5,4.24-4.97,3.96Z"/>
    <path class="cls-1" d="m735.79,577.85c-2.46-.28-4.24-2.5-3.96-4.97.28-2.46,2.5-4.24,4.97-3.96,2.46.28,4.24,2.5,3.96,4.97-.28,2.46-2.5,4.24-4.97,3.96Z"/>
    <path class="cls-1" d="m726.34,597.18c-2.46-.28-4.24-2.5-3.96-4.97.28-2.46,2.5-4.24,4.97-3.96,2.46.28,4.24,2.5,3.96,4.97-.28,2.46-2.5,4.24-4.97,3.96Z"/>
    <path class="cls-1" d="m716.94,616.39c-2.46-.28-4.24-2.5-3.96-4.97.28-2.46,2.5-4.24,4.97-3.96,2.46.28,4.24,2.5,3.96,4.97-.28,2.46-2.5,4.24-4.97,3.96Z"/>
    <path class="cls-1" d="m912.13,202.23c-2.48-.11-4.4-2.2-4.29-4.68.11-2.48,2.2-4.4,4.68-4.29,2.48.11,4.4,2.2,4.29,4.68-.11,2.48-2.2,4.4-4.68,4.29Z"/>
    <path class="cls-1" d="m903.1,224.48c-2.48-.11-4.4-2.2-4.29-4.68.11-2.48,2.2-4.4,4.68-4.29,2.48.11,4.4,2.2,4.29,4.68-.11,2.48-2.2,4.4-4.68,4.29Z"/>
    <path class="cls-1" d="m783.48,479.82c-2.46-.28-4.24-2.5-3.96-4.97.28-2.46,2.5-4.24,4.97-3.96,2.46.28,4.24,2.5,3.96,4.97-.28,2.46-2.5,4.24-4.97,3.96Z"/>
    <path class="cls-1" d="m773.59,500.05c-2.46-.28-4.24-2.5-3.96-4.97.28-2.46,2.5-4.24,4.97-3.96,2.46.28,4.24,2.5,3.96,4.97-.28,2.46-2.5,4.24-4.97,3.96Z"/>
    <path class="cls-1" d="m764.41,518.83c-2.46-.28-4.24-2.5-3.96-4.97.28-2.46,2.5-4.24,4.97-3.96,2.46.28,4.24,2.5,3.96,4.97-.28,2.46-2.5,4.24-4.97,3.96Z"/>
    <path class="cls-1" d="m835.01,377.02c-2.46-.28-4.23-2.5-3.95-4.97.28-2.46,2.5-4.23,4.97-3.95,2.46.28,4.23,2.5,3.95,4.97-.28,2.46-2.5,4.23-4.97,3.95Z"/>
    <path class="cls-1" d="m825.28,396.9c-2.46-.28-4.23-2.5-3.95-4.97.28-2.46,2.5-4.23,4.97-3.95,2.46.28,4.23,2.5,3.95,4.97-.28,2.46-2.5,4.23-4.97,3.95Z"/>
    <path class="cls-1" d="m815.38,417.1c-2.46-.28-4.23-2.5-3.95-4.97.28-2.46,2.5-4.23,4.97-3.95,2.46.28,4.23,2.5,3.95,4.97-.28,2.46-2.5,4.23-4.97,3.95Z"/>
    <path class="cls-1" d="m805.92,436.43c-2.46-.28-4.23-2.5-3.95-4.97.28-2.46,2.5-4.23,4.97-3.95,2.46.28,4.23,2.5,3.95,4.97-.28,2.46-2.5,4.23-4.97,3.95Z"/>
    <path class="cls-1" d="m796.51,455.63c-2.46-.28-4.23-2.5-3.95-4.97.28-2.46,2.5-4.23,4.97-3.95,2.46.28,4.23,2.5,3.95,4.97-.28,2.46-2.5,4.23-4.97,3.95Z"/>
    <polygon class="cls-1" points="429.67 328.68 422.57 346.53 417.18 330.63 403.33 335.32 413.02 321.74 404.37 304.66 420.16 310.74 435.33 296.45 430.29 315.32 445.77 327.23 429.67 328.68"/>
    <path class="cls-1" d="m840.34,338.78c-2.37-2.23-16.28-19.06-16.28-19.06l19.02,8.24,7.13-17.84,2.01,16.03,15.78-10.44-6.06,15.13,21.83-.27-17.38,8.19,12.23,11.51-17.01-4.85-2.81,21.16-4.8-19.4-17.06,18.91,5.97-18.19-17.66-1,15.08-8.12Z"/>
    <polygon class="cls-1" points="882.02 246.66 867.41 234.18 884.2 234.21 884.22 219.58 893.96 233.14 912.92 230.46 902.07 243.44 910.71 262.41 894.47 251.56 878.21 262.37 882.02 246.66"/>
    <path class="cls-1" d="m874.22,291.29c-2.46-.3-4.22-2.53-3.92-5,.3-2.46,2.53-4.22,5-3.92,2.46.3,4.22,2.53,3.92,5-.3,2.46-2.53,4.22-5,3.92Z"/>
    <path class="cls-1" d="m864.35,311.09c-2.46-.3-4.22-2.53-3.92-5,.3-2.46,2.53-4.22,5-3.92s4.22,2.53,3.92,5-2.53,4.22-5,3.92Z"/>
    <path class="cls-1" d="m236.94,377.23c1.65-1.85,4.48-2.02,6.34-.38,1.85,1.65,2.02,4.48.38,6.34-1.65,1.85-4.48,2.02-6.34.38-1.85-1.65-2.02-4.48-.38-6.34Z"/>
    <path class="cls-1" d="m226.09,357.49c1.65-1.85,4.48-2.02,6.34-.38,1.85,1.65,2.02,4.48.38,6.34-1.65,1.85-4.48,2.02-6.34.38-1.85-1.65-2.02-4.48-.38-6.34Z"/>
    <path class="cls-1" d="m216.02,339.17c1.65-1.85,4.48-2.02,6.34-.38,1.85,1.65,2.02,4.48.38,6.34-1.65,1.85-4.48,2.02-6.34.38-1.85-1.65-2.02-4.48-.38-6.34Z"/>
    <path class="cls-1" d="m280.69,459.14c1.65-1.85,4.48-2.02,6.34-.37,1.85,1.65,2.02,4.48.37,6.34-1.65,1.85-4.48,2.02-6.34.37-1.85-1.65-2.02-4.48-.37-6.34Z"/>
    <path class="cls-1" d="m269.86,439.41c1.65-1.85,4.48-2.02,6.34-.37,1.85,1.65,2.02,4.48.37,6.34-1.65,1.85-4.48,2.02-6.34.37-1.85-1.65-2.02-4.48-.37-6.34Z"/>
    <path class="cls-1" d="m259.51,420.55c1.65-1.85,4.48-2.02,6.34-.37s2.02,4.48.37,6.34c-1.65,1.85-4.48,2.02-6.34.37-1.85-1.65-2.02-4.48-.37-6.34Z"/>
    <path class="cls-1" d="m249.22,401.8c1.65-1.85,4.48-2.02,6.34-.37,1.85,1.65,2.02,4.48.37,6.34-1.65,1.85-4.48,2.02-6.34.37-1.85-1.65-2.02-4.48-.37-6.34Z"/>
    <path class="cls-1" d="m777.15,277.23c-1.3-2.19-.57-5.01,1.61-6.31,2.19-1.3,5.01-.58,6.31,1.61s.58,5.01-1.61,6.31c-2.19,1.3-5.01.57-6.31-1.61Z"/>
    <path class="cls-1" d="m754.87,281.58c-1.3-2.19-.57-5.01,1.61-6.31,2.19-1.3,5.01-.58,6.31,1.61,1.3,2.19.58,5.01-1.61,6.31s-5.01.58-6.31-1.61Z"/>
    <path class="cls-1" d="m732.23,286c-1.3-2.19-.57-5.01,1.61-6.31,2.19-1.3,5.01-.58,6.31,1.61,1.3,2.19.58,5.01-1.61,6.31-2.19,1.3-5.01.57-6.31-1.61Z"/>
    <path class="cls-1" d="m710.56,290.23c-1.3-2.19-.57-5.01,1.61-6.31,2.19-1.3,5.01-.57,6.31,1.61,1.3,2.19.58,5.01-1.61,6.31-2.19,1.3-5.01.57-6.31-1.61Z"/>
    <path class="cls-1" d="m828.81,267.45c-1.3-2.19-.57-5.01,1.61-6.31,2.19-1.3,5.01-.58,6.31,1.61s.58,5.01-1.61,6.31c-2.19,1.3-5.01.57-6.31-1.61Z"/>
    <path class="cls-1" d="m806.54,271.8c-1.3-2.19-.57-5.01,1.61-6.31,2.19-1.3,5.01-.58,6.31,1.61,1.3,2.19.58,5.01-1.61,6.31-2.19,1.3-5.01.58-6.31-1.61Z"/>
    <path class="cls-1" d="m689.04,294.44c-1.3-2.19-.58-5.01,1.61-6.31s5.01-.58,6.31,1.61c1.3,2.19.57,5.01-1.61,6.31-2.19,1.3-5.01.57-6.31-1.61Z"/>
    <path class="cls-1" d="m666.76,298.79c-1.3-2.19-.58-5.01,1.61-6.31,2.19-1.3,5.01-.57,6.31,1.61,1.3,2.19.57,5.01-1.61,6.31-2.19,1.3-5.01.58-6.31-1.61Z"/>
    <path class="cls-1" d="m642.59,303.51c-1.3-2.19-.57-5.01,1.61-6.31,2.19-1.3,5.01-.57,6.31,1.61s.58,5.01-1.61,6.31c-2.19,1.3-5.01.57-6.31-1.61Z"/>
    <path class="cls-1" d="m619.81,306.13c-1.3-2.19-.57-5.01,1.61-6.31,2.19-1.3,5.01-.58,6.31,1.61,1.3,2.19.57,5.01-1.61,6.31s-5.01.57-6.31-1.61Z"/>
    <path class="cls-1" d="m597.53,310.48c-1.3-2.19-.57-5.01,1.61-6.31,2.19-1.3,5.01-.57,6.31,1.61,1.3,2.19.57,5.01-1.61,6.31s-5.01.58-6.31-1.61Z"/>
    <path class="cls-1" d="m573.36,315.2c-1.3-2.19-.58-5.01,1.61-6.31,2.19-1.3,5.01-.58,6.31,1.61,1.3,2.19.58,5.01-1.61,6.31-2.19,1.3-5.01.57-6.31-1.61Z"/>
    <path class="cls-1" d="m549.71,322.8l-4.75,21.54-7.35-15.98-26.27-2.04,24.99-11.49,1.34-19.6,8.87,19.29s16.37.26,16.37.26c0,0-13.2,8.02-13.2,8.02Z"/>
    <path class="cls-1" d="m930.32,176.72l-4.75,21.54-7.35-15.98-26.27-2.04,24.99-11.49,1.34-19.6,8.87,19.29s16.37.26,16.37.26-13.2,8.02-13.2,8.02Z"/>
    <polygon class="cls-1" points="202.18 317.45 196.68 336.76 190.31 316.51 177.46 314.77 192.4 310.06 192.97 288.17 197.94 303.98 217.62 299.23 209.97 307.7 216.87 320.17 202.18 317.45"/>
    <path class="cls-1" d="m265.93,320.83l-1.21,13.87-5.91-9.4-16.6.88,14.69-9.24-.77-12.37,7.13,11.34s10.26-1.18,10.27-1.18-7.6,6.1-7.6,6.1Z"/>
  </g>
</svg>