<?xml version="1.0" encoding="UTF-8"?>
<svg id="object" xmlns="http://www.w3.org/2000/svg" viewBox="0 0 1200 800">
  <defs>
    <style>
      .cls-1 {
        fill: #fff;
      }

      .cls-2 {
        fill: #a1d9d4;
        opacity: .42;
      }
    </style>
  </defs>
  <g>
    <path class="cls-2" d="m636.78,308.44c.15-9.66,2.95-21.17,12.3-25.92,10.23-5.2,22.15,1.43,29.72,8.36,8.38,7.67,14.69,17.52,18.77,28.09,4.35,11.27,6.62,24.04,3.66,35.95-1.23,4.94-3.59,9.78-7.46,13.19-1.99,1.76-4.37,3.06-6.94,3.75-1.3.35-2.7.61-4.05.61-1.59,0-3.13-.56-4.68-.84-.76-.13-1.09,1.03-.32,1.17,1.34.24,2.66.67,4.02.82,1.24.14,2.51-.02,3.73-.23,2.29-.4,4.51-1.24,6.49-2.47,4.04-2.51,6.93-6.49,8.76-10.83,4.87-11.51,3.28-25.19-.41-36.79-3.69-11.6-9.93-22.55-18.55-31.2-7.49-7.52-18.78-14.97-29.91-11.95-12.18,3.31-16.18,17.1-16.34,28.29-.01.78,1.2.78,1.21,0h0Z"/>
    <path class="cls-2" d="m630.96,310.76c-.81-13.59,2.4-29.44,14.39-37.59,11.92-8.11,27.31-4.37,38.27,3.51,12.31,8.84,21.02,22.07,26.79,35.91,6.2,14.88,8.69,32.07,3.27,47.57-2.69,7.69-7.64,14.91-15.23,18.4-8.41,3.86-18.27,2.61-26.5-1.09-.7-.32-1.32.73-.61,1.04,7.26,3.26,15.53,4.7,23.34,2.66,7.41-1.94,13.24-7.12,17-13.68,8.39-14.66,7.4-33.2,2.3-48.76-4.9-14.97-13.52-29.57-25.59-39.84-10.58-9-25.58-15.07-39.16-9.22-15.72,6.76-20.4,25.51-19.48,41.1.05.77,1.26.78,1.21,0h0Z"/>
    <path class="cls-2" d="m692.25,363.34c2.63-.33,5.18-.89,7.72-1.66.74-.23.43-1.39-.32-1.17-2.43.74-4.87,1.3-7.4,1.62-.76.09-.77,1.31,0,1.21h0Z"/>
    <path class="cls-2" d="m662.12,280.22c-10.12,4.22-16.82,13.65-16.94,24.68,0,.78,1.2.78,1.21,0,.12-10.45,6.44-19.51,16.05-23.52.71-.3.4-1.47-.32-1.17h0Z"/>
    <path class="cls-2" d="m655.17,268.86c12.7-6.05,25.4-12.1,38.1-18.15.5-.24,1.02-.57,1.55-.74-.34.11.4-.04.51-.05,1.54-.23,3.35-.32,5-.31,6.98.03,13.94,1.77,20.15,4.93,10.27,5.23,18.08,14.1,23.63,24.06,4.06,7.29,7.06,15.21,9.53,23.17,1.91,6.14,3.44,12.47,3.97,18.89.66,7.93-.04,18.04-7.36,22.52-12.92,7.91-25.84,15.82-38.76,23.74-.39.24-.78.48-1.16.71-.66.41-.06,1.45.61,1.04,12.56-7.69,25.12-15.38,37.68-23.08,1.83-1.12,3.85-2.12,5.32-3.72,3.64-3.96,4.79-9.73,5.02-14.93.58-13.26-4.02-26.72-8.97-38.8-4.88-11.92-12.06-23.24-22.66-30.84-6.6-4.73-14.33-7.75-22.41-8.64-2.48-.27-4.99-.35-7.49-.17-.98.07-2.12.07-3.07.37-1.61.5-3.18,1.51-4.7,2.23-3.92,1.87-7.83,3.73-11.75,5.6-7.34,3.5-14.68,6.99-22.03,10.49-.45.21-.89.42-1.34.64-.7.33-.09,1.38.61,1.04h0Z"/>
    <path class="cls-2" d="m728.05,358.45c6.13,8.63,13.92,15.96,22.83,21.67,9.35,5.99,19.97,10.52,31,12.13,12.47,1.82,25.77.51,37.52-4.12,11.04-4.36,21.02-10.83,30.68-17.64,19.39-13.65,37.75-29.1,54.74-45.64,8.43-8.21,16.51-16.77,24.22-25.65,3.98-4.58,7.57-9.4,11.45-14.06.88-1.06,1.3-2.22,2.1-3.32.8-1.1,1.89-1.94,2.66-3.05.7-1.03,1.02-2.27,1.74-3.28.47-.66,1.19-1.1,1.67-1.74.4-.54.69-1.23.99-1.83,10.87-21.67,4.91-46.1-3.99-67.31-4.35-10.35-9.08-20.7-14.9-30.31-5.74-9.48-12.61-18.27-20.58-25.98-4.08-3.95-8.3-7.91-13.58-10.2-5.41-2.36-11.56-2.73-17.38-2.98-6.69-.29-13.33.12-20,.62-6.53.49-13.06.95-19.59,1.46-13.14,1.02-26.26,2.26-39.3,4.24-12.52,1.9-25.01,4.46-37.39,7.15-11.92,2.59-23.75,5.68-35.15,10.07-5.59,2.16-11.33,4.47-16.46,7.6-2.6,1.58-5.05,3.38-7.46,5.23-2.31,1.76-4.69,3.47-6.88,5.39-4.1,3.61-7.36,7.98-10.25,12.59-1.58,2.53-3.22,5.06-4.71,7.64-1.39,2.39-2.43,5-3.46,7.56-2.26,5.58-3.45,11.85-4.26,17.79-.84,6.24-1.04,12.56-.55,18.83.47,5.95,1.56,11.84,3.23,17.58.22.75,1.38.43,1.17-.32-3.49-12-4.34-24.67-2.5-37.03.89-5.96,2.25-12.02,4.56-17.59,2.22-5.35,5.21-10.19,8.35-15.06,3.08-4.79,6.7-9.23,11.23-12.72,4.6-3.55,9.16-7.36,14.32-10.08,10.6-5.57,22.13-9.46,33.67-12.57,11.56-3.12,23.32-5.41,35.07-7.67,12.63-2.43,25.25-4.43,38.05-5.74,12.65-1.3,25.34-2.15,38.03-3.09,6.47-.48,12.91-.9,19.4-.67,6.14.22,12.68.54,18.34,3.16,5.24,2.43,9.5,6.58,13.56,10.59,3.97,3.93,7.68,8.13,11.09,12.55,6.5,8.45,11.9,17.7,16.41,27.36,9.54,20.45,19.89,43.15,15.83,66.31-.49,2.8-1.19,5.57-2.11,8.26-.5,1.46-1.06,2.9-1.68,4.31-.64,1.45-1.27,3.19-2.32,4.4-.82.95-1.53,1.52-2.05,2.67-.61,1.33-1.28,2.45-2.31,3.51-.8.82-1.58,1.69-2.12,2.71-.73,1.35-1.57,2.44-2.57,3.62-1.9,2.22-3.48,4.68-5.35,6.91-1.88,2.24-3.78,4.47-5.71,6.67-3.78,4.33-7.65,8.58-11.6,12.75-15.61,16.47-32.61,31.56-50.48,45.54-9.45,7.39-19.11,14.61-29.37,20.84-4.92,2.98-10.01,5.7-15.33,7.9-5.91,2.45-12.14,4.02-18.49,4.83-12.24,1.57-24.51.03-35.95-4.59-9.87-3.99-19.05-9.74-26.8-17.04-3.78-3.57-7.2-7.5-10.21-11.73-.45-.63-1.5-.03-1.04.61h0Z"/>
    <path class="cls-2" d="m707.66,168.99c-1.03-6.94-.9-15.54,1.74-22.37,1.91-4.95,5.66-8.79,11.11-9.41,1.83-.21,3.64-.04,5.46.16,2.98.33,5.94.78,8.88,1.33,5.17.96,10.28,2.21,15.33,3.68,6.13,1.78,12.42,3.84,18.21,6.34.71.31,1.32-.74.61-1.04-5.07-2.19-10.34-3.98-15.62-5.6-5.2-1.6-10.47-2.98-15.8-4.07-2.9-.59-5.83-1.1-8.76-1.49-2.31-.31-4.67-.68-7.01-.6-12.23.42-15.55,13.3-15.83,23.41-.09,3.33.02,6.71.51,10.01.11.77,1.28.44,1.17-.32h0Z"/>
    <path class="cls-2" d="m776.06,145.36c-6-2.75-12.28-4.98-18.56-7-6.26-2.01-12.61-3.74-19.05-5.09-3.55-.74-7.12-1.36-10.71-1.85-2.69-.36-5.44-.78-8.16-.67-14.98.59-18.39,17.01-18.48,29.16-.03,4.1.18,8.26.84,12.31.12.77,1.29.44,1.17-.32-.51-3.14-.71-6.36-.78-9.54-.14-6.13.28-12.47,2.33-18.3,2.13-6.05,6.43-11,13.04-11.94,2.11-.3,4.21-.16,6.32.06,3.67.38,7.32.94,10.95,1.62,6.33,1.19,12.59,2.77,18.75,4.64,7.36,2.22,14.73,4.75,21.72,7.95.7.32,1.32-.72.61-1.04h0Z"/>
    <path class="cls-2" d="m687.14,190.5c.01.09,0,.02-.02-.19-.04-.32-.08-.63-.11-.95-.13-1.11-.24-2.23-.33-3.34-.34-3.88-.53-7.78-.58-11.68-.14-10.69.64-21.66,3.88-31.91,3.13-9.88,9.22-19.35,19.76-22.2,2.9-.79,5.91-1.04,8.9-.93,5.54.21,11.12,1.1,16.58,1.97,10.96,1.73,21.79,4.18,32.47,7.18,12.32,3.46,24.56,7.54,36.3,12.67.17.08.35.15.52.23.7.32,1.32-.72.61-1.04-9.94-4.5-20.4-8.03-30.83-11.19-10.53-3.19-21.23-5.86-32.06-7.86-5.92-1.09-11.87-1.99-17.85-2.65-3.78-.42-7.52-.76-11.3-.26-5.26.69-10.16,2.88-14.09,6.45-3.86,3.51-6.6,8.09-8.58,12.88-4.23,10.23-5.39,21.66-5.54,32.64-.06,4.44.07,8.88.39,13.31.16,2.23.24,4.56.65,6.77.03.14.04.29.06.44.11.77,1.27.44,1.17-.32h0Z"/>
    <path class="cls-2" d="m823.69,386.24c2.31,2.24,4.9,4.25,7.53,6.09,4.71,3.28,10.1,6.28,15.88,7,6.21.78,11.47-2.04,14.68-7.36,5.09-8.43,8.87-17.73,12.02-27.04,1.78-5.27,3.43-10.64,4.63-16.08.17-.76-1-1.08-1.17-.32-2.82,12.89-7.51,25.74-13.56,37.44-1.83,3.54-3.66,7.51-6.96,9.95-2.24,1.65-4.95,2.39-7.71,2.34-5.72-.11-11.19-2.99-15.86-6.07-3.04-2.01-6.01-4.26-8.63-6.81-.56-.54-1.42.31-.86.86h0Z"/>
    <path class="cls-2" d="m818.29,389.03c2.81,2.69,5.93,5.11,9.12,7.33,5.78,4.03,12.36,7.72,19.43,8.72,7.38,1.04,13.89-1.97,17.86-8.31,6.35-10.13,10.8-21.69,14.44-33.03,2.07-6.46,3.97-13.05,5.25-19.72.15-.76-1.02-1.09-1.17-.32-.95,4.97-2.29,9.88-3.71,14.73-3.22,10.96-7.27,21.74-12.57,31.87-2.16,4.14-4.36,8.61-8.35,11.29-2.82,1.9-6.15,2.64-9.52,2.49-6.99-.32-13.65-3.86-19.38-7.64-3.71-2.45-7.33-5.19-10.54-8.27-.56-.54-1.42.32-.86.86h0Z"/>
    <path class="cls-2" d="m796.2,392.84c4.39,4.13,9.24,7.84,14.16,11.3,9.26,6.5,19.6,12.43,30.77,14.81,5.3,1.13,10.88,1.4,16.15-.04,5.57-1.52,10.35-4.94,13.93-9.44,2.73-3.44,4.78-7.39,6.85-11.24,2.59-4.8,5.02-9.7,7.3-14.66,4.09-8.92,7.71-18.06,10.92-27.34,3.61-10.46,6.95-21.18,9.15-32.05.03-.16.07-.33.1-.49.15-.76-1.01-1.09-1.17-.32-1.72,8.55-4.21,17-6.85,25.31-6,18.81-13.63,37.2-23.49,54.33-3.23,5.61-7.29,10.61-13.28,13.38-4.89,2.26-10.4,2.69-15.7,2.02-11.25-1.42-21.8-7.11-31.12-13.29-5.89-3.91-11.19-8.41-16.62-12.9-.08-.07-.16-.15-.24-.23-.57-.53-1.42.32-.86.86h0Z"/>
    <path class="cls-2" d="m711.95,167.63c7.1,2.32,13.98,5.53,20.64,8.87,15.53,7.78,30.22,17.41,43.22,28.95,16.5,14.64,30.15,32.53,38.39,53.09,10.65,26.6,15.39,55.37,14.94,83.96-.22,14.28-1.57,28.7-4.84,42.63-.05.2-.1.39-.15.58-.2.75.97,1.07,1.17.32,3.04-11.47,4.18-23.67,4.77-35.48,1.38-27.49-1.99-55.34-10.73-81.48-4.04-12.08-9.22-23.64-16.24-34.3-5.96-9.04-12.98-17.36-20.74-24.9-13.17-12.8-28.39-23.45-44.59-32.06-5.46-2.9-11.05-5.58-16.75-7.98-2.72-1.15-5.51-2.43-8.35-3.24-.13-.04-.26-.09-.39-.13-.74-.24-1.06.93-.32,1.17h0Z"/>
    <path class="cls-2" d="m774.32,148.08c6.68,3.03,13,7.07,19.05,11.18,14.88,10.11,28.4,22.26,40.03,35.98,7.54,8.9,14.27,18.49,20.04,28.63,6.89,12.13,12.1,25.02,16.63,38.2,6.83,19.88,12.39,40.92,12.65,62.08.09,7.23-.36,14.71-2.81,21.57-.06.16.05-.1-.05.11-.33.7.71,1.32,1.04.61.62-1.33.99-2.79,1.33-4.21,1.02-4.26,1.46-8.67,1.63-13.05.72-19.19-3.63-38.55-9.18-56.79-4.16-13.66-9.02-27.27-15.38-40.07-5.43-10.93-11.95-21.29-19.4-30.95-11.72-15.19-25.7-28.63-41.25-39.87-5.03-3.64-10.23-7.05-15.61-10.15-2.52-1.45-5.08-2.94-7.73-4.13-.12-.05-.24-.11-.36-.17-.7-.32-1.32.72-.61,1.04h0Z"/>
    <path class="cls-2" d="m837.19,138.58c2.83,1.75,5.52,3.76,8.17,5.77,7.11,5.41,13.81,11.36,20.15,17.64,9.22,9.15,17.66,19.09,25.18,29.68,9.32,13.14,17.24,27.31,23.42,42.19,7.25,17.45,12.14,35.87,14.55,54.62.32,2.52.6,5.04.84,7.56.07.77,1.28.78,1.21,0-1.83-19.31-6.14-38.35-13.04-56.49-5.85-15.38-13.48-30.06-22.65-43.72-7.52-11.2-16.04-21.73-25.42-31.42-6.7-6.93-13.84-13.45-21.42-19.4-2.28-1.79-4.59-3.53-6.96-5.19-1.02-.72-2.13-1.7-3.28-2.2-.05-.02-.09-.06-.14-.09-.66-.41-1.27.64-.61,1.04h0Z"/>
    <path class="cls-2" d="m855.7,137.11c2.66,1.21,5.21,2.74,7.69,4.27,6.67,4.11,12.96,8.85,18.86,14,8.71,7.6,16.6,16.15,23.52,25.41,8.86,11.86,16.16,24.87,21.76,38.57,7.01,17.15,11.41,35.31,13.55,53.7.3,2.58.56,5.16.77,7.75.06.77,1.28.78,1.21,0-1.6-19.02-5.42-37.88-12.05-55.8-5.31-14.38-12.38-28.11-21.19-40.66-6.92-9.86-14.88-19.01-23.76-27.15-6.23-5.72-12.92-10.98-20.03-15.56-2.14-1.38-4.32-2.69-6.55-3.91-.97-.53-2-1.22-3.06-1.58-.05-.02-.09-.04-.13-.06-.7-.32-1.32.72-.61,1.04h0Z"/>
    <path class="cls-2" d="m683.4,294.27c-32.48,6.78-63.59,18.81-92.24,35.56-25.49,14.89-54.93,34.57-59.1,66.39-1.78,13.57,2.31,25.77,10.83,36.28,7.91,9.76,18.59,17.98,23.9,29.61,6.55,14.37-.6,29.3-13.15,37.55-14.61,9.6-33.41,9.12-50.2,9.49-36.23.81-72.48.69-108.69-.61-18.27-.66-36.52-1.61-54.76-2.84-8.49-.57-16.66-.83-25.07.79-3.9.75-7.75,1.8-11.5,3.12-3.26,1.15-7.17,2.38-9.97,4.44-4.66,3.44-2.38,9.08,1.87,11.72,2.63,1.63,5.8,1.98,8.74,2.75,2.06.54,4.46,1.21,5.98,2.8,3.34,3.49-.49,6.8-3.49,8.38-7.36,3.86-16.15,5.5-24.27,6.9-8.14,1.4-16.36,2.35-24.46,4.02-8.02,1.66-32.76,6.96-25.78,20.4,3.22,6.2,10.56,7.49,16.77,8.49,3.75.6,7.66,1.22,10.85,3.45,4.88,3.41,6.58,9.38,1.88,13.75-3.06,2.85-7.39,4.57-11.2,6.1-4,1.61-8.11,2.9-12.27,4.03-8.02,2.18-16.2,3.73-24.26,5.73-9.67,2.4-30.04,7.17-24.92,21.6,4.93,13.9,24.03,15.69,36.41,15.76,18.36.11,36.65-.58,55,.63,1.18.08,2.38.09,3.53.41,3.1.87,2.27,4.79-.06,6.2-1.81,1.1-3.95,1.52-6.02,1.77-3.24.39-6.63.14-9.8,1.03-4.19,1.18-9.74,5.17-8.28,10.22,1.63,5.63,9.09,5.33,13.68,5.32,9.03-.02,18.07-.09,27.1-.25,8.88-.15,17.76-.39,26.64-.76,9.37-.4,18.72.17,28.09.53,18.37.71,36.73,1.41,55.1,2.12,36.67,1.41,73.35,2.83,110.02,4.24,37.36,1.43,74.74,3.02,112.14,2.56,63.45-.77,133.72-7.85,180.83-55.38,20.33-20.52,33.39-47.4,34.29-76.5.43-13.83-1.9-27.81-7.41-40.53-5.72-13.2-14.91-24.47-26.13-33.39-24.02-19.1-54.17-27.14-82.98-35.95-16.33-5-32.67-10.41-47.74-18.56-7.05-3.81-15.28-8.2-18.99-15.68-3.71-7.48-1.55-16.24,2.59-23.06,8.02-13.21,23.45-18.9,34.98-28.37.6-.49-.26-1.35-.86-.86-11.38,9.35-26.42,14.97-34.64,27.77-3.41,5.31-5.7,11.68-5.1,18.06.61,6.49,4.36,11.66,9.36,15.61,12.22,9.67,28.02,15.57,42.6,20.62,15.48,5.35,31.32,9.55,46.86,14.72,28.11,9.36,57.5,23.14,73.6,49.3,15.58,25.31,16.05,57.79,5.66,85.11-10.57,27.8-32.69,49.84-57.95,64.78-28.6,16.92-61.4,24.82-94.19,28.3-35.89,3.81-72.27,3.26-108.3,2.3-36.76-.98-73.5-2.62-110.24-4.04-36.15-1.39-72.3-2.79-108.45-4.18-9.05-.35-18.23-1.18-27.28-1-8.59.17-17.18.71-25.78.9-8.91.2-17.82.31-26.73.35-3.71.02-7.46.19-11.16,0-2-.11-4.19-.35-5.95-1.39-3.27-1.94-3.29-5.58-.93-8.22,5.29-5.91,13.54-2.98,20.16-5.56,3.75-1.46,8.05-6.7,2.5-8.98-2.62-1.08-5.86-.82-8.61-.95-5.13-.25-10.27-.44-15.41-.55-8.94-.2-17.87-.18-26.81.01-8.42.18-17.01.46-25.28-1.44-7.81-1.79-17.73-6.28-19.4-15.11-1.73-9.17,8.27-13.54,15.31-15.75,7.76-2.44,15.73-4.07,23.65-5.87,8.05-1.84,16.1-3.86,23.71-7.1,5.08-2.16,12.68-5.23,13.42-11.61.59-5.09-3.69-9.36-7.99-11.27-7.46-3.3-17.22-1.29-23.11-7.95-8.13-9.2,5.76-15.67,12.77-17.93,7.67-2.47,15.64-3.78,23.59-4.99,7.96-1.21,15.96-2.31,23.75-4.38,3.64-.97,7.24-2.14,10.7-3.64,2.45-1.06,5.28-2.48,6.59-4.97,2.98-5.65-4.42-8.48-8.57-9.49-3.9-.94-8.16-1.62-10.46-5.34-3.71-6.01,4.53-8.61,8.7-10.22,8.05-3.1,16.65-4.95,25.27-5.21,8.96-.27,18.04.92,26.97,1.45,35.44,2.11,70.93,3.13,106.43,3.09,18.04-.02,36.11-.18,54.14-.8,14.57-.5,30.26-1.97,42.26-11.11,9.89-7.53,16.25-19.57,13.07-32.09-2.87-11.3-12-19.78-19.65-28.02-4.47-4.81-8.89-9.78-12.11-15.54-3.9-6.96-5.5-14.89-5.11-22.83.79-16.3,9.34-30.78,20.69-42.07,11.4-11.34,25.33-20.1,39.18-28.13,14.52-8.42,29.7-15.72,45.4-21.65,14.82-5.6,30.06-9.97,45.57-13.21.76-.16.44-1.33-.32-1.17h0Z"/>
    <path class="cls-2" d="m737.61,170.57c9.5,4,18.33,9.48,26.13,16.22.59.51,1.45-.35.86-.86-7.97-6.88-16.96-12.45-26.66-16.53-.72-.3-1.03.87-.32,1.17h0Z"/>
    <path class="cls-2" d="m759.22,177.43c9.86,4.65,19.52,9.49,27.27,17.34,3.91,3.96,7.51,8.23,11.21,12.39,3.93,4.43,7.86,8.86,11.79,13.29.52.58,1.37-.27.86-.86-3.93-4.43-7.86-8.86-11.79-13.29-3.81-4.3-7.53-8.72-11.59-12.78-7.73-7.72-17.35-12.53-27.13-17.14-.7-.33-1.31.71-.61,1.04h0Z"/>
    <path class="cls-2" d="m787.78,205.87c10.97,9.13,20.92,19.44,29.61,30.75.47.61,1.52,0,1.04-.61-8.76-11.4-18.75-21.8-29.8-31-.59-.49-1.45.36-.86.86h0Z"/>
    <path class="cls-2" d="m760.05,366.47c9.9-3.93,14.94-14.27,17.66-23.95,3.25-11.55,3.64-23.86,1.33-35.63-1.31-6.65-3.51-13.09-6.52-19.16-.35-.7-1.39-.09-1.04.61,5.13,10.34,7.79,21.81,7.83,33.35.04,10.84-2,22.48-7.36,32.03-2.8,5-6.79,9.43-12.22,11.58-.72.28-.4,1.45.32,1.17h0Z"/>
    <path class="cls-2" d="m768.95,276.45c-11.94-23.05-32.38-42.68-58.8-46.89-7.37-1.17-14.89-1.05-22.19.5-.76.16-.44,1.33.32,1.17,13.13-2.8,26.93-.74,39.07,4.81,11.38,5.2,21.14,13.41,28.96,23.11,4.48,5.55,8.31,11.59,11.59,17.92.36.69,1.4.08,1.04-.61h0Z"/>
    <path class="cls-2" d="m697.26,221.2c10.64-.65,21.31,1.29,31.02,5.71.7.32,1.32-.72.61-1.04-9.91-4.51-20.76-6.54-31.63-5.87-.77.05-.78,1.26,0,1.21h0Z"/>
    <path class="cls-2" d="m696.41,214.91c1.6.11,3.19.23,4.79.34.78.06.77-1.15,0-1.21-1.6-.11-3.19-.23-4.79-.34-.78-.06-.77,1.15,0,1.21h0Z"/>
    <path class="cls-2" d="m787.92,308.42c4.14,8.72,3.25,18.65,2.34,27.96-.08.77,1.13.77,1.21,0,.93-9.57,1.74-19.63-2.51-28.58-.33-.7-1.38-.09-1.04.61h0Z"/>
    <path class="cls-2" d="m789.33,293.93c3.98,6.84,6.11,14.54,6.23,22.45.01.78,1.22.78,1.21,0-.12-8.11-2.31-16.04-6.39-23.06-.39-.67-1.44-.06-1.04.61h0Z"/>
    <path class="cls-2" d="m795.42,298.34c.92,1.33,1.84,2.66,2.76,3.99.44.64,1.49.03,1.04-.61-.92-1.33-1.84-2.66-2.76-3.99-.44-.64-1.49-.03-1.04.61h0Z"/>
    <path class="cls-2" d="m726.73,349.97c4.79-3.55,10-6.45,15.56-8.62.72-.28.41-1.45-.32-1.17-5.66,2.2-10.97,5.12-15.85,8.74-.62.46-.02,1.51.61,1.04h0Z"/>
    <path class="cls-2" d="m728.78,341.05c6.47-4.29,13.27-8.02,20.36-11.17.71-.32.1-1.36-.61-1.04-7.09,3.15-13.89,6.89-20.36,11.17-.65.43-.04,1.48.61,1.04h0Z"/>
    <path class="cls-2" d="m710.4,335.16c.82,5.94.33,11.94-1.4,17.68-.23.75.94,1.07,1.17.32,1.8-5.96,2.26-12.16,1.4-18.32-.11-.77-1.27-.44-1.17.32h0Z"/>
    <path class="cls-2" d="m874.73,254.56c6.55,16.99,11.04,34.73,13.32,52.8.1.76,1.31.77,1.21,0-2.3-18.18-6.77-36.02-13.36-53.12-.28-.72-1.45-.41-1.17.32h0Z"/>
    <path class="cls-2" d="m895.12,306.8c.64-19.38-4.22-38.81-13.81-55.66-2.7-4.74-5.79-9.25-9.19-13.52-.49-.61-1.34.25-.86.86,11.98,14.99,19.64,33.35,21.96,52.39.64,5.28.87,10.61.69,15.93-.03.78,1.18.78,1.21,0h0Z"/>
    <path class="cls-2" d="m883.38,240.83c1.49,2.17,2.98,4.34,4.48,6.5.44.64,1.49.03,1.04-.61-1.49-2.17-2.98-4.34-4.48-6.5-.44-.64-1.49-.03-1.04.61h0Z"/>
    <path class="cls-2" d="m924.04,292.85c-1.09-7.75-2.86-15.38-5.29-22.83-.24-.74-1.41-.42-1.17.32,2.43,7.44,4.2,15.07,5.29,22.83.11.77,1.27.44,1.17-.32h0Z"/>
    <path class="cls-2" d="m887.15,143.26c20.57,9.51,30.91,30.87,40.04,50.32.33.7,1.37.09,1.04-.61-9.21-19.62-19.72-41.16-40.47-50.75-.7-.32-1.32.72-.61,1.04h0Z"/>
    <path class="cls-2" d="m927.03,180.54c8.01,12.26,14.23,25.61,18.46,39.63.22.74,1.39.43,1.17-.32-4.26-14.12-10.52-27.57-18.58-39.92-.42-.65-1.47-.04-1.04.61h0Z"/>
    <path class="cls-2" d="m732.58,124.27c6.63,2.1,13.32,4.04,20.05,5.8.75.2,1.08-.97.32-1.17-6.73-1.77-13.41-3.7-20.05-5.8-.74-.24-1.06.93-.32,1.17h0Z"/>
    <path class="cls-2" d="m746.68,130.72c5.69,1.73,11.33,3.59,16.92,5.6.73.26,1.05-.91.32-1.17-5.59-2-11.24-3.87-16.92-5.6-.75-.23-1.07.94-.32,1.17h0Z"/>
    <path class="cls-2" d="m827.14,402.64l5.07,2.82c.68.38,1.29-.67.61-1.04-1.69-.94-3.38-1.88-5.07-2.82-.68-.38-1.29.67-.61,1.04h0Z"/>
    <path class="cls-2" d="m826.87,405.41c6.09,4.24,13.49,6.25,20.88,5.67.77-.06.78-1.27,0-1.21-7.21.57-14.34-1.37-20.27-5.5-.64-.45-1.25.6-.61,1.04h0Z"/>
    <path class="cls-2" d="m677.01,306.82c-17.69,6.07-34.88,13.51-51.68,21.73-8.38,4.1-16.67,8.39-24.89,12.8-7.92,4.25-15.86,8.57-23.08,13.96-6.57,4.9-12.52,10.7-16.91,17.66-4.1,6.5-7.42,14.74-6.42,22.56,1.05,8.17,8.34,13.46,14.13,18.49,6.41,5.57,13.04,11.12,18.05,18.05,10.56,14.6,12.91,34.44,6.26,51.15-.29.72.88,1.04,1.17.32,5.59-14.05,4.9-30.26-1.56-43.91-3.46-7.32-8.67-13.43-14.55-18.92-5.97-5.58-12.84-10.44-18.21-16.62-3.03-3.49-4.43-7.58-4.23-12.19.19-4.39,1.55-8.77,3.37-12.74,3.33-7.26,8.52-13.53,14.5-18.77,6.86-6.01,14.74-10.7,22.7-15.08,7.96-4.37,16.01-8.59,24.12-12.67,18.65-9.38,37.77-17.87,57.53-24.65.73-.25.42-1.42-.32-1.17h0Z"/>
    <path class="cls-2" d="m583.76,365.14c-8.03,7.94-5.86,21.06-.16,29.69,7.29,11.02,19.77,17.17,28.72,26.62,17.91,18.88,23.99,47.22,15.03,71.68-4.3,11.73-11.74,22.31-21.37,30.27-10.7,8.85-23.93,13.81-37.36,16.76-14.6,3.21-29.66,4.5-44.53,5.69-15.88,1.28-31.8,2.02-47.72,2.38-31.9.74-63.8,0-95.68-.92-3.98-.11-7.97-.23-11.95-.35-.78-.02-.78,1.19,0,1.21,32.28.95,64.58,1.89,96.88,1.46,16.13-.21,32.25-.77,48.35-1.84,15.1-1,30.29-2.24,45.24-4.64,13.55-2.18,27.13-5.73,39-12.82,10.61-6.33,19.39-15.53,25.43-26.3,6.04-10.76,9.32-23.04,9.11-35.4-.21-12.62-3.88-25.15-10.39-35.96-3.27-5.43-7.27-10.45-11.89-14.79-4.87-4.57-10.34-8.42-15.44-12.72-4.98-4.19-9.77-8.89-12.57-14.86-2.45-5.21-3.61-11.41-2.08-17.04.75-2.78,2.19-5.25,4.24-7.28.55-.55-.3-1.4-.86-.86h0Z"/>
    <path class="cls-2" d="m359.88,532.48c20.07-1.17,40.17-1.68,60.27-1.49,5.7.05,11.4.16,17.1.32.78.02.78-1.19,0-1.21-20.09-.57-40.2-.46-60.28.33-5.7.22-11.39.51-17.08.84-.77.05-.78,1.26,0,1.21h0Z"/>
    <path class="cls-2" d="m356.04,655.27c37.5-4.6,75.35-4.07,113.05-3.54,37.34.52,74.86,1.09,111.99-3.51,9.16-1.13,18.29-2.58,27.34-4.41,8.56-1.73,17.33-3.54,25.58-6.42,5.65-1.97,12.19-5.21,14.24-11.29,2.35-6.98-2.79-13.3-8.29-16.93-14.01-9.25-32.24-8.67-48.26-7.46-19.36,1.47-38.68,2.97-58.08,3.72-19.98.77-39.98,1-59.97.69-9.79-.15-19.59-.43-29.38-.85-8.31-.35-17.2-.1-25.19-2.71-3.53-1.15-6.73-3-9.22-5.77-.04.32-.08.63-.12.95,12.29-6.14,26.35-8.31,39.92-6.14.76.12,1.09-1.04.32-1.17-13.91-2.22-28.25-.03-40.85,6.26-.37.18-.37.68-.12.95,4.79,5.32,11.9,7.12,18.76,7.88,9.03,1,18.23,1.06,27.3,1.35,19.38.63,38.78.74,58.17.35,19.59-.39,39.17-1.31,58.71-2.74,8.84-.65,17.66-1.57,26.51-2.01,8.47-.42,17.07-.36,25.38,1.49,7.71,1.71,16.65,5.03,21.41,11.73,2.16,3.05,3.09,6.84,1.73,10.43-1.18,3.12-3.84,5.41-6.63,7.08-3.02,1.81-6.36,3.03-9.74,3.99-4.35,1.25-8.73,2.37-13.13,3.4-8.94,2.1-17.98,3.79-27.07,5.15-36.35,5.42-73.23,5.39-109.9,4.93-36.97-.46-74.05-1.45-110.92,1.94-4.52.42-9.02.9-13.52,1.45-.76.09-.77,1.3,0,1.21h0Z"/>
    <path class="cls-2" d="m594.58,619.7c-29.39,1.93-58.82,3.17-88.27,3.7-29.35.52-58.71.34-88.05-.54-16.52-.5-33.04-1.22-49.54-2.16-.78-.04-.78,1.17,0,1.21,29.41,1.67,58.85,2.65,88.3,2.92,29.35.26,58.71-.18,88.04-1.32,16.52-.64,33.02-1.51,49.52-2.6.77-.05.78-1.26,0-1.21h0Z"/>
    <path class="cls-2" d="m472.91,587.55c37.68-.27,75.9-.54,112.63-9.95,16.3-4.17,32.22-10.11,46.9-18.37,14.11-7.94,27.66-18.04,37.53-31.01,11.17-14.68,17.04-34.53,10.06-52.33-.28-.72-1.45-.4-1.17.32,6.27,15.99,1.98,33.9-7.34,47.77-9.09,13.53-22.46,24-36.34,32.26-29.81,17.74-64.46,25.15-98.68,28.02-21.15,1.77-42.39,1.93-63.6,2.08-.78,0-.78,1.22,0,1.21h0Z"/>
    <path class="cls-2" d="m637.65,521.77c9.76-9.77,15.1-23.06,16.48-36.68,1.51-14.89-1.98-29.81-8-43.38-3.22-7.26-7.17-14.19-11.56-20.8-4.23-6.38-8.99-12.6-11.7-19.83-5.3-14.15.04-29.5,9.53-40.53,11.33-13.17,27.96-20.2,43.57-26.88.71-.31.1-1.35-.61-1.04-14.08,6.02-28.58,12.25-39.86,22.92-9.82,9.29-17.07,22.85-15.89,36.68.63,7.41,3.9,14.06,7.85,20.24,4.14,6.49,8.65,12.7,12.4,19.44,7.63,13.71,13.14,29.05,13.39,44.88.26,16.09-4.95,32.59-16.48,44.13-.55.55.3,1.41.86.86h0Z"/>
    <path class="cls-2" d="m606.39,363.62c6.05-6.26,12.78-11.78,20.11-16.47.65-.42.05-1.47-.61-1.04-7.41,4.75-14.24,10.34-20.35,16.66-.54.56.31,1.42.86.86h0Z"/>
    <path class="cls-2" d="m641.67,339.42c5.13-2.43,10.25-4.85,15.38-7.28.7-.33.09-1.38-.61-1.04-5.13,2.43-10.25,4.85-15.38,7.28-.7.33-.09,1.38.61,1.04h0Z"/>
    <path class="cls-2" d="m681.89,346.65c-12.54,8.99-25.7,18.46-33,32.47-3.4,6.53-5.48,13.88-5.08,21.29.36,6.65,2.77,13.01,6.55,18.47,8.18,11.79,21.16,18.6,34.52,22.88,7.88,2.52,15.96,4.3,23.98,6.31,7.43,1.86,14.79,4,22.02,6.54,28.11,9.9,55.02,26.59,69.73,53.33,6.96,12.66,11.03,27.09,10.4,41.6-.62,14.34-6.16,27.88-14.71,39.31-18.93,25.31-48.98,37.77-78.01,47.55-3.8,1.28-7.61,2.53-11.42,3.78-.74.24-.42,1.41.32,1.17,29.32-9.61,60.09-19.84,82.14-42.52,9.57-9.84,17.21-21.78,20.74-35.13,3.59-13.6,2.57-28.04-1.84-41.32-4.46-13.46-12.22-25.83-22.14-35.95-10.39-10.61-22.96-18.91-36.31-25.32-13.65-6.55-28.09-11.12-42.76-14.74-15.33-3.78-31.49-7.13-44.43-16.73-5.59-4.15-10.5-9.37-13.75-15.56-3.48-6.63-4.65-14.16-3.36-21.54,2.83-16.22,14.96-28.31,27.53-37.9,3.11-2.37,6.29-4.66,9.47-6.94.63-.45.02-1.5-.61-1.04h0Z"/>
    <path class="cls-2" d="m746.83,645.19c15.95-6.34,30.98-14.83,44.64-25.24.61-.47,0-1.52-.61-1.04-13.56,10.34-28.5,18.81-44.35,25.11-.71.28-.4,1.45.32,1.17h0Z"/>
    <path class="cls-2" d="m811.38,606.27c10.78-14.26,15.86-32.48,14.02-50.26-.08-.77-1.29-.77-1.21,0,1.81,17.6-3.19,35.53-13.86,49.65-.47.62.58,1.22,1.04.61h0Z"/>
    <path class="cls-2" d="m834.83,535.66c.99-11.02-2.32-22.09-9.11-30.82-.48-.61-1.33.25-.86.86,6.59,8.48,9.71,19.28,8.75,29.96-.07.78,1.14.77,1.21,0h0Z"/>
    <path class="cls-2" d="m703.45,471.55c14.84,4.32,27.49,13.8,38.16,24.74,10.39,10.64,19.36,23.47,23.36,37.94,3.82,13.86,1.94,28.4-6.44,40.23-7.87,11.1-20,18.9-32.78,23.19-18.08,6.06-37.4,6.08-56.25,6.08-.78,0-.78,1.21,0,1.21,17.4,0,35.13-.02,52.02-4.73,13.55-3.77,26.5-10.95,35.56-21.89,9.05-10.92,12.72-24.79,10.33-38.77-2.59-15.12-11.12-28.83-21.2-40.13-11.45-12.83-25.7-24.17-42.43-29.04-.75-.22-1.07.95-.32,1.17h0Z"/>
    <path class="cls-2" d="m650.34,592.15c13.03-1.57,25.85-4.54,38.23-8.91.73-.26.42-1.43-.32-1.17-12.27,4.33-24.98,7.31-37.91,8.86-.76.09-.77,1.3,0,1.21h0Z"/>
    <path class="cls-2" d="m709.67,575.04c16.4-5.91,27.12-21.98,26.97-39.32-.05-5.4-1.1-10.76-3.08-15.78-.28-.72-1.45-.4-1.17.32,6.42,16.32,2.31,35.39-11.23,46.8-3.5,2.95-7.51,5.26-11.82,6.81-.73.26-.41,1.43.32,1.17h0Z"/>
    <path class="cls-2" d="m691.29,562.92c4.66-3.37,9.32-6.74,13.98-10.11.62-.45.02-1.5-.61-1.04-4.66,3.37-9.32,6.74-13.98,10.11-.62.45-.02,1.5.61,1.04h0Z"/>
    <path class="cls-2" d="m714.31,539.62c2.69-10.29,1.81-21.22-2.45-30.96-.31-.71-1.35-.1-1.04.61,4.13,9.43,4.93,20.07,2.33,30.03-.2.75.97,1.08,1.17.32h0Z"/>
    <path class="cls-2" d="m712.24,657.69c-33.91,6.02-68.17,10.07-102.55,12.11-9.7.57-19.4.98-29.11,1.24-.78.02-.78,1.23,0,1.21,34.54-.91,69.02-3.83,103.21-8.76,9.61-1.39,19.21-2.93,28.77-4.63.76-.14.44-1.3-.32-1.17h0Z"/>
    <path class="cls-2" d="m655.35,646.09c7.62-.68,15.25-1.36,22.87-2.04.77-.07.78-1.28,0-1.21-7.62.68-15.25,1.36-22.87,2.04-.77.07-.78,1.28,0,1.21h0Z"/>
    <path class="cls-2" d="m774.07,589.59c11.42-13.94,16.25-32.65,13.03-50.38-.14-.76-1.3-.44-1.17.32,3.14,17.27-1.6,35.62-12.72,49.2-.49.6.36,1.46.86.86h0Z"/>
    <path class="cls-2" d="m782.52,519.13c-2.65-6.69-6.41-12.84-11.16-18.24-.51-.59-1.37.27-.86.86,4.6,5.24,8.27,11.22,10.84,17.71.28.71,1.45.4,1.17-.32h0Z"/>
    <path class="cls-2" d="m759.93,486.92c-4.66-3.8-9.31-7.6-13.97-11.39-.6-.49-1.46.36-.86.86,4.66,3.8,9.31,7.6,13.97,11.39.6.49,1.46-.36.86-.86h0Z"/>
    <path class="cls-2" d="m493.06,566.72c7.62-.76,15.24-1.52,22.86-2.27.77-.08.78-1.29,0-1.21-7.62.76-15.24,1.52-22.86,2.27-.77.08-.78,1.29,0,1.21h0Z"/>
    <path class="cls-2" d="m546.54,563.21c7.61-1.28,15.22-2.56,22.82-3.85.77-.13.44-1.3-.32-1.17-7.61,1.28-15.22,2.56-22.82,3.85-.77.13-.44,1.3.32,1.17h0Z"/>
    <path class="cls-2" d="m595.96,552.76c6.71-1.7,13.13-4.31,19.12-7.77.67-.39.07-1.43-.61-1.04-5.9,3.41-12.22,5.97-18.83,7.65-.75.19-.43,1.36.32,1.17h0Z"/>
    <path class="cls-2" d="m475.3,532.46h22.83c.78,0,.78-1.21,0-1.21h-22.83c-.78,0-.78,1.21,0,1.21h0Z"/>
    <path class="cls-2" d="m523.5,529.96c9.12-.56,18.12-2.27,26.81-5.1.74-.24.42-1.41-.32-1.17-8.59,2.8-17.47,4.5-26.48,5.05-.77.05-.78,1.26,0,1.21h0Z"/>
    <path class="cls-2" d="m565.51,519.77c5.22-1.64,9.71-4.82,13.01-9.19.47-.62-.58-1.22-1.04-.61-3.1,4.1-7.39,7.1-12.29,8.63-.74.23-.42,1.4.32,1.17h0Z"/>
    <path class="cls-2" d="m372.57,578.12h16.49c.78,0,.78-1.21,0-1.21h-16.49c-.78,0-.78,1.21,0,1.21h0Z"/>
    <path class="cls-2" d="m413.15,576.85h19.02c.78,0,.78-1.21,0-1.21h-19.02c-.78,0-.78,1.21,0,1.21h0Z"/>
    <path class="cls-2" d="m678.8,463.03c-2.08-2.98-4.16-5.97-6.24-8.95-.44-.63-1.49-.03-1.04.61,2.08,2.98,4.16,5.97,6.24,8.95.44.63,1.49.03,1.04-.61h0Z"/>
    <path class="cls-2" d="m666.08,446.36c-2.99-3.78-5.98-7.56-8.97-11.34-.48-.61-1.33.25-.86.86,2.99,3.78,5.98,7.56,8.97,11.34.48.61,1.33-.25.86-.86h0Z"/>
    <path class="cls-2" d="m369.11,639.75c-20.75-3.03-41.64-5.05-62.59-6.03-21.09-.98-42.23-.91-63.31.21-5.48.29-10.96.82-16.45.98-5.24.15-10.59-.29-15.19-3.02.07.28.14.55.22.83,3.54-5.45,9.52-8.33,15.6-10.04,6.97-1.96,14.31-2.81,21.48-3.66,8.26-.98,16.56-1.6,24.88-1.87,3.62-.12,7.56-.56,11.16-.03,1.26.19,2.58.55,3.66,1.24.52.33,1.04.75,1.32,1.31.57,1.14.01,1.43-.96,1.8-8.26,3.23-17.3,4.24-26.07,3-.76-.11-1.09,1.06-.32,1.17,8.45,1.19,17.11.42,25.18-2.43,1.09-.38,3.25-.66,3.56-1.95.26-1.1-.21-2.26-.96-3.05-1.73-1.83-4.64-2.38-7.06-2.43-9.48-.18-19.05.46-28.48,1.38-8.38.82-16.9,1.76-25.11,3.68-7.29,1.71-14.68,4.75-18.92,11.26-.18.28-.05.67.22.83,7.81,4.64,17.41,3.11,26.02,2.57,10.59-.67,21.19-1.07,31.79-1.21,21.31-.28,42.63.52,63.86,2.39,12.09,1.06,24.15,2.48,36.16,4.23.76.11,1.09-1.05.32-1.17h0Z"/>
    <path class="cls-2" d="m268.25,607.56c15.19-8.15,32.42.96,47.25,5.34,7.87,2.32,16.28,3.76,24.34,1.55,7.5-2.05,13.9-6.77,21.25-9.21,9.39-3.12,19.48-2.53,29.2-1.95.78.05.78-1.16,0-1.21-8.58-.51-17.33-1-25.78.95-7.91,1.83-14.54,6.53-22.07,9.31-17.11,6.32-33.49-4.3-49.89-7.88-8.33-1.82-17.21-2.07-24.91,2.06-.69.37-.08,1.41.61,1.04h0Z"/>
    <path class="cls-2" d="m354.81,595.07c-5.39.06-10.63,1.23-15.55,3.43-.71.32-.09,1.36.61,1.04,4.72-2.11,9.77-3.21,14.94-3.27.78,0,.78-1.22,0-1.21h0Z"/>
    <path class="cls-2" d="m346.24,577.63c-12.85,3.57-26.32,6.09-39.7,4.77-6.89-.68-13.62-2.5-19.83-5.58-6.14-3.05-11.91-6.62-18.44-8.84-7.26-2.47-14.91-3.66-22.57-3.59-.78,0-.78,1.22,0,1.21,7.1-.07,14.17.97,20.94,3.11,6.94,2.2,12.99,5.93,19.46,9.14,11.89,5.92,25.31,6.97,38.35,5.46,7.49-.87,14.85-2.51,22.11-4.52.75-.21.43-1.38-.32-1.17h0Z"/>
    <path class="cls-2" d="m269.3,583.05c12.03,9.04,25.86,18.95,41.72,17.6.77-.07.78-1.28,0-1.21-15.64,1.33-29.25-8.52-41.11-17.44-.62-.47-1.23.58-.61,1.04h0Z"/>
    <path class="cls-2" d="m284.65,560.62c16.83,1.93,33.79,2.51,50.71,1.74.78-.04.78-1.25,0-1.21-16.92.77-33.88.19-50.71-1.74-.77-.09-.77,1.12,0,1.21h0Z"/>
    <path class="cls-2" d="m322.69,546.17c6.04.71,13.11-.51,17.99-4.36,1.99-1.57,3.3-3.82,2.85-6.42-.47-2.66-2.44-4.78-4.56-6.31-4.86-3.5-11.01-4.27-16.69-5.64-1.38-.33-2.76-.68-4.1-1.15-1.2-.42-2.44-1.25-1.4-2.59.79-1.02,2.29-1.04,3.46-1.1,3.79-.2,7.58-.29,11.37-.37,8.58-.19,17.17-.18,25.75.02.78.02.78-1.19,0-1.21-7.68-.18-15.37-.21-23.06-.08-3.79.07-7.58.17-11.37.32-2.38.09-6.2-.35-7.48,2.24-1.22,2.46,1.13,3.55,3.08,4.16,2.96.93,6,1.5,9.02,2.2,2.97.69,5.96,1.49,8.66,2.93,2.77,1.48,6.05,4,6.22,7.43.2,4.08-4.67,6.29-7.86,7.43-3.81,1.36-7.86,1.77-11.87,1.3-.77-.09-.77,1.12,0,1.21h0Z"/>
    <path class="cls-2" d="m294.71,666.18c5.67,1.66,11.79,1,16.94-1.93,5.1-2.9,8.94-7.62,14.15-10.35,2.48-1.29,5.33-2.12,8.14-2,3.15.14,5.43,1.66,7.32,4.09,1.72,2.21,3.49,4.04,6.03,5.32,2.43,1.22,5.07,1.93,7.72,2.47,7.45,1.54,15.05,2.4,22.64,2.77.78.04.78-1.17,0-1.21-7.01-.34-13.99-1.14-20.88-2.44-2.8-.53-5.64-1.14-8.24-2.33-2.9-1.33-4.72-3.33-6.68-5.78-3.24-4.07-8.18-4.83-13.01-3.41-5.31,1.56-9.25,5.49-13.48,8.84-2.82,2.23-5.86,4.14-9.37,5.03-3.62.92-7.38.8-10.95-.24-.75-.22-1.07.95-.32,1.17h0Z"/>
    <path class="cls-2" d="m400.47,665.63h28.75c.78,0,.78-1.21,0-1.21h-28.75c-.78,0-.78,1.21,0,1.21h0Z"/>
    <path class="cls-2" d="m460.5,668.17h32.13c.78,0,.78-1.21,0-1.21h-32.13c-.78,0-.78,1.21,0,1.21h0Z"/>
  </g>
  <g>
    <path class="cls-1" d="m483.99,322.72c-1.14-1.52-.82-3.68.7-4.81,1.52-1.14,3.68-.82,4.81.7s.82,3.68-.7,4.81c-1.52,1.14-3.68.82-4.81-.7Z"/>
    <path class="cls-1" d="m680.13,411.2c.09-1.85,1.66-3.28,3.51-3.19,1.85.09,3.28,1.66,3.19,3.51-.09,1.85-1.66,3.28-3.51,3.19s-3.28-1.66-3.19-3.51Z"/>
    <path class="cls-1" d="m664.85,404.9c.09-1.85,1.66-3.28,3.51-3.19,1.85.09,3.28,1.66,3.19,3.51s-1.66,3.28-3.51,3.19c-1.85-.09-3.28-1.66-3.19-3.51Z"/>
    <path class="cls-1" d="m649.31,398.5c.09-1.85,1.66-3.28,3.51-3.19,1.85.09,3.28,1.66,3.19,3.51-.09,1.85-1.66,3.28-3.51,3.19-1.85-.09-3.28-1.66-3.19-3.51Z"/>
    <path class="cls-1" d="m634.45,392.38c.09-1.85,1.66-3.28,3.51-3.19,1.85.09,3.28,1.66,3.19,3.51-.09,1.85-1.66,3.28-3.51,3.19-1.85-.09-3.28-1.66-3.19-3.51Z"/>
    <path class="cls-1" d="m619.69,386.3c.09-1.85,1.66-3.28,3.51-3.19,1.85.09,3.28,1.66,3.19,3.51-.09,1.85-1.66,3.28-3.51,3.19-1.85-.09-3.28-1.66-3.19-3.51Z"/>
    <path class="cls-1" d="m707.1,413.03l15.2,6.35-12.72,3.28-4.99,19.03-5.12-19.89-14.23-3.59,15.35-3.96s2.37-11.99,2.37-12,4.14,10.77,4.14,10.77Z"/>
    <polygon class="cls-1" points="468.85 324.16 475.42 331.6 467.21 330.35 466.3 339.56 463.92 333.25 449.08 328.62 459.38 324.67 458.44 313.53 463.19 319.72 472.26 318.06 468.85 324.16"/>
    <path class="cls-1" d="m470.74,522.38c-2.42-.11-18.49-2.9-18.49-2.9l14.8-4.56-4.62-13.58,8.93,8.12,3.88-13.59,3.91,11.52,12.25-10.76-5.88,13.09,12.53.59-12.01,5.51,8.68,13.37-12.14-8.67-.49,19.01-5.45-13.22-10.5,8.01,4.61-11.93Z"/>
    <polygon class="cls-1" points="441.87 356.84 427.6 355.28 437.98 348.23 431.84 339.2 443.55 343.47 454.12 333.85 452.88 346.42 466.19 354.5 451.61 354.62 446.12 368.14 441.87 356.84"/>
    <path class="cls-1" d="m466.64,472.85c-1.64.85-3.67.21-4.52-1.43s-.21-3.67,1.43-4.52c1.64-.85,3.67-.21,4.52,1.43.85,1.64.21,3.67-1.43,4.52Z"/>
    <path class="cls-1" d="m468.92,489.51c-1.64.85-3.67.21-4.52-1.43-.85-1.64-.21-3.67,1.43-4.52,1.64-.85,3.67-.21,4.52,1.43.85,1.64.21,3.67-1.43,4.52Z"/>
    <path class="cls-1" d="m455.81,387.66c-1.64.85-3.67.21-4.52-1.44-.85-1.64-.21-3.67,1.44-4.52,1.64-.85,3.67-.21,4.52,1.44.85,1.64.21,3.67-1.44,4.52Z"/>
    <path class="cls-1" d="m458.05,404.04c-1.64.85-3.67.21-4.52-1.43-.85-1.64-.21-3.67,1.44-4.52,1.64-.85,3.67-.21,4.52,1.43.85,1.64.21,3.67-1.44,4.52Z"/>
    <path class="cls-1" d="m460.32,420.68c-1.64.85-3.67.21-4.52-1.44s-.21-3.67,1.44-4.52c1.64-.85,3.67-.21,4.52,1.44.85,1.64.21,3.67-1.44,4.52Z"/>
    <path class="cls-1" d="m462.49,436.61c-1.64.85-3.67.21-4.52-1.44-.85-1.64-.21-3.67,1.43-4.52,1.64-.85,3.67-.21,4.52,1.44.85,1.64.21,3.67-1.43,4.52Z"/>
    <path class="cls-1" d="m464.65,452.43c-1.64.85-3.67.21-4.52-1.43-.85-1.64-.21-3.67,1.44-4.52,1.64-.85,3.67-.21,4.52,1.43.85,1.64.21,3.67-1.44,4.52Z"/>
    <polygon class="cls-1" points="539.59 266.71 536.14 280.64 530.54 269.42 520.77 274.29 526.57 263.26 518.43 251.5 530.73 254.4 540.51 242.29 538.69 256.76 551.35 264.01 539.59 266.71"/>
    <path class="cls-1" d="m522.73,291.73c-1.85.07-3.41-1.38-3.48-3.23-.07-1.85,1.38-3.41,3.23-3.48,1.85-.07,3.41,1.38,3.48,3.23.07,1.85-1.38,3.41-3.23,3.48Z"/>
    <path class="cls-1" d="m517.69,307.75c-1.85.07-3.41-1.38-3.48-3.23-.07-1.85,1.38-3.41,3.23-3.48,1.85-.07,3.41,1.38,3.48,3.23s-1.38,3.41-3.23,3.48Z"/>
    <path class="cls-1" d="m753.92,192.7c1.37,1.32,1.41,3.49.1,4.86-1.32,1.37-3.49,1.41-4.86.1-1.37-1.32-1.41-3.49-.1-4.86,1.32-1.37,3.49-1.41,4.86-.1Z"/>
    <path class="cls-1" d="m769.09,185.12c1.37,1.32,1.41,3.49.1,4.86-1.32,1.37-3.49,1.41-4.86.1-1.37-1.32-1.41-3.49-.1-4.86,1.32-1.37,3.49-1.41,4.86-.1Z"/>
    <path class="cls-1" d="m784.5,177.43c1.37,1.32,1.41,3.49.1,4.86s-3.49,1.41-4.86.1c-1.37-1.32-1.41-3.49-.1-4.86,1.32-1.37,3.49-1.41,4.86-.1Z"/>
    <path class="cls-1" d="m799.25,170.06c1.37,1.32,1.41,3.49.1,4.86-1.32,1.37-3.49,1.41-4.86.1-1.37-1.32-1.41-3.49-.1-4.86,1.32-1.37,3.49-1.41,4.86-.1Z"/>
    <path class="cls-1" d="m813.9,162.74c1.37,1.32,1.41,3.49.1,4.86-1.32,1.37-3.49,1.41-4.86.1-1.37-1.32-1.41-3.49-.1-4.86,1.32-1.37,3.49-1.41,4.86-.1Z"/>
    <path class="cls-1" d="m829.06,155.17c1.37,1.32,1.41,3.49.1,4.86s-3.49,1.41-4.86.1c-1.37-1.32-1.41-3.49-.1-4.86,1.32-1.37,3.49-1.41,4.86-.1Z"/>
    <path class="cls-1" d="m845.52,146.95c1.37,1.32,1.41,3.49.1,4.86-1.32,1.37-3.49,1.41-4.86.1-1.37-1.32-1.41-3.49-.1-4.86,1.32-1.37,3.49-1.41,4.86-.1Z"/>
    <path class="cls-1" d="m861.39,140.52c1.37,1.32,1.41,3.49.1,4.86-1.32,1.37-3.49,1.41-4.86.1-1.37-1.32-1.41-3.49-.1-4.86,1.32-1.37,3.49-1.41,4.86-.1Z"/>
    <path class="cls-1" d="m876.56,132.95c1.37,1.32,1.41,3.49.1,4.86-1.32,1.37-3.49,1.41-4.86.1-1.37-1.32-1.41-3.49-.1-4.86,1.32-1.37,3.49-1.41,4.86-.1Z"/>
    <path class="cls-1" d="m893.01,124.73c1.37,1.32,1.41,3.49.1,4.86-1.32,1.37-3.49,1.41-4.86.1-1.37-1.32-1.41-3.49-.1-4.86,1.32-1.37,3.49-1.41,4.86-.1Z"/>
    <path class="cls-1" d="m908.51,114.55l-.87-16.45,8.47,10.04,19.31-3.77-15.69,13.25,2.95,14.37-10.23-12.11s-11.83,3.07-11.84,3.08,7.9-8.4,7.9-8.4Z"/>
    <polygon class="cls-1" points="500.41 326.35 495.75 316.76 503.32 320.62 513.89 313.51 507.86 325.36 513.23 333.19 504.09 328.54 497.81 333.35 500.41 326.35"/>
    <polygon class="cls-1" points="721.47 199.58 731.58 184.94 729.73 201.85 743.45 206.9 728.55 208.9 729.88 226.54 723.49 216.22 713.53 224.58 714.39 213.37 701.06 212.03 713.49 206.85 706.93 196.42 721.47 199.58"/>
    <path class="cls-1" d="m657.06,226.61c-1.11-1.48-.81-3.58.67-4.69,1.48-1.11,3.58-.81,4.69.67s.81,3.58-.67,4.69-3.58.81-4.69-.67Z"/>
    <path class="cls-1" d="m641.28,231.52c-1.11-1.48-.81-3.58.67-4.69,1.48-1.11,3.58-.81,4.69.67,1.11,1.48.81,3.58-.67,4.69-1.48,1.11-3.58.81-4.69-.67Z"/>
    <path class="cls-1" d="m625.24,236.51c-1.11-1.48-.81-3.58.67-4.69,1.48-1.11,3.58-.81,4.69.67,1.11,1.48.81,3.58-.67,4.69s-3.58.81-4.69-.67Z"/>
    <path class="cls-1" d="m609.89,241.29c-1.11-1.48-.81-3.58.67-4.69s3.58-.81,4.69.67c1.11,1.48.81,3.58-.67,4.69s-3.58.81-4.69-.67Z"/>
    <path class="cls-1" d="m594.64,246.03c-1.11-1.48-.81-3.58.67-4.69s3.58-.81,4.69.67c1.11,1.48.81,3.58-.67,4.69s-3.58.81-4.69-.67Z"/>
    <path class="cls-1" d="m578.86,250.95c-1.11-1.48-.81-3.58.67-4.69,1.48-1.11,3.58-.81,4.69.67,1.11,1.48.81,3.58-.67,4.69-1.48,1.11-3.58.81-4.69-.67Z"/>
    <path class="cls-1" d="m561.09,256.26c-1.11-1.48-.81-3.58.67-4.69,1.48-1.11,3.58-.81,4.69.67,1.11,1.48.81,3.58-.67,4.69-1.48,1.11-3.58.81-4.69-.67Z"/>
    <path class="cls-1" d="m689.38,218.62c-1.11-1.48-.81-3.58.67-4.69,1.48-1.11,3.58-.81,4.69.67s.81,3.58-.67,4.69c-1.48,1.11-3.58.81-4.69-.67Z"/>
    <path class="cls-1" d="m671.95,221.8c-1.11-1.48-.81-3.58.67-4.69,1.48-1.11,3.58-.81,4.69.67,1.11,1.48.81,3.58-.67,4.69-1.48,1.11-3.58.81-4.69-.67Z"/>
    <path class="cls-1" d="m582.88,343.77c1.11-1.54,3.26-1.89,4.8-.78s1.89,3.26.78,4.8c-1.11,1.54-3.26,1.89-4.8.78-1.54-1.11-1.89-3.26-.78-4.8Z"/>
    <path class="cls-1" d="m572.44,328.63c1.11-1.54,3.26-1.89,4.8-.78,1.54,1.11,1.89,3.26.78,4.8s-3.26,1.89-4.8.78c-1.54-1.11-1.89-3.26-.78-4.8Z"/>
    <path class="cls-1" d="m561.91,313.34c1.11-1.54,3.26-1.89,4.8-.78,1.54,1.11,1.89,3.26.78,4.8s-3.26,1.89-4.8.78c-1.54-1.11-1.89-3.26-.78-4.8Z"/>
    <path class="cls-1" d="m552.01,298.96c1.11-1.54,3.26-1.89,4.8-.78,1.54,1.11,1.89,3.26.78,4.8s-3.26,1.89-4.8.78c-1.54-1.11-1.89-3.26-.78-4.8Z"/>
    <path class="cls-1" d="m542.18,284.7c1.11-1.54,3.26-1.89,4.8-.78,1.54,1.11,1.89,3.26.78,4.8-1.11,1.54-3.26,1.89-4.8.78-1.54-1.11-1.89-3.26-.78-4.8Z"/>
    <polygon class="cls-1" points="604.29 369.35 619.15 367.38 607.18 377.76 609.8 387.09 602.14 378.25 586.98 384.37 596.32 376.26 587.22 364.19 595.3 366.92 601.79 358.48 604.29 369.35"/>
    <path class="cls-1" d="m596.92,679.61c1.55-1.09,3.7-.72,4.79.83,1.09,1.55.72,3.7-.83,4.79-1.55,1.09-3.7.72-4.79-.83-1.09-1.55-.72-3.7.83-4.79Z"/>
    <path class="cls-1" d="m591.99,661.89c1.55-1.09,3.7-.72,4.79.83,1.09,1.55.72,3.7-.83,4.79s-3.7.72-4.79-.83c-1.09-1.55-.72-3.7.83-4.79Z"/>
    <path class="cls-1" d="m587.01,644c1.55-1.09,3.7-.72,4.79.83,1.09,1.55.72,3.7-.83,4.79-1.55,1.09-3.7.72-4.79-.83-1.09-1.55-.72-3.7.83-4.79Z"/>
    <polygon class="cls-1" points="608.82 710.77 623.52 713.75 608.81 719.66 608.26 729.33 603.89 718.48 587.56 719.32 599.04 714.7 594.36 700.33 601.11 705.54 610 699.68 608.82 710.77"/>
    <polygon class="cls-1" points="567.86 579.3 561.85 593.03 559.17 577.41 549.84 574.83 561.37 572.85 563.99 556.71 566.08 568.9 581.12 567.37 574.61 572.87 578.46 582.8 567.86 579.3"/>
    <path class="cls-1" d="m537.27,559.63c.54-1.77,2.41-2.77,4.18-2.23,1.77.54,2.77,2.41,2.23,4.19-.54,1.77-2.41,2.77-4.19,2.23-1.77-.54-2.77-2.41-2.23-4.18Z"/>
    <path class="cls-1" d="m524.36,550.05c.54-1.77,2.41-2.77,4.19-2.23,1.77.54,2.77,2.41,2.23,4.18-.54,1.77-2.41,2.77-4.18,2.23-1.77-.54-2.77-2.41-2.23-4.19Z"/>
    <path class="cls-1" d="m511.54,540.53c.54-1.77,2.41-2.77,4.19-2.23,1.77.54,2.77,2.41,2.23,4.18-.54,1.77-2.41,2.77-4.18,2.23-1.77-.54-2.77-2.41-2.23-4.19Z"/>
    <path class="cls-1" d="m498.27,530.69c.54-1.77,2.41-2.77,4.19-2.23,1.77.54,2.77,2.41,2.23,4.19-.54,1.77-2.41,2.77-4.18,2.23-1.77-.54-2.77-2.41-2.23-4.18Z"/>
    <polygon class="cls-1" points="574.88 609.81 575.92 592.04 583.12 607.46 597.47 604.65 585.77 614.1 596.08 628.48 585.26 622.98 581.09 635.3 576 625.28 563.91 631.05 571.84 620.17 560.82 614.66 574.88 609.81"/>
  </g>
</svg>