<?xml version="1.0" encoding="UTF-8"?>
<svg id="object" xmlns="http://www.w3.org/2000/svg" viewBox="0 0 1200 800">
  <defs>
    <style>
      .cls-1 {
        fill: #fff;
      }

      .cls-2 {
        fill: #a1d9d4;
        opacity: .42;
      }
    </style>
  </defs>
  <g>
    <path class="cls-2" d="m602.67,584.27c-4.15,0-8.46-.19-12.94-.61-28.78-2.64-79.43-15.9-129.02-33.76-53.03-19.11-91.66-38.71-103.34-52.43-26.21-30.81-34.32-49.32-30.71-98.16v-.14s.07-.12.07-.12c.09-.18,9.13-18.29,29.65-19.79,19.98-1.46,31.81,5.37,32.71,5.91,1.3.58,34.08,15.22,65.36,18.79,5.7.65,16.6.63,30.42.59,64.63-.14,199.09-.46,228.03,65.8.06.17,4.62,12.77,5.99,27.28,1.83,19.37-2.81,33.35-13.43,40.44-4.54,3.03-9.25,6.63-14.23,10.43-21.05,16.09-46.78,35.76-88.57,35.76Zm-274.59-184.71c-3.55,48.24,4.49,66.54,30.39,96.98,11.52,13.54,49.92,32.98,102.73,52.01,49.49,17.83,99.99,31.05,128.67,33.69,49.01,4.5,77.56-17.33,100.5-34.87,5-3.82,9.72-7.43,14.3-10.49,24.64-16.45,7.08-65.5,6.9-66-28.55-65.35-162.37-65.04-226.7-64.9-13.86.03-24.8.06-30.58-.6-31.98-3.65-65.49-18.78-65.82-18.93l-.08-.04c-.12-.07-12.04-7.18-31.9-5.73-18.86,1.38-27.61,17.34-28.41,18.87Z"/>
    <path class="cls-2" d="m671.8,562.74c4.08,2.8,8.92,4.34,13.88,4.34,5.07,0,9.81-1.76,14.14-4.29,4.31-2.52,8.78-5.48,12.28-9.07,2.9-2.97,5.12-6.73,4.97-10.99-.14-4.07-2.22-8.02-6.22-9.38-.87-.3-1.25,1.08-.38,1.38,4.55,1.55,5.99,7.2,4.75,11.45-1.56,5.33-6.55,8.95-10.89,11.97-4.71,3.28-9.75,6.48-15.54,7.29-5.72.8-11.53-.67-16.28-3.93-.76-.52-1.48.72-.72,1.24h0Z"/>
    <path class="cls-2" d="m710.76,532.58c2.69,3.92,7.86,5.34,12.33,3.95,5.05-1.57,8.43-6.4,9.66-11.35,1.6-6.41.16-13.77-2.19-19.83-1.95-5.04-5.8-9.71-11.6-9.89-.92-.03-.92,1.4,0,1.43,5.61.18,8.99,5.17,10.64,10,1.81,5.3,3.04,11.29,2,16.86-.83,4.48-3.45,8.98-7.71,10.95-4.01,1.86-9.32.91-11.9-2.84-.52-.75-1.76-.04-1.24.72h0Z"/>
    <path class="cls-2" d="m691.1,566.55c6.59,4.15,14.34,6.04,22.1,5.83,7.03-.2,15.74-1.63,20.38-7.46.37-.46.16-1.22-.51-1.22-7.87.03-16.75-2.83-19.45-11.04-.29-.87-1.67-.5-1.38.38,2.91,8.84,12.27,12.12,20.83,12.09-.17-.41-.34-.81-.51-1.22-4.52,5.68-13.14,6.96-19.97,7.06-7.33.1-14.56-1.73-20.78-5.64-.78-.49-1.5.75-.72,1.24h0Z"/>
    <path class="cls-2" d="m728.99,532.11c5.83,2.76,7.82,9.12,9.44,14.89.15.52.81.69,1.2.32,2.54-2.47,3.55-5.84,4.03-9.27.56-3.99.6-8.07-.05-12.05-1.24-7.52-5.56-13.9-12.21-17.69-.8-.46-1.52.78-.72,1.24,6.12,3.5,10.15,9.27,11.43,16.17.69,3.7.69,7.53.25,11.26-.4,3.4-1.21,6.87-3.75,9.33.4.11.8.21,1.2.32-1.71-6.1-3.93-12.82-10.1-15.74-.83-.39-1.55.84-.72,1.24h0Z"/>
    <path class="cls-2" d="m693.24,446.17c8.36-3.26,16.24-8.17,22.71-14.4,3.19-3.07,6.09-6.55,8.14-10.49,2.03-3.9,3.36-8.14,5.11-12.17,2.02-4.67,4.6-9.19,9.01-11.98-.36-.21-.72-.41-1.08-.62-.21,3.04,1.79,5.52,4.35,6.94,3.61,1.99,7.74,1.23,11.53,2.45,1.57.51,2.41,1.27,1.71,2.88-.38.86-1,1.61-1.62,2.31-1.13,1.27-2.23,2.48-3.1,3.96-1.73,2.93-2.63,6.27-3.2,9.61-1.35,8.01-1.44,16.17-2.98,24.17-1.49,7.75-4.04,15.33-8.47,21.92-4.57,6.79-11.12,12.17-19.34,13.61-.91.16-.52,1.54.38,1.38,14.97-2.63,23.86-17.21,27.51-30.83,2.24-8.37,2.84-16.97,3.72-25.55.4-3.94.98-8,2.62-11.65.81-1.8,1.86-3.41,3.19-4.86,1-1.1,2.08-2.21,2.67-3.6,1.76-4.16-3.15-4.93-6.12-5.29-4.32-.52-11.83-1.42-11.41-7.45.04-.54-.64-.9-1.08-.62-9.63,6.1-10.41,18.44-16.19,27.33-6.47,9.95-17.52,17.32-28.44,21.58-.85.33-.48,1.72.38,1.38h0Z"/>
    <path class="cls-2" d="m756.33,406.13c9.75-4.83,8.52-17.63,10.56-26.58.62-2.74,1.45-5.43,2.47-8.04,1.01-2.59,2.37-5.09,3.04-7.81.5-2.02.59-4.21-.12-6.2-.75-2.09-2.28-3.33-4.11-4.45-4.42-2.71-6.21-7.08-9.26-11.04-2.38-3.08-6.47-6.03-10.57-4.96-3.65.96-5.14,4.53-5.52,7.96-.54,4.89.27,9.94.17,14.86-.26,13.25-2.51,26.37-4.91,39.37-.17.9,1.21,1.29,1.38.38,1.82-9.9,3.54-19.84,4.42-29.87.45-5.18.67-10.38.51-15.58-.12-3.83-.85-8,.4-11.72.66-1.97,2.07-3.64,4.18-4.08,2.59-.54,5.21.94,7.07,2.61,3.09,2.78,4.61,6.86,7.31,9.98,1.35,1.56,2.9,2.53,4.62,3.63,2.51,1.62,3.62,3.88,3.38,6.89-.2,2.47-1.29,4.79-2.27,7.03-.96,2.2-1.82,4.45-2.52,6.75-1.64,5.41-2,10.91-2.95,16.45-.9,5.23-2.95,10.68-7.99,13.18-.82.41-.1,1.64.72,1.24h0Z"/>
    <path class="cls-2" d="m754.61,339.5c5.47-3.37,12.64-2.67,18.8-2.69,6.51-.02,13.2-.24,19.68.4,3.12.31,5.81,1.44,6.7,4.71.68,2.5.82,5.43.71,8.02-.13,2.95-1.01,5.99-3.66,7.63-2.43,1.5-5.5,1.26-8.17.73-3.08-.61-6.06-1.65-9.11-2.39-3.14-.76-6.31-1.19-9.53-1.3-.92-.03-.92,1.4,0,1.43,3.63.13,7.15.7,10.66,1.63,3.04.81,6.05,1.84,9.18,2.27,5.71.78,10.78-1.65,11.84-7.69.51-2.91.22-5.94-.17-8.85-.36-2.61-1.25-5.04-3.68-6.37-2.38-1.3-5.24-1.33-7.88-1.41-4.08-.13-8.15-.21-12.23-.24-4.4-.03-8.82-.08-13.22.13-3.72.18-7.4.77-10.62,2.75-.78.48-.06,1.72.72,1.24h0Z"/>
    <path class="cls-2" d="m796.5,359.5c3.07,6.4,7.61,12.01,13.24,16.32,6.19,4.74,13.42,7.38,20.93,9.21,8.41,2.05,16.88,3.63,25.17,6.18,4.27,1.31,8.5,2.79,12.66,4.41,3.66,1.43,7.34,2.95,10.62,5.14,3.43,2.29,5.94,5.32,7.87,8.95,1.8,3.38,3.16,6.99,5.19,10.25,3.84,6.18,9.91,10.53,16.4,13.59,7.21,3.4,14.98,5.26,22.57,7.55,7.55,2.28,14.77,5.19,21.22,9.79,13.02,9.28,22.16,23.69,24.88,39.45.05.29.4.54.69.53,3.2-.22,5.5-2.74,6.29-5.75,1.05-4.03-.79-8.11-1.96-11.89-2.67-8.61-3.38-17.66-4.06-26.6-.65-8.61-1.24-17.32-3.5-25.69-2.17-8.04-6.09-15.28-11.58-21.53-5.49-6.26-12.12-11.41-18.9-16.2-7.41-5.24-14.94-10.47-22.88-14.87-8.21-4.56-16.86-7.63-26.13-9.17-9.63-1.6-19.4-2.18-29.08-3.48-22.07-2.98-43.9-7.73-65.35-13.7-.89-.25-1.27,1.13-.38,1.38,18.17,5.06,36.61,9.23,55.24,12.21,8.98,1.44,18,2.5,27.04,3.43,9.35.97,18.73,2.18,27.54,5.61,8.47,3.29,16.19,8.21,23.69,13.26,6.92,4.66,13.9,9.32,20.24,14.77,6.07,5.22,11.57,11.22,15.24,18.39,3.9,7.59,5.51,16.08,6.41,24.5,1,9.3,1.21,18.68,2.72,27.92.78,4.76,2.11,9.26,3.54,13.86.74,2.38,1.39,4.96.76,7.43-.59,2.34-2.37,4.53-4.91,4.7.23.18.46.35.69.53-2.34-13.57-9.38-26.14-19.52-35.44-5.1-4.67-10.94-8.48-17.31-11.19-7.89-3.36-16.32-5.14-24.43-7.85-7.17-2.39-14.35-5.67-19.79-11.06-2.85-2.82-4.87-6.14-6.6-9.74-1.63-3.4-3.11-6.92-5.42-9.93-4.63-6.01-12.06-8.82-18.94-11.39-8.24-3.09-16.7-5.56-25.29-7.45-9.12-2.01-18.56-3.63-26.69-8.5-7.35-4.39-13.23-10.95-16.92-18.66-.4-.83-1.63-.11-1.24.72h0Z"/>
    <path class="cls-2" d="m857.4,392c6.89,8.69,8.07,20.34,11.04,30.68,2.95,10.28,6.94,20.27,11.84,29.77,4.95,9.6,10.85,18.7,17.58,27.14,6.61,8.29,13.99,16.14,22.41,22.62,9.25,7.11,20.05,12.42,31.87,13.02.69.04.85-.78.51-1.22-7.19-9.23-22.1-11.37-24.86-24.02-1.22-5.59-.39-11.93-3.24-17.09-1.4-2.54-3.63-4.04-6.19-5.27-1.54-.74-3.2-1.43-4.43-2.65-1.5-1.48-2.09-3.53-2.53-5.53-1.94-8.86-2.74-18.04-3.05-27.1-.03-.92-1.46-.92-1.43,0,.28,8.09,1.03,16.2,2.46,24.18.58,3.25,1.05,7.03,3.54,9.46,2.45,2.39,6.1,2.93,8.58,5.27,4.6,4.33,3.69,11.95,4.63,17.65.97,5.88,4.1,10.17,8.85,13.64,5.6,4.1,12.29,6.87,16.65,12.47.17-.41.34-.81.51-1.22-21.69-1.1-39.15-17.89-52.13-33.8-13.62-16.7-23.87-36.15-29.94-56.83-3.2-10.89-4.39-23.02-11.66-32.18-.57-.72-1.58.3-1.01,1.01h0Z"/>
    <path class="cls-2" d="m646.76,421.6c1.77-5.88,3.92-11.65,5.96-17.44.99-2.82,1.97-5.66,2.85-8.52.76-2.48,1.59-5.76,3.99-7.19,2.65-1.57,4.97.7,6.7,2.49,1.48,1.53,2.99,3.14,5.08,3.79,1.3.41,3.29.29,3.59,1.87.25,1.34-.9,3.38-1.41,4.62-1.2,2.95-2.57,5.82-3.88,8.72-2.62,5.81-5.4,11.96-5.53,18.43-.02.92,1.41.92,1.43,0,.15-6.99,3.47-13.63,6.32-19.86,1.34-2.93,2.7-5.85,3.81-8.87.92-2.49,1.31-4.83-1.69-5.75-1.39-.43-2.72-.54-3.95-1.4-1.15-.8-2.08-1.89-3.05-2.88-1.55-1.58-3.34-3.19-5.7-3.11-5.64.17-6.87,8.26-8.23,12.33-2.5,7.48-5.39,14.83-7.66,22.38-.27.88,1.12,1.26,1.38.38h0Z"/>
    <path class="cls-2" d="m664.12,387.84c4.94-2.3,11.12-1.96,16.12-.01,6.4,2.49,9.08,8.46,11.79,14.33,1.62,3.51,3.15,7.07,4.6,10.65,1.16,2.88,3.04,6.29,3,9.47-.05,4.64-4.91,3.92-8.02,2.89-1.49-.5-3.05-1.15-4.11-2.36-1.21-1.38-1.35-3.37-2.03-5.01-2.38-5.74-8.47-8.72-11.24-14.21-.41-.82-1.65-.1-1.24.72,1.51,2.99,3.92,5.27,6.26,7.6,1.16,1.15,2.32,2.32,3.29,3.64,1.2,1.64,1.8,3.37,2.4,5.28.97,3.15,3.25,4.72,6.28,5.72,2.71.9,6.45,1.79,8.64-.68,1.95-2.2,1.14-5.57.25-8.04-1.46-4.05-3.14-8.03-4.86-11.97-2.86-6.54-5.61-14.76-12.29-18.36-5.79-3.12-13.54-3.71-19.56-.91-.83.39-.11,1.62.72,1.24h0Z"/>
    <path class="cls-2" d="m690.92,426.15c.85,5.9,3.18,11.42,6.81,16.15.55.72,1.8,0,1.24-.72-3.56-4.64-5.83-10.02-6.67-15.81-.13-.91-1.51-.52-1.38.38h0Z"/>
    <path class="cls-2" d="m700.45,423.27c2.34,1.31,4.16,3.61,5.63,5.81,1.43,2.13,2.78,4.53,3.14,7.1.13.91,1.51.52,1.38-.38-.39-2.84-1.96-5.54-3.57-7.86-1.56-2.25-3.43-4.54-5.85-5.9-.8-.45-1.53.78-.72,1.24h0Z"/>
    <path class="cls-2" d="m591.01,410.09c.19-6.44,1.27-12.76,3.33-18.86,1.03-3.05,2.17-6.18,3.7-9.02.68-1.26,1.61-2.73,2.97-3.35,1.72-.79,3.07.21,4.3,1.33,1.79,1.64,3.16,2.45,5.57,2.83,1.83.29,3.35.67,2.87,3.02-.34,1.7-.93,3.38-1.4,5.05-1.95,7.01-3.9,14.02-5.85,21.02-.25.89,1.13,1.27,1.38.38,1.82-6.55,3.64-13.1,5.46-19.64.45-1.61.89-3.22,1.34-4.82.32-1.16.82-2.47.56-3.7-.39-1.84-2.13-2.39-3.77-2.65-1.14-.18-2.27-.28-3.28-.89-1.07-.65-1.87-1.69-2.86-2.46-1.5-1.16-3.31-1.6-5.06-.7-1.86.95-3.06,2.93-3.93,4.75-1.26,2.65-2.36,5.4-3.3,8.18-2.16,6.31-3.29,12.87-3.48,19.54-.03.92,1.4.92,1.43,0h0Z"/>
    <path class="cls-2" d="m606.76,379.35c1.68-3.46,6.55-2.85,8.92-.52,3.14,3.09,3.71,8.19,4.59,12.28,1.74,8.13,3.73,16.38,4.42,24.68.08.91,1.51.92,1.43,0-.36-4.35-1.17-8.67-1.99-12.95-1.1-5.74-2.18-11.52-3.61-17.19-.97-3.84-2.69-8.24-6.74-9.69-2.99-1.07-6.78-.4-8.26,2.65-.4.82.83,1.55,1.24.72h0Z"/>
    <path class="cls-2" d="m518.52,405.19c2.52-4.98,5.04-9.97,7.56-14.95,1.16-2.29,2.13-5.07,3.83-7.03,2.07-2.4,4.37-.66,6.9-.42,1.96.18,5.59-1,6.74,1.22,1.11,2.15-1.01,4.94-2.15,6.64-3.2,4.75-6.4,9.5-9.6,14.25-.52.77.72,1.48,1.24.72,2.04-3.03,4.09-6.06,6.13-9.09,1.72-2.55,3.78-5.08,5.13-7.85.86-1.76,1.49-4.03.25-5.76-1.3-1.81-3.59-1.69-5.57-1.57-1.65.1-2.99-.18-4.58-.6-1.06-.28-2.14-.47-3.21-.13-2.12.66-3.26,2.85-4.2,4.69-3.25,6.39-6.47,12.79-9.7,19.18-.41.82.82,1.54,1.24.72h0Z"/>
    <path class="cls-2" d="m536.16,381.59c2.08-2.54,5.95-1.34,7.86.81,2.24,2.52,2.93,6.03,4.35,9.01,2.67,5.6,8.02,9.64,9.39,15.88.2.9,1.58.52,1.38-.38-.8-3.6-2.85-6.56-5.05-9.45-2.51-3.29-4.42-6.45-5.93-10.31-1.17-3-2.58-6.15-5.63-7.63-2.45-1.18-5.55-1.18-7.38,1.05-.58.71.43,1.72,1.01,1.01h0Z"/>
    <path class="cls-2" d="m537.8,397.21c.27,3.26,1.1,6.35,2.48,9.31.39.83,1.62.11,1.24-.72-1.27-2.73-2.03-5.59-2.28-8.59-.08-.91-1.51-.92-1.43,0h0Z"/>
    <path class="cls-2" d="m460.9,403.93c.45-5,.88-10,1.34-15,.23-2.49.46-5.31,2.21-7.27,1.99-2.22,4.22-1.58,6.74-.86.85.24,1.69.41,2.57.39.86-.02,2.82-.58,3.54.05,1.1.96.75,2.91.68,4.17-.07,1.3-.14,2.6-.22,3.91-.28,5.09-.56,10.18-.84,15.27-.05.92,1.38.92,1.43,0,.35-6.39.71-12.78,1.06-19.18.11-2,.48-4.71-1.84-5.6-.97-.37-1.99-.19-3-.11-1.5.12-2.77-.23-4.2-.65-4.8-1.43-8.18,1.64-9.12,6.29-.57,2.81-.65,5.74-.9,8.59-.3,3.33-.6,6.67-.89,10-.08.92,1.35.91,1.43,0h0Z"/>
    <path class="cls-2" d="m469.13,380.21c2.47-1.37,5.3-2.38,8.16-2.19,3.71.24,5.78,2.86,6.84,6.21,2.18,6.88,3.79,13.99,5.66,20.96.24.89,1.62.51,1.38-.38-1.17-4.34-2.33-8.68-3.5-13.03-.98-3.67-1.57-7.98-3.6-11.26-3.48-5.61-10.75-4.27-15.67-1.55-.81.45-.08,1.68.72,1.24h0Z"/>
    <path class="cls-2" d="m650.53,573.45c.71,10.69-8.09,18.17-16.7,22.67-8.16,4.26-16.88,7.37-25.22,11.25-7.95,3.7-15.74,8.11-21.94,14.41-.71.73-2.64,3.62-3.97,2-.77-.93-.29-2.61-.34-3.73-.11-2.18-1.38-3.87-2.92-5.31-3.25-3.04-7.17-5.41-11.28-7.09-.58-.24-1.16-.46-1.75-.66-.53-.19-2.01-.37-2.38-.75-.5-.52-.18-1.8.05-2.3.32-.69.78-1.33,1.2-1.96,1.44-2.16,3.01-4.24,4.53-6.34,3.05-4.22,6.04-8.63,7.31-13.75.22-.89-1.16-1.27-1.38-.38-1.3,5.19-4.43,9.64-7.53,13.91-1.52,2.09-3.08,4.16-4.49,6.32-.87,1.34-2.18,3.51-1.21,5.14.48.81,1.46.82,2.33,1.1,1.43.45,2.82.99,4.19,1.61,2.52,1.15,4.92,2.59,7.12,4.27,2.43,1.86,4.84,3.84,4.77,7.16-.04,1.78.03,3.92,1.95,4.75,1.84.79,2.94-.98,4.03-2.15,1.68-1.79,3.5-3.45,5.42-4.98,3.96-3.15,8.35-5.73,12.86-8.02,8.94-4.53,18.42-7.87,27.41-12.27,9.73-4.76,20.17-12.82,19.37-24.9-.06-.91-1.49-.92-1.43,0h0Z"/>
    <path class="cls-2" d="m581.02,618.57c-9.54,5.07-18.11,12.5-19.63,23.78-.41,3.06-.37,6.15-.04,9.21.31,2.82,1.09,5.57,1.35,8.39.12,1.29.15,2.74-.45,3.93-.89,1.76-2.78,2.19-4.59,2.25-3.02.1-6.05-.39-9.05-.59-2.8-.19-5.69-.19-8.41.63-2.75.82-4.87,2.58-7.09,4.32-2.79,2.19-6.47,4.29-9.8,1.91-2.37-1.69-3.88-4.57-5.42-6.98-1.81-2.83-3.55-5.74-4.8-8.86-1.14-2.85-2.51-6.74-1.57-9.8.94-3.09,4.32-5.4,6.8-7.22,2.65-1.95,5.46-3.68,8.25-5.41,13.51-8.42,27.03-16.83,40.54-25.25.78-.49.06-1.72-.72-1.24-13,8.1-26,16.2-39.01,24.3-3.03,1.89-6.09,3.73-8.99,5.8-2.46,1.75-5.08,3.64-6.91,6.06-3.66,4.83-.52,12.1,1.92,16.8,1.52,2.94,3.34,5.72,5.17,8.48,1.4,2.09,2.99,4.33,5.39,5.34,6.35,2.68,10.79-4.82,16.06-6.67,6.41-2.25,13.02.85,19.47-.35,5.82-1.08,4.79-7.25,3.97-11.58-1.47-7.7-1.48-15.9,2.74-22.78,3.65-5.95,9.52-10,15.58-13.22.81-.43.09-1.67-.72-1.24h0Z"/>
    <path class="cls-2" d="m576.18,685.27c3.92-12.47,18.22-16.43,29.83-17.09,7.3-.41,14.64-.04,21.91-.95,6.97-.88,13.74-2.77,20.5-4.64,7.04-1.95,14.09-3.71,21.33-4.74,7.51-1.07,15.1-1.56,22.68-1.85,14.06-.53,28.33-1.14,42.36.11,7.7.68,15.38,2.06,22.68,4.65,6.64,2.35,13.92,5.71,17.05,12.45.21-.36.41-.72.62-1.08-4.61.18-8.97-1.86-13.37-2.96-3.55-.88-7.16-1.51-10.8-1.91-7.59-.83-15.28-.58-22.82.64-15.15,2.45-29.69,8.97-41.34,18.99-11.68,10.05-20.26,23.38-32.78,32.51-6.87,5.01-14.76,8.19-23.24,9.05-8.85.9-17.77-.49-26.13-3.44-9.33-3.3-17.97-8.46-25.84-14.41-3.74-2.82-7.78-6.35-8.41-11.27-.69-5.35,2.7-10.24,5.62-14.4.53-.76-.71-1.47-1.24-.72-2.53,3.61-5.15,7.51-5.77,11.98-.5,3.61.64,7.02,2.85,9.86,2.46,3.16,5.8,5.53,9.03,7.83,3.72,2.65,7.59,5.1,11.62,7.26,15.42,8.29,34.26,12.33,51.06,5.71,14.81-5.83,24.67-18.88,35.21-30.13,5.57-5.95,11.55-11.42,18.48-15.76,6.93-4.34,14.5-7.61,22.38-9.76,8.89-2.42,18.17-3.4,27.37-2.84,4.66.28,9.28.97,13.82,2.06,4.71,1.14,9.37,3.33,14.3,3.14.58-.02.85-.58.62-1.08-2.56-5.51-7.84-8.91-13.23-11.26-6.4-2.79-13.2-4.56-20.09-5.62-14.41-2.21-29.12-1.61-43.64-1.23-15.46.4-30.8,1.5-45.79,5.49-7.38,1.96-14.68,4.27-22.23,5.53-7.74,1.3-15.57.96-23.37,1.3-12.68.56-28.29,4.53-32.59,18.21-.28.88,1.1,1.26,1.38.38h0Z"/>
    <path class="cls-2" d="m678.03,697.54c6.66.81,13.34,1.42,20.04,1.82,3.35.2,6.7.35,10.05.44,2.92.08,5.95.32,8.84-.21,2.71-.5,4.51-2.11,6.84-3.43,1.8-1.02,3.04-.8,4.88-.02.92.4,1.81.67,2.82.57,1.72-.17,3.17-.97,4.96-.94,1.56.03,3.11.4,4.66.56,2.64.26,5.3.19,7.92-.18,6.08-.85,11.76-3.32,16.59-7.1-.4-.11-.8-.21-1.2-.32,1.19,4.73-4.01,7.33-7.51,8.99-3.8,1.8-7.75,3.24-11.77,4.45-7.69,2.32-15.59,3.82-23.45,5.46-16.25,3.38-32.05,8.48-48.19,12.33-9.33,2.23-18.78,3.95-28.36,4.51-.91.05-.92,1.48,0,1.43,17.86-1.05,35.08-6.09,52.23-10.81,8.5-2.34,17.03-4.49,25.67-6.28,8.49-1.76,17.05-3.4,25.29-6.15,4.31-1.44,8.74-3.1,12.65-5.44,3.14-1.88,5.79-5,4.82-8.87-.14-.57-.79-.63-1.2-.32-4.46,3.49-9.77,5.77-15.37,6.64-2.78.43-5.63.5-8.43.19-1.45-.16-2.9-.48-4.36-.53-1.48-.04-2.68.4-4.1.73-2.62.62-4.58-1.6-7.2-1.03-2.38.52-4.09,2.52-6.28,3.47-2.88,1.26-6.25.95-9.32.88-3.23-.08-6.47-.2-9.7-.38-7.3-.39-14.58-1.04-21.84-1.92-.91-.11-.9,1.32,0,1.43h0Z"/>
    <path class="cls-2" d="m529.41,673.59c4.82,6.32,10.26,12.12,16.32,17.25,5.75,4.87,12.19,9.9,19.33,12.52,1.72.63,3.5,1.09,5.32,1.29,1.35.15,3.38.44,4.61-.31,1.08-.66,1.02-1.76.75-2.85-.55-2.15-.9-4-.44-6.23.81-3.97,3.23-7.3,5.87-10.26,2.03-2.27,3.15-4.85,1.2-7.6-2.29-3.23-6.52-3.41-10.01-4.33-4.59-1.21-8.86-3.4-12.57-6.36-.71-.57-1.73.44-1.01,1.01,2.59,2.07,5.39,3.8,8.44,5.09,2.99,1.27,6.06,1.84,9.19,2.63,1.83.47,3.63,1.17,4.76,2.76,1.63,2.28.43,4.19-1.2,5.98-2.01,2.21-3.8,4.63-4.98,7.39-1.18,2.75-1.75,5.77-1.09,8.72.12.53.77,1.79.62,2.31-.28.91-2.19.72-2.89.69-1.91-.08-3.79-.51-5.59-1.12-6.84-2.34-13.07-7.19-18.57-11.76-6.25-5.2-11.89-11.11-16.82-17.57-.55-.72-1.79-.01-1.24.72h0Z"/>
    <path class="cls-2" d="m552.07,576.7c-.13,6.39-6.53,10.39-11.74,12.62-3.24,1.38-6.54,2.71-9.9,3.77-1.61.51-3.45,1.03-5.13.52-1.73-.53-2.46-2.11-3.4-3.5-1.53-2.27-3.52-4.21-5.83-5.68-2.17-1.38-4.93-1.86-6.96-3.42-.67-.52-1.55-1.27-.79-2.12.5-.55,1.85-.94,2.52-1.27,1.43-.71,2.86-1.41,4.3-2.11,3.31-1.61,6.62-3.21,9.9-4.9.82-.42.1-1.66-.72-1.24-3.07,1.58-6.18,3.09-9.29,4.6-1.43.69-2.86,1.39-4.28,2.1-.73.36-1.46.73-2.19,1.1-.52.26-1.52.53-1.85,1.07-.9,1.45.61,3.23,1.69,4.01,2.03,1.46,4.59,1.96,6.71,3.27,2.76,1.7,4.66,4,6.43,6.67,1.31,1.97,3.03,3.11,5.45,3.04,2.82-.08,5.6-1.33,8.2-2.31,2.9-1.09,5.88-2.2,8.65-3.61,4.73-2.41,9.54-6.95,9.66-12.6.02-.92-1.41-.92-1.43,0h0Z"/>
    <path class="cls-2" d="m507.93,580.69c-12.06,1.21-24.1,2.69-36.1,4.44-5.96.87-11.95,1.71-17.87,2.82-3.47.65-7.76,1.87-9.51,5.28-1.04,2.03-.77,4.28-.18,6.4.79,2.83,1.78,5.61,2.67,8.41.69,2.15,1.17,4.75,2.88,6.37,1.22,1.17,2.87,1.65,4.53,1.7,4.87.15,9.82-2.59,14.25-4.26,5.58-2.1,11.18-4.15,16.81-6.1,12.69-4.4,25.55-8.32,38.66-11.23.9-.2.52-1.58-.38-1.38-20.97,4.65-41.28,11.86-61.3,19.55-3.5,1.34-9.61,3.92-12.28-.15-1.35-2.05-1.81-4.94-2.56-7.26-.85-2.68-2.21-5.61-2.39-8.44-.31-4.98,4.95-6.69,8.93-7.46,5.28-1.03,10.64-1.76,15.96-2.55,12.58-1.87,25.21-3.43,37.86-4.71.91-.09.92-1.52,0-1.43h0Z"/>
    <path class="cls-2" d="m443.7,597.14c-6.67,9.44-7.58,21.52-5.73,32.63,2.22,13.34,7.81,25.93,11.55,38.88,1.95,6.75,3.6,13.57,5.13,20.43.76,3.39,2.7,8.64,7.21,7.46,5.94-1.55,4.39-8.92,3.27-13.15-1.77-6.65-3.23-13.39-4.38-20.17-2.62-15.47-3.59-31.2-2.95-46.88.04-.92-1.39-.92-1.43,0-.51,12.48,0,24.98,1.55,37.37.76,6.08,1.76,12.14,3.01,18.14.64,3.08,1.35,6.15,2.12,9.21.75,2.95,2.02,6.11,1.84,9.2-.17,2.89-3.14,6.67-6.16,4.24-1.87-1.51-2.36-4.27-2.84-6.49-1.34-6.18-2.87-12.31-4.6-18.39-3.36-11.82-8.15-23.25-10.93-35.22-2.84-12.21-2.93-25.9,4.58-36.54.53-.75-.71-1.47-1.24-.72h0Z"/>
    <path class="cls-2" d="m457.63,695.53c-1.05,2.98-3.2,5.04-5.35,7.25-1.96,2.02-3.73,4.26-5.04,6.76-1.26,2.4-2.11,5.11-1.83,7.85.08.8.08,1.43.73,1.87.9.61,2.51.51,3.51.3,2.56-.54,4.72-2.46,6.43-4.33,1.92-2.08,3.7-4.35,5.41-6.6,3.31-4.37,5.51-9.19,3.87-14.71-.26-.88-1.64-.51-1.38.38,1.46,4.92-.47,9.2-3.38,13.14-1.49,2.02-3.12,3.98-4.76,5.89-1.66,1.95-3.74,4.16-6.33,4.78-.6.14-1.64.36-2.22.03-.6-.35-.5-.9-.51-1.64-.03-1.33.24-2.63.67-3.89.87-2.56,2.43-4.93,4.17-6.99,2.69-3.19,5.96-5.64,7.39-9.71.31-.87-1.08-1.25-1.38-.38h0Z"/>
    <path class="cls-2" d="m486.69,558.59c-.41,5.84-7.09,9.28-11.87,11.08-2.99,1.12-6.04,2.2-9.12,3.02-1.42.38-3.06.76-4.5.28-1.68-.56-2.28-2.21-3.16-3.58-1.26-1.98-2.9-3.69-4.8-5.05-2-1.43-4.76-1.95-6.52-3.65-1.72-1.66.83-2.27,2.11-2.91,1.46-.73,2.91-1.49,4.35-2.25,3.09-1.62,6.17-3.25,9.33-4.73.83-.39.11-1.62-.72-1.24-2.95,1.38-5.83,2.89-8.71,4.4-1.45.76-2.9,1.52-4.35,2.26-.62.31-1.24.62-1.87.93-.58.28-1.58.51-2.01,1-1.06,1.22.26,3.07,1.2,3.84,1.78,1.44,4.11,2,6.01,3.27,2.45,1.64,4.09,3.81,5.59,6.29,1.14,1.89,2.66,3.01,4.93,3.06,2.71.06,5.49-1.1,8.02-1.93,2.71-.9,5.48-1.79,8.06-3.03,4.31-2.08,9.1-5.91,9.46-11.05.06-.92-1.37-.91-1.43,0h0Z"/>
    <path class="cls-2" d="m445.78,560.51c-11.44.65-22.87,1.56-34.27,2.75-5.27.55-10.62.97-15.84,1.85-3.22.54-7.12,1.74-8.45,5.07-.83,2.07-.3,4.25.24,6.32.71,2.7,1.46,5.39,2.2,8.09.51,1.88,1.01,3.82,2.68,5.02,1.38,1,3.16,1.23,4.82,1.12,4.5-.3,9-2.43,13.26-3.75,5.15-1.6,10.33-3.1,15.54-4.5,11.68-3.14,23.5-5.8,35.42-7.89.91-.16.52-1.54-.38-1.38-18.95,3.33-37.69,8.02-55.98,13.99-3.29,1.07-8.24,3.47-11.59,1.43-2.17-1.33-2.51-4.85-3.13-7.11-.66-2.43-1.52-4.9-1.95-7.39-.89-5.09,3.48-6.92,7.69-7.64,4.98-.84,10.08-1.24,15.11-1.76,11.52-1.2,23.07-2.13,34.63-2.78.92-.05.92-1.48,0-1.43h0Z"/>
    <path class="cls-2" d="m386.71,572.98c-14.76,19.12-2.47,44.9,2.47,65.21,1.49,6.12,2.74,12.29,3.82,18.5.56,3.2,2.04,8.34,6.36,7.42,5.4-1.14,4.48-7.73,3.61-11.64-1.37-6.21-2.47-12.49-3.25-18.81-1.76-14.16-2.01-28.47-.82-42.69.08-.92-1.35-.91-1.43,0-.96,11.42-.99,22.9-.04,34.32.45,5.42,1.11,10.83,1.99,16.19.41,2.54.87,5.07,1.38,7.59.6,2.97,1.81,6.25,1.52,9.3-.29,3.03-3.78,6.29-6.24,3.03-1.29-1.7-1.52-4.1-1.87-6.13-.96-5.51-2.09-11-3.39-16.44-2.59-10.85-6.5-21.42-8.52-32.39-2.05-11.14-1.51-23.43,5.67-32.73.56-.73-.68-1.44-1.24-.72h0Z"/>
    <path class="cls-2" d="m394.84,663.11c-2.06,5.16-7.33,8.12-9.83,13.09-1.05,2.09-1.77,4.51-1.4,6.86.29,1.86,2.89,1.74,4.35,1.36,2.28-.59,4.2-2.24,5.8-3.89,1.92-1.98,3.77-4.11,5.45-6.3,2.93-3.83,4.8-8.12,3.6-12.98-.22-.89-1.6-.52-1.38.38,1.15,4.66-.94,8.7-3.77,12.28-1.3,1.64-2.71,3.21-4.12,4.76-1.57,1.73-3.41,3.62-5.7,4.31-.59.18-1.18.25-1.79.2-.83-.08-.91-.12-1.08-.89-.25-1.11.18-2.53.54-3.58.77-2.29,2.2-4.36,3.76-6.18,2.55-2.98,5.48-5.28,6.97-9.02.34-.86-1.04-1.23-1.38-.38h0Z"/>
    <path class="cls-2" d="m434.31,539.19c-.88,4.2-5.37,7.83-9.35,8.96-2.65.75-5.42,1.22-8.13,1.67-2.95.48-5.82.95-7.19-2.29-.78-1.84-1.7-3.52-3.05-5.01-1.42-1.57-3.16-2.47-4.82-3.71-.35-.26-1.5-1.12-1.49-1.7.02-.78,1.12-.81,1.67-.98,1.36-.42,2.72-.83,4.09-1.25,2.95-.9,5.9-1.8,8.85-2.7.88-.27.5-1.65-.38-1.38-3.63,1.11-7.26,2.22-10.89,3.33-1.94.59-5.82.79-4.56,3.75.98,2.29,4.05,3.24,5.75,4.86,1.16,1.1,2.12,2.39,2.85,3.81.57,1.12.88,2.41,1.69,3.4,1.48,1.8,3.91,1.79,6.03,1.52,3.37-.42,6.92-1.02,10.18-2,4.35-1.32,9.17-5.29,10.14-9.91.19-.9-1.19-1.28-1.38-.38h0Z"/>
    <path class="cls-2" d="m399.77,537.56c-9.85-.79-19.72-1.35-29.6-1.67-4.61-.15-9.4-.6-14-.19-2.65.24-5.63,1.06-6.84,3.69-.7,1.54-.53,3.25-.33,4.88.3,2.43.62,4.85.94,7.28.4,3.01,1.48,5.27,4.71,5.84,3.32.59,6.88-.52,10.12-1.11,4.71-.85,9.43-1.62,14.16-2.3,10.54-1.52,21.15-2.62,31.79-3.02.92-.04.92-1.47,0-1.43-16.33.62-32.58,2.83-48.64,5.79-2.75.51-7.54,1.96-9.72-.63-1.24-1.47-1.11-4.11-1.35-5.92-.27-2.06-.68-4.15-.76-6.23-.17-4.42,3.73-5.41,7.38-5.49,4.17-.09,8.36.13,12.53.26,9.88.32,19.75.88,29.6,1.67.92.07.91-1.36,0-1.43h0Z"/>
    <path class="cls-2" d="m348.86,541.19c-14.76,14.55-7.24,37.8-5.47,55.65.53,5.34.72,10.69,1.03,16.04.15,2.67,1.02,6.51,4.43,6.42,4.32-.12,4.93-5.2,4.7-8.46-.38-5.37-.68-10.73-.64-16.11.08-12.39,1.52-24.73,4.22-36.82.2-.9-1.18-1.28-1.38-.38-2.06,9.23-3.41,18.61-3.97,28.05-.28,4.69-.37,9.38-.27,14.08.05,2.35.15,4.69.3,7.03.14,2.21.53,4.5.38,6.72-.09,1.36-.48,2.73-1.54,3.66-1.17,1.03-2.84,1.09-3.79-.23-1.09-1.51-1-3.7-1.06-5.47-.17-4.85-.5-9.7-.98-14.53-.93-9.42-3.01-18.76-3.4-28.23-.39-9.44,1.48-19.53,8.45-26.41.66-.65-.36-1.66-1.01-1.01h0Z"/>
    <path class="cls-2" d="m346.01,617.3c-2.38,4.12-7.29,5.99-10.16,9.77-1.22,1.6-2.17,3.46-2.35,5.49-.08.92-.16,1.37.57,1.87.74.51,1.77.65,2.64.61,4.13-.19,8.02-4.38,10.77-7.09,3.06-3.01,5.51-6.64,5.06-11.11-.09-.91-1.52-.92-1.43,0,.4,3.9-1.6,7.02-4.24,9.7-1.31,1.34-2.74,2.56-4.17,3.77-1.59,1.36-3.42,2.86-5.55,3.21-1.16.19-2.4.13-2.17-1.32.17-1.03.58-2.02,1.1-2.92.96-1.68,2.35-3.12,3.81-4.38,2.59-2.24,5.59-3.83,7.35-6.88.46-.8-.77-1.52-1.24-.72h0Z"/>
    <path class="cls-2" d="m377.22,511.64c-.98,3.39-5.35,3.14-8.25,3.55-2.17.31-4.4.6-6.6.66-.93.02-2.07.02-2.87-.54-1.09-.76-1.26-2.34-1.75-3.49-.57-1.34-1.37-2.58-2.34-3.66-1.04-1.16-3.31-2.16-3.98-3.52-.67-1.35,1.07-1.32,2.05-1.55.79-.19,1.58-.38,2.38-.57,1.88-.46,3.76-.91,5.65-1.33.9-.2.52-1.58-.38-1.38-2.41.54-4.81,1.13-7.21,1.71-1.5.36-4.39.23-4.33,2.36.06,1.95,2.29,3.04,3.58,4.11,1.12.94,2.07,2.09,2.77,3.37.61,1.12.86,2.37,1.41,3.51.87,1.8,2.59,2.39,4.49,2.43,2.6.06,5.28-.39,7.84-.76,3.58-.52,7.74-.41,8.92-4.5.26-.89-1.12-1.26-1.38-.38h0Z"/>
    <path class="cls-2" d="m350.61,504.21c-8.34-1.31-16.71-2.44-25.1-3.36-3.86-.42-7.81-1.05-11.69-1.09-2.33-.03-5.09.41-6.39,2.59-.7,1.16-.77,2.5-.73,3.83.06,2.13.22,4.26.33,6.38.15,2.67.7,4.88,3.52,5.71,2.98.88,6.42.02,9.43-.27,3.94-.38,7.89-.68,11.85-.91,9.16-.54,18.34-.69,27.51-.33.92.04.92-1.4,0-1.43-13.78-.53-27.62.04-41.34,1.45-2.46.25-6.18,1.19-8.33-.5-1.48-1.16-1.19-3.47-1.28-5.16-.1-1.82-.29-3.67-.27-5.49.05-3.86,3.2-4.55,6.44-4.4,3.42.17,6.84.62,10.24.99,8.5.92,16.98,2.05,25.43,3.38.9.14,1.29-1.24.38-1.38h0Z"/>
    <path class="cls-2" d="m306.8,504.02c-13.65,11.59-8.57,32.21-8.27,47.69.09,4.56-.26,9.13-.19,13.68.04,2.41,1.02,5.61,4.06,5.2,3.37-.45,4.04-4.15,4.06-6.94.03-4.6.12-9.19.5-13.78.88-10.54,2.92-20.95,6-31.07.27-.88-1.11-1.26-1.38-.38-2.33,7.63-4.07,15.43-5.16,23.33-.53,3.84-.91,7.7-1.15,11.57-.23,3.85-.03,7.72-.28,11.55-.11,1.71-1.5,5.65-4.03,4.01-1.54-.99-1.21-3.63-1.15-5.18.16-4.12.22-8.25.13-12.38-.17-8.16-1.35-16.32-1.06-24.48.28-8.06,2.55-16.45,8.92-21.85.7-.6-.31-1.6-1.01-1.01h0Z"/>
    <path class="cls-2" d="m298.8,568.92c-1.83,2.67-4.97,3.88-7.34,6-2.04,1.83-3.59,4.09-3.77,6.88-.02.26.15.48.35.62,3.74,2.48,8.13-1.41,10.97-3.63,3.3-2.57,6.31-5.72,6.21-10.17-.02-.92-1.45-.92-1.43,0,.07,3.25-1.77,5.7-4.11,7.77-2.24,1.99-5.39,4.84-8.45,5.32-.97.15-2.19.17-1.97-1.04.15-.79.55-1.56.98-2.23.89-1.38,2.14-2.53,3.44-3.51,2.28-1.72,4.69-2.88,6.35-5.3.52-.76-.72-1.48-1.24-.72h0Z"/>
    <path class="cls-2" d="m653.8,445.1c5.64,1.6,11.09,3.82,16.73,5.44,5.2,1.5,9.9,3.6,13.51,7.75,6.57,7.56,8.56,18.27,10.79,27.72,1.4,5.96,3.14,12.05,3.75,18.16.61,6.13-1.36,11.24-5.49,15.73-7.61,8.27-17.74,14.42-27.5,19.82-10.36,5.73-21.07,10.82-31.66,16.11-5.51,2.75-10.99,5.88-16.75,8.08-5.8,2.22-11.76,2.35-17.78,1-2.86-.64-5.65-1.55-8.4-2.56-1.26-.46-2.79-.84-3.9-1.62-1.78-1.24-1.12-3.42-.6-5.18,1.64-5.56,5.08-10.47,8.15-15.31,6.2-9.75,12.68-19.33,19.17-28.89,13.02-19.18,26.11-38.39,36.95-58.91,1.35-2.55,2.66-5.12,3.93-7.71.45-.92-.93-1.73-1.38-.81-11,22.33-24.88,43.03-38.82,63.58-6.99,10.3-14,20.59-20.7,31.08-3.12,4.89-6.53,9.8-8.46,15.31-.72,2.07-1.76,4.93-.41,6.96,1.21,1.83,4.04,2.45,5.95,3.14,5.7,2.07,11.75,3.73,17.86,3.4,5.97-.32,11.27-2.86,16.53-5.48,11.71-5.84,23.49-11.54,35.09-17.59,10.58-5.52,20.96-11.62,29.95-19.54,3.92-3.45,7.76-7.48,9.26-12.62,1.65-5.64.14-11.62-1.08-17.18-1.35-6.15-2.72-12.3-4.34-18.38-1.25-4.71-2.77-9.42-5.09-13.73-2.19-4.06-5.18-7.72-9.11-10.2-5.03-3.17-11.17-4.13-16.71-6.09-3-1.06-5.97-2.16-9.03-3.03-.99-.28-1.41,1.26-.42,1.54h0Z"/>
    <path class="cls-2" d="m654.11,443.4c-7.4-3.31-15.06-5.99-22.93-7.95-3.9-.97-7.84-1.76-11.81-2.37-3.86-.6-7.88-1.28-11.79-1.16-7.75.22-12.56,6.8-17.35,12.08-5.5,6.08-10.75,12.37-15.78,18.84-9.84,12.66-18.83,25.96-27.13,39.67-4.1,6.77-8.02,13.7-10.76,21.14-2.46,6.68-4.51,14.84-3.16,21.99.3,1.56,1.13,2.62,2.62,3.19,2.08.8,4.35,1.24,6.5,1.82,4.69,1.25,9.4,2.44,14.13,3.57,9.56,2.28,19.19,4.27,28.87,6.02,1.01.18,1.44-1.36.42-1.54-15.97-2.88-31.81-6.47-47.45-10.8-.95-.26-2.04-.43-2.76-1.13-.86-.84-.86-2.01-.93-3.16-.11-1.92-.08-3.84.07-5.75.31-3.75,1.14-7.45,2.29-11.03,2.3-7.2,5.88-13.93,9.71-20.42,7.69-13.06,16.12-25.72,25.21-37.84,4.61-6.15,9.43-12.14,14.45-17.96,2.46-2.85,4.97-5.66,7.53-8.42,2.43-2.62,4.9-5.67,8.11-7.36,3.98-2.09,8.75-1.27,13.02-.74,4.36.54,8.69,1.31,12.97,2.28,8.64,1.96,17.07,4.79,25.15,8.41.93.42,1.74-.96.81-1.38h0Z"/>
    <path class="cls-2" d="m561.01,484.72c4.48-2.61,10.2-1.97,15.18-1.73,5.51.27,11,.83,16.44,1.69,5.29.83,10.53,1.94,15.7,3.31,2.47.66,4.93,1.37,7.37,2.15,1.89.6,6.15,1.95,5.11,4.69.26-.2.51-.39.77-.59-10.09-.81-20-3.48-29.11-7.91-7.65-3.72-20.71-10.42-18.24-20.92.23-1-1.31-1.43-1.54-.42-2.53,10.81,9.25,17.73,17.26,21.86,9.83,5.08,20.61,8.11,31.63,8.99.37.03.65-.27.77-.59,1.81-4.78-5.88-6.58-8.89-7.48-6.02-1.8-12.14-3.24-18.34-4.3-6.03-1.03-12.12-1.72-18.24-2.05-5.48-.3-11.73-.96-16.68,1.91-.89.52-.09,1.9.81,1.38h0Z"/>
    <path class="cls-2" d="m534.9,547.32c-8.12-1.58-16.09-3.89-23.78-6.94-3.88-1.54-7.68-3.28-11.4-5.19-3.48-1.79-7.45-3.59-10.47-6.1-3.69-3.07-.65-9.02.71-12.63,1.6-4.27,3.48-8.42,5.43-12.53,3.82-8.06,7.72-16.08,11.59-24.12,4.01-8.34,8.02-16.67,12.03-25.01,2-4.17,4.01-8.34,6.01-12.5.95-1.97,1.9-3.95,2.85-5.92.82-1.7,1.54-3.59,2.75-5.06,2.27-2.76,7.06-2.48,10.36-2.73,3.32-.25,6.66-.39,9.99-.46,7.18-.14,14.37.08,21.54.51,15.78.96,31.57,2.85,47.05,6.08,1,.21,1.43-1.33.42-1.54-14.36-3-29-4.83-43.63-5.89-7.71-.56-15.45-.87-23.18-.8-3.56.03-7.12.14-10.68.38-3.24.21-7.02.16-10.1,1.26-3.48,1.24-4.76,5.05-6.23,8.09-2.11,4.39-4.22,8.77-6.33,13.16-4.17,8.67-8.33,17.33-12.5,26-4.15,8.62-8.31,17.23-12.44,25.86-1.93,4.03-3.81,8.07-5.48,12.21-.86,2.14-1.67,4.31-2.38,6.5-.6,1.85-1.27,3.8-1.18,5.77.2,4.29,4.65,6.18,7.89,8.04,4.25,2.43,8.64,4.63,13.13,6.57,8.87,3.83,18.11,6.68,27.59,8.52,1,.2,1.44-1.34.42-1.54h0Z"/>
    <path class="cls-2" d="m500.06,494.62c11.5-20.15,40.2-17.05,59.31-13,.07-.52.14-1.05.21-1.57-8.46,1.05-17.12-.3-24.86-3.89-3.81-1.77-7.4-4.04-10.58-6.79-3.21-2.77-7.8-6.84-7.16-11.54.14-1.01-1.4-1.44-1.54-.42-.62,4.54,2.43,8.17,5.47,11.17,3.36,3.31,7.26,6.08,11.46,8.22,8.36,4.25,17.89,6.02,27.2,4.86.81-.1,1.18-1.36.21-1.57-19.86-4.21-49.2-7.14-61.11,13.73-.51.89.87,1.7,1.38.81h0Z"/>
    <path class="cls-2" d="m491.42,530.64c-11.89-2.06-24.1-4.21-34.99-9.66-2.59-1.3-5.09-2.78-7.44-4.47-2.62-1.89-6.57-4.27-5.71-7.97,1.56-6.72,4.04-13.38,6.24-19.92,4.49-13.32,9.52-26.45,15.11-39.35,2.78-6.43,5.7-12.8,8.74-19.11,1.24-2.57,2.41-5.43,4.48-7.46,2.76-2.71,6.64-2.31,10.22-2.19,16.2.52,32.29,3.03,47.89,7.39.99.28,1.42-1.26.42-1.54-14.61-4.08-29.66-6.55-44.81-7.3-3.45-.17-7.35-.72-10.74.15-2.64.68-4.57,2.54-6.02,4.78-1.84,2.83-3.16,6.05-4.6,9.1-1.57,3.32-3.11,6.66-4.6,10.02-6.07,13.59-11.54,27.44-16.4,41.51-2.47,7.16-4.79,14.38-6.94,21.65-.83,2.82-1.28,5.15.9,7.46,1.98,2.11,4.51,3.9,6.93,5.47,12.15,7.92,26.85,10.55,40.9,12.98,1.01.17,1.44-1.37.43-1.54h0Z"/>
    <path class="cls-2" d="m465.68,444.88c2.27,8.2,10.89,12.91,17.85,16.67,8.26,4.47,17.21,7.68,26.63,8.36.65.05.93-.7.69-1.2-1.77-3.7-6.26-4.33-9.88-4.96-5.05-.87-10.15-1.53-15.26-1.83-10.28-.59-20.71.38-30.37,4.11-.95.37-.54,1.91.42,1.54,8.92-3.44,18.46-4.5,27.97-4.14,4.76.18,9.51.7,14.22,1.44,3.71.58,9.66.76,11.52,4.65.23-.4.46-.8.69-1.2-8.91-.64-17.41-3.66-25.25-7.83-6.72-3.57-15.49-8.12-17.68-16.02-.27-.99-1.82-.57-1.54.42h0Z"/>
    <path class="cls-2" d="m477.64,421.79c-6.6-.43-13.2-.85-19.8-1.28-5.41-.35-12.17-1.87-17.05,1.23-2.28,1.45-4.11,3.56-5.95,5.51-2.08,2.2-4.11,4.44-6.11,6.72-3.81,4.37-7.47,8.88-10.95,13.51-7.15,9.5-13.59,19.55-19.21,30.03-2.41,4.49-4.88,9.73-3.9,14.96.98,5.21,5.57,8.24,9.96,10.52,11.58,6.04,24.78,7.63,37.57,9.15,1.02.12,1.01-1.48,0-1.6-10.73-1.27-21.69-2.59-31.79-6.65-4.59-1.85-10.71-4.38-13.18-8.97-2.84-5.29.02-11.53,2.57-16.32,10.24-19.25,23.33-37.54,38.79-52.95,2.44-2.44,5-3.97,8.52-4.1,3.2-.12,6.45.28,9.64.49,6.96.45,13.92.9,20.88,1.35,1.03.07,1.02-1.53,0-1.6h0Z"/>
    <path class="cls-2" d="m413.65,455.66c7.07-.16,14.15.22,21.16,1.19,3.42.48,6.83,1.09,10.2,1.83,1.8.4,3.59.83,5.37,1.31.89.24,1.79.46,2.66.74,1.03.32,1.82.3,1.86,1.47.28.76,0,1.02-.82.77-.51-.06-1.01-.17-1.49-.35-.87-.3-1.7-.75-2.51-1.16-1.34-.68-2.65-1.41-3.95-2.17-2.7-1.6-5.29-3.39-7.74-5.34-4.88-3.9-9.21-8.45-12.88-13.51-.6-.82-1.99-.03-1.38.81,6.77,9.34,15.78,17.14,26.21,22.14,1.71.82,4.54,2.07,6.22.49,1.54-1.44.11-3.28-1.32-4.04-2.57-1.36-5.99-1.81-8.8-2.46-3.37-.77-6.77-1.41-10.19-1.91-7.49-1.1-15.04-1.56-22.61-1.4-1.03.02-1.03,1.62,0,1.6h0Z"/>
    <path class="cls-2" d="m440.19,422.23c-4.95-3.13-10.07-5.97-15.36-8.49-4.84-2.3-10.13-4.65-15.62-4.03-4.96.57-9.11,3.47-12.93,6.48-4.65,3.66-9.18,7.47-13.63,11.38-7.43,6.54-16.42,13.55-20.19,23.02-3.75,9.41-.13,19.57,6.26,26.89,3.92,4.5,8.79,8.07,13.74,11.34,5.59,3.7,11.3,7.24,16.95,10.85.87.56,1.67-.83.81-1.38-4.68-2.98-9.36-5.96-14.03-8.95-4.2-2.69-8.38-5.45-12.12-8.76-7.3-6.46-13.43-16.15-11.1-26.29,2.18-9.5,10.58-16.38,17.48-22.62,4.08-3.69,8.25-7.27,12.5-10.76,3.89-3.19,7.88-6.84,12.64-8.67,6.11-2.34,12.22-.04,17.82,2.59,5.5,2.59,10.83,5.53,15.97,8.77.87.55,1.68-.83.81-1.38h0Z"/>
    <path class="cls-2" d="m378.57,432.51c6.76,2.08,13.38,4.6,19.79,7.59,3.03,1.41,6.02,2.92,8.96,4.53,1.57.86,3.12,1.74,4.65,2.65.75.44,1.61.85,2.29,1.39,1.35,1.06.59,1.33-.53,1.18-3.37-.44-6.19-2.8-8.58-5.05-2.22-2.09-4.22-4.41-5.96-6.91-3.53-5.09-5.96-10.83-7.19-16.89-.21-1.01-1.75-.58-1.54.42,2.16,10.64,8.28,21.43,17.38,27.66,1.97,1.35,4.93,2.89,7.42,2.42,1.89-.36,1.83-2.21.73-3.43-.84-.94-2.15-1.52-3.22-2.16-1.44-.85-2.89-1.68-4.36-2.49-2.93-1.61-5.92-3.13-8.95-4.55-6.63-3.11-13.48-5.73-20.48-7.89-.99-.3-1.41,1.24-.42,1.54h0Z"/>
    <path class="cls-2" d="m402.61,412.61c-10.13-11.04-24.35-19.31-39.8-17.47-6.47.77-14.88,3.39-17.6,9.98-1.34,3.25-.97,6.9-.13,10.23,1.05,4.17,2.72,8.2,4.2,12.23,3.56,9.64,7.35,19.21,11.33,28.69.39.93,1.94.52,1.54-.42-3.15-7.5-6.18-15.04-9.07-22.64-1.44-3.8-2.86-7.61-4.23-11.44-1.27-3.52-2.71-7.15-2.91-10.93-.46-8.46,7.4-12.31,14.61-13.73,7.45-1.47,15.31-.28,22.23,2.74,7.2,3.15,13.41,8.13,18.7,13.89.7.76,1.82-.37,1.13-1.13h0Z"/>
    <path class="cls-2" d="m353.44,399.77c11.95,2.7,22.94,9,31.19,18.07,1.28,1.41,3.68,4.22.7,5.35-1.62.62-3.27-.42-4.45-1.45-2.31-1.99-4.27-4.5-5.89-7.07-3.43-5.43-5.37-11.67-5.64-18.08-.04-1.02-1.64-1.03-1.6,0,.25,5.8,1.77,11.46,4.51,16.58,1.34,2.5,2.97,4.85,4.83,6.98,1.68,1.92,3.75,4.29,6.41,4.74,1.8.31,3.94-.51,4.67-2.28.94-2.28-.99-4.36-2.41-5.91-3.93-4.32-8.52-8.07-13.51-11.09-5.68-3.44-11.9-5.93-18.38-7.39-1-.23-1.43,1.31-.42,1.54h0Z"/>
    <path class="cls-2" d="m517.34,128.06c-13.1,10.68-16.2,30.17-11.76,45.75,4.55,15.96,16.94,28.2,32.67,33.21,8.69,2.76,18,3.26,26.91,1.36.6-.13.7-1.02.17-1.31-4.17-2.26-8.97-2.4-13.36-4.03-2.67-.99-5.06-2.73-6.02-5.51-.98-2.86-.43-6.08.82-8.76,2.57-5.49,8.05-8.95,12.26-13.07,3.93-3.85,7.38-8.26,9.96-13.13,4.62-8.72,6.14-18.7,2.66-28.08-2.8-7.54-8.64-15.2-17.17-16.21-3.09-.37-6.23.19-9.26.78-3.32.65-6.63,1.24-9.98,1.79-6.47,1.07-12.7,3.13-17.92,7.2-.73.56.29,1.57,1.01,1.01,4.84-3.77,10.7-5.68,16.68-6.73,2.91-.51,5.83-.92,8.73-1.52,2.95-.61,5.95-1.26,8.98-1.22,9.51.12,15.83,9.17,18.28,17.46,2.97,10.06-.08,20.52-5.78,29.03-3.19,4.76-7.18,8.71-11.47,12.46-4.01,3.52-8.16,7.4-9.37,12.82-1.11,4.97.68,9.88,5.32,12.24,4.7,2.38,10.26,2.17,14.91,4.69.06-.44.11-.87.17-1.31-15.32,3.26-32.04-.92-43.85-11.26-11.95-10.47-17.72-27.07-15.33-42.74,1.38-9.06,5.55-18.06,12.75-23.93.71-.58-.3-1.59-1.01-1.01Z"/>
    <path class="cls-2" d="m503.99,160.65c-.23,7.88-9.29,9.9-15.5,10.76-7.64,1.05-15.28,2.06-22.92,3.1-3.96.53-7.91,1.07-11.87,1.6-3.69.5-7.42,1.14-11.16,1.07-7.1-.13-12.37-4.07-14.78-10.69-2.28-6.25-2.72-14.32,1.78-19.68,3.97-4.72,9.5-8.51,14.71-11.74,10.46-6.48,22.25-10.71,34.41-12.55,13.86-2.1,28.16-.97,41.46,3.48.88.29,1.25-1.09.38-1.38-25.46-8.52-54.47-4.82-77.21,9.37-5.45,3.4-11.5,7.49-15.42,12.65-4.12,5.43-3.79,13.28-1.74,19.49,1.88,5.73,5.89,10.59,11.97,11.98,3.51.8,7.17.53,10.71.1,4.05-.5,8.08-1.08,12.12-1.63,9.73-1.31,19.47-2.52,29.18-3.95,6.66-.98,15.09-3.93,15.33-11.97.03-.92-1.4-.92-1.43,0h0Z"/>
    <path class="cls-2" d="m426.28,163.25c4.7-1.88,8.12-5.5,11.83-8.81,4.24-3.79,9.09-6.87,14.33-9.07,5.52-2.31,11.43-3.51,17.31-4.53,6.17-1.07,12.4-1.81,18.66-2.1,7.01-.33,14.04-.08,21,.85.91.12.9-1.31,0-1.43-12.28-1.64-24.7-1.1-36.92.79-11.44,1.77-22.49,4.5-31.89,11.59-4.9,3.7-8.89,9-14.71,11.33-.84.34-.48,1.72.38,1.38h0Z"/>
    <path class="cls-2" d="m426.72,157.2c4.61-4.6,9.73-8.59,15.31-11.95.79-.47.07-1.71-.72-1.24-5.68,3.42-10.9,7.49-15.59,12.17-.65.65.36,1.66,1.01,1.01h0Z"/>
    <path class="cls-2" d="m445.96,141.22c8.43-4.27,17.67-6.58,27.12-6.79.92-.02.92-1.45,0-1.43-9.7.22-19.18,2.6-27.84,6.98-.82.42-.1,1.65.72,1.24h0Z"/>
    <path class="cls-2" d="m429.76,171.27c12.43.09,24.85-1.38,36.9-4.44,12.18-3.1,24.51-8.97,37.36-7.05.9.13,1.29-1.24.38-1.38-12.5-1.86-24.29,3.34-36.11,6.52-12.56,3.39-25.53,5.01-38.53,4.91-.92,0-.92,1.42,0,1.43h0Z"/>
    <path class="cls-2" d="m440.66,164.47c2.76,0,2.77-4.29,0-4.29s-2.77,4.29,0,4.29h0Z"/>
    <path class="cls-2" d="m453.79,158.72c2.76,0,2.77-4.29,0-4.29s-2.77,4.29,0,4.29h0Z"/>
    <path class="cls-2" d="m469.8,154.82c2.76,0,2.77-4.29,0-4.29s-2.77,4.29,0,4.29h0Z"/>
    <path class="cls-2" d="m487.86,152.36c2.76,0,2.77-4.29,0-4.29s-2.77,4.29,0,4.29h0Z"/>
    <path class="cls-2" d="m426.49,148.93c-5.27.31-10.66.81-15.65,2.66-5.05,1.87-9.02,5.17-12.43,9.28-3.54,4.27-7.16,8.85-9.66,13.82-2.52,5.02-3.41,10.6-3.48,16.17-.04,2.92.13,5.83.36,8.74.2,2.56.31,5.2.88,7.71,1.08,4.76,4.51,7.16,9.21,7.77,6.14.8,12.7.51,18.85-.17,5.32-.59,10.13-2.31,14.42-5.55,4.87-3.68,8.56-8.6,11.7-13.78,3.19-5.27,7.22-11.27,7.16-17.66,0-.92-1.44-.92-1.43,0,.06,5.55-3.26,10.61-5.96,15.25-2.64,4.54-5.59,8.96-9.42,12.59-3.5,3.32-7.69,5.93-12.41,7.05-5.54,1.31-11.57,1.31-17.24,1.18-5.09-.11-11.35-.16-13.21-5.96-.7-2.19-.79-4.54-.99-6.81-.22-2.58-.42-5.17-.48-7.76-.13-5.25.27-10.59,2.16-15.53,1.91-5.01,5.36-9.33,8.58-13.55,3.37-4.41,7.11-8.51,12.28-10.8,5.25-2.32,11.09-2.88,16.75-3.21.92-.05.92-1.48,0-1.43h0Z"/>
    <path class="cls-2" d="m386.58,196.15c8.94-15.18,22.88-27.13,39.27-33.6.85-.33.48-1.72-.38-1.38-16.75,6.61-30.99,18.74-40.12,34.26-.47.8.77,1.52,1.24.72h0Z"/>
    <path class="cls-2" d="m398.89,214.74c6.37-6.89,13.09-13.43,20.17-19.58,6.19-5.38,13.41-10.19,17.52-17.48.45-.8-.78-1.52-1.24-.72-4.15,7.35-11.59,12.2-17.81,17.64-6.89,6.02-13.45,12.41-19.66,19.13-.62.68.39,1.69,1.01,1.01h0Z"/>
    <path class="cls-2" d="m405.75,214.28c3.79-3.51,8.61-5.69,12.19-9.45.63-.67-.38-1.68-1.01-1.01-3.58,3.76-8.4,5.94-12.19,9.45-.68.63.34,1.64,1.01,1.01h0Z"/>
    <path class="cls-2" d="m422.33,202.32c2.58-1.54,4.84-3.5,6.7-5.86.57-.71-.44-1.73-1.01-1.01-1.79,2.27-3.93,4.15-6.41,5.63-.79.47-.07,1.71.72,1.24h0Z"/>
    <path class="cls-2" d="m432.95,193.02c4.16-3.82,5.51-9.4,6.57-14.74.18-.9-1.2-1.28-1.38-.38-1.01,5.09-2.22,10.46-6.2,14.11-.68.62.33,1.63,1.01,1.01h0Z"/>
    <path class="cls-2" d="m387.38,185.51c2.15-3.42,4.85-6.4,8.06-8.84.72-.55.01-1.79-.72-1.24-3.42,2.6-6.29,5.72-8.58,9.36-.49.78.75,1.5,1.24.72h0Z"/>
    <path class="cls-2" d="m401.49,171.37c2.63-2.45,5.42-4.7,8.39-6.72.76-.52.04-1.76-.72-1.24-3.07,2.09-5.96,4.41-8.68,6.95-.67.63.34,1.64,1.01,1.01h0Z"/>
    <path class="cls-2" d="m415.39,161.35c3.51-1.59,7.14-2.8,10.89-3.66.9-.21.52-1.59-.38-1.38-3.87.89-7.61,2.17-11.23,3.8-.84.38-.11,1.61.72,1.24h0Z"/>
    <path class="cls-2" d="m394.07,207.15c2.76,0,2.77-4.29,0-4.29s-2.77,4.29,0,4.29h0Z"/>
    <path class="cls-2" d="m400.85,199.56c2.76,0,2.77-4.29,0-4.29s-2.77,4.29,0,4.29h0Z"/>
    <path class="cls-2" d="m407.82,190.12c2.76,0,2.77-4.29,0-4.29s-2.77,4.29,0,4.29h0Z"/>
    <path class="cls-2" d="m416.03,181.7c2.76,0,2.77-4.29,0-4.29s-2.77,4.29,0,4.29h0Z"/>
    <path class="cls-2" d="m423.83,175.96c2.76,0,2.77-4.29,0-4.29s-2.77,4.29,0,4.29h0Z"/>
    <path class="cls-2" d="m385.65,187.47c-12.21,1.73-19.39,12.76-24.59,22.84-2.94,5.69-5.71,11.5-7.85,17.54-2.1,5.94-3.67,11.96-2.64,18.28.52,3.22,1.49,6.35,2.48,9.45.87,2.74,2.07,5.02,4.03,7.14,3.74,4.05,7.87,8.11,13.51,9.11,5.86,1.05,11.69-.79,16.96-3.24,2.87-1.33,5.68-2.81,8.5-4.26,2.57-1.32,4.74-2.91,6.3-5.38,3.67-5.79,4.01-13.07,4.52-19.7.6-7.92,1.12-15.85.58-23.79-.06-.91-1.49-.92-1.43,0,.42,6.16.21,12.32-.2,18.47-.39,5.97-.52,12.19-2.08,18-.77,2.88-1.93,5.86-3.98,8.09-1.96,2.14-4.8,3.25-7.33,4.54-5.25,2.69-10.65,5.58-16.65,6.07-6.19.5-10.93-2.1-15.21-6.35-1.92-1.91-4-3.86-5.15-6.34-1.24-2.66-1.98-5.72-2.7-8.56-.76-2.98-1.27-6.04-1.08-9.13.19-3,.99-5.94,1.87-8.79,1.79-5.81,4.25-11.37,6.94-16.81,5.38-10.87,12.24-23.92,25.57-25.8.91-.13.52-1.51-.38-1.38h0Z"/>
    <path class="cls-2" d="m385.62,192.06c-4.11,4.05-6.25,9.61-8.12,14.96-2.25,6.43-3.85,13.07-5.38,19.7-3.14,13.63-6.28,27.27-8.56,41.08-.15.9,1.23,1.29,1.38.38,2.21-13.35,5.23-26.54,8.25-39.73,1.44-6.3,2.92-12.61,4.91-18.76,1.9-5.85,4.05-12.21,8.52-16.63.66-.65-.36-1.66-1.01-1.01h0Z"/>
    <path class="cls-2" d="m382.46,269.85c.1-5.24.28-10.48,2.14-15.44,1.66-4.44,4.29-8.42,6.48-12.6,2.17-4.14,3.68-8.44,4.39-13.07.74-4.86.79-9.78.82-14.68,0-.92-1.43-.92-1.43,0-.03,5.21-.05,10.46-.98,15.6-.88,4.89-2.8,9.27-5.2,13.59-2.15,3.88-4.46,7.7-5.87,11.93-1.57,4.73-1.69,9.75-1.79,14.68-.02.92,1.41.92,1.43,0h0Z"/>
    <path class="cls-2" d="m387.46,266.77c-.23-4.41.52-8.73,2.29-12.77.37-.84-.87-1.56-1.24-.72-1.87,4.29-2.73,8.82-2.49,13.5.05.92,1.48.92,1.43,0h0Z"/>
    <path class="cls-2" d="m392.5,265.35c.02-11.32,11.1-18.81,11.93-30,.07-.92-1.36-.91-1.43,0-.83,11.16-11.91,18.57-11.93,30,0,.92,1.43.92,1.43,0h0Z"/>
    <path class="cls-2" d="m398.34,240.02c1.12-2.1,1.79-4.33,2.04-6.69.1-.91-1.33-.91-1.43,0-.23,2.11-.85,4.1-1.84,5.97-.43.81.8,1.54,1.24.72h0Z"/>
    <path class="cls-2" d="m401.97,227.99v-5.75c0-.92-1.43-.92-1.43,0v5.75c0,.92,1.43.92,1.43,0h0Z"/>
    <path class="cls-2" d="m357.87,254.87c-.17-5.64.12-11.27.91-16.85.13-.9-1.25-1.29-1.38-.38-.81,5.72-1.14,11.46-.96,17.23.03.92,1.46.92,1.43,0h0Z"/>
    <path class="cls-2" d="m362.3,231.66c.69-4.1,1.84-8.09,3.48-11.92.36-.84-.87-1.57-1.24-.72-1.69,3.95-2.91,8.02-3.63,12.26-.15.9,1.23,1.29,1.38.38h0Z"/>
    <path class="cls-2" d="m370.66,212.81c.34-3.4,1.48-6.54,3.35-9.4.51-.77-.73-1.49-1.24-.72-2.01,3.07-3.18,6.48-3.54,10.13-.09.92,1.34.91,1.43,0h0Z"/>
    <path class="cls-2" d="m373.35,265.02c2.76,0,2.77-4.29,0-4.29s-2.77,4.29,0,4.29h0Z"/>
    <path class="cls-2" d="m375.81,250.86c2.76,0,2.77-4.29,0-4.29s-2.77,4.29,0,4.29h0Z"/>
    <path class="cls-2" d="m378.27,239.78c2.76,0,2.77-4.29,0-4.29s-2.77,4.29,0,4.29h0Z"/>
    <path class="cls-2" d="m380.53,226.24c2.76,0,2.77-4.29,0-4.29s-2.77,4.29,0,4.29h0Z"/>
    <path class="cls-2" d="m385.66,218.23c2.76,0,2.77-4.29,0-4.29s-2.77,4.29,0,4.29h0Z"/>
    <path class="cls-2" d="m353.69,253.44c-5.71,2.39-10.83,4.98-14.35,10.27-3.49,5.25-5.77,11.31-7.22,17.42-1.44,6.09-2.07,12.36-2.31,18.6-.26,6.89-.17,13.94,1.65,20.64.77,2.85,1.91,5.59,3.89,7.82,1.96,2.21,4.51,3.99,6.93,5.64,5.22,3.57,10.94,5.39,17.29,4.58,6.45-.82,12.27-3.95,17.35-7.88,2.22-1.71,4.51-3.54,6.12-5.86,1.86-2.68,2.35-5.92,2.9-9.06,2.74-15.64,5.2-31.67,2.08-47.44-.18-.9-1.56-.52-1.38.38,2.56,12.92,1.28,26.14-.79,39.04-.5,3.11-1.02,6.22-1.59,9.32-.61,3.34-1.53,6.29-3.94,8.79-4.06,4.21-9.45,7.83-14.95,9.83-5.93,2.16-12.55,2.37-18.29-.49-2.56-1.27-4.9-2.96-7.16-4.69-2.73-2.09-4.97-4.42-6.22-7.67-2.26-5.85-2.6-12.41-2.56-18.61.04-6,.41-12.03,1.42-17.95,1.09-6.39,2.95-12.71,6.05-18.43,1.59-2.93,3.44-5.79,6.06-7.89,2.77-2.23,6.14-3.63,9.39-4.99.84-.35.47-1.73-.38-1.38h0Z"/>
    <path class="cls-2" d="m361.25,266.41c-2.46,6.06-5.09,12.04-7.92,17.94-2.48,5.18-5.16,10.24-6.71,15.8-3.12,11.22-2.61,23.02-2.08,34.53.04.92,1.47.92,1.43,0-.54-11.58-1.09-23.52,2.21-34.78,1.72-5.87,4.7-11.23,7.29-16.74,2.54-5.39,4.92-10.85,7.15-16.36.35-.85-1.04-1.22-1.38-.38h0Z"/>
    <path class="cls-2" d="m368.18,335.27c-2.24-11.39-4.1-23.47-1.01-34.89,2.69-9.97,9.99-18.34,10.73-28.88.06-.92-1.37-.91-1.43,0-.77,10.98-8.8,19.8-11.14,30.4-2.46,11.16-.7,22.7,1.48,33.75.18.9,1.56.52,1.38-.38h0Z"/>
    <path class="cls-2" d="m373.64,331.21c-.37-3.97-1.13-7.86-2.3-11.67-.27-.88-1.65-.5-1.38.38,1.14,3.69,1.9,7.45,2.25,11.29.08.91,1.52.92,1.43,0h0Z"/>
    <path class="cls-2" d="m371.2,313.15c-.19-4.27.87-8.34,3.13-11.98.49-.79-.75-1.5-1.24-.72-2.38,3.84-3.52,8.19-3.32,12.7.04.92,1.47.92,1.43,0h0Z"/>
    <path class="cls-2" d="m379.58,327.12c-1.38-6.01-2.06-12.9-.46-18.94.75-2.81,2.03-5.45,2.79-8.26.77-2.85,1.16-5.78,1.27-8.74.03-.92-1.4-.92-1.43,0-.11,3.27-.62,6.5-1.58,9.63-.91,2.97-2.3,5.77-2.83,8.85-1,5.87-.46,12.05.86,17.83.21.9,1.59.52,1.38-.38h0Z"/>
    <path class="cls-2" d="m381.04,288.31c.62-2.42.89-4.88.81-7.38-.03-.92-1.46-.92-1.43,0,.08,2.38-.17,4.7-.75,7-.23.89,1.15,1.27,1.38.38h0Z"/>
    <path class="cls-2" d="m339.04,328.73c-1.51-4.79-1.97-9.79-1.29-14.77.12-.9-1.26-1.29-1.38-.38-.71,5.25-.3,10.47,1.29,15.53.28.88,1.66.5,1.38-.38h0Z"/>
    <path class="cls-2" d="m337.73,307.19c.94-5.18,2.45-10.22,4.56-15.05.36-.84-.87-1.57-1.24-.72-2.16,4.95-3.74,10.08-4.7,15.39-.16.9,1.21,1.29,1.38.38h0Z"/>
    <path class="cls-2" d="m346.8,284.85c1.84-3.53,4.23-6.58,6.65-9.71,1.97-2.55,3.73-5.23,4.5-8.4.22-.9-1.16-1.28-1.38-.38-.85,3.53-3.01,6.37-5.22,9.16-2.16,2.73-4.17,5.51-5.78,8.61-.43.82.81,1.54,1.24.72h0Z"/>
    <path class="cls-2" d="m357.34,331.72c2.76,0,2.77-4.29,0-4.29s-2.77,4.29,0,4.29h0Z"/>
    <path class="cls-2" d="m357.75,317.76c2.76,0,2.77-4.29,0-4.29s-2.77,4.29,0,4.29h0Z"/>
    <path class="cls-2" d="m359.8,303.4c2.76,0,2.77-4.29,0-4.29s-2.77,4.29,0,4.29h0Z"/>
    <path class="cls-2" d="m363.5,290.47c2.76,0,2.77-4.29,0-4.29s-2.77,4.29,0,4.29h0Z"/>
    <path class="cls-2" d="m369.24,280.82c2.76,0,2.77-4.29,0-4.29s-2.77,4.29,0,4.29h0Z"/>
    <path class="cls-2" d="m337.59,329.08c-8.01,7.21-10.55,19.17-11.73,29.42-1.39,12.11-.16,24.4,2.96,36.16.15.57,1.03.73,1.31.17.18-.36.36-.72.54-1.07.41-.82-.82-1.55-1.24-.72-.18.36-.36.72-.54,1.07l1.31.17c-2.97-11.21-4.19-22.87-3.05-34.43,1.01-10.26,3.44-22.53,11.46-29.75.69-.62-.33-1.63-1.01-1.01h0Z"/>
    <path class="cls-2" d="m368.96,335.61c6.7,5.9,11.21,13.69,14.37,21.97,1.53,4.02,2.77,8.15,3.84,12.32,1.32,5.11,2.64,10.41,1.59,15.69-.18.9,1.2,1.28,1.38.38,1.01-5.07,0-10.1-1.23-15.04-1.15-4.65-2.5-9.25-4.2-13.73-3.24-8.5-7.85-16.53-14.74-22.6-.69-.61-1.7.4-1.01,1.01h0Z"/>
    <path class="cls-2" d="m385.09,383.32c.49-8.39-1.6-16.82-5.92-24.03-2.16-3.6-4.86-6.79-7.97-9.6-3.58-3.23-8.32-7.27-6.75-12.69.26-.89-1.12-1.26-1.38-.38-1.19,4.1.88,7.95,3.66,10.87,3.26,3.41,6.88,6.18,9.62,10.09,5.26,7.49,7.85,16.61,7.31,25.74-.05.92,1.38.92,1.43,0h0Z"/>
    <path class="cls-2" d="m344.4,335.3c.37,4.37,0,8.75-1.23,12.97-1.17,4.03-3.12,7.78-3.95,11.92-1.57,7.78-.18,15.81,2.45,23.19.31.86,1.69.49,1.38-.38-2.76-7.75-4.18-16.28-1.99-24.36,1.04-3.85,2.89-7.43,3.85-11.3.98-3.94,1.26-7.99.92-12.03-.08-.91-1.51-.92-1.43,0h0Z"/>
    <path class="cls-2" d="m339.45,385.46c-2.47-4.83-3.91-10.04-4.24-15.46-.06-.91-1.49-.92-1.43,0,.35,5.67,1.85,11.12,4.44,16.18.42.82,1.65.1,1.24-.72h0Z"/>
    <path class="cls-2" d="m332.14,380.86c-2.05-11.2-.7-22.84,3.87-33.27.37-.84-.87-1.56-1.24-.72-4.74,10.82-6.14,22.75-4.02,34.37.17.9,1.54.52,1.38-.38h0Z"/>
    <path class="cls-2" d="m355.9,345.47c2.76,0,2.77-4.29,0-4.29s-2.77,4.29,0,4.29h0Z"/>
    <path class="cls-2" d="m355.49,355.83c3.68,0,3.69-5.72,0-5.72s-3.69,5.72,0,5.72h0Z"/>
    <path class="cls-2" d="m353.65,368.44c4.6,0,4.61-7.15,0-7.15s-4.61,7.15,0,7.15h0Z"/>
    <path class="cls-2" d="m355.49,380.35c4.6,0,4.61-7.15,0-7.15s-4.61,7.15,0,7.15h0Z"/>
    <path class="cls-2" d="m546.69,120.56c5.2,2.01,10.85,5.46,13.7,10.41,2.87,4.99,2.27,11.12,1.72,16.61-.09.92,1.34.91,1.43,0,.59-5.95,1.12-12.56-2.24-17.86-3.17-5-8.84-8.45-14.24-10.54-.86-.33-1.23,1.05-.38,1.38h0Z"/>
    <path class="cls-2" d="m561.68,153.92c-.43,2.51-1.51,4.74-3.24,6.61-.63.67.38,1.69,1.01,1.01,1.89-2.04,3.13-4.5,3.6-7.24.16-.9-1.22-1.29-1.38-.38h0Z"/>
    <path class="cls-2" d="m555.37,165.42c-2.72,3.42-6.72,5.51-9.25,9.11-.53.76.71,1.47,1.24.72,2.45-3.49,6.38-5.5,9.02-8.82.57-.71-.44-1.73-1.01-1.01h0Z"/>
    <path class="cls-2" d="m543.25,179.75c-1.7,2.68-2.6,5.66-2.69,8.83-.03.92,1.4.92,1.43,0,.09-2.93.93-5.63,2.5-8.11.49-.78-.74-1.5-1.24-.72h0Z"/>
    <path class="cls-2" d="m539.56,193.63c-.03,2.73.8,5.31,2.43,7.5.54.73,1.79.02,1.24-.72-1.5-2-2.26-4.27-2.24-6.78,0-.92-1.42-.92-1.43,0h0Z"/>
    <path class="cls-2" d="m546.01,205.73c1.97,1.51,4.2,2.53,6.63,3.03.9.19,1.28-1.19.38-1.38-2.32-.48-4.41-1.44-6.29-2.88-.73-.56-1.44.68-.72,1.24h0Z"/>
    <path class="cls-2" d="m539.11,121.64c2.66,1.11,4.94,3,6.47,5.45,1.72,2.73,2.15,5.88,2.35,9.04.2,3.2.25,6.36-.62,9.48-.82,2.94-2.24,5.67-3.72,8.33-5.87,10.5-11.83,21.73-12.55,34-.36,6.25.94,12.62,4.4,17.89.5.77,1.74.05,1.24-.72-7.63-11.65-3.61-26.21,1.61-37.95,2.55-5.75,6.07-10.97,8.7-16.66,2.62-5.66,2.93-11.52,2.06-17.65-.81-5.7-4.22-10.35-9.56-12.58-.85-.35-1.22,1.03-.38,1.38h0Z"/>
    <path class="cls-2" d="m533.24,123.08c.87.94,1.74,1.88,2.6,2.83.87.95,1.89,1.92,2,3.28.07.91,1.51.92,1.43,0-.24-2.89-3.18-5.13-5.02-7.12-.62-.68-1.63.33-1.01,1.01h0Z"/>
    <path class="cls-2" d="m538.46,133.92c.14,2.98.12,5.96-.05,8.95-.05.92,1.38.92,1.43,0,.18-2.98.19-5.96.05-8.95-.04-.92-1.47-.92-1.43,0h0Z"/>
    <path class="cls-2" d="m537.16,147.59c-1.41,5.61-3.63,10.93-6.61,15.88-.48.79.76,1.51,1.24.72,3.05-5.06,5.31-10.5,6.76-16.22.23-.89-1.15-1.27-1.38-.38h0Z"/>
    <path class="cls-2" d="m526.02,172.15c-1.51,4.27-2.42,8.67-2.77,13.18-.07.92,1.36.91,1.43,0,.34-4.38,1.25-8.65,2.72-12.8.31-.87-1.08-1.24-1.38-.38h0Z"/>
    <path class="cls-2" d="m523.98,189.72c.1,4.65,1.5,9.07,4.13,12.9.52.75,1.76.04,1.24-.72-2.49-3.63-3.84-7.77-3.94-12.18-.02-.92-1.45-.92-1.43,0h0Z"/>
    <path class="cls-2" d="m527.29,133.69c3.68,0,3.69-5.72,0-5.72s-3.69,5.72,0,5.72h0Z"/>
    <path class="cls-2" d="m519.48,144.43c3.68,0,3.69-5.72,0-5.72s-3.69,5.72,0,5.72h0Z"/>
    <path class="cls-2" d="m513.95,158.74c3.68,0,3.69-5.72,0-5.72s-3.69,5.72,0,5.72h0Z"/>
    <path class="cls-2" d="m513.62,173.55c3.68,0,3.69-5.72,0-5.72s-3.69,5.72,0,5.72h0Z"/>
    <path class="cls-2" d="m516.06,185.75c3.68,0,3.69-5.72,0-5.72s-3.69,5.72,0,5.72h0Z"/>
    <path class="cls-2" d="m556.08,139.71c3.68,0,3.69-5.72,0-5.72s-3.69,5.72,0,5.72h0Z"/>
    <path class="cls-2" d="m554.46,154.35c3.68,0,3.69-5.72,0-5.72s-3.69,5.72,0,5.72h0Z"/>
    <path class="cls-2" d="m549.9,163.72c2.76,0,2.77-4.29,0-4.29s-2.77,4.29,0,4.29h0Z"/>
    <path class="cls-2" d="m544.86,169.84c1.84,0,1.84-2.86,0-2.86s-1.84,2.86,0,2.86h0Z"/>
    <path class="cls-2" d="m525.11,411.41c6.24.24,12.48.48,18.71.72.92.04.92-1.4,0-1.43-6.24-.24-12.48-.48-18.71-.72-.92-.04-.92,1.4,0,1.43h0Z"/>
    <path class="cls-2" d="m534.33,415.12c2.92,1.02,5.98,1.17,9.04,1.28,3.36.13,6.72.2,10.08.24,6.97.08,13.93,0,20.9-.07.92,0,.92-1.44,0-1.43-6.73.07-13.45.14-20.18.08-3.36-.03-6.72-.1-10.09-.22-3.18-.11-6.35-.21-9.38-1.26-.87-.3-1.25,1.08-.38,1.38h0Z"/>
    <path class="cls-2" d="m584.84,415.41c1.8.21,3.59.41,5.39.62.91.11.91-1.33,0-1.43-1.8-.21-3.59-.41-5.39-.62-.91-.11-.91,1.33,0,1.43h0Z"/>
    <path class="cls-2" d="m600,549.64c2.17,1.5,4.96,1.52,7.5,1.44,2.88-.1,5.74-.58,8.53-1.26,5.6-1.36,11.04-3.37,16.33-5.62,10.92-4.63,21.27-10.45,31.98-15.52.83-.39.11-1.63-.72-1.24-9.91,4.69-19.52,10.03-29.55,14.47-5.1,2.26-10.33,4.28-15.7,5.81-2.87.82-5.8,1.5-8.78,1.79-2.85.28-6.42.6-8.88-1.1-.76-.53-1.48.71-.72,1.24h0Z"/>
    <path class="cls-2" d="m637.41,531.91c9.13-5.4,20.32-5.79,29.22-11.71,7.81-5.2,13.25-13.25,16.42-21.98.31-.87-1.07-1.24-1.38-.38-3.23,8.88-8.96,17.12-17.18,22.02-8.63,5.15-19.13,5.69-27.79,10.82-.79.47-.07,1.71.72,1.24h0Z"/>
    <path class="cls-2" d="m691.4,507.21c1.55-18.08-7.86-34.65-20.84-46.54-.68-.62-1.69.39-1.01,1.01,12.73,11.67,21.94,27.79,20.42,45.53-.08.92,1.35.91,1.43,0h0Z"/>
    <path class="cls-2" d="m659.21,459.31c-6.97,4.39-12.57,10.61-16.18,18.02-.4.82.83,1.55,1.24.72,3.5-7.2,8.89-13.24,15.66-17.51.78-.49.06-1.73-.72-1.24h0Z"/>
    <path class="cls-2" d="m648.45,477.99c-5.02,7.96-10.09,15.93-16.63,22.75-.64.66.37,1.68,1.01,1.01,6.62-6.9,11.77-14.98,16.85-23.04.49-.78-.75-1.5-1.24-.72h0Z"/>
    <path class="cls-2" d="m588.66,613.12c7.08-6.16,14.91-11.35,23.33-15.49.83-.41.1-1.64-.72-1.24-8.53,4.19-16.46,9.47-23.62,15.71-.7.61.32,1.61,1.01,1.01h0Z"/>
    <path class="cls-2" d="m592.67,600.51c2.42-2.2,5.02-4.15,7.8-5.86.78-.48.07-1.72-.72-1.24-2.89,1.77-5.59,3.8-8.09,6.08-.68.62.33,1.63,1.01,1.01h0Z"/>
    <path class="cls-2" d="m464.52,605.5c9.36-3.83,18.79-7.48,28.29-10.95.86-.31.49-1.7-.38-1.38-9.5,3.47-18.93,7.12-28.29,10.95-.84.34-.47,1.73.38,1.38h0Z"/>
    <path class="cls-2" d="m464.65,596.3c3.22-.87,6.47-1.58,9.76-2.13.91-.15.52-1.53-.38-1.38-3.29.55-6.54,1.25-9.76,2.13-.89.24-.51,1.62.38,1.38h0Z"/>
    <path class="cls-2" d="m391.29,599.12c.4,5.13.55,10.27.45,15.42-.02.92,1.41.92,1.43,0,.1-5.15-.05-10.29-.45-15.42-.07-.91-1.5-.92-1.43,0h0Z"/>
    <path class="cls-2" d="m362.26,548.58c5.94-.96,11.92-1.48,17.93-1.58.92-.02.92-1.45,0-1.43-6.14.1-12.25.65-18.31,1.63-.91.15-.52,1.53.38,1.38h0Z"/>
    <path class="cls-2" d="m379.3,542.73c4.29.13,8.58.27,12.87.4.92.03.92-1.4,0-1.43-4.29-.13-8.58-.27-12.87-.4-.92-.03-.92,1.4,0,1.43h0Z"/>
    <path class="cls-2" d="m321.21,512.97c4.45-.1,8.89-.3,13.33-.62.91-.06.92-1.5,0-1.43-4.44.31-8.88.52-13.33.62-.92.02-.92,1.45,0,1.43h0Z"/>
    <path class="cls-2" d="m332.73,428c-.02,6.18,1.11,12.25,3.35,18.01.33.85,1.72.48,1.38-.38-2.2-5.64-3.32-11.57-3.3-17.63,0-.92-1.43-.92-1.43,0h0Z"/>
    <path class="cls-2" d="m338.81,435.34c.25,4.47,1.47,8.79,2.76,13.06,1.28,4.28,2.75,8.5,4.39,12.65,1.58,4,3.31,7.93,5.2,11.79,1.68,3.43,3.57,6.78,6.52,9.27.7.59,1.72-.42,1.01-1.01-2.87-2.42-4.66-5.66-6.3-8.98-1.94-3.95-3.71-7.99-5.31-12.09-1.5-3.84-2.84-7.74-4.04-11.68-1.28-4.24-2.56-8.56-2.8-13.01-.05-.92-1.48-.92-1.43,0h0Z"/>
    <path class="cls-2" d="m655.56,707.12c4.81-.75,8.76-5.11,11.97-8.45,3.81-3.95,7.21-8.28,10.6-12.59.56-.72-.44-1.74-1.01-1.01-3.12,3.97-6.25,7.94-9.7,11.64-3.24,3.46-7.33,8.26-12.24,9.03-.91.14-.52,1.52.38,1.38h0Z"/>
    <path class="cls-2" d="m666.44,690.05c9.07-8.71,18.48-17.66,30.42-22.24.85-.33.48-1.71-.38-1.38-12.19,4.68-21.78,13.71-31.05,22.61-.67.64.35,1.65,1.01,1.01h0Z"/>
    <path class="cls-2" d="m696.36,673.82c8.65-4.26,17.71-7.58,27.07-9.93.89-.22.51-1.6-.38-1.38-9.47,2.38-18.65,5.75-27.41,10.07-.83.41-.1,1.64.72,1.24h0Z"/>
    <path class="cls-2" d="m592.5,681.93c3.37-2.62,7.5-3.8,11.61-4.7,4.54-.99,9.13-1.66,13.76-2.03.91-.07.92-1.5,0-1.43-4.97.4-9.91,1.12-14.78,2.22-4.17.95-8.2,2.27-11.61,4.93-.73.57.29,1.57,1.01,1.01h0Z"/>
    <path class="cls-2" d="m596.2,675.43c1.8-.69,3.64-1.21,5.53-1.57.9-.17.52-1.55-.38-1.38-1.89.36-3.73.88-5.53,1.57-.85.32-.48,1.71.38,1.38h0Z"/>
    <path class="cls-2" d="m731.61,461.66c3.93-4.41,6.72-9.62,8.17-15.35.23-.89-1.15-1.27-1.38-.38-1.4,5.49-4.04,10.49-7.81,14.72-.61.69.4,1.7,1.01,1.01h0Z"/>
    <path class="cls-2" d="m733.31,449.54c2.66-7.96,4.57-16.13,5.7-24.45.12-.9-1.26-1.29-1.38-.38-1.13,8.31-3.04,16.49-5.7,24.45-.29.88,1.09,1.25,1.38.38h0Z"/>
    <path class="cls-2" d="m783.06,350.98h12.17c.92,0,.92-1.43,0-1.43h-12.17c-.92,0-.92,1.43,0,1.43h0Z"/>
    <path class="cls-2" d="m787.89,346.64h7.33c.92,0,.92-1.43,0-1.43h-7.33c-.92,0-.92,1.43,0,1.43h0Z"/>
    <path class="cls-2" d="m844.88,381.79c10.66,2.04,21.4,3.59,32.2,4.63.92.09.91-1.34,0-1.43-10.67-1.03-21.29-2.56-31.82-4.58-.9-.17-1.29,1.21-.38,1.38h0Z"/>
    <path class="cls-2" d="m866.21,377.41c9.04,1.33,18.05,3,25.12,9.23,6.21,5.47,10.32,12.93,13.16,20.61.32.86,1.7.49,1.38-.38-2.92-7.91-7.14-15.61-13.53-21.24-7.29-6.42-16.42-8.23-25.75-9.6-.9-.13-1.29,1.25-.38,1.38h0Z"/>
    <path class="cls-2" d="m895.13,410.2c8.48,9.74,19.37,17.11,31.54,21.42.87.31,1.24-1.07.38-1.38-11.94-4.23-22.59-11.5-30.91-21.05-.61-.7-1.61.32-1.01,1.01h0Z"/>
    <path class="cls-2" d="m923.75,422.34c3.2,1.56,6.52,2.77,9.98,3.62.89.22,1.28-1.16.38-1.38-3.34-.82-6.54-1.97-9.64-3.48-.82-.4-1.55.83-.72,1.24h0Z"/>
    <path class="cls-2" d="m934.35,432.24c5.29,2.2,10.19,5.18,14.58,8.85.7.59,1.72-.42,1.01-1.01-4.6-3.84-9.68-6.92-15.21-9.22-.85-.35-1.22,1.03-.38,1.38h0Z"/>
    <path class="cls-2" d="m951.87,434.77c6.89,3.96,12.48,9.72,16.23,16.72.44.81,1.67.09,1.24-.72-3.87-7.2-9.66-13.16-16.75-17.23-.8-.46-1.52.78-.72,1.24h0Z"/>
    <path class="cls-2" d="m581.7,542.58c5.11-7.22,10.52-14.22,16.23-20.98.59-.7-.42-1.72-1.01-1.01-5.78,6.85-11.27,13.95-16.45,21.27-.53.75.71,1.47,1.24.72h0Z"/>
    <path class="cls-2" d="m576.43,534.76c15.15-15.98,30.98-32.91,36.78-54.78,1.57-5.93,2.29-12.05,2-18.18-.04-.92-1.48-.92-1.43,0,1.41,29.23-19.63,52.18-38.36,71.94-.63.67.38,1.68,1.01,1.01h0Z"/>
    <path class="cls-2" d="m513.92,506.36c19.32-14.55,29.65-37.26,37.42-59.49.3-.87-1.08-1.25-1.38-.38-7.64,21.84-17.78,44.34-36.77,58.64-.73.55-.01,1.79.72,1.24h0Z"/>
    <path class="cls-2" d="m460.55,488.96c19.41-8.4,28.82-28.69,34.33-47.88.25-.89-1.13-1.27-1.38-.38-5.41,18.86-14.58,38.76-33.67,47.02-.84.36-.12,1.6.72,1.24h0Z"/>
    <path class="cls-2" d="m420,480.43c12.59-9.57,22.36-22.4,28.22-37.09.34-.86-1.04-1.23-1.38-.38-5.71,14.31-15.3,26.92-27.57,36.24-.72.55-.01,1.79.72,1.24h0Z"/>
    <path class="cls-2" d="m384.01,453.43c11.68-6.24,21.39-15.75,27.88-27.3.45-.8-.78-1.53-1.24-.72-6.37,11.35-15.89,20.65-27.36,26.79-.81.43-.09,1.67.72,1.24h0Z"/>
    <path class="cls-2" d="m596.7,712.15c6.44,0,6.46-10.02,0-10.02s-6.46,10.02,0,10.02h0Z"/>
    <path class="cls-2" d="m609.45,719.76c3.68,0,3.69-5.72,0-5.72s-3.69,5.72,0,5.72h0Z"/>
    <path class="cls-2" d="m615.45,707.08c1.84,0,1.84-2.86,0-2.86s-1.84,2.86,0,2.86h0Z"/>
    <path class="cls-2" d="m623.7,719.04c2.76,0,2.77-4.29,0-4.29s-2.77,4.29,0,4.29h0Z"/>
    <path class="cls-2" d="m634.21,708.58c1.84,0,1.84-2.86,0-2.86s-1.84,2.86,0,2.86h0Z"/>
    <path class="cls-2" d="m644.71,718.26c3.68,0,3.69-5.72,0-5.72s-3.69,5.72,0,5.72h0Z"/>
    <path class="cls-2" d="m956.75,414.4c5.52,0,5.53-8.58,0-8.58s-5.53,8.58,0,8.58h0Z"/>
    <path class="cls-2" d="m945.5,400.96c3.68,0,3.69-5.72,0-5.72s-3.69,5.72,0,5.72h0Z"/>
    <path class="cls-2" d="m961.25,425.75c2.76,0,2.77-4.29,0-4.29s-2.77,4.29,0,4.29h0Z"/>
    <path class="cls-2" d="m944.75,417.5c2.76,0,2.77-4.29,0-4.29s-2.77,4.29,0,4.29h0Z"/>
    <path class="cls-2" d="m932,411.36c6.44,0,6.45-10.02,0-10.02s-6.46,10.02,0,10.02h0Z"/>
    <path class="cls-2" d="m932,388.96c3.68,0,3.69-5.72,0-5.72s-3.69,5.72,0,5.72h0Z"/>
    <path class="cls-2" d="m920,384.56c.92,0,.92-1.43,0-1.43s-.92,1.43,0,1.43h0Z"/>
    <path class="cls-2" d="m919.25,386c2.76,0,2.77-4.29,0-4.29s-2.77,4.29,0,4.29h0Z"/>
    <path class="cls-2" d="m911.75,374.03c1.84,0,1.84-2.86,0-2.86s-1.84,2.86,0,2.86h0Z"/>
  </g>
  <g>
    <polygon class="cls-1" points="290.2 162.08 283.98 141.28 300.21 155.94 317.1 137.26 309.76 159.22 323.07 167.22 306.09 170.19 303.3 189.11 296.15 168.35 282.64 170.44 290.2 162.08"/>
    <polygon class="cls-1" points="519.1 383.27 498.56 378.4 514.98 370 507.66 355.7 523.97 364.06 541.15 351.93 537.06 370.06 555.02 384.26 533.71 381.8 523.25 400.52 519.1 383.27"/>
    <path class="cls-1" d="m485.84,363.52c2.66-.86,5.51.6,6.37,3.26.86,2.66-.6,5.51-3.26,6.37-2.66.86-5.51-.6-6.37-3.26-.86-2.66.6-5.51,3.26-6.37Z"/>
    <path class="cls-1" d="m456.33,358.54c2.66-.86,5.51.6,6.37,3.26.86,2.66-.6,5.51-3.26,6.37-2.66.86-5.51-.6-6.37-3.26-.86-2.66.6-5.51,3.26-6.37Z"/>
    <path class="cls-1" d="m668.81,651.43c-.2,2.79-2.62,4.88-5.41,4.68-2.79-.2-4.88-2.62-4.68-5.41.2-2.79,2.62-4.88,5.41-4.68,2.79.2,4.88,2.62,4.68,5.41Z"/>
    <path class="cls-1" d="m693.57,662.31c-.2,2.79-2.62,4.88-5.41,4.68-2.79-.2-4.88-2.62-4.68-5.41.2-2.79,2.62-4.88,5.41-4.68,2.79.2,4.88,2.62,4.68,5.41Z"/>
    <path class="cls-1" d="m779.04,638.42c2.34,1.53,2.99,4.66,1.47,7-1.53,2.34-4.66,2.99-7,1.47s-2.99-4.66-1.47-7c1.53-2.34,4.66-2.99,7-1.47Z"/>
    <path class="cls-1" d="m800.57,622.07c2.34,1.53,2.99,4.66,1.47,7-1.53,2.34-4.66,2.99-7,1.47-2.34-1.53-2.99-4.66-1.47-7,1.53-2.34,4.66-2.99,7-1.47Z"/>
    <path class="cls-1" d="m640.81,444.02l1.21,24.2-12.41-14.8-28.42,5.46,23.14-19.41-4.26-21.15,14.98,17.86s17.41-4.46,17.42-4.47c0,0-11.66,12.32-11.66,12.32Z"/>
    <path class="cls-1" d="m598.85,426.68c.76-2.61,3.5-4.11,6.11-3.35,2.61.76,4.11,3.5,3.35,6.12-.76,2.61-3.5,4.11-6.12,3.35-2.61-.76-4.11-3.5-3.35-6.11Z"/>
    <path class="cls-1" d="m579.71,412.82c.76-2.61,3.5-4.11,6.12-3.35,2.61.76,4.11,3.5,3.35,6.12-.76,2.61-3.5,4.11-6.12,3.35-2.61-.76-4.11-3.5-3.35-6.12Z"/>
    <path class="cls-1" d="m560.69,399.05c.76-2.61,3.5-4.11,6.12-3.35,2.61.76,4.11,3.5,3.35,6.12-.76,2.61-3.5,4.11-6.12,3.35-2.61-.76-4.11-3.5-3.35-6.12Z"/>
    <path class="cls-1" d="m335.08,130.52c2.2,1.61,2.67,4.7,1.06,6.89-1.61,2.2-4.7,2.67-6.89,1.06-2.2-1.61-2.67-4.7-1.06-6.89,1.61-2.2,4.7-2.67,6.89-1.06Z"/>
    <path class="cls-1" d="m357.11,115.59c2.2,1.61,2.67,4.7,1.06,6.89s-4.7,2.67-6.89,1.06c-2.2-1.61-2.67-4.7-1.06-6.89,1.61-2.2,4.7-2.67,6.89-1.06Z"/>
    <polygon class="cls-1" points="821.69 596.08 804.95 581.73 828.08 584.66 835.72 572.64 833.55 589.71 855.12 600.32 837.08 598.03 832.78 619.85 827.84 608.32 812.23 609.48 821.69 596.08"/>
    <path class="cls-1" d="m442.82,140.28c-1.18,2.53-4.19,3.62-6.72,2.44-2.53-1.18-3.62-4.19-2.44-6.72,1.18-2.53,4.19-3.62,6.72-2.44,2.53,1.18,3.62,4.19,2.44,6.72Z"/>
    <polygon class="cls-1" points="471.53 157.52 483.38 138.93 483.73 162.24 496.71 168.1 479.51 168.37 472.04 191.22 471.76 173.03 449.56 171.85 460.28 165.34 456.93 150.05 471.53 157.52"/>
    <path class="cls-1" d="m582.86,622.37c2.55,1.13,3.71,4.12,2.58,6.67-1.13,2.55-4.12,3.71-6.67,2.58-2.55-1.13-3.71-4.12-2.58-6.67,1.13-2.55,4.12-3.71,6.67-2.58Z"/>
    <path class="cls-1" d="m685.99,526.45c-2.46,1.17-5.4.12-6.57-2.34-1.17-2.46-.12-5.4,2.34-6.57,2.46-1.17,5.4-.12,6.57,2.34,1.17,2.46.12,5.4-2.34,6.57Z"/>
    <polygon class="cls-1" points="701.67 553.81 722.99 559.44 700.9 566.87 699.25 581.02 693.77 564.71 669.73 564.56 686.97 558.76 681.34 537.25 690.8 545.47 704.35 537.63 701.67 553.81"/>
    <path class="cls-1" d="m358.69,344.17c.44,2.69-1.38,5.22-4.07,5.66-2.69.44-5.22-1.38-5.66-4.07-.44-2.69,1.38-5.22,4.07-5.66,2.69-.44,5.22,1.38,5.66,4.07Z"/>
    <path class="cls-1" d="m383,348.61c.44,2.69-1.38,5.22-4.07,5.66-2.69.44-5.22-1.38-5.66-4.07-.44-2.69,1.38-5.22,4.07-5.66,2.69-.44,5.22,1.38,5.66,4.07Z"/>
    <polygon class="cls-1" points="412.06 346.77 423.38 327.85 424.39 351.13 437.53 356.63 420.34 357.38 413.52 380.44 412.74 362.26 390.51 361.71 401.03 354.9 397.26 339.71 412.06 346.77"/>
    <polygon class="cls-1" points="320.78 325.29 302.31 314.79 324.72 313.32 329.74 300.55 330.83 317.09 353.18 323.17 335.69 324.32 335.63 345.74 328.85 335.75 314.29 339.71 320.78 325.29"/>
    <path class="cls-1" d="m315.14,283.46c2.43-1.37,5.52-.52,6.89,1.91,1.37,2.43.52,5.52-1.91,6.89-2.43,1.37-5.52.52-6.89-1.91-1.37-2.43-.52-5.52,1.91-6.89Z"/>
    <path class="cls-1" d="m310.86,258.9c2.43-1.37,5.52-.52,6.89,1.91,1.37,2.43.52,5.52-1.91,6.89-2.43,1.38-5.52.52-6.89-1.91-1.37-2.43-.52-5.52,1.91-6.89Z"/>
    <path class="cls-1" d="m306.22,232.26c2.43-1.37,5.52-.52,6.89,1.91,1.38,2.43.52,5.52-1.91,6.89-2.43,1.37-5.52.52-6.89-1.91-1.37-2.43-.52-5.52,1.91-6.89Z"/>
    <path class="cls-1" d="m301.53,205.37c2.43-1.37,5.52-.52,6.89,1.91,1.37,2.43.52,5.52-1.91,6.89-2.43,1.38-5.52.52-6.89-1.91-1.37-2.43-.52-5.52,1.91-6.89Z"/>
    <polygon class="cls-1" points="663.25 482.31 662.14 468.05 670.96 476.91 678.69 469.23 676.66 481.49 688.05 490.08 675.49 491.19 670.04 505.73 667.22 491.45 652.96 488.57 663.25 482.31"/>
    <path class="cls-1" d="m723.11,617.35c1.8,2.13,1.54,5.32-.6,7.13-2.13,1.8-5.32,1.54-7.13-.6-1.8-2.13-1.54-5.32.6-7.13,2.13-1.8,5.32-1.54,7.13.6Z"/>
    <path class="cls-1" d="m716.96,592.04c1.8,2.13,1.54,5.32-.6,7.13-2.13,1.8-5.32,1.54-7.13-.6-1.8-2.13-1.54-5.32.6-7.13,2.13-1.8,5.32-1.54,7.13.6Z"/>
    <path class="cls-1" d="m528.5,605.67l10.93-13.98-.22,14.15,18.35,10.6-22.12-.34-7.78,13.76.27-17.07s-11.78-5.88-11.79-5.88c0,0,12.36-1.23,12.36-1.23Z"/>
    <path class="cls-1" d="m378.56,104.45l-15.41-2.87,11.18-5.6.83-18.71,8.75,17.48,13.95.49-13.49,6.75s.2,11.63.2,11.64-6.01-9.19-6.01-9.19Z"/>
    <polygon class="cls-1" points="414.77 127.08 395.3 137.42 406.47 116.96 398.08 105.46 413.17 113.71 430.93 97.5 422.21 113.47 440.94 125.43 428.41 125.82 423.79 140.78 414.77 127.08"/>
    <polygon class="cls-1" points="621.96 631.14 619.58 610.03 633.96 627.28 647.24 623.82 634.51 634.43 642.75 656.09 631.53 642.62 614.18 655.18 618.26 643.81 606.49 634.38 621.96 631.14"/>
    <path class="cls-1" d="m734.01,653.45c2.31-2.72,20-18.91,20-18.91l-7.99,21.32,19.96,6.83-17.47,3.09,12.32,16.73-16.93-5.81,1.5,23.93-9.94-18.61-11.95,14.04,4.39-18.92-23.36-1.92,21.01-6.33-21.68-17.67,20.28,5.54.13-19.42,9.73,16.1Z"/>
  </g>
</svg>