<?xml version="1.0" encoding="UTF-8"?>
<svg id="object" xmlns="http://www.w3.org/2000/svg" viewBox="0 0 1200 800">
  <defs>
    <style>
      .cls-1 {
        fill: #fff;
      }

      .cls-2 {
        fill: #a1d9d4;
        opacity: .42;
      }
    </style>
  </defs>
  <g>
    <g>
      <path class="cls-2" d="m387.77,582.25c.82-.99,1.65-1.97,2.47-2.96-.65-15.26-1.27-30.53-1.85-45.8-.88-23.39-1.68-46.78-2.4-70.18-.87-28.19-1.63-56.37-2.3-84.56-.77-32.55-1.4-65.1-1.9-97.66-.56-36.56-.96-73.13-1.2-109.69-.05-8.01-.09-16.01-.13-24.02-.96-2.34-1.85-4.79-2.62-7.31.12,30,.34,60,.68,90,.39,34.61.93,69.21,1.61,103.82.6,30.58,1.32,61.17,2.17,91.74.71,25.75,1.5,51.5,2.39,77.24.71,20.61,1.49,41.22,2.33,61.83.24,5.85.49,11.7.74,17.55Z"/>
      <path class="cls-2" d="m914.79,593.48c-3.14.27-6.31-.03-9.4-.53-.38-.06-.68-.2-.92-.38-6.55.89-13.1,1.78-19.66,2.66-12.44,1.67-24.89,3.32-37.33,4.96-15.78,2.07-31.57,4.12-47.36,6.14-18.25,2.33-36.5,4.62-54.76,6.87-19.61,2.41-39.22,4.78-58.84,7.08-20.1,2.36-40.21,4.65-60.33,6.85-19.74,2.16-39.49,4.24-59.25,6.19-18.26,1.8-36.53,3.49-54.81,5-15.93,1.31-31.87,2.49-47.83,3.38-2.96.16-5.92.32-8.89.46-.92,1.16-2,2.05-3.21,2.73,11.41-.5,22.81-1.2,34.2-2,17.29-1.22,34.55-2.67,51.81-4.24,19.26-1.76,38.5-3.67,57.74-5.68,20.1-2.1,40.19-4.31,60.28-6.59,20.17-2.29,40.32-4.66,60.47-7.09,19.09-2.3,38.17-4.65,57.25-7.05,17.23-2.16,34.45-4.36,51.66-6.6,14.25-1.85,28.49-3.72,42.74-5.61,10.48-1.39,20.96-2.8,31.43-4.22,5.63-.76,11.25-1.53,16.87-2.31.72-.1,1.43-.2,2.15-.3.54-.07.82-.39.91-.77-1.62.46-3.24.91-4.93,1.05Z"/>
      <path class="cls-2" d="m410.36,644.12c-.09-.09-.19-.19-.29-.28-.41-.38-.61-.8-.66-1.22-2.82-.19-5.62-.46-8.4-.89-2.18-.33-5.17-.93-6.76-1.67-.34-.16-.7-.43-1.05-.55,0,0,0,0-.01,0,.06.13.07.31-.07.57.06-.13.02-.39-.02-.61-.45-.18-.2-.25-.01-.1,0-.05-.02-.11-.01-.15.06-4.31-.34-8.69-.64-13.02-.05-.02-.11-.04-.17-.06-.23-.04-.46-.12-.7-.24-.14-.08-.29-.15-.44-.22-.47-.21-.93-.43-1.39-.68.16,3.14.31,6.29.48,9.43.09,1.69.11,3.4.27,5.09.14,1.51,1.14,2.18,2.48,2.79,5.4,2.5,12.14,2.63,17.98,2.93-.23-.37-.43-.74-.6-1.12Z"/>
    </g>
    <g>
      <g>
        <path class="cls-2" d="m627.28,376.99c-4.33-4.91-7.41-11.16-9.19-17.48-3.69-14-4.71-28.48-12.1-41.31-7.03-12.2-17.37-22.72-28.18-31.61-22.91-18.86-50.06-31.66-76.33-45.05-13.88-7.08-27.79-14.1-41.64-21.25-12.32-6.35-24.55-12.96-35.96-20.86-22.52-15.58-41.98-37.53-46.46-65.4-2.01-12.52-1.11-28.83,7.42-38.99,4.43-5.27,13.34-9.03,19.32-3.87,4.91,4.24,4.86,13.73-2.92,14.27-3,.21-4.83-1.09-6.38-3.43-.74-1.13-1.55-2.04-2.89-.93-1.68,1.39-2.62,5.58-3.19,7.57-.85,2.94-1.38,5.98-1.63,9.03-1.03,12.56,2.8,25.39,9.45,35.99,7.07,11.26,17.19,20.28,28.03,27.82,11.82,8.21,24.64,15.11,37.61,21.32,27,12.92,55.64,20.6,83.92,30.04,27.75,9.26,55.11,21.39,74.97,43.61,4.96,5.55,9.45,11.5,12.25,18.45,2.52,6.26,3.82,12.92,5.06,19.53,2.19,11.65,4.22,26.8,13.72,35.08.29-.59.84-1.03,1.66-1.09-5.01-4.25-7.6-10.61-9.53-16.83-2.07-6.67-3.22-13.55-4.54-20.4-1.3-6.7-2.87-13.38-5.75-19.6-2.91-6.26-7.25-11.74-11.85-16.85-9.66-10.71-21.33-19.53-33.98-26.42-26.48-14.4-56.01-21.48-84.42-30.93-15.18-5.05-30.01-11-44.36-18.09-13.3-6.57-26.53-13.83-38.39-22.79-11.41-8.61-21.7-19.33-27.38-32.63-2.81-6.58-4.53-13.68-4.73-20.85-.1-3.5.16-7.01.85-10.44.28-1.39,1.84-9.59,3.52-9.53-.03,0,1.47,2.09,1.68,2.27.65.58,1.41,1.01,2.21,1.33,1.94.78,4.15.87,6.16.32,4.29-1.17,6.67-5.2,6.18-9.54-.53-4.67-3.93-8.72-8.44-10.04-5.53-1.62-11.62.56-15.73,4.37-9.01,8.37-11.14,23.33-10.55,35,.64,12.92,4.98,25.48,11.45,36.61,14.28,24.53,38.77,40.46,63.21,53.57,27.69,14.85,56.15,28.22,83.82,43.08,26.58,14.28,54.66,31.74,70.6,58.26,7.73,12.87,8.67,27.54,12.4,41.7,1.91,6.78,5.18,13.45,9.9,18.66.07-.7.44-1.36,1.11-1.68Z"/>
        <path class="cls-2" d="m949.98,566.18c-.68-4.97-4.01-9.1-8.93-10.39-4.28-1.12-9.28.29-11.16,4.57-1.56,3.56-.73,8.43,2.47,10.83.56.42,1.86.67,2.29,1.12.36.37-.56.62-1.12.96-.76.46-1.52.9-2.31,1.32-3.17,1.68-6.56,2.92-10.04,3.76-6.91,1.66-14.19,1.73-21.19.56-14.23-2.38-26.81-9.9-37.42-19.44-10.81-9.72-19.87-21.33-28.3-33.12-9.18-12.83-17.43-26.32-24.71-40.32-13.77-26.47-24.43-54.66-41.13-79.54-8.05-11.99-17.53-22.93-28.89-31.89-11.19-8.81-24.82-17.29-39.08-19.73-7.49-1.28-15.03.32-22.55.31-3.87,0-8.06-.35-12.08-1.25-.26.76-.91,1.37-1.95,1.37-.05,0-.1-.01-.15-.02-.03.04-.07.07-.1.11,8.86,2.32,18.84,1.31,27.66.93,15.47-.66,30.11,7.53,42.37,16.23,24.13,17.13,39.41,42.72,52.23,68.8,6.42,13.06,12.34,26.36,18.85,39.38,6.68,13.38,14.13,26.35,22.47,38.76,14.88,22.12,32.8,46.54,58.2,57.16,11.2,4.68,23.92,6.36,35.83,3.63,2.94-.68,5.8-1.64,8.55-2.89,1.89-.86,5.85-2.23,6.9-4.2.73-1.36-.11-2.05-1.26-2.61-2.88-1.4-4.52-3.21-4.43-6.67.19-7.69,9.72-8.02,14.18-3.67,5.95,5.82,2.41,15.48-2.72,20.42-9.55,9.19-25.01,12.03-37.78,11.57-28.47-1.03-52.76-17.88-71.26-38.36-9.47-10.48-17.77-21.93-25.89-33.47-9.17-13.02-18.27-26.08-27.41-39.12-16.57-23.65-32.85-48.12-54.5-67.52-10.32-9.25-21.9-17.15-34.72-22.5-6.49-2.7-13.32-5.04-20.34-5.8-7.99-.87-15.85,1.59-23.83,1.27-3.14-.13-6.04-.8-8.71-1.9.03.66-.21,1.34-.71,1.77,1.15.47,2.33.87,3.57,1.18,7.42,1.9,15,.02,22.47-.51,8.26-.58,16.14,1.59,23.8,4.5,28.68,10.9,50.21,34.21,68.29,58.16,19.1,25.32,36.47,51.94,54.95,77.71,16.04,22.39,34.24,45.08,59.54,57.37,11.89,5.77,25.08,9.3,38.35,9.11,12.18-.17,26.48-3.44,35.52-12.16,4.23-4.08,6.97-9.84,6.16-15.81Z"/>
      </g>
      <path class="cls-2" d="m622.08,290.13c-3.07-10.79-11.98-18-20.49-24.59-.95-.74-2.29.59-1.34,1.34,8.22,6.37,17.03,13.32,20,23.76.33,1.17,2.16.67,1.82-.5h0Z"/>
      <path class="cls-2" d="m605.45,276.85c-14.18-12.53-31.46-21.3-49.96-25.31-1.18-.26-1.69,1.56-.5,1.82,18.18,3.94,35.18,12.5,49.13,24.82.91.8,2.25-.53,1.34-1.34h0Z"/>
      <path class="cls-2" d="m574.27,248.69c-9.95-2.59-19.97-4.98-29.84-7.86-9.73-2.83-18.58-7.41-27.42-12.27-1.07-.59-2.02,1.05-.95,1.63,8.8,4.83,17.62,9.43,27.28,12.28,10.05,2.97,20.29,5.39,30.43,8.03,1.18.31,1.68-1.51.5-1.82h0Z"/>
      <path class="cls-2" d="m402.35,92.98c-3.59-1.76-7.68-1.66-11.16.33-1.05.6-.1,2.24.95,1.63,2.86-1.64,6.28-1.79,9.25-.33,1.09.53,2.05-1.1.95-1.63h0Z"/>
      <path class="cls-2" d="m754.76,427.01c4.64,7.1,8.93,14.42,12.87,21.93.57,1.08,2.2.12,1.63-.95-3.94-7.51-8.24-14.82-12.87-21.93-.66-1.01-2.3-.07-1.63.95h0Z"/>
      <path class="cls-2" d="m767.64,434.17c4.48,9.32,8.96,18.64,13.45,27.96,3.99,8.28,8.1,16.55,13.98,23.69.77.94,2.1-.4,1.34-1.34-5.89-7.15-9.94-15.53-13.93-23.83-4.4-9.14-8.8-18.29-13.19-27.43-.53-1.09-2.16-.14-1.63.95h0Z"/>
      <path class="cls-2" d="m802.55,496.73c9.94,15.93,20.86,31.22,32.67,45.82.76.94,2.09-.4,1.34-1.34-11.71-14.47-22.51-29.65-32.37-45.44-.64-1.03-2.28-.08-1.63.95h0Z"/>
    </g>
    <path class="cls-2" d="m498.34,537.1c.68,23.64-3.19,47.59-12.73,69.32h1.12c-3.81-7.64-8.57-14.74-14.15-21.2-.38-.44-1.1-.07-1.11.46-.03,7.45-.06,14.91-.09,22.36-.01,3.55.07,7.11-.06,10.66-.07,1.85-.32,3.66-1.22,5.31-.83,1.53-1.99,2.85-3.08,4.18-8.44,10.28-17.72,19.87-27.71,28.66-5.71,5.02-11.65,9.77-17.8,14.24.32.13.63.26.95.39-3.79-11.81-9.02-23.1-15.57-33.63-.44-.71-1.56-.06-1.12.65,6.5,10.43,11.68,21.61,15.44,33.32.12.36.6.65.95.39,11.11-8.09,21.56-17.07,31.19-26.88,4.89-4.99,9.58-10.18,14.03-15.56,1.89-2.28,4.03-4.58,4.79-7.52.85-3.3.46-7,.48-10.37.03-8.73.07-17.46.1-26.2-.37.15-.74.31-1.11.46,5.51,6.38,10.18,13.4,13.94,20.94.2.41.93.44,1.12,0,9.64-21.94,13.6-46.09,12.91-69.97-.02-.83-1.32-.84-1.3,0h0Z"/>
    <path class="cls-2" d="m489.82,525.46c-22.97-6.14-46.04,5.39-64.03,18.86-19.18,14.36-35.58,32.46-49.97,51.53-4.95,6.57-9.82,13.3-13.96,20.42-.2.34-.03.86.39.95,11.59,2.44,22.78,6.08,33.43,11.28.75.36,1.4-.75.65-1.12-10.75-5.25-22.04-8.95-33.74-11.41.13.32.26.63.39.95,3.49-6,7.52-11.71,11.63-17.3,6.41-8.72,13.27-17.13,20.54-25.15,8.29-9.14,17.15-17.81,26.78-25.54,9.52-7.64,19.92-14.52,31.31-19.02,11.52-4.56,24.12-6.45,36.24-3.21.81.22,1.15-1.03.34-1.25h0Z"/>
    <path class="cls-2" d="m398.53,644.23c-2.57,0-5.01-1.33-6.43-3.21-1.26-1.89-2.31-4.21-.73-7.38,1.35-2.7,3.3-4.8,5.18-6.82.91-.98,1.85-1.99,2.69-3.05l.05-.06c9.38-9.71,18.27-19.42,26.87-28.81,8.6-9.4,17.5-19.12,26.9-28.84,35.35-38.83,70.6-77.27,104.68-114.44,47.85-52.18,97.33-106.13,145.9-159.91l1.27,1.15c-48.58,53.78-98.06,107.73-145.91,159.92-34.09,37.17-69.33,75.61-104.7,114.45-9.4,9.73-18.29,19.44-26.88,28.83-8.59,9.39-17.48,19.1-26.87,28.81-.88,1.09-1.83,2.12-2.75,3.11-1.88,2.03-3.66,3.94-4.9,6.42-1.12,2.24-.57,3.87.59,5.62,1.61,2.14,4.97,3.38,7.82,1.73,2.88-2.88,5.65-5.81,8.33-8.65,2.71-2.87,5.51-5.84,8.44-8.76,55.8-61.56,111.24-122.03,164.85-180.52,42.68-46.56,86.81-94.7,130.55-142.76l1.27,1.16c-43.74,48.07-87.88,96.21-130.56,142.77-53.61,58.48-109.05,118.96-164.88,180.54-2.94,2.94-5.73,5.9-8.43,8.76-2.71,2.87-5.51,5.84-8.44,8.76l-.17.13c-1.22.73-2.51,1.05-3.77,1.05Z"/>
    <path class="cls-2" d="m754.58,315.31c.4-12.79,2.86-25.61,5.1-38.17,2.24-12.59,4.74-25.14,7.39-37.65.55-2.61,1.11-5.22,1.68-7.82.1-.46-.3-.96-.8-.8-7.07,2.32-14.17,4.54-21.27,6.73-13.64,4.19-27.34,8.24-41.19,11.71-6.38,1.59-12.82,3.16-19.34,4.02-.42.06-.9.53-.56.97,2.77,3.63,6.14,6.9,9.68,9.77,6.26,5.09,13.82,9.21,22.09,9.17-.15-.37-.31-.74-.46-1.11-5.53,5.37-11.05,10.75-16.58,16.12-.25.24-.24.67,0,.92,2.7,2.73,5.29,5.66,8.13,8.23,2.85,2.57,6.02,4.86,9,7.27.25.2.68.3.92,0,4.8-6.04,9.59-12.07,14.39-18.11-.37-.15-.74-.31-1.11-.46.78,8.23,5.6,15.36,11.3,21.09,3.2,3.22,6.79,6.27,10.67,8.66.71.44,1.36-.68.65-1.12-3.59-2.21-6.9-5-9.89-7.94-5.66-5.56-10.66-12.58-11.43-20.69-.05-.49-.72-.94-1.11-.46-4.8,6.04-9.59,12.07-14.39,18.11h.92c-2.99-2.41-6.16-4.7-9-7.27-2.85-2.58-5.43-5.5-8.13-8.23v.92c5.53-5.37,11.05-10.75,16.58-16.12.4-.39.1-1.11-.46-1.11-8.16.04-15.64-4.18-21.75-9.27-3.13-2.61-6.64-6.07-8.89-9.03-.19.32-.37.65-.56.97,12.68-1.68,25.17-5.36,37.44-8.84,12.43-3.52,24.79-7.29,37.1-11.21,2.54-.81,5.08-1.62,7.61-2.45-.27-.27-.53-.53-.8-.8-1.63,7.37-3.15,14.77-4.64,22.18-2.83,14.12-5.52,28.28-7.57,42.54-.92,6.38-1.8,12.82-2,19.28-.03.83,1.27.83,1.3,0Z"/>
    <path class="cls-2" d="m459.57,590.84c2.38,11.02,3.01,22.33,1.88,33.54-.08.83,1.21.82,1.3,0,1.14-11.33.48-22.76-1.92-33.89-.18-.81-1.43-.47-1.25.34h0Z"/>
    <path class="cls-2" d="m454.3,603.91c.09,9.92-1.5,20.01-6.28,28.82-2.16,3.98-4.91,7.63-8.26,10.69-3.31,3.02-7.28,5.24-10.29,8.6-.55.62.36,1.54.92.92,3.24-3.62,7.57-5.97,11.06-9.32,3.21-3.09,5.87-6.75,7.95-10.69,4.69-8.91,6.3-19.03,6.21-29.01,0-.83-1.3-.84-1.3,0h0Z"/>
    <path class="cls-2" d="m439.88,628.22c-3.35,6.25-7.73,11.83-13,16.57-.62.56.3,1.47.92.92,5.35-4.81,9.81-10.49,13.2-16.83.39-.73-.72-1.39-1.12-.65h0Z"/>
    <path class="cls-2" d="m486.08,583.05c.73-7.21,2.39-14.28,4.92-21.07.29-.78-.96-1.12-1.25-.34-2.58,6.9-4.23,14.08-4.97,21.41-.08.83,1.21.82,1.3,0h0Z"/>
    <path class="cls-2" d="m480.96,573.96c.18-1.95.59-3.85,1.19-5.72.26-.8-.99-1.14-1.25-.34-.64,1.98-1.04,3.99-1.24,6.06-.08.83,1.22.82,1.3,0h0Z"/>
    <path class="cls-2" d="m476.57,539.87c-9.92,1.84-19.84,3.69-29.76,5.53-.82.15-.47,1.4.34,1.25,9.92-1.85,19.84-3.69,29.77-5.54.82-.15.47-1.4-.34-1.25h0Z"/>
    <path class="cls-2" d="m456.26,553.22c-12.28,1.03-24.46,3.03-36.43,5.98-.81.2-.47,1.45.34,1.25,11.86-2.92,23.92-4.91,36.09-5.93.83-.07.83-1.37,0-1.3h0Z"/>
    <path class="cls-2" d="m434.13,549.41c-2.88.34-5.66.98-8.37,1.99-.77.29-.44,1.54.34,1.25,2.6-.97,5.27-1.63,8.03-1.95.82-.1.83-1.39,0-1.3h0Z"/>
    <path class="cls-2" d="m440.22,579.78c-14.96.62-29.52,4.48-43.46,9.78-.77.29-.44,1.55.34,1.25,13.83-5.25,28.27-9.11,43.12-9.73.83-.03.84-1.33,0-1.3h0Z"/>
    <path class="cls-2" d="m418.48,589.91c-17.8,2.44-33.83,11.03-49.41,19.48-.73.4-.08,1.52.65,1.12,15.49-8.4,31.41-16.92,49.1-19.35.82-.11.47-1.36-.34-1.25h0Z"/>
    <path class="cls-2" d="m380.81,614.45c2.62-1.9,5.41-3.51,8.37-4.84.76-.34.1-1.46-.65-1.12-2.96,1.32-5.74,2.94-8.37,4.84-.67.48-.02,1.61.65,1.12h0Z"/>
    <path class="cls-2" d="m565.9,452.43c8.34-9.52,17.05-18.7,26.12-27.52.6-.58-.32-1.5-.92-.92-9.07,8.82-17.78,18-26.12,27.52-.55.62.37,1.54.92.92h0Z"/>
    <path class="cls-2" d="m596.51,419.23c3.5-4.03,7.09-7.99,10.76-11.86.57-.6-.34-1.52-.92-.92-3.67,3.88-7.26,7.83-10.76,11.86-.54.63.37,1.55.92.92h0Z"/>
    <path class="cls-2" d="m747.7,286.16c-2.17-3.25-6.98-.49-5.8,3.11,1.49,4.55,7.27,3.08,9.26-.16,1.38-2.25,1.51-4.94,1.44-7.5-.08-3.28-.15-6.54.06-9.82.44-6.71,1.75-13.32,3.81-19.71.26-.8-.99-1.14-1.25-.34-2.63,8.16-4.02,16.7-4.03,25.28,0,3.95,1.14,9.36-1.96,12.49-1.52,1.53-4.44,2.15-5.78.04-.55-.86-.71-2.19.11-2.95.85-.79,2.37-.76,3.03.23.46.69,1.58.04,1.12-.65h0Z"/>
    <path class="cls-2" d="m716.12,259.04c2.41,1.17.52,4.4-1.87,3.64-2.92-.93-2.29-4.62-.63-6.36,2.96-3.1,8.33-2.66,12.23-3.22,8.34-1.19,16.43-3.71,24.02-7.35.75-.36.1-1.48-.65-1.12-5.8,2.78-11.91,4.89-18.2,6.23-3.23.69-6.49,1.13-9.77,1.47-2.59.27-5.28.62-7.47,2.16-1.76,1.24-3,3.2-2.88,5.41.1,1.99,1.44,3.69,3.41,4.11,3.68.78,5.99-4.4,2.46-6.11-.75-.36-1.4.75-.65,1.12h0Z"/>
    <path class="cls-2" d="m742.82,277.9c-.31-4.17.33-8.25,1.88-12.13.31-.77-.94-1.11-1.25-.34-1.59,3.98-2.24,8.2-1.93,12.48.06.83,1.36.83,1.3,0h0Z"/>
    <path class="cls-2" d="m738.02,269.12c1.66-4.88,4.06-9.43,7.14-13.56.5-.67-.63-1.32-1.12-.65-3.15,4.22-5.58,8.88-7.27,13.87-.27.79.98,1.13,1.25.34h0Z"/>
    <path class="cls-2" d="m728.43,263.91c1.41-.84,2.74-1.8,3.99-2.87.64-.54-.28-1.45-.92-.92-1.17.99-2.41,1.88-3.73,2.66-.71.43-.06,1.55.65,1.12h0Z"/>
    <path class="cls-2" d="m717.96,295.9c1.88-2.7,3.89-5.3,6.04-7.79.54-.63-.37-1.55-.92-.92-2.22,2.58-4.3,5.26-6.24,8.06-.48.69.65,1.33,1.12.65h0Z"/>
    <path class="cls-2" d="m678.57,379.3c14.61,2.7,28.3,9.39,39.38,19.29.62.55,1.54-.36.92-.92-11.25-10.05-25.12-16.88-39.95-19.62-.82-.15-1.16,1.1-.34,1.25h0Z"/>
    <path class="cls-2" d="m657.79,370.51c21.7-.51,44.89,1.23,62.89,14.68,4.61,3.45,8.67,7.6,11.9,12.37.47.69,1.59.04,1.12-.65-12.24-18.06-34.08-25.48-54.95-27.23-6.97-.58-13.98-.62-20.97-.46-.83.02-.84,1.32,0,1.3h0Z"/>
    <path class="cls-2" d="m629.58,346.18c-2.13-6.94-4.26-13.88-6.38-20.81-.24-.79-1.49-.46-1.25.34,2.13,6.94,4.26,13.88,6.38,20.81.24.79,1.49.46,1.25-.34h0Z"/>
    <path class="cls-2" d="m377.24,137.54c4.28.19,8.89-.12,11.91-3.55.55-.62-.36-1.54-.92-.92-2.79,3.17-7.06,3.34-10.99,3.17-.83-.04-.83,1.26,0,1.3h0Z"/>
    <path class="cls-2" d="m379.15,144.54c4.18.4,8.23-.96,11.37-3.73.63-.55-.29-1.47-.92-.92-2.9,2.55-6.62,3.72-10.45,3.35-.83-.08-.82,1.22,0,1.3h0Z"/>
    <path class="cls-2" d="m381.8,150.99c4.37-.03,8.47-1.74,11.56-4.84.59-.59-.33-1.51-.92-.92-2.85,2.86-6.6,4.44-10.64,4.46-.83,0-.84,1.3,0,1.3h0Z"/>
    <path class="cls-2" d="m385.33,159.08c4.51-.49,8.62-2.27,12.04-5.26.63-.55-.29-1.46-.92-.92-3.14,2.74-6.98,4.43-11.13,4.88-.82.09-.83,1.38,0,1.3h0Z"/>
    <path class="cls-2" d="m894.61,579.49c-1.01,4.53-.32,9.15,1.97,13.18.41.72,1.53.07,1.12-.65-2.12-3.72-2.77-8-1.84-12.18.18-.81-1.07-1.16-1.25-.34h0Z"/>
    <path class="cls-2" d="m900.51,580.56c.15,4.39,1.37,8.6,3.6,12.39.42.72,1.54.07,1.12-.65-2.11-3.6-3.27-7.56-3.42-11.73-.03-.83-1.32-.84-1.3,0h0Z"/>
    <path class="cls-2" d="m911.62,592.24c-2.02-3.4-3.12-7.14-3.24-11.09-.02-.83-1.32-.84-1.3,0,.12,4.17,1.27,8.16,3.41,11.75.43.72,1.55.06,1.12-.65h0Z"/>
    <path class="cls-2" d="m914.94,581c.02,3.84.9,7.52,2.6,10.95.37.75,1.49.09,1.12-.65-1.6-3.23-2.41-6.69-2.43-10.3,0-.83-1.3-.84-1.3,0h0Z"/>
  </g>
  <g>
    <polygon class="cls-1" points="551.73 589.82 565.33 570.3 562.77 592.9 581.08 599.72 561.15 602.31 562.85 625.9 554.35 612.08 541 623.2 542.21 608.23 524.39 606.36 541.03 599.5 532.32 585.52 551.73 589.82"/>
    <path class="cls-1" d="m714.84,277.87c.6,2.47-.9,4.95-3.37,5.56-2.47.6-4.95-.9-5.56-3.37-.6-2.47.9-4.95,3.37-5.56,2.47-.6,4.95.9,5.56,3.37Z"/>
    <path class="cls-1" d="m719.8,251.56c.6,2.47-.9,4.95-3.37,5.56-2.47.6-4.95-.9-5.56-3.37-.6-2.47.9-4.95,3.37-5.56,2.47-.6,4.95.9,5.56,3.37Z"/>
    <path class="cls-1" d="m725.04,228.47c.6,2.47-.9,4.95-3.37,5.56-2.47.6-4.95-.9-5.56-3.37-.6-2.47.9-4.95,3.37-5.56,2.47-.6,4.95.9,5.56,3.37Z"/>
    <path class="cls-1" d="m573.08,643.26c-1.74,1.85-4.65,1.94-6.5.2-1.85-1.74-1.94-4.65-.2-6.5s4.65-1.94,6.5-.2c1.85,1.74,1.94,4.65.2,6.5Z"/>
    <path class="cls-1" d="m583.61,663.78c-1.74,1.85-4.65,1.94-6.5.2-1.85-1.74-1.94-4.65-.2-6.5,1.74-1.85,4.65-1.94,6.5-.2,1.85,1.74,1.94,4.65.2,6.5Z"/>
    <path class="cls-1" d="m593.38,682.83c-1.74,1.85-4.65,1.94-6.5.2-1.85-1.74-1.94-4.65-.2-6.5,1.74-1.85,4.65-1.94,6.5-.2,1.85,1.74,1.94,4.65.2,6.5Z"/>
    <path class="cls-1" d="m311.05,699.34c-2.45-.67-3.89-3.2-3.21-5.65.67-2.45,3.2-3.89,5.65-3.21s3.89,3.2,3.21,5.65c-.67,2.45-3.2,3.89-5.65,3.21Z"/>
    <path class="cls-1" d="m807.93,362.59c-.13-2.47,1.77-4.58,4.25-4.71,2.47-.13,4.58,1.77,4.71,4.25.13,2.47-1.77,4.58-4.25,4.71-2.47.13-4.58-1.77-4.71-4.25Z"/>
    <path class="cls-1" d="m786.77,356.25c-.13-2.47,1.77-4.58,4.25-4.71s4.58,1.77,4.71,4.25-1.77,4.58-4.25,4.71-4.58-1.77-4.71-4.25Z"/>
    <path class="cls-1" d="m765.25,349.81c-.13-2.47,1.77-4.58,4.25-4.71,2.47-.13,4.58,1.77,4.71,4.25.13,2.47-1.77,4.58-4.25,4.71-2.47.13-4.58-1.77-4.71-4.25Z"/>
    <path class="cls-1" d="m744.67,343.64c-.13-2.47,1.77-4.58,4.25-4.71,2.47-.13,4.58,1.77,4.71,4.25.13,2.47-1.77,4.58-4.25,4.71-2.47.13-4.58-1.77-4.71-4.25Z"/>
    <path class="cls-1" d="m724.22,337.52c-.13-2.47,1.77-4.58,4.25-4.71,2.47-.13,4.58,1.77,4.71,4.25.13,2.47-1.77,4.58-4.25,4.71-2.47.13-4.58-1.77-4.71-4.25Z"/>
    <path class="cls-1" d="m581.27,480.39c2.1-1.43,4.96-.88,6.38,1.22,1.43,2.1.88,4.96-1.22,6.38-2.1,1.43-4.96.88-6.38-1.22-1.43-2.1-.88-4.96,1.22-6.38Z"/>
    <path class="cls-1" d="m575.08,456.59c2.1-1.43,4.96-.88,6.38,1.22,1.43,2.1.88,4.96-1.22,6.39-2.1,1.43-4.96.88-6.38-1.22-1.43-2.1-.88-4.96,1.22-6.39Z"/>
    <path class="cls-1" d="m568.83,432.58c2.1-1.43,4.96-.88,6.38,1.22,1.43,2.1.88,4.96-1.22,6.38-2.1,1.43-4.96.88-6.38-1.22-1.43-2.1-.88-4.96,1.22-6.39Z"/>
    <path class="cls-1" d="m562.96,409.99c2.1-1.43,4.96-.88,6.38,1.22,1.43,2.1.88,4.96-1.22,6.38-2.1,1.43-4.96.88-6.38-1.22-1.43-2.1-.88-4.96,1.22-6.39Z"/>
    <path class="cls-1" d="m557.13,387.59c2.1-1.43,4.96-.88,6.38,1.22,1.43,2.1.88,4.96-1.22,6.38-2.1,1.43-4.96.88-6.38-1.22-1.43-2.1-.88-4.96,1.22-6.38Z"/>
    <path class="cls-1" d="m844.05,361.43l21.06,6.43-16.48,6.05-4.1,25.98-9.47-25.78-19.4-2.88,19.89-7.31s1.55-16.27,1.55-16.27c0,0,6.94,13.77,6.94,13.77Z"/>
    <path class="cls-1" d="m737.89,195.25l-5.96,21.79-6.7-16.72-26.76-3.43,26.14-10.47,2.37-19.97,8.08,20.18s16.72,1.11,16.73,1.1c0,0-13.91,7.52-13.91,7.52Z"/>
    <polygon class="cls-1" points="609.72 704.85 622.76 707.31 613.08 712.73 619.68 723.19 611.99 718.48 592.54 725.8 600.16 713.17 590.01 702.19 600.1 704.82 608.3 695.63 609.72 704.85"/>
    <path class="cls-1" d="m548.95,359.1c-2.45,2.12-20.58,14.24-20.58,14.24l10.12-18.06-16.99-8.89,16.13-.37-8.76-16.73,14.41,7.55,1.95-21.71,6.36,18.09,12.67-10.97-6.55,16.4,20.73,4.94-19.75,2.8,17.04,18.86-17.46-7.77-2.79,17.43-6.53-15.8Z"/>
    <polygon class="cls-1" points="368.41 225.44 353.17 237.08 356.71 220.69 342.44 217.6 357.72 210.95 359.08 191.88 369.48 205.2 389.81 200.75 375.8 214.32 382.94 232.46 368.41 225.44"/>
    <path class="cls-1" d="m499.32,314.92c-.81,2.34-3.36,3.58-5.7,2.78s-3.58-3.36-2.78-5.7c.81-2.34,3.36-3.58,5.7-2.78,2.34.81,3.58,3.36,2.78,5.7Z"/>
    <path class="cls-1" d="m516.89,328.95c-.81,2.34-3.36,3.58-5.7,2.78-2.34-.81-3.58-3.36-2.78-5.7.81-2.34,3.36-3.58,5.7-2.78,2.34.81,3.59,3.36,2.78,5.7Z"/>
    <path class="cls-1" d="m410.32,242.42c-.81,2.34-3.36,3.58-5.7,2.78-2.34-.81-3.58-3.36-2.78-5.7.81-2.34,3.36-3.58,5.7-2.78,2.34.81,3.58,3.36,2.78,5.7Z"/>
    <path class="cls-1" d="m427.58,256.22c-.81,2.34-3.36,3.58-5.7,2.78-2.34-.81-3.58-3.36-2.78-5.7.81-2.34,3.36-3.58,5.7-2.78,2.34.81,3.58,3.36,2.78,5.7Z"/>
    <path class="cls-1" d="m445.12,270.24c-.81,2.34-3.36,3.58-5.7,2.78-2.34-.81-3.58-3.36-2.78-5.7s3.36-3.58,5.7-2.78c2.34.81,3.58,3.36,2.78,5.7Z"/>
    <path class="cls-1" d="m461.9,283.66c-.81,2.34-3.36,3.58-5.7,2.78-2.34-.81-3.58-3.36-2.78-5.7s3.36-3.58,5.7-2.78c2.34.81,3.58,3.36,2.78,5.7Z"/>
    <path class="cls-1" d="m478.58,296.99c-.81,2.34-3.36,3.58-5.7,2.78-2.34-.81-3.58-3.36-2.78-5.7.81-2.34,3.36-3.58,5.7-2.78,2.34.81,3.58,3.36,2.78,5.7Z"/>
    <polygon class="cls-1" points="689.38 679.09 672.93 688.95 678.29 673.07 664.45 668.4 680.37 663.5 683.86 644.7 692.7 659.1 713.4 656.94 697.96 668.86 703.03 687.69 689.38 679.09"/>
    <path class="cls-1" d="m649.78,686.7c-1.81-1.69-1.91-4.52-.22-6.33,1.69-1.81,4.52-1.91,6.33-.22s1.91,4.52.22,6.33c-1.69,1.81-4.52,1.91-6.33.22Z"/>
    <path class="cls-1" d="m629.83,697.02c-1.81-1.69-1.91-4.52-.22-6.33,1.69-1.81,4.52-1.91,6.33-.22,1.81,1.69,1.91,4.52.22,6.33-1.69,1.81-4.52,1.91-6.33.22Z"/>
    <path class="cls-1" d="m885.29,356.5c1.53,1.95,1.19,4.76-.76,6.29-1.95,1.53-4.76,1.19-6.29-.76-1.53-1.95-1.19-4.76.76-6.29,1.95-1.53,4.76-1.19,6.29.76Z"/>
    <path class="cls-1" d="m908.23,348.82c1.53,1.95,1.19,4.76-.76,6.29-1.95,1.53-4.76,1.19-6.29-.76-1.53-1.95-1.19-4.76.76-6.29,1.95-1.53,4.76-1.19,6.29.76Z"/>
    <path class="cls-1" d="m929.74,344.32l-12.79-6.28,11.15-2.16,5.31-16.17,3.38,17.44,12.09,3.84-13.46,2.61s-2.67,10.23-2.67,10.24c0,0-3.01-9.51-3.01-9.51Z"/>
    <path class="cls-1" d="m475.62,624.02c-1.48-1.98-1.07-4.79.92-6.27,1.98-1.48,4.79-1.07,6.27.92,1.48,1.98,1.07,4.79-.92,6.27-1.98,1.48-4.79,1.07-6.27-.92Z"/>
    <path class="cls-1" d="m454.5,630.51c-1.48-1.98-1.07-4.79.92-6.27,1.98-1.48,4.79-1.07,6.27.92,1.48,1.98,1.07,4.79-.92,6.27-1.98,1.48-4.79,1.07-6.27-.92Z"/>
    <path class="cls-1" d="m433.03,637.1c-1.48-1.98-1.07-4.79.92-6.27,1.98-1.48,4.79-1.07,6.27.92,1.48,1.98,1.07,4.79-.92,6.27-1.98,1.48-4.79,1.07-6.27-.92Z"/>
    <path class="cls-1" d="m412.5,643.41c-1.48-1.98-1.07-4.79.92-6.27,1.98-1.48,4.79-1.07,6.27.92,1.48,1.98,1.07,4.79-.92,6.27-1.98,1.48-4.79,1.07-6.27-.92Z"/>
    <path class="cls-1" d="m392.09,649.68c-1.48-1.98-1.07-4.79.92-6.27,1.98-1.48,4.79-1.07,6.27.92,1.48,1.98,1.07,4.79-.92,6.27-1.98,1.48-4.79,1.07-6.27-.92Z"/>
    <path class="cls-1" d="m370.97,656.17c-1.48-1.98-1.07-4.79.92-6.27,1.98-1.48,4.79-1.07,6.27.92,1.48,1.98,1.07,4.79-.92,6.27-1.98,1.48-4.79,1.07-6.27-.92Z"/>
    <path class="cls-1" d="m495.55,617.67c-1.48-1.98-1.07-4.79.92-6.27s4.79-1.07,6.27.92c1.48,1.98,1.07,4.79-.92,6.27-1.98,1.48-4.79,1.07-6.27-.92Z"/>
    <polygon class="cls-1" points="288.08 584.1 300.95 599.46 280.65 593.38 272.01 603.02 276.5 588.04 258.73 575.3 274.58 580.05 281.68 561.13 284.39 572.2 298.56 573.49 288.08 584.1"/>
    <polygon class="cls-1" points="596.49 522.31 616.06 526.61 596.27 534.19 595.31 547.1 589.72 532.5 567.88 533.26 583.32 527.35 577.39 508.03 586.3 515.14 598.31 507.51 596.49 522.31"/>
    <path class="cls-1" d="m575.77,561.03c-2.46-.25-4.26-2.44-4.01-4.91.25-2.46,2.44-4.26,4.91-4.01,2.46.25,4.26,2.44,4.01,4.91-.25,2.46-2.44,4.26-4.91,4.01Z"/>
    <polygon class="cls-1" points="700.31 316.9 708.86 335.02 690.77 323.99 679.97 331.12 688.11 317.77 674.16 300.94 688.28 309.55 699.95 293.06 699.76 304.45 713.14 309.3 700.31 316.9"/>
    <path class="cls-1" d="m653.61,330.42c-1.31-2.1-.67-4.86,1.43-6.17,2.1-1.31,4.86-.67,6.17,1.43,1.31,2.1.67,4.86-1.43,6.17-2.1,1.31-4.86.67-6.17-1.43Z"/>
    <path class="cls-1" d="m632.63,335.01c-1.31-2.1-.67-4.86,1.43-6.17,2.1-1.31,4.86-.67,6.17,1.43,1.31,2.1.67,4.86-1.43,6.17-2.1,1.31-4.86.67-6.17-1.43Z"/>
    <path class="cls-1" d="m611.77,339.57c-1.31-2.1-.67-4.86,1.43-6.17,2.1-1.31,4.86-.67,6.17,1.43s.67,4.86-1.43,6.17c-2.1,1.31-4.86.67-6.17-1.43Z"/>
    <path class="cls-1" d="m590.18,344.28c-1.31-2.1-.67-4.86,1.43-6.17,2.1-1.31,4.86-.67,6.17,1.43,1.31,2.1.67,4.86-1.43,6.17-2.1,1.31-4.86.67-6.17-1.43Z"/>
    <polygon class="cls-1" points="320.67 657.09 307.17 637.5 327.43 647.84 340.25 633.09 335.67 652.66 358.35 659.36 342.43 662.45 348.15 678.86 334.56 672.47 326.55 688.5 325.98 670.51 309.83 673.76 320.67 657.09"/>
    <path class="cls-1" d="m303.16,619.35c-1.07,2.3-3.8,3.31-6.1,2.24-2.3-1.07-3.31-3.8-2.24-6.1,1.07-2.3,3.8-3.31,6.1-2.24,2.3,1.07,3.31,3.8,2.24,6.1Z"/>
    <polygon class="cls-1" points="300.13 718.12 305.32 736.53 288.07 726.13 280.26 739.1 279.63 722.24 267.05 714.66 284.91 713.49 292.56 700.8 296.47 708.53 309.7 711.14 300.13 718.12"/>
  </g>
</svg>