<?xml version="1.0" encoding="UTF-8"?>
<svg id="Layer_1" data-name="Layer 1" xmlns="http://www.w3.org/2000/svg" xmlns:xlink="http://www.w3.org/1999/xlink" viewBox="0 0 512 512">
  <defs>
    <style>
      .cls-1 {
        fill: url(#linear-gradient-2);
      }

      .cls-2 {
        fill: #fff;
      }

      .cls-3 {
        fill: #fffdeb;
      }

      .cls-4, .cls-5, .cls-6, .cls-7 {
        fill: none;
      }

      .cls-5 {
        clip-path: url(#clippath);
      }

      .cls-6 {
        clip-path: url(#clippath-1);
      }

      .cls-8 {
        fill: url(#linear-gradient);
      }

      .cls-7 {
        opacity: .1;
      }
    </style>
    <clipPath id="clippath">
      <path class="cls-4" d="m256.05,7.92C119.05,7.92,7.97,119,7.97,256s111.08,248.08,248.08,248.08,248.08-111.08,248.08-248.08S393.05,7.92,256.05,7.92Z"/>
    </clipPath>
    <linearGradient id="linear-gradient" x1="264.87" y1="-106.53" x2="259.67" y2="973.85" gradientUnits="userSpaceOnUse">
      <stop offset="0" stop-color="#000134"/>
      <stop offset=".49" stop-color="#2f245f"/>
      <stop offset="1" stop-color="#00559c"/>
    </linearGradient>
    <clipPath id="clippath-1">
      <path class="cls-4" d="m-365.84,7.92c-137,0-248.08,111.08-248.08,248.08s111.08,248.08,248.08,248.08,248.08-111.08,248.08-248.08S-228.84,7.92-365.84,7.92Z"/>
    </clipPath>
    <linearGradient id="linear-gradient-2" x1="-357.02" x2="-362.22" xlink:href="#linear-gradient"/>
  </defs>
  <g class="cls-5">
    <g>
      <rect class="cls-8" x="-108.99" y="7.92" width="744.24" height="496.16"/>
      <g>
        <path class="cls-2" d="m115.76,187.28c1.3,0,1.3-2.02,0-2.02s-1.3,2.02,0,2.02h0Z"/>
        <path class="cls-2" d="m103.79,106.68c1.3,0,1.3-2.02,0-2.02s-1.3,2.02,0,2.02h0Z"/>
        <path class="cls-2" d="m73.46,250.08c.97,0,.97-1.51,0-1.51s-.97,1.51,0,1.51h0Z"/>
        <path class="cls-2" d="m241.05,392.92c.97,0,.97-1.51,0-1.51s-.97,1.51,0,1.51h0Z"/>
        <path class="cls-2" d="m461.95,229.43c1.3,0,1.3-2.02,0-2.02s-1.3,2.02,0,2.02h0Z"/>
        <path class="cls-2" d="m363.15,254.07c.97,0,.97-1.51,0-1.51s-.97,1.51,0,1.51h0Z"/>
        <path class="cls-2" d="m347.99,132.22c1.3,0,1.3-2.02,0-2.02s-1.3,2.02,0,2.02h0Z"/>
        <path class="cls-2" d="m492.43,167.33c1.3,0,1.3-2.02,0-2.02s-1.3,2.02,0,2.02h0Z"/>
        <path class="cls-2" d="m498.01,289.73c.65,0,.65-1.01,0-1.01s-.65,1.01,0,1.01h0Z"/>
        <path class="cls-2" d="m399.19,331.9c.65,0,.65-1.01,0-1.01s-.65,1.01,0,1.01h0Z"/>
        <path class="cls-2" d="m239,283.94c.65,0,.65-1.01,0-1.01s-.65,1.01,0,1.01h0Z"/>
        <path class="cls-2" d="m204.93,323c.65,0,.65-1.01,0-1.01s-.65,1.01,0,1.01h0Z"/>
        <path class="cls-2" d="m376.48,407.53c.65,0,.65-1.01,0-1.01s-.65,1.01,0,1.01h0Z"/>
        <path class="cls-2" d="m284.57,455.96c.97,0,.97-1.51,0-1.51s-.97,1.51,0,1.51h0Z"/>
        <path class="cls-2" d="m39.95,448.53c.65,0,.65-1.01,0-1.01s-.65,1.01,0,1.01h0Z"/>
        <path class="cls-2" d="m370.06,385.76c1.3,0,1.3-2.02,0-2.02s-1.3,2.02,0,2.02h0Z"/>
        <path class="cls-2" d="m483.18,435.67c1.3,0,1.3-2.02,0-2.02s-1.3,2.02,0,2.02h0Z"/>
        <path class="cls-2" d="m264.83,331.4c1.3,0,1.3-2.02,0-2.02s-1.3,2.02,0,2.02h0Z"/>
        <path class="cls-2" d="m111.7,299.42c.97,0,.97-1.51,0-1.51s-.97,1.51,0,1.51h0Z"/>
      </g>
      <g>
        <path class="cls-2" d="m238.76,142.04c1.3,0,1.3-2.02,0-2.02s-1.3,2.02,0,2.02h0Z"/>
        <path class="cls-2" d="m226.79,61.44c1.3,0,1.3-2.02,0-2.02s-1.3,2.02,0,2.02h0Z"/>
        <path class="cls-2" d="m120.65,76.35c.97,0,.97-1.51,0-1.51s-.97,1.51,0,1.51h0Z"/>
        <path class="cls-2" d="m196.46,204.83c.97,0,.97-1.51,0-1.51s-.97,1.51,0,1.51h0Z"/>
        <path class="cls-2" d="m364.05,347.68c.97,0,.97-1.51,0-1.51s-.97,1.51,0,1.51h0Z"/>
        <path class="cls-2" d="m486.15,208.82c.97,0,.97-1.51,0-1.51s-.97,1.51,0,1.51h0Z"/>
        <path class="cls-2" d="m470.99,86.98c1.3,0,1.3-2.02,0-2.02s-1.3,2.02,0,2.02h0Z"/>
        <path class="cls-2" d="m362,238.7c.65,0,.65-1.01,0-1.01s-.65,1.01,0,1.01h0Z"/>
        <path class="cls-2" d="m327.93,277.75c.65,0,.65-1.01,0-1.01s-.65,1.01,0,1.01h0Z"/>
        <path class="cls-2" d="m499.48,362.29c.65,0,.65-1.01,0-1.01s-.65,1.01,0,1.01h0Z"/>
        <path class="cls-2" d="m407.57,410.72c.97,0,.97-1.51,0-1.51s-.97,1.51,0,1.51h0Z"/>
        <path class="cls-2" d="m162.95,403.29c.65,0,.65-1.01,0-1.01s-.65,1.01,0,1.01h0Z"/>
        <path class="cls-2" d="m95.11,367.88c1.3,0,1.3-2.02,0-2.02s-1.3,2.02,0,2.02h0Z"/>
        <path class="cls-2" d="m493.06,340.52c1.3,0,1.3-2.02,0-2.02s-1.3,2.02,0,2.02h0Z"/>
        <path class="cls-2" d="m91.12,221.84c1.3,0,1.3-2.02,0-2.02s-1.3,2.02,0,2.02h0Z"/>
        <path class="cls-2" d="m387.83,286.15c1.3,0,1.3-2.02,0-2.02s-1.3,2.02,0,2.02h0Z"/>
        <path class="cls-2" d="m234.7,254.18c.97,0,.97-1.51,0-1.51s-.97,1.51,0,1.51h0Z"/>
      </g>
    </g>
  </g>
  <g class="cls-7">
    <path class="cls-3" d="m373.79,146.28C193.5,57.85,94.68,195.19,93.7,196.62c-7.5,10.95-4.7,25.91,6.25,33.41,10.76,7.37,25.44,4.81,33.07-5.77,2.65-3.63,55.39-75.29,157-56.25-26.94,31.66-23.11,79.17,8.55,106.11,31.66,26.94,79.17,23.11,106.11-8.55,26.94-31.66,23.11-79.17-8.55-106.11-6.63-5.64-14.19-10.09-22.34-13.15v-.03Zm-26.5,97.74c-15.04.01-27.25-12.17-27.26-27.22-.01-15.04,12.17-27.25,27.22-27.26,2.87,0,5.72.45,8.45,1.34.62.26,1.26.49,1.88.69,13.92,5.69,20.59,21.6,14.9,35.52-4.19,10.24-14.15,16.93-25.21,16.93h.01Z"/>
    <path class="cls-3" d="m412.43,302.05c-10.83-7.62-25.77-5.07-33.46,5.71-2.65,3.63-55.39,75.29-157,56.26,26.94-31.66,23.12-79.17-8.54-106.11-31.66-26.94-79.17-23.12-106.11,8.54-26.94,31.66-23.12,79.17,8.54,106.11,6.63,5.65,14.2,10.1,22.36,13.16,43.85,21.5,82.86,29.66,116.84,29.66,105.7,0,162.5-78.93,163.24-79.99,7.57-10.83,4.95-25.75-5.87-33.34Zm-247.73,40.41c-2.86,0-5.7-.44-8.41-1.32-.62-.25-1.25-.49-1.87-.69-13.91-5.69-20.57-21.58-14.88-35.49,5.69-13.91,21.58-20.57,35.49-14.88s20.57,21.58,14.88,35.49c-4.19,10.23-14.14,16.91-25.2,16.91h-.01Z"/>
  </g>
  <g>
    <polygon class="cls-2" points="430.77 145.19 437.85 154.35 426.61 149.77 421.13 161.55 420.98 149.69 412.5 147.89 420.9 143.76 418.92 134.1 426.48 143.08 433.22 139.92 430.77 145.19"/>
    <path class="cls-2" d="m370.84,184.75c-1.26-.78-1.61-2.33-.79-3.48.82-1.14,2.51-1.43,3.77-.66,1.26.78,1.61,2.33.79,3.48-.82,1.14-2.51,1.43-3.77.66Z"/>
    <path class="cls-2" d="m360.14,192c-1.26-.78-1.61-2.33-.79-3.48.82-1.14,2.51-1.43,3.77-.66,1.26.78,1.61,2.33.79,3.48-.82,1.14-2.51,1.43-3.77.66Z"/>
    <path class="cls-2" d="m349.28,199.38c-1.26-.78-1.61-2.33-.79-3.48.82-1.14,2.51-1.43,3.77-.66s1.61,2.33.79,3.48-2.51,1.43-3.77.66Z"/>
    <path class="cls-2" d="m338.88,206.44c-1.26-.78-1.61-2.33-.79-3.48.82-1.14,2.51-1.43,3.77-.66s1.61,2.33.79,3.48c-.82,1.14-2.51,1.43-3.77.66Z"/>
    <path class="cls-2" d="m328.55,213.45c-1.26-.78-1.61-2.33-.79-3.48.82-1.14,2.51-1.43,3.77-.66,1.26.78,1.61,2.33.79,3.48-.82,1.14-2.51,1.43-3.77.66Z"/>
    <path class="cls-2" d="m317.85,220.71c-1.26-.78-1.61-2.33-.79-3.48.82-1.14,2.51-1.43,3.77-.66,1.26.78,1.61,2.33.79,3.48-.82,1.14-2.51,1.43-3.77.66Z"/>
    <path class="cls-2" d="m306.25,228.58c-1.26-.78-1.61-2.33-.79-3.48.82-1.14,2.51-1.43,3.77-.66s1.61,2.33.79,3.48c-.82,1.14-2.51,1.43-3.77.66Z"/>
    <path class="cls-2" d="m294.54,236.53c-1.26-.78-1.61-2.33-.79-3.48.82-1.14,2.51-1.43,3.77-.66,1.26.78,1.61,2.33.79,3.48-.82,1.14-2.51,1.43-3.77.66Z"/>
    <path class="cls-2" d="m177.88,264.22c-.23-1.4.83-2.69,2.35-2.87,1.53-.18,2.95.81,3.17,2.22.23,1.4-.83,2.69-2.35,2.87-1.53.18-2.95-.81-3.17-2.22Z"/>
    <path class="cls-2" d="m164.37,261.52c-.23-1.4.83-2.69,2.35-2.87,1.53-.18,2.95.81,3.17,2.22s-.83,2.69-2.35,2.87c-1.53.18-2.95-.81-3.17-2.22Z"/>
    <path class="cls-2" d="m150.64,258.78c-.23-1.4.83-2.69,2.35-2.87,1.53-.18,2.95.81,3.17,2.22.23,1.4-.83,2.69-2.35,2.87-1.53.18-2.95-.81-3.17-2.22Z"/>
    <path class="cls-2" d="m137.51,256.16c-.23-1.4.83-2.69,2.35-2.87s2.95.81,3.17,2.22c.23,1.4-.83,2.69-2.35,2.87-1.53.18-2.95-.81-3.17-2.22Z"/>
    <path class="cls-2" d="m124.46,253.55c-.23-1.4.83-2.69,2.35-2.87,1.53-.18,2.95.81,3.17,2.22.23,1.4-.83,2.69-2.35,2.87-1.53.18-2.95-.81-3.17-2.22Z"/>
    <path class="cls-2" d="m110.95,250.85c-.23-1.4.83-2.69,2.35-2.87,1.53-.18,2.95.81,3.17,2.22.23,1.4-.83,2.69-2.35,2.87-1.53.18-2.95-.81-3.17-2.22Z"/>
    <path class="cls-2" d="m96.3,247.93c-.23-1.4.83-2.69,2.35-2.87,1.53-.18,2.95.81,3.17,2.22s-.83,2.69-2.35,2.87c-1.53.18-2.95-.81-3.17-2.22Z"/>
    <path class="cls-2" d="m401.86,163.54c-1.26-.78-1.61-2.33-.79-3.48.82-1.14,2.51-1.43,3.77-.66,1.26.78,1.61,2.33.79,3.48-.82,1.14-2.51,1.43-3.77.66Z"/>
    <path class="cls-2" d="m390.98,170.92c-1.26-.78-1.61-2.33-.79-3.48.82-1.14,2.51-1.43,3.77-.66s1.61,2.33.79,3.48c-.82,1.14-2.51,1.43-3.77.66Z"/>
    <path class="cls-2" d="m380.88,177.78c-1.26-.78-1.61-2.33-.79-3.48.82-1.14,2.51-1.43,3.77-.66s1.61,2.33.79,3.48c-.82,1.14-2.51,1.43-3.77.66Z"/>
    <path class="cls-2" d="m262.28,256.43c-.82-1.22-.42-2.79.89-3.52,1.31-.73,3.03-.33,3.85.89.82,1.22.42,2.79-.89,3.52-1.31.73-3.03.33-3.85-.89Z"/>
    <path class="cls-2" d="m248.54,258.93c-.82-1.22-.42-2.79.89-3.52,1.31-.72,3.03-.33,3.85.89.82,1.22.42,2.79-.89,3.52-1.31.73-3.03.33-3.85-.89Z"/>
    <path class="cls-2" d="m234.85,261.43c-.82-1.22-.42-2.79.89-3.52,1.31-.72,3.03-.33,3.85.89.82,1.22.42,2.79-.89,3.52-1.31.73-3.03.33-3.85-.89Z"/>
    <path class="cls-2" d="m222.14,263.74c-.82-1.22-.42-2.79.89-3.52,1.31-.73,3.03-.33,3.85.89.82,1.22.42,2.79-.89,3.52s-3.03.33-3.85-.89Z"/>
    <path class="cls-2" d="m286.26,242.6l6.91,10.65-9.91-3.81-12.4,9.03,6.19-14.11-7.6-8.56,11.96,4.6s7.31-6.04,7.31-6.04c0,0-2.45,8.26-2.45,8.26Z"/>
    <path class="cls-2" d="m175.9,331.02c-1.49-.23-2.51-1.53-2.28-2.89s1.61-2.27,3.1-2.04c1.49.23,2.51,1.53,2.28,2.89-.23,1.36-1.61,2.27-3.1,2.04Z"/>
    <path class="cls-2" d="m169.55,341.77c-1.49-.23-2.51-1.53-2.28-2.89s1.61-2.27,3.1-2.04c1.49.23,2.51,1.53,2.28,2.89-.23,1.36-1.61,2.27-3.1,2.04Z"/>
    <path class="cls-2" d="m163.1,352.69c-1.49-.23-2.51-1.53-2.28-2.89.23-1.36,1.61-2.28,3.1-2.04,1.49.23,2.51,1.53,2.28,2.89s-1.61,2.28-3.1,2.04Z"/>
    <path class="cls-2" d="m156.92,363.14c-1.49-.23-2.51-1.53-2.28-2.89.23-1.36,1.61-2.27,3.1-2.04,1.49.23,2.51,1.53,2.28,2.89s-1.61,2.27-3.1,2.04Z"/>
    <path class="cls-2" d="m150.79,373.52c-1.49-.23-2.51-1.53-2.28-2.89.23-1.36,1.61-2.28,3.1-2.04s2.51,1.53,2.28,2.89c-.23,1.36-1.61,2.28-3.1,2.04Z"/>
    <path class="cls-2" d="m144.44,384.26c-1.49-.23-2.51-1.53-2.28-2.89s1.61-2.28,3.1-2.04,2.51,1.53,2.28,2.89c-.23,1.36-1.61,2.28-3.1,2.04Z"/>
    <path class="cls-2" d="m137.55,395.92c-1.49-.23-2.51-1.53-2.28-2.89.23-1.36,1.61-2.27,3.1-2.04,1.49.23,2.51,1.53,2.28,2.89s-1.61,2.27-3.1,2.04Z"/>
    <path class="cls-2" d="m130.6,407.68c-1.49-.23-2.51-1.53-2.28-2.89.23-1.36,1.61-2.27,3.1-2.04,1.49.23,2.51,1.53,2.28,2.89-.23,1.36-1.61,2.27-3.1,2.04Z"/>
    <path class="cls-2" d="m194.26,299.71c-1.49-.23-2.51-1.53-2.28-2.89s1.61-2.28,3.1-2.04,2.51,1.53,2.28,2.89c-.23,1.36-1.61,2.28-3.1,2.04Z"/>
    <path class="cls-2" d="m187.8,310.64c-1.49-.23-2.51-1.53-2.28-2.89.23-1.36,1.61-2.28,3.1-2.04s2.51,1.53,2.28,2.89c-.23,1.36-1.61,2.28-3.1,2.04Z"/>
    <path class="cls-2" d="m181.8,320.79c-1.49-.23-2.51-1.53-2.28-2.89.23-1.36,1.61-2.28,3.1-2.04,1.49.23,2.51,1.53,2.28,2.89s-1.61,2.28-3.1,2.04Z"/>
    <path class="cls-2" d="m125.89,416.41l11.05,7.13-10.65.29-7.09,13.02-.82-15.31-10.73-4.95,12.86-.35s3.85-8.33,3.85-8.34c0,0,1.53,8.51,1.53,8.51Z"/>
    <polygon class="cls-2" points="80.77 246.37 80.97 257.55 73.71 247.66 65.94 248.67 73.79 243.89 70.26 232.07 75.93 239.79 86.52 234.27 83.57 239.97 89.77 245.61 80.77 246.37"/>
    <path class="cls-2" d="m203.68,266.93c1.68-.91,13.75-5.71,13.75-5.71l-7.86,8.87,9.3,6.61-9.7-1.44,3.59,10.07-7.88-5.62-3.33,11.71-2.02-10.57-8.69,4.72,5.56-8.32-11.93-4.83,12.12.48-8.34-12.09,9.69,6.05,3.41-9.28,2.34,9.34Z"/>
  </g>
  <g class="cls-6">
    <rect class="cls-1" x="-730.89" y="7.92" width="744.24" height="496.16"/>
  </g>
</svg>