<?xml version="1.0" encoding="UTF-8"?>
<svg id="Layer_1" data-name="Layer 1" xmlns="http://www.w3.org/2000/svg" xmlns:xlink="http://www.w3.org/1999/xlink" viewBox="0 0 512 512">
  <defs>
    <style>
      .cls-1 {
        fill: url(#linear-gradient-2);
      }

      .cls-2 {
        fill: #fff;
      }

      .cls-3 {
        fill: #fffdeb;
        opacity: .1;
      }

      .cls-4, .cls-5, .cls-6 {
        fill: none;
      }

      .cls-5 {
        clip-path: url(#clippath);
      }

      .cls-6 {
        clip-path: url(#clippath-1);
      }

      .cls-7 {
        fill: url(#linear-gradient);
      }
    </style>
    <clipPath id="clippath">
      <path class="cls-4" d="m839.96,7.92c-137,0-248.08,111.08-248.08,248.08s111.08,248.08,248.08,248.08,248.08-111.08,248.08-248.08S976.96,7.92,839.96,7.92Z"/>
    </clipPath>
    <linearGradient id="linear-gradient" x1="848.78" y1="-106.53" x2="843.58" y2="973.85" gradientUnits="userSpaceOnUse">
      <stop offset="0" stop-color="#000134"/>
      <stop offset=".49" stop-color="#2f245f"/>
      <stop offset="1" stop-color="#00559c"/>
    </linearGradient>
    <clipPath id="clippath-1">
      <path class="cls-4" d="m256.05,7.92C119.05,7.92,7.97,119,7.97,256s111.08,248.08,248.08,248.08,248.08-111.08,248.08-248.08S393.05,7.92,256.05,7.92Z"/>
    </clipPath>
    <linearGradient id="linear-gradient-2" x1="264.87" y1="-106.53" x2="259.67" y2="973.85" xlink:href="#linear-gradient"/>
  </defs>
  <g class="cls-5">
    <rect class="cls-7" x="474.92" y="7.92" width="744.24" height="496.16"/>
  </g>
  <g class="cls-6">
    <g>
      <rect class="cls-1" x="-108.99" y="7.92" width="744.24" height="496.16"/>
      <g>
        <path class="cls-2" d="m115.76,187.28c1.3,0,1.3-2.02,0-2.02s-1.3,2.02,0,2.02h0Z"/>
        <path class="cls-2" d="m103.79,106.68c1.3,0,1.3-2.02,0-2.02s-1.3,2.02,0,2.02h0Z"/>
        <path class="cls-2" d="m73.46,250.08c.97,0,.97-1.51,0-1.51s-.97,1.51,0,1.51h0Z"/>
        <path class="cls-2" d="m241.05,392.92c.97,0,.97-1.51,0-1.51s-.97,1.51,0,1.51h0Z"/>
        <path class="cls-2" d="m461.95,229.43c1.3,0,1.3-2.02,0-2.02s-1.3,2.02,0,2.02h0Z"/>
        <path class="cls-2" d="m363.15,254.07c.97,0,.97-1.51,0-1.51s-.97,1.51,0,1.51h0Z"/>
        <path class="cls-2" d="m347.99,132.22c1.3,0,1.3-2.02,0-2.02s-1.3,2.02,0,2.02h0Z"/>
        <path class="cls-2" d="m492.43,167.33c1.3,0,1.3-2.02,0-2.02s-1.3,2.02,0,2.02h0Z"/>
        <path class="cls-2" d="m498.01,289.73c.65,0,.65-1.01,0-1.01s-.65,1.01,0,1.01h0Z"/>
        <path class="cls-2" d="m399.19,331.9c.65,0,.65-1.01,0-1.01s-.65,1.01,0,1.01h0Z"/>
        <path class="cls-2" d="m239,283.94c.65,0,.65-1.01,0-1.01s-.65,1.01,0,1.01h0Z"/>
        <path class="cls-2" d="m204.93,323c.65,0,.65-1.01,0-1.01s-.65,1.01,0,1.01h0Z"/>
        <path class="cls-2" d="m376.48,407.53c.65,0,.65-1.01,0-1.01s-.65,1.01,0,1.01h0Z"/>
        <path class="cls-2" d="m284.57,455.96c.97,0,.97-1.51,0-1.51s-.97,1.51,0,1.51h0Z"/>
        <path class="cls-2" d="m39.95,448.53c.65,0,.65-1.01,0-1.01s-.65,1.01,0,1.01h0Z"/>
        <path class="cls-2" d="m370.06,385.76c1.3,0,1.3-2.02,0-2.02s-1.3,2.02,0,2.02h0Z"/>
        <path class="cls-2" d="m483.18,435.67c1.3,0,1.3-2.02,0-2.02s-1.3,2.02,0,2.02h0Z"/>
        <path class="cls-2" d="m264.83,331.4c1.3,0,1.3-2.02,0-2.02s-1.3,2.02,0,2.02h0Z"/>
        <path class="cls-2" d="m111.7,299.42c.97,0,.97-1.51,0-1.51s-.97,1.51,0,1.51h0Z"/>
      </g>
      <g>
        <path class="cls-2" d="m238.76,142.04c1.3,0,1.3-2.02,0-2.02s-1.3,2.02,0,2.02h0Z"/>
        <path class="cls-2" d="m226.79,61.44c1.3,0,1.3-2.02,0-2.02s-1.3,2.02,0,2.02h0Z"/>
        <path class="cls-2" d="m120.65,76.35c.97,0,.97-1.51,0-1.51s-.97,1.51,0,1.51h0Z"/>
        <path class="cls-2" d="m196.46,204.83c.97,0,.97-1.51,0-1.51s-.97,1.51,0,1.51h0Z"/>
        <path class="cls-2" d="m364.05,347.68c.97,0,.97-1.51,0-1.51s-.97,1.51,0,1.51h0Z"/>
        <path class="cls-2" d="m486.15,208.82c.97,0,.97-1.51,0-1.51s-.97,1.51,0,1.51h0Z"/>
        <path class="cls-2" d="m470.99,86.98c1.3,0,1.3-2.02,0-2.02s-1.3,2.02,0,2.02h0Z"/>
        <path class="cls-2" d="m362,238.7c.65,0,.65-1.01,0-1.01s-.65,1.01,0,1.01h0Z"/>
        <path class="cls-2" d="m327.93,277.75c.65,0,.65-1.01,0-1.01s-.65,1.01,0,1.01h0Z"/>
        <path class="cls-2" d="m499.48,362.29c.65,0,.65-1.01,0-1.01s-.65,1.01,0,1.01h0Z"/>
        <path class="cls-2" d="m407.57,410.72c.97,0,.97-1.51,0-1.51s-.97,1.51,0,1.51h0Z"/>
        <path class="cls-2" d="m162.95,403.29c.65,0,.65-1.01,0-1.01s-.65,1.01,0,1.01h0Z"/>
        <path class="cls-2" d="m95.11,367.88c1.3,0,1.3-2.02,0-2.02s-1.3,2.02,0,2.02h0Z"/>
        <path class="cls-2" d="m493.06,340.52c1.3,0,1.3-2.02,0-2.02s-1.3,2.02,0,2.02h0Z"/>
        <path class="cls-2" d="m91.12,221.84c1.3,0,1.3-2.02,0-2.02s-1.3,2.02,0,2.02h0Z"/>
        <path class="cls-2" d="m387.83,286.15c1.3,0,1.3-2.02,0-2.02s-1.3,2.02,0,2.02h0Z"/>
        <path class="cls-2" d="m234.7,254.18c.97,0,.97-1.51,0-1.51s-.97,1.51,0,1.51h0Z"/>
      </g>
    </g>
  </g>
  <path class="cls-3" d="m424.41,246.16c-11.68-13.74-28.71-21.58-49.78-22.71-17.06-.45-46.54,7-63.62,33.49-1.75-8.88-3.24-17.57-4.57-25.34-3.72-21.73-6.66-38.89-12.28-49.76-26.37-51-65.85-46-81.61-41.56-12.73,3.83-24.41,10.51-34.18,19.52-11.8-11.1-25.11-18.1-39.79-20.64-32.64-5.74-58.42,12.59-61.25,14.7-8.12,5.87-9.95,17.2-4.08,25.33,5.87,8.12,17.2,9.95,25.33,4.08.14-.1.28-.21.42-.31.15-.11,15.92-11.13,33.32-8.07,10.75,1.89,20.7,8.94,29.63,21v118.87c0,10.02,8.12,18.14,18.14,18.14s18.14-8.12,18.14-18.14v-122.93c3.17-5.16,17-17.39,32.08-17.93,12.43-.33,22.98,7.87,31.63,24.62,3,5.86,6.07,23.58,8.74,39.21,4.92,28.72,10.58,61.74,23.28,86.8-2.55,9.39-6.22,18.13-11.19,23.35-19.43,13.22-52.31,31.26-67.41,31.59-10.02.11-18.05,8.32-17.95,18.33.11,10.02,8.32,18.05,18.34,17.95h.4c31.65-.69,79.3-32.52,88.53-38.89.75-.52,1.47-1.1,2.13-1.73,5.76-5.61,10.5-12.18,14-19.42,2.25,1.36,4.58,2.55,7,3.57.35.14.7.28,1.05.41,5.29,1.87,52.67,17.67,85.46-3.13,11-7,24.73-21,27.51-48.31.4-3.79,3.37-37.65-17.41-62.09Zm-18.68,58.3c-1.42,13.94-6.85,18.9-10.8,21.43-14.91,9.5-43.71,3-53.44-.22-3.54-1.78-6.62-4.36-9-7.54,1.27-7.4,2.07-14.86,2.4-22.36,5.1-34.42,33.41-36.06,38.37-36.06,10.57.57,18.25,3.79,23.46,9.85,9.12,10.65,9.6,28.79,9.01,34.89h0Z"/>
  <g>
    <polygon class="cls-2" points="426.39 142.35 414.85 139.65 423.38 148.01 413.75 157.84 425.48 153.11 430.29 160.1 431.34 150.75 441.56 148.59 430.01 145.38 430.7 137.95 426.39 142.35"/>
    <polygon class="cls-2" points="340.41 170.12 329.03 158.97 333.53 173.52 322.34 180.29 335.77 179.51 337.6 195.23 341.46 185.08 351.63 190.74 348.97 181.04 360.46 177.59 348.66 175.15 352.64 164.87 340.41 170.12"/>
    <path class="cls-2" d="m190.14,119.7c-1.55-1.52-13.16-10.36-13.16-10.36l6.02,12.48-11.72,5.24,10.76.91-6.54,10.82,9.94-4.45.41,14.59,5-11.83,8.02,7.85-3.7-11.23,14.05-2.45-13.08-2.68,12.16-11.9-11.99,4.48-1.15-11.76-5.01,10.29Z"/>
    <polygon class="cls-2" points="102.95 326.91 90.15 326.02 98.16 333.87 91.32 340.85 102.31 338.95 110.1 349.11 111 337.83 124.01 332.83 111.18 330.41 108.49 317.64 102.95 326.91"/>
    <polygon class="cls-2" points="108.26 385.05 100.58 385.13 107.05 391.46 106.34 397.36 109.89 393.74 115.83 399.56 113.43 390.12 122.84 384.13 111.07 384.76 108.94 376.59 108.26 385.05"/>
    <path class="cls-2" d="m122.88,416.48c-1.43.44-7.5,2.21-7.5,2.21l7.59-.4.56,10.48,3.21-7.78,8.56,4.26-4.84-9.17,5.32-8.98-10.23,5.26-5.31-4.43,2.63,8.56Z"/>
    <path class="cls-2" d="m405.46,160.5c1.21,1.19,3.16,1.17,4.35-.04,1.19-1.21,1.17-3.16-.04-4.35s-3.16-1.17-4.35.04-1.17,3.16.04,4.35Z"/>
    <path class="cls-2" d="m390.6,164.41c1.21,1.19,3.16,1.17,4.35-.04s1.17-3.16-.04-4.35-3.16-1.17-4.35.04c-1.19,1.21-1.17,3.16.04,4.35Z"/>
    <path class="cls-2" d="m376.61,169.63c1.21,1.19,3.16,1.17,4.35-.04s1.17-3.16-.04-4.35-3.16-1.17-4.35.04-1.17,3.16.04,4.35Z"/>
    <path class="cls-2" d="m362.07,174.11c1.21,1.19,3.16,1.17,4.35-.04,1.19-1.21,1.17-3.16-.04-4.35-1.21-1.19-3.16-1.17-4.35.04-1.19,1.21-1.17,3.16.04,4.35Z"/>
    <path class="cls-2" d="m314.87,174.48c1.21,1.19,3.16,1.17,4.35-.04,1.19-1.21,1.17-3.16-.04-4.35-1.21-1.19-3.16-1.17-4.35.04-1.19,1.21-1.17,3.16.04,4.35Z"/>
    <path class="cls-2" d="m298.02,168.36c1.21,1.19,3.16,1.17,4.35-.04,1.19-1.21,1.17-3.16-.04-4.35-1.21-1.19-3.16-1.17-4.35.04s-1.17,3.16.04,4.35Z"/>
    <path class="cls-2" d="m282.94,163.5c1.21,1.19,3.16,1.17,4.35-.04s1.17-3.16-.04-4.35-3.16-1.17-4.35.04-1.17,3.16.04,4.35Z"/>
    <path class="cls-2" d="m266.29,157.83c1.21,1.19,3.16,1.17,4.35-.04,1.19-1.21,1.17-3.16-.04-4.35s-3.16-1.17-4.35.04c-1.19,1.21-1.17,3.16.04,4.35Z"/>
    <path class="cls-2" d="m249.91,152.17c1.21,1.19,3.16,1.17,4.35-.04,1.19-1.21,1.17-3.16-.04-4.35s-3.16-1.17-4.35.04c-1.19,1.21-1.17,3.16.04,4.35Z"/>
    <path class="cls-2" d="m232.49,146.87c1.21,1.19,3.16,1.17,4.35-.04s1.17-3.16-.04-4.35-3.16-1.17-4.35.04-1.17,3.16.04,4.35Z"/>
    <path class="cls-2" d="m216.47,141.32c1.21,1.19,3.16,1.17,4.35-.04,1.19-1.21,1.17-3.16-.04-4.35s-3.16-1.17-4.35.04c-1.19,1.21-1.17,3.16.04,4.35Z"/>
    <path class="cls-2" d="m177.24,157.58c1.21,1.19,3.16,1.17,4.35-.04,1.19-1.21,1.17-3.16-.04-4.35-1.21-1.19-3.16-1.17-4.35.04-1.19,1.21-1.17,3.16.04,4.35Z"/>
    <path class="cls-2" d="m170.73,171.29c1.21,1.19,3.16,1.17,4.35-.04s1.17-3.16-.04-4.35-3.16-1.17-4.35.04c-1.19,1.21-1.17,3.16.04,4.35Z"/>
    <path class="cls-2" d="m165.21,185.72c1.21,1.19,3.16,1.17,4.35-.04,1.19-1.21,1.17-3.16-.04-4.35s-3.16-1.17-4.35.04c-1.19,1.21-1.17,3.16.04,4.35Z"/>
    <path class="cls-2" d="m159.6,199.38c1.21,1.19,3.16,1.17,4.35-.04s1.17-3.16-.04-4.35-3.16-1.17-4.35.04c-1.19,1.21-1.17,3.16.04,4.35Z"/>
    <path class="cls-2" d="m153.79,212.84c1.21,1.19,3.16,1.17,4.35-.04s1.17-3.16-.04-4.35-3.16-1.17-4.35.04c-1.19,1.21-1.17,3.16.04,4.35Z"/>
    <path class="cls-2" d="m147.29,226.55c1.21,1.19,3.16,1.17,4.35-.04s1.17-3.16-.04-4.35c-1.21-1.19-3.16-1.17-4.35.04-1.19,1.21-1.17,3.16.04,4.35Z"/>
    <path class="cls-2" d="m140.41,241.5c1.21,1.19,3.16,1.17,4.35-.04,1.19-1.21,1.17-3.16-.04-4.35-1.21-1.19-3.16-1.17-4.35.04-1.19,1.21-1.17,3.16.04,4.35Z"/>
    <path class="cls-2" d="m134.01,256.83c1.21,1.19,3.16,1.17,4.35-.04,1.19-1.21,1.17-3.16-.04-4.35-1.21-1.19-3.16-1.17-4.35.04-1.19,1.21-1.17,3.16.04,4.35Z"/>
    <path class="cls-2" d="m128.33,271.42c1.21,1.19,3.16,1.17,4.35-.04,1.19-1.21,1.17-3.16-.04-4.35s-3.16-1.17-4.35.04c-1.19,1.21-1.17,3.16.04,4.35Z"/>
    <path class="cls-2" d="m122.16,285.65c1.21,1.19,3.16,1.17,4.35-.04s1.17-3.16-.04-4.35c-1.21-1.19-3.16-1.17-4.35.04-1.19,1.21-1.17,3.16.04,4.35Z"/>
    <path class="cls-2" d="m115.86,299.74c1.21,1.19,3.16,1.17,4.35-.04,1.19-1.21,1.17-3.16-.04-4.35-1.21-1.19-3.16-1.17-4.35.04s-1.17,3.16.04,4.35Z"/>
    <path class="cls-2" d="m104.83,359.23c1.21,1.19,3.16,1.17,4.35-.04,1.19-1.21,1.17-3.16-.04-4.35s-3.16-1.17-4.35.04c-1.19,1.21-1.17,3.16.04,4.35Z"/>
    <path class="cls-2" d="m105.8,369.74c1.21,1.19,3.16,1.17,4.35-.04s1.17-3.16-.04-4.35-3.16-1.17-4.35.04c-1.19,1.21-1.17,3.16.04,4.35Z"/>
    <path class="cls-2" d="m112.58,409.03c1.7-.09,3-1.54,2.91-3.24-.09-1.7-1.54-3-3.24-2.91-1.7.09-3,1.54-2.91,3.24s1.54,3,3.24,2.91Z"/>
    <path class="cls-2" d="m111.14,313.35c1.21,1.19,3.16,1.17,4.35-.04s1.17-3.16-.04-4.35-3.16-1.17-4.35.04c-1.19,1.21-1.17,3.16.04,4.35Z"/>
  </g>
</svg>