<?xml version="1.0" encoding="UTF-8"?>
<svg id="Layer_1" data-name="Layer 1" xmlns="http://www.w3.org/2000/svg" xmlns:xlink="http://www.w3.org/1999/xlink" viewBox="0 0 512 512">
  <defs>
    <style>
      .cls-1 {
        fill: url(#linear-gradient);
      }

      .cls-1, .cls-2, .cls-3, .cls-4, .cls-5 {
        stroke-width: 0px;
      }

      .cls-2 {
        fill: none;
      }

      .cls-6 {
        clip-path: url(#clippath-1);
      }

      .cls-3 {
        fill: #fff;
      }

      .cls-4 {
        fill: url(#linear-gradient-2);
      }

      .cls-7 {
        clip-path: url(#clippath);
      }

      .cls-5 {
        fill: #fffdeb;
        opacity: .1;
      }
    </style>
    <clipPath id="clippath">
      <path class="cls-2" d="m839.96,7.92c-137,0-248.08,111.08-248.08,248.08s111.08,248.08,248.08,248.08,248.08-111.08,248.08-248.08S976.96,7.92,839.96,7.92Z"/>
    </clipPath>
    <linearGradient id="linear-gradient" x1="848.78" y1="-106.53" x2="843.58" y2="973.85" gradientUnits="userSpaceOnUse">
      <stop offset="0" stop-color="#000134"/>
      <stop offset=".49" stop-color="#2f245f"/>
      <stop offset="1" stop-color="#00559c"/>
    </linearGradient>
    <clipPath id="clippath-1">
      <path class="cls-2" d="m256.05,7.92C119.05,7.92,7.97,119,7.97,256s111.08,248.08,248.08,248.08,248.08-111.08,248.08-248.08S393.05,7.92,256.05,7.92Z"/>
    </clipPath>
    <linearGradient id="linear-gradient-2" x1="264.87" y1="-106.53" x2="259.67" y2="973.85" xlink:href="#linear-gradient"/>
  </defs>
  <g class="cls-7">
    <rect class="cls-1" x="474.92" y="7.92" width="744.24" height="496.16"/>
  </g>
  <g class="cls-6">
    <g>
      <rect class="cls-4" x="-108.99" y="7.92" width="744.24" height="496.16"/>
      <g>
        <path class="cls-3" d="m115.76,187.28c1.3,0,1.3-2.02,0-2.02s-1.3,2.02,0,2.02h0Z"/>
        <path class="cls-3" d="m103.79,106.68c1.3,0,1.3-2.02,0-2.02s-1.3,2.02,0,2.02h0Z"/>
        <path class="cls-3" d="m73.46,250.08c.97,0,.97-1.51,0-1.51s-.97,1.51,0,1.51h0Z"/>
        <path class="cls-3" d="m241.05,392.92c.97,0,.97-1.51,0-1.51s-.97,1.51,0,1.51h0Z"/>
        <path class="cls-3" d="m461.95,229.43c1.3,0,1.3-2.02,0-2.02s-1.3,2.02,0,2.02h0Z"/>
        <path class="cls-3" d="m363.15,254.07c.97,0,.97-1.51,0-1.51s-.97,1.51,0,1.51h0Z"/>
        <path class="cls-3" d="m347.99,132.22c1.3,0,1.3-2.02,0-2.02s-1.3,2.02,0,2.02h0Z"/>
        <path class="cls-3" d="m492.43,167.33c1.3,0,1.3-2.02,0-2.02s-1.3,2.02,0,2.02h0Z"/>
        <path class="cls-3" d="m498.01,289.73c.65,0,.65-1.01,0-1.01s-.65,1.01,0,1.01h0Z"/>
        <path class="cls-3" d="m399.19,331.9c.65,0,.65-1.01,0-1.01s-.65,1.01,0,1.01h0Z"/>
        <path class="cls-3" d="m239,283.94c.65,0,.65-1.01,0-1.01s-.65,1.01,0,1.01h0Z"/>
        <path class="cls-3" d="m204.93,323c.65,0,.65-1.01,0-1.01s-.65,1.01,0,1.01h0Z"/>
        <path class="cls-3" d="m376.48,407.53c.65,0,.65-1.01,0-1.01s-.65,1.01,0,1.01h0Z"/>
        <path class="cls-3" d="m284.57,455.96c.97,0,.97-1.51,0-1.51s-.97,1.51,0,1.51h0Z"/>
        <path class="cls-3" d="m39.95,448.53c.65,0,.65-1.01,0-1.01s-.65,1.01,0,1.01h0Z"/>
        <path class="cls-3" d="m370.06,385.76c1.3,0,1.3-2.02,0-2.02s-1.3,2.02,0,2.02h0Z"/>
        <path class="cls-3" d="m483.18,435.67c1.3,0,1.3-2.02,0-2.02s-1.3,2.02,0,2.02h0Z"/>
        <path class="cls-3" d="m264.83,331.4c1.3,0,1.3-2.02,0-2.02s-1.3,2.02,0,2.02h0Z"/>
        <path class="cls-3" d="m111.7,299.42c.97,0,.97-1.51,0-1.51s-.97,1.51,0,1.51h0Z"/>
      </g>
      <g>
        <path class="cls-3" d="m238.76,142.04c1.3,0,1.3-2.02,0-2.02s-1.3,2.02,0,2.02h0Z"/>
        <path class="cls-3" d="m226.79,61.44c1.3,0,1.3-2.02,0-2.02s-1.3,2.02,0,2.02h0Z"/>
        <path class="cls-3" d="m120.65,76.35c.97,0,.97-1.51,0-1.51s-.97,1.51,0,1.51h0Z"/>
        <path class="cls-3" d="m196.46,204.83c.97,0,.97-1.51,0-1.51s-.97,1.51,0,1.51h0Z"/>
        <path class="cls-3" d="m364.05,347.68c.97,0,.97-1.51,0-1.51s-.97,1.51,0,1.51h0Z"/>
        <path class="cls-3" d="m486.15,208.82c.97,0,.97-1.51,0-1.51s-.97,1.51,0,1.51h0Z"/>
        <path class="cls-3" d="m470.99,86.98c1.3,0,1.3-2.02,0-2.02s-1.3,2.02,0,2.02h0Z"/>
        <path class="cls-3" d="m362,238.7c.65,0,.65-1.01,0-1.01s-.65,1.01,0,1.01h0Z"/>
        <path class="cls-3" d="m327.93,277.75c.65,0,.65-1.01,0-1.01s-.65,1.01,0,1.01h0Z"/>
        <path class="cls-3" d="m499.48,362.29c.65,0,.65-1.01,0-1.01s-.65,1.01,0,1.01h0Z"/>
        <path class="cls-3" d="m407.57,410.72c.97,0,.97-1.51,0-1.51s-.97,1.51,0,1.51h0Z"/>
        <path class="cls-3" d="m162.95,403.29c.65,0,.65-1.01,0-1.01s-.65,1.01,0,1.01h0Z"/>
        <path class="cls-3" d="m95.11,367.88c1.3,0,1.3-2.02,0-2.02s-1.3,2.02,0,2.02h0Z"/>
        <path class="cls-3" d="m493.06,340.52c1.3,0,1.3-2.02,0-2.02s-1.3,2.02,0,2.02h0Z"/>
        <path class="cls-3" d="m91.12,221.84c1.3,0,1.3-2.02,0-2.02s-1.3,2.02,0,2.02h0Z"/>
        <path class="cls-3" d="m387.83,286.15c1.3,0,1.3-2.02,0-2.02s-1.3,2.02,0,2.02h0Z"/>
        <path class="cls-3" d="m234.7,254.18c.97,0,.97-1.51,0-1.51s-.97,1.51,0,1.51h0Z"/>
      </g>
    </g>
  </g>
  <g>
    <path class="cls-3" d="m181.18,210.88c-.39-1.19.26-2.47,1.45-2.86s2.47.26,2.86,1.45c.39,1.19-.26,2.47-1.45,2.86-1.19.39-2.47-.26-2.86-1.45Z"/>
    <path class="cls-3" d="m136.99,209.76c-.39-1.19.26-2.47,1.45-2.86,1.19-.39,2.47.26,2.86,1.45.39,1.19-.26,2.47-1.45,2.86s-2.47-.26-2.86-1.45Z"/>
    <path class="cls-3" d="m125.82,209.48c-.39-1.19.26-2.47,1.45-2.86,1.19-.39,2.47.26,2.86,1.45s-.26,2.47-1.45,2.86-2.47-.26-2.86-1.45Z"/>
    <path class="cls-3" d="m113.69,209.17c-.39-1.19.26-2.47,1.45-2.86s2.47.26,2.86,1.45c.39,1.19-.26,2.47-1.45,2.86-1.19.39-2.47-.26-2.86-1.45Z"/>
    <path class="cls-3" d="m101.46,208.86c-.39-1.19.26-2.47,1.45-2.86,1.19-.39,2.47.26,2.86,1.45.39,1.19-.26,2.47-1.45,2.86-1.19.39-2.47-.26-2.86-1.45Z"/>
    <path class="cls-3" d="m66.82,209.01c-.39-1.19.26-2.47,1.45-2.86,1.19-.39,2.47.26,2.86,1.45.39,1.19-.26,2.47-1.45,2.86s-2.47-.26-2.86-1.45Z"/>
    <path class="cls-3" d="m202.31,211.31c-.39-1.19.26-2.47,1.45-2.86,1.19-.39,2.47.26,2.86,1.45.39,1.19-.26,2.47-1.45,2.86-1.19.39-2.47-.26-2.86-1.45Z"/>
    <path class="cls-3" d="m191.76,211.04c-.39-1.19.26-2.47,1.45-2.86,1.19-.39,2.47.26,2.86,1.45s-.26,2.47-1.45,2.86c-1.19.39-2.47-.26-2.86-1.45Z"/>
    <polygon class="cls-3" points="278.13 410.59 277.16 421.69 272.44 414.17 259.15 414.87 270.91 407.48 270.29 397.58 276 406.65 284.22 405.71 278.13 410.59"/>
    <path class="cls-3" d="m253.51,402.98c.18-1.24,1.33-2.1,2.57-1.91s2.1,1.33,1.91,2.57c-.18,1.24-1.33,2.1-2.57,1.91-1.24-.18-2.1-1.33-1.91-2.57Z"/>
    <path class="cls-3" d="m243.64,397.74c.18-1.24,1.33-2.1,2.57-1.91s2.1,1.33,1.91,2.57-1.33,2.1-2.57,1.91-2.1-1.33-1.91-2.57Z"/>
    <path class="cls-3" d="m233.61,392.41c.18-1.24,1.33-2.1,2.57-1.91,1.24.18,2.1,1.33,1.91,2.57s-1.33,2.1-2.57,1.91c-1.24-.18-2.1-1.33-1.91-2.57Z"/>
    <path class="cls-3" d="m224.01,387.31c.18-1.24,1.33-2.1,2.57-1.91,1.24.18,2.1,1.33,1.91,2.57s-1.33,2.1-2.57,1.91c-1.24-.18-2.1-1.33-1.91-2.57Z"/>
    <path class="cls-3" d="m214.47,382.25c.18-1.24,1.33-2.1,2.57-1.91s2.1,1.33,1.91,2.57c-.18,1.24-1.33,2.1-2.57,1.91s-2.1-1.33-1.91-2.57Z"/>
    <polygon class="cls-3" points="309.85 373.35 314.23 382.32 305.77 376.88 299.5 386.62 301.19 376.11 294.55 373.47 302.04 370.85 301.9 362.06 306.69 370.95 312.66 368.99 309.85 373.35"/>
    <path class="cls-3" d="m291.84,391.01c-1.12-.57-1.56-1.93-1-3.05.57-1.12,1.93-1.56,3.05-.99,1.12.57,1.56,1.93,1,3.05-.57,1.12-1.93,1.56-3.05.99Z"/>
    <path class="cls-3" d="m282.96,399.43c-1.12-.57-1.56-1.93-.99-3.05.57-1.12,1.93-1.56,3.05-1,1.12.57,1.56,1.93.99,3.05-.57,1.12-1.93,1.56-3.05,1Z"/>
    <path class="cls-3" d="m145.18,337.98c-.22,1.23-1.4,2.05-2.63,1.83-1.23-.22-2.05-1.4-1.83-2.63.22-1.23,1.4-2.05,2.63-1.83,1.23.22,2.05,1.4,1.83,2.63Z"/>
    <path class="cls-3" d="m154.88,343.54c-.22,1.23-1.4,2.05-2.63,1.83-1.23-.22-2.05-1.4-1.83-2.63.22-1.23,1.4-2.05,2.63-1.83,1.23.22,2.05,1.4,1.83,2.63Z"/>
    <path class="cls-3" d="m164.74,349.19c-.22,1.23-1.4,2.05-2.63,1.83-1.23-.22-2.05-1.4-1.83-2.63s1.4-2.05,2.63-1.83c1.23.22,2.05,1.4,1.83,2.63Z"/>
    <path class="cls-3" d="m174.16,354.59c-.22,1.23-1.4,2.05-2.63,1.83-1.23-.22-2.05-1.4-1.83-2.63.22-1.23,1.4-2.05,2.63-1.83s2.05,1.4,1.83,2.63Z"/>
    <path class="cls-3" d="m183.53,359.96c-.22,1.23-1.4,2.05-2.63,1.83-1.23-.22-2.05-1.4-1.83-2.63.22-1.23,1.4-2.05,2.63-1.83s2.05,1.4,1.83,2.63Z"/>
    <polygon class="cls-3" points="198.24 365.6 206.04 359.14 202.91 369.39 207.76 373.78 200.2 371.47 193.71 380.43 196.15 372.42 186.6 368.78 192.21 367.44 192.9 360.27 198.24 365.6"/>
    <path class="cls-3" d="m126.64,320.77c1.52.62,11.12,6.05,11.12,6.05l-10.46-.45-.14,9.7-3.85-7.2-5.56,7.77.13-8.23-10.25,4.07,6.72-7-7.84-3.22,8.9-.78-2.49-10.49,5.77,8.28,4.63-12,.47,9.66,8.51-2.72-5.65,6.55Z"/>
    <polygon class="cls-3" points="96.44 299.6 91.25 291.4 99.35 293.91 101.53 286.86 104.21 294.85 113.76 296.38 106.59 301.03 107.93 311.47 101.71 303.81 92.26 306.6 96.44 299.6"/>
    <path class="cls-3" d="m331.81,319.36c-1.24-.14-2.14-1.26-2-2.51.14-1.24,1.26-2.14,2.51-2,1.24.14,2.14,1.26,2,2.51-.14,1.24-1.26,2.14-2.51,2Z"/>
    <path class="cls-3" d="m326.91,329.4c-1.24-.14-2.14-1.26-2-2.51.14-1.24,1.26-2.14,2.51-2,1.24.14,2.14,1.26,2,2.51-.14,1.24-1.26,2.14-2.51,2Z"/>
    <path class="cls-3" d="m321.91,339.61c-1.24-.14-2.14-1.26-2-2.51.14-1.24,1.26-2.14,2.51-2,1.24.14,2.14,1.26,2,2.51-.14,1.24-1.26,2.14-2.51,2Z"/>
    <path class="cls-3" d="m317.14,349.37c-1.24-.14-2.14-1.26-2-2.51.14-1.24,1.26-2.14,2.51-2,1.24.14,2.14,1.26,2,2.51-.14,1.24-1.26,2.14-2.51,2Z"/>
    <path class="cls-3" d="m312.4,359.07c-1.24-.14-2.14-1.26-2-2.51.14-1.24,1.26-2.14,2.51-2,1.24.14,2.14,1.26,2,2.51-.14,1.24-1.26,2.14-2.51,2Z"/>
    <path class="cls-3" d="m410.96,149.93c-1.25-.05-2.22-1.11-2.17-2.36.05-1.25,1.11-2.22,2.36-2.17,1.25.05,2.22,1.11,2.17,2.36-.05,1.25-1.11,2.22-2.36,2.17Z"/>
    <path class="cls-3" d="m406.4,161.17c-1.25-.05-2.22-1.11-2.17-2.36.05-1.25,1.11-2.22,2.36-2.17,1.25.05,2.22,1.11,2.17,2.36-.05,1.25-1.11,2.22-2.36,2.17Z"/>
    <path class="cls-3" d="m346,290.11c-1.24-.14-2.14-1.26-2-2.51.14-1.24,1.26-2.14,2.51-2,1.24.14,2.14,1.26,2,2.51-.14,1.24-1.26,2.14-2.51,2Z"/>
    <path class="cls-3" d="m341,300.32c-1.24-.14-2.14-1.26-2-2.51.14-1.24,1.26-2.14,2.51-2,1.24.14,2.14,1.26,2,2.51-.14,1.24-1.26,2.14-2.51,2Z"/>
    <path class="cls-3" d="m336.37,309.81c-1.24-.14-2.14-1.26-2-2.51.14-1.24,1.26-2.14,2.51-2,1.24.14,2.14,1.26,2,2.51-.14,1.24-1.26,2.14-2.51,2Z"/>
    <path class="cls-3" d="m372.02,238.2c-1.24-.14-2.14-1.26-2-2.51.14-1.24,1.26-2.14,2.51-2,1.24.14,2.14,1.26,2,2.51-.14,1.24-1.26,2.14-2.51,2Z"/>
    <path class="cls-3" d="m367.1,248.23c-1.24-.14-2.14-1.26-2-2.51.14-1.24,1.26-2.14,2.51-2,1.24.14,2.14,1.26,2,2.51-.14,1.24-1.26,2.14-2.51,2Z"/>
    <path class="cls-3" d="m362.11,258.44c-1.24-.14-2.14-1.26-2-2.51.14-1.24,1.26-2.14,2.51-2,1.24.14,2.14,1.26,2,2.51-.14,1.24-1.26,2.14-2.51,2Z"/>
    <path class="cls-3" d="m357.33,268.2c-1.24-.14-2.14-1.26-2-2.51.14-1.24,1.26-2.14,2.51-2,1.24.14,2.14,1.26,2,2.51-.14,1.24-1.26,2.14-2.51,2Z"/>
    <path class="cls-3" d="m352.58,277.89c-1.24-.14-2.14-1.26-2-2.51.14-1.24,1.26-2.14,2.51-2,1.24.14,2.14,1.26,2,2.51-.14,1.24-1.26,2.14-2.51,2Z"/>
    <polygon class="cls-3" points="167.33 213.79 163.75 222.8 161.02 214.77 154.03 217.14 158.93 210.28 154.56 201.66 162.53 204.73 170.19 197.51 167.65 207.04 175.46 213.05 167.33 213.79"/>
    <path class="cls-3" d="m374.71,218.89c-1.19-1.13-8.22-9.62-8.22-9.62l9.61,4.16,3.6-9.01,1.02,8.1,7.97-5.27-3.06,7.64,11.03-.14-8.78,4.13,6.17,5.81-8.59-2.45-1.42,10.69-2.42-9.8-8.62,9.55,3.01-9.19-8.92-.51,7.62-4.1Z"/>
    <polygon class="cls-3" points="395.76 172.37 388.38 166.07 396.86 166.08 396.87 158.7 401.78 165.54 411.36 164.19 405.88 170.74 410.24 180.32 402.05 174.84 393.83 180.3 395.76 172.37"/>
    <path class="cls-3" d="m391.82,194.9c-1.24-.15-2.13-1.28-1.98-2.52s1.28-2.13,2.52-1.98c1.24.15,2.13,1.28,1.98,2.52-.15,1.24-1.28,2.13-2.52,1.98Z"/>
    <path class="cls-3" d="m386.83,204.91c-1.24-.15-2.13-1.28-1.98-2.52.15-1.24,1.28-2.13,2.52-1.98s2.13,1.28,1.98,2.52-1.28,2.13-2.52,1.98Z"/>
    <path class="cls-3" d="m70.01,238.3c.83-.94,2.26-1.02,3.2-.19.94.83,1.02,2.26.19,3.2-.83.94-2.26,1.02-3.2.19-.94-.83-1.02-2.26-.19-3.2Z"/>
    <path class="cls-3" d="m64.53,228.33c.83-.94,2.26-1.02,3.2-.19.94.83,1.02,2.26.19,3.2-.83.94-2.26,1.02-3.2.19-.94-.83-1.02-2.26-.19-3.2Z"/>
    <path class="cls-3" d="m59.45,219.08c.83-.94,2.26-1.02,3.2-.19.94.83,1.02,2.26.19,3.2-.83.94-2.26,1.02-3.2.19-.94-.83-1.02-2.26-.19-3.2Z"/>
    <path class="cls-3" d="m92.1,279.66c.83-.94,2.26-1.02,3.2-.19.94.83,1.02,2.26.19,3.2-.83.94-2.26,1.02-3.2.19-.94-.83-1.02-2.26-.19-3.2Z"/>
    <path class="cls-3" d="m86.64,269.7c.83-.94,2.26-1.02,3.2-.19s1.02,2.26.19,3.2c-.83.94-2.26,1.02-3.2.19-.94-.83-1.02-2.26-.19-3.2Z"/>
    <path class="cls-3" d="m81.41,260.18c.83-.94,2.26-1.02,3.2-.19s1.02,2.26.19,3.2c-.83.94-2.26,1.02-3.2.19s-1.02-2.26-.19-3.2Z"/>
    <path class="cls-3" d="m76.21,250.71c.83-.94,2.26-1.02,3.2-.19s1.02,2.26.19,3.2c-.83.94-2.26,1.02-3.2.19-.94-.83-1.02-2.26-.19-3.2Z"/>
    <path class="cls-3" d="m342.8,187.8c-.65-1.1-.29-2.53.81-3.19,1.1-.66,2.53-.29,3.19.81s.29,2.53-.81,3.19-2.53.29-3.19-.81Z"/>
    <path class="cls-3" d="m331.55,190c-.65-1.1-.29-2.53.81-3.19,1.1-.65,2.53-.29,3.19.81.65,1.1.29,2.53-.81,3.19s-2.53.29-3.19-.81Z"/>
    <path class="cls-3" d="m320.12,192.23c-.65-1.1-.29-2.53.81-3.19,1.1-.65,2.53-.29,3.19.81s.29,2.53-.81,3.19c-1.1.65-2.53.29-3.19-.81Z"/>
    <path class="cls-3" d="m309.18,194.37c-.65-1.1-.29-2.53.81-3.19s2.53-.29,3.19.81c.66,1.1.29,2.53-.81,3.19-1.1.65-2.53.29-3.19-.81Z"/>
    <path class="cls-3" d="m368.89,182.87c-.65-1.1-.29-2.53.81-3.19,1.1-.65,2.53-.29,3.19.81s.29,2.53-.81,3.19-2.53.29-3.19-.81Z"/>
    <path class="cls-3" d="m357.64,185.06c-.65-1.1-.29-2.53.81-3.19,1.1-.65,2.53-.29,3.19.81.65,1.1.29,2.53-.81,3.19s-2.53.29-3.19-.81Z"/>
    <path class="cls-3" d="m298.31,196.49c-.65-1.1-.29-2.53.81-3.19s2.53-.29,3.19.81c.65,1.1.29,2.53-.81,3.19-1.1.65-2.53.29-3.19-.81Z"/>
    <path class="cls-3" d="m287.06,198.69c-.65-1.1-.29-2.53.81-3.19s2.53-.29,3.19.81c.65,1.1.29,2.53-.81,3.19-1.1.65-2.53.29-3.19-.81Z"/>
    <path class="cls-3" d="m274.85,201.08c-.65-1.1-.29-2.53.81-3.19,1.1-.65,2.53-.29,3.19.81s.29,2.53-.81,3.19c-1.1.65-2.53.29-3.19-.81Z"/>
    <path class="cls-3" d="m263.35,202.4c-.65-1.1-.29-2.53.81-3.19s2.53-.29,3.19.81c.65,1.1.29,2.53-.81,3.19s-2.53.29-3.19-.81Z"/>
    <path class="cls-3" d="m252.1,204.59c-.65-1.1-.29-2.53.81-3.19s2.53-.29,3.19.81c.65,1.1.29,2.53-.81,3.19s-2.53.29-3.19-.81Z"/>
    <path class="cls-3" d="m239.89,206.98c-.65-1.1-.29-2.53.81-3.19,1.1-.66,2.53-.29,3.19.81s.29,2.53-.81,3.19-2.53.29-3.19-.81Z"/>
    <polygon class="cls-3" points="227.95 210.82 225.55 221.69 221.84 213.62 208.57 212.59 221.19 206.79 221.87 196.9 226.35 206.64 234.62 206.77 227.95 210.82"/>
    <polygon class="cls-3" points="420.15 137.05 417.75 147.93 414.04 139.86 400.77 138.83 413.39 133.03 414.07 123.13 418.55 132.87 426.81 133 420.15 137.05"/>
    <polygon class="cls-3" points="52.46 208.11 49.68 217.87 46.46 207.64 39.97 206.76 47.52 204.39 47.81 193.33 50.32 201.31 60.26 198.91 56.39 203.19 59.88 209.49 52.46 208.11"/>
    <polygon class="cls-3" points="84.65 209.82 84.04 216.83 81.05 212.08 72.67 212.53 80.09 207.86 79.7 201.61 83.3 207.34 88.49 206.74 84.65 209.82"/>
  </g>
  <path class="cls-5" d="m424.41,246.16c-11.68-13.74-28.71-21.58-49.78-22.71-17.06-.45-46.54,7-63.62,33.49-1.75-8.88-3.24-17.57-4.57-25.34-3.72-21.73-6.66-38.89-12.28-49.76-26.37-51-65.85-46-81.61-41.56-12.73,3.83-24.41,10.51-34.18,19.52-11.8-11.1-25.11-18.1-39.79-20.64-32.64-5.74-58.42,12.59-61.25,14.7-8.12,5.87-9.95,17.2-4.08,25.33,5.87,8.12,17.2,9.95,25.33,4.08.14-.1.28-.21.42-.31.15-.11,15.92-11.13,33.32-8.07,10.75,1.89,20.7,8.94,29.63,21v118.87c0,10.02,8.12,18.14,18.14,18.14s18.14-8.12,18.14-18.14v-122.93c3.17-5.16,17-17.39,32.08-17.93,12.43-.33,22.98,7.87,31.63,24.62,3,5.86,6.07,23.58,8.74,39.21,4.92,28.72,10.58,61.74,23.28,86.8-2.55,9.39-6.22,18.13-11.19,23.35-19.43,13.22-52.31,31.26-67.41,31.59-10.02.11-18.05,8.32-17.95,18.33.11,10.02,8.32,18.05,18.34,17.95h.4c31.65-.69,79.3-32.52,88.53-38.89.75-.52,1.47-1.1,2.13-1.73,5.76-5.61,10.5-12.18,14-19.42,2.25,1.36,4.58,2.55,7,3.57.35.14.7.28,1.05.41,5.29,1.87,52.67,17.67,85.46-3.13,11-7,24.73-21,27.51-48.31.4-3.79,3.37-37.65-17.41-62.09Zm-18.68,58.3c-1.42,13.94-6.85,18.9-10.8,21.43-14.91,9.5-43.71,3-53.44-.22-3.54-1.78-6.62-4.36-9-7.54,1.27-7.4,2.07-14.86,2.4-22.36,5.1-34.42,33.41-36.06,38.37-36.06,10.57.57,18.25,3.79,23.46,9.85,9.12,10.65,9.6,28.79,9.01,34.89h0Z"/>
</svg>