<?xml version="1.0" encoding="UTF-8"?>
<svg id="Layer_1" data-name="Layer 1" xmlns="http://www.w3.org/2000/svg" xmlns:xlink="http://www.w3.org/1999/xlink" viewBox="0 0 512 512">
  <defs>
    <style>
      .cls-1 {
        fill: url(#linear-gradient-2);
      }

      .cls-2 {
        fill: #fff;
      }

      .cls-3 {
        fill: #fffdeb;
        opacity: .1;
      }

      .cls-4, .cls-5, .cls-6 {
        fill: none;
      }

      .cls-5 {
        clip-path: url(#clippath);
      }

      .cls-6 {
        clip-path: url(#clippath-1);
      }

      .cls-7 {
        fill: url(#linear-gradient);
      }
    </style>
    <clipPath id="clippath">
      <path class="cls-4" d="m839.96,7.92c-137,0-248.08,111.08-248.08,248.08s111.08,248.08,248.08,248.08,248.08-111.08,248.08-248.08S976.96,7.92,839.96,7.92Z"/>
    </clipPath>
    <linearGradient id="linear-gradient" x1="848.78" y1="-106.53" x2="843.58" y2="973.85" gradientUnits="userSpaceOnUse">
      <stop offset="0" stop-color="#000134"/>
      <stop offset=".49" stop-color="#2f245f"/>
      <stop offset="1" stop-color="#00559c"/>
    </linearGradient>
    <clipPath id="clippath-1">
      <path class="cls-4" d="m256.05,7.92C119.05,7.92,7.97,119,7.97,256s111.08,248.08,248.08,248.08,248.08-111.08,248.08-248.08S393.05,7.92,256.05,7.92Z"/>
    </clipPath>
    <linearGradient id="linear-gradient-2" x1="264.87" x2="259.67" xlink:href="#linear-gradient"/>
  </defs>
  <g class="cls-5">
    <rect class="cls-7" x="474.92" y="7.92" width="744.24" height="496.16"/>
  </g>
  <g class="cls-6">
    <g>
      <rect class="cls-1" x="-108.99" y="7.92" width="744.24" height="496.16"/>
      <g>
        <path class="cls-2" d="m115.76,187.28c1.3,0,1.3-2.02,0-2.02s-1.3,2.02,0,2.02h0Z"/>
        <path class="cls-2" d="m103.79,106.68c1.3,0,1.3-2.02,0-2.02s-1.3,2.02,0,2.02h0Z"/>
        <path class="cls-2" d="m73.46,250.08c.97,0,.97-1.51,0-1.51s-.97,1.51,0,1.51h0Z"/>
        <path class="cls-2" d="m241.05,392.92c.97,0,.97-1.51,0-1.51s-.97,1.51,0,1.51h0Z"/>
        <path class="cls-2" d="m461.95,229.43c1.3,0,1.3-2.02,0-2.02s-1.3,2.02,0,2.02h0Z"/>
        <path class="cls-2" d="m363.15,254.07c.97,0,.97-1.51,0-1.51s-.97,1.51,0,1.51h0Z"/>
        <path class="cls-2" d="m347.99,132.22c1.3,0,1.3-2.02,0-2.02s-1.3,2.02,0,2.02h0Z"/>
        <path class="cls-2" d="m492.43,167.33c1.3,0,1.3-2.02,0-2.02s-1.3,2.02,0,2.02h0Z"/>
        <path class="cls-2" d="m498.01,289.73c.65,0,.65-1.01,0-1.01s-.65,1.01,0,1.01h0Z"/>
        <path class="cls-2" d="m399.19,331.9c.65,0,.65-1.01,0-1.01s-.65,1.01,0,1.01h0Z"/>
        <path class="cls-2" d="m239,283.94c.65,0,.65-1.01,0-1.01s-.65,1.01,0,1.01h0Z"/>
        <path class="cls-2" d="m204.93,323c.65,0,.65-1.01,0-1.01s-.65,1.01,0,1.01h0Z"/>
        <path class="cls-2" d="m376.48,407.53c.65,0,.65-1.01,0-1.01s-.65,1.01,0,1.01h0Z"/>
        <path class="cls-2" d="m284.57,455.96c.97,0,.97-1.51,0-1.51s-.97,1.51,0,1.51h0Z"/>
        <path class="cls-2" d="m39.95,448.53c.65,0,.65-1.01,0-1.01s-.65,1.01,0,1.01h0Z"/>
        <path class="cls-2" d="m370.06,385.76c1.3,0,1.3-2.02,0-2.02s-1.3,2.02,0,2.02h0Z"/>
        <path class="cls-2" d="m483.18,435.67c1.3,0,1.3-2.02,0-2.02s-1.3,2.02,0,2.02h0Z"/>
        <path class="cls-2" d="m264.83,331.4c1.3,0,1.3-2.02,0-2.02s-1.3,2.02,0,2.02h0Z"/>
        <path class="cls-2" d="m111.7,299.42c.97,0,.97-1.51,0-1.51s-.97,1.51,0,1.51h0Z"/>
      </g>
      <g>
        <path class="cls-2" d="m238.76,142.04c1.3,0,1.3-2.02,0-2.02s-1.3,2.02,0,2.02h0Z"/>
        <path class="cls-2" d="m226.79,61.44c1.3,0,1.3-2.02,0-2.02s-1.3,2.02,0,2.02h0Z"/>
        <path class="cls-2" d="m120.65,76.35c.97,0,.97-1.51,0-1.51s-.97,1.51,0,1.51h0Z"/>
        <path class="cls-2" d="m196.46,204.83c.97,0,.97-1.51,0-1.51s-.97,1.51,0,1.51h0Z"/>
        <path class="cls-2" d="m364.05,347.68c.97,0,.97-1.51,0-1.51s-.97,1.51,0,1.51h0Z"/>
        <path class="cls-2" d="m486.15,208.82c.97,0,.97-1.51,0-1.51s-.97,1.51,0,1.51h0Z"/>
        <path class="cls-2" d="m470.99,86.98c1.3,0,1.3-2.02,0-2.02s-1.3,2.02,0,2.02h0Z"/>
        <path class="cls-2" d="m362,238.7c.65,0,.65-1.01,0-1.01s-.65,1.01,0,1.01h0Z"/>
        <path class="cls-2" d="m327.93,277.75c.65,0,.65-1.01,0-1.01s-.65,1.01,0,1.01h0Z"/>
        <path class="cls-2" d="m499.48,362.29c.65,0,.65-1.01,0-1.01s-.65,1.01,0,1.01h0Z"/>
        <path class="cls-2" d="m407.57,410.72c.97,0,.97-1.51,0-1.51s-.97,1.51,0,1.51h0Z"/>
        <path class="cls-2" d="m162.95,403.29c.65,0,.65-1.01,0-1.01s-.65,1.01,0,1.01h0Z"/>
        <path class="cls-2" d="m95.11,367.88c1.3,0,1.3-2.02,0-2.02s-1.3,2.02,0,2.02h0Z"/>
        <path class="cls-2" d="m493.06,340.52c1.3,0,1.3-2.02,0-2.02s-1.3,2.02,0,2.02h0Z"/>
        <path class="cls-2" d="m91.12,221.84c1.3,0,1.3-2.02,0-2.02s-1.3,2.02,0,2.02h0Z"/>
        <path class="cls-2" d="m387.83,286.15c1.3,0,1.3-2.02,0-2.02s-1.3,2.02,0,2.02h0Z"/>
        <path class="cls-2" d="m234.7,254.18c.97,0,.97-1.51,0-1.51s-.97,1.51,0,1.51h0Z"/>
      </g>
    </g>
  </g>
  <path class="cls-3" d="m386.53,343.38c-.56-11.25-10.12-19.91-21.37-19.36-11.25.56-19.91,10.12-19.36,21.37.28,5.62-1.12,18.81-5.78,23.6-.61.64-1.44,1.52-4.5,1.52-11.98,0-20.17-2.47-24.34-7.35-4.81-5.62-6.15-16.97-3.78-31.93,2.67-16.86,10.11-27.09,20.4-41.25,4.67-6.43,9.97-13.71,15.01-22.13,16.77-27.94,25.71-46.13,14.61-95.17-.72-3.2-7.87-31.78-35.96-48.84-21.25-12.9-47.75-15.31-78.79-7.16-45.84,12.05-56.44,66.83-55.07,110.32-37.08,2.83-64.84,35.18-62.01,72.25,2.83,37.08,35.18,64.84,72.25,62.01,37.08-2.83,64.84-35.18,62.01-72.25-1.6-21.01-12.96-40.07-30.67-51.48-2.01-24.72-1.44-74.78,23.81-81.42,19.69-5.18,35.46-4.38,46.86,2.34,13.78,8.13,17.77,23.21,17.77,23.21,8.01,35.48,3.52,42.97-9.82,65.18-4.12,6.87-8.65,13.1-13.04,19.1-11.53,15.88-23.46,32.3-27.68,58.84-4.39,27.71,0,49.51,13.05,64.8,12.27,14.36,30.88,21.64,55.35,21.64,13.4,0,25.15-4.9,33.97-14.17,18.22-18.95,17.23-50.18,17.06-53.67Zm-193.66-22.78c-14.64,0-26.5-11.86-26.5-26.5s11.86-26.5,26.5-26.5,26.5,11.86,26.5,26.5h0c-.02,14.63-11.87,26.48-26.5,26.5Z"/>
  <g>
    <polygon class="cls-2" points="333.7 89.17 338.27 81.99 338.09 90.56 347.96 90.77 339.57 94.23 340.62 100.23 335.38 95.96 329.06 99.99 333.37 92.54 329.29 89.08 333.7 89.17"/>
    <polygon class="cls-2" points="389.59 276.23 381.58 269.82 391.23 271.57 394.69 263.88 395.23 272.53 405.43 272.48 399.24 275.74 403.64 281.8 397.24 280.85 395.92 288.46 393.45 281.11 387.18 284.46 389.59 276.23"/>
    <polygon class="cls-2" points="309.73 199.38 307.89 191.32 313.68 195.64 317.45 190.6 317.32 197.78 324.56 201.73 317.48 203.42 315.58 212.19 312.77 204.27 304.37 203.82 309.73 199.38"/>
    <path class="cls-2" d="m390.4,259.56c.85.68.99,1.93.31,2.79-.68.85-1.93.99-2.79.31-.85-.68-.99-1.93-.31-2.79s1.93-.99,2.79-.31Z"/>
    <path class="cls-2" d="m385.18,249.26c.85.68.99,1.93.31,2.79s-1.93.99-2.79.31c-.85-.68-.99-1.93-.31-2.79.68-.85,1.93-.99,2.79-.31Z"/>
    <path class="cls-2" d="m380.9,239.99c.85.68.99,1.93.31,2.79-.68.85-1.93.99-2.79.31s-.99-1.93-.31-2.79c.68-.85,1.93-.99,2.79-.31Z"/>
    <path class="cls-2" d="m331.72,205.62c-1.09.08-2.04-.73-2.13-1.82s.73-2.04,1.82-2.13c1.09-.08,2.04.73,2.13,1.82.08,1.09-.73,2.04-1.82,2.13Z"/>
    <path class="cls-2" d="m342.56,209.57c-1.09.08-2.04-.73-2.13-1.82-.08-1.09.73-2.04,1.82-2.13,1.09-.08,2.04.73,2.13,1.82.08,1.09-.73,2.04-1.82,2.13Z"/>
    <path class="cls-2" d="m352.02,213.42c-1.09.08-2.04-.73-2.13-1.82-.08-1.09.73-2.04,1.82-2.13,1.09-.08,2.04.73,2.13,1.82.08,1.09-.73,2.04-1.82,2.13Z"/>
    <path class="cls-2" d="m375.98,229.79c.85.68.99,1.93.31,2.79-.68.85-1.93.99-2.79.31-.85-.68-.99-1.93-.31-2.79.68-.85,1.93-.99,2.79-.31Z"/>
    <path class="cls-2" d="m310.93,184.27c.76.79.74,2.04-.05,2.8-.79.76-2.04.74-2.8-.05-.76-.79-.74-2.04.05-2.8.79-.76,2.04-.74,2.8.05Z"/>
    <path class="cls-2" d="m307.58,173.02c.76.79.74,2.04-.05,2.8-.79.76-2.04.74-2.8-.05-.76-.79-.74-2.04.05-2.8.79-.76,2.04-.74,2.8.05Z"/>
    <path class="cls-2" d="m282.94,308.42c-.61-.87-.4-2.08.47-2.69.87-.61,2.08-.4,2.69.47.61.87.4,2.08-.47,2.69s-2.08.4-2.69-.47Z"/>
    <path class="cls-2" d="m273.75,310.95c-.61-.87-.4-2.08.47-2.69s2.08-.4,2.69.47c.61.87.4,2.08-.47,2.69s-2.08.4-2.69-.47Z"/>
    <path class="cls-2" d="m264.42,313.52c-.61-.87-.4-2.08.47-2.69.87-.61,2.08-.4,2.69.47.61.87.4,2.08-.47,2.69-.87.61-2.08.4-2.69-.47Z"/>
    <path class="cls-2" d="m255.48,315.98c-.61-.87-.4-2.08.47-2.69s2.08-.4,2.69.47c.61.87.4,2.08-.47,2.69s-2.08.4-2.69-.47Z"/>
    <path class="cls-2" d="m246.61,318.43c-.61-.87-.4-2.08.47-2.69.87-.61,2.08-.4,2.69.47.61.87.4,2.08-.47,2.69-.87.61-2.08.4-2.69-.47Z"/>
    <path class="cls-2" d="m237.42,320.96c-.61-.87-.4-2.08.47-2.69.87-.61,2.08-.4,2.69.47s.4,2.08-.47,2.69c-.87.61-2.08.4-2.69-.47Z"/>
    <path class="cls-2" d="m227.46,323.7c-.61-.87-.4-2.08.47-2.69.87-.61,2.08-.4,2.69.47.61.87.4,2.08-.47,2.69s-2.08.4-2.69-.47Z"/>
    <path class="cls-2" d="m217.4,326.47c-.61-.87-.4-2.08.47-2.69.87-.61,2.08-.4,2.69.47.61.87.4,2.08-.47,2.69-.87.61-2.08.4-2.69-.47Z"/>
    <path class="cls-2" d="m182.26,339.88c-.88-.65-1.06-1.9-.4-2.77.65-.88,1.9-1.06,2.77-.4s1.06,1.9.4,2.77c-.65.88-1.9,1.06-2.77.4Z"/>
    <path class="cls-2" d="m174.13,345.3c-.88-.65-1.06-1.9-.4-2.77.65-.88,1.9-1.06,2.77-.4.88.65,1.06,1.9.4,2.77-.65.88-1.9,1.06-2.77.4Z"/>
    <path class="cls-2" d="m165.86,350.8c-.88-.65-1.06-1.9-.4-2.77.65-.88,1.9-1.06,2.77-.4s1.06,1.9.4,2.77c-.65.88-1.9,1.06-2.77.4Z"/>
    <path class="cls-2" d="m157.95,356.06c-.88-.65-1.06-1.9-.4-2.77.65-.88,1.9-1.06,2.77-.4.88.65,1.06,1.9.4,2.77-.65.88-1.9,1.06-2.77.4Z"/>
    <path class="cls-2" d="m150.09,361.3c-.88-.65-1.06-1.9-.4-2.77s1.9-1.06,2.77-.4c.88.65,1.06,1.9.4,2.77-.65.88-1.9,1.06-2.77.4Z"/>
    <path class="cls-2" d="m141.96,366.71c-.88-.65-1.06-1.9-.4-2.77s1.9-1.06,2.77-.4c.88.65,1.06,1.9.4,2.77-.65.88-1.9,1.06-2.77.4Z"/>
    <path class="cls-2" d="m133.13,372.58c-.88-.65-1.06-1.9-.4-2.77.65-.88,1.9-1.06,2.77-.4s1.06,1.9.4,2.77c-.65.88-1.9,1.06-2.77.4Z"/>
    <path class="cls-2" d="m124.51,377.39c-.88-.65-1.06-1.9-.4-2.77.65-.88,1.9-1.06,2.77-.4s1.06,1.9.4,2.77-1.9,1.06-2.77.4Z"/>
    <path class="cls-2" d="m116.38,382.81c-.88-.65-1.06-1.9-.4-2.77s1.9-1.06,2.77-.4,1.06,1.9.4,2.77-1.9,1.06-2.77.4Z"/>
    <path class="cls-2" d="m107.55,388.68c-.88-.65-1.06-1.9-.4-2.77.65-.88,1.9-1.06,2.77-.4.88.65,1.06,1.9.4,2.77-.65.88-1.9,1.06-2.77.4Z"/>
    <path class="cls-2" d="m309.63,300.97c-.61-.87-.4-2.08.47-2.69.87-.61,2.08-.4,2.69.47s.4,2.08-.47,2.69c-.87.61-2.08.4-2.69-.47Z"/>
    <path class="cls-2" d="m300.29,303.55c-.61-.87-.4-2.08.47-2.69.87-.61,2.08-.4,2.69.47.61.87.4,2.08-.47,2.69-.87.61-2.08.4-2.69-.47Z"/>
    <path class="cls-2" d="m291.61,305.94c-.61-.87-.4-2.08.47-2.69.87-.61,2.08-.4,2.69.47.61.87.4,2.08-.47,2.69s-2.08.4-2.69-.47Z"/>
    <path class="cls-2" d="m357.48,288.3c-.61-.87-.4-2.08.48-2.69.87-.61,2.08-.4,2.69.48.61.87.4,2.08-.48,2.69-.87.61-2.08.4-2.69-.48Z"/>
    <path class="cls-2" d="m348.3,290.83c-.61-.87-.4-2.08.48-2.69s2.08-.4,2.69.48.4,2.08-.48,2.69-2.08.4-2.69-.48Z"/>
    <path class="cls-2" d="m338.96,293.39c-.61-.87-.4-2.08.48-2.69s2.08-.4,2.69.48.4,2.08-.48,2.69c-.87.61-2.08.4-2.69-.48Z"/>
    <path class="cls-2" d="m330.02,295.85c-.61-.87-.4-2.08.48-2.69s2.08-.4,2.69.48.4,2.08-.48,2.69c-.87.61-2.08.4-2.69-.48Z"/>
    <path class="cls-2" d="m321.15,298.28c-.61-.87-.4-2.08.48-2.69s2.08-.4,2.69.48c.61.87.4,2.08-.48,2.69s-2.08.4-2.69-.48Z"/>
    <path class="cls-2" d="m374.83,283.44c-.61-.87-.4-2.08.48-2.69.87-.61,2.08-.4,2.69.48s.4,2.08-.48,2.69-2.08.4-2.69-.48Z"/>
    <path class="cls-2" d="m366.16,285.82c-.61-.87-.4-2.08.48-2.69s2.08-.4,2.69.48.4,2.08-.48,2.69c-.87.61-2.08.4-2.69-.48Z"/>
    <path class="cls-2" d="m214.1,249.59c-.77-.73-.81-1.96-.07-2.73.73-.77,1.96-.81,2.73-.07.77.73.81,1.96.07,2.73-.73.77-1.96.81-2.73.07Z"/>
    <path class="cls-2" d="m205.6,253.89c-.77-.73-.81-1.96-.07-2.73.73-.77,1.96-.81,2.73-.07.77.73.81,1.96.07,2.73-.73.77-1.96.81-2.73.07Z"/>
    <path class="cls-2" d="m196.96,258.27c-.77-.73-.81-1.96-.07-2.73s1.96-.81,2.73-.07c.77.73.81,1.96.07,2.73-.73.77-1.96.81-2.73.07Z"/>
    <path class="cls-2" d="m188.7,262.46c-.77-.73-.81-1.96-.07-2.73.74-.77,1.96-.81,2.73-.07.77.73.81,1.96.07,2.73-.73.77-1.96.81-2.73.07Z"/>
    <path class="cls-2" d="m180.49,266.62c-.77-.73-.81-1.96-.07-2.73.73-.77,1.96-.81,2.73-.07.77.73.81,1.96.07,2.73-.73.77-1.96.81-2.73.07Z"/>
    <path class="cls-2" d="m171.99,270.93c-.77-.73-.81-1.96-.07-2.73.73-.77,1.96-.81,2.73-.07.77.73.81,1.96.07,2.73-.73.77-1.96.81-2.73.07Z"/>
    <path class="cls-2" d="m162.77,275.6c-.77-.73-.81-1.96-.07-2.73.73-.77,1.96-.81,2.73-.07.77.73.81,1.96.07,2.73-.73.77-1.96.81-2.73.07Z"/>
    <path class="cls-2" d="m153.46,280.31c-.77-.73-.81-1.96-.07-2.73.73-.77,1.96-.81,2.73-.07.77.73.81,1.96.07,2.73-.73.77-1.96.81-2.73.07Z"/>
    <path class="cls-2" d="m238.78,236.98c-.77-.73-.81-1.96-.07-2.73.73-.77,1.96-.81,2.73-.07.77.73.81,1.96.07,2.73-.73.77-1.96.81-2.73.07Z"/>
    <path class="cls-2" d="m230.13,241.36c-.77-.73-.81-1.96-.07-2.73.73-.77,1.96-.81,2.73-.07.77.73.81,1.96.07,2.73-.73.77-1.96.81-2.73.07Z"/>
    <path class="cls-2" d="m222.1,245.43c-.77-.73-.81-1.96-.07-2.73.73-.77,1.96-.81,2.73-.07.77.73.81,1.96.07,2.73-.73.77-1.96.81-2.73.07Z"/>
    <path class="cls-2" d="m283.15,215.04c-.77-.74-.8-1.96-.07-2.73.74-.77,1.96-.8,2.73-.07.77.74.8,1.96.07,2.73-.74.77-1.96.8-2.73.07Z"/>
    <path class="cls-2" d="m274.65,219.34c-.77-.74-.8-1.96-.07-2.73s1.96-.8,2.73-.07.8,1.96.07,2.73c-.74.77-1.96.8-2.73.07Z"/>
    <path class="cls-2" d="m266.01,223.71c-.77-.74-.8-1.96-.07-2.73.74-.77,1.96-.8,2.73-.07.77.74.8,1.96.07,2.73-.74.77-1.96.8-2.73.07Z"/>
    <path class="cls-2" d="m257.74,227.89c-.77-.74-.8-1.96-.07-2.73s1.96-.8,2.73-.07c.77.74.8,1.96.07,2.73s-1.96.8-2.73.07Z"/>
    <path class="cls-2" d="m249.53,232.05c-.77-.74-.8-1.96-.07-2.73s1.96-.8,2.73-.07c.77.74.8,1.96.07,2.73-.74.77-1.96.8-2.73.07Z"/>
    <path class="cls-2" d="m299.19,206.82c-.77-.74-.8-1.96-.07-2.73s1.96-.8,2.73-.07c.77.74.8,1.96.07,2.73s-1.96.8-2.73.07Z"/>
    <path class="cls-2" d="m291.16,210.89c-.77-.74-.8-1.96-.07-2.73.74-.77,1.96-.8,2.73-.07s.8,1.96.07,2.73c-.74.77-1.96.8-2.73.07Z"/>
    <path class="cls-2" d="m137.49,300.62c-.65.88-1.89,1.07-2.77.42-.88-.65-1.07-1.89-.42-2.77.65-.88,1.89-1.07,2.77-.42.88.65,1.07,1.89.42,2.77Z"/>
    <polygon class="cls-2" points="138.83 283.07 147.32 278.83 143.96 285.61 150.4 294.96 139.78 289.71 132.86 294.57 136.91 286.38 132.57 280.83 138.83 283.07"/>
    <polygon class="cls-2" points="375.19 94.87 383.69 90.63 380.33 97.42 386.76 106.76 376.15 101.51 369.23 106.37 373.28 98.18 368.93 92.63 375.19 94.87"/>
    <path class="cls-2" d="m119.45,335.6c-1.06-.07-1.87-1-1.79-2.06.08-1.06,1-1.87,2.06-1.79,1.06.07,1.87,1,1.79,2.06-.08,1.06-1,1.87-2.06,1.79Z"/>
    <path class="cls-2" d="m115.62,344.32c-1.06-.07-1.87-1-1.79-2.06.08-1.06,1-1.87,2.06-1.79,1.06.07,1.87,1,1.79,2.06-.08,1.06-1,1.87-2.06,1.79Z"/>
    <path class="cls-2" d="m111.74,353.19c-1.06-.07-1.87-1-1.79-2.06.08-1.06,1-1.87,2.06-1.79,1.06.07,1.87,1,1.79,2.06-.08,1.06-1,1.87-2.06,1.79Z"/>
    <path class="cls-2" d="m108.02,361.68c-1.06-.07-1.87-1-1.79-2.06.08-1.06,1-1.87,2.06-1.79,1.06.07,1.87,1,1.79,2.06-.08,1.06-1,1.87-2.06,1.79Z"/>
    <path class="cls-2" d="m104.33,370.11c-1.06-.08-1.87-1-1.79-2.06.08-1.06,1-1.87,2.06-1.79,1.06.08,1.87,1,1.79,2.06-.08,1.06-1,1.87-2.06,1.79Z"/>
    <path class="cls-2" d="m100.51,378.84c-1.06-.08-1.87-1-1.79-2.06.08-1.06,1-1.87,2.06-1.79,1.06.08,1.87,1,1.79,2.06-.07,1.06-1,1.87-2.06,1.79Z"/>
    <path class="cls-2" d="m354.57,94.36c.09,1.06-.71,2-1.77,2.08-1.06.09-2-.71-2.08-1.77-.09-1.06.71-2,1.77-2.08,1.06-.09,2,.71,2.08,1.77Z"/>
    <path class="cls-2" d="m364.65,97.05c.09,1.06-.71,2-1.77,2.08-1.06.09-2-.71-2.08-1.77-.09-1.06.71-2,1.77-2.08,1.06-.09,2,.71,2.08,1.77Z"/>
    <path class="cls-2" d="m130.48,310.17c-1.06-.07-1.87-1-1.79-2.06.08-1.06,1-1.87,2.06-1.79,1.06.07,1.87,1,1.79,2.06-.08,1.06-1,1.87-2.06,1.79Z"/>
    <path class="cls-2" d="m126.59,319.05c-1.06-.08-1.87-1-1.79-2.06.07-1.06,1-1.87,2.06-1.79,1.06.07,1.87,1,1.79,2.06-.07,1.06-1,1.87-2.06,1.79Z"/>
    <path class="cls-2" d="m122.98,327.3c-1.06-.07-1.87-1-1.79-2.06.07-1.06,1-1.87,2.06-1.79,1.06.07,1.87,1,1.79,2.06-.07,1.06-1,1.87-2.06,1.79Z"/>
    <polygon class="cls-2" points="365.25 221.22 356.4 217.16 363.98 215.48 367.32 204.34 369.94 216.19 378.27 218.61 369.12 220.63 367.47 227.67 365.25 221.22"/>
    <polygon class="cls-2" points="98.66 398.33 104.85 404.36 95.88 402.64 92.6 407.16 93.86 400.53 85.68 395.85 92.69 397.19 94.9 388.76 96.55 393.39 102.68 393.32 98.66 398.33"/>
    <polygon class="cls-2" points="299.56 157.3 296.56 149.53 303.72 154.65 308.42 152.02 304.64 157.31 309.91 164.7 304.32 160.71 298.99 167.19 299.41 162.47 294.01 160.06 299.56 157.3"/>
    <path class="cls-2" d="m196.47,328.2c.33-1.36,3.67-10.14,3.67-10.14l.96,8.87,8.19-1.12-5.57,4.16,7.26,3.69-6.95.95,4.74,8.12-6.76-4.77-1.71,7.02-1.8-7.4-8.52,3.44,6.24-5.92-10.7-2.37,8.08-1.63-3.38-6.82,6.24,3.92Z"/>
    <path class="cls-2" d="m308.23,143.21c1.08.19,1.8,1.21,1.62,2.29-.19,1.08-1.21,1.8-2.29,1.62-1.08-.19-1.8-1.21-1.62-2.29.19-1.08,1.21-1.8,2.29-1.62Z"/>
    <path class="cls-2" d="m313.03,134.7c1.08.19,1.8,1.21,1.62,2.29-.19,1.08-1.21,1.8-2.29,1.62-1.08-.19-1.8-1.21-1.62-2.29.19-1.08,1.21-1.8,2.29-1.62Z"/>
    <path class="cls-2" d="m318.23,125.46c1.08.19,1.8,1.21,1.62,2.29s-1.21,1.8-2.29,1.62c-1.08-.19-1.8-1.21-1.62-2.29s1.21-1.8,2.29-1.62Z"/>
    <path class="cls-2" d="m323.49,116.14c1.08.19,1.8,1.21,1.62,2.29-.19,1.08-1.21,1.8-2.29,1.62s-1.8-1.21-1.62-2.29c.19-1.08,1.21-1.8,2.29-1.62Z"/>
    <path class="cls-2" d="m328.43,107.38c1.08.19,1.8,1.21,1.62,2.29-.19,1.08-1.21,1.8-2.29,1.62-1.08-.19-1.8-1.21-1.62-2.29.19-1.08,1.21-1.8,2.29-1.62Z"/>
  </g>
</svg>