<?xml version="1.0" encoding="UTF-8"?>
<svg xmlns="http://www.w3.org/2000/svg" xmlns:xlink="http://www.w3.org/1999/xlink" viewBox="0 0 1200 800">
  <defs>
    <style>
      .cls-1 {
        fill: #fff;
      }

      .cls-2 {
        fill: none;
      }

      .cls-2, .cls-3 {
        opacity: .42;
      }

      .cls-3, .cls-4 {
        fill: #a1d9d4;
      }

      .cls-5 {
        fill: url(#linear-gradient);
      }
    </style>
    <linearGradient id="linear-gradient" x1="602.81" y1="-184.53" x2="594.43" y2="1557.45" gradientUnits="userSpaceOnUse">
      <stop offset="0" stop-color="#000536"/>
      <stop offset=".49" stop-color="#30295e"/>
      <stop offset="1" stop-color="#215699"/>
    </linearGradient>
  </defs>
  <g id="bg">
    <rect class="cls-5" width="1200" height="800"/>
  </g>
  <g id="object">
    <g>
      <path class="cls-1" d="m346.6,203.76c2.75,0,2.76-4.28,0-4.28s-2.76,4.28,0,4.28h0Z"/>
      <path class="cls-1" d="m321.21,32.78c2.75,0,2.76-4.28,0-4.28s-2.76,4.28,0,4.28h0Z"/>
      <path class="cls-1" d="m96.06,64.41c2.06,0,2.07-3.21,0-3.21s-2.07,3.21,0,3.21h0Z"/>
      <path class="cls-1" d="m256.88,336.96c2.06,0,2.07-3.21,0-3.21s-2.07,3.21,0,3.21h0Z"/>
      <path class="cls-1" d="m612.38,639.97c2.06,0,2.07-3.21,0-3.21s-2.07,3.21,0,3.21h0Z"/>
      <path class="cls-1" d="m1080.97,293.15c2.75,0,2.76-4.28,0-4.28s-2.76,4.28,0,4.28h0Z"/>
      <path class="cls-1" d="m871.38,345.42c2.06,0,2.07-3.21,0-3.21s-2.07,3.21,0,3.21h0Z"/>
      <path class="cls-1" d="m839.22,86.95c2.75,0,2.76-4.28,0-4.28s-2.76,4.28,0,4.28h0Z"/>
      <path class="cls-1" d="m1145.62,161.43c2.75,0,2.76-4.28,0-4.28s-2.76,4.28,0,4.28h0Z"/>
      <path class="cls-1" d="m1157.47,421.06c1.38,0,1.38-2.14,0-2.14s-1.38,2.14,0,2.14h0Z"/>
      <path class="cls-1" d="m947.83,510.53c1.38,0,1.38-2.14,0-2.14s-1.38,2.14,0,2.14h0Z"/>
      <path class="cls-1" d="m608.03,408.8c1.38,0,1.38-2.14,0-2.14s-1.38,2.14,0,2.14h0Z"/>
      <path class="cls-1" d="m535.76,491.64c1.38,0,1.38-2.14,0-2.14s-1.38,2.14,0,2.14h0Z"/>
      <path class="cls-1" d="m899.67,670.96c1.38,0,1.38-2.14,0-2.14s-1.38,2.14,0,2.14h0Z"/>
      <path class="cls-1" d="m704.69,773.69c2.06,0,2.07-3.21,0-3.21s-2.07,3.21,0,3.21h0Z"/>
      <path class="cls-1" d="m185.78,757.94c1.38,0,1.38-2.14,0-2.14s-1.38,2.14,0,2.14h0Z"/>
      <path class="cls-1" d="m41.89,682.83c2.75,0,2.76-4.28,0-4.28s-2.76,4.28,0,4.28h0Z"/>
      <path class="cls-1" d="m886.04,624.79c2.75,0,2.76-4.28,0-4.28s-2.76,4.28,0,4.28h0Z"/>
      <path class="cls-1" d="m1126.01,730.65c2.75,0,2.76-4.28,0-4.28s-2.76,4.28,0,4.28h0Z"/>
      <path class="cls-1" d="m33.43,373.04c2.75,0,2.76-4.28,0-4.28s-2.76,4.28,0,4.28h0Z"/>
      <path class="cls-1" d="m662.82,509.46c2.75,0,2.76-4.28,0-4.28s-2.76,4.28,0,4.28h0Z"/>
      <path class="cls-1" d="m337.99,441.64c2.06,0,2.07-3.21,0-3.21s-2.07,3.21,0,3.21h0Z"/>
    </g>
    <g>
      <path class="cls-3" d="m775.95,682.5c-.47-5.26-1.05-10.58-2.78-15.59-1.4-4.06-3.57-7.9-6.68-10.9-3.25-3.14-6.95-4.45-11.26-5.46-2.48-.58-4.76-1.39-6.47-3.37-1.7-1.96-2.72-4.45-3.79-6.78-2.39-5.21-4.72-10.45-6.98-15.71-4.59-10.69-8.9-21.5-12.94-32.41-1.91-5.16-3.76-10.34-5.55-15.55-.85-2.48-1.91-5-2.43-7.57-.66-3.26.63-5.77,2.33-8.45,5.59-8.85,11.23-17.68,16.18-26.91,4.81-8.97,9.03-18.33,11.78-28.15.3-1.07.58-2.14.85-3.23-.41.5-.97.88-1.68,1.06-1.91,7.32-4.65,14.42-7.89,21.26-4.3,9.09-9.43,17.76-14.74,26.29-2.47,3.96-5.5,7.85-7.45,12.08-2.08,4.51.02,8.97,1.51,13.32,7,20.44,14.95,40.56,23.83,60.26,1.82,4.04,3.42,9.1,6.74,12.21,3.11,2.91,7.45,2.76,11.22,4.25,9.62,3.8,13.09,14.77,14.28,24.11.3,2.34.58,4.71.7,7.06.08,1.66-.1,3.24-1.91,3.85-1.41.47-3.06.45-4.53.58-5.34.47-10.69.74-16.05.79-5.54.06-11.1-.07-16.63-.5-2.43-.19-4.98-.52-6.93-2.1-1.91-1.54-2.92-3.87-3.88-6.06-7.55-17.14-14.13-34.7-22.11-51.65.01.72-.16,1.45-.52,2.07,6.22,13.33,11.63,27.04,17.32,40.59.94,2.24,1.89,4.48,2.85,6.71.99,2.29,1.88,4.72,3.24,6.83,2.48,3.82,6.29,4.7,10.59,5.01,11.38.8,22.86.61,34.21-.53,1.63-.16,3.53-.26,4.71-1.56,1.43-1.58,1.02-3.94.84-5.86Z"/>
      <g>
        <path class="cls-3" d="m283.67,606c-3.58,5.68-5.21,12.89-3.3,19.44,1.76,6.04,6.42,10.58,11.82,13.56,5.84,3.22,12.43,4.83,18.96,5.92,6.98,1.17,14.07,1.66,21.15,1.48,28.7-.72,56.91-12.53,75.96-34.28,10.42-11.89,18.07-25.93,24.31-40.38,6.63-15.35,11.73-31.3,15.87-47.49,8.41-32.91,12.93-66.63,19.16-99.99.76-4.06,1.54-8.11,2.36-12.16,1.29-6.48,1.98-13.17,4.51-19.34.96-2.35,2.42-4.7,4.26-6.57,0,0,0-.02-.01-.02-.2-.6-.18-1.31-.04-1.95-5.2,4.32-7.03,11.71-8.3,18.04-.63,3.15-1.1,6.33-1.73,9.48-6.59,32.65-10.91,65.73-18.2,98.25-3.59,16.03-7.92,31.92-13.59,47.36-5.49,14.94-12.12,29.68-21.12,42.87-8.46,12.4-19.18,22.98-32.17,30.56-12.37,7.22-26.29,11.73-40.49,13.47-13.78,1.69-28.52,1.13-41.85-2.97-6.27-1.93-12.72-5.03-16.68-10.46-4.44-6.07-4.51-13.98-1.53-20.71,6.58-14.86,23.47-18.57,37.72-21.85,5.79-1.33,11.85-2.93,16.98-6.06-.33.03-.66.04-.99.04-.51,0-.99-.11-1.43-.31-4.09,2.16-8.64,3.52-13.13,4.6-14.04,3.39-30.12,6.2-38.49,19.47Z"/>
        <path class="cls-3" d="m485.49,457.91c-.04-.06-.06-.11-.1-.17-3.48,7.87-7.06,15.7-10.1,23.71-6.82,18-11.64,36.65-17.13,55.08-5.49,18.41-11.67,36.79-21.21,53.55-9.65,16.94-22.87,31.64-38.97,42.67-8.38,5.74-17.45,10.54-27.02,13.95-10.3,3.68-21.07,5.47-32,5.64-11.39.18-22.75-1.17-33.99-2.91-9.47-1.47-19.69-2.71-26.54-10.13-5.58-6.04-8.34-14.82-6.82-22.94,1.72-9.15,8.55-16.27,16.11-21.19,8.49-5.52,18.24-8.52,27.53-12.38,2.81-1.17,5.54-2.45,8.2-3.86-.44-.22-.87-.48-1.29-.78-9.1,4.63-19,7.45-28.17,11.93-8.01,3.91-15.79,9.44-20.37,17.26-4.19,7.16-4.85,15.71-1.93,23.46,2.99,7.97,9.17,13.93,17.21,16.68,5.17,1.77,10.67,2.47,16.05,3.3,5.61.87,11.24,1.63,16.9,2.17,11.29,1.06,22.73,1.16,33.92-.81,10.84-1.91,21.26-5.83,30.95-11,17.48-9.32,32.71-22.78,44.14-38.95,11.47-16.23,18.94-34.83,25-53.64,6.23-19.35,11.08-39.12,17.7-58.35,3.42-9.95,7.53-19.59,11.79-29.2.32-.71.63-1.43.95-2.14-.32-.29-.6-.62-.82-.96Z"/>
      </g>
      <g class="cls-2">
        <path class="cls-4" d="m636.38,282.27c5.75-2.23,11.67-4.01,17.7-5.29-.03,2.41-.43,4.81-1.21,7.08-.3.87-.75,1.84-1.64,2.09-.89.26-1.95-.91-1.3-1.56-1.82,2.2-3.2,4.76-4.04,7.49-.43,1.4-1,3.11-2.45,3.33-.81.12-1.59-.31-2.3-.72-1.44-.84-2.88-1.69-4.31-2.53l-.46-9.89Z"/>
      </g>
      <g class="cls-2">
        <path class="cls-4" d="m700.21,232.5c-4.9,5.23-9.21,11.02-12.8,17.23-.21.37-.43.8-.28,1.19.17.43.68.6,1.14.7,3.05.65,6.26.76,9.26-.09,3-.84,5.78-2.69,7.4-5.34,2.03-3.32,2.09-7.44,1.92-11.32-.08-1.79-.25-3.72-1.45-5.05-.23-.25-.51-.49-.85-.52-.31-.04-.62.1-.89.25-1.04.56-1.96,1.32-2.7,2.24l-.75.73Z"/>
      </g>
      <path class="cls-3" d="m376.28,558.69c3.56-8.9,4-18.99,3.01-28.44-.91-8.76-3.27-17.35-7.06-25.3-7.48-15.7-20.64-28.12-36.98-34.21-9.17-3.42-19.09-4.71-28.81-3.49-.6.07-.88.68-.48,1.16,5.48,6.63,14.17,8.97,20.42,14.64,6.66,6.04,10.31,14.96,9.95,23.92.42-.11.84-.23,1.26-.34-4.84-7.91-12.83-13.52-21.93-15.34-.52-.1-1.14.47-.77,1,4.59,6.5,9.18,13.25,11.81,20.82,2.58,7.41,2.56,14.92-.56,22.15-4.59,10.64-14.62,21.13-10.9,33.56,2.37,7.9,8.57,13,16.74,13.94,8.53.98,17.35-1.84,24.84-5.73,7.73-4.01,15.96-10.04,19.44-18.32.34-.8-.97-1.15-1.31-.36-3.01,7.16-10.01,12.51-16.54,16.27-7.32,4.21-15.95,7.32-24.5,6.94-8.3-.37-14.94-5.01-17.36-13.1-3.69-12.33,6.93-22.97,11.23-33.64,6.34-15.72-2.85-30.62-11.73-43.21-.26.33-.51.66-.77,1,8.76,1.75,16.45,7.09,21.12,14.71.36.58,1.24.33,1.26-.34.34-8.74-3-17.48-9.15-23.72-6.35-6.44-15.82-8.77-21.63-15.8l-.48,1.16c16.82-2.1,34.05,3.44,47.05,14.2,13.29,11.01,21.5,27.23,24.03,44.18,1.54,10.31,1.36,21.58-2.55,31.35-.32.81.99,1.16,1.31.36Z"/>
      <path class="cls-3" d="m700.37,176.59c-10.3,7.6-19.92,16.46-28.46,25.97-6.47,7.2-12.6,15.1-16.53,24.02-.85,1.93-1.62,3.92-2.19,5.96-.37,1.35-.9,2.61-.98,4.04-.15,2.6.91,4.62,2.14,6.81.54.96.78,2,.8,3.1.07,3.37-1.5,6.71-3.11,9.58-2.77,4.94-6.41,9.36-10.23,13.52-1.19,1.3-2.42,2.57-3.66,3.83-.42.42-.94.79-1.18,1.34-.15.34-.19.78-.26,1.14-.4,1.95-.65,3.93-.8,5.92-.5,6.85.39,13.87,2.99,20.25,1.63,4,3.91,7.69,6.77,10.93,1.66,1.88,3.51,3.59,5.49,5.14.99.77,2,1.5,3.05,2.19.74.49,2.17,1.78,3.1,1.77.83,0,1.99-.88,2.7-1.21,2.29-1.07,4.58-2.12,6.88-3.15,7.37-3.31,14.81-6.47,22.35-9.38,7.93-3.07,16-5.97,24.28-7.95,3.24-.77,6.55-1.45,9.88-1.56,3.44-.12,6.89.37,10.33.39,2.76.02,5.59-.16,8.17-1.23,2.52-1.05,4.57-2.89,6.27-4.99,5.66-7,8.86-15.71,13.13-23.56,6.13-11.27,13.37-22.3,12.95-35.65-.27-8.47-3.17-16.65-6.86-24.2-2.74-5.61-5.98-10.98-9.44-16.18-3.76-5.64-8.34-10.98-10.86-17.35-2.64-6.68-1.5-13.88-3.22-20.75-.71-2.82-1.3-6.25-3.35-8.46-1.66-1.79-4.16-2.64-6.56-2.63-5.77.04-10.68,4.79-13.57,9.37-1.55,2.47-2.7,5.22-3.32,8.07-.5,2.3-.22,4.72-.77,6.99-.7,2.9-4.21,3.39-6.64,4.19-3.19,1.05-6.33,2.15-9.3,3.74-.77.41-.09,1.58.68,1.17,3.25-1.74,6.73-2.85,10.22-4.01,1.98-.66,4.43-1.2,5.66-3.07.96-1.47.92-3.33,1.01-5.02.17-3.09.9-6.07,2.24-8.86,2.54-5.31,8.05-11.72,14.57-11.18,4.06.33,5.89,3.18,6.92,6.79,1.03,3.59,1.81,7.11,1.98,10.85.15,3.3.21,6.58,1.03,9.79.72,2.81,1.9,5.48,3.32,8,3.26,5.77,7.5,10.95,11.05,16.54,5.44,8.58,10.44,17.82,12.72,27.79,1.52,6.63,1.54,13.45-.31,20.02-1.68,5.98-4.67,11.46-7.69,16.84-3.98,7.09-7.45,14.42-11.33,21.56-2.97,5.46-6.54,12.08-13.11,13.59-6.06,1.39-12.36-.41-18.47.28-7.34.83-14.53,3.14-21.48,5.52-13.6,4.66-26.87,10.36-39.89,16.44-.61.29-1.23.57-1.84.87-.13.06-.34.22-.48.23-.63.05.6.04.01-.18-1.16-.42-2.36-1.44-3.36-2.14-1.18-.82-2.31-1.7-3.4-2.64-1.79-1.55-3.45-3.24-4.92-5.09-5.04-6.31-7.74-14.15-8.26-22.17-.18-2.77-.12-5.56.17-8.32.15-1.45.2-3.31.77-4.68.37-.9,1.17-1.38,1.89-2.12,2.23-2.29,4.39-4.65,6.42-7.11,2.99-3.62,5.84-7.47,7.86-11.73,1.21-2.55,2.27-5.42,2.14-8.29-.05-1.06-.26-2.11-.72-3.07-1.1-2.29-2.43-4.12-2.2-6.81.12-1.37.69-2.75,1.09-4.06.67-2.2,1.52-4.34,2.5-6.41,1.98-4.18,4.45-8.12,7.15-11.86,9.47-13.16,21.69-24.52,34.41-34.5.77-.6,1.54-1.2,2.33-1.79.7-.51.02-1.69-.68-1.17Z"/>
      <path class="cls-3" d="m671.03,202.21c-5.95-.45-10.92-4.03-16.4-6.03-4.32-1.58-9.26-1.35-9.94,4.12-.36,2.87-.24,5.91-.11,8.8.12,2.71.45,5.47,1.66,7.94,2.07,4.22,6.49,6.87,11.13,7.06.87.03.87-1.32,0-1.36-4.66-.19-8.92-3.18-10.46-7.62-.89-2.54-.97-5.28-1.01-7.94-.04-2.39-.23-5.02.25-7.37,1.24-6.15,9.28-1.96,12.63-.37,3.94,1.87,7.85,3.8,12.27,4.13.87.07.87-1.29,0-1.36h0Z"/>
      <path class="cls-3" d="m637.24,282.92c5.76-2.22,11.67-3.99,17.7-5.29-.29-.22-.57-.44-.86-.65-.04,1.59-.2,3.15-.56,4.7-.15.64-.31,1.28-.52,1.9-.1.35-.23.69-.39,1.02-.23.76-.7.88-1.41.34.38-.64-.57-1.44-1.07-.82-1.81,2.26-3.21,4.74-4.12,7.5-.67,2.05-1.12,3.69-3.84,2.5-1.49-.65-2.91-1.71-4.31-2.53-.75-.44-1.44.73-.68,1.17,1.75,1.03,3.53,2.37,5.42,3.1,1.18.45,2.35.28,3.23-.66.95-1.03,1.24-2.51,1.69-3.79.82-2.3,2.05-4.42,3.57-6.32-.36-.27-.71-.55-1.07-.82-1.02,1.73,1.28,3.26,2.77,2.2,1.08-.77,1.46-2.26,1.79-3.46.54-1.96.79-3.98.85-6.01.01-.46-.44-.74-.86-.65-6.03,1.31-11.94,3.07-17.7,5.29-.81.31-.46,1.62.36,1.31h0Z"/>
      <path class="cls-3" d="m644.39,295.05c.46,2.72,1.02,5.43,1.74,8.1.48,1.76.98,2.7,2.71,3.42,5.05,2.09,10.24,3.89,15.35,5.83.82.31,1.17-1,.36-1.31-4.27-1.62-8.54-3.24-12.81-4.87-.97-.37-2.21-.63-3.08-1.22-1.1-.75-1.27-2.38-1.57-3.56-.56-2.23-1.01-4.49-1.39-6.76-.14-.86-1.45-.49-1.31.36h0Z"/>
      <path class="cls-3" d="m647.04,304.61c-.43,2.35-.87,4.69-1.3,7.04-.16.85,1.15,1.22,1.31.36.43-2.35.87-4.69,1.3-7.04.16-.85-1.15-1.22-1.31-.36h0Z"/>
      <path class="cls-3" d="m700.41,232.02c-3.85,4.13-7.35,8.58-10.42,13.32-.75,1.15-1.47,2.31-2.16,3.5-.38.66-.94,1.45-.66,2.26.57,1.72,4.03,1.61,5.44,1.68,4.84.25,9.98-1.35,12.98-5.35,2.94-3.91,3.06-9.53,2.51-14.2-.18-1.52-.88-4.48-2.86-4.63-1.91-.15-3.62,2.24-4.82,3.41-.63.61.33,1.57.96.96,1.13-1.1,3.48-4.28,4.73-1.96,1.12,2.06.88,5.1.8,7.38-.18,5.44-2.48,10.17-7.82,12.14-2.74,1.01-5.76,1.11-8.63.67-.74-.11-1.76-.03-1.77-1.14,0-.42.77-1.3.97-1.63.66-1.08,1.33-2.15,2.03-3.21,2.88-4.35,6.14-8.43,9.69-12.25.59-.64-.36-1.6-.96-.96Z"/>
      <path class="cls-3" d="m827.71,399.03c2.09,7.09,3.13,14.6,3.87,21.93,1.77,17.51.92,35.35-2.92,52.53-1.18,5.26-2.63,10.46-4.38,15.57-.45,1.32-.92,2.64-1.42,3.95-.33.89-.9,1.89-1.04,2.83-.01.07,0,.14,0,.21-.13,1.3.02,2.7.04,4,.1,6.93.32,13.86.62,20.79,1.01,22.67,2.87,45.39,6.65,67.78,1.89,11.21,4.26,22.42,7.87,33.21,2.75,8.22,6.21,16.73,12.01,23.31,1.4,1.59,2.88,3.48,5.03,3.76,2.28.29,4.65,1.01,6.76,2,9.12,4.29,12.87,13.68,12.91,23.34.01,4.04-.52,8.05-1.32,12,.22-.17.44-.33.65-.5-5.24.23-10.5.2-15.74,0-4.34-.16-8.69-.44-12.99-1.08-3.41-.5-7.17-1.11-10.2-2.85-2.29-1.31-4.24-3.5-6.11-5.38-3.59-3.62-6.98-7.43-10.27-11.32-10.33-12.23-19.62-25.36-27.87-39.07-10.6-17.62-19.49-36.32-25.84-55.9-7.04-21.7-10.9-44.49-10.19-67.34.09-2.96.26-5.92.5-8.87.07-.87-1.29-.87-1.36,0-1.87,23.23,1,46.62,7.42,68.98,5.83,20.3,14.45,39.76,24.93,58.08,8.36,14.61,17.91,28.56,28.56,41.6,3.62,4.43,7.36,8.76,11.31,12.9,2.19,2.29,4.41,4.65,6.92,6.6,1.81,1.4,4,2.17,6.2,2.75,3.89,1.03,7.94,1.5,11.94,1.83,7.15.6,14.37.67,21.54.45.42-.01.83-.03,1.25-.04.28-.01.59-.2.65-.5,2.24-11.05,2.59-24.57-6.34-32.91-2.47-2.31-5.45-4-8.65-5.08-1.78-.6-3.55-.77-5.37-1.15-.42-.09.25.35-.21-.21-.53-.64-1.33-1.16-1.93-1.76-1.34-1.35-2.55-2.83-3.64-4.39-2.52-3.59-4.52-7.55-6.23-11.59-4.26-10.04-6.92-20.76-9.08-31.42-4.67-23.12-6.81-46.77-8.08-70.3-.43-8.04-.74-16.08-.9-24.13-.04-2.12-.08-4.25-.09-6.37,0-.43-.06-.9,0-1.33.04-.34,0,.1.24-.63.92-2.88,2.12-5.68,3.04-8.56,5.75-17.93,7.99-36.93,7.2-55.72-.44-10.39-1.66-20.9-4.26-30.99-.12-.47-.24-.95-.38-1.42-.25-.84-1.56-.48-1.31.36h0Z"/>
      <path class="cls-3" d="m707.23,473.94c.03,3.54.03,7.07.03,10.61,0,9.31-.07,18.61-.18,27.92-.16,12.96-.41,25.92-.78,38.88-.42,14.62-.98,29.24-1.78,43.84-.77,14.26-1.75,28.51-3.16,42.72-1.19,11.95-2.62,23.92-4.99,35.71-1.48,7.33-3.04,15.55-7.14,21.95-.31.49-.67.95-1.02,1.42-.13.18-.63.57-.19.37-.08.04-.2.02-.29.04-1.39.31-2.88.39-4.29.56-6.21.74-12.46,1.25-18.72,1.43-7.3.21-14.79.13-21.95-1.44-5.03-1.1-11.51-3.29-12.41-9.17-.98-6.48,4.23-12.77,9.1-16.32,6.91-5.02,15.78-6.67,24-4.29,5.34,1.54,10.06,4.58,14.17,8.26.65.58,1.61-.37.96-.96-7.29-6.53-16.59-10.83-26.54-9.51-7.48.99-14.6,5.02-19.17,11.05-3.3,4.35-5.75,10.88-2.35,15.88,3.25,4.79,10.09,6.21,15.41,7,13.11,1.95,26.82.83,39.9-.89.83-.11,2.1-.04,2.83-.53.94-.63,1.69-2.16,2.24-3.11,1.75-3.05,2.92-6.44,3.92-9.8,3.05-10.2,4.63-20.86,6.01-31.39,1.82-13.97,3.02-28.01,3.98-42.06,1.04-15.19,1.77-30.4,2.32-45.62.52-14.2.87-28.4,1.11-42.6.18-10.95.3-21.9.34-32.86.02-5.46.03-10.92,0-16.39,0-.24,0-.49,0-.73,0-.87-1.36-.87-1.36,0h0Z"/>
      <path class="cls-3" d="m653.21,665.93c.6-13.62.94-27.26,1.17-40.89.44-25.73.52-51.52-1-77.21-.68-11.5-1.5-23.18-4.02-34.45-.19-.85-1.5-.49-1.31.36,2.21,9.89,3.05,20.1,3.73,30.2.86,12.84,1.22,25.71,1.39,38.58.3,23.08-.07,46.16-.8,69.23-.15,4.73-.31,9.46-.52,14.2-.04.87,1.32.87,1.36,0h0Z"/>
      <path class="cls-3" d="m619.75,412.15c.7,10,2.08,20,3.72,29.89,3.12,18.8,7.42,37.87,15.38,55.27,3.88,8.49,8.84,16.96,16.07,23.04.66.56,1.63-.4.96-.96-6.37-5.36-10.91-12.6-14.55-20.01-4.26-8.67-7.37-17.89-9.95-27.18-4.49-16.22-7.38-32.9-9.27-49.61-.39-3.47-.77-6.95-1.01-10.44-.06-.87-1.42-.87-1.36,0h0Z"/>
      <path class="cls-3" d="m548.87,492.58c.08-.34.34-1.1.34-1.08.04-.31.18-.13.08-.18.24.13-1.02-.06-.82-.14.04-.02.12.68.14,1.08.17,3.28-.12,6.62-.33,9.89-.53,8.2-1.3,16.38-2.09,24.55-1.19,12.33-2.88,24.44-5.64,36.53-2.67,11.73-6.27,23.29-8.61,35.1-4.44,22.47-3.09,45.53-5.82,68.2-1.25,10.42-4.34,21.06-14.49,26.02-4.9,2.39-10.42,3.31-15.78,3.99-5.45.69-11.05,1.39-16.55.79-3.07-.34-6.02-1.14-8.78-2.55.1.26.21.51.31.77,1.4-8.69,4.22-17.11,8.45-24.84,4.06-7.42,10.3-13.72,12.43-22.08,1.07-4.22,1.48-8.61,2.01-12.92.59-4.83,1.13-9.67,1.61-14.51.96-9.56,1.71-19.13,2.26-28.72,1.1-19.32,1.36-38.68.79-58.02-.29-9.75-.79-19.5-1.51-29.24-.62-8.45-.65-17.07-2.07-25.44-.66-3.89-1.71-7.7-3.32-11.31-1.95-4.37-4.4-8.49-6.26-12.92-3.39-8.07-5.8-16.54-7.19-25.19-2.38-14.8-1.7-30.02,1.41-44.67,1.95-9.18,4.79-18.25,8.69-26.8.52-1.14,1.06-3.1,1.96-4.02.55-.55,1.71-1.02,2.37-1.43.97-.62,1.95-1.23,2.92-1.84,2.03-1.27,4.07-2.52,6.12-3.77,3.96-2.4,7.95-4.74,11.97-7.04,20.1-11.48,40.93-22.05,62.41-30.71.34-.14.68-.27,1.02-.41.8-.31.45-1.63-.36-1.31-17.95,7.01-35.37,15.73-52.3,24.89-7.92,4.28-15.73,8.74-23.43,13.41-1.94,1.17-3.87,2.36-5.8,3.56-1.08.68-2.17,1.36-3.25,2.04-.85.54-2.06,1.03-2.74,1.77-.25.27-.39.68-.56,1-3.27,6.4-5.76,13.26-7.78,20.15-8.57,29.25-7.18,61.05,6.79,88.43,2.11,4.13,4.1,8.1,5.21,12.64,1.03,4.23,1.48,8.56,1.77,12.89.62,9.19,1.27,18.39,1.78,27.59,1.1,19.59,1.34,39.23.72,58.84-.62,19.58-2.1,39.13-4.43,58.58-.56,4.7-.97,9.49-2.15,14.08-1.14,4.45-3.42,8.26-6.03,12-4.88,7.01-9.05,14.24-11.78,22.38-1.38,4.09-2.39,8.29-3.07,12.55-.05.29.03.62.31.77,5.13,2.62,10.83,3.15,16.51,2.87,5.55-.27,11.21-.93,16.66-2.06,4.99-1.03,9.96-2.74,13.97-5.97,3.93-3.16,6.5-7.58,8.08-12.33,1.66-5,2.3-10.29,2.81-15.52.6-6.06.95-12.15,1.26-18.23.64-12.77,1.02-25.6,2.83-38.28,1.79-12.61,5.59-24.85,8.58-37.21,3.06-12.67,5.32-25.37,6.6-38.35.91-9.23,1.8-18.47,2.43-27.73.25-3.62.63-7.35.39-10.98-.05-.79-.35-2.91-1.63-1.81-.38.32-.7,1.24-.74,1.73,0,.05-.03.1-.04.14-.21.85,1.1,1.21,1.31.36h0Z"/>
      <path class="cls-3" d="m549.01,496.49c5.71-2.12,11.61-3.82,17.49-5.39,13.25-3.54,26.82-6.13,40.51-7.16,8.66-.66,17.38-.66,26.02.32.87.1.86-1.26,0-1.36-15.15-1.73-30.54-.46-45.52,2.16-11.08,1.94-22.04,4.64-32.76,8.06-2.04.65-4.09,1.32-6.1,2.06-.81.3-.46,1.61.36,1.31h0Z"/>
      <path class="cls-3" d="m714.74,85.66c19.04-1.16,38.78,1.94,56.2,9.84,17.74,8.05,31.95,21.78,48.72,31.45,9.92,5.72,20.7,9.62,31.44,13.47.12-.44.24-.87.36-1.31-4.43-1.51-9.72-1.44-14.34-1.39-4.3.04-10.4-.12-14.09,2.51-3.25,2.31-.19,6.36,1.51,8.66,3.68,4.99,8.11,9.42,12.37,13.9,11.33,11.92,19.47,27.18,25.37,42.45,3.47,8.99,6.1,18.36,7.51,27.9,1.59,10.78,1.53,21.71,2.47,32.55,1.74,20.1,8.35,41.34,24.77,54.3.1-.38.2-.76.3-1.13-3.82,1.55-8.07,1.79-11.97.33-3.22-1.21-5.95-3.49-9.25-4.5-4.52-1.37-8.41,1.01-10.41,5.04-2.09,4.22-2.57,9.08-3.26,13.67-.91,6.07-2.99,11.89-5.19,17.6-5.74,14.93-14.11,28.26-24.37,40.48-4.93,5.87-10.5,11.24-15.22,17.25-4.25,5.41-7.54,11.47-10.31,17.74-3.26,7.39-6.13,15.02-8.75,22.66-2.79,8.16-4.78,16.64-3.57,25.29.28-.28.56-.56.83-.83-6.7-1.93-6.72-9.91-5.74-15.48.49-2.81,1.33-7.08-1.4-9.09-3.17-2.34-7.2,2.71-8.89,4.77-3.56,4.33-6.48,9.17-9.33,13.98-4.24,7.14-9.03,13.97-13.72,20.81-3.29,4.79-6.65,9.54-10.14,14.18-.92,1.22-2.25,3.78-4.24,3.3-1.31-.32-2.51-1.88-3.41-2.77-2.2-2.16-4.4-4.32-6.6-6.48-8.81-8.64-17.61-17.29-26.42-25.93-4.34-4.26-8.41-8.58-12.46-13.11-3.99-4.46-8.11-8.92-12.85-12.59-2.94-2.28-8.54-6.24-11.95-2.58-2.94,3.16-2.07,8.38-2.51,12.27-.64,5.68-5.02,11.57-11.21,11.27.22.29.44.57.65.86,4.28-14.76-.91-30.22-8.52-42.95-7.95-13.29-17.18-25.78-25.26-39-4-6.55-7.76-13.26-11.03-20.2-3.01-6.39-6.03-13.17-7.71-20.06-1.92-7.85-2.56-16.11-5.96-23.55-1.11-2.42-3.19-5.99-6.4-5.07-3.03.87-4.39,4.36-5.58,6.92-2.12,4.56-4.23,9.12-6.35,13.68.31-.08.62-.16.93-.24-2.12-1.33-2.25-4.05-2.29-6.31-.05-2.84-.02-5.68-.02-8.51,0-5.91,0-11.83.03-17.74.08-11.56.3-23.11.84-34.66,1.06-22.31,3.49-44.54,8.15-66.41,4.13-19.37,9.97-38.66,19.68-56.02,4.73-8.46,10.34-16.41,17.32-23.17,7-6.78,15.03-12.43,23.49-17.25,20.7-11.8,44.01-19.22,67.81-20.81.87-.06.87-1.42,0-1.36-21.72,1.45-42.81,7.71-62.17,17.59-8.79,4.49-17.22,9.77-24.8,16.12-7.63,6.38-13.98,13.87-19.29,22.26-10.93,17.27-17.54,36.99-22.13,56.79-5.09,21.97-7.86,44.4-9.14,66.89-.76,13.46-1.04,26.95-1.13,40.43-.04,6.88-.04,13.75-.02,20.63,0,3.96-1.01,10.19,2.98,12.69.29.18.78.08.93-.24,1.72-3.7,3.43-7.39,5.15-11.09,1.23-2.66,2.68-7.85,5.86-8.85,3.02-.95,4.83,3.9,5.62,5.95,2.73,7.09,3.35,14.66,5.25,21.96,3.41,13.11,10.11,25.7,16.99,37.28,7.34,12.36,15.64,24.11,23.41,36.19,9.04,14.06,16.99,30.71,12.05,47.74-.13.44.22.84.65.86,3.88.19,7.26-1.85,9.56-4.89,2.83-3.75,3.02-7.88,3.25-12.39.13-2.57.52-7.36,3.95-7.71,2.15-.23,4.38,1.17,6.09,2.3,9.49,6.28,16.13,16.19,24.17,24.08,8.61,8.45,17.21,16.9,25.82,25.34,2.2,2.16,4.4,4.32,6.6,6.48,1.91,1.87,3.75,4.03,5.87,5.67,3.81,2.93,6.13-1.08,8.25-3.91,7.12-9.54,13.69-19.48,20.27-29.39,2.63-3.97,4.91-8.17,7.53-12.16,1.8-2.73,3.69-5.46,5.92-7.86,1.08-1.16,3.41-3.89,5.3-3.18,1.81.68,1.81,3.61,1.68,5.15-.25,3.06-1.15,5.94-1.02,9.04.21,4.68,2.5,9.43,7.28,10.81.55.16.9-.35.83-.83-1.13-8.12.74-16.15,3.31-23.82,2.27-6.76,4.83-13.46,7.56-20.05,2.67-6.43,5.77-12.73,9.83-18.41,4.29-6,9.74-11.15,14.55-16.72,9.68-11.21,18.12-23.27,24.13-36.85,2.82-6.38,5.45-13.05,7.17-19.82,1.08-4.24,1.27-8.66,2.27-12.93,1.33-5.65,4.63-11.84,11.51-9.15,3.48,1.36,6.38,3.8,10.05,4.7,3.67.9,7.48.55,10.96-.86.41-.17.75-.78.3-1.13-14.3-11.28-21.39-29.43-23.7-47.04-1.32-10.04-1.35-20.19-2.19-30.27-.79-9.46-2.55-18.76-5.37-27.83-2.63-8.45-6.07-16.65-10.14-24.51-3.81-7.37-8.05-15-13.23-21.51-3.32-4.16-7.27-7.84-10.88-11.75-2.09-2.26-4.16-4.55-6.05-6.98-1.27-1.64-2.86-3.55-3.39-5.6-1.66-6.43,24.39-4.37,28.06-3.11.83.28,1.18-1.02.36-1.31-9.94-3.56-19.92-7.15-29.19-12.25-8.64-4.75-16.56-10.67-24.54-16.43-7.91-5.71-15.97-11.34-24.83-15.51-8.49-4-17.54-6.8-26.75-8.56-10.33-1.98-20.9-2.7-31.41-2.05-.87.05-.87,1.41,0,1.36Z"/>
      <path class="cls-3" d="m841.29,315.86c-3.45,23.05-15.49,44.47-33.14,59.67-5,4.3-10.43,8.06-16.21,11.24.34.2.68.39,1.02.59.95-10.99,2.43-21.92,4.44-32.77.16-.85-1.15-1.22-1.31-.36-2.03,10.96-3.53,22.02-4.49,33.13-.05.54.6.82,1.02.59,20.59-11.33,36.64-30.23,44.9-52.2,2.37-6.31,4.06-12.85,5.06-19.52.13-.85-1.18-1.22-1.31-.36h0Z"/>
      <path class="cls-3" d="m816.03,350.86c8.09-11.69,13.2-25.19,14.95-39.29.11-.86-1.25-.86-1.36,0-1.72,13.86-6.82,27.13-14.76,38.6-.5.72.68,1.4,1.17.68h0Z"/>
      <path class="cls-3" d="m819.5,317.91c4.22-11.53,6.45-23.69,6.6-35.97.01-.87-1.35-.87-1.36,0-.15,12.16-2.37,24.18-6.55,35.61-.3.82,1.01,1.17,1.31.36h0Z"/>
      <path class="cls-3" d="m774.42,273.64c-8.37,13.71-13.62,29.88-26.12,40.64-6.15,5.3-13.32,8.1-21.43,8.48-8.21.38-16.43-.46-24.44,1.91-7.35,2.17-13.98,6.98-16.82,14.29-.32.81.99,1.17,1.31.36,2.87-7.39,9.96-11.9,17.4-13.76,8.42-2.1,17-.76,25.53-1.66,14.67-1.54,25.07-12.54,32.22-24.63,4.82-8.15,8.59-16.86,13.52-24.94.46-.75-.72-1.43-1.17-.68h0Z"/>
      <path class="cls-3" d="m670.23,349.31c1.69-11.79,8.58-22.44,18.69-28.75.74-.46.06-1.64-.68-1.17-10.39,6.48-17.57,17.43-19.31,29.56-.12.85,1.18,1.22,1.31.36h0Z"/>
      <path class="cls-3" d="m699,317.89c5.27-1.13,10.59-1.83,15.97-2.09.87-.04.87-1.4,0-1.36-5.5.26-10.95.98-16.34,2.14-.85.18-.49,1.49.36,1.31h0Z"/>
      <path class="cls-3" d="m633.14,342.02c9.78,8.98,12.83,22.45,19.21,33.65,3.27,5.73,7.6,10.22,12.47,14.62,5.04,4.55,10.18,9.4,11.87,16.23,1.84,7.43-.29,15.61-5.61,21.12l1.16.48c.19-9.82-7.89-16.94-14.93-22.58-.67-.54-1.64.41-.96.96,6.73,5.39,14.72,12.19,14.53,21.62-.01.58.75.9,1.16.48,4.42-4.58,6.78-10.85,6.65-17.21-.14-6.87-3.38-12.65-8.07-17.49-5.06-5.22-10.95-9.47-15.04-15.58-3.86-5.78-6.44-12.27-9.29-18.57-3.09-6.82-6.6-13.55-12.19-18.68-.64-.59-1.6.37-.96.96h0Z"/>
      <path class="cls-3" d="m621.16,358.99c3.32,5.54,6.65,11.08,9.97,16.62.45.75,1.62.07,1.17-.68-3.32-5.54-6.65-11.08-9.97-16.62-.45-.75-1.62-.07-1.17.68h0Z"/>
      <path class="cls-3" d="m635.7,387.51c3.48,6.76,6.97,13.53,10.45,20.29.4.78,1.57.09,1.17-.68-3.48-6.76-6.97-13.53-10.45-20.29-.4-.78-1.57-.09-1.17.68h0Z"/>
      <path class="cls-3" d="m673.61,375.42c9.97,6.81,17.73,16.68,22.04,27.96,2.28,5.96,3.36,12.11,3.91,18.45.55,6.38.91,12.96,3.48,18.92,2.35,5.43,6.45,10.22,12.28,11.91.84.24,1.2-1.07.36-1.31-13.84-4.01-13.84-21.36-15.09-32.86-1.24-11.4-5.49-22.19-12.52-31.27-3.89-5.02-8.54-9.39-13.78-12.97-.72-.49-1.4.68-.68,1.17h0Z"/>
      <path class="cls-3" d="m689.05,438.48c5.47,7.18,11.94,13.52,19.28,18.76,7.39,5.28,18.07,9.24,20.56,18.92.22.84,1.53.49,1.31-.36-2.36-9.14-11.47-13.23-18.66-18-8.17-5.41-15.38-12.22-21.32-20.01-.52-.69-1.7-.01-1.17.68h0Z"/>
      <path class="cls-3" d="m780.95,340.19c1.91,6.49-.29,13.15-3.27,18.95-2.87,5.59-6.51,10.75-10.23,15.81-7.26,9.89-14.99,19.77-18.28,31.81-1.73,6.34-2.06,12.99-.25,19.35.33-.26.66-.51,1-.77-10.61-5.3-18.61-15.31-21.24-26.92-2.77-12.23.76-25.49,8.98-34.91.57-.65-.38-1.62-.96-.96-6.6,7.56-10.31,17.42-10.3,27.47,0,9.67,3.65,19.03,9.9,26.36,3.59,4.2,8,7.65,12.94,10.12.51.26,1.17-.17,1-.77-3.54-12.45,1.49-25.29,8.16-35.74,6.76-10.58,15.48-19.93,21.01-31.29,2.84-5.84,4.73-12.46,2.85-18.89-.25-.84-1.56-.48-1.31.36h0Z"/>
      <path class="cls-3" d="m750.39,373.63c6.64-7.32,11.94-15.68,15.74-24.8.34-.8-.98-1.16-1.31-.36-3.71,8.89-8.92,17.07-15.39,24.21-.59.65.37,1.61.96.96h0Z"/>
      <path class="cls-3" d="m771.06,338.1c3.1-17.85,6.87-38.01,22.39-49.51.69-.51.02-1.69-.68-1.17-15.87,11.76-19.84,32.03-23.02,50.32-.15.85,1.16,1.22,1.31.36h0Z"/>
      <path class="cls-3" d="m709.41,345.61c-5.04,7.77-6.54,17.41-4.11,26.35.23.84,1.54.48,1.31-.36-2.33-8.61-.88-17.83,3.98-25.3.48-.73-.7-1.42-1.17-.68h0Z"/>
      <path class="cls-3" d="m790.33,416.44c-5.63,19.08-26.03,27.93-36.9,43.43-3.03,4.31-5.26,9.12-6.17,14.33-.15.85,1.16,1.22,1.31.36,3.45-19.97,24.25-29.62,35.85-44.29,3.2-4.04,5.76-8.51,7.22-13.47.25-.84-1.06-1.2-1.31-.36h0Z"/>
      <path class="cls-3" d="m762.24,436.55c11.22-9.72,20.68-21.33,27.94-34.28.43-.76-.74-1.45-1.17-.68-7.2,12.86-16.59,24.36-27.73,34.01-.66.57.3,1.53.96.96h0Z"/>
      <path class="cls-3" d="m848.09,346.62c8.49-17.36,7.74-37.15,6.82-55.95-.04-.87-1.4-.87-1.36,0,.91,18.53,1.74,38.14-6.63,55.26-.38.78.79,1.47,1.17.68h0Z"/>
      <path class="cls-3" d="m815.21,160.41c10.13,4.72,16.64,14.48,20.35,24.71,4.4,12.11,5.29,25.1,8.23,37.57,1.17,4.96,3.98,11.71,10.34,10.36.74-.16.59-1.4-.18-1.33-9.54.8-19.97,1.62-28.44-3.73-8.02-5.06-10.08-14.44-10.35-23.31-.03-.87-1.38-.87-1.36,0,.28,8.96,2.32,18.38,10.08,23.85,8.75,6.16,19.97,5.4,30.08,4.55-.06-.44-.12-.89-.18-1.33-7.14,1.52-8.63-8.89-9.6-13.66-1.27-6.23-2.2-12.53-3.44-18.77-2.1-10.53-5.29-21.05-12-29.63-3.45-4.41-7.75-8.07-12.84-10.44-.79-.37-1.48.8-.68,1.17h0Z"/>
      <path class="cls-3" d="m833.85,204.78c-2.23-3.24-2.74-7.09-3.53-10.85-.78-3.72-2.04-7.01-4.4-10.03-4.48-5.75-10.81-11.15-17.86-13.3-.84-.26-1.19,1.05-.36,1.31,3.83,1.17,7.2,3.29,10.24,5.85,2.87,2.42,5.74,5.13,7.85,8.25,4,5.9,2.85,13.61,6.88,19.46.49.71,1.67.04,1.17-.68h0Z"/>
      <path class="cls-3" d="m787.25,193.38c-1.19,13.75,5.77,26.75,15.86,35.69,5.05,4.47,10.83,8.06,16.89,10.97,6.61,3.17,13.72,5.3,20.05,9.03,6.81,4.01,12.27,9.95,15.83,17,.39.78,1.56.09,1.17-.68-2.88-5.7-6.98-10.71-12.04-14.6-5.48-4.22-11.94-6.65-18.28-9.25-12.87-5.29-25.38-13.04-32.61-25.32-4.06-6.9-6.21-14.83-5.52-22.84.08-.87-1.28-.86-1.36,0h0Z"/>
      <path class="cls-3" d="m788.3,228.08c2.4,7.41,7.41,13.69,14.12,17.65.75.44,1.44-.73.68-1.17-6.41-3.78-11.21-9.76-13.5-16.84-.27-.83-1.58-.47-1.31.36h0Z"/>
      <path class="cls-3" d="m818.14,255.06c8.02,7.15,23.88,8.44,26.54,20.58.19.85,1.5.49,1.31-.36-2.78-12.67-18.58-13.77-26.89-21.18-.65-.58-1.61.38-.96.96h0Z"/>
      <path class="cls-3" d="m864.85,285.61c1.23,4.66,1.87,9.4,1.94,14.22.01.87,1.37.87,1.36,0-.07-4.93-.73-9.81-1.99-14.58-.22-.84-1.53-.49-1.31.36h0Z"/>
      <path class="cls-3" d="m737.62,134.96c6.59.87,11.98,5.58,15.11,11.26,3.66,6.65,4.35,14.45,4.46,21.89.01.87,1.37.87,1.36,0-.12-8.02-.93-16.48-5.17-23.5-3.45-5.72-9.02-10.13-15.75-11.01-.86-.11-.85,1.24,0,1.36h0Z"/>
      <path class="cls-3" d="m761.15,141.31c4.95,7.15,6.99,15.32,6.76,23.96-.21,7.82-1.42,15.85,1.85,23.24.35.8,1.52.11,1.17-.68-3.5-7.91-1.56-16.73-1.64-25.06-.08-7.94-2.45-15.6-6.97-22.13-.49-.71-1.67-.04-1.17.68h0Z"/>
      <path class="cls-3" d="m772.69,197.94c1.16,3.9,2.82,7.58,4.97,11.04.46.74,1.63.06,1.17-.68-2.09-3.36-3.7-6.93-4.83-10.71-.25-.83-1.56-.48-1.31.36h0Z"/>
      <path class="cls-3" d="m706.58,108.52c2.53-4.56,7.49-6.74,12.32-8.01,5.73-1.51,11.75-1.95,17.64-1.29,6.02.68,11.82,2.53,17.73,3.76,5.63,1.17,11.36,1.78,17.11,1.87-.2-.34-.39-.68-.59-1.02-1.47,3.42-3.85,6.37-6.96,8.43-3.55,2.35-7.47,3.02-11.65,3.25-6.11.34-14.51,1.1-16.34,8.3-.22.85,1.09,1.21,1.31.36,2.2-8.63,13.9-6.6,20.39-7.87,6.41-1.25,11.87-5.81,14.42-11.78.2-.46-.03-1.01-.59-1.02-6.55-.1-13.02-.93-19.41-2.41-5.99-1.39-11.92-3.09-18.09-3.44-5.87-.33-11.94.36-17.54,2.2-4.41,1.45-8.63,3.83-10.94,8-.42.76.75,1.45,1.17.68h0Z"/>
      <path class="cls-3" d="m728.05,132.06c-.93-4.32-.33-8.71,1.72-12.62.4-.77-.77-1.46-1.17-.68-2.22,4.25-2.86,8.98-1.86,13.67.18.85,1.49.49,1.31-.36h0Z"/>
      <path class="cls-3" d="m737.97,113.14c2.55-1.1,5.22-1.73,7.99-1.92.87-.06.87-1.42,0-1.36-3.02.21-5.89.91-8.68,2.1-.8.34-.11,1.51.68,1.17h0Z"/>
      <path class="cls-3" d="m780.76,117.34c10.47,2.62,20.38,7.02,29.36,13.01.73.49,1.41-.69.68-1.17-9.07-6.05-19.11-10.49-29.69-13.14-.85-.21-1.21,1.1-.36,1.31h0Z"/>
      <path class="cls-3" d="m776.19,126.36c7.15,3.9,11.82,10.68,15.55,17.72,2.95,5.56,5.25,13.81,12.03,15.76.84.24,1.2-1.07.36-1.31-3.69-1.06-5.82-4.38-7.48-7.61-1.71-3.33-3.24-6.74-5.09-9.99-3.6-6.32-8.2-12.2-14.69-15.74-.77-.42-1.45.75-.68,1.17h0Z"/>
      <path class="cls-3" d="m786.72,152.54c1.05,4.51,2.93,8.71,5.6,12.5.5.71,1.68.03,1.17-.68-2.6-3.69-4.43-7.77-5.46-12.17-.2-.85-1.51-.49-1.31.36h0Z"/>
      <path class="cls-3" d="m796.27,173.95c1.26,3.31,1.7,6.73,1.33,10.26-.09.87,1.27.86,1.36,0,.38-3.63-.09-7.2-1.38-10.62-.31-.81-1.62-.46-1.31.36h0Z"/>
      <path class="cls-3" d="m799.75,195.12c.26,5.85,1.93,11.47,4.94,16.5.45.75,1.62.07,1.17-.68-2.89-4.83-4.51-10.19-4.75-15.81-.04-.87-1.4-.87-1.36,0h0Z"/>
      <path class="cls-3" d="m593.8,225.88c-2.6,8.7-3.58,17.77-2.89,26.82.07.86,1.42.87,1.36,0-.68-8.94.27-17.87,2.84-26.46.25-.84-1.06-1.2-1.31-.36h0Z"/>
      <path class="cls-3" d="m589.68,266.45c-1.21,8.75-1.54,17.58-.95,26.39.06.87,1.42.87,1.36,0-.58-8.69-.3-17.41.9-26.03.12-.85-1.19-1.22-1.31-.36h0Z"/>
      <path class="cls-3" d="m641.37,236.34c3.68,10.87.38,23.35-8.17,30.99-.65.58.31,1.54.96.96,8.89-7.94,12.34-21.02,8.52-32.31-.28-.82-1.59-.47-1.31.36h0Z"/>
      <path class="cls-3" d="m631.13,250.03c-7.16,14.17-12.25,30.07-10.49,46.11.76,6.96,2.74,13.81,6.13,19.95,3.47,6.29,8.41,11.25,14.1,15.56,6.7,5.07,14.04,9.42,19.48,15.95.56.67,1.52-.29.96-.96-9.06-10.86-23.27-15.93-31.3-27.83-8.4-12.46-9.9-28.26-6.94-42.7,1.81-8.86,5.15-17.33,9.22-25.39.39-.78-.78-1.46-1.17-.68h0Z"/>
      <path class="cls-3" d="m607.38,308.31c3.05,10.29,4.7,20.92,4.91,31.65.02.87,1.37.87,1.36,0-.21-10.85-1.87-21.61-4.96-32.01-.25-.84-1.56-.48-1.31.36h0Z"/>
      <path class="cls-3" d="m649.48,126.36c-19.76,6.62-21.86,31.04-28.48,47.55-2.28,5.7-5.35,11.06-9.86,15.29-.5.47.02,1.31.66,1.13,11.98-3.29,25.14-7.07,33.78-16.59,4.23-4.67,6.52-10.43,8.95-16.14,2.49-5.84,5.43-11.89,11.24-15.08,7.08-3.89,15.79-2.78,23.44-1.76.86.11.85-1.24,0-1.36-6.71-.89-13.86-1.74-20.44.37-5.98,1.92-10.1,6.35-12.94,11.8-2.9,5.55-4.65,11.66-8,16.98-3.55,5.63-8.89,9.76-14.74,12.78-6.83,3.52-14.27,5.66-21.65,7.69.22.38.44.76.66,1.13,14.91-13.97,13.1-36.99,25.01-52.87,3.27-4.36,7.53-7.87,12.73-9.62.82-.28.47-1.59-.36-1.31h0Z"/>
      <path class="cls-3" d="m638.97,164.62c4.5-6.2,8.18-12.9,11.03-20.02.32-.81-.99-1.16-1.31-.36-2.8,7-6.46,13.6-10.89,19.69-.51.71.66,1.38,1.17.68h0Z"/>
      <path class="cls-3" d="m659.39,136.23c14.57-8.52,32.97-6.19,48.78-3.27.85.16,1.22-1.15.36-1.31-16.18-2.98-34.91-5.3-49.82,3.41-.75.44-.07,1.61.68,1.17h0Z"/>
      <path class="cls-3" d="m708.42,149.48c-3.18,8.79-8.23,16.76-14.82,23.39-.62.62.34,1.58.96.96,6.76-6.8,11.92-14.97,15.17-23.99.3-.82-1.01-1.18-1.31-.36h0Z"/>
      <path class="cls-3" d="m683.51,162.79c-1.4,11.44-12.81,17.15-22.96,19.06-5.24.99-10.71,1.32-15.58,3.7-3.93,1.92-7.23,5.02-9.57,8.7-2.64,4.15-4,9.02-3.78,13.93.04.87,1.4.87,1.36,0-.43-9.79,5.84-19.3,15.17-22.47,5.29-1.8,10.96-1.94,16.35-3.35,4.84-1.27,9.56-3.34,13.34-6.67,3.8-3.35,6.42-7.85,7.04-12.9.11-.86-1.25-.86-1.36,0h0Z"/>
      <path class="cls-3" d="m616.35,205.17c1.3,14.23,1.09,28.55-.64,42.74-.11.86,1.25.86,1.36,0,1.73-14.19,1.94-28.51.64-42.74-.08-.86-1.44-.87-1.36,0h0Z"/>
      <path class="cls-3" d="m605.61,209.52c-.79,9.81-.66,19.65.32,29.44.93,9.35,2.29,18.97-.69,28.1-.23.71.65,1.04,1.13.66,7.54-5.98,14.52-12.67,20.73-20.04,2.74-3.25,5.24-6.73,6.31-10.91,1.19-4.62.85-9.45.5-14.15-.06-.87-1.42-.87-1.36,0,.34,4.57.71,9.3-.45,13.79-1.18,4.58-4.16,8.25-7.2,11.75-5.9,6.8-12.44,13.01-19.49,18.59.38.22.76.44,1.13.66,2.95-9.03,1.75-18.54.81-27.8-1.02-10.02-1.19-20.06-.38-30.1.07-.87-1.29-.87-1.36,0h0Z"/>
      <path class="cls-3" d="m627.52,225.22v-10.91c0-.87-1.36-.87-1.36,0v10.91c0,.87,1.36.87,1.36,0h0Z"/>
      <path class="cls-3" d="m598.1,199.06c.68-8.6,2.38-17.06,5.05-25.26.27-.83-1.04-1.19-1.31-.36-2.71,8.32-4.41,16.9-5.1,25.62-.07.87,1.29.87,1.36,0h0Z"/>
      <path class="cls-3" d="m612.1,162.97c2.28-7.33,5.52-14.28,9.63-20.76.47-.74-.7-1.42-1.17-.68-4.18,6.57-7.45,13.65-9.77,21.08-.26.84,1.05,1.19,1.31.36h0Z"/>
      <path class="cls-3" d="m635.38,127.95c6.2-10.08,18.62-13.97,29.91-13.92,7.25.03,14.41,1.51,21.46,3.11,6.48,1.47,13.05,3.35,19.7,3.89,5.48.44,11.57-.35,15-5.12.51-.71-.67-1.39-1.17-.68-3.52,4.89-10.33,4.97-15.74,4.24-7.09-.95-14.04-2.94-21.02-4.43-11.83-2.53-24.29-3.89-35.74.96-5.55,2.35-10.38,6.1-13.56,11.27-.46.75.71,1.43,1.17.68h0Z"/>
      <path class="cls-3" d="m679.89,102.85c6.77,1.21,13.73-.38,19.25-4.5.69-.52.02-1.69-.68-1.17-5.23,3.9-11.77,5.51-18.21,4.36-.85-.15-1.22,1.16-.36,1.31h0Z"/>
      <path class="cls-3" d="m709.91,93.59c6.31-.88,12.67-1.11,19.03-.71.87.05.87-1.3,0-1.36-6.48-.4-12.95-.14-19.39.76-.86.12-.49,1.43.36,1.31h0Z"/>
      <path class="cls-3" d="m791.5,307.69c11.5-9.94,21.66-25.41,15.3-41.04-.32-.8-1.64-.45-1.31.36,6.19,15.22-3.79,30.07-14.95,39.72-.66.57.3,1.53.96.96h0Z"/>
      <path class="cls-3" d="m799.65,269.41c-1.48-4.89-4.53-9.03-8.75-11.9-.72-.49-1.4.68-.68,1.17,3.93,2.68,6.75,6.55,8.12,11.09.25.83,1.56.48,1.31-.36h0Z"/>
      <path class="cls-3" d="m744.22,410.74c-4.46-8.95-3.62-19.91,2.08-28.11.5-.72-.68-1.4-1.17-.68-5.98,8.61-6.75,20.11-2.08,29.48.39.78,1.56.09,1.17-.68h0Z"/>
      <path class="cls-3" d="m747.64,195.93c3.16,3.2,5.65,6.29,6.69,10.76,1.07,4.58,1.72,9.28,2.21,13.95.09.86,1.45.87,1.36,0-.52-5-1.17-10.07-2.41-14.95-1.12-4.41-3.75-7.55-6.88-10.72-.61-.62-1.57.34-.96.96h0Z"/>
      <path class="cls-3" d="m749.47,211.86c1.25,10.33.99,20.76-.83,31.01-.15.85,1.16,1.22,1.31.36,1.84-10.37,2.14-20.91.88-31.37-.1-.86-1.46-.87-1.36,0h0Z"/>
      <path class="cls-3" d="m763.56,224.08c-.14,13.81-5.16,27.3-14.11,37.83-.56.66.39,1.63.96.96,9.19-10.8,14.36-24.6,14.51-38.79,0-.87-1.35-.87-1.36,0h0Z"/>
      <path class="cls-3" d="m666.59,249.15c1.9,2.51,5.26,2.49,7.96,1.36,3.46-1.46,5.84-4.58,7.46-7.85,1.86-3.75,3.11-7.76,5.08-11.47,2.05-3.86,4.67-7.41,8.22-10.02.7-.51.02-1.69-.68-1.17-5.4,3.96-8.69,9.81-11.21,15.89-1.48,3.58-2.74,7.45-5.37,10.38-2.15,2.39-7.59,5.75-10.28,2.19-.52-.69-1.7-.01-1.17.68h0Z"/>
      <path class="cls-3" d="m679.57,233.05c2.13-7.28,6.32-13.71,12.09-18.63.67-.57-.3-1.52-.96-.96-5.94,5.06-10.25,11.74-12.44,19.23-.25.84,1.06,1.2,1.31.36h0Z"/>
      <path class="cls-3" d="m502.51,360.17c6.82-5.3,14.27-9.7,22.19-13.15.8-.35.11-1.52-.68-1.17-8.03,3.49-15.55,7.98-22.46,13.36-.69.54.28,1.49.96.96h0Z"/>
      <path class="cls-3" d="m483.66,380.59c10.79-7.55,22.07-14.34,33.78-20.35.78-.4.09-1.57-.68-1.17-11.71,6.01-23,12.81-33.78,20.35-.71.5-.03,1.67.68,1.17h0Z"/>
      <path class="cls-3" d="m526.32,354.6c4.09-2.2,8.25-4.24,12.5-6.12.8-.35.11-1.52-.68-1.17-4.25,1.88-8.41,3.92-12.5,6.12-.77.41-.08,1.59.68,1.17h0Z"/>
      <path class="cls-3" d="m642.23,486.11c2.39,5.48,5.26,10.71,8.58,15.68.48.72,1.66.04,1.17-.68-3.32-4.97-6.19-10.21-8.58-15.68-.35-.8-1.52-.11-1.17.68h0Z"/>
      <path class="cls-3" d="m650.67,488.54c3.4,6.51,7.44,13.03,9.31,20.19,1.89,7.24,1.64,14.81,1.4,22.22-.03.87,1.33.87,1.36,0,.24-7.53.47-15.23-1.45-22.58-1.9-7.28-5.99-13.9-9.44-20.51-.4-.77-1.58-.09-1.17.68h0Z"/>
      <path class="cls-3" d="m657.37,529.28c-.14,3.83-.28,7.67-.42,11.5-.03.87,1.32.87,1.36,0,.14-3.83.28-7.67.42-11.5.03-.87-1.32-.87-1.36,0h0Z"/>
      <path class="cls-3" d="m785.29,606.39c2.34,5.22,5.26,10.13,8.71,14.69.52.69,1.7.01,1.17-.68-3.46-4.56-6.37-9.47-8.71-14.69-.36-.8-1.53-.11-1.17.68h0Z"/>
      <path class="cls-3" d="m794.4,612.58c5.25,8.61,11.39,16.63,18.35,23.94.6.63,1.56-.33.96-.96-6.88-7.22-12.95-15.15-18.14-23.67-.45-.74-1.63-.06-1.17.68h0Z"/>
      <path class="cls-3" d="m803.19,636.2c3.45,6.43,7.89,12.24,13.19,17.25.63.6,1.6-.36.96-.96-5.22-4.94-9.58-10.64-12.98-16.97-.41-.77-1.58-.09-1.17.68h0Z"/>
      <path class="cls-3" d="m863.08,673.12c1.86,3.99,2.41,8.39,1.59,12.72-.16.85,1.15,1.22,1.31.36.89-4.72.3-9.41-1.73-13.76-.37-.79-1.54-.1-1.17.68h0Z"/>
      <path class="cls-3" d="m846.15,669.12c4.17,4.53,3.3,10.91,1.22,16.19-.32.81.99,1.16,1.31.36,2.28-5.77,2.94-12.61-1.57-17.51-.59-.64-1.55.32-.96.96h0Z"/>
      <path class="cls-3" d="m668.04,677.39c-9.25,3.18-9.2,14.2-8.46,22.21.08.86,1.44.87,1.36,0-.67-7.29-1.11-17.95,7.46-20.9.82-.28.47-1.59-.36-1.31h0Z"/>
      <path class="cls-3" d="m646.92,675.91c-7.54,4.55-9.23,13.68-8.23,21.82.11.86,1.46.87,1.36,0-.94-7.64.42-16.35,7.56-20.65.75-.45.07-1.62-.68-1.17h0Z"/>
      <path class="cls-3" d="m749.19,668.59c7.27,4.36,6.41,13.82,5.51,21.04-.11.86,1.25.86,1.36,0,.98-7.76,1.56-17.57-6.18-22.21-.75-.45-1.43.72-.68,1.17h0Z"/>
      <path class="cls-3" d="m763.83,665.16c7.65,4.83,7.93,15.92,5.23,23.58-.29.83,1.02,1.18,1.31.36,2.92-8.28,2.33-19.96-5.85-25.11-.74-.47-1.42.71-.68,1.17h0Z"/>
      <path class="cls-3" d="m482.45,697.73c-.13-7.24,1.09-15.68,8.21-19.38.77-.4.09-1.57-.68-1.17-7.55,3.92-9.01,12.83-8.88,20.55.02.87,1.37.87,1.36,0h0Z"/>
      <path class="cls-3" d="m500.48,695.44c-.97-6.2,1.6-12.63,6.59-16.44.68-.52,0-1.7-.68-1.17-5.52,4.22-8.29,11.1-7.22,17.97.14.86,1.44.5,1.31-.36h0Z"/>
      <path class="cls-3" d="m346.48,573.65c10.69-9.44,20.5-22.44,17.66-37.56-.16-.86-1.47-.49-1.31.36,2.75,14.61-7.03,27.17-17.31,36.24-.66.58.31,1.54.96.96h0Z"/>
      <path class="cls-3" d="m364.64,562.36c3.2-3.86,4.8-8.56,5.46-13.48.75-5.57.73-11.55-.56-17.03-2.73-11.61-12.3-21.36-11.14-33.86.08-.87-1.28-.86-1.36,0-1.07,11.55,6.84,20.81,10.32,31.2,1.83,5.47,2.09,11.37,1.65,17.09-.41,5.41-1.8,10.86-5.33,15.11-.55.67.4,1.63.96.96h0Z"/>
      <path class="cls-3" d="m334.61,479.07c4.81,4.93,8.62,10.8,11.04,17.26,2.53,6.74,3.12,13.98,5.03,20.9,1.95,7.04,4.49,14.17,3.9,21.59-.56,7.09-3.9,13.49-8.97,18.39-5.26,5.08-10.94,9.23-13.28,16.49-.27.83,1.04,1.19,1.31.36,2.32-7.21,8.21-11.2,13.35-16.3,4.73-4.68,7.88-10.68,8.78-17.3.98-7.2-1.09-14.23-3.06-21.08-1.09-3.81-2.02-7.62-2.74-11.52-.65-3.55-1.34-7.08-2.51-10.5-2.47-7.22-6.56-13.79-11.89-19.25-.61-.63-1.57.33-.96.96h0Z"/>
      <path class="cls-3" d="m324.33,570.21c1.03-4.42,4.79-7.02,8.36-9.39.72-.48.05-1.65-.68-1.17-3.87,2.56-7.87,5.42-8.98,10.2-.2.85,1.11,1.21,1.31.36h0Z"/>
      <path class="cls-3" d="m339.68,554.93c3.64-3.23,6.21-7.56,7.25-12.32.53-2.41.67-4.89.39-7.34-.35-3.02-1.18-5.96-1.33-9.01-.04-.87-1.4-.87-1.36,0,.25,5.24,2.13,10.17,1.1,15.46-.93,4.76-3.39,9.04-7.02,12.26-.65.58.31,1.54.96.96h0Z"/>
      <path class="cls-3" d="m331.66,548.41c2.69-2.7,4.7-6.01,5.73-9.68,1.14-4.08.73-8.23.52-12.41-.11-2.31-.14-4.65.36-6.91.48-2.17,1.44-4.17,2.22-6.24,1.57-4.15,2.39-8.52,2.56-12.95.03-.87-1.32-.87-1.36,0-.17,4.31-.99,8.55-2.52,12.59-1.47,3.89-2.74,7.33-2.7,11.56.05,4.2.79,8.43-.07,12.59-.83,4-2.84,7.61-5.72,10.5-.62.62.34,1.58.96.96h0Z"/>
      <path class="cls-3" d="m538.88,539.87c-.88,7.32-2.39,14.54-4.52,21.61-.25.84,1.06,1.2,1.31.36,2.16-7.18,3.67-14.52,4.56-21.97.1-.86-1.25-.86-1.36,0h0Z"/>
      <path class="cls-3" d="m531.75,549.84c-3.01,12.12-7.01,23.98-11.98,35.44-.34.79.82,1.48,1.17.68,5.02-11.57,9.08-23.52,12.12-35.76.21-.85-1.1-1.21-1.31-.36h0Z"/>
      <path class="cls-3" d="m530.4,575.88c-4.8,11.21-9.63,22.73-9.76,35.12,0,.87,1.35.87,1.36,0,.12-12.14,4.87-23.46,9.57-34.44.34-.79-.83-1.49-1.17-.68h0Z"/>
      <path class="cls-3" d="m733.74,519.03c-2.59,5.17-5.59,10.1-8.98,14.79-.51.71.66,1.39,1.17.68,3.39-4.68,6.39-9.62,8.98-14.79.39-.78-.78-1.47-1.17-.68h0Z"/>
      <path class="cls-3" d="m724.46,522c-7.14,10.56-14.58,21.99-14.06,35.27.03.87,1.39.87,1.36,0-.52-13.04,6.87-24.23,13.87-34.59.49-.73-.68-1.4-1.17-.68h0Z"/>
      <path class="cls-3" d="m722.17,545.05c-.62,1.53-1.44,2.96-2.4,4.3-.51.71.66,1.39,1.17.68,1.04-1.44,1.88-2.98,2.54-4.62.33-.81-.98-1.16-1.31-.36h0Z"/>
    </g>
    <g>
      <polygon class="cls-1" points="707.59 111.71 716.74 97.31 716.38 114.49 736.16 114.9 719.36 121.84 721.45 133.86 710.95 125.32 698.29 133.39 706.93 118.46 698.74 111.52 707.59 111.71"/>
      <polygon class="cls-1" points="819.59 486.57 803.54 473.73 822.88 477.23 829.81 461.84 830.9 479.17 851.34 479.06 838.93 485.59 847.76 497.75 834.91 495.85 832.28 511.1 827.32 496.36 814.77 503.07 819.59 486.57"/>
      <polygon class="cls-1" points="659.54 332.57 655.86 316.41 667.47 325.07 675.02 314.97 674.77 329.36 689.27 337.27 675.07 340.67 671.28 358.24 665.64 342.37 648.81 341.47 659.54 332.57"/>
      <path class="cls-1" d="m821.21,453.17c1.71,1.37,1.99,3.87.62,5.58-1.37,1.71-3.87,1.99-5.58.62-1.71-1.37-1.99-3.87-.62-5.58s3.87-1.99,5.58-.62Z"/>
      <path class="cls-1" d="m810.74,432.53c1.71,1.37,1.99,3.87.62,5.58-1.37,1.71-3.87,1.99-5.58.62-1.71-1.37-1.99-3.87-.62-5.58,1.37-1.71,3.87-1.99,5.58-.62Z"/>
      <path class="cls-1" d="m802.18,413.95c1.71,1.37,1.99,3.87.62,5.58-1.37,1.71-3.87,1.99-5.58.62-1.71-1.37-1.99-3.87-.62-5.58,1.37-1.71,3.87-1.99,5.58-.62Z"/>
      <path class="cls-1" d="m703.61,345.07c-2.19.17-4.1-1.47-4.27-3.66s1.47-4.1,3.66-4.27c2.19-.17,4.1,1.47,4.27,3.66.17,2.19-1.47,4.1-3.66,4.27Z"/>
      <path class="cls-1" d="m725.35,353c-2.19.17-4.1-1.47-4.27-3.66-.17-2.19,1.47-4.1,3.66-4.27,2.19-.17,4.1,1.47,4.27,3.66.17,2.19-1.47,4.1-3.66,4.27Z"/>
      <path class="cls-1" d="m744.29,360.71c-2.19.17-4.1-1.47-4.27-3.66-.17-2.19,1.47-4.1,3.66-4.27,2.19-.17,4.1,1.47,4.27,3.66.17,2.19-1.47,4.1-3.66,4.27Z"/>
      <path class="cls-1" d="m792.32,393.5c1.71,1.37,1.99,3.87.62,5.58s-3.87,1.99-5.58.62c-1.71-1.37-1.99-3.87-.62-5.58,1.37-1.71,3.87-1.99,5.58-.62Z"/>
      <path class="cls-1" d="m661.95,302.28c1.53,1.58,1.48,4.09-.09,5.62-1.58,1.53-4.09,1.48-5.62-.09-1.53-1.58-1.48-4.09.09-5.62,1.58-1.53,4.09-1.48,5.62.09Z"/>
      <path class="cls-1" d="m655.25,279.75c1.53,1.58,1.48,4.09-.09,5.62-1.58,1.53-4.09,1.48-5.62-.09-1.53-1.58-1.48-4.09.09-5.62,1.58-1.53,4.09-1.48,5.62.09Z"/>
      <path class="cls-1" d="m605.85,551.09c-1.23-1.75-.8-4.17.95-5.39,1.75-1.23,4.17-.8,5.39.95,1.23,1.75.8,4.17-.95,5.39-1.75,1.23-4.17.8-5.39-.95Z"/>
      <path class="cls-1" d="m587.45,556.16c-1.23-1.75-.8-4.17.95-5.39,1.75-1.23,4.17-.8,5.39.95,1.23,1.75.8,4.17-.95,5.39-1.75,1.23-4.17.8-5.39-.95Z"/>
      <path class="cls-1" d="m568.74,561.31c-1.23-1.75-.8-4.17.95-5.39,1.75-1.23,4.17-.8,5.39.95,1.23,1.75.8,4.17-.95,5.39-1.75,1.23-4.17.8-5.39-.95Z"/>
      <path class="cls-1" d="m550.84,566.24c-1.23-1.75-.8-4.17.95-5.39,1.75-1.23,4.17-.8,5.39.95,1.23,1.75.8,4.17-.95,5.39s-4.17.8-5.39-.95Z"/>
      <path class="cls-1" d="m533.05,571.14c-1.23-1.75-.8-4.17.95-5.39,1.75-1.23,4.17-.8,5.39.95,1.23,1.75.8,4.17-.95,5.39-1.75,1.23-4.17.8-5.39-.95Z"/>
      <path class="cls-1" d="m514.64,576.21c-1.23-1.75-.8-4.17.95-5.39,1.75-1.23,4.17-.8,5.39.95s.8,4.17-.95,5.39c-1.75,1.23-4.17.8-5.39-.95Z"/>
      <path class="cls-1" d="m494.67,581.71c-1.23-1.75-.8-4.17.95-5.39,1.75-1.23,4.17-.8,5.39.95,1.23,1.75.8,4.17-.95,5.39-1.75,1.23-4.17.8-5.39-.95Z"/>
      <path class="cls-1" d="m474.52,587.26c-1.23-1.75-.8-4.17.95-5.39,1.75-1.23,4.17-.8,5.39.95,1.23,1.75.8,4.17-.95,5.39-1.75,1.23-4.17.8-5.39-.95Z"/>
      <path class="cls-1" d="m404.09,614.14c-1.76-1.31-2.12-3.8-.81-5.56,1.31-1.76,3.8-2.12,5.56-.81s2.12,3.8.81,5.56c-1.31,1.76-3.8,2.12-5.56.81Z"/>
      <path class="cls-1" d="m387.8,624.99c-1.76-1.31-2.12-3.8-.81-5.56,1.31-1.76,3.8-2.12,5.56-.81,1.76,1.31,2.12,3.8.81,5.56-1.31,1.76-3.8,2.12-5.56.81Z"/>
      <path class="cls-1" d="m371.23,636.02c-1.76-1.31-2.12-3.8-.81-5.56,1.31-1.76,3.8-2.12,5.56-.81,1.76,1.31,2.12,3.8.81,5.56-1.31,1.76-3.8,2.12-5.56.81Z"/>
      <path class="cls-1" d="m355.38,646.57c-1.76-1.31-2.12-3.8-.81-5.56,1.31-1.76,3.8-2.12,5.56-.81,1.76,1.31,2.12,3.8.81,5.56-1.31,1.76-3.8,2.12-5.56.81Z"/>
      <path class="cls-1" d="m339.63,657.06c-1.76-1.31-2.12-3.8-.81-5.56s3.8-2.12,5.56-.81c1.76,1.31,2.12,3.8.81,5.56-1.31,1.76-3.8,2.12-5.56.81Z"/>
      <path class="cls-1" d="m323.33,667.9c-1.76-1.31-2.12-3.8-.81-5.56s3.8-2.12,5.56-.81c1.76,1.31,2.12,3.8.81,5.56-1.31,1.76-3.8,2.12-5.56.81Z"/>
      <path class="cls-1" d="m305.64,679.68c-1.76-1.31-2.12-3.8-.81-5.56,1.31-1.76,3.8-2.12,5.56-.81,1.76,1.31,2.12,3.8.81,5.56-1.31,1.76-3.8,2.12-5.56.81Z"/>
      <path class="cls-1" d="m288.36,689.31c-1.76-1.31-2.12-3.8-.81-5.56,1.31-1.76,3.8-2.12,5.56-.81s2.12,3.8.81,5.56-3.8,2.12-5.56.81Z"/>
      <path class="cls-1" d="m272.06,700.16c-1.76-1.31-2.12-3.8-.81-5.56s3.8-2.12,5.56-.81,2.12,3.8.81,5.56-3.8,2.12-5.56.81Z"/>
      <path class="cls-1" d="m254.38,711.93c-1.76-1.31-2.12-3.8-.81-5.56,1.31-1.76,3.8-2.12,5.56-.81,1.76,1.31,2.12,3.8.81,5.56-1.31,1.76-3.8,2.12-5.56.81Z"/>
      <path class="cls-1" d="m659.35,536.17c-1.23-1.75-.8-4.17.95-5.39,1.75-1.23,4.17-.8,5.39.95,1.23,1.75.8,4.17-.95,5.39-1.75,1.23-4.17.8-5.39-.95Z"/>
      <path class="cls-1" d="m640.62,541.33c-1.23-1.75-.8-4.17.95-5.39,1.75-1.23,4.17-.8,5.39.95,1.23,1.75.8,4.17-.95,5.39-1.75,1.23-4.17.8-5.39-.95Z"/>
      <path class="cls-1" d="m623.23,546.11c-1.23-1.75-.8-4.17.95-5.39,1.75-1.23,4.17-.8,5.39.95,1.23,1.75.8,4.17-.95,5.39s-4.17.8-5.39-.95Z"/>
      <path class="cls-1" d="m755.24,510.77c-1.23-1.75-.8-4.17.95-5.39,1.75-1.23,4.17-.8,5.39.95,1.23,1.75.8,4.17-.95,5.39-1.75,1.23-4.17.8-5.39-.95Z"/>
      <path class="cls-1" d="m736.83,515.83c-1.23-1.75-.8-4.17.95-5.39,1.75-1.23,4.17-.8,5.39.95,1.23,1.75.8,4.17-.95,5.39-1.75,1.23-4.17.8-5.39-.95Z"/>
      <path class="cls-1" d="m718.12,520.97c-1.23-1.75-.8-4.17.95-5.39s4.17-.8,5.39.95.8,4.17-.95,5.39c-1.75,1.23-4.17.8-5.39-.95Z"/>
      <path class="cls-1" d="m700.22,525.89c-1.23-1.75-.8-4.17.95-5.39s4.17-.8,5.39.95c1.23,1.75.8,4.17-.95,5.39-1.75,1.23-4.17.8-5.39-.95Z"/>
      <path class="cls-1" d="m682.43,530.78c-1.23-1.75-.8-4.17.95-5.39s4.17-.8,5.39.95c1.23,1.75.8,4.17-.95,5.39s-4.17.8-5.39-.95Z"/>
      <path class="cls-1" d="m790.02,501.03c-1.23-1.75-.8-4.17.95-5.39,1.75-1.23,4.17-.8,5.39.95s.8,4.17-.95,5.39-4.17.8-5.39-.95Z"/>
      <path class="cls-1" d="m772.63,505.81c-1.23-1.75-.8-4.17.95-5.39s4.17-.8,5.39.95.8,4.17-.95,5.39c-1.75,1.23-4.17.8-5.39-.95Z"/>
      <path class="cls-1" d="m467.9,433.19c-1.55-1.47-1.61-3.92-.14-5.48,1.47-1.55,3.92-1.61,5.48-.14,1.55,1.47,1.61,3.92.14,5.48-1.47,1.55-3.92,1.61-5.48.14Z"/>
      <path class="cls-1" d="m450.87,441.82c-1.55-1.47-1.61-3.92-.14-5.48,1.47-1.55,3.92-1.61,5.48-.14,1.55,1.47,1.61,3.92.14,5.48-1.47,1.55-3.92,1.61-5.48.14Z"/>
      <path class="cls-1" d="m433.55,450.59c-1.55-1.47-1.61-3.92-.14-5.48,1.47-1.55,3.92-1.61,5.48-.14,1.55,1.47,1.61,3.92.14,5.48-1.47,1.55-3.92,1.61-5.48.14Z"/>
      <path class="cls-1" d="m416.99,458.98c-1.55-1.47-1.61-3.92-.14-5.48,1.47-1.55,3.92-1.61,5.48-.14,1.55,1.47,1.61,3.92.14,5.48-1.47,1.55-3.92,1.61-5.48.14Z"/>
      <path class="cls-1" d="m400.54,467.32c-1.55-1.47-1.61-3.92-.14-5.48,1.47-1.55,3.92-1.61,5.48-.14,1.55,1.47,1.61,3.92.14,5.48-1.47,1.55-3.92,1.61-5.48.14Z"/>
      <path class="cls-1" d="m383.51,475.95c-1.55-1.47-1.61-3.92-.14-5.48,1.47-1.55,3.92-1.61,5.48-.14,1.55,1.47,1.61,3.92.14,5.48-1.47,1.55-3.92,1.61-5.48.14Z"/>
      <path class="cls-1" d="m365.03,485.31c-1.55-1.47-1.61-3.92-.14-5.48,1.47-1.55,3.92-1.61,5.48-.14,1.55,1.47,1.61,3.92.14,5.48-1.47,1.55-3.92,1.61-5.48.14Z"/>
      <path class="cls-1" d="m346.38,494.76c-1.55-1.47-1.61-3.92-.14-5.48,1.47-1.55,3.92-1.61,5.48-.14,1.55,1.47,1.61,3.92.14,5.48-1.47,1.55-3.92,1.61-5.48.14Z"/>
      <path class="cls-1" d="m517.36,407.92c-1.55-1.47-1.61-3.92-.14-5.48,1.47-1.55,3.92-1.61,5.48-.14,1.55,1.47,1.61,3.92.14,5.48-1.47,1.55-3.92,1.61-5.48.14Z"/>
      <path class="cls-1" d="m500.03,416.7c-1.55-1.47-1.61-3.92-.14-5.48,1.47-1.55,3.92-1.61,5.48-.14,1.55,1.47,1.61,3.92.14,5.48-1.47,1.55-3.92,1.61-5.48.14Z"/>
      <path class="cls-1" d="m483.94,424.85c-1.55-1.47-1.61-3.92-.14-5.48,1.47-1.55,3.92-1.61,5.48-.14,1.55,1.47,1.61,3.92.14,5.48-1.47,1.55-3.92,1.61-5.48.14Z"/>
      <path class="cls-1" d="m606.28,363.95c-1.55-1.47-1.61-3.93-.14-5.48,1.47-1.55,3.93-1.61,5.48-.14,1.55,1.47,1.61,3.93.14,5.48-1.47,1.55-3.93,1.61-5.48.14Z"/>
      <path class="cls-1" d="m589.24,372.57c-1.55-1.47-1.61-3.93-.14-5.48s3.93-1.61,5.48-.14,1.61,3.93.14,5.48c-1.47,1.55-3.93,1.61-5.48.14Z"/>
      <path class="cls-1" d="m571.93,381.33c-1.55-1.47-1.61-3.93-.14-5.48,1.47-1.55,3.93-1.61,5.48-.14,1.55,1.47,1.61,3.93.14,5.48-1.47,1.55-3.93,1.61-5.48.14Z"/>
      <path class="cls-1" d="m555.36,389.71c-1.55-1.47-1.61-3.93-.14-5.48,1.47-1.55,3.93-1.61,5.48-.14,1.55,1.47,1.61,3.93.14,5.48-1.47,1.55-3.93,1.61-5.48.14Z"/>
      <path class="cls-1" d="m538.9,398.04c-1.55-1.47-1.61-3.93-.14-5.48s3.93-1.61,5.48-.14c1.55,1.47,1.61,3.93.14,5.48-1.47,1.55-3.93,1.61-5.48.14Z"/>
      <path class="cls-1" d="m638.42,347.48c-1.55-1.47-1.61-3.93-.14-5.48s3.93-1.61,5.48-.14c1.55,1.47,1.61,3.93.14,5.48-1.47,1.55-3.93,1.61-5.48.14Z"/>
      <path class="cls-1" d="m622.33,355.63c-1.55-1.47-1.61-3.93-.14-5.48,1.47-1.55,3.93-1.61,5.48-.14s1.61,3.93.14,5.48c-1.47,1.55-3.93,1.61-5.48.14Z"/>
      <path class="cls-1" d="m314.38,535.46c-1.3,1.77-3.78,2.15-5.55.85-1.77-1.3-2.15-3.78-.85-5.55,1.3-1.77,3.78-2.15,5.55-.85,1.77,1.3,2.15,3.78.85,5.55Z"/>
      <path class="cls-1" d="m317.05,500.29l17.03-8.5-6.73,13.6,12.89,18.72-21.27-10.52-13.87,9.74,8.12-16.41s-8.71-11.12-8.71-11.12c0,0,12.54,4.5,12.54,4.5Z"/>
      <path class="cls-1" d="m790.74,123.13l17.03-8.5-6.73,13.6,12.89,18.72-21.27-10.52-13.87,9.74,8.12-16.41s-8.71-11.12-8.71-11.12c0,0,12.54,4.5,12.54,4.5Z"/>
      <path class="cls-1" d="m278.21,605.55c-2.13-.15-3.74-2-3.59-4.14.15-2.13,2-3.74,4.14-3.59,2.13.15,3.74,2,3.59,4.14-.15,2.13-2,3.74-4.14,3.59Z"/>
      <path class="cls-1" d="m270.55,623.04c-2.13-.15-3.74-2-3.59-4.14.15-2.13,2-3.74,4.14-3.59,2.13.15,3.74,2,3.59,4.14-.15,2.13-2,3.74-4.14,3.59Z"/>
      <path class="cls-1" d="m262.77,640.82c-2.13-.15-3.74-2-3.59-4.14.15-2.13,2-3.74,4.14-3.59,2.13.15,3.74,2,3.59,4.14-.15,2.13-2,3.74-4.14,3.59Z"/>
      <path class="cls-1" d="m255.32,657.82c-2.13-.15-3.74-2-3.59-4.14.15-2.13,2-3.74,4.14-3.59,2.13.15,3.74,2,3.59,4.14-.15,2.13-2,3.74-4.14,3.59Z"/>
      <path class="cls-1" d="m247.92,674.72c-2.13-.15-3.74-2-3.59-4.14.15-2.13,2-3.74,4.14-3.59,2.13.15,3.74,2,3.59,4.14-.15,2.13-2,3.74-4.14,3.59Z"/>
      <path class="cls-1" d="m240.26,692.21c-2.13-.15-3.74-2-3.59-4.14.15-2.13,2-3.74,4.14-3.59,2.13.15,3.74,2,3.59,4.14-.15,2.13-2,3.74-4.14,3.59Z"/>
      <path class="cls-1" d="m749.41,122.11c.17,2.13-1.41,4-3.54,4.18-2.13.17-4-1.41-4.18-3.54-.17-2.13,1.41-4,3.54-4.18,2.13-.17,4,1.41,4.18,3.54Z"/>
      <path class="cls-1" d="m769.61,127.5c.17,2.13-1.41,4-3.55,4.18-2.13.17-4-1.41-4.18-3.54-.17-2.13,1.41-4,3.54-4.18,2.13-.17,4,1.41,4.18,3.55Z"/>
      <path class="cls-1" d="m300.32,554.6c-2.13-.15-3.74-2-3.59-4.14.15-2.13,2-3.74,4.14-3.59,2.13.15,3.74,2,3.59,4.14-.15,2.13-2,3.74-4.14,3.59Z"/>
      <path class="cls-1" d="m292.53,572.39c-2.13-.15-3.74-2-3.59-4.14.15-2.13,2-3.74,4.14-3.59,2.13.15,3.74,2,3.59,4.14-.15,2.13-2,3.74-4.14,3.59Z"/>
      <path class="cls-1" d="m285.29,588.92c-2.13-.15-3.74-2-3.59-4.14.15-2.13,2-3.74,4.14-3.59,2.13.15,3.74,2,3.59,4.14-.15,2.13-2,3.74-4.14,3.59Z"/>
      <path class="cls-1" d="m770.81,376.34l-17.74-8.15,15.19-3.36,6.69-22.33,5.25,23.76,16.7,4.83-18.34,4.05s-3.3,14.1-3.29,14.11-4.46-12.92-4.46-12.92Z"/>
      <polygon class="cls-1" points="236.55 731.28 248.97 743.35 230.98 739.91 224.4 748.96 226.94 735.69 210.54 726.31 224.58 728.99 229.02 712.1 232.32 721.38 244.62 721.23 236.55 731.28"/>
      <polygon class="cls-1" points="639.16 248.24 633.15 232.66 647.51 242.92 656.92 237.66 649.35 248.25 659.92 263.07 648.71 255.06 638.02 268.06 638.86 258.6 628.04 253.77 639.16 248.24"/>
      <path class="cls-1" d="m432.57,590.73c.66-2.72,7.36-20.33,7.36-20.33l1.92,17.78,16.42-2.25-11.17,8.34,14.55,7.39-13.93,1.9,9.5,16.27-13.54-9.55-3.43,14.07-3.6-14.83-17.07,6.9,12.51-11.86-21.45-4.75,16.19-3.27-6.77-13.67,12.51,7.86Z"/>
      <path class="cls-1" d="m656.54,220c2.16.37,3.61,2.43,3.24,4.59-.37,2.16-2.43,3.61-4.59,3.24-2.16-.37-3.61-2.43-3.24-4.59.37-2.16,2.43-3.61,4.59-3.24Z"/>
      <path class="cls-1" d="m666.16,202.94c2.16.37,3.61,2.43,3.24,4.59-.37,2.16-2.43,3.61-4.59,3.24-2.16-.37-3.61-2.43-3.24-4.59.37-2.16,2.43-3.61,4.59-3.24Z"/>
      <path class="cls-1" d="m676.59,184.44c2.16.37,3.61,2.43,3.24,4.59-.37,2.16-2.43,3.61-4.59,3.24-2.16-.37-3.61-2.43-3.24-4.59s2.43-3.61,4.59-3.24Z"/>
      <path class="cls-1" d="m687.12,165.76c2.16.37,3.61,2.43,3.24,4.59-.37,2.16-2.43,3.61-4.59,3.24-2.16-.37-3.61-2.43-3.24-4.59.37-2.16,2.43-3.61,4.59-3.24Z"/>
      <path class="cls-1" d="m697.03,148.19c2.16.37,3.61,2.43,3.24,4.59-.37,2.16-2.43,3.61-4.59,3.24-2.16-.37-3.61-2.43-3.24-4.59.37-2.16,2.43-3.61,4.59-3.24Z"/>
    </g>
  </g>
</svg>