<?xml version="1.0" encoding="UTF-8"?>
<svg id="Layer_1" data-name="Layer 1" xmlns="http://www.w3.org/2000/svg" xmlns:xlink="http://www.w3.org/1999/xlink" viewBox="0 0 512 512">
  <defs>
    <style>
      .cls-1 {
        fill: url(#linear-gradient-2);
      }

      .cls-2 {
        fill: #fff;
      }

      .cls-3 {
        fill: #fffdeb;
        opacity: .1;
      }

      .cls-4, .cls-5, .cls-6 {
        fill: none;
      }

      .cls-5 {
        clip-path: url(#clippath);
      }

      .cls-6 {
        clip-path: url(#clippath-1);
      }

      .cls-7 {
        fill: url(#linear-gradient);
      }
    </style>
    <clipPath id="clippath">
      <path class="cls-4" d="m256.05,7.92C119.05,7.92,7.97,119,7.97,256s111.08,248.08,248.08,248.08,248.08-111.08,248.08-248.08S393.05,7.92,256.05,7.92Z"/>
    </clipPath>
    <linearGradient id="linear-gradient" x1="264.87" y1="-106.53" x2="259.67" y2="973.85" gradientUnits="userSpaceOnUse">
      <stop offset="0" stop-color="#000134"/>
      <stop offset=".49" stop-color="#2f245f"/>
      <stop offset="1" stop-color="#00559c"/>
    </linearGradient>
    <clipPath id="clippath-1">
      <path class="cls-4" d="m-342.11,7.92c-137,0-248.08,111.08-248.08,248.08s111.08,248.08,248.08,248.08,248.08-111.08,248.08-248.08S-205.11,7.92-342.11,7.92Z"/>
    </clipPath>
    <linearGradient id="linear-gradient-2" x1="-333.28" y1="-106.53" x2="-338.49" y2="973.85" xlink:href="#linear-gradient"/>
  </defs>
  <g class="cls-5">
    <g>
      <rect class="cls-7" x="-108.99" y="7.92" width="744.24" height="496.16"/>
      <g>
        <path class="cls-2" d="m115.76,187.28c1.3,0,1.3-2.02,0-2.02s-1.3,2.02,0,2.02h0Z"/>
        <path class="cls-2" d="m103.79,106.68c1.3,0,1.3-2.02,0-2.02s-1.3,2.02,0,2.02h0Z"/>
        <path class="cls-2" d="m73.46,250.08c.97,0,.97-1.51,0-1.51s-.97,1.51,0,1.51h0Z"/>
        <path class="cls-2" d="m241.05,392.92c.97,0,.97-1.51,0-1.51s-.97,1.51,0,1.51h0Z"/>
        <path class="cls-2" d="m461.95,229.43c1.3,0,1.3-2.02,0-2.02s-1.3,2.02,0,2.02h0Z"/>
        <path class="cls-2" d="m363.15,254.07c.97,0,.97-1.51,0-1.51s-.97,1.51,0,1.51h0Z"/>
        <path class="cls-2" d="m347.99,132.22c1.3,0,1.3-2.02,0-2.02s-1.3,2.02,0,2.02h0Z"/>
        <path class="cls-2" d="m492.43,167.33c1.3,0,1.3-2.02,0-2.02s-1.3,2.02,0,2.02h0Z"/>
        <path class="cls-2" d="m498.01,289.73c.65,0,.65-1.01,0-1.01s-.65,1.01,0,1.01h0Z"/>
        <path class="cls-2" d="m399.19,331.9c.65,0,.65-1.01,0-1.01s-.65,1.01,0,1.01h0Z"/>
        <path class="cls-2" d="m239,283.94c.65,0,.65-1.01,0-1.01s-.65,1.01,0,1.01h0Z"/>
        <path class="cls-2" d="m204.93,323c.65,0,.65-1.01,0-1.01s-.65,1.01,0,1.01h0Z"/>
        <path class="cls-2" d="m376.48,407.53c.65,0,.65-1.01,0-1.01s-.65,1.01,0,1.01h0Z"/>
        <path class="cls-2" d="m284.57,455.96c.97,0,.97-1.51,0-1.51s-.97,1.51,0,1.51h0Z"/>
        <path class="cls-2" d="m39.95,448.53c.65,0,.65-1.01,0-1.01s-.65,1.01,0,1.01h0Z"/>
        <path class="cls-2" d="m370.06,385.76c1.3,0,1.3-2.02,0-2.02s-1.3,2.02,0,2.02h0Z"/>
        <path class="cls-2" d="m483.18,435.67c1.3,0,1.3-2.02,0-2.02s-1.3,2.02,0,2.02h0Z"/>
        <path class="cls-2" d="m264.83,331.4c1.3,0,1.3-2.02,0-2.02s-1.3,2.02,0,2.02h0Z"/>
        <path class="cls-2" d="m111.7,299.42c.97,0,.97-1.51,0-1.51s-.97,1.51,0,1.51h0Z"/>
      </g>
      <g>
        <path class="cls-2" d="m238.76,142.04c1.3,0,1.3-2.02,0-2.02s-1.3,2.02,0,2.02h0Z"/>
        <path class="cls-2" d="m226.79,61.44c1.3,0,1.3-2.02,0-2.02s-1.3,2.02,0,2.02h0Z"/>
        <path class="cls-2" d="m120.65,76.35c.97,0,.97-1.51,0-1.51s-.97,1.51,0,1.51h0Z"/>
        <path class="cls-2" d="m196.46,204.83c.97,0,.97-1.51,0-1.51s-.97,1.51,0,1.51h0Z"/>
        <path class="cls-2" d="m364.05,347.68c.97,0,.97-1.51,0-1.51s-.97,1.51,0,1.51h0Z"/>
        <path class="cls-2" d="m486.15,208.82c.97,0,.97-1.51,0-1.51s-.97,1.51,0,1.51h0Z"/>
        <path class="cls-2" d="m470.99,86.98c1.3,0,1.3-2.02,0-2.02s-1.3,2.02,0,2.02h0Z"/>
        <path class="cls-2" d="m362,238.7c.65,0,.65-1.01,0-1.01s-.65,1.01,0,1.01h0Z"/>
        <path class="cls-2" d="m327.93,277.75c.65,0,.65-1.01,0-1.01s-.65,1.01,0,1.01h0Z"/>
        <path class="cls-2" d="m499.48,362.29c.65,0,.65-1.01,0-1.01s-.65,1.01,0,1.01h0Z"/>
        <path class="cls-2" d="m407.57,410.72c.97,0,.97-1.51,0-1.51s-.97,1.51,0,1.51h0Z"/>
        <path class="cls-2" d="m162.95,403.29c.65,0,.65-1.01,0-1.01s-.65,1.01,0,1.01h0Z"/>
        <path class="cls-2" d="m95.11,367.88c1.3,0,1.3-2.02,0-2.02s-1.3,2.02,0,2.02h0Z"/>
        <path class="cls-2" d="m493.06,340.52c1.3,0,1.3-2.02,0-2.02s-1.3,2.02,0,2.02h0Z"/>
        <path class="cls-2" d="m91.12,221.84c1.3,0,1.3-2.02,0-2.02s-1.3,2.02,0,2.02h0Z"/>
        <path class="cls-2" d="m387.83,286.15c1.3,0,1.3-2.02,0-2.02s-1.3,2.02,0,2.02h0Z"/>
        <path class="cls-2" d="m234.7,254.18c.97,0,.97-1.51,0-1.51s-.97,1.51,0,1.51h0Z"/>
      </g>
    </g>
  </g>
  <g class="cls-6">
    <g>
      <rect class="cls-1" x="-707.15" y="7.92" width="744.24" height="496.16"/>
      <g>
        <path class="cls-2" d="m17.27,122.09c1.3,0,1.3-2.02,0-2.02s-1.3,2.02,0,2.02h0Z"/>
        <path class="cls-2" d="m22.86,244.48c.65,0,.65-1.01,0-1.01s-.65,1.01,0,1.01h0Z"/>
        <path class="cls-2" d="m8.03,390.43c1.3,0,1.3-2.02,0-2.02s-1.3,2.02,0,2.02h0Z"/>
      </g>
    </g>
  </g>
  <path class="cls-3" d="m388.9,302.8H121.62c-10.02,0-18.14,8.12-18.14,18.14s8.12,18.14,18.14,18.14h267.28c10.02,0,18.14-8.12,18.14-18.14s-8.12-18.14-18.14-18.14Z"/>
  <path class="cls-3" d="m388.9,238.7h-42.55c-7.81-48.73-46.49-85.87-92.9-85.87s-85.09,37.13-92.9,85.87h-38.93c-10.02,0-18.14,8.12-18.14,18.14s8.12,18.14,18.14,18.14h267.28c10.02,0,18.14-8.12,18.14-18.14s-8.12-18.14-18.14-18.14h0Zm-191.38,0c6.82-28.56,29.3-49.58,55.92-49.58s49.1,21,55.92,49.58h-111.84Z"/>
  <g>
    <polygon class="cls-2" points="388.12 198.7 380.98 188.49 391.62 193.83 398.29 186.06 395.96 196.33 407.86 199.76 399.53 201.44 402.59 210.02 395.44 206.72 391.31 215.14 390.94 205.71 382.49 207.47 388.12 198.7"/>
    <path class="cls-2" d="m252.79,199.7c-.41-1.23.25-2.56,1.47-2.97,1.23-.41,2.56.25,2.97,1.47.41,1.23-.25,2.56-1.47,2.97-1.23.41-2.56-.25-2.97-1.47Z"/>
    <path class="cls-2" d="m241.22,199.51c-.41-1.23.25-2.56,1.47-2.97,1.23-.41,2.56.25,2.97,1.47.41,1.23-.25,2.56-1.47,2.97-1.23.41-2.56-.25-2.97-1.47Z"/>
    <path class="cls-2" d="m229.46,199.31c-.41-1.23.25-2.56,1.47-2.97s2.56.25,2.97,1.47c.41,1.23-.25,2.56-1.47,2.97-1.23.41-2.56-.25-2.97-1.47Z"/>
    <path class="cls-2" d="m218.21,199.11c-.41-1.23.25-2.56,1.47-2.97,1.23-.41,2.56.25,2.97,1.47.41,1.23-.25,2.56-1.47,2.97-1.23.41-2.56-.25-2.97-1.47Z"/>
    <path class="cls-2" d="m207.02,198.92c-.41-1.23.25-2.56,1.47-2.97,1.23-.41,2.56.25,2.97,1.47.41,1.23-.25,2.56-1.47,2.97-1.23.41-2.56-.25-2.97-1.47Z"/>
    <path class="cls-2" d="m195.45,198.73c-.41-1.23.25-2.56,1.47-2.97,1.23-.41,2.56.25,2.97,1.47s-.25,2.56-1.47,2.97c-1.23.41-2.56-.25-2.97-1.47Z"/>
    <path class="cls-2" d="m182.9,198.51c-.41-1.23.25-2.56,1.47-2.97,1.23-.41,2.56.25,2.97,1.47.41,1.23-.25,2.56-1.47,2.97-1.23.41-2.56-.25-2.97-1.47Z"/>
    <path class="cls-2" d="m170.23,198.3c-.41-1.23.25-2.56,1.47-2.97,1.23-.41,2.56.25,2.97,1.47.41,1.23-.25,2.56-1.47,2.97-1.23.41-2.56-.25-2.97-1.47Z"/>
    <path class="cls-2" d="m157.37,199.14c-.41-1.23.25-2.56,1.47-2.97s2.56.25,2.97,1.47c.41,1.23-.25,2.56-1.47,2.97-1.23.41-2.56-.25-2.97-1.47Z"/>
    <path class="cls-2" d="m145.61,198.94c-.41-1.23.25-2.56,1.47-2.97,1.23-.41,2.56.25,2.97,1.47.41,1.23-.25,2.56-1.47,2.97-1.23.41-2.56-.25-2.97-1.47Z"/>
    <path class="cls-2" d="m134.36,198.75c-.41-1.23.25-2.56,1.47-2.97,1.23-.41,2.56.25,2.97,1.47.41,1.23-.25,2.56-1.47,2.97-1.23.41-2.56-.25-2.97-1.47Z"/>
    <path class="cls-2" d="m123.18,198.56c-.41-1.23.25-2.56,1.47-2.97,1.23-.41,2.56.25,2.97,1.47s-.25,2.56-1.47,2.97c-1.23.41-2.56-.25-2.97-1.47Z"/>
    <path class="cls-2" d="m111.61,198.36c-.41-1.23.25-2.56,1.47-2.97,1.23-.41,2.56.25,2.97,1.47.41,1.23-.25,2.56-1.47,2.97s-2.56-.25-2.97-1.47Z"/>
    <path class="cls-2" d="m99.05,198.15c-.41-1.23.25-2.56,1.47-2.97,1.23-.41,2.56.25,2.97,1.47.41,1.23-.25,2.56-1.47,2.97-1.23.41-2.56-.25-2.97-1.47Z"/>
    <path class="cls-2" d="m86.38,197.93c-.41-1.23.25-2.56,1.47-2.97,1.23-.41,2.56.25,2.97,1.47.41,1.23-.25,2.56-1.47,2.97-1.23.41-2.56-.25-2.97-1.47Z"/>
    <path class="cls-2" d="m73.65,198.07c-.41-1.23.25-2.56,1.47-2.97,1.23-.41,2.56.25,2.97,1.47s-.25,2.56-1.47,2.97c-1.23.41-2.56-.25-2.97-1.47Z"/>
    <path class="cls-2" d="m286.45,200.17c-.41-1.23.25-2.56,1.47-2.97,1.23-.41,2.56.25,2.97,1.47.41,1.23-.25,2.56-1.47,2.97-1.23.41-2.56-.25-2.97-1.47Z"/>
    <path class="cls-2" d="m274.68,199.96c-.41-1.23.25-2.56,1.47-2.97,1.23-.41,2.56.25,2.97,1.47.41,1.23-.25,2.56-1.47,2.97-1.23.41-2.56-.25-2.97-1.47Z"/>
    <path class="cls-2" d="m263.75,199.78c-.41-1.23.25-2.56,1.47-2.97,1.23-.41,2.56.25,2.97,1.47.41,1.23-.25,2.56-1.47,2.97-1.23.41-2.56-.25-2.97-1.47Z"/>
    <path class="cls-2" d="m346.56,201.78c-.41-1.23.25-2.56,1.48-2.97s2.56.25,2.97,1.48c.41,1.23-.25,2.56-1.48,2.97-1.23.41-2.56-.25-2.97-1.48Z"/>
    <path class="cls-2" d="m334.99,201.58c-.41-1.23.25-2.56,1.48-2.97,1.23-.41,2.56.25,2.97,1.48.41,1.23-.25,2.56-1.48,2.97-1.23.41-2.56-.25-2.97-1.48Z"/>
    <path class="cls-2" d="m323.23,201.37c-.41-1.23.25-2.56,1.48-2.97,1.23-.41,2.56.25,2.97,1.48.41,1.23-.25,2.56-1.48,2.97-1.23.41-2.56-.25-2.97-1.48Z"/>
    <path class="cls-2" d="m311.98,201.17c-.41-1.23.25-2.56,1.48-2.97,1.23-.41,2.56.25,2.97,1.48.41,1.23-.25,2.56-1.48,2.97-1.23.41-2.56-.25-2.97-1.48Z"/>
    <path class="cls-2" d="m300.79,200.97c-.41-1.23.25-2.56,1.48-2.97,1.23-.41,2.56.25,2.97,1.48.41,1.23-.25,2.56-1.48,2.97-1.23.41-2.56-.25-2.97-1.48Z"/>
    <path class="cls-2" d="m368.45,202.06c-.41-1.23.25-2.56,1.48-2.97,1.23-.41,2.56.25,2.97,1.48.41,1.23-.25,2.56-1.48,2.97s-2.56-.25-2.97-1.48Z"/>
    <path class="cls-2" d="m357.52,201.86c-.41-1.23.25-2.56,1.48-2.97,1.23-.41,2.56.25,2.97,1.48.41,1.23-.25,2.56-1.48,2.97-1.23.41-2.56-.25-2.97-1.48Z"/>
    <path class="cls-2" d="m68.17,216.69c.4,1.27-.29,2.62-1.56,3.03-1.27.4-2.62-.29-3.03-1.56-.4-1.27.29-2.62,1.56-3.03,1.27-.4,2.62.29,3.03,1.56Z"/>
    <path class="cls-2" d="m89.66,259.4c-.83.99-2.31,1.12-3.31.29s-1.12-2.31-.29-3.31,2.31-1.12,3.31-.29c.99.83,1.12,2.31.29,3.31Z"/>
    <path class="cls-2" d="m95.5,269.38c-.83.99-2.31,1.12-3.31.29-.99-.83-1.12-2.31-.29-3.31.83-.99,2.31-1.12,3.31-.29s1.12,2.31.29,3.31Z"/>
    <path class="cls-2" d="m101.45,279.54c-.83.99-2.31,1.12-3.31.29-.99-.83-1.12-2.31-.29-3.31.83-.99,2.31-1.12,3.31-.29.99.83,1.12,2.31.29,3.31Z"/>
    <path class="cls-2" d="m107.13,289.25c-.83.99-2.31,1.12-3.31.29-.99-.83-1.12-2.31-.29-3.31s2.31-1.12,3.31-.29,1.12,2.31.29,3.31Z"/>
    <path class="cls-2" d="m112.78,298.9c-.83.99-2.31,1.12-3.31.29s-1.12-2.31-.29-3.31c.83-.99,2.31-1.12,3.31-.29.99.83,1.12,2.31.29,3.31Z"/>
    <path class="cls-2" d="m118.63,308.88c-.83.99-2.31,1.12-3.31.29s-1.12-2.31-.29-3.31,2.31-1.12,3.31-.29,1.12,2.31.29,3.31Z"/>
    <path class="cls-2" d="m72.55,230.4c-.83.99-2.31,1.12-3.31.29-.99-.83-1.12-2.31-.29-3.31.83-.99,2.31-1.12,3.31-.29s1.12,2.31.29,3.31Z"/>
    <path class="cls-2" d="m78.5,240.56c-.83.99-2.31,1.12-3.31.29s-1.12-2.31-.29-3.31,2.31-1.12,3.31-.29c.99.83,1.12,2.31.29,3.31Z"/>
    <path class="cls-2" d="m84.02,250c-.83.99-2.31,1.12-3.31.29-.99-.83-1.12-2.31-.29-3.31.83-.99,2.31-1.12,3.31-.29.99.83,1.12,2.31.29,3.31Z"/>
    <polygon class="cls-2" points="127.46 319.89 137.8 318.1 129.71 325.7 131.8 332.15 126.2 326.18 115.76 330.87 122.07 324.94 115.37 316.75 121.1 318.43 125.41 312.35 127.46 319.89"/>
    <path class="cls-2" d="m54.2,191.3c.85-1.47,7.75-10.57,7.75-10.57l-1.92,10.67,9.93,1.5-7.92,2.94,7.2,6.79-8.42-1.28,2.75,11.08-6.24-7.87-4.4,7.6.44-9.24-11.11,1.1,9.3-4.76-11.66-6.43,9.97.87-1.6-9.11,5.93,6.71Z"/>
    <polygon class="cls-2" points="208.42 82.73 201.05 89.55 202.08 80.83 194.49 79.94 202.12 75.7 201.88 65.69 207.96 72.12 218.34 68.78 211.71 76.56 216.34 85.66 208.42 82.73"/>
    <path class="cls-2" d="m309.4,141.15c-.3,1.26-1.57,2.04-2.83,1.73-1.26-.3-2.04-1.57-1.73-2.83.3-1.26,1.57-2.04,2.83-1.73,1.26.3,2.04,1.57,1.73,2.83Z"/>
    <path class="cls-2" d="m319.09,147.48c-.3,1.26-1.57,2.04-2.83,1.73-1.26-.3-2.04-1.57-1.73-2.83s1.57-2.04,2.83-1.73c1.26.3,2.04,1.57,1.73,2.83Z"/>
    <path class="cls-2" d="m328.94,153.91c-.3,1.26-1.57,2.04-2.83,1.73-1.26-.3-2.04-1.57-1.73-2.83.3-1.26,1.57-2.04,2.83-1.73,1.26.3,2.04,1.57,1.73,2.83Z"/>
    <path class="cls-2" d="m338.37,160.06c-.3,1.26-1.57,2.04-2.83,1.73-1.26-.3-2.04-1.57-1.73-2.83.3-1.26,1.57-2.04,2.83-1.73,1.26.3,2.04,1.57,1.73,2.83Z"/>
    <path class="cls-2" d="m347.73,166.17c-.3,1.26-1.57,2.04-2.83,1.73-1.26-.3-2.04-1.57-1.73-2.83.3-1.26,1.57-2.04,2.83-1.73,1.26.3,2.04,1.57,1.73,2.83Z"/>
    <path class="cls-2" d="m357.42,172.49c-.3,1.26-1.57,2.04-2.83,1.73-1.26-.3-2.04-1.57-1.73-2.83.3-1.26,1.57-2.04,2.83-1.73,1.26.3,2.04,1.57,1.73,2.83Z"/>
    <path class="cls-2" d="m367.94,179.36c-.3,1.26-1.57,2.04-2.83,1.73-1.26-.3-2.04-1.57-1.73-2.83.3-1.26,1.57-2.04,2.83-1.73,1.26.3,2.04,1.57,1.73,2.83Z"/>
    <path class="cls-2" d="m378.55,186.28c-.3,1.26-1.57,2.04-2.83,1.73-1.26-.3-2.04-1.57-1.73-2.83.3-1.26,1.57-2.04,2.83-1.73,1.26.3,2.04,1.57,1.73,2.83Z"/>
    <path class="cls-2" d="m281.14,122.85c-.3,1.26-1.57,2.04-2.83,1.73-1.26-.3-2.04-1.57-1.73-2.83.3-1.26,1.57-2.04,2.83-1.73,1.26.3,2.04,1.57,1.73,2.83Z"/>
    <path class="cls-2" d="m291.01,129.28c-.3,1.26-1.57,2.04-2.83,1.73-1.26-.3-2.04-1.57-1.73-2.83.3-1.26,1.57-2.04,2.83-1.73,1.26.3,2.04,1.57,1.73,2.83Z"/>
    <path class="cls-2" d="m300.16,135.26c-.3,1.26-1.57,2.04-2.83,1.73-1.26-.3-2.04-1.57-1.73-2.83.3-1.26,1.57-2.04,2.83-1.73,1.26.3,2.04,1.57,1.73,2.83Z"/>
    <path class="cls-2" d="m231.12,89.49c-.3,1.26-1.57,2.04-2.83,1.73-1.26-.3-2.04-1.57-1.73-2.83.3-1.26,1.57-2.04,2.83-1.73,1.26.3,2.04,1.57,1.73,2.83Z"/>
    <path class="cls-2" d="m240.8,95.82c-.3,1.26-1.57,2.04-2.83,1.73-1.26-.3-2.04-1.57-1.73-2.83.3-1.26,1.57-2.04,2.83-1.73,1.26.3,2.04,1.57,1.73,2.83Z"/>
    <path class="cls-2" d="m250.65,102.25c-.3,1.26-1.57,2.04-2.83,1.73-1.26-.3-2.04-1.57-1.73-2.83.3-1.26,1.57-2.04,2.83-1.73,1.26.3,2.04,1.57,1.73,2.83Z"/>
    <path class="cls-2" d="m260.07,108.41c-.3,1.26-1.57,2.04-2.83,1.73-1.26-.3-2.04-1.57-1.73-2.83.3-1.26,1.57-2.04,2.83-1.73,1.26.3,2.04,1.57,1.73,2.83Z"/>
    <path class="cls-2" d="m269.43,114.53c-.3,1.26-1.57,2.04-2.83,1.73-1.26-.3-2.04-1.57-1.73-2.83.3-1.26,1.57-2.04,2.83-1.73,1.26.3,2.04,1.57,1.73,2.83Z"/>
    <path class="cls-2" d="m125,142.59c-1.11-.67-1.47-2.11-.8-3.22.67-1.11,2.11-1.47,3.22-.8,1.11.67,1.47,2.11.8,3.22-.67,1.11-2.11,1.47-3.22.8Z"/>
    <path class="cls-2" d="m116.04,149.92c-1.11-.67-1.47-2.11-.8-3.22.67-1.11,2.11-1.47,3.22-.8s1.47,2.11.8,3.22c-.67,1.11-2.11,1.47-3.22.8Z"/>
    <path class="cls-2" d="m106.94,157.36c-1.11-.67-1.47-2.11-.8-3.22.67-1.11,2.11-1.47,3.22-.8,1.11.67,1.47,2.11.8,3.22-.67,1.11-2.11,1.47-3.22.8Z"/>
    <path class="cls-2" d="m98.23,164.49c-1.11-.67-1.47-2.11-.8-3.22s2.11-1.47,3.22-.8c1.11.67,1.47,2.11.8,3.22s-2.11,1.47-3.22.8Z"/>
    <path class="cls-2" d="m89.57,171.57c-1.11-.67-1.47-2.11-.8-3.22s2.11-1.47,3.22-.8,1.47,2.11.8,3.22c-.67,1.11-2.11,1.47-3.22.8Z"/>
    <path class="cls-2" d="m80.61,178.9c-1.11-.67-1.47-2.11-.8-3.22s2.11-1.47,3.22-.8,1.47,2.11.8,3.22-2.11,1.47-3.22.8Z"/>
    <path class="cls-2" d="m70.9,186.85c-1.11-.67-1.47-2.11-.8-3.22s2.11-1.47,3.22-.8c1.11.67,1.47,2.11.8,3.22s-2.11,1.47-3.22.8Z"/>
    <path class="cls-2" d="m150.99,121.18c-1.11-.67-1.47-2.11-.8-3.22.67-1.11,2.11-1.47,3.22-.8s1.47,2.11.8,3.22c-.67,1.11-2.11,1.47-3.22.8Z"/>
    <path class="cls-2" d="m141.87,128.64c-1.11-.67-1.47-2.11-.8-3.22.67-1.11,2.11-1.47,3.22-.8,1.11.67,1.47,2.11.8,3.22-.67,1.11-2.11,1.47-3.22.8Z"/>
    <path class="cls-2" d="m133.41,135.56c-1.11-.67-1.47-2.11-.8-3.22.67-1.11,2.11-1.47,3.22-.8,1.11.67,1.47,2.11.8,3.22s-2.11,1.47-3.22.8Z"/>
    <path class="cls-2" d="m188.94,90.9c-1.11-.67-1.47-2.11-.8-3.22s2.11-1.47,3.22-.8c1.11.67,1.47,2.11.8,3.22s-2.11,1.47-3.22.8Z"/>
    <path class="cls-2" d="m179.83,98.34c-1.11-.67-1.47-2.11-.8-3.22s2.11-1.47,3.22-.8c1.11.67,1.47,2.11.8,3.22-.67,1.11-2.11,1.47-3.22.8Z"/>
    <path class="cls-2" d="m171.11,105.46c-1.11-.67-1.47-2.11-.8-3.22.67-1.11,2.11-1.47,3.22-.8,1.11.67,1.47,2.11.8,3.22-.67,1.11-2.11,1.47-3.22.8Z"/>
    <path class="cls-2" d="m162.45,112.53c-1.11-.67-1.47-2.11-.8-3.22.67-1.11,2.11-1.47,3.22-.8,1.11.67,1.47,2.11.8,3.22s-2.11,1.47-3.22.8Z"/>
    <path class="cls-2" d="m397.58,226.37c-.36,1.28-1.69,2.02-2.97,1.66-1.28-.36-2.02-1.69-1.66-2.97.36-1.28,1.69-2.02,2.97-1.66,1.28.36,2.02,1.69,1.66,2.97Z"/>
    <path class="cls-2" d="m391.95,273.85c-1.24.37-2.55-.34-2.92-1.58-.37-1.24.34-2.55,1.58-2.92,1.24-.37,2.55.34,2.92,1.58.37,1.24-.34,2.55-1.58,2.92Z"/>
    <path class="cls-2" d="m391.33,285.4c-1.24.37-2.55-.34-2.92-1.58-.37-1.24.34-2.55,1.58-2.92,1.24-.37,2.55.34,2.92,1.58.37,1.24-.34,2.55-1.58,2.92Z"/>
    <path class="cls-2" d="m390.69,297.15c-1.24.37-2.55-.34-2.92-1.58-.37-1.24.34-2.55,1.58-2.92,1.24-.37,2.55.34,2.92,1.58.37,1.24-.34,2.55-1.58,2.92Z"/>
    <path class="cls-2" d="m390.08,308.38c-1.24.37-2.55-.34-2.92-1.58-.37-1.24.34-2.55,1.58-2.92,1.24-.37,2.55.34,2.92,1.58.37,1.24-.34,2.55-1.58,2.92Z"/>
    <path class="cls-2" d="m389.47,319.55c-1.24.37-2.55-.34-2.92-1.58-.37-1.24.34-2.55,1.58-2.92,1.24-.37,2.55.34,2.92,1.58.37,1.24-.34,2.55-1.58,2.92Z"/>
    <path class="cls-2" d="m388.84,331.11c-1.24.37-2.55-.34-2.92-1.58-.37-1.24.34-2.55,1.58-2.92,1.24-.37,2.55.34,2.92,1.58.37,1.24-.34,2.55-1.58,2.92Z"/>
    <path class="cls-2" d="m393.67,240.22c-1.24.37-2.55-.34-2.92-1.58-.37-1.24.34-2.55,1.58-2.92,1.24-.37,2.55.34,2.92,1.58.37,1.24-.34,2.55-1.58,2.92Z"/>
    <path class="cls-2" d="m393.03,251.98c-1.24.37-2.55-.34-2.92-1.58-.37-1.24.34-2.55,1.58-2.92,1.24-.37,2.55.34,2.92,1.58.37,1.24-.34,2.55-1.58,2.92Z"/>
    <path class="cls-2" d="m392.43,262.9c-1.24.37-2.55-.34-2.92-1.58-.37-1.24.34-2.55,1.58-2.92,1.24-.37,2.55.34,2.92,1.58.37,1.24-.34,2.55-1.58,2.92Z"/>
    <polygon class="cls-2" points="395.04 354.07 404.66 358.28 393.72 360.16 391.91 366.69 390.53 358.62 379.23 356.78 387.76 355.32 386.69 344.79 390.54 349.35 397.49 346.65 395.04 354.07"/>
    <path class="cls-2" d="m127.78,345.36c-1.24.37-2.55-.34-2.92-1.58-.37-1.24.34-2.55,1.58-2.92,1.24-.37,2.55.34,2.92,1.58.37,1.24-.34,2.55-1.58,2.92Z"/>
    <path class="cls-2" d="m127.17,356.59c-1.24.37-2.55-.34-2.92-1.58-.37-1.24.34-2.55,1.58-2.92,1.24-.37,2.55.34,2.92,1.58s-.34,2.55-1.58,2.92Z"/>
    <path class="cls-2" d="m126.56,367.76c-1.24.37-2.55-.34-2.92-1.58-.37-1.24.34-2.55,1.58-2.92,1.24-.37,2.55.34,2.92,1.58.37,1.24-.34,2.55-1.58,2.92Z"/>
    <path class="cls-2" d="m125.93,379.31c-1.24.37-2.55-.34-2.92-1.58-.37-1.24.34-2.55,1.58-2.92,1.24-.37,2.55.34,2.92,1.58.37,1.24-.34,2.55-1.58,2.92Z"/>
    <polygon class="cls-2" points="132.13 402.28 141.75 406.49 130.81 408.36 129 414.9 127.62 406.83 116.32 404.99 124.85 403.53 123.78 392.99 127.63 397.56 134.58 394.86 132.13 402.28"/>
    <polygon class="cls-2" points="427.34 380.72 416.44 374.68 428.35 374.81 430.93 364.9 433.34 375.15 445.54 373.01 438.79 378.17 445.3 384.53 437.44 384.7 437.41 394.09 432.95 385.78 426.13 391.07 427.34 380.72"/>
    <path class="cls-2" d="m410.33,367.1c.04,1.33-1.01,2.44-2.34,2.47-1.33.04-2.44-1.01-2.47-2.34-.04-1.33,1.01-2.44,2.34-2.47,1.33-.04,2.44,1.01,2.47,2.34Z"/>
  </g>
</svg>