<?xml version="1.0" encoding="UTF-8"?>
<svg xmlns="http://www.w3.org/2000/svg" xmlns:xlink="http://www.w3.org/1999/xlink" viewBox="0 0 1200 800">
  <defs>
    <style>
      .cls-1 {
        fill: #fff;
      }

      .cls-2 {
        fill: #a1d9d4;
        opacity: .42;
      }

      .cls-3 {
        fill: url(#linear-gradient);
      }
    </style>
    <linearGradient id="linear-gradient" x1="602.81" y1="-184.53" x2="594.43" y2="1557.45" gradientUnits="userSpaceOnUse">
      <stop offset="0" stop-color="#000536"/>
      <stop offset=".49" stop-color="#30295e"/>
      <stop offset="1" stop-color="#215699"/>
    </linearGradient>
  </defs>
  <g id="bg">
    <rect class="cls-3" width="1200" height="800"/>
  </g>
  <g id="object">
    <g>
      <path class="cls-1" d="m346.6,203.76c2.75,0,2.76-4.28,0-4.28s-2.76,4.28,0,4.28h0Z"/>
      <path class="cls-1" d="m321.21,32.78c2.75,0,2.76-4.28,0-4.28s-2.76,4.28,0,4.28h0Z"/>
      <path class="cls-1" d="m96.06,64.41c2.06,0,2.07-3.21,0-3.21s-2.07,3.21,0,3.21h0Z"/>
      <path class="cls-1" d="m256.88,336.96c2.06,0,2.07-3.21,0-3.21s-2.07,3.21,0,3.21h0Z"/>
      <path class="cls-1" d="m612.38,639.97c2.06,0,2.07-3.21,0-3.21s-2.07,3.21,0,3.21h0Z"/>
      <path class="cls-1" d="m1080.97,293.15c2.75,0,2.76-4.28,0-4.28s-2.76,4.28,0,4.28h0Z"/>
      <path class="cls-1" d="m871.38,345.42c2.06,0,2.07-3.21,0-3.21s-2.07,3.21,0,3.21h0Z"/>
      <path class="cls-1" d="m839.22,86.95c2.75,0,2.76-4.28,0-4.28s-2.76,4.28,0,4.28h0Z"/>
      <path class="cls-1" d="m1145.62,161.43c2.75,0,2.76-4.28,0-4.28s-2.76,4.28,0,4.28h0Z"/>
      <path class="cls-1" d="m1157.47,421.06c1.38,0,1.38-2.14,0-2.14s-1.38,2.14,0,2.14h0Z"/>
      <path class="cls-1" d="m947.83,510.53c1.38,0,1.38-2.14,0-2.14s-1.38,2.14,0,2.14h0Z"/>
      <path class="cls-1" d="m608.03,408.8c1.38,0,1.38-2.14,0-2.14s-1.38,2.14,0,2.14h0Z"/>
      <path class="cls-1" d="m535.76,491.64c1.38,0,1.38-2.14,0-2.14s-1.38,2.14,0,2.14h0Z"/>
      <path class="cls-1" d="m899.67,670.96c1.38,0,1.38-2.14,0-2.14s-1.38,2.14,0,2.14h0Z"/>
      <path class="cls-1" d="m704.69,773.69c2.06,0,2.07-3.21,0-3.21s-2.07,3.21,0,3.21h0Z"/>
      <path class="cls-1" d="m185.78,757.94c1.38,0,1.38-2.14,0-2.14s-1.38,2.14,0,2.14h0Z"/>
      <path class="cls-1" d="m41.89,682.83c2.75,0,2.76-4.28,0-4.28s-2.76,4.28,0,4.28h0Z"/>
      <path class="cls-1" d="m886.04,624.79c2.75,0,2.76-4.28,0-4.28s-2.76,4.28,0,4.28h0Z"/>
      <path class="cls-1" d="m1126.01,730.65c2.75,0,2.76-4.28,0-4.28s-2.76,4.28,0,4.28h0Z"/>
      <path class="cls-1" d="m33.43,373.04c2.75,0,2.76-4.28,0-4.28s-2.76,4.28,0,4.28h0Z"/>
      <path class="cls-1" d="m662.82,509.46c2.75,0,2.76-4.28,0-4.28s-2.76,4.28,0,4.28h0Z"/>
      <path class="cls-1" d="m337.99,441.64c2.06,0,2.07-3.21,0-3.21s-2.07,3.21,0,3.21h0Z"/>
    </g>
    <g>
      <g>
        <g>
          <path class="cls-2" d="m616.48,230.5c1.71,2.45,2.99,5.2,4.13,7.95,1.25,3.04,2.34,6.17,3.26,9.34h1.59c-1.1-3.86-2.45-7.68-4.06-11.35-1.21-2.77-3.34-7.87-6.51-10.03-.2.19-.43.34-.71.45-.21.22-.47.41-.79.53,1.28.68,2.31,2,3.09,3.11Z"/>
          <path class="cls-2" d="m598.58,248.06c.08,0,.17-.01.25-.02.93-3.25,2.05-6.47,3.33-9.59,1.11-2.7,2.37-5.4,4.03-7.81.76-1.1,1.75-2.42,2.98-3.15-.24-.29-.39-.6-.48-.93l-.02-.04c-.08-.19-.14-.34-.19-.48-3.51,1.88-5.83,7.46-7.11,10.4-1.74,3.97-3.19,8.11-4.33,12.3.39-.36.9-.62,1.54-.68Z"/>
        </g>
        <g>
          <path class="cls-2" d="m625.51,596.2c.92,2.09,2.32,4.5,4.72,5.05,2.04.46,3.37,3.49,4.21,5.13,1.79,3.5,3.14,7.23,4.41,10.96,2.68,7.91,4.86,15.99,6.86,24.09.49-.14,1.04-.14,1.56,0-1.62-6.62-3.38-13.2-5.4-19.71-1.31-4.21-2.72-8.4-4.44-12.47-1.17-2.76-2.44-5.78-4.52-7.99-.62-.66-1.37-1.28-2.28-1.48-2.4-.54-3.59-3.61-4.33-5.66-1.12-3.1-1.78-6.37-2.31-9.61-.6-3.71-1.02-7.46-1.25-11.22-.17.03-.35.06-.54.06-.32,0-.65.01-.97.01.26,4.24.74,8.49,1.48,12.67.61,3.45,1.37,6.95,2.79,10.17Z"/>
          <path class="cls-2" d="m576.95,641.93c.98-3.99,1.99-7.98,3.09-11.94,2.23-8,4.5-16.32,8.33-23.73.95-1.84,2.1-4.24,4.15-5.01,2.84-1.07,4.17-3.51,5.22-6.26,2.55-6.65,3.29-14.14,3.76-21.24-.14,0-.28,0-.42,0-.41,0-.77-.08-1.07-.21-.34,5.79-1.08,11.65-2.54,17.23-.74,2.83-1.85,7.71-4.97,8.91-2.25.86-3.45,2.31-4.68,4.4-4.19,7.19-6.46,15.7-8.73,23.64-1.33,4.67-2.57,9.38-3.72,14.1.53-.11,1.08-.07,1.57.1Z"/>
        </g>
        <g>
          <path class="cls-2" d="m619.02,531.2c.57.12,1.12.39,1.49.82.02-.24.04-.49.04-.73.01-1.1,0-2.2,0-3.3v-235.93c0-1.72.15-3.7.07-5.62-.53.03-1.06.06-1.58.09,0,.48,0,.96,0,1.44v209.98c0,11,.06,22,0,33,0,.08,0,.17-.01.25Z"/>
          <path class="cls-2" d="m602.24,531.8c.38-.24.86-.36,1.46-.28.02,0,.04,0,.06,0-.01-.2-.03-.41-.03-.62,0-1.29,0-2.58,0-3.87v-213.93c0-8.89-.28-17.82-.02-26.71-.12,0-.23,0-.35,0-.45,0-.83-.11-1.15-.28,0,.38,0,.77,0,1.16v234.4c0,3.23-.06,6.46,0,9.69,0,.15.02.3.03.44Z"/>
        </g>
        <path class="cls-2" d="m631.96,248.33c-1.71-1.65-4.26-2.02-6.54-1.93-3.85.15-7.69.93-11.56,1.11-5.14.24-10.27.15-15.4-.05-2.59-.1-5.49.36-7.43,2.22-1.91,1.83-2.23,4.48-1.87,6.99.53,3.7,1.37,7.43,2.33,11.04,1.56,5.81,4.08,12.5,9.74,15.31-.08-.55,0-1.11.23-1.59-4.64-2.55-6.83-8.26-8.22-13.13-.85-2.97-1.48-6.01-2.06-9.04-.48-2.5-1.32-5.49.29-7.78,1.53-2.17,4.49-2.6,6.96-2.51,3.81.15,7.61.25,11.42.18,3.49-.06,6.98-.23,10.45-.62,2.93-.33,6.21-1.26,9.07-.08,1.86.77,2.89,2.44,2.84,4.41-.16,6.84-1.58,14.3-4.18,20.62-.9,2.18-2.03,4.36-3.65,6.1-.49.53-1,.95-1.53,1.31.02.23.02.46-.03.71-.09.5-.25.95-.46,1.36.51-.24,1.01-.51,1.48-.86,1.65-1.21,2.92-2.89,3.94-4.65,4.09-7.08,5.46-16.16,5.92-24.24.1-1.82-.41-3.59-1.76-4.89Z"/>
        <path class="cls-2" d="m601.64,282.25c3.26-8.32,6.52-16.65,9.78-24.97-.46.06-.93.12-1.39.18,2.99,6.46,5.98,12.91,8.97,19.37.6,1.31,1.21,2.62,1.81,3.92.34.73.27.37.31,1.24.1,2.15-1.3,3.5-3.37,3.85-2.99.51-6.28-.01-9.32.05-2.95.06-7.04.32-6.77-3.85.06-.98-1.46-.97-1.52,0-.27,4.17,3.34,5.59,6.92,5.42,1.78-.08,3.57-.08,5.35-.06,2.86.03,6.66.66,8.91-1.64,1.71-1.75,1.56-4.16.62-6.19-1.87-4.04-3.74-8.09-5.62-12.13-1.66-3.58-3.32-7.17-4.98-10.75-.31-.66-1.18-.36-1.39.18-3.26,8.32-6.52,16.65-9.78,24.97-.36.91,1.11,1.31,1.47.4Z"/>
        <path class="cls-2" d="m616.82,221.47c-.12,2.96-2.39,5.44-5.44,5.44s-5.44-2.48-5.44-5.44,2.47-5.47,5.44-5.44c3.06.03,5.32,2.45,5.44,5.44.04.98,1.56.98,1.52,0-.15-3.78-3.06-6.96-6.96-6.96s-6.96,3.18-6.96,6.96,3.18,6.96,6.96,6.96,6.81-3.18,6.96-6.96c.04-.98-1.48-.98-1.52,0Z"/>
        <g>
          <path class="cls-2" d="m896.27,251.39c0-.27,0-.55,0-.83-2.37,3.45-5.32,6.5-8.62,9.07-19.08,14.92-44.93,11.8-67.02,6.98-12.06-2.63-23.94-6.09-35.52-10.35-11.31-4.16-22.29-9.14-33.32-13.99-20.17-8.86-41.11-17.64-63.36-18.99-18.32-1.12-37.91,2.48-52.77,13.81-3.57,2.72-6.78,5.84-9.6,9.33-.61.76.46,1.84,1.08,1.08,11.92-14.74,30.5-21.56,49-22.7,21.36-1.32,41.89,5.02,61.44,13.04,21.69,8.9,42.63,19.29,65.23,25.83,11.28,3.26,22.84,5.95,34.49,7.48,11.46,1.5,23.38,1.66,34.55-1.71,8.66-2.61,16.83-7.47,22.8-14.31.7-.8,1.35-1.63,1.98-2.48-.22-.38-.36-.82-.36-1.26Z"/>
          <path class="cls-2" d="m895.89,265.98c-13.38,12.32-32.17,17.55-50.12,17.66-12.69.08-25.27-2.05-37.62-4.8-12.21-2.72-24.31-5.9-36.45-8.93-23.82-5.93-47.8-13.06-72.37-15.04-20.85-1.68-42.63,1.04-60.59,12.47-4.11,2.62-7.93,5.65-11.44,9.03-.71.68.37,1.76,1.08,1.08,15.84-15.26,37.6-21.51,59.21-21.54,25.62-.03,50.62,7.23,75.27,13.37,12.53,3.12,25.04,6.32,37.6,9.34,12.34,2.96,24.85,5.58,37.55,6.33,20.25,1.21,41.38-3.01,57.22-16.38.29-.25.58-.5.87-.76-.28-.56-.35-1.21-.23-1.82Z"/>
          <path class="cls-2" d="m909.06,230.86c-2.3-3.31-6.06-5.53-10.17-4.87-3.52.56-6.93,3.12-7.47,6.82-.53,3.66,2.46,7.35,6.03,7.98.73.13,1.49.13,2.21-.02.4-.09.89-.47,1.17-.21.22.2-.08.97-.27,1.44.61.1,1.08.38,1.41.78.53-1.3,1.03-2.9.3-3.74-.97-1.11-2.99.42-4.17.32-2.45-.2-4.75-2.46-5.16-4.84-.44-2.52,1.23-4.81,3.33-6.01,4.76-2.72,9.96.06,12.32,4.54,2.85,5.41,1.3,11.82-1.08,17.1-1.13,2.51-2.51,4.91-4.08,7.18.42.61.55,1.41.39,2.14,3.27-4.37,5.83-9.26,7.12-14.47,1.18-4.76.98-9.99-1.9-14.13Z"/>
        </g>
        <path class="cls-2" d="m895.2,275.21c.14,1.59.42,3.28,2.09,3.91,1.53.58,3.95.36,5.39-.4,2.77-1.46,2.44-4.85,2.41-7.52-.05-5.3-.18-10.6-.57-15.89-.22-2.95-.51-5.9-1.04-8.81-.34-1.86-.72-4-1.81-5.6-.71-1.04-1.99-1.78-3.16-.95-1.68,1.19-1.87,4.71-2.13,6.52-1.39,9.44-1.84,19.23-1.17,28.74.07.97,1.59.98,1.52,0-.53-7.48-.17-14.9.46-22.35.11-1.29.9-12.31,2.73-11.65,1.01.36,1.44,2.79,1.65,3.64.55,2.18.85,4.43,1.09,6.67.53,4.9.73,9.84.84,14.77.04,1.81.06,3.61.08,5.42.01,1.22.14,2.5-.17,3.69-.46,1.77-1.83,2.32-3.48,2.42-.28.02-.68.04-.98,0-1.71-.23-2.09-1.17-2.22-2.62-.08-.97-1.61-.98-1.52,0Z"/>
        <path class="cls-2" d="m974.41,437.36c-.64.64-2.92,1.06-4,1.34-3.17.82-6.39,1.44-9.61,2.02-10.52,1.88-21.16,3.07-31.81,3.84-24.69,1.78-49.86,1.26-74.35-2.45-6.08-.92-12.56-1.8-18.33-4.05-.51-.2-1.12-.62-1.58-.76-.08-.02,0,.31-.01.31.11-.03.42-.28.58-.37,2.15-1.15,4.88-1.54,7.23-2.02,9.99-2.02,20.23-2.99,30.38-3.75,13.89-1.04,27.83-1.36,41.76-1.03,12.65.29,25.31,1.02,37.89,2.47,4.57.53,9.15,1.14,13.67,2.03,2.42.48,5.25.88,7.44,2.09.23.12.51.25.68.46.13.16-.04,0,.07-.14-.62.75.46,1.84,1.08,1.08,2.69-3.28-8.95-4.99-10.2-5.21-11.38-2.09-23.01-3-34.55-3.66-27.35-1.56-55.19-1.13-82.3,3.08-3.69.57-7.42,1.19-11.01,2.22-1.15.33-3.85.87-4.18,2.33-.32,1.39,1.78,2.01,2.73,2.37,2.51.95,5.16,1.56,7.77,2.13,9.61,2.09,19.45,3.24,29.24,4.06,14.38,1.2,28.85,1.55,43.28,1.02,12.6-.46,25.19-1.55,37.67-3.4,4.36-.65,8.71-1.38,13.01-2.3,2.39-.51,4.85-1,7.14-1.88.48-.18,1.03-.37,1.41-.75.69-.7-.39-1.78-1.08-1.08Z"/>
        <path class="cls-2" d="m833.48,437.9c.06,3.97,2.17,8.09,4.41,11.23,6.82,9.56,18.41,14.61,29.44,17.47,10.41,2.7,21.24,3.72,31.98,3.97,11.82.28,23.77-.27,35.41-2.47,12.44-2.35,25.98-6.83,34.59-16.67,2.21-2.53,4.04-5.39,5.24-8.54.52-1.38,1.26-3.25,1.16-4.76,0-.07.01-.15.01-.23.03-.98-1.49-.98-1.52,0-.1,3.35-2.21,7.48-4.31,10.38-6.78,9.37-18.43,14.21-29.27,16.96-10.29,2.61-20.95,3.58-31.54,3.81-11.56.25-23.25-.27-34.64-2.42-12.07-2.29-25.2-6.55-33.53-16.12-2.07-2.37-3.8-5.11-4.88-8.08-.53-1.46-.76-3.08-1.02-4.31-.01-.07,0-.14-.01-.21-.01-.98-1.54-.98-1.52,0h0Z"/>
        <path class="cls-2" d="m974.61,435.96c-2.31-5.34-4.62-10.67-6.93-16.01-5.55-12.82-11.09-25.63-16.64-38.45-6.71-15.51-13.42-31.02-20.14-46.53-5.81-13.42-11.61-26.84-17.42-40.25-1.93-4.45-3.86-8.91-5.78-13.36-.87-2.01-1.55-4.39-2.71-6.26-.05-.09-.08-.19-.12-.29-.39-.9-1.7-.12-1.32.77,2.31,5.34,4.62,10.67,6.93,16.01,5.55,12.82,11.09,25.63,16.64,38.45,6.71,15.51,13.42,31.02,20.14,46.53,5.81,13.42,11.61,26.84,17.42,40.25,1.93,4.45,3.86,8.91,5.78,13.36.87,2.01,1.55,4.39,2.71,6.26.05.09.08.19.12.29.39.9,1.7.12,1.32-.77h0Z"/>
        <path class="cls-2" d="m834.97,436.54c2.05-5.31,4.09-10.62,6.14-15.93,4.91-12.75,9.82-25.49,14.74-38.24,5.94-15.42,11.88-30.84,17.82-46.26,5.13-13.33,10.27-26.65,15.4-39.98,1.69-4.39,3.38-8.77,5.07-13.16.77-1.99,1.94-4.14,2.4-6.23.02-.09.07-.18.1-.26.35-.92-1.12-1.31-1.47-.41-2.05,5.31-4.09,10.62-6.14,15.93-4.91,12.75-9.82,25.49-14.74,38.24-5.94,15.42-11.88,30.84-17.82,46.26-5.13,13.33-10.27,26.65-15.4,39.98-1.69,4.39-3.38,8.77-5.07,13.16-.77,1.99-1.94,4.14-2.4,6.23-.02.09-.07.18-.1.26-.35.92,1.12,1.31,1.47.41h0Z"/>
        <path class="cls-2" d="m899.7,278.59c.14,5.55.27,11.11.41,16.66.33,13.34.66,26.68.99,40.02.4,16.14.8,32.28,1.19,48.43.34,13.96.69,27.92,1.03,41.88.11,4.6.23,9.21.34,13.81.05,2.14-.13,4.44.16,6.56.01.09,0,.2,0,.29.02.98,1.55.98,1.52,0-.14-5.55-.27-11.11-.41-16.66-.33-13.34-.66-26.68-.99-40.02-.4-16.14-.8-32.28-1.19-48.43-.34-13.96-.69-27.92-1.03-41.88-.11-4.6-.23-9.21-.34-13.81-.05-2.14.13-4.44-.16-6.56-.01-.09,0-.19,0-.29-.02-.98-1.55-.98-1.52,0h0Z"/>
        <g>
          <path class="cls-2" d="m595.82,275.6c-14.53-14.01-33.82-20.82-53.77-21.84-24.41-1.24-48.44,5.06-71.91,10.9-12.21,3.04-24.41,6.08-36.62,9.12-12.17,3.03-24.36,6.09-36.8,7.79-21.3,2.9-43.8,1.22-62.06-11.14-2.45-1.66-4.76-3.5-6.92-5.52-.03.66-.07,1.3-.16,1.94,10.93,9.77,25.61,15.31,40.03,16.93,25.29,2.84,50.45-4.58,74.74-10.63,12.64-3.15,25.27-6.33,37.92-9.44,12.45-3.05,24.99-5.92,37.73-7.44,21.89-2.62,44.97-1.11,64.2,10.65,4.54,2.78,8.72,6.06,12.55,9.75.71.68,1.78-.39,1.08-1.08Z"/>
          <path class="cls-2" d="m319.79,255.55c-1.34-2.04-2.53-4.19-3.53-6.44-2.35-5.29-3.79-11.73-.83-17.09,2.44-4.42,7.75-7.06,12.4-4.18,2.12,1.31,3.74,3.78,3.01,6.35-.65,2.27-2.86,4.3-5.28,4.39-1.16.04-3.07-1.47-4.01-.25-.62.81-.22,2.24.28,3.5.23-.7.69-1.13,1.25-1.32-.1-.31-.16-.61-.02-.73.25-.23.8.13,1.17.21.8.17,1.64.15,2.43-.02,3.51-.77,6.37-4.39,5.8-8.03-.59-3.72-4.13-6.28-7.7-6.75-4.12-.55-7.85,1.78-10.08,5.13-5.71,8.59-.49,20,4.77,27.47.05.08.11.15.16.23.05-.82.11-1.64.18-2.46Z"/>
          <path class="cls-2" d="m597.85,245.66c-11.8-14.6-30.09-21.57-48.41-23.03-21.35-1.7-41.99,4.29-61.6,12.2-10.83,4.37-21.43,9.28-32.16,13.88-11.42,4.9-23.04,9.27-34.99,12.72-11.93,3.45-24.2,6.33-36.56,7.72-11.7,1.32-23.95,1.11-35.08-3.12-8.61-3.27-16.59-8.96-21.71-16.69-.13.86-.2,1.71-.02,2.57,3.41,4.56,7.79,8.39,12.65,11.36,19.26,11.75,43.13,8.56,64.06,3.96,11.82-2.6,23.47-5.99,34.83-10.15,10.69-3.91,21.09-8.56,31.5-13.15,20.21-8.91,41.17-18.06,63.45-19.78,18.41-1.42,38.19,1.87,53.25,13.17,3.62,2.72,6.87,5.89,9.71,9.41.62.76,1.69-.32,1.08-1.08Z"/>
        </g>
        <path class="cls-2" d="m327.18,274.44c-.14,1.65-1,2.64-2.7,2.62-1.07,0-2.3-.1-3.13-.87-1.27-1.18-1.04-3.24-1.02-4.82.02-1.44.03-2.89.05-4.33.09-4.81.26-9.63.69-14.42.21-2.38.48-4.76.95-7.1.29-1.47.58-3.41,1.54-4.62.98-1.24,1.42.2,1.71,1.21.75,2.58,1.01,5.32,1.27,7.98.79,8.1,1.21,16.22.64,24.35-.07.98,1.45.97,1.52,0,.62-8.8.17-17.69-.87-26.45-.2-1.68-1.05-11.96-4.98-8.59-1.3,1.12-1.76,3.25-2.12,4.83-.6,2.63-.91,5.33-1.16,8.01-.52,5.62-.68,11.27-.75,16.91-.03,2.63-.63,6.15,1.44,8.12,1.4,1.33,3.85,1.56,5.67,1.23,2.13-.38,2.6-2.13,2.76-4.06.09-.98-1.44-.97-1.52,0Z"/>
        <path class="cls-2" d="m248.42,437.67c.97.98,2.94,1.27,4.2,1.61,3.39.9,6.85,1.57,10.3,2.18,11.35,2.02,22.84,3.27,34.34,4.02,25.6,1.68,51.86,1.02,77.18-3.44,3.44-.61,6.88-1.29,10.25-2.21,1.69-.47,3.84-.91,5.29-1.98,3.56-2.64-7.2-4.65-8.18-4.85-10.77-2.18-21.82-3.18-32.77-3.95-15.06-1.05-30.17-1.25-45.26-.73-12.8.44-25.62,1.3-38.31,3.05-4.09.57-8.22,1.19-12.22,2.26-1.45.39-4.23.89-5.03,2.39-.31.59-.2,1.15.21,1.65.62.76,1.69-.32,1.08-1.08.09.11-.04.28.04.17.16-.23.48-.36.72-.5.92-.51,1.98-.79,2.98-1.07,3.51-.98,7.13-1.56,10.73-2.09,11.63-1.73,23.41-2.57,35.15-3.09,25.4-1.13,51.25-.57,76.41,3.4,3.46.55,6.93,1.14,10.31,2.08.93.26,1.93.52,2.79.98.18.09.42.33.59.39-.05-.01.06-.36-.02-.34-1.49.44-2.99,1.28-4.54,1.72-3.03.86-6.13,1.5-9.23,2.07-23.25,4.29-47.4,5.1-70.96,4.03-11.73-.53-23.45-1.6-35.06-3.37-6.22-.94-12.8-1.78-18.76-3.89-.36-.13-1.06-.42-1.15-.51-.69-.7-1.77.38-1.08,1.08Z"/>
        <path class="cls-2" d="m388.9,437.13c-.05,3.38-2.08,7.46-4.15,10.38-6.64,9.39-18.24,14.22-29,16.96-10.27,2.61-20.91,3.58-31.48,3.81-11.58.25-23.28-.27-34.67-2.42-12.15-2.3-25.32-6.57-33.78-16.12-2.1-2.37-3.88-5.1-5-8.08-.53-1.42-.83-3.17-1.09-4.31-.01-.07-.01-.14-.01-.21-.03-.98-1.55-.98-1.52,0,.12,3.99,2.3,8.1,4.57,11.23,6.95,9.55,18.6,14.6,29.7,17.47,10.44,2.7,21.28,3.72,32.04,3.97,11.81.27,23.74-.27,35.37-2.47,12.36-2.34,25.86-6.81,34.34-16.67,2.18-2.53,3.97-5.39,5.11-8.54.5-1.37,1.21-3.26,1.09-4.76,0-.07.01-.15.01-.23.01-.98-1.51-.98-1.52,0h0Z"/>
        <path class="cls-2" d="m250.61,435.95c2.31-5.34,4.62-10.67,6.93-16.01,5.55-12.82,11.09-25.63,16.64-38.45,6.71-15.51,13.42-31.02,20.14-46.53,5.81-13.42,11.61-26.84,17.42-40.25,1.93-4.45,3.86-8.91,5.78-13.36.89-2.06,1.98-4.13,2.71-6.26.03-.1.08-.19.12-.29.39-.89-.93-1.67-1.32-.77-2.31,5.34-4.62,10.67-6.93,16.01-5.55,12.82-11.09,25.63-16.64,38.45-6.71,15.51-13.42,31.02-20.14,46.53-5.81,13.42-11.61,26.84-17.42,40.25-1.93,4.45-3.86,8.91-5.78,13.36-.89,2.06-1.98,4.13-2.71,6.26-.03.1-.08.19-.12.29-.39.89.93,1.67,1.32.77h0Z"/>
        <path class="cls-2" d="m390.4,435.37c-2.05-5.31-4.09-10.62-6.14-15.93-4.91-12.75-9.82-25.49-14.74-38.24-5.94-15.42-11.88-30.84-17.82-46.26-5.13-13.33-10.27-26.65-15.4-39.98-1.69-4.39-3.38-8.77-5.07-13.16-.79-2.05-1.43-4.26-2.4-6.23-.04-.08-.07-.18-.1-.26-.35-.91-1.82-.51-1.47.4,2.05,5.31,4.09,10.62,6.14,15.93,4.91,12.75,9.82,25.49,14.74,38.24,5.94,15.42,11.88,30.84,17.82,46.26,5.13,13.33,10.27,26.65,15.4,39.98,1.69,4.39,3.38,8.77,5.07,13.16.79,2.05,1.43,4.26,2.4,6.23.04.08.07.18.1.26.35.91,1.82.51,1.47-.4h0Z"/>
        <path class="cls-2" d="m322.68,277.81c-.14,5.55-.27,11.11-.41,16.66-.33,13.34-.66,26.68-.99,40.02-.4,16.14-.8,32.28-1.19,48.43-.34,13.96-.69,27.92-1.03,41.88-.11,4.6-.23,9.21-.34,13.81-.05,2.13-.38,4.44-.16,6.56,0,.09,0,.2,0,.29-.02.98,1.5.98,1.52,0,.14-5.55.27-11.11.41-16.66.33-13.34.66-26.68.99-40.02.4-16.14.8-32.28,1.19-48.43.34-13.96.69-27.92,1.03-41.88.11-4.6.23-9.21.34-13.81.05-2.13.38-4.44.16-6.56,0-.09,0-.2,0-.29.02-.98-1.5-.98-1.52,0h0Z"/>
        <path class="cls-2" d="m628.66,565.62c-.31-4.69.13-10.35-2.03-14.66-1.2-2.4-3.26-4.15-3.91-6.83-.62-2.58-.26-5.3-.28-7.92,0-1.39.22-4.41-1.14-5.32-1.27-.86-3.99-.18-5.46-.09-3.79.23-7.51.09-11.3-.02-1.38-.04-3.41-.55-4.22.92-1.05,1.92-.5,5.13-.43,7.21.1,2.53.19,5.17-.98,7.5-1.08,2.13-2.8,3.8-3.58,6.11-.77,2.28-.82,4.77-.94,7.15-.13,2.66-.43,5.37-.36,8.03.14,4.92,3.7,6.83,8.23,6.75,2.96-.05,5.94-.38,8.89-.37,3.15,0,6.31.24,9.46.24,2.32,0,4.72-.28,6.43-2.02,1.77-1.81,1.77-4.3,1.62-6.67-.06-.97-1.58-.98-1.52,0,.16,2.49.17,5.13-2.37,6.46-2.28,1.2-5.41.67-7.89.62-1.9-.04-3.82-.17-5.7-.2-2.46-.03-4.99.25-7.45.34-2.48.09-5.43.37-7.15-1.79-1.55-1.95-.99-4.95-.87-7.27.21-4.24-.2-9.22,2.1-12.96.97-1.58,2.21-2.96,2.89-4.71.69-1.79.81-3.73.78-5.64-.03-2.01-.25-4.03-.1-6.04.11-1.41.12-2.21,1.72-2.18.95.02,1.9.04,2.84.08,3.12.13,6.19.2,9.31,0,.64-.04,1.27-.08,1.91-.11.61-.03,2.48-.39,2.97-.11,1.42.8.79,5.17.76,6.63-.05,2.12-.09,4.31.54,6.36.65,2.13,2.1,3.68,3.27,5.52,2.67,4.18,2.14,10.21,2.46,14.99.06.97,1.59.98,1.52,0Z"/>
        <path class="cls-2" d="m532.64,661.71c-.48-1.09-.82-2.24-1-3.44-.78-5.33,1.73-10.76,6.28-13.65,3.18-2.02,6.54-2.15,10.11-2.15h123.43c1.97,0,3.94-.03,5.9,0,9.87.14,16.89,10.48,12.62,19.61.53-.2,1.08-.17,1.58,0,1.32-3.07,1.65-6.59.61-10.12-2.01-6.78-8.29-11-15.23-11.02-7.76-.02-15.52,0-23.28,0h-85.89c-7.38,0-14.76-.04-22.14,0-7.58.04-14.33,5.39-15.48,13.03-.43,2.89-.01,5.69,1.05,8.17.38-.27.85-.43,1.43-.43h0Z"/>
        <path class="cls-2" d="m500.97,675.42c-.22-2.47.34-5.04,1.85-7.31,2.28-3.43,6.06-5.18,10.1-5.2,1.08,0,2.16,0,3.24,0h191.03c.94,0,1.88,0,2.82,0,4.95.04,9.52,2.98,11.2,7.73.57,1.61.75,3.23.62,4.78h1.54c0-.12.03-.23.03-.35.29-6.67-4.76-12.65-11.35-13.56-2.53-.35-5.21-.13-7.75-.13h-162.32c-9.69,0-19.39-.05-29.08,0-3.64.02-7.09,1.26-9.69,3.86-2.74,2.74-4.01,6.5-3.77,10.18h1.54Z"/>
        <path class="cls-2" d="m733.79,714.41h-234.81c-3.3,0-6.6.04-9.9,0-8-.1-14.45-6.46-14.57-14.48-.09-5.78-.93-12.65,2.47-17.67,2.87-4.24,7.55-6.39,12.58-6.41,1.41,0,2.83,0,4.24,0h238.91c3.25,0,6.38.61,9.14,2.47,4.01,2.7,6.34,7.21,6.41,12.02.04,2.6,0,5.2,0,7.8,0,3.45-.4,6.67-2.33,9.65-2.67,4.13-7.25,6.53-12.14,6.61-.98.02-.98,1.54,0,1.52,8.79-.15,15.87-7.21,15.99-16.01.08-5.76.85-12.41-2.15-17.58-2.93-5.05-8.32-7.98-14.11-8.01-1.22,0-2.45,0-3.67,0h-227.94c-4.14,0-8.28-.01-12.42,0-4.69.01-9.14,1.72-12.33,5.24-4.9,5.4-4.18,12.27-4.18,19.01,0,3.39.5,6.6,2.28,9.56,2.18,3.61,5.79,6.32,9.89,7.33,1.82.45,3.63.47,5.48.47h243.17c.98,0,.98-1.52,0-1.52Z"/>
      </g>
      <path class="cls-2" d="m663.35,234.47c7.38-4.76,16.31-4.37,24.73-3.9.98.05.98-1.47,0-1.52-8.69-.48-17.88-.8-25.5,4.11-.82.53-.06,1.85.77,1.32h0Z"/>
      <path class="cls-2" d="m679.75,235.41c15.02-.1,29.86,3.64,43.03,10.85.86.47,1.63-.84.77-1.32-13.41-7.34-28.51-11.16-43.8-11.06-.98,0-.98,1.53,0,1.52h0Z"/>
      <path class="cls-2" d="m712.85,234.59c7.59,3.76,15.11,7.73,22.82,11.24,7.38,3.36,15.15,5.23,23.04,6.95.96.21,1.36-1.26.4-1.47-8-1.74-15.86-3.63-23.32-7.09-7.48-3.46-14.8-7.28-22.19-10.94-.88-.43-1.65.88-.77,1.32h0Z"/>
      <path class="cls-2" d="m900.24,230.91c2.57.67,4.64,2.54,5.5,5.07.32.92,1.79.53,1.47-.4-1.04-3.03-3.46-5.32-6.57-6.13-.95-.25-1.35,1.22-.4,1.47h0Z"/>
      <path class="cls-2" d="m503.13,251.5c-6.58,1.87-13.06,4.05-19.44,6.53-.9.35-.51,1.82.41,1.47,6.37-2.48,12.86-4.66,19.44-6.53.94-.27.54-1.74-.41-1.47h0Z"/>
      <path class="cls-2" d="m488.02,250.65c-7.29,3.14-14.57,6.28-21.86,9.42-7.06,3.04-14.16,6.09-21.78,7.39-.96.16-.56,1.63.41,1.47,7.51-1.28,14.51-4.25,21.46-7.25,7.52-3.24,15.03-6.48,22.54-9.72.9-.39.12-1.7-.77-1.32h0Z"/>
      <path class="cls-2" d="m451.58,259.73c-14.42,4.41-29.08,7.94-43.93,10.57-.96.17-.56,1.64.41,1.47,14.85-2.63,29.51-6.16,43.93-10.57.93-.29.54-1.76-.4-1.47h0Z"/>
      <path class="cls-2" d="m626.35,258.62l-.5,9.75c-.05.98,1.47.98,1.52,0l.5-9.75c.05-.98-1.47-.98-1.52,0h0Z"/>
      <path class="cls-2" d="m611.93,361.64c-.1,14.01-.2,28.03-.29,42.04,0,.98,1.52.98,1.52,0,.1-14.01.2-28.03.29-42.04,0-.98-1.52-.98-1.52,0h0Z"/>
      <path class="cls-2" d="m616.07,352.72c-.29-10.67-.58-21.34-.87-32.02-.03-.98-1.55-.98-1.52,0,.29,10.67.58,21.34.87,32.02.03.98,1.55.98,1.52,0h0Z"/>
      <path class="cls-2" d="m604.27,580.44c1.45,8-1.25,16.19-7.05,21.86-2.77,2.7-5.71,5.1-7.47,8.63-1.72,3.45-2.46,7.26-3.17,11.01-.18.96,1.29,1.37,1.47.41.79-4.21,1.6-8.59,3.93-12.27,2.32-3.68,6.15-6.05,8.8-9.45,4.52-5.81,6.27-13.37,4.96-20.59-.17-.96-1.64-.56-1.47.41h0Z"/>
      <path class="cls-2" d="m604.13,607.5c-3.31,3.76-5.66,8.27-6.7,13.18-.83,3.93-1.47,8.84,2.35,11.37,1.79,1.19,3.98,1.72,6.06,2.14,2.52.51,5.16.8,7.71.27,4.22-.87,7.28-3.91,7.78-8.23.7-6.06-1.23-12.56-4.02-17.87-.46-.87-1.77-.1-1.32.77,2.6,4.94,4.33,10.87,3.87,16.5-.56,6.82-7.26,8.24-12.95,7.23-2.29-.41-4.97-.93-6.81-2.45-2.28-1.88-1.87-5.19-1.48-7.81.78-5.22,3.1-10.08,6.58-14.03.65-.73-.43-1.81-1.08-1.08h0Z"/>
      <path class="cls-2" d="m622.61,607.89c4.42,5.48,3.84,12.47,3.26,19.07-.09.98,1.44.97,1.52,0,.62-7.13,1.03-14.28-3.7-20.15-.62-.76-1.69.32-1.08,1.08h0Z"/>
      <path class="cls-2" d="m632.27,616.95c.34,6.01-.11,11.99-1.39,17.88-.21.96,1.26,1.36,1.47.4,1.3-6.02,1.79-12.14,1.44-18.28-.06-.97-1.58-.98-1.52,0h0Z"/>
      <path class="cls-2" d="m650.61,706.29c16.26-.47,32.51-1.46,48.71-2.95.97-.09.98-1.61,0-1.52-16.2,1.49-32.45,2.48-48.71,2.95-.98.03-.98,1.55,0,1.52h0Z"/>
      <path class="cls-2" d="m619.98,696.88c16.33.61,32.68.59,49.01-.06.98-.04.98-1.56,0-1.52-16.33.66-32.68.68-49.01.06-.98-.04-.98,1.49,0,1.52h0Z"/>
      <path class="cls-2" d="m636.41,704.24c-15.05.43-30.08,1.16-45.1,2.2-.97.07-.98,1.59,0,1.52,15.02-1.04,30.05-1.78,45.1-2.2.98-.03.98-1.55,0-1.52h0Z"/>
      <path class="cls-2" d="m595.48,701.23c3.16-.11,6.31-.22,9.46-.32.98-.03.98-1.56,0-1.52-3.16.11-6.31.22-9.46.32-.98.03-.98,1.56,0,1.52h0Z"/>
      <path class="cls-2" d="m596.6,556.96c1.9-2,4.06-3.6,6.53-4.84-.31-.04-.61-.08-.92-.12,2,2.35,4.24,4.41,6.73,6.23.29.21.68.08.92-.12,3.09-2.5,5.89-5.27,8.41-8.34h-1.08c2.92,2.93,6,5.67,9.25,8.22v-1.08c-1.93,1.64-5.24,1.21-7.6,1.26-2.6.06-5.19.09-7.79.09-5.2,0-10.39-.11-15.58-.33-.98-.04-.98,1.48,0,1.52,5.93.25,11.87.36,17.81.32,2.97-.02,5.94-.05,8.9-.17,1.98-.08,3.78-.3,5.34-1.61.29-.24.31-.84,0-1.08-3.25-2.55-6.33-5.3-9.25-8.22-.27-.27-.82-.32-1.08,0-2.52,3.06-5.33,5.84-8.41,8.34.31-.04.62-.08.92-.12-2.39-1.74-4.52-3.74-6.43-5.99-.23-.27-.64-.26-.92-.12-2.58,1.3-4.85,2.99-6.84,5.08-.67.71.4,1.79,1.08,1.08h0Z"/>
      <path class="cls-2" d="m602.37,564.22c4.32-.06,8.63-.07,12.95-.03.98,0,.98-1.51,0-1.52-4.32-.04-8.63-.03-12.95.03-.98.01-.98,1.54,0,1.52h0Z"/>
      <path class="cls-2" d="m606.5,567.43c2.34.11,4.69.18,7.03.21.98.01.98-1.51,0-1.52-2.34-.03-4.69-.1-7.03-.21-.98-.05-.98,1.48,0,1.52h0Z"/>
      <path class="cls-2" d="m859.66,450.47c9.49,1.69,19.08,2.71,28.72,3.05.98.03.98-1.49,0-1.52-9.5-.33-18.95-1.33-28.31-2.99-.96-.17-1.37,1.3-.4,1.47h0Z"/>
      <path class="cls-2" d="m872.29,456.73c14.26,2.39,28.72,1.79,43.09,1.11.98-.05.98-1.57,0-1.52-14.23.67-28.57,1.31-42.68-1.06-.96-.16-1.37,1.31-.4,1.47h0Z"/>
      <path class="cls-2" d="m903.12,452.53c7.35,0,14.7-.18,22.05-.57.98-.05.98-1.57,0-1.52-7.34.38-14.69.57-22.05.57-.98,0-.98,1.52,0,1.52h0Z"/>
      <path class="cls-2" d="m931.08,435.05c5.7-.21,11.4-.04,17.08.51.97.09.97-1.43,0-1.52-5.68-.55-11.38-.72-17.08-.51-.98.04-.98,1.56,0,1.52h0Z"/>
      <path class="cls-2" d="m283.28,436.43c22.55-1.92,45.22-2.04,67.79-.36.98.07.97-1.45,0-1.52-22.57-1.68-45.24-1.56-67.79.36-.97.08-.98,1.61,0,1.52h0Z"/>
      <path class="cls-2" d="m304.24,439.53c8.87-.19,17.73-.06,26.59.38.98.05.98-1.47,0-1.52-8.86-.44-17.72-.57-26.59-.38-.98.02-.98,1.54,0,1.52h0Z"/>
      <path class="cls-2" d="m363.62,435.76c2.9.19,5.79.44,8.67.74.97.1.97-1.42,0-1.52-2.89-.3-5.78-.55-8.67-.74-.98-.06-.97,1.46,0,1.52h0Z"/>
      <path class="cls-2" d="m272.65,457.99c7.91,2.75,16.08,4.53,24.4,5.38.97.1.97-1.43,0-1.52-8.19-.83-16.23-2.62-24-5.32-.93-.32-1.33,1.15-.41,1.47h0Z"/>
      <path class="cls-2" d="m290.6,458.12c13.09,1.33,26.25,1.81,39.4,1.44.98-.03.98-1.55,0-1.52-13.15.37-26.31-.12-39.4-1.44-.97-.1-.97,1.42,0,1.52h0Z"/>
    </g>
    <g>
      <polygon class="cls-1" points="866.67 338.2 854.16 320.3 872.81 329.67 884.49 316.06 880.41 334.04 901.26 340.05 886.67 342.99 892.02 358.01 879.51 352.23 872.26 366.98 871.62 350.48 856.82 353.56 866.67 338.2"/>
      <path class="cls-1" d="m629.6,339.95c-.73-2.15.43-4.49,2.58-5.21,2.15-.73,4.49.43,5.21,2.58.73,2.15-.43,4.49-2.58,5.21-2.15.73-4.49-.43-5.21-2.58Z"/>
      <path class="cls-1" d="m609.33,339.6c-.73-2.15.43-4.49,2.58-5.21,2.15-.73,4.49.43,5.21,2.58.73,2.15-.43,4.49-2.58,5.21-2.15.73-4.49-.43-5.21-2.58Z"/>
      <path class="cls-1" d="m588.73,339.25c-.73-2.15.43-4.49,2.58-5.21s4.49.43,5.21,2.58c.73,2.15-.43,4.49-2.58,5.21-2.15.73-4.49-.43-5.21-2.58Z"/>
      <path class="cls-1" d="m569.01,338.92c-.73-2.15.43-4.49,2.58-5.21,2.15-.73,4.49.43,5.21,2.58.73,2.15-.43,4.49-2.58,5.21-2.15.73-4.49-.43-5.21-2.58Z"/>
      <path class="cls-1" d="m549.43,338.58c-.73-2.15.43-4.49,2.58-5.21,2.15-.73,4.49.43,5.21,2.58.73,2.15-.43,4.49-2.58,5.21-2.15.73-4.49-.43-5.21-2.58Z"/>
      <path class="cls-1" d="m529.16,338.24c-.73-2.15.43-4.49,2.58-5.21,2.15-.73,4.49.43,5.21,2.58.73,2.15-.43,4.49-2.58,5.21-2.15.73-4.49-.43-5.21-2.58Z"/>
      <path class="cls-1" d="m507.16,337.86c-.73-2.15.43-4.49,2.58-5.21,2.15-.73,4.49.43,5.21,2.58.73,2.15-.43,4.49-2.58,5.21-2.15.73-4.49-.43-5.21-2.58Z"/>
      <path class="cls-1" d="m484.97,337.48c-.73-2.15.43-4.49,2.58-5.21,2.15-.73,4.49.43,5.21,2.58.73,2.15-.43,4.49-2.58,5.21-2.15.73-4.49-.43-5.21-2.58Z"/>
      <path class="cls-1" d="m462.44,338.97c-.73-2.15.43-4.49,2.58-5.21,2.15-.73,4.49.43,5.21,2.58.73,2.15-.43,4.49-2.58,5.21-2.15.73-4.49-.43-5.21-2.58Z"/>
      <path class="cls-1" d="m441.84,338.62c-.73-2.15.43-4.49,2.58-5.21,2.15-.73,4.49.43,5.21,2.58.73,2.15-.43,4.49-2.58,5.21-2.15.73-4.49-.43-5.21-2.58Z"/>
      <path class="cls-1" d="m422.13,338.28c-.73-2.15.43-4.49,2.58-5.21,2.15-.73,4.49.43,5.21,2.58.73,2.15-.43,4.49-2.58,5.21-2.15.73-4.49-.43-5.21-2.58Z"/>
      <path class="cls-1" d="m402.54,337.95c-.73-2.15.43-4.49,2.58-5.21,2.15-.73,4.49.43,5.21,2.58s-.43,4.49-2.58,5.21c-2.15.73-4.49-.43-5.21-2.58Z"/>
      <path class="cls-1" d="m382.27,337.6c-.73-2.15.43-4.49,2.58-5.21,2.15-.73,4.49.43,5.21,2.58.73,2.15-.43,4.49-2.58,5.21-2.15.73-4.49-.43-5.21-2.58Z"/>
      <path class="cls-1" d="m360.27,337.23c-.73-2.15.43-4.49,2.58-5.21,2.15-.73,4.49.43,5.21,2.58.73,2.15-.43,4.49-2.58,5.21-2.15.73-4.49-.43-5.21-2.58Z"/>
      <path class="cls-1" d="m338.08,336.85c-.73-2.15.43-4.49,2.58-5.21,2.15-.73,4.49.43,5.21,2.58.73,2.15-.43,4.49-2.58,5.21-2.15.73-4.49-.43-5.21-2.58Z"/>
      <path class="cls-1" d="m315.77,337.09c-.73-2.15.43-4.49,2.58-5.21,2.15-.73,4.49.43,5.21,2.58.73,2.15-.43,4.49-2.58,5.21-2.15.73-4.49-.43-5.21-2.58Z"/>
      <path class="cls-1" d="m688.57,340.76c-.73-2.15.43-4.49,2.58-5.21,2.15-.73,4.49.43,5.21,2.58.73,2.15-.43,4.49-2.58,5.21-2.15.73-4.49-.43-5.21-2.58Z"/>
      <path class="cls-1" d="m667.95,340.41c-.73-2.15.43-4.49,2.58-5.21,2.15-.73,4.49.43,5.21,2.58.73,2.15-.43,4.49-2.58,5.21-2.15.73-4.49-.43-5.21-2.58Z"/>
      <path class="cls-1" d="m648.8,340.08c-.73-2.15.43-4.49,2.58-5.21,2.15-.73,4.49.43,5.21,2.58.73,2.15-.43,4.49-2.58,5.21-2.15.73-4.49-.43-5.21-2.58Z"/>
      <path class="cls-1" d="m793.87,343.59c-.72-2.15.43-4.49,2.59-5.21s4.48.43,5.21,2.59c.72,2.15-.43,4.49-2.59,5.21-2.15.72-4.48-.43-5.21-2.59Z"/>
      <path class="cls-1" d="m773.6,343.23c-.72-2.15.43-4.49,2.59-5.21,2.15-.72,4.48.43,5.21,2.59.72,2.15-.43,4.49-2.59,5.21-2.15.72-4.48-.43-5.21-2.59Z"/>
      <path class="cls-1" d="m753,342.87c-.72-2.15.43-4.49,2.59-5.21,2.15-.72,4.48.43,5.21,2.59.72,2.15-.43,4.49-2.59,5.21s-4.48-.43-5.21-2.59Z"/>
      <path class="cls-1" d="m733.29,342.52c-.72-2.15.43-4.48,2.59-5.21,2.15-.72,4.48.43,5.21,2.59.72,2.15-.43,4.48-2.59,5.21-2.15.72-4.48-.43-5.21-2.59Z"/>
      <path class="cls-1" d="m713.7,342.17c-.72-2.15.43-4.49,2.59-5.21,2.15-.72,4.49.43,5.21,2.59.72,2.15-.43,4.49-2.59,5.21s-4.49-.43-5.21-2.59Z"/>
      <path class="cls-1" d="m832.22,344.07c-.72-2.15.43-4.49,2.59-5.21,2.15-.72,4.49.43,5.21,2.59.72,2.15-.43,4.49-2.59,5.21s-4.49-.43-5.21-2.59Z"/>
      <path class="cls-1" d="m813.07,343.73c-.72-2.15.43-4.48,2.59-5.21,2.15-.72,4.48.43,5.21,2.59.72,2.15-.43,4.48-2.59,5.21-2.15.72-4.48-.43-5.21-2.59Z"/>
      <path class="cls-1" d="m306.18,369.7c.71,2.22-.52,4.59-2.73,5.3-2.22.71-4.59-.52-5.3-2.73-.71-2.22.52-4.59,2.74-5.3,2.22-.71,4.59.52,5.3,2.73Z"/>
      <path class="cls-1" d="m343.82,444.53c-1.46,1.74-4.06,1.96-5.79.5-1.74-1.46-1.96-4.06-.5-5.79s4.06-1.96,5.79-.5c1.74,1.46,1.96,4.06.5,5.79Z"/>
      <path class="cls-1" d="m354.06,462.02c-1.46,1.74-4.06,1.96-5.79.5-1.74-1.46-1.96-4.06-.5-5.79,1.46-1.74,4.06-1.96,5.79-.5,1.74,1.46,1.96,4.06.5,5.79Z"/>
      <path class="cls-1" d="m364.47,479.8c-1.46,1.74-4.06,1.96-5.79.5s-1.96-4.06-.5-5.79c1.46-1.74,4.06-1.96,5.79-.5,1.74,1.46,1.96,4.06.5,5.79Z"/>
      <path class="cls-1" d="m374.43,496.82c-1.46,1.74-4.06,1.96-5.79.5-1.74-1.46-1.96-4.06-.5-5.79s4.06-1.96,5.79-.5,1.96,4.06.5,5.79Z"/>
      <path class="cls-1" d="m384.33,513.72c-1.46,1.74-4.06,1.96-5.79.5-1.74-1.46-1.96-4.06-.5-5.79s4.06-1.96,5.79-.5c1.74,1.46,1.96,4.06.5,5.79Z"/>
      <path class="cls-1" d="m394.58,531.22c-1.46,1.74-4.06,1.96-5.79.5s-1.96-4.06-.5-5.79,4.06-1.96,5.79-.5c1.74,1.46,1.96,4.06.5,5.79Z"/>
      <path class="cls-1" d="m313.85,393.73c-1.46,1.74-4.06,1.96-5.79.5-1.74-1.46-1.96-4.06-.5-5.79,1.46-1.74,4.06-1.96,5.79-.5s1.96,4.06.5,5.79Z"/>
      <path class="cls-1" d="m324.27,411.53c-1.46,1.74-4.06,1.96-5.79.5s-1.96-4.06-.5-5.79,4.06-1.96,5.79-.5c1.74,1.46,1.96,4.06.5,5.79Z"/>
      <path class="cls-1" d="m333.95,428.06c-1.46,1.74-4.06,1.96-5.79.5-1.74-1.46-1.96-4.06-.5-5.79,1.46-1.74,4.06-1.96,5.79-.5,1.74,1.46,1.96,4.06.5,5.79Z"/>
      <polygon class="cls-1" points="410.04 550.5 428.16 547.36 413.98 560.67 417.65 571.97 407.83 561.51 389.54 569.74 400.6 559.35 388.86 545 398.9 547.95 406.45 537.3 410.04 550.5"/>
      <path class="cls-1" d="m281.7,325.23c1.49-2.58,13.59-18.51,13.59-18.51l-3.37,18.69,17.4,2.62-13.88,5.15,12.61,11.89-14.76-2.24,4.81,19.42-10.94-13.79-7.71,13.31.77-16.18-19.46,1.92,16.3-8.34-20.43-11.26,17.47,1.52-2.8-15.96,10.4,11.75Z"/>
      <polygon class="cls-1" points="551.87 135.02 538.96 146.99 540.77 131.71 527.46 130.13 540.83 122.72 540.41 105.18 551.07 116.44 569.25 110.6 557.64 124.21 565.75 140.16 551.87 135.02"/>
      <path class="cls-1" d="m728.77,237.38c-.53,2.21-2.75,3.57-4.96,3.04-2.21-.53-3.57-2.75-3.04-4.96.53-2.21,2.75-3.57,4.96-3.04,2.21.53,3.57,2.75,3.04,4.96Z"/>
      <path class="cls-1" d="m745.75,248.46c-.53,2.21-2.75,3.57-4.96,3.04-2.21-.53-3.57-2.75-3.04-4.96.53-2.21,2.75-3.57,4.96-3.04,2.21.53,3.57,2.75,3.04,4.96Z"/>
      <path class="cls-1" d="m763.01,259.72c-.53,2.21-2.75,3.57-4.96,3.04-2.21-.53-3.57-2.75-3.04-4.96.53-2.21,2.75-3.57,4.96-3.04,2.21.53,3.57,2.75,3.04,4.96Z"/>
      <path class="cls-1" d="m779.52,270.5c-.53,2.21-2.75,3.57-4.96,3.04-2.21-.53-3.57-2.75-3.04-4.96.53-2.21,2.75-3.57,4.96-3.04,2.21.53,3.57,2.75,3.04,4.96Z"/>
      <path class="cls-1" d="m795.92,281.2c-.53,2.21-2.75,3.57-4.96,3.04-2.21-.53-3.57-2.75-3.04-4.96.53-2.21,2.75-3.57,4.96-3.04,2.21.53,3.57,2.75,3.04,4.96Z"/>
      <path class="cls-1" d="m812.9,292.28c-.53,2.21-2.75,3.57-4.96,3.04-2.21-.53-3.57-2.75-3.04-4.96.53-2.21,2.75-3.57,4.96-3.04,2.21.53,3.57,2.75,3.04,4.96Z"/>
      <path class="cls-1" d="m831.32,304.3c-.53,2.21-2.75,3.57-4.96,3.04-2.21-.53-3.57-2.75-3.04-4.96.53-2.21,2.75-3.57,4.96-3.04,2.21.53,3.57,2.75,3.04,4.96Z"/>
      <path class="cls-1" d="m849.91,316.44c-.53,2.21-2.75,3.57-4.96,3.04-2.21-.53-3.57-2.75-3.04-4.96.53-2.21,2.75-3.57,4.96-3.04,2.21.53,3.57,2.75,3.04,4.96Z"/>
      <path class="cls-1" d="m679.27,205.31c-.53,2.21-2.75,3.57-4.96,3.04-2.21-.53-3.57-2.75-3.04-4.96.53-2.21,2.75-3.57,4.96-3.04,2.21.53,3.57,2.75,3.04,4.96Z"/>
      <path class="cls-1" d="m696.55,216.58c-.53,2.21-2.75,3.57-4.96,3.04-2.21-.53-3.57-2.75-3.04-4.96.53-2.21,2.75-3.57,4.96-3.04,2.21.53,3.57,2.75,3.04,4.96Z"/>
      <path class="cls-1" d="m712.59,227.05c-.53,2.21-2.75,3.57-4.96,3.04-2.21-.53-3.57-2.75-3.04-4.96.53-2.21,2.75-3.57,4.96-3.04,2.21.53,3.57,2.75,3.04,4.96Z"/>
      <path class="cls-1" d="m591.63,146.87c-.53,2.21-2.75,3.57-4.96,3.03-2.21-.53-3.57-2.75-3.03-4.96.53-2.21,2.75-3.57,4.96-3.03,2.21.53,3.57,2.75,3.03,4.96Z"/>
      <path class="cls-1" d="m608.6,157.96c-.53,2.21-2.75,3.57-4.96,3.03-2.21-.53-3.57-2.75-3.03-4.96.53-2.21,2.75-3.57,4.96-3.03,2.21.53,3.57,2.75,3.03,4.96Z"/>
      <path class="cls-1" d="m625.86,169.23c-.53,2.21-2.75,3.57-4.96,3.03-2.21-.53-3.57-2.75-3.03-4.96.53-2.21,2.75-3.57,4.96-3.03,2.21.53,3.57,2.75,3.03,4.96Z"/>
      <path class="cls-1" d="m642.36,180.02c-.53,2.21-2.75,3.57-4.96,3.03-2.21-.53-3.57-2.75-3.03-4.96.53-2.21,2.75-3.57,4.96-3.03,2.21.53,3.57,2.75,3.03,4.96Z"/>
      <path class="cls-1" d="m658.76,190.74c-.53,2.21-2.75,3.57-4.96,3.03-2.21-.53-3.57-2.75-3.03-4.96.53-2.21,2.75-3.57,4.96-3.03,2.21.53,3.57,2.75,3.03,4.96Z"/>
      <path class="cls-1" d="m405.73,239.89c-1.94-1.17-2.57-3.7-1.4-5.65,1.17-1.94,3.7-2.57,5.65-1.4,1.94,1.17,2.57,3.7,1.4,5.65-1.17,1.94-3.7,2.57-5.65,1.4Z"/>
      <path class="cls-1" d="m390.04,252.73c-1.94-1.17-2.57-3.7-1.4-5.65,1.17-1.94,3.7-2.57,5.65-1.4,1.94,1.17,2.57,3.7,1.4,5.65-1.17,1.94-3.7,2.57-5.65,1.4Z"/>
      <path class="cls-1" d="m374.09,265.78c-1.94-1.17-2.57-3.7-1.4-5.65,1.17-1.94,3.7-2.57,5.65-1.4,1.94,1.17,2.57,3.7,1.4,5.65-1.17,1.94-3.7,2.57-5.65,1.4Z"/>
      <path class="cls-1" d="m358.83,278.26c-1.94-1.17-2.57-3.7-1.4-5.65,1.17-1.94,3.7-2.57,5.65-1.4,1.94,1.17,2.57,3.7,1.4,5.65-1.17,1.94-3.7,2.57-5.65,1.4Z"/>
      <path class="cls-1" d="m343.67,290.66c-1.94-1.17-2.57-3.7-1.4-5.65s3.7-2.57,5.65-1.4c1.94,1.17,2.57,3.7,1.4,5.65-1.17,1.94-3.7,2.57-5.65,1.4Z"/>
      <path class="cls-1" d="m327.97,303.5c-1.94-1.17-2.57-3.7-1.4-5.65,1.17-1.94,3.7-2.57,5.65-1.4s2.57,3.7,1.4,5.65c-1.17,1.94-3.7,2.57-5.65,1.4Z"/>
      <path class="cls-1" d="m310.95,317.43c-1.94-1.17-2.57-3.7-1.4-5.65,1.17-1.94,3.7-2.57,5.65-1.4,1.94,1.17,2.57,3.7,1.4,5.65-1.17,1.94-3.7,2.57-5.65,1.4Z"/>
      <path class="cls-1" d="m451.26,202.4c-1.94-1.17-2.57-3.7-1.4-5.65,1.17-1.94,3.7-2.57,5.65-1.4,1.94,1.17,2.57,3.7,1.4,5.65-1.17,1.94-3.7,2.57-5.65,1.4Z"/>
      <path class="cls-1" d="m435.29,215.46c-1.94-1.17-2.57-3.7-1.4-5.65,1.17-1.94,3.7-2.57,5.65-1.4,1.94,1.17,2.57,3.7,1.4,5.65-1.17,1.94-3.7,2.57-5.65,1.4Z"/>
      <path class="cls-1" d="m420.47,227.59c-1.94-1.17-2.57-3.7-1.4-5.65,1.17-1.94,3.7-2.57,5.65-1.4,1.94,1.17,2.57,3.7,1.4,5.65-1.17,1.94-3.7,2.57-5.65,1.4Z"/>
      <path class="cls-1" d="m517.74,149.33c-1.94-1.17-2.57-3.7-1.39-5.65,1.17-1.94,3.7-2.57,5.65-1.39,1.94,1.17,2.57,3.7,1.39,5.65s-3.7,2.57-5.65,1.39Z"/>
      <path class="cls-1" d="m501.78,162.37c-1.94-1.17-2.57-3.7-1.39-5.65,1.17-1.94,3.7-2.57,5.65-1.39,1.94,1.17,2.57,3.7,1.39,5.65-1.17,1.94-3.7,2.57-5.65,1.39Z"/>
      <path class="cls-1" d="m486.52,174.85c-1.94-1.17-2.57-3.7-1.39-5.65,1.17-1.94,3.7-2.57,5.65-1.39,1.94,1.17,2.57,3.7,1.39,5.65-1.17,1.94-3.7,2.57-5.65,1.39Z"/>
      <path class="cls-1" d="m471.34,187.24c-1.94-1.17-2.57-3.7-1.39-5.65,1.17-1.94,3.7-2.57,5.65-1.39,1.94,1.17,2.57,3.7,1.39,5.65-1.17,1.94-3.7,2.57-5.65,1.39Z"/>
      <path class="cls-1" d="m883.24,386.66c-.63,2.24-2.96,3.55-5.2,2.91-2.24-.63-3.55-2.96-2.91-5.2.63-2.24,2.96-3.55,5.2-2.91,2.24.63,3.55,2.96,2.91,5.2Z"/>
      <path class="cls-1" d="m873.39,469.84c-2.18.65-4.47-.6-5.11-2.77-.64-2.18.6-4.47,2.78-5.11,2.18-.65,4.47.6,5.11,2.77.65,2.18-.6,4.47-2.77,5.11Z"/>
      <path class="cls-1" d="m872.29,490.08c-2.18.65-4.47-.6-5.11-2.77-.64-2.18.6-4.47,2.78-5.11,2.18-.65,4.47.6,5.11,2.77.65,2.18-.6,4.47-2.77,5.11Z"/>
      <path class="cls-1" d="m871.18,510.66c-2.18.65-4.47-.6-5.11-2.77-.65-2.18.6-4.47,2.77-5.11,2.18-.65,4.47.6,5.11,2.77.65,2.18-.6,4.47-2.77,5.11Z"/>
      <path class="cls-1" d="m870.11,530.34c-2.18.64-4.47-.6-5.11-2.78-.65-2.18.6-4.47,2.77-5.11,2.18-.65,4.47.6,5.11,2.77.64,2.18-.6,4.47-2.78,5.11Z"/>
      <path class="cls-1" d="m869.05,549.9c-2.18.65-4.47-.6-5.11-2.77-.65-2.18.6-4.47,2.77-5.11,2.18-.65,4.47.6,5.11,2.77.65,2.18-.6,4.47-2.77,5.11Z"/>
      <path class="cls-1" d="m867.95,570.15c-2.18.65-4.47-.6-5.11-2.77-.65-2.18.6-4.47,2.77-5.11,2.18-.65,4.47.6,5.11,2.77.65,2.18-.6,4.47-2.77,5.11Z"/>
      <path class="cls-1" d="m876.39,410.93c-2.18.65-4.47-.6-5.11-2.77-.65-2.18.6-4.47,2.77-5.11,2.18-.64,4.47.6,5.11,2.78.65,2.18-.6,4.47-2.77,5.11Z"/>
      <path class="cls-1" d="m875.28,431.53c-2.18.64-4.47-.6-5.11-2.78-.64-2.18.6-4.47,2.78-5.11,2.18-.65,4.47.6,5.11,2.77.65,2.18-.6,4.47-2.77,5.11Z"/>
      <path class="cls-1" d="m874.24,450.66c-2.18.65-4.47-.6-5.11-2.77-.64-2.18.6-4.47,2.78-5.11,2.18-.65,4.47.6,5.11,2.77.65,2.18-.6,4.47-2.77,5.11Z"/>
      <polygon class="cls-1" points="878.8 610.38 895.65 617.75 876.49 621.04 873.32 632.49 870.89 618.34 851.1 615.13 866.05 612.56 864.17 594.11 870.92 602.1 883.09 597.38 878.8 610.38"/>
      <path class="cls-1" d="m410.6,595.11c-2.18.65-4.47-.6-5.11-2.77-.65-2.18.6-4.47,2.77-5.11,2.18-.64,4.47.6,5.11,2.78.65,2.18-.6,4.47-2.77,5.11Z"/>
      <path class="cls-1" d="m409.53,614.8c-2.18.65-4.47-.6-5.11-2.77-.65-2.18.6-4.47,2.77-5.11,2.18-.65,4.47.6,5.11,2.77.65,2.18-.6,4.47-2.77,5.11Z"/>
      <path class="cls-1" d="m408.47,634.36c-2.18.65-4.47-.6-5.11-2.77-.65-2.18.6-4.47,2.77-5.11,2.18-.64,4.47.6,5.11,2.78.64,2.18-.6,4.47-2.78,5.11Z"/>
      <path class="cls-1" d="m407.37,654.6c-2.18.65-4.47-.6-5.11-2.77-.65-2.18.6-4.47,2.77-5.11,2.18-.64,4.47.6,5.11,2.78.64,2.18-.6,4.47-2.78,5.11Z"/>
      <polygon class="cls-1" points="418.23 694.83 435.07 702.21 415.91 705.49 412.74 716.94 410.32 702.8 390.52 699.58 405.48 697.02 403.6 678.56 410.34 686.56 422.51 681.84 418.23 694.83"/>
      <polygon class="cls-1" points="935.38 657.07 916.29 646.48 937.16 646.7 941.67 629.35 945.9 647.3 967.28 643.55 955.45 652.59 966.86 663.74 953.07 664.04 953.04 680.48 945.22 665.93 933.27 675.19 935.38 657.07"/>
      <path class="cls-1" d="m905.58,633.2c.06,2.33-1.77,4.27-4.1,4.33-2.33.06-4.27-1.77-4.33-4.1-.06-2.33,1.77-4.27,4.1-4.33,2.33-.06,4.27,1.77,4.33,4.1Z"/>
    </g>
  </g>
</svg>