<?xml version="1.0" encoding="UTF-8"?>
<svg id="Layer_1" data-name="Layer 1" xmlns="http://www.w3.org/2000/svg" xmlns:xlink="http://www.w3.org/1999/xlink" viewBox="0 0 512 512">
  <defs>
    <style>
      .cls-1 {
        fill: url(#linear-gradient-2);
      }

      .cls-2 {
        fill: #fff;
      }

      .cls-3 {
        fill: #fffdeb;
        opacity: .1;
      }

      .cls-4, .cls-5, .cls-6 {
        fill: none;
      }

      .cls-5 {
        clip-path: url(#clippath);
      }

      .cls-6 {
        clip-path: url(#clippath-1);
      }

      .cls-7 {
        fill: url(#linear-gradient);
      }
    </style>
    <clipPath id="clippath">
      <path class="cls-4" d="m256.05,7.92C119.05,7.92,7.97,119,7.97,256s111.08,248.08,248.08,248.08,248.08-111.08,248.08-248.08S393.05,7.92,256.05,7.92Z"/>
    </clipPath>
    <linearGradient id="linear-gradient" x1="264.87" y1="-106.53" x2="259.67" y2="973.85" gradientUnits="userSpaceOnUse">
      <stop offset="0" stop-color="#000134"/>
      <stop offset=".49" stop-color="#2f245f"/>
      <stop offset="1" stop-color="#00559c"/>
    </linearGradient>
    <clipPath id="clippath-1">
      <path class="cls-4" d="m-365.84,7.92c-137,0-248.08,111.08-248.08,248.08s111.08,248.08,248.08,248.08,248.08-111.08,248.08-248.08S-228.84,7.92-365.84,7.92Z"/>
    </clipPath>
    <linearGradient id="linear-gradient-2" x1="-357.02" y1="-106.53" x2="-362.22" y2="973.85" xlink:href="#linear-gradient"/>
  </defs>
  <g class="cls-5">
    <g>
      <rect class="cls-7" x="-108.99" y="7.92" width="744.24" height="496.16"/>
      <g>
        <path class="cls-2" d="m115.76,187.28c1.3,0,1.3-2.02,0-2.02s-1.3,2.02,0,2.02h0Z"/>
        <path class="cls-2" d="m103.79,106.68c1.3,0,1.3-2.02,0-2.02s-1.3,2.02,0,2.02h0Z"/>
        <path class="cls-2" d="m73.46,250.08c.97,0,.97-1.51,0-1.51s-.97,1.51,0,1.51h0Z"/>
        <path class="cls-2" d="m241.05,392.92c.97,0,.97-1.51,0-1.51s-.97,1.51,0,1.51h0Z"/>
        <path class="cls-2" d="m461.95,229.43c1.3,0,1.3-2.02,0-2.02s-1.3,2.02,0,2.02h0Z"/>
        <path class="cls-2" d="m363.15,254.07c.97,0,.97-1.51,0-1.51s-.97,1.51,0,1.51h0Z"/>
        <path class="cls-2" d="m347.99,132.22c1.3,0,1.3-2.02,0-2.02s-1.3,2.02,0,2.02h0Z"/>
        <path class="cls-2" d="m492.43,167.33c1.3,0,1.3-2.02,0-2.02s-1.3,2.02,0,2.02h0Z"/>
        <path class="cls-2" d="m498.01,289.73c.65,0,.65-1.01,0-1.01s-.65,1.01,0,1.01h0Z"/>
        <path class="cls-2" d="m399.19,331.9c.65,0,.65-1.01,0-1.01s-.65,1.01,0,1.01h0Z"/>
        <path class="cls-2" d="m239,283.94c.65,0,.65-1.01,0-1.01s-.65,1.01,0,1.01h0Z"/>
        <path class="cls-2" d="m204.93,323c.65,0,.65-1.01,0-1.01s-.65,1.01,0,1.01h0Z"/>
        <path class="cls-2" d="m376.48,407.53c.65,0,.65-1.01,0-1.01s-.65,1.01,0,1.01h0Z"/>
        <path class="cls-2" d="m284.57,455.96c.97,0,.97-1.51,0-1.51s-.97,1.51,0,1.51h0Z"/>
        <path class="cls-2" d="m39.95,448.53c.65,0,.65-1.01,0-1.01s-.65,1.01,0,1.01h0Z"/>
        <path class="cls-2" d="m370.06,385.76c1.3,0,1.3-2.02,0-2.02s-1.3,2.02,0,2.02h0Z"/>
        <path class="cls-2" d="m483.18,435.67c1.3,0,1.3-2.02,0-2.02s-1.3,2.02,0,2.02h0Z"/>
        <path class="cls-2" d="m264.83,331.4c1.3,0,1.3-2.02,0-2.02s-1.3,2.02,0,2.02h0Z"/>
        <path class="cls-2" d="m111.7,299.42c.97,0,.97-1.51,0-1.51s-.97,1.51,0,1.51h0Z"/>
      </g>
      <g>
        <path class="cls-2" d="m238.76,142.04c1.3,0,1.3-2.02,0-2.02s-1.3,2.02,0,2.02h0Z"/>
        <path class="cls-2" d="m226.79,61.44c1.3,0,1.3-2.02,0-2.02s-1.3,2.02,0,2.02h0Z"/>
        <path class="cls-2" d="m120.65,76.35c.97,0,.97-1.51,0-1.51s-.97,1.51,0,1.51h0Z"/>
        <path class="cls-2" d="m196.46,204.83c.97,0,.97-1.51,0-1.51s-.97,1.51,0,1.51h0Z"/>
        <path class="cls-2" d="m364.05,347.68c.97,0,.97-1.51,0-1.51s-.97,1.51,0,1.51h0Z"/>
        <path class="cls-2" d="m486.15,208.82c.97,0,.97-1.51,0-1.51s-.97,1.51,0,1.51h0Z"/>
        <path class="cls-2" d="m470.99,86.98c1.3,0,1.3-2.02,0-2.02s-1.3,2.02,0,2.02h0Z"/>
        <path class="cls-2" d="m362,238.7c.65,0,.65-1.01,0-1.01s-.65,1.01,0,1.01h0Z"/>
        <path class="cls-2" d="m327.93,277.75c.65,0,.65-1.01,0-1.01s-.65,1.01,0,1.01h0Z"/>
        <path class="cls-2" d="m499.48,362.29c.65,0,.65-1.01,0-1.01s-.65,1.01,0,1.01h0Z"/>
        <path class="cls-2" d="m407.57,410.72c.97,0,.97-1.51,0-1.51s-.97,1.51,0,1.51h0Z"/>
        <path class="cls-2" d="m162.95,403.29c.65,0,.65-1.01,0-1.01s-.65,1.01,0,1.01h0Z"/>
        <path class="cls-2" d="m95.11,367.88c1.3,0,1.3-2.02,0-2.02s-1.3,2.02,0,2.02h0Z"/>
        <path class="cls-2" d="m493.06,340.52c1.3,0,1.3-2.02,0-2.02s-1.3,2.02,0,2.02h0Z"/>
        <path class="cls-2" d="m91.12,221.84c1.3,0,1.3-2.02,0-2.02s-1.3,2.02,0,2.02h0Z"/>
        <path class="cls-2" d="m387.83,286.15c1.3,0,1.3-2.02,0-2.02s-1.3,2.02,0,2.02h0Z"/>
        <path class="cls-2" d="m234.7,254.18c.97,0,.97-1.51,0-1.51s-.97,1.51,0,1.51h0Z"/>
      </g>
    </g>
  </g>
  <g class="cls-6">
    <rect class="cls-1" x="-730.89" y="7.92" width="744.24" height="496.16"/>
  </g>
  <path class="cls-3" d="m375.21,236.21h-58.82c8.24-43.53,40.05-73.63,40.67-74.2,8.42-7.71,8.99-20.79,1.28-29.21-7.71-8.42-20.79-8.99-29.21-1.28h0c-2.03,1.85-46.21,42.86-54.7,104.7h-37.17c-8.44-61.84-52.62-102.85-54.7-104.7-8.42-7.71-21.49-7.14-29.21,1.28-7.71,8.42-7.14,21.49,1.28,29.21h0c.36.34,32.41,30.5,40.68,74.22h-58.54c-11.42,0-20.67,9.25-20.67,20.67s9.25,20.67,20.67,20.67h58.41c-5,24.94-18.9,49.56-41.53,73.44-7.87,8.29-7.52,21.38.76,29.25,8.29,7.87,21.38,7.52,29.25-.76,30.54-32.24,48.44-66.4,53.49-101.87h37.41c5.04,35.47,22.95,69.65,53.49,101.87,7.87,8.29,20.96,8.63,29.25.76,8.29-7.87,8.63-20.96.76-29.25-22.62-23.93-36.46-48.5-41.53-73.44h58.67c11.42,0,20.67-9.25,20.67-20.67s-9.25-20.67-20.67-20.67h0Z"/>
  <g>
    <path class="cls-2" d="m399.67,125.89c.38.72.1,1.62-.62,2s-1.62.1-2-.62-.1-1.62.62-2c.72-.38,1.62-.1,2,.62Z"/>
    <path class="cls-2" d="m399.51,118.27c.38.72.1,1.62-.62,2s-1.62.1-2-.62c-.38-.72-.1-1.62.62-2,.72-.38,1.62-.1,2,.62Z"/>
    <path class="cls-2" d="m135.53,266.39c.6.56.63,1.49.07,2.09s-1.49.63-2.09.07-.63-1.49-.07-2.09,1.49-.63,2.09-.07Z"/>
    <path class="cls-2" d="m196.73,389.82c-.62-.54-.68-1.47-.14-2.09.54-.62,1.47-.68,2.09-.14.62.54.68,1.47.14,2.09-.54.62-1.47.68-2.09.14Z"/>
    <path class="cls-2" d="m398.44,149.03c-.75.31-1.62-.04-1.93-.8-.31-.75.04-1.62.8-1.93.75-.31,1.62.04,1.93.8.31.75-.04,1.62-.8,1.93Z"/>
    <path class="cls-2" d="m398.84,156.93c-.75.31-1.62-.04-1.93-.8-.31-.75.04-1.62.8-1.93.75-.31,1.62.05,1.93.8s-.04,1.62-.8,1.93Z"/>
    <path class="cls-2" d="m341.13,175.5c-.65-.46-.81-1.36-.35-2.01.46-.65,1.36-.81,2.01-.35.65.46.81,1.36.35,2.01-.46.65-1.36.81-2.01.35Z"/>
    <path class="cls-2" d="m335.33,179.62c-.65-.46-.81-1.36-.35-2.01.46-.65,1.36-.81,2.01-.35.65.46.81,1.36.35,2.01-.46.65-1.36.81-2.01.35Z"/>
    <path class="cls-2" d="m329.43,183.8c-.65-.46-.81-1.36-.35-2.01.46-.65,1.36-.81,2.01-.35s.81,1.36.35,2.01c-.46.65-1.36.81-2.01.35Z"/>
    <path class="cls-2" d="m96.34,239.44c.06.81-.55,1.53-1.36,1.59-.81.06-1.53-.55-1.59-1.36s.55-1.53,1.36-1.59,1.53.55,1.59,1.36Z"/>
    <path class="cls-2" d="m103.98,241.52c.06.81-.55,1.53-1.36,1.59s-1.53-.55-1.59-1.36.55-1.53,1.36-1.59,1.53.55,1.59,1.36Z"/>
    <path class="cls-2" d="m193.09,410.66c-.53.62-1.47.69-2.09.16-.62-.53-.69-1.47-.16-2.09.53-.62,1.47-.69,2.09-.16s.69,1.47.16,2.09Z"/>
    <path class="cls-2" d="m173.64,376.76c-.53.62-1.47.69-2.09.16-.62-.53-.69-1.47-.16-2.09s1.47-.69,2.09-.16c.62.53.69,1.47.16,2.09Z"/>
    <polygon class="cls-2" points="347.98 166.11 353.78 162.04 352.06 167.42 357.84 173.6 349.42 170.9 344.85 175.25 346.94 168.76 343.12 165.14 347.98 166.11"/>
    <path class="cls-2" d="m175.01,383.02c-.67.43-1.56.24-1.99-.43-.43-.67-.24-1.56.43-1.99.67-.43,1.56-.24,1.99.43.43.67.24,1.56-.43,1.99Z"/>
    <path class="cls-2" d="m176.62,389.95c-.67.43-1.56.24-1.99-.43-.43-.67-.24-1.56.43-1.99.67-.43,1.56-.24,1.99.43.43.67.24,1.56-.43,1.99Z"/>
    <path class="cls-2" d="m178.26,396.99c-.67.43-1.56.24-1.99-.43-.43-.67-.24-1.56.43-1.99.67-.43,1.56-.24,1.99.43.43.67.24,1.56-.43,1.99Z"/>
    <path class="cls-2" d="m179.83,403.72c-.67.43-1.56.24-1.99-.43s-.24-1.56.43-1.99c.67-.43,1.56-.24,1.99.43.43.67.24,1.56-.43,1.99Z"/>
    <path class="cls-2" d="m181.38,410.41c-.67.43-1.56.24-1.99-.43-.43-.67-.24-1.56.43-1.99.67-.43,1.56-.24,1.99.43.43.67.24,1.56-.43,1.99Z"/>
    <path class="cls-2" d="m370.3,134.11c.62.5.72,1.41.22,2.03-.5.62-1.41.72-2.03.22-.62-.5-.72-1.41-.22-2.03.5-.62,1.41-.72,2.03-.22Z"/>
    <polygon class="cls-2" points="400.93 106.9 400.77 114.16 397.37 109.47 388.75 110.48 396.09 105.18 395.28 98.75 399.37 104.42 404.68 103.46 400.93 106.9"/>
    <polygon class="cls-2" points="401.64 166.32 407.87 164.64 403.34 169.74 404.99 173.57 401.22 170.23 395.1 173.7 398.63 169.71 394.07 165.08 397.67 165.79 399.96 161.82 401.64 166.32"/>
    <path class="cls-2" d="m385.3,134.71c.1-.81.84-1.38,1.65-1.28.81.1,1.38.84,1.28,1.65-.1.81-.84,1.38-1.65,1.28-.81-.1-1.38-.84-1.28-1.65Z"/>
    <polygon class="cls-2" points="246.72 273.42 240.83 270.8 247.56 269.68 248.69 265.67 249.51 270.64 256.45 271.8 251.2 272.67 251.83 279.15 249.48 276.33 245.2 277.97 246.72 273.42"/>
    <path class="cls-2" d="m356.13,157.86c.79-.06,1.49.53,1.55,1.32.06.79-.53,1.49-1.32,1.55-.79.06-1.49-.53-1.55-1.32-.06-.79.53-1.49,1.32-1.55Z"/>
    <path class="cls-2" d="m358,150.88c.79-.06,1.49.53,1.55,1.32.06.79-.53,1.49-1.32,1.55-.79.06-1.49-.53-1.55-1.32-.06-.79.53-1.49,1.32-1.55Z"/>
    <polygon class="cls-2" points="358.14 142.36 352.89 138.62 359.71 138.87 361.62 135.17 361.43 140.19 367.99 142.72 362.68 142.53 361.99 149 360.25 145.77 355.74 146.51 358.14 142.36"/>
    <polygon class="cls-2" points="184.95 420.48 178.87 422.65 182.97 417.21 181.03 413.52 185.05 416.55 190.87 412.6 187.67 416.86 192.59 421.11 188.95 420.7 186.98 424.83 184.95 420.48"/>
    <polygon class="cls-2" points="132.64 309.3 127.72 305.5 134.27 306 136.25 302.5 135.89 307.34 142.11 310.02 137 309.63 136.1 315.83 134.55 312.66 130.17 313.21 132.64 309.3"/>
    <polygon class="cls-2" points="113.93 242.58 117.09 245.46 113.52 245.31 113.55 249.29 112.24 246.7 105.69 245.41 109.91 243.24 108.99 238.52 111.3 240.95 115.11 239.82 113.93 242.58"/>
    <path class="cls-2" d="m134.16,296.53c.76-.3,1.62.08,1.92.84.3.76-.08,1.62-.84,1.92-.76.3-1.62-.08-1.92-.84-.3-.76.08-1.62.84-1.92Z"/>
    <path class="cls-2" d="m133.93,289.24c.76-.3,1.62.08,1.92.84.3.76-.08,1.62-.84,1.92-.76.3-1.62-.08-1.92-.84-.3-.76.08-1.62.84-1.92Z"/>
    <path class="cls-2" d="m133.68,281.33c.76-.3,1.62.08,1.92.84.3.76-.08,1.62-.84,1.92-.76.3-1.62-.08-1.92-.84s.08-1.62.84-1.92Z"/>
    <path class="cls-2" d="m133.42,273.35c.76-.3,1.62.08,1.92.84.3.76-.08,1.62-.84,1.92-.76.3-1.62-.08-1.92-.84s.08-1.62.84-1.92Z"/>
    <path class="cls-2" d="m273.01,245.88c-.75-.27-1.13-1.1-.86-1.85.27-.75,1.1-1.13,1.85-.86.75.27,1.13,1.1.86,1.85s-1.1,1.13-1.85.86Z"/>
    <path class="cls-2" d="m268.48,251.36c-.75-.27-1.13-1.1-.86-1.85s1.1-1.13,1.85-.86c.75.27,1.13,1.1.86,1.85s-1.1,1.13-1.85.86Z"/>
    <path class="cls-2" d="m263.87,256.93c-.75-.27-1.13-1.1-.86-1.85.27-.75,1.1-1.13,1.85-.86s1.13,1.1.86,1.85c-.27.75-1.1,1.13-1.85.86Z"/>
    <path class="cls-2" d="m259.46,262.25c-.75-.27-1.13-1.1-.86-1.85s1.1-1.13,1.85-.86,1.13,1.1.86,1.85c-.27.75-1.1,1.13-1.85.86Z"/>
    <path class="cls-2" d="m255.08,267.54c-.75-.27-1.13-1.1-.86-1.85.27-.75,1.1-1.13,1.85-.86s1.13,1.1.86,1.85c-.27.75-1.1,1.13-1.85.86Z"/>
    <path class="cls-2" d="m286.15,229.91c-.75-.27-1.13-1.1-.86-1.85.27-.75,1.1-1.13,1.85-.86s1.13,1.1.86,1.85c-.27.75-1.1,1.13-1.85.86Z"/>
    <path class="cls-2" d="m281.54,235.48c-.75-.27-1.13-1.1-.86-1.85.27-.75,1.1-1.13,1.85-.86.75.27,1.13,1.1.86,1.85-.27.75-1.1,1.13-1.85.86Z"/>
    <path class="cls-2" d="m277.25,240.65c-.75-.27-1.13-1.1-.86-1.85s1.1-1.13,1.85-.86c.75.27,1.13,1.1.86,1.85s-1.1,1.13-1.85.86Z"/>
    <path class="cls-2" d="m309.98,201.68c-.75-.27-1.13-1.1-.86-1.85.27-.75,1.1-1.13,1.85-.86s1.13,1.1.86,1.85-1.1,1.13-1.85.86Z"/>
    <path class="cls-2" d="m305.45,207.16c-.75-.27-1.13-1.1-.86-1.85s1.1-1.13,1.85-.86,1.13,1.1.86,1.85-1.1,1.13-1.85.86Z"/>
    <path class="cls-2" d="m300.83,212.72c-.75-.27-1.13-1.1-.86-1.85.27-.75,1.1-1.13,1.85-.86s1.13,1.1.86,1.85c-.27.75-1.1,1.13-1.85.86Z"/>
    <path class="cls-2" d="m296.42,218.04c-.75-.27-1.13-1.1-.86-1.85s1.1-1.13,1.85-.86c.75.27,1.13,1.1.86,1.85-.27.75-1.1,1.13-1.85.86Z"/>
    <path class="cls-2" d="m292.04,223.33c-.75-.27-1.13-1.1-.86-1.85s1.1-1.13,1.85-.86,1.13,1.1.86,1.85-1.1,1.13-1.85.86Z"/>
    <path class="cls-2" d="m314.53,190.15c-.57-.87-3.65-7.18-3.65-7.18l5.32,4.01,3.57-5.03-.58,5.16,5.71-2.07-3.03,4.27,6.84,1.56-6.04,1.25,2.95,4.52-4.95-2.8-2.47,6.4-.04-6.42-6.75,4.62,3.23-5.23-5.44-1.64,5.32-1.4Z"/>
    <polygon class="cls-2" points="79.21 205.27 81.24 211.1 76.59 208.37 74.21 212.43 73.71 207.09 68.01 204.77 73.12 202.92 73.79 196.26 76.54 201.9 82.8 201.53 79.21 205.27"/>
    <path class="cls-2" d="m79.02,218.24c-.65.46-1.55.31-2.01-.34-.46-.65-.31-1.55.34-2.01.65-.46,1.55-.31,2.01.34.46.65.31,1.55-.34,2.01Z"/>
    <path class="cls-2" d="m80.98,225.2c-.65.46-1.55.31-2.01-.34-.46-.65-.31-1.55.34-2.01.65-.46,1.55-.31,2.01.34.46.65.31,1.55-.34,2.01Z"/>
    <polygon class="cls-2" points="170.89 367.05 166.64 372.72 166.61 367.07 159.19 362.99 168.03 362.94 171.02 357.38 171.06 364.2 175.81 366.45 170.89 367.05"/>
    <path class="cls-2" d="m220.01,311.22c-.81.06-1.53-.55-1.59-1.36-.06-.81.55-1.53,1.36-1.59.81-.06,1.53.55,1.59,1.36.06.81-.55,1.53-1.36,1.59Z"/>
    <path class="cls-2" d="m218.07,318.38c-.81.06-1.53-.55-1.59-1.36-.06-.81.55-1.53,1.36-1.59.81-.06,1.53.55,1.59,1.36.06.81-.55,1.53-1.36,1.59Z"/>
    <path class="cls-2" d="m216.22,325.22c-.81.06-1.53-.55-1.59-1.36-.06-.81.55-1.53,1.36-1.59.81-.06,1.53.55,1.59,1.36.06.81-.55,1.53-1.36,1.59Z"/>
    <path class="cls-2" d="m214.38,332.02c-.81.06-1.53-.55-1.59-1.36-.06-.81.55-1.53,1.36-1.59.81-.06,1.53.55,1.59,1.36.06.81-.55,1.53-1.36,1.59Z"/>
    <path class="cls-2" d="m212.47,339.06c-.81.06-1.53-.55-1.59-1.36s.55-1.53,1.36-1.59c.81-.06,1.53.55,1.59,1.36.06.81-.55,1.53-1.36,1.59Z"/>
    <path class="cls-2" d="m210.4,346.7c-.81.06-1.53-.55-1.59-1.36-.06-.81.55-1.53,1.36-1.59.81-.06,1.53.55,1.59,1.36s-.55,1.53-1.36,1.59Z"/>
    <path class="cls-2" d="m207.93,353.64c-.81.06-1.53-.55-1.59-1.36-.06-.81.55-1.53,1.36-1.59s1.53.55,1.59,1.36-.55,1.53-1.36,1.59Z"/>
    <path class="cls-2" d="m206.02,360.67c-.81.06-1.53-.55-1.59-1.36-.06-.81.55-1.53,1.36-1.59s1.53.55,1.59,1.36c.06.81-.55,1.53-1.36,1.59Z"/>
    <path class="cls-2" d="m203.95,368.31c-.81.06-1.53-.55-1.59-1.36-.06-.81.55-1.53,1.36-1.59.81-.06,1.53.55,1.59,1.36.06.81-.55,1.53-1.36,1.59Z"/>
    <path class="cls-2" d="m156.88,348.46c.49-.63,1.4-.74,2.02-.25.63.49.74,1.4.25,2.02s-1.4.74-2.02.25c-.63-.49-.74-1.4-.25-2.02Z"/>
    <path class="cls-2" d="m153.06,342.47c.49-.63,1.4-.74,2.02-.25.63.49.74,1.4.25,2.02-.49.63-1.4.74-2.02.25-.63-.49-.74-1.4-.25-2.02Z"/>
    <path class="cls-2" d="m149.18,336.37c.49-.63,1.4-.74,2.02-.25.63.49.74,1.4.25,2.02-.49.63-1.4.74-2.02.25-.63-.49-.74-1.4-.25-2.02Z"/>
    <path class="cls-2" d="m145.47,330.54c.49-.63,1.4-.74,2.02-.25.63.49.74,1.4.25,2.02-.49.63-1.4.74-2.02.25-.63-.49-.74-1.4-.25-2.02Z"/>
    <path class="cls-2" d="m141.78,324.74c.49-.63,1.4-.74,2.02-.25s.74,1.4.25,2.02c-.49.63-1.4.74-2.02.25-.63-.49-.74-1.4-.25-2.02Z"/>
    <path class="cls-2" d="m137.96,318.75c.49-.63,1.4-.74,2.02-.25.63.49.74,1.4.25,2.02-.49.63-1.4.74-2.02.25s-.74-1.4-.25-2.02Z"/>
    <g>
      <path class="cls-2" d="m233.66,283.81c.65-.49,1.58-.36,2.07.29.49.65.36,1.58-.29,2.07s-1.58.36-2.07-.29-.36-1.58.29-2.07Z"/>
      <path class="cls-2" d="m240.71,278.48c.75.28,1.12,1.11.84,1.86-.28.75-1.11,1.12-1.86.84-.75-.28-1.12-1.11-.84-1.86.28-.75,1.11-1.12,1.86-.84Z"/>
    </g>
    <path class="cls-2" d="m160.56,354.1c.49-.63,1.4-.74,2.02-.25.63.49.74,1.4.25,2.02s-1.4.74-2.02.25c-.63-.49-.74-1.4-.25-2.02Z"/>
    <path class="cls-2" d="m379.08,185.9c-.33.75-1.2,1.09-1.95.77s-1.09-1.2-.77-1.95,1.2-1.09,1.95-.77,1.09,1.2.77,1.95Z"/>
    <path class="cls-2" d="m384.93,181.01c-.33.75-1.2,1.09-1.95.77s-1.09-1.2-.77-1.95,1.2-1.09,1.95-.77,1.09,1.2.77,1.95Z"/>
    <path class="cls-2" d="m391.31,175.48c-.33.75-1.2,1.09-1.95.77s-1.09-1.2-.77-1.95c.33-.75,1.2-1.09,1.95-.77s1.09,1.2.77,1.95Z"/>
    <polygon class="cls-2" points="376.72 131.14 372.25 130.1 375.59 128.61 376.08 123.16 378.41 128.38 382.48 128.71 378.44 130.5 378.35 133.91 376.72 131.14"/>
    <path class="cls-2" d="m123.04,248.22c-.29.74-1.13,1.1-1.87.81-.74-.29-1.1-1.13-.81-1.87.29-.74,1.13-1.1,1.87-.81.74.29,1.1,1.13.81,1.87Z"/>
    <path class="cls-2" d="m128.89,253.35c-.29.74-1.13,1.1-1.87.81-.74-.29-1.1-1.13-.81-1.87.29-.74,1.13-1.1,1.87-.81.74.29,1.1,1.13.81,1.87Z"/>
    <polygon class="cls-2" points="133.63 258.61 133.3 254.03 135.71 256.78 141.07 255.64 136.76 259.4 137.65 263.39 134.75 260.07 131.47 260.98 133.63 258.61"/>
    <polygon class="cls-2" points="394.29 135.87 398.79 131.24 397.51 137.94 400.88 140.39 395.94 139.45 392.44 145.55 393.44 140.33 387.15 138.67 390.61 137.44 390.55 132.86 394.29 135.87"/>
    <polygon class="cls-2" points="227.81 298.9 229.62 306.34 224.71 300.91 219.17 303.87 222.79 298.51 216.74 293.89 221.88 294.79 222.05 289.2 225.4 292.68 229.65 288.79 227.75 294.26 232.98 295.14 227.81 298.9"/>
    <polygon class="cls-2" points="82.2 236.98 77.87 241.75 78.92 235.01 75.47 232.68 80.44 233.46 83.73 227.24 82.91 232.49 89.25 233.93 85.84 235.28 86.04 239.86 82.2 236.98"/>
    <polygon class="cls-2" points="197.94 402.55 197.21 408.96 194.13 402.88 189.96 403 194.45 400.73 193.48 393.76 195.89 398.51 201.88 395.97 199.89 399.06 202.74 402.65 197.94 402.55"/>
    <path class="cls-2" d="m371.03,193.44c1.01.25,7.55,2.8,7.55,2.8l-6.63.66.79,6.12-3.07-4.18-2.79,5.4-.67-5.19-6.08,3.49,3.6-5.02-5.23-1.32,5.53-1.3-2.52-6.38,4.38,4.69,1.83-7.97,1.17,6.04,5.11-2.48-2.96,4.64Z"/>
    <polygon class="cls-2" points="201.91 379.71 200.22 385.63 197.26 379.86 192.92 382.09 195.61 377.37 193.45 373.16 198.53 375.86 202.77 373.69 202.54 376.47 205.72 379.42 201.91 379.71"/>
  </g>
</svg>