<?xml version="1.0" encoding="UTF-8"?>
<svg id="Layer_1" data-name="Layer 1" xmlns="http://www.w3.org/2000/svg" xmlns:xlink="http://www.w3.org/1999/xlink" viewBox="0 0 512 512">
  <defs>
    <style>
      .cls-1 {
        fill: url(#linear-gradient-2);
      }

      .cls-2 {
        fill: #fff;
      }

      .cls-3 {
        fill: #fffdeb;
        opacity: .1;
      }

      .cls-4, .cls-5, .cls-6 {
        fill: none;
      }

      .cls-5 {
        clip-path: url(#clippath);
      }

      .cls-6 {
        clip-path: url(#clippath-1);
      }

      .cls-7 {
        fill: url(#linear-gradient);
      }
    </style>
    <clipPath id="clippath">
      <path class="cls-4" d="m839.96,7.92c-137,0-248.08,111.08-248.08,248.08s111.08,248.08,248.08,248.08,248.08-111.08,248.08-248.08S976.96,7.92,839.96,7.92Z"/>
    </clipPath>
    <linearGradient id="linear-gradient" x1="848.78" y1="-106.53" x2="843.58" y2="973.85" gradientUnits="userSpaceOnUse">
      <stop offset="0" stop-color="#000134"/>
      <stop offset=".49" stop-color="#2f245f"/>
      <stop offset="1" stop-color="#00559c"/>
    </linearGradient>
    <clipPath id="clippath-1">
      <path class="cls-4" d="m256.05,7.92C119.05,7.92,7.97,119,7.97,256s111.08,248.08,248.08,248.08,248.08-111.08,248.08-248.08S393.05,7.92,256.05,7.92Z"/>
    </clipPath>
    <linearGradient id="linear-gradient-2" x1="264.87" y1="-106.53" x2="259.67" y2="973.85" xlink:href="#linear-gradient"/>
  </defs>
  <g class="cls-5">
    <rect class="cls-7" x="474.92" y="7.92" width="744.24" height="496.16"/>
  </g>
  <g class="cls-6">
    <g>
      <rect class="cls-1" x="-108.99" y="7.92" width="744.24" height="496.16"/>
      <g>
        <path class="cls-2" d="m115.76,187.28c1.3,0,1.3-2.02,0-2.02s-1.3,2.02,0,2.02h0Z"/>
        <path class="cls-2" d="m103.79,106.68c1.3,0,1.3-2.02,0-2.02s-1.3,2.02,0,2.02h0Z"/>
        <path class="cls-2" d="m73.46,250.08c.97,0,.97-1.51,0-1.51s-.97,1.51,0,1.51h0Z"/>
        <path class="cls-2" d="m241.05,392.92c.97,0,.97-1.51,0-1.51s-.97,1.51,0,1.51h0Z"/>
        <path class="cls-2" d="m461.95,229.43c1.3,0,1.3-2.02,0-2.02s-1.3,2.02,0,2.02h0Z"/>
        <path class="cls-2" d="m363.15,254.07c.97,0,.97-1.51,0-1.51s-.97,1.51,0,1.51h0Z"/>
        <path class="cls-2" d="m347.99,132.22c1.3,0,1.3-2.02,0-2.02s-1.3,2.02,0,2.02h0Z"/>
        <path class="cls-2" d="m492.43,167.33c1.3,0,1.3-2.02,0-2.02s-1.3,2.02,0,2.02h0Z"/>
        <path class="cls-2" d="m498.01,289.73c.65,0,.65-1.01,0-1.01s-.65,1.01,0,1.01h0Z"/>
        <path class="cls-2" d="m399.19,331.9c.65,0,.65-1.01,0-1.01s-.65,1.01,0,1.01h0Z"/>
        <path class="cls-2" d="m239,283.94c.65,0,.65-1.01,0-1.01s-.65,1.01,0,1.01h0Z"/>
        <path class="cls-2" d="m204.93,323c.65,0,.65-1.01,0-1.01s-.65,1.01,0,1.01h0Z"/>
        <path class="cls-2" d="m376.48,407.53c.65,0,.65-1.01,0-1.01s-.65,1.01,0,1.01h0Z"/>
        <path class="cls-2" d="m284.57,455.96c.97,0,.97-1.51,0-1.51s-.97,1.51,0,1.51h0Z"/>
        <path class="cls-2" d="m39.95,448.53c.65,0,.65-1.01,0-1.01s-.65,1.01,0,1.01h0Z"/>
        <path class="cls-2" d="m370.06,385.76c1.3,0,1.3-2.02,0-2.02s-1.3,2.02,0,2.02h0Z"/>
        <path class="cls-2" d="m483.18,435.67c1.3,0,1.3-2.02,0-2.02s-1.3,2.02,0,2.02h0Z"/>
        <path class="cls-2" d="m264.83,331.4c1.3,0,1.3-2.02,0-2.02s-1.3,2.02,0,2.02h0Z"/>
        <path class="cls-2" d="m111.7,299.42c.97,0,.97-1.51,0-1.51s-.97,1.51,0,1.51h0Z"/>
      </g>
      <g>
        <path class="cls-2" d="m238.76,142.04c1.3,0,1.3-2.02,0-2.02s-1.3,2.02,0,2.02h0Z"/>
        <path class="cls-2" d="m226.79,61.44c1.3,0,1.3-2.02,0-2.02s-1.3,2.02,0,2.02h0Z"/>
        <path class="cls-2" d="m120.65,76.35c.97,0,.97-1.51,0-1.51s-.97,1.51,0,1.51h0Z"/>
        <path class="cls-2" d="m196.46,204.83c.97,0,.97-1.51,0-1.51s-.97,1.51,0,1.51h0Z"/>
        <path class="cls-2" d="m364.05,347.68c.97,0,.97-1.51,0-1.51s-.97,1.51,0,1.51h0Z"/>
        <path class="cls-2" d="m486.15,208.82c.97,0,.97-1.51,0-1.51s-.97,1.51,0,1.51h0Z"/>
        <path class="cls-2" d="m470.99,86.98c1.3,0,1.3-2.02,0-2.02s-1.3,2.02,0,2.02h0Z"/>
        <path class="cls-2" d="m362,238.7c.65,0,.65-1.01,0-1.01s-.65,1.01,0,1.01h0Z"/>
        <path class="cls-2" d="m327.93,277.75c.65,0,.65-1.01,0-1.01s-.65,1.01,0,1.01h0Z"/>
        <path class="cls-2" d="m499.48,362.29c.65,0,.65-1.01,0-1.01s-.65,1.01,0,1.01h0Z"/>
        <path class="cls-2" d="m407.57,410.72c.97,0,.97-1.51,0-1.51s-.97,1.51,0,1.51h0Z"/>
        <path class="cls-2" d="m162.95,403.29c.65,0,.65-1.01,0-1.01s-.65,1.01,0,1.01h0Z"/>
        <path class="cls-2" d="m95.11,367.88c1.3,0,1.3-2.02,0-2.02s-1.3,2.02,0,2.02h0Z"/>
        <path class="cls-2" d="m493.06,340.52c1.3,0,1.3-2.02,0-2.02s-1.3,2.02,0,2.02h0Z"/>
        <path class="cls-2" d="m91.12,221.84c1.3,0,1.3-2.02,0-2.02s-1.3,2.02,0,2.02h0Z"/>
        <path class="cls-2" d="m387.83,286.15c1.3,0,1.3-2.02,0-2.02s-1.3,2.02,0,2.02h0Z"/>
        <path class="cls-2" d="m234.7,254.18c.97,0,.97-1.51,0-1.51s-.97,1.51,0,1.51h0Z"/>
      </g>
    </g>
  </g>
  <path class="cls-3" d="m373.9,144.13l-.12-.16c-.17-.22-.35-.42-.53-.63s-.43-.48-.65-.72l-.3-.31c-3.77-3.77-9.02-5.68-14.33-5.21h-84.24c-10.02,0-18.15,8.11-18.15,18.13,0,10.02,8.11,18.15,18.13,18.15h42.11l-79.24,79.67-31.12-31c-7.12-7.06-18.61-7.01-25.67.11s-7.01,18.61.11,25.67l31.12,31-85.66,86.13c-7.07,7.1-7.04,18.59.07,25.65,7.1,7.07,18.59,7.04,25.65-.07l85.66-86.13,31.06,30.89c7.11,7.07,18.59,7.04,25.66-.07s7.04-18.59-.07-25.66l-31.06-30.89,79.08-79.51v41.9c0,10.02,8.12,18.14,18.14,18.14s18.14-8.12,18.14-18.14v-84.34c0-.49.08-1,.08-1.49-.01-4.03-1.38-7.94-3.87-11.11Z"/>
  <g>
    <polygon class="cls-2" points="241.12 320.5 248.96 309.25 247.48 322.28 258.04 326.21 246.55 327.7 247.53 341.3 242.63 333.33 234.94 339.74 235.63 331.11 225.36 330.04 234.96 326.08 229.93 318.03 241.12 320.5"/>
    <path class="cls-2" d="m335.14,140.7c.35,1.42-.52,2.86-1.94,3.2-1.42.35-2.86-.52-3.2-1.94s.52-2.86,1.94-3.2c1.42-.35,2.86.52,3.2,1.94Z"/>
    <path class="cls-2" d="m337.99,125.53c.35,1.42-.52,2.86-1.94,3.2-1.42.35-2.86-.52-3.2-1.94s.52-2.86,1.94-3.2c1.42-.35,2.86.52,3.2,1.94Z"/>
    <path class="cls-2" d="m341.01,112.23c.35,1.42-.52,2.86-1.94,3.2-1.42.35-2.86-.52-3.2-1.94-.35-1.42.52-2.86,1.94-3.2,1.42-.35,2.86.52,3.2,1.94Z"/>
    <path class="cls-2" d="m253.43,351.31c-1,1.07-2.68,1.12-3.74.12s-1.12-2.68-.12-3.74,2.68-1.12,3.74-.12c1.07,1,1.12,2.68.12,3.74Z"/>
    <path class="cls-2" d="m259.49,363.13c-1,1.07-2.68,1.12-3.74.12s-1.12-2.68-.12-3.74c1-1.07,2.68-1.12,3.74-.12,1.07,1,1.12,2.68.12,3.74Z"/>
    <path class="cls-2" d="m265.13,374.11c-1,1.07-2.68,1.12-3.74.12-1.07-1-1.12-2.68-.12-3.74,1-1.07,2.68-1.12,3.74-.12s1.12,2.68.12,3.74Z"/>
    <path class="cls-2" d="m102.4,383.63c-1.41-.39-2.24-1.85-1.85-3.26.39-1.41,1.85-2.24,3.26-1.85s2.24,1.85,1.85,3.26c-.39,1.41-1.85,2.24-3.26,1.85Z"/>
    <path class="cls-2" d="m388.79,189.53c-.07-1.42,1.02-2.64,2.45-2.71,1.42-.07,2.64,1.02,2.71,2.45.07,1.42-1.02,2.64-2.45,2.71-1.42.07-2.64-1.02-2.71-2.45Z"/>
    <path class="cls-2" d="m376.59,185.88c-.07-1.42,1.02-2.64,2.45-2.71s2.64,1.02,2.71,2.45-1.02,2.64-2.45,2.71-2.64-1.02-2.71-2.45Z"/>
    <path class="cls-2" d="m364.19,182.16c-.07-1.42,1.02-2.64,2.45-2.71,1.42-.07,2.64,1.02,2.71,2.45.07,1.42-1.02,2.64-2.45,2.71-1.42.07-2.64-1.02-2.71-2.45Z"/>
    <path class="cls-2" d="m352.33,178.61c-.07-1.42,1.02-2.64,2.45-2.71,1.42-.07,2.64,1.02,2.71,2.45.07,1.42-1.02,2.64-2.45,2.71-1.42.07-2.64-1.02-2.71-2.45Z"/>
    <path class="cls-2" d="m340.54,175.08c-.07-1.42,1.02-2.64,2.45-2.71,1.42-.07,2.64,1.02,2.71,2.45.07,1.42-1.02,2.64-2.45,2.71-1.42.07-2.64-1.02-2.71-2.45Z"/>
    <path class="cls-2" d="m258.15,257.43c1.21-.82,2.86-.51,3.68.7.82,1.21.51,2.86-.7,3.68-1.21.82-2.86.51-3.68-.7-.82-1.21-.51-2.86.7-3.68Z"/>
    <path class="cls-2" d="m254.58,243.71c1.21-.82,2.86-.51,3.68.7.82,1.21.51,2.86-.7,3.68-1.21.82-2.86.51-3.68-.7-.82-1.21-.51-2.86.7-3.68Z"/>
    <path class="cls-2" d="m250.98,229.87c1.21-.82,2.86-.51,3.68.7.82,1.21.51,2.86-.7,3.68-1.21.82-2.86.51-3.68-.7-.82-1.21-.51-2.86.7-3.68Z"/>
    <path class="cls-2" d="m247.59,216.85c1.21-.82,2.86-.51,3.68.7.82,1.21.51,2.86-.7,3.68-1.21.82-2.86.51-3.68-.7-.82-1.21-.51-2.86.7-3.68Z"/>
    <path class="cls-2" d="m244.23,203.94c1.21-.82,2.86-.51,3.68.7.82,1.21.51,2.86-.7,3.68-1.21.82-2.86.51-3.68-.7-.82-1.21-.51-2.86.7-3.68Z"/>
    <path class="cls-2" d="m409.61,188.86l12.14,3.7-9.5,3.49-2.36,14.98-5.46-14.86-11.18-1.66,11.47-4.21s.89-9.38.89-9.38c0,0,4,7.94,4,7.94Z"/>
    <path class="cls-2" d="m348.42,93.08l-3.44,12.56-3.86-9.63-15.42-1.98,15.07-6.04,1.37-11.51,4.66,11.63s9.64.64,9.64.64c0,0-8.02,4.34-8.02,4.34Z"/>
    <polygon class="cls-2" points="274.55 386.8 282.06 388.22 276.48 391.35 280.29 397.38 275.85 394.66 264.65 398.88 269.04 391.6 263.18 385.27 269 386.79 273.73 381.49 274.55 386.8"/>
    <path class="cls-2" d="m239.52,187.52c-1.41,1.22-11.86,8.21-11.86,8.21l5.83-10.41-9.8-5.12,9.3-.21-5.05-9.64,8.3,4.35,1.12-12.51,3.67,10.43,7.31-6.32-3.77,9.45,11.95,2.85-11.39,1.61,9.82,10.87-10.06-4.48-1.61,10.05-3.76-9.11Z"/>
    <polygon class="cls-2" points="135.46 110.48 126.67 117.19 128.72 107.74 120.49 105.96 129.3 102.13 130.08 91.14 136.07 98.81 147.79 96.25 139.72 104.07 143.83 114.53 135.46 110.48"/>
    <path class="cls-2" d="m210.91,162.06c-.46,1.35-1.93,2.07-3.28,1.6s-2.07-1.93-1.6-3.28c.46-1.35,1.93-2.07,3.28-1.6,1.35.46,2.07,1.93,1.6,3.28Z"/>
    <path class="cls-2" d="m221.04,170.14c-.46,1.35-1.93,2.07-3.28,1.6-1.35-.46-2.07-1.93-1.6-3.28.46-1.35,1.93-2.07,3.28-1.6,1.35.46,2.07,1.93,1.6,3.28Z"/>
    <path class="cls-2" d="m159.62,120.27c-.46,1.35-1.94,2.07-3.28,1.6-1.35-.47-2.07-1.94-1.6-3.28.47-1.35,1.94-2.07,3.28-1.6,1.35.47,2.07,1.94,1.6,3.28Z"/>
    <path class="cls-2" d="m169.56,128.22c-.46,1.35-1.94,2.07-3.28,1.6-1.35-.47-2.07-1.94-1.6-3.28.47-1.35,1.94-2.07,3.28-1.6,1.35.46,2.07,1.94,1.6,3.28Z"/>
    <path class="cls-2" d="m179.67,136.3c-.47,1.35-1.94,2.07-3.28,1.6-1.35-.47-2.07-1.94-1.6-3.28s1.94-2.07,3.28-1.6c1.35.47,2.07,1.94,1.6,3.28Z"/>
    <path class="cls-2" d="m189.35,144.03c-.46,1.35-1.94,2.07-3.28,1.6-1.35-.47-2.07-1.94-1.6-3.28s1.94-2.07,3.28-1.6c1.35.47,2.07,1.94,1.6,3.28Z"/>
    <path class="cls-2" d="m198.96,151.72c-.47,1.35-1.94,2.07-3.28,1.6-1.35-.47-2.07-1.94-1.6-3.28.47-1.35,1.94-2.07,3.28-1.6,1.35.47,2.07,1.94,1.6,3.28Z"/>
    <polygon class="cls-2" points="320.46 371.96 310.98 377.64 314.07 368.49 306.09 365.8 315.27 362.97 317.28 352.13 322.37 360.43 334.3 359.19 325.41 366.06 328.33 376.91 320.46 371.96"/>
    <path class="cls-2" d="m297.63,376.34c-1.04-.97-1.1-2.61-.13-3.65.97-1.04,2.61-1.1,3.65-.13s1.1,2.61.13,3.65c-.97,1.04-2.61,1.1-3.65.13Z"/>
    <path class="cls-2" d="m286.14,382.29c-1.04-.97-1.1-2.61-.13-3.65.97-1.04,2.61-1.1,3.65-.13s1.1,2.61.13,3.65-2.61,1.1-3.65.13Z"/>
    <path class="cls-2" d="m433.38,186.02c.88,1.12.68,2.75-.44,3.63-1.12.88-2.75.68-3.63-.44s-.68-2.75.44-3.63c1.12-.88,2.75-.68,3.63.44Z"/>
    <path class="cls-2" d="m446.6,181.59c.88,1.12.68,2.75-.44,3.63s-2.75.68-3.63-.44-.68-2.75.44-3.63,2.75-.68,3.63.44Z"/>
    <polygon class="cls-2" points="459 179 451.63 175.38 458.06 174.13 461.11 164.81 463.06 174.87 470.03 177.08 462.27 178.59 460.73 184.49 459 179"/>
    <path class="cls-2" d="m197.25,340.22c-.85-1.14-.62-2.76.53-3.62,1.14-.85,2.76-.62,3.61.53.85,1.14.62,2.76-.53,3.61-1.14.85-2.76.62-3.61-.53Z"/>
    <path class="cls-2" d="m185.08,343.95c-.85-1.14-.62-2.76.53-3.61,1.14-.85,2.76-.62,3.61.53.85,1.14.62,2.76-.53,3.62-1.14.85-2.76.62-3.61-.53Z"/>
    <path class="cls-2" d="m172.71,347.76c-.85-1.14-.62-2.76.53-3.61,1.14-.85,2.76-.62,3.61.53.85,1.14.62,2.76-.53,3.61-1.14.85-2.76.62-3.62-.53Z"/>
    <path class="cls-2" d="m160.87,351.39c-.85-1.14-.62-2.76.53-3.62,1.14-.85,2.76-.62,3.62.53.85,1.14.62,2.76-.53,3.61-1.14.85-2.76.62-3.61-.53Z"/>
    <path class="cls-2" d="m149.11,355.01c-.85-1.14-.62-2.76.53-3.61,1.14-.85,2.76-.62,3.61.53.85,1.14.62,2.76-.53,3.62-1.14.85-2.76.62-3.61-.53Z"/>
    <path class="cls-2" d="m136.93,358.75c-.85-1.14-.62-2.76.53-3.61s2.76-.62,3.61.53c.85,1.14.62,2.76-.53,3.61-1.14.85-2.76.62-3.61-.53Z"/>
    <path class="cls-2" d="m208.74,336.56c-.85-1.14-.62-2.76.53-3.61s2.76-.62,3.61.53c.85,1.14.62,2.76-.53,3.61-1.14.85-2.76.62-3.61-.53Z"/>
    <polygon class="cls-2" points="89.16 317.2 96.58 326.06 84.88 322.55 79.89 328.11 82.48 319.48 72.24 312.13 81.37 314.87 85.47 303.97 87.03 310.35 95.2 311.09 89.16 317.2"/>
    <polygon class="cls-2" points="266.92 281.59 278.2 284.07 266.79 288.44 266.24 295.88 263.02 287.47 250.43 287.9 259.33 284.49 255.91 273.36 261.05 277.46 267.97 273.06 266.92 281.59"/>
    <path class="cls-2" d="m254.98,303.91c-1.42-.14-2.45-1.41-2.31-2.83.14-1.42,1.41-2.46,2.83-2.31,1.42.14,2.45,1.41,2.31,2.83-.14,1.42-1.41,2.45-2.83,2.31Z"/>
    <polygon class="cls-2" points="326.76 163.19 331.69 173.64 321.26 167.28 315.04 171.39 319.73 163.7 311.69 154 319.83 158.96 326.56 149.45 326.45 156.02 334.16 158.81 326.76 163.19"/>
    <path class="cls-2" d="m299.85,170.99c-.75-1.21-.39-2.8.83-3.56,1.21-.75,2.8-.39,3.56.83.75,1.21.39,2.8-.83,3.56-1.21.75-2.8.39-3.56-.83Z"/>
    <path class="cls-2" d="m287.75,173.63c-.75-1.21-.39-2.8.83-3.56,1.21-.75,2.8-.39,3.56.83.75,1.21.39,2.8-.83,3.56s-2.8.39-3.56-.83Z"/>
    <path class="cls-2" d="m275.73,176.26c-.75-1.21-.39-2.8.83-3.56,1.21-.75,2.8-.39,3.56.83s.39,2.8-.83,3.56c-1.21.75-2.8.39-3.56-.83Z"/>
    <path class="cls-2" d="m263.29,178.98c-.75-1.21-.39-2.8.83-3.56s2.8-.39,3.56.83.39,2.8-.83,3.56c-1.21.75-2.8.39-3.56-.83Z"/>
    <polygon class="cls-2" points="107.94 359.28 100.16 347.98 111.84 353.94 119.23 345.44 116.59 356.72 129.66 360.58 120.48 362.37 123.78 371.83 115.95 368.14 111.33 377.38 111 367.01 101.69 368.88 107.94 359.28"/>
    <path class="cls-2" d="m97.85,337.52c-.61,1.33-2.19,1.91-3.52,1.29-1.33-.61-1.91-2.19-1.29-3.52.61-1.33,2.19-1.91,3.52-1.29s1.91,2.19,1.29,3.52Z"/>
    <polygon class="cls-2" points="96.1 394.45 99.09 405.07 89.15 399.07 84.65 406.55 84.29 396.83 77.04 392.46 87.33 391.78 91.74 384.47 94 388.93 101.62 390.43 96.1 394.45"/>
  </g>
</svg>