<?xml version="1.0" encoding="UTF-8"?>
<svg id="Layer_1" data-name="Layer 1" xmlns="http://www.w3.org/2000/svg" xmlns:xlink="http://www.w3.org/1999/xlink" viewBox="0 0 512 512">
  <defs>
    <style>
      .cls-1 {
        fill: url(#linear-gradient-2);
      }

      .cls-2 {
        fill: #fff;
      }

      .cls-3 {
        fill: #fffdeb;
        opacity: .1;
      }

      .cls-4, .cls-5, .cls-6 {
        fill: none;
      }

      .cls-5 {
        clip-path: url(#clippath);
      }

      .cls-6 {
        clip-path: url(#clippath-1);
      }

      .cls-7 {
        fill: url(#linear-gradient);
      }
    </style>
    <clipPath id="clippath">
      <path class="cls-4" d="m256.05,7.92C119.05,7.92,7.97,119,7.97,256s111.08,248.08,248.08,248.08,248.08-111.08,248.08-248.08S393.05,7.92,256.05,7.92Z"/>
    </clipPath>
    <linearGradient id="linear-gradient" x1="264.87" y1="-106.53" x2="259.67" y2="973.85" gradientUnits="userSpaceOnUse">
      <stop offset="0" stop-color="#000134"/>
      <stop offset=".49" stop-color="#2f245f"/>
      <stop offset="1" stop-color="#00559c"/>
    </linearGradient>
    <clipPath id="clippath-1">
      <path class="cls-4" d="m-365.84,7.92c-137,0-248.08,111.08-248.08,248.08s111.08,248.08,248.08,248.08,248.08-111.08,248.08-248.08S-228.84,7.92-365.84,7.92Z"/>
    </clipPath>
    <linearGradient id="linear-gradient-2" x1="-357.02" x2="-362.22" xlink:href="#linear-gradient"/>
  </defs>
  <g class="cls-5">
    <g>
      <rect class="cls-7" x="-108.99" y="7.92" width="744.24" height="496.16"/>
      <g>
        <path class="cls-2" d="m115.76,187.28c1.3,0,1.3-2.02,0-2.02s-1.3,2.02,0,2.02h0Z"/>
        <path class="cls-2" d="m103.79,106.68c1.3,0,1.3-2.02,0-2.02s-1.3,2.02,0,2.02h0Z"/>
        <path class="cls-2" d="m73.46,250.08c.97,0,.97-1.51,0-1.51s-.97,1.51,0,1.51h0Z"/>
        <path class="cls-2" d="m241.05,392.92c.97,0,.97-1.51,0-1.51s-.97,1.51,0,1.51h0Z"/>
        <path class="cls-2" d="m461.95,229.43c1.3,0,1.3-2.02,0-2.02s-1.3,2.02,0,2.02h0Z"/>
        <path class="cls-2" d="m363.15,254.07c.97,0,.97-1.51,0-1.51s-.97,1.51,0,1.51h0Z"/>
        <path class="cls-2" d="m347.99,132.22c1.3,0,1.3-2.02,0-2.02s-1.3,2.02,0,2.02h0Z"/>
        <path class="cls-2" d="m492.43,167.33c1.3,0,1.3-2.02,0-2.02s-1.3,2.02,0,2.02h0Z"/>
        <path class="cls-2" d="m498.01,289.73c.65,0,.65-1.01,0-1.01s-.65,1.01,0,1.01h0Z"/>
        <path class="cls-2" d="m399.19,331.9c.65,0,.65-1.01,0-1.01s-.65,1.01,0,1.01h0Z"/>
        <path class="cls-2" d="m239,283.94c.65,0,.65-1.01,0-1.01s-.65,1.01,0,1.01h0Z"/>
        <path class="cls-2" d="m204.93,323c.65,0,.65-1.01,0-1.01s-.65,1.01,0,1.01h0Z"/>
        <path class="cls-2" d="m376.48,407.53c.65,0,.65-1.01,0-1.01s-.65,1.01,0,1.01h0Z"/>
        <path class="cls-2" d="m284.57,455.96c.97,0,.97-1.51,0-1.51s-.97,1.51,0,1.51h0Z"/>
        <path class="cls-2" d="m39.95,448.53c.65,0,.65-1.01,0-1.01s-.65,1.01,0,1.01h0Z"/>
        <path class="cls-2" d="m370.06,385.76c1.3,0,1.3-2.02,0-2.02s-1.3,2.02,0,2.02h0Z"/>
        <path class="cls-2" d="m483.18,435.67c1.3,0,1.3-2.02,0-2.02s-1.3,2.02,0,2.02h0Z"/>
        <path class="cls-2" d="m264.83,331.4c1.3,0,1.3-2.02,0-2.02s-1.3,2.02,0,2.02h0Z"/>
        <path class="cls-2" d="m111.7,299.42c.97,0,.97-1.51,0-1.51s-.97,1.51,0,1.51h0Z"/>
      </g>
      <g>
        <path class="cls-2" d="m238.76,142.04c1.3,0,1.3-2.02,0-2.02s-1.3,2.02,0,2.02h0Z"/>
        <path class="cls-2" d="m226.79,61.44c1.3,0,1.3-2.02,0-2.02s-1.3,2.02,0,2.02h0Z"/>
        <path class="cls-2" d="m120.65,76.35c.97,0,.97-1.51,0-1.51s-.97,1.51,0,1.51h0Z"/>
        <path class="cls-2" d="m196.46,204.83c.97,0,.97-1.51,0-1.51s-.97,1.51,0,1.51h0Z"/>
        <path class="cls-2" d="m364.05,347.68c.97,0,.97-1.51,0-1.51s-.97,1.51,0,1.51h0Z"/>
        <path class="cls-2" d="m486.15,208.82c.97,0,.97-1.51,0-1.51s-.97,1.51,0,1.51h0Z"/>
        <path class="cls-2" d="m470.99,86.98c1.3,0,1.3-2.02,0-2.02s-1.3,2.02,0,2.02h0Z"/>
        <path class="cls-2" d="m362,238.7c.65,0,.65-1.01,0-1.01s-.65,1.01,0,1.01h0Z"/>
        <path class="cls-2" d="m327.93,277.75c.65,0,.65-1.01,0-1.01s-.65,1.01,0,1.01h0Z"/>
        <path class="cls-2" d="m499.48,362.29c.65,0,.65-1.01,0-1.01s-.65,1.01,0,1.01h0Z"/>
        <path class="cls-2" d="m407.57,410.72c.97,0,.97-1.51,0-1.51s-.97,1.51,0,1.51h0Z"/>
        <path class="cls-2" d="m162.95,403.29c.65,0,.65-1.01,0-1.01s-.65,1.01,0,1.01h0Z"/>
        <path class="cls-2" d="m95.11,367.88c1.3,0,1.3-2.02,0-2.02s-1.3,2.02,0,2.02h0Z"/>
        <path class="cls-2" d="m493.06,340.52c1.3,0,1.3-2.02,0-2.02s-1.3,2.02,0,2.02h0Z"/>
        <path class="cls-2" d="m91.12,221.84c1.3,0,1.3-2.02,0-2.02s-1.3,2.02,0,2.02h0Z"/>
        <path class="cls-2" d="m387.83,286.15c1.3,0,1.3-2.02,0-2.02s-1.3,2.02,0,2.02h0Z"/>
        <path class="cls-2" d="m234.7,254.18c.97,0,.97-1.51,0-1.51s-.97,1.51,0,1.51h0Z"/>
      </g>
    </g>
  </g>
  <g class="cls-6">
    <rect class="cls-1" x="-730.89" y="7.92" width="744.24" height="496.16"/>
  </g>
  <path class="cls-3" d="m424.44,363.91c-11.19-14.48-22.39-28.96-33.6-43.43-7.1-9.17-22.43-5-23.9,6.49-.28,2.19-1.4,11-2.8,22-17.08.57-21.74-9.45-22.93-16v-159.71c0-21.32-19.48-36.21-47.37-36.21-15,0-29.52,4.33-40.78,12.2-.25.18-.48.36-.73.54-25.78-13.91-47.9-16.38-65.78-7.32-3.55,1.8-6.87,4.04-9.87,6.65-25.06-13.2-46.45-15.3-63.65-6.21-26,13.76-28.86,46.23-29.09,49.89-.63,9.93,6.87,18.51,16.8,19.19,9.94.65,18.58-6.79,19.4-16.72.41-5.16,3.38-16.92,9.92-20.32,5.27-2.73,14.54-1.11,26.11,4.44v154.88c0,10.02,8.12,18.14,18.14,18.14s18.14-8.12,18.14-18.14v-140.85c.58-3.8,3.47-15,10.5-18.58,5.73-2.9,15.53-1.23,27.6,4.56v154.87c0,10.02,8.12,18.14,18.14,18.14s18.14-8.12,18.14-18.14v-141.96c0-3,0-10.85,11.78-15.94,10.65-4.61,22.28-3.11,26.32-1v158.9c0,.69.04,1.38.12,2.06,2.29,19.94,18.69,47.32,54.47,48.84l-2.22,17.42c-.17.81-.26,1.63-.26,2.45-.15,7.55,5.85,13.8,13.4,13.96,2.58.05,5.12-.63,7.33-1.96.8-.45,1.54-.99,2.21-1.62l42.15-32.63c5.79-4.61,6.82-13.01,2.31-18.88Z"/>
  <g>
    <polygon class="cls-2" points="98.67 127.87 95 115.6 104.57 124.25 114.52 113.23 110.2 126.18 118.04 130.9 108.04 132.65 106.39 143.79 102.17 131.56 94.21 132.79 98.67 127.87"/>
    <polygon class="cls-2" points="233.58 258.23 221.48 255.36 231.15 250.41 226.84 241.98 236.45 246.91 246.57 239.76 244.17 250.45 254.75 258.81 242.19 257.36 236.02 268.4 233.58 258.23"/>
    <path class="cls-2" d="m213.98,246.59c1.57-.51,3.25.35,3.75,1.92.51,1.57-.35,3.25-1.92,3.75-1.57.51-3.25-.35-3.75-1.92-.51-1.57.35-3.25,1.92-3.75Z"/>
    <path class="cls-2" d="m196.58,243.66c1.57-.51,3.25.35,3.75,1.92.51,1.57-.35,3.25-1.92,3.75-1.57.51-3.25-.35-3.75-1.92-.51-1.57.35-3.25,1.92-3.75Z"/>
    <path class="cls-2" d="m321.82,416.28c-.12,1.64-1.54,2.88-3.19,2.76-1.64-.12-2.88-1.54-2.76-3.19.12-1.64,1.54-2.88,3.19-2.76,1.64.12,2.88,1.54,2.76,3.19Z"/>
    <path class="cls-2" d="m336.41,422.7c-.12,1.64-1.54,2.88-3.19,2.76-1.64-.12-2.88-1.54-2.76-3.19.12-1.64,1.54-2.88,3.19-2.76,1.64.12,2.88,1.54,2.76,3.19Z"/>
    <path class="cls-2" d="m386.78,408.62c1.38.9,1.76,2.75.86,4.13-.9,1.38-2.75,1.76-4.13.86s-1.76-2.75-.86-4.13c.9-1.38,2.75-1.76,4.12-.86Z"/>
    <path class="cls-2" d="m399.48,398.98c1.38.9,1.76,2.75.86,4.12-.9,1.38-2.75,1.76-4.13.86-1.38-.9-1.76-2.75-.86-4.13.9-1.38,2.75-1.76,4.12-.86Z"/>
    <path class="cls-2" d="m305.31,294.04l.71,14.26-7.32-8.72-16.75,3.22,13.64-11.44-2.51-12.46,8.83,10.53s10.26-2.63,10.27-2.64c0,0-6.87,7.26-6.87,7.26Z"/>
    <path class="cls-2" d="m280.59,283.82c.45-1.54,2.06-2.42,3.6-1.97,1.54.45,2.42,2.06,1.97,3.6-.45,1.54-2.06,2.42-3.6,1.97-1.54-.45-2.42-2.06-1.97-3.6Z"/>
    <path class="cls-2" d="m269.3,275.65c.45-1.54,2.06-2.42,3.6-1.97,1.54.45,2.42,2.06,1.97,3.6-.45,1.54-2.06,2.42-3.6,1.97s-2.42-2.06-1.97-3.6Z"/>
    <path class="cls-2" d="m258.09,267.53c.45-1.54,2.06-2.42,3.6-1.97,1.54.45,2.42,2.06,1.97,3.6-.45,1.54-2.06,2.42-3.6,1.97-1.54-.45-2.42-2.06-1.97-3.6Z"/>
    <path class="cls-2" d="m125.12,109.27c1.29.95,1.57,2.77.62,4.06-.95,1.29-2.77,1.57-4.06.62-1.29-.95-1.57-2.77-.62-4.06.95-1.29,2.77-1.57,4.06-.62Z"/>
    <path class="cls-2" d="m138.11,100.47c1.29.95,1.57,2.77.62,4.06s-2.77,1.57-4.06.62c-1.29-.95-1.57-2.77-.62-4.06.95-1.29,2.77-1.57,4.06-.62Z"/>
    <polygon class="cls-2" points="411.92 383.66 402.06 375.2 415.69 376.93 420.19 369.85 418.91 379.9 431.63 386.16 420.99 384.81 418.46 397.67 415.55 390.87 406.35 391.56 411.92 383.66"/>
    <path class="cls-2" d="m188.62,115.02c-.7,1.49-2.47,2.13-3.96,1.44-1.49-.7-2.13-2.47-1.44-3.96.7-1.49,2.47-2.13,3.96-1.44,1.49.7,2.13,2.47,1.44,3.96Z"/>
    <polygon class="cls-2" points="205.54 125.18 212.52 114.22 212.73 127.96 220.38 131.42 210.24 131.57 205.84 145.04 205.68 134.32 192.59 133.62 198.91 129.79 196.94 120.77 205.54 125.18"/>
    <path class="cls-2" d="m271.16,399.15c1.5.67,2.18,2.43,1.52,3.93-.67,1.51-2.43,2.18-3.93,1.52-1.51-.67-2.18-2.43-1.52-3.93.67-1.5,2.43-2.18,3.93-1.52Z"/>
    <path class="cls-2" d="m331.94,342.62c-1.45.69-3.18.07-3.87-1.38-.69-1.45-.07-3.18,1.38-3.87,1.45-.69,3.18-.07,3.87,1.38.69,1.45.07,3.18-1.38,3.87Z"/>
    <polygon class="cls-2" points="341.19 358.75 353.75 362.07 340.73 366.44 339.76 374.78 336.53 365.17 322.36 365.08 332.52 361.66 329.2 348.99 334.78 353.83 342.76 349.21 341.19 358.75"/>
    <path class="cls-2" d="m139.04,235.19c.26,1.58-.82,3.08-2.4,3.34-1.58.26-3.08-.82-3.34-2.4-.26-1.58.82-3.08,2.4-3.34,1.58-.26,3.08.82,3.34,2.4Z"/>
    <path class="cls-2" d="m153.36,237.8c.26,1.58-.82,3.08-2.4,3.34-1.58.26-3.08-.82-3.34-2.4-.26-1.58.82-3.08,2.4-3.34,1.58-.26,3.08.82,3.34,2.4Z"/>
    <polygon class="cls-2" points="170.49 236.72 177.16 225.57 177.76 239.29 185.5 242.53 175.37 242.97 171.35 256.56 170.89 245.85 157.79 245.53 163.99 241.51 161.77 232.56 170.49 236.72"/>
    <polygon class="cls-2" points="116.69 224.06 105.8 217.87 119.02 217.01 121.97 209.48 122.61 219.23 135.79 222.81 125.48 223.49 125.44 236.11 121.44 230.22 112.87 232.56 116.69 224.06"/>
    <path class="cls-2" d="m113.37,199.4c1.43-.81,3.25-.31,4.06,1.13.81,1.43.31,3.25-1.13,4.06s-3.25.31-4.06-1.13-.31-3.25,1.13-4.06Z"/>
    <path class="cls-2" d="m110.84,184.93c1.43-.81,3.25-.31,4.06,1.13.81,1.43.31,3.25-1.13,4.06-1.43.81-3.25.31-4.06-1.13-.81-1.43-.31-3.25,1.13-4.06Z"/>
    <path class="cls-2" d="m108.11,169.23c1.43-.81,3.25-.31,4.06,1.13.81,1.43.31,3.25-1.13,4.06-1.43.81-3.25.31-4.06-1.13-.81-1.43-.31-3.25,1.13-4.06Z"/>
    <path class="cls-2" d="m105.35,153.38c1.43-.81,3.25-.31,4.06,1.13.81,1.43.31,3.25-1.13,4.06-1.43.81-3.25.31-4.06-1.13-.81-1.43-.31-3.25,1.13-4.06Z"/>
    <polygon class="cls-2" points="318.54 316.61 317.88 308.2 323.09 313.42 327.64 308.89 326.44 316.12 333.16 321.18 325.76 321.84 322.54 330.41 320.88 321.99 312.47 320.29 318.54 316.61"/>
    <path class="cls-2" d="m353.82,396.2c1.06,1.26.91,3.14-.35,4.2-1.26,1.06-3.14.91-4.2-.35-1.06-1.26-.91-3.14.35-4.2,1.26-1.06,3.14-.91,4.2.35Z"/>
    <path class="cls-2" d="m350.19,381.28c1.06,1.26.91,3.14-.35,4.2-1.26,1.06-3.14.91-4.2-.35-1.06-1.26-.91-3.14.35-4.2s3.14-.91,4.2.35Z"/>
    <polygon class="cls-2" points="239.12 389.31 245.56 381.07 245.43 389.41 256.25 395.66 243.21 395.46 238.63 403.56 238.78 393.5 231.84 390.04 239.12 389.31"/>
    <polygon class="cls-2" points="150.75 93.9 141.66 92.21 148.25 88.91 148.74 77.89 153.9 88.19 162.12 88.48 154.17 92.46 154.29 99.32 150.75 93.9"/>
    <polygon class="cls-2" points="172.09 107.23 160.61 113.33 167.2 101.27 162.25 94.49 171.14 99.36 181.61 89.8 176.47 99.21 187.51 106.27 180.13 106.49 177.4 115.31 172.09 107.23"/>
    <polygon class="cls-2" points="294.21 404.32 292.8 391.88 301.28 402.05 309.1 400.01 301.6 406.27 306.46 419.03 299.84 411.09 289.62 418.49 292.02 411.79 285.09 406.23 294.21 404.32"/>
    <path class="cls-2" d="m360.24,417.47c1.36-1.6,11.79-11.15,11.79-11.15l-4.71,12.57,11.76,4.03-10.3,1.82,7.26,9.86-9.98-3.43.89,14.11-5.86-10.97-7.04,8.28,2.59-11.15-13.77-1.13,12.38-3.73-12.78-10.41,11.95,3.27.07-11.45,5.74,9.49Z"/>
  </g>
</svg>