<?xml version="1.0" encoding="UTF-8"?>
<svg id="Layer_1" data-name="Layer 1" xmlns="http://www.w3.org/2000/svg" xmlns:xlink="http://www.w3.org/1999/xlink" viewBox="0 0 512 512">
  <defs>
    <style>
      .cls-1 {
        fill: url(#linear-gradient-2);
      }

      .cls-2 {
        clip-path: url(#clippath-2);
      }

      .cls-2, .cls-3, .cls-4, .cls-5 {
        fill: none;
      }

      .cls-6 {
        fill: #fff;
      }

      .cls-7 {
        fill: #fffdeb;
        opacity: .1;
      }

      .cls-4 {
        clip-path: url(#clippath);
      }

      .cls-8 {
        fill: url(#linear-gradient-3);
      }

      .cls-5 {
        clip-path: url(#clippath-1);
      }

      .cls-9 {
        fill: url(#linear-gradient);
      }
    </style>
    <clipPath id="clippath">
      <path class="cls-3" d="m854.2,7.92c-137,0-248.08,111.08-248.08,248.08s111.08,248.08,248.08,248.08,248.08-111.08,248.08-248.08S991.2,7.92,854.2,7.92Z"/>
    </clipPath>
    <linearGradient id="linear-gradient" x1="863.02" y1="-106.53" x2="857.82" y2="973.85" gradientUnits="userSpaceOnUse">
      <stop offset="0" stop-color="#000134"/>
      <stop offset=".49" stop-color="#2f245f"/>
      <stop offset="1" stop-color="#00559c"/>
    </linearGradient>
    <clipPath id="clippath-1">
      <path class="cls-3" d="m256.05,7.92C119.05,7.92,7.97,119,7.97,256s111.08,248.08,248.08,248.08,248.08-111.08,248.08-248.08S393.05,7.92,256.05,7.92Z"/>
    </clipPath>
    <linearGradient id="linear-gradient-2" x1="264.87" y1="-106.53" x2="259.67" y2="973.85" xlink:href="#linear-gradient"/>
    <clipPath id="clippath-2">
      <path class="cls-3" d="m-327.87,7.92c-137,0-248.08,111.08-248.08,248.08s111.08,248.08,248.08,248.08,248.08-111.08,248.08-248.08S-190.87,7.92-327.87,7.92Z"/>
    </clipPath>
    <linearGradient id="linear-gradient-3" x1="-319.04" x2="-324.24" xlink:href="#linear-gradient"/>
  </defs>
  <g class="cls-4">
    <rect class="cls-9" x="489.16" y="7.92" width="744.24" height="496.16"/>
  </g>
  <g class="cls-5">
    <g>
      <rect class="cls-1" x="-108.99" y="7.92" width="744.24" height="496.16"/>
      <g>
        <path class="cls-6" d="m115.76,187.28c1.3,0,1.3-2.02,0-2.02s-1.3,2.02,0,2.02h0Z"/>
        <path class="cls-6" d="m103.79,106.68c1.3,0,1.3-2.02,0-2.02s-1.3,2.02,0,2.02h0Z"/>
        <path class="cls-6" d="m73.46,250.08c.97,0,.97-1.51,0-1.51s-.97,1.51,0,1.51h0Z"/>
        <path class="cls-6" d="m241.05,392.92c.97,0,.97-1.51,0-1.51s-.97,1.51,0,1.51h0Z"/>
        <path class="cls-6" d="m461.95,229.43c1.3,0,1.3-2.02,0-2.02s-1.3,2.02,0,2.02h0Z"/>
        <path class="cls-6" d="m363.15,254.07c.97,0,.97-1.51,0-1.51s-.97,1.51,0,1.51h0Z"/>
        <path class="cls-6" d="m347.99,132.22c1.3,0,1.3-2.02,0-2.02s-1.3,2.02,0,2.02h0Z"/>
        <path class="cls-6" d="m492.43,167.33c1.3,0,1.3-2.02,0-2.02s-1.3,2.02,0,2.02h0Z"/>
        <path class="cls-6" d="m498.01,289.73c.65,0,.65-1.01,0-1.01s-.65,1.01,0,1.01h0Z"/>
        <path class="cls-6" d="m399.19,331.9c.65,0,.65-1.01,0-1.01s-.65,1.01,0,1.01h0Z"/>
        <path class="cls-6" d="m239,283.94c.65,0,.65-1.01,0-1.01s-.65,1.01,0,1.01h0Z"/>
        <path class="cls-6" d="m204.93,323c.65,0,.65-1.01,0-1.01s-.65,1.01,0,1.01h0Z"/>
        <path class="cls-6" d="m376.48,407.53c.65,0,.65-1.01,0-1.01s-.65,1.01,0,1.01h0Z"/>
        <path class="cls-6" d="m284.57,455.96c.97,0,.97-1.51,0-1.51s-.97,1.51,0,1.51h0Z"/>
        <path class="cls-6" d="m39.95,448.53c.65,0,.65-1.01,0-1.01s-.65,1.01,0,1.01h0Z"/>
        <path class="cls-6" d="m370.06,385.76c1.3,0,1.3-2.02,0-2.02s-1.3,2.02,0,2.02h0Z"/>
        <path class="cls-6" d="m483.18,435.67c1.3,0,1.3-2.02,0-2.02s-1.3,2.02,0,2.02h0Z"/>
        <path class="cls-6" d="m264.83,331.4c1.3,0,1.3-2.02,0-2.02s-1.3,2.02,0,2.02h0Z"/>
        <path class="cls-6" d="m111.7,299.42c.97,0,.97-1.51,0-1.51s-.97,1.51,0,1.51h0Z"/>
      </g>
      <g>
        <path class="cls-6" d="m238.76,142.04c1.3,0,1.3-2.02,0-2.02s-1.3,2.02,0,2.02h0Z"/>
        <path class="cls-6" d="m226.79,61.44c1.3,0,1.3-2.02,0-2.02s-1.3,2.02,0,2.02h0Z"/>
        <path class="cls-6" d="m120.65,76.35c.97,0,.97-1.51,0-1.51s-.97,1.51,0,1.51h0Z"/>
        <path class="cls-6" d="m196.46,204.83c.97,0,.97-1.51,0-1.51s-.97,1.51,0,1.51h0Z"/>
        <path class="cls-6" d="m364.05,347.68c.97,0,.97-1.51,0-1.51s-.97,1.51,0,1.51h0Z"/>
        <path class="cls-6" d="m486.15,208.82c.97,0,.97-1.51,0-1.51s-.97,1.51,0,1.51h0Z"/>
        <path class="cls-6" d="m470.99,86.98c1.3,0,1.3-2.02,0-2.02s-1.3,2.02,0,2.02h0Z"/>
        <path class="cls-6" d="m362,238.7c.65,0,.65-1.01,0-1.01s-.65,1.01,0,1.01h0Z"/>
        <path class="cls-6" d="m327.93,277.75c.65,0,.65-1.01,0-1.01s-.65,1.01,0,1.01h0Z"/>
        <path class="cls-6" d="m499.48,362.29c.65,0,.65-1.01,0-1.01s-.65,1.01,0,1.01h0Z"/>
        <path class="cls-6" d="m407.57,410.72c.97,0,.97-1.51,0-1.51s-.97,1.51,0,1.51h0Z"/>
        <path class="cls-6" d="m162.95,403.29c.65,0,.65-1.01,0-1.01s-.65,1.01,0,1.01h0Z"/>
        <path class="cls-6" d="m95.11,367.88c1.3,0,1.3-2.02,0-2.02s-1.3,2.02,0,2.02h0Z"/>
        <path class="cls-6" d="m493.06,340.52c1.3,0,1.3-2.02,0-2.02s-1.3,2.02,0,2.02h0Z"/>
        <path class="cls-6" d="m91.12,221.84c1.3,0,1.3-2.02,0-2.02s-1.3,2.02,0,2.02h0Z"/>
        <path class="cls-6" d="m387.83,286.15c1.3,0,1.3-2.02,0-2.02s-1.3,2.02,0,2.02h0Z"/>
        <path class="cls-6" d="m234.7,254.18c.97,0,.97-1.51,0-1.51s-.97,1.51,0,1.51h0Z"/>
      </g>
    </g>
  </g>
  <g class="cls-2">
    <g>
      <rect class="cls-8" x="-692.91" y="7.92" width="744.24" height="496.16"/>
      <g>
        <path class="cls-6" d="m1.04,184.18c1.3,0,1.3-2.02,0-2.02s-1.3,2.02,0,2.02h0Z"/>
        <path class="cls-6" d="m31.52,122.09c1.3,0,1.3-2.02,0-2.02s-1.3,2.02,0,2.02h0Z"/>
        <path class="cls-6" d="m37.1,244.48c.65,0,.65-1.01,0-1.01s-.65,1.01,0,1.01h0Z"/>
        <path class="cls-6" d="m22.27,390.43c1.3,0,1.3-2.02,0-2.02s-1.3,2.02,0,2.02h0Z"/>
      </g>
    </g>
  </g>
  <path class="cls-7" d="m390.74,123.48c-3.45-.16-34.2-1.19-52.99,19.04l-56.59,56.59h-49.51l-56.59-56.59c-18.79-20.22-49.51-19.2-52.99-19.04-10.79.57-19.08,9.78-18.51,20.57.57,10.79,9.78,19.08,20.57,18.51,4.12-.22,17.13.96,22.32,6.67.2.23.42.45.65.67l48.68,48.68c-47.66,33.71-58.97,99.67-25.26,147.34,33.71,47.66,99.67,58.97,147.34,25.26,47.66-33.71,58.97-99.67,25.26-147.34-7.04-9.95-15.75-18.61-25.74-25.59l48.34-48.37c.23-.22.43-.44.65-.67,4.98-5.5,17.26-6.85,22.42-6.67,10.81.07,19.62-8.63,19.7-19.43.07-10.15-7.63-18.66-17.73-19.61Zm-67.4,181.3c0,36.74-29.79,66.53-66.53,66.53-36.74,0-66.53-29.79-66.53-66.53s29.79-66.53,66.53-66.53h0c36.72.04,66.49,29.8,66.53,66.53Z"/>
  <g>
    <polygon class="cls-6" points="224.89 247.38 218.39 242.51 226.54 243.31 227.45 233.93 230.13 242.16 235.92 241.6 231.48 246.28 234.85 252.58 228.08 247.94 224.48 251.57 224.89 247.38"/>
    <path class="cls-6" d="m184.75,368.8c.97.27,1.54,1.28,1.26,2.25-.27.97-1.28,1.54-2.25,1.26-.97-.27-1.54-1.28-1.26-2.25.27-.97,1.28-1.54,2.25-1.26Z"/>
    <path class="cls-6" d="m189.95,361.46c.97.27,1.54,1.28,1.26,2.25s-1.28,1.54-2.25,1.26c-.97-.27-1.54-1.28-1.26-2.25s1.28-1.54,2.25-1.26Z"/>
    <path class="cls-6" d="m195.23,353.99c.97.27,1.54,1.28,1.26,2.25-.27.97-1.28,1.54-2.25,1.26-.97-.27-1.54-1.28-1.26-2.25.27-.97,1.28-1.54,2.25-1.26Z"/>
    <path class="cls-6" d="m200.29,346.84c.97.27,1.54,1.28,1.26,2.25s-1.28,1.54-2.25,1.26-1.54-1.28-1.26-2.25,1.28-1.54,2.25-1.26Z"/>
    <path class="cls-6" d="m205.31,339.74c.97.27,1.54,1.28,1.26,2.25-.27.97-1.28,1.54-2.25,1.26-.97-.27-1.54-1.28-1.26-2.25.27-.97,1.28-1.54,2.25-1.26Z"/>
    <path class="cls-6" d="m210.51,332.4c.97.27,1.54,1.28,1.26,2.25-.27.97-1.28,1.54-2.25,1.26-.97-.27-1.54-1.28-1.26-2.25.27-.97,1.28-1.54,2.25-1.26Z"/>
    <path class="cls-6" d="m216.15,324.43c.97.27,1.54,1.28,1.26,2.25-.27.97-1.28,1.54-2.25,1.26-.97-.27-1.54-1.28-1.26-2.25.27-.97,1.28-1.54,2.25-1.26Z"/>
    <path class="cls-6" d="m221.84,316.38c.97.27,1.54,1.28,1.26,2.25-.27.97-1.28,1.54-2.25,1.26-.97-.27-1.54-1.28-1.26-2.25s1.28-1.54,2.25-1.26Z"/>
    <path class="cls-6" d="m227.2,308.81c.97.27,1.54,1.28,1.26,2.25-.27.97-1.28,1.54-2.25,1.26s-1.54-1.28-1.26-2.25c.27-.97,1.28-1.54,2.25-1.26Z"/>
    <path class="cls-6" d="m232.51,301.31c.97.27,1.54,1.28,1.26,2.25-.27.97-1.28,1.54-2.25,1.26s-1.54-1.28-1.26-2.25c.27-.97,1.28-1.54,2.25-1.26Z"/>
    <path class="cls-6" d="m237.8,293.83c.97.27,1.54,1.28,1.26,2.25-.27.97-1.28,1.54-2.25,1.26-.97-.27-1.54-1.28-1.26-2.25.27-.97,1.28-1.54,2.25-1.26Z"/>
    <path class="cls-6" d="m258.98,261.49c.97.27,1.54,1.28,1.26,2.25-.27.97-1.28,1.54-2.25,1.26-.97-.27-1.54-1.28-1.26-2.25s1.28-1.54,2.25-1.26Z"/>
    <path class="cls-6" d="m269.31,239.62c.97.27,1.54,1.28,1.26,2.25s-1.28,1.54-2.25,1.26c-.97-.27-1.54-1.28-1.26-2.25s1.28-1.54,2.25-1.26Z"/>
    <path class="cls-6" d="m240.98,238.29c.97.27,1.54,1.28,1.26,2.25s-1.28,1.54-2.25,1.26c-.97-.27-1.54-1.28-1.26-2.25.27-.97,1.28-1.54,2.25-1.26Z"/>
    <path class="cls-6" d="m261.17,232.87c.97.27,1.54,1.28,1.26,2.25-.27.97-1.28,1.54-2.25,1.26s-1.54-1.28-1.26-2.25c.27-.97,1.28-1.54,2.25-1.26Z"/>
    <path class="cls-6" d="m242.71,286.89c.97.27,1.54,1.28,1.26,2.25-.27.97-1.28,1.54-2.25,1.26-.97-.27-1.54-1.28-1.26-2.25.27-.97,1.28-1.54,2.25-1.26Z"/>
    <path class="cls-6" d="m284.53,223.53c.85.54,1.1,1.67.55,2.52s-1.67,1.1-2.52.55c-.85-.54-1.1-1.67-.55-2.52.54-.85,1.67-1.1,2.52-.55Z"/>
    <path class="cls-6" d="m291.86,217.86c.85.54,1.1,1.67.55,2.52-.54.85-1.67,1.1-2.52.55-.85-.54-1.1-1.67-.55-2.52.54-.85,1.67-1.1,2.52-.55Z"/>
    <path class="cls-6" d="m299.13,212.23c.85.54,1.1,1.67.55,2.52-.54.85-1.67,1.1-2.52.55-.85-.54-1.1-1.67-.55-2.52s1.67-1.1,2.52-.55Z"/>
    <path class="cls-6" d="m159.03,405.3c.97.27,1.54,1.28,1.26,2.25-.27.97-1.28,1.54-2.25,1.26-.97-.27-1.54-1.28-1.26-2.25.27-.97,1.28-1.54,2.25-1.26Z"/>
    <path class="cls-6" d="m164.39,397.73c.97.27,1.54,1.28,1.26,2.25-.27.97-1.28,1.54-2.25,1.26s-1.54-1.28-1.26-2.25c.27-.97,1.28-1.54,2.25-1.26Z"/>
    <path class="cls-6" d="m169.7,390.23c.97.27,1.54,1.28,1.26,2.25-.27.97-1.28,1.54-2.25,1.26-.97-.27-1.54-1.28-1.26-2.25.27-.97,1.28-1.54,2.25-1.26Z"/>
    <path class="cls-6" d="m174.99,382.75c.97.27,1.54,1.28,1.26,2.25-.27.97-1.28,1.54-2.25,1.26-.97-.27-1.54-1.28-1.26-2.25.27-.97,1.28-1.54,2.25-1.26Z"/>
    <path class="cls-6" d="m179.9,375.81c.97.27,1.54,1.28,1.26,2.25-.27.97-1.28,1.54-2.25,1.26s-1.54-1.28-1.26-2.25c.27-.97,1.28-1.54,2.25-1.26Z"/>
    <polygon class="cls-6" points="145.07 424.41 135.66 423.5 143.99 419.99 142.79 412.32 147.56 418.72 155.4 413.55 152.27 419.18 158.72 421.64 153.29 424.14 156.11 430.67 150.5 426.24 147.35 431.97 145.07 424.41"/>
    <path class="cls-6" d="m133.79,306.49c.8.61.96,1.75.35,2.56-.61.8-1.75.96-2.56.35-.8-.61-.96-1.75-.35-2.56.61-.8,1.75-.96,2.56-.35Z"/>
    <path class="cls-6" d="m141.32,301.57c.8.61.96,1.75.35,2.56s-1.75.96-2.56.35c-.8-.61-.96-1.75-.35-2.56.61-.8,1.75-.96,2.56-.35Z"/>
    <path class="cls-6" d="m148.98,296.56c.8.61.96,1.75.35,2.56-.61.8-1.75.96-2.56.35s-.96-1.75-.35-2.56,1.75-.96,2.56-.35Z"/>
    <path class="cls-6" d="m156.3,291.77c.8.61.96,1.75.35,2.56-.61.8-1.75.96-2.56.35-.8-.61-.96-1.75-.35-2.56.61-.8,1.75-.96,2.56-.35Z"/>
    <path class="cls-6" d="m163.58,287.01c.8.61.96,1.75.35,2.56-.61.8-1.75.96-2.56.35-.8-.61-.96-1.75-.35-2.56.61-.8,1.75-.96,2.56-.35Z"/>
    <path class="cls-6" d="m171.11,282.09c.8.61.96,1.75.35,2.56s-1.75.96-2.56.35c-.8-.61-.96-1.75-.35-2.56.61-.8,1.75-.96,2.56-.35Z"/>
    <path class="cls-6" d="m179.29,276.74c.8.61.96,1.75.35,2.56-.61.8-1.75.96-2.56.35-.8-.61-.96-1.75-.35-2.56s1.75-.96,2.56-.35Z"/>
    <path class="cls-6" d="m187.53,271.35c.8.61.96,1.75.35,2.56-.61.8-1.75.96-2.56.35s-.96-1.75-.35-2.56c.61-.8,1.75-.96,2.56-.35Z"/>
    <path class="cls-6" d="m195.29,266.27c.8.61.96,1.75.35,2.56-.61.8-1.75.96-2.56.35-.8-.61-.96-1.75-.35-2.56.61-.8,1.75-.96,2.56-.35Z"/>
    <path class="cls-6" d="m202.99,261.24c.8.61.96,1.75.35,2.56s-1.75.96-2.56.35-.96-1.75-.35-2.56c.61-.8,1.75-.96,2.56-.35Z"/>
    <path class="cls-6" d="m210.66,256.23c.8.61.96,1.75.35,2.56-.61.8-1.75.96-2.56.35-.8-.61-.96-1.75-.35-2.56s1.75-.96,2.56-.35Z"/>
    <path class="cls-6" d="m217.77,251.57c.8.61.96,1.75.35,2.56s-1.75.96-2.56.35c-.8-.61-.96-1.75-.35-2.56.61-.8,1.75-.96,2.56-.35Z"/>
    <path class="cls-6" d="m96.47,331.01c.8.61.96,1.75.35,2.56-.61.8-1.75.96-2.56.35-.8-.61-.96-1.75-.35-2.56.61-.8,1.75-.96,2.56-.35Z"/>
    <path class="cls-6" d="m104.23,325.93c.8.61.96,1.75.35,2.56-.61.8-1.75.96-2.56.35-.8-.61-.96-1.75-.35-2.56s1.75-.96,2.56-.35Z"/>
    <path class="cls-6" d="m111.92,320.9c.8.61.96,1.75.35,2.56-.61.8-1.75.96-2.56.35-.8-.61-.96-1.75-.35-2.56s1.75-.96,2.56-.35Z"/>
    <path class="cls-6" d="m119.59,315.88c.8.61.96,1.75.35,2.56-.61.8-1.75.96-2.56.35-.8-.61-.96-1.75-.35-2.56.61-.8,1.75-.96,2.56-.35Z"/>
    <path class="cls-6" d="m126.7,311.23c.8.61.96,1.75.35,2.56-.61.8-1.75.96-2.56.35-.8-.61-.96-1.75-.35-2.56.61-.8,1.75-.96,2.56-.35Z"/>
    <path class="cls-6" d="m77.04,347.07c-1.28-.12-9.73-2.03-9.73-2.03l7.97-2.03-2.09-7.33,4.52,4.54,2.42-7.1,1.77,6.21,6.78-5.38-3.47,6.78,6.63.65-6.51,2.6,4.25,7.32-6.21-4.92-.77,10.07-2.54-7.15-5.78,3.97,2.76-6.21Z"/>
    <polygon class="cls-6" points="248.35 278.32 241.63 272.38 248.76 272.92 254.67 263.99 253.82 275.14 260.53 279.49 251.92 278.83 248.59 284.6 248.35 278.32"/>
    <polygon class="cls-6" points="380.72 126.92 371.81 127.94 376.98 123 374.3 112.63 382.02 120.72 389.73 118.65 383.49 124.61 385.55 130.94 380.72 126.92"/>
    <polygon class="cls-6" points="247.98 237.17 243.84 233.97 249.36 234.39 251.02 231.45 250.71 235.52 255.95 237.78 251.65 237.45 250.89 242.67 249.58 240 245.9 240.46 247.98 237.17"/>
    <polygon class="cls-6" points="358.94 125.14 354.8 121.94 360.32 122.36 361.98 119.42 361.67 123.49 366.91 125.75 362.61 125.42 361.85 130.64 360.54 127.97 356.86 128.43 358.94 125.14"/>
    <polygon class="cls-6" points="259.3 252.64 257.81 248.2 261.39 249.19 263.1 245.69 265.24 250.75 269.91 251.11 265.47 254.92 265.73 258.6 262.42 254.69 257.2 256.12 259.3 252.64"/>
    <polygon class="cls-6" points="268.61 230.26 265.67 225.89 269.91 227.12 271.02 222.33 271.84 225.82 279.33 229.28 273.63 230.65 273.36 236.58 271.29 232.99 266.4 233.24 268.61 230.26"/>
    <path class="cls-6" d="m307.71,207.37c-1.28-.12-9.73-2.03-9.73-2.03l7.97-2.03-2.09-7.33,4.52,4.54,2.42-7.1,1.77,6.21,6.78-5.38-3.47,6.78,6.63.65-6.51,2.6,4.25,7.32-6.21-4.92-.77,10.07-2.54-7.15-5.78,3.97,2.76-6.21Z"/>
    <path class="cls-6" d="m323.89,190.83c.94.35,1.43,1.4,1.07,2.35-.35.94-1.4,1.43-2.35,1.07-.94-.35-1.43-1.4-1.07-2.35.35-.94,1.4-1.43,2.35-1.07Z"/>
    <path class="cls-6" d="m329.52,184.13c.94.35,1.43,1.4,1.07,2.35s-1.4,1.43-2.35,1.07c-.94-.35-1.43-1.4-1.07-2.35s1.4-1.43,2.35-1.07Z"/>
    <path class="cls-6" d="m335.11,177.47c.94.35,1.43,1.4,1.07,2.35-.35.94-1.4,1.43-2.35,1.07-.94-.35-1.43-1.4-1.07-2.35.35-.94,1.4-1.43,2.35-1.07Z"/>
    <path class="cls-6" d="m340.9,170.58c.94.35,1.43,1.4,1.07,2.35-.35.94-1.4,1.43-2.35,1.07s-1.43-1.4-1.07-2.35c.35-.94,1.4-1.43,2.35-1.07Z"/>
    <path class="cls-6" d="m347.18,163.1c.94.35,1.43,1.4,1.07,2.35-.35.94-1.4,1.43-2.35,1.07s-1.43-1.4-1.07-2.35c.35-.94,1.4-1.43,2.35-1.07Z"/>
    <path class="cls-6" d="m353.52,155.56c.94.35,1.43,1.4,1.07,2.35-.35.94-1.4,1.43-2.35,1.07-.94-.35-1.43-1.4-1.07-2.35.35-.94,1.4-1.43,2.35-1.07Z"/>
    <path class="cls-6" d="m359.48,148.46c.94.35,1.43,1.4,1.07,2.35-.35.94-1.4,1.43-2.35,1.07-.94-.35-1.43-1.4-1.07-2.35.35-.94,1.4-1.43,2.35-1.07Z"/>
    <path class="cls-6" d="m365.4,141.42c.94.35,1.43,1.4,1.07,2.35-.35.94-1.4,1.43-2.35,1.07-.94-.35-1.43-1.4-1.07-2.35.35-.94,1.4-1.43,2.35-1.07Z"/>
    <path class="cls-6" d="m371.29,134.41c.94.35,1.43,1.4,1.07,2.35s-1.4,1.43-2.35,1.07c-.94-.35-1.43-1.4-1.07-2.35.35-.94,1.4-1.43,2.35-1.07Z"/>
  </g>
</svg>