<?xml version="1.0" encoding="UTF-8"?>
<svg id="Layer_1" data-name="Layer 1" xmlns="http://www.w3.org/2000/svg" xmlns:xlink="http://www.w3.org/1999/xlink" viewBox="0 0 512 512">
  <defs>
    <style>
      .cls-1 {
        fill: url(#linear-gradient-2);
      }

      .cls-2 {
        clip-path: url(#clippath-2);
      }

      .cls-2, .cls-3, .cls-4, .cls-5 {
        fill: none;
      }

      .cls-6 {
        fill: #fff;
      }

      .cls-7 {
        fill: #fffdeb;
        opacity: .1;
      }

      .cls-4 {
        clip-path: url(#clippath);
      }

      .cls-8 {
        fill: url(#linear-gradient-3);
      }

      .cls-5 {
        clip-path: url(#clippath-1);
      }

      .cls-9 {
        fill: url(#linear-gradient);
      }
    </style>
    <clipPath id="clippath">
      <path class="cls-3" d="m854.2,7.92c-137,0-248.08,111.08-248.08,248.08s111.08,248.08,248.08,248.08,248.08-111.08,248.08-248.08S991.2,7.92,854.2,7.92Z"/>
    </clipPath>
    <linearGradient id="linear-gradient" x1="863.02" y1="-106.53" x2="857.82" y2="973.85" gradientUnits="userSpaceOnUse">
      <stop offset="0" stop-color="#000134"/>
      <stop offset=".49" stop-color="#2f245f"/>
      <stop offset="1" stop-color="#00559c"/>
    </linearGradient>
    <clipPath id="clippath-1">
      <path class="cls-3" d="m256.05,7.92C119.05,7.92,7.97,119,7.97,256s111.08,248.08,248.08,248.08,248.08-111.08,248.08-248.08S393.05,7.92,256.05,7.92Z"/>
    </clipPath>
    <linearGradient id="linear-gradient-2" x1="264.87" y1="-106.53" x2="259.67" y2="973.85" xlink:href="#linear-gradient"/>
    <clipPath id="clippath-2">
      <path class="cls-3" d="m-327.87,7.92c-137,0-248.08,111.08-248.08,248.08s111.08,248.08,248.08,248.08,248.08-111.08,248.08-248.08S-190.87,7.92-327.87,7.92Z"/>
    </clipPath>
    <linearGradient id="linear-gradient-3" x1="-319.04" y1="-106.53" x2="-324.24" y2="973.85" xlink:href="#linear-gradient"/>
  </defs>
  <g class="cls-4">
    <rect class="cls-9" x="489.16" y="7.92" width="744.24" height="496.16"/>
  </g>
  <g class="cls-5">
    <g>
      <rect class="cls-1" x="-108.99" y="7.92" width="744.24" height="496.16"/>
      <g>
        <path class="cls-6" d="m115.76,187.28c1.3,0,1.3-2.02,0-2.02s-1.3,2.02,0,2.02h0Z"/>
        <path class="cls-6" d="m103.79,106.68c1.3,0,1.3-2.02,0-2.02s-1.3,2.02,0,2.02h0Z"/>
        <path class="cls-6" d="m73.46,250.08c.97,0,.97-1.51,0-1.51s-.97,1.51,0,1.51h0Z"/>
        <path class="cls-6" d="m241.05,392.92c.97,0,.97-1.51,0-1.51s-.97,1.51,0,1.51h0Z"/>
        <path class="cls-6" d="m461.95,229.43c1.3,0,1.3-2.02,0-2.02s-1.3,2.02,0,2.02h0Z"/>
        <path class="cls-6" d="m363.15,254.07c.97,0,.97-1.51,0-1.51s-.97,1.51,0,1.51h0Z"/>
        <path class="cls-6" d="m347.99,132.22c1.3,0,1.3-2.02,0-2.02s-1.3,2.02,0,2.02h0Z"/>
        <path class="cls-6" d="m492.43,167.33c1.3,0,1.3-2.02,0-2.02s-1.3,2.02,0,2.02h0Z"/>
        <path class="cls-6" d="m498.01,289.73c.65,0,.65-1.01,0-1.01s-.65,1.01,0,1.01h0Z"/>
        <path class="cls-6" d="m399.19,331.9c.65,0,.65-1.01,0-1.01s-.65,1.01,0,1.01h0Z"/>
        <path class="cls-6" d="m239,283.94c.65,0,.65-1.01,0-1.01s-.65,1.01,0,1.01h0Z"/>
        <path class="cls-6" d="m204.93,323c.65,0,.65-1.01,0-1.01s-.65,1.01,0,1.01h0Z"/>
        <path class="cls-6" d="m376.48,407.53c.65,0,.65-1.01,0-1.01s-.65,1.01,0,1.01h0Z"/>
        <path class="cls-6" d="m284.57,455.96c.97,0,.97-1.51,0-1.51s-.97,1.51,0,1.51h0Z"/>
        <path class="cls-6" d="m39.95,448.53c.65,0,.65-1.01,0-1.01s-.65,1.01,0,1.01h0Z"/>
        <path class="cls-6" d="m370.06,385.76c1.3,0,1.3-2.02,0-2.02s-1.3,2.02,0,2.02h0Z"/>
        <path class="cls-6" d="m483.18,435.67c1.3,0,1.3-2.02,0-2.02s-1.3,2.02,0,2.02h0Z"/>
        <path class="cls-6" d="m264.83,331.4c1.3,0,1.3-2.02,0-2.02s-1.3,2.02,0,2.02h0Z"/>
        <path class="cls-6" d="m111.7,299.42c.97,0,.97-1.51,0-1.51s-.97,1.51,0,1.51h0Z"/>
      </g>
      <g>
        <path class="cls-6" d="m238.76,142.04c1.3,0,1.3-2.02,0-2.02s-1.3,2.02,0,2.02h0Z"/>
        <path class="cls-6" d="m226.79,61.44c1.3,0,1.3-2.02,0-2.02s-1.3,2.02,0,2.02h0Z"/>
        <path class="cls-6" d="m120.65,76.35c.97,0,.97-1.51,0-1.51s-.97,1.51,0,1.51h0Z"/>
        <path class="cls-6" d="m196.46,204.83c.97,0,.97-1.51,0-1.51s-.97,1.51,0,1.51h0Z"/>
        <path class="cls-6" d="m364.05,347.68c.97,0,.97-1.51,0-1.51s-.97,1.51,0,1.51h0Z"/>
        <path class="cls-6" d="m486.15,208.82c.97,0,.97-1.51,0-1.51s-.97,1.51,0,1.51h0Z"/>
        <path class="cls-6" d="m470.99,86.98c1.3,0,1.3-2.02,0-2.02s-1.3,2.02,0,2.02h0Z"/>
        <path class="cls-6" d="m362,238.7c.65,0,.65-1.01,0-1.01s-.65,1.01,0,1.01h0Z"/>
        <path class="cls-6" d="m327.93,277.75c.65,0,.65-1.01,0-1.01s-.65,1.01,0,1.01h0Z"/>
        <path class="cls-6" d="m499.48,362.29c.65,0,.65-1.01,0-1.01s-.65,1.01,0,1.01h0Z"/>
        <path class="cls-6" d="m407.57,410.72c.97,0,.97-1.51,0-1.51s-.97,1.51,0,1.51h0Z"/>
        <path class="cls-6" d="m162.95,403.29c.65,0,.65-1.01,0-1.01s-.65,1.01,0,1.01h0Z"/>
        <path class="cls-6" d="m95.11,367.88c1.3,0,1.3-2.02,0-2.02s-1.3,2.02,0,2.02h0Z"/>
        <path class="cls-6" d="m493.06,340.52c1.3,0,1.3-2.02,0-2.02s-1.3,2.02,0,2.02h0Z"/>
        <path class="cls-6" d="m91.12,221.84c1.3,0,1.3-2.02,0-2.02s-1.3,2.02,0,2.02h0Z"/>
        <path class="cls-6" d="m387.83,286.15c1.3,0,1.3-2.02,0-2.02s-1.3,2.02,0,2.02h0Z"/>
        <path class="cls-6" d="m234.7,254.18c.97,0,.97-1.51,0-1.51s-.97,1.51,0,1.51h0Z"/>
      </g>
    </g>
  </g>
  <g class="cls-2">
    <g>
      <rect class="cls-8" x="-692.91" y="7.92" width="744.24" height="496.16"/>
      <g>
        <path class="cls-6" d="m1.04,184.18c1.3,0,1.3-2.02,0-2.02s-1.3,2.02,0,2.02h0Z"/>
        <path class="cls-6" d="m31.52,122.09c1.3,0,1.3-2.02,0-2.02s-1.3,2.02,0,2.02h0Z"/>
        <path class="cls-6" d="m37.1,244.48c.65,0,.65-1.01,0-1.01s-.65,1.01,0,1.01h0Z"/>
        <path class="cls-6" d="m22.27,390.43c1.3,0,1.3-2.02,0-2.02s-1.3,2.02,0,2.02h0Z"/>
      </g>
    </g>
  </g>
  <path class="cls-7" d="m418.13,273.22c3.31-30-1.8-51.24-15.63-64.82-14.95-14.67-35.31-15.62-52.28-14.21v-11.4c0-21.32-19.48-36.21-47.37-36.21-15,0-29.52,4.33-40.78,12.2-.25.18-.49.37-.73.54-25.78-13.91-47.89-16.38-65.78-7.32-3.55,1.8-6.87,4.04-9.87,6.65-25.06-13.2-46.45-15.3-63.65-6.21-26.04,13.77-28.87,46.24-29.1,49.92-.68,10,6.87,18.65,16.86,19.33,10,.68,18.65-6.87,19.33-16.86.41-5.17,3.38-16.92,9.92-20.31,5.27-2.73,14.54-1.11,26.11,4.44v154.84c0,10.02,8.12,18.14,18.14,18.14s18.14-8.12,18.14-18.14v-140.85c.58-3.81,3.47-15,10.5-18.58,5.73-2.9,15.53-1.23,27.6,4.56v154.87c0,10.02,8.12,18.14,18.14,18.14s18.14-8.12,18.14-18.14v-141.96c0-3,0-10.84,11.78-15.94,10.66-4.61,22.28-3.11,26.32-1v158.9c0,.54,0,1.08.08,1.62.35,3.11,1.1,6.16,2.24,9.07-12.16,8.72-24.98,16.46-38.35,23.17-9.03,4.36-12.81,15.22-8.45,24.25,4.36,9.03,15.22,12.81,24.25,8.45h0c16.29-8.21,31.88-17.73,46.62-28.47,11.72,7,28.63,12.78,53.06,14.51h1.3c10.02.03,18.17-8.06,18.2-18.08.03-9.57-7.38-17.52-16.94-18.16-8.31-.47-16.55-1.86-24.55-4.16,23.06-22.23,43.17-50.39,46.74-82.78Zm-67.92,52.69v-95.27c10.5-1.09,21.8-1.32,26.86,3.66,3,2.92,7.59,11.35,5,35-2.24,20.26-15.31,39.74-31.86,56.61h0Z"/>
  <g>
    <path class="cls-6" d="m238.1,290.25c1.08,1.09,7.4,9.23,7.4,9.23l-8.85-4.17-3.62,8.31-.72-7.59-7.6,4.69,3.08-7.05-10.3-.19,8.32-3.61-5.6-5.61,7.95,2.54,1.64-9.94,1.98,9.22,8.32-8.67-3.08,8.49,8.32.73-7.23,3.61Z"/>
    <path class="cls-6" d="m275.27,302.94c.07,1.17-.82,2.17-1.99,2.24-1.17.07-2.17-.82-2.24-1.99-.07-1.17.82-2.17,1.99-2.24,1.17-.07,2.17.82,2.24,1.99Z"/>
    <path class="cls-6" d="m285.31,305.84c.07,1.17-.82,2.17-1.99,2.24-1.17.07-2.17-.82-2.24-1.99-.07-1.17.82-2.17,1.99-2.24,1.17-.07,2.17.82,2.24,1.99Z"/>
    <path class="cls-6" d="m295.51,308.79c.07,1.17-.82,2.17-1.99,2.24-1.17.07-2.17-.82-2.24-1.99-.07-1.17.82-2.17,1.99-2.24,1.17-.07,2.17.82,2.24,1.99Z"/>
    <path class="cls-6" d="m305.27,311.61c.07,1.17-.82,2.17-1.99,2.24-1.17.07-2.17-.82-2.24-1.99-.07-1.17.82-2.17,1.99-2.24,1.17-.07,2.17.82,2.24,1.99Z"/>
    <path class="cls-6" d="m314.96,314.41c.07,1.17-.82,2.17-1.99,2.24-1.17.07-2.17-.82-2.24-1.99-.07-1.17.82-2.17,1.99-2.24,1.17-.07,2.17.82,2.24,1.99Z"/>
    <path class="cls-6" d="m325,317.31c.07,1.17-.82,2.17-1.99,2.24-1.17.07-2.17-.82-2.24-1.99-.07-1.17.82-2.17,1.99-2.24,1.17-.07,2.17.82,2.24,1.99Z"/>
    <path class="cls-6" d="m256.26,297.55c.07,1.17-.82,2.17-1.99,2.24-1.17.07-2.17-.82-2.24-1.99-.07-1.17.82-2.17,1.99-2.24,1.17-.07,2.17.82,2.24,1.99Z"/>
    <path class="cls-6" d="m265.74,300.29c.07,1.17-.82,2.17-1.99,2.24-1.17.07-2.17-.82-2.24-1.99-.07-1.17.82-2.17,1.99-2.24,1.17-.07,2.17.82,2.24,1.99Z"/>
    <polygon class="cls-6" points="337.62 319.03 343.28 311.43 342.7 321.43 348.08 324.35 340.7 323.92 336.79 333.49 337.24 325.68 327.76 324.49 332.55 322.03 331.59 315.37 337.62 319.03"/>
    <path class="cls-6" d="m219.55,192.75c-.12-1.16.73-2.2,1.9-2.32,1.16-.12,2.2.73,2.32,1.9.12,1.16-.73,2.2-1.9,2.32-1.16.12-2.2-.73-2.32-1.9Z"/>
    <path class="cls-6" d="m209.41,190.25c-.12-1.16.73-2.2,1.9-2.32,1.16-.12,2.2.73,2.32,1.9s-.73,2.2-1.9,2.32c-1.16.12-2.2-.73-2.32-1.9Z"/>
    <path class="cls-6" d="m199.1,187.7c-.12-1.16.73-2.2,1.9-2.32s2.2.73,2.32,1.9c.12,1.16-.73,2.2-1.9,2.32-1.16.12-2.2-.73-2.32-1.9Z"/>
    <path class="cls-6" d="m189.24,185.27c-.12-1.16.73-2.2,1.9-2.32,1.16-.12,2.2.73,2.32,1.9.12,1.16-.73,2.2-1.9,2.32-1.16.12-2.2-.73-2.32-1.9Z"/>
    <path class="cls-6" d="m179.44,182.85c-.12-1.16.73-2.2,1.9-2.32s2.2.73,2.32,1.9c.12,1.16-.73,2.2-1.9,2.32-1.16.12-2.2-.73-2.32-1.9Z"/>
    <path class="cls-6" d="m169.3,180.35c-.12-1.16.73-2.2,1.9-2.32,1.16-.12,2.2.73,2.32,1.9.12,1.16-.73,2.2-1.9,2.32-1.16.12-2.2-.73-2.32-1.9Z"/>
    <polygon class="cls-6" points="156.62 179.13 151.27 186.95 151.45 176.93 145.96 174.23 153.35 174.36 156.88 164.65 156.74 172.47 166.26 173.29 161.57 175.93 162.79 182.55 156.62 179.13"/>
    <path class="cls-6" d="m152.67,407.81c1.19.12,2.07,1.18,1.95,2.38-.12,1.19-1.18,2.07-2.37,1.95-1.19-.12-2.07-1.18-1.95-2.37s1.18-2.07,2.37-1.95Z"/>
    <path class="cls-6" d="m157.08,398.45c1.19.12,2.07,1.18,1.95,2.37-.12,1.19-1.18,2.07-2.38,1.95s-2.07-1.18-1.95-2.38,1.18-2.07,2.38-1.95Z"/>
    <path class="cls-6" d="m161.64,388.75c1.19.12,2.07,1.18,1.95,2.38s-1.18,2.07-2.37,1.95c-1.19-.12-2.07-1.18-1.95-2.37s1.18-2.07,2.37-1.95Z"/>
    <path class="cls-6" d="m166.59,378.24c1.19.12,2.07,1.18,1.95,2.37-.12,1.19-1.18,2.07-2.38,1.95-1.19-.12-2.07-1.18-1.95-2.37.12-1.19,1.18-2.07,2.37-1.95Z"/>
    <path class="cls-6" d="m171.96,368.84c1.19.12,2.07,1.18,1.95,2.37-.12,1.19-1.18,2.07-2.37,1.95-1.19-.12-2.07-1.18-1.95-2.37s1.18-2.07,2.37-1.95Z"/>
    <path class="cls-6" d="m298.49,244.62c1.09-.5,2.38-.03,2.88,1.06.5,1.09.03,2.38-1.06,2.88-1.09.5-2.38.03-2.88-1.06-.5-1.09-.03-2.38,1.06-2.88Z"/>
    <path class="cls-6" d="m297.55,234.25c1.09-.5,2.38-.03,2.88,1.06.5,1.09.03,2.38-1.06,2.88-1.09.5-2.38.03-2.88-1.06-.5-1.09-.03-2.38,1.06-2.88Z"/>
    <path class="cls-6" d="m296.61,223.94c1.09-.5,2.38-.03,2.88,1.06.5,1.09.03,2.38-1.06,2.88-1.09.5-2.38.03-2.88-1.06-.5-1.09-.03-2.38,1.06-2.88Z"/>
    <path class="cls-6" d="m295.65,213.27c1.09-.5,2.38-.03,2.88,1.06.5,1.09.03,2.38-1.06,2.88s-2.38.03-2.88-1.06c-.5-1.09-.03-2.38,1.06-2.88Z"/>
    <path class="cls-6" d="m294.6,201.69c1.09-.5,2.38-.03,2.88,1.06.5,1.09.03,2.38-1.06,2.88-1.09.5-2.38.03-2.88-1.06-.5-1.09-.03-2.38,1.06-2.88Z"/>
    <path class="cls-6" d="m294.47,190.87c1.09-.5,2.38-.03,2.88,1.06.5,1.09.03,2.38-1.06,2.88-1.09.5-2.38.03-2.88-1.06-.5-1.09-.03-2.38,1.06-2.88Z"/>
    <path class="cls-6" d="m176.52,359.14c1.19.12,2.07,1.18,1.95,2.37-.12,1.19-1.18,2.07-2.37,1.95s-2.07-1.18-1.95-2.37c.12-1.19,1.18-2.07,2.38-1.95Z"/>
    <path class="cls-6" d="m181.47,348.63c1.19.12,2.07,1.18,1.95,2.37s-1.18,2.07-2.37,1.95-2.07-1.18-1.95-2.38c.12-1.19,1.18-2.07,2.38-1.95Z"/>
    <path class="cls-6" d="m145.93,431.79c.46,1.46,2.3,11.6,2.3,11.6l-5.93-7.78-7.05,5.7,2.87-7.07-8.91.65,5.99-4.83-9.05-4.93,9.05.64-2.38-7.56,5.88,5.92,6.04-8.06-2.5,9.09,11.39-3.84-6.66,6.11,7.04,4.49-8.08-.14Z"/>
    <polygon class="cls-6" points="305.03 53.77 302.58 64.75 299.65 54.4 290.42 54.7 298.67 49.99 293.71 39.98 299.9 44.5 303.75 37.24 305.91 44.01 314.03 41.64 307.98 47.62 314.3 52.18 305.03 53.77"/>
    <path class="cls-6" d="m218.62,306.81c.51-1.08,1.81-1.55,2.89-1.03s1.55,1.81,1.03,2.89c-.51,1.08-1.81,1.55-2.89,1.03-1.08-.51-1.55-1.81-1.03-2.89Z"/>
    <path class="cls-6" d="m208.95,314.99c.51-1.08,1.81-1.55,2.89-1.03,1.08.51,1.55,1.81,1.03,2.89-.51,1.08-1.81,1.55-2.89,1.03-1.08-.51-1.55-1.81-1.03-2.89Z"/>
    <path class="cls-6" d="m200.14,321.89c.51-1.08,1.81-1.55,2.89-1.03,1.08.51,1.55,1.81,1.03,2.89-.51,1.08-1.81,1.55-2.89,1.03-1.08-.51-1.55-1.81-1.03-2.89Z"/>
    <path class="cls-6" d="m235.27,270.27c1.11-.45,2.38.09,2.83,1.21.45,1.11-.09,2.38-1.21,2.83s-2.38-.09-2.83-1.21c-.45-1.11.09-2.38,1.21-2.83Z"/>
    <path class="cls-6" d="m234.84,259.57c1.11-.45,2.38.09,2.83,1.21.45,1.11-.09,2.38-1.21,2.83-1.11.45-2.38-.09-2.83-1.21s.09-2.38,1.21-2.83Z"/>
    <path class="cls-6" d="m234.4,248.69c1.11-.45,2.38.09,2.83,1.21.45,1.11-.09,2.38-1.21,2.83-1.11.45-2.38-.09-2.83-1.21-.45-1.11.09-2.38,1.21-2.83Z"/>
    <path class="cls-6" d="m233.98,238.28c1.11-.45,2.38.09,2.83,1.21.45,1.11-.09,2.38-1.21,2.83-1.11.45-2.38-.09-2.83-1.21-.45-1.11.09-2.38,1.21-2.83Z"/>
    <path class="cls-6" d="m233.57,227.94c1.11-.45,2.38.09,2.83,1.21.45,1.11-.09,2.38-1.21,2.83-1.11.45-2.38-.09-2.83-1.21-.45-1.11.09-2.38,1.21-2.83Z"/>
    <path class="cls-6" d="m233.14,217.23c1.11-.45,2.38.09,2.83,1.21.45,1.11-.09,2.38-1.21,2.83-1.11.45-2.38-.09-2.83-1.21-.45-1.11.09-2.38,1.21-2.83Z"/>
    <path class="cls-6" d="m298.38,155.86c1.19-.18,2.29.64,2.47,1.83.18,1.19-.64,2.29-1.83,2.47s-2.29-.64-2.47-1.83c-.18-1.19.64-2.29,1.83-2.47Z"/>
    <path class="cls-6" d="m300.63,144.46c1.19-.18,2.29.64,2.47,1.83.18,1.19-.64,2.29-1.83,2.47s-2.29-.64-2.47-1.83c-.18-1.19.64-2.29,1.83-2.47Z"/>
    <polygon class="cls-6" points="302.19 130.1 294.5 123.08 302.76 123.84 309.78 113.58 308.6 126.5 316.3 131.67 306.32 130.75 302.35 137.39 302.19 130.1"/>
    <path class="cls-6" d="m236.18,208.81c.72.92.57,2.25-.35,2.98-.92.72-2.25.57-2.98-.35-.72-.92-.57-2.25.35-2.98.92-.72,2.25-.57,2.98.35Z"/>
    <path class="cls-6" d="m274.12,186.36c-.47-1.07,0-2.32,1.08-2.8,1.07-.47,2.32.01,2.8,1.08s-.01,2.32-1.08,2.8c-1.07.47-2.32-.01-2.8-1.08Z"/>
    <path class="cls-6" d="m264.05,187.11c-.47-1.07.01-2.32,1.08-2.8s2.32.01,2.8,1.08,0,2.32-1.08,2.8c-1.07.47-2.32,0-2.8-1.08Z"/>
    <path class="cls-6" d="m253.63,187.89c-.47-1.07.01-2.32,1.08-2.8s2.32,0,2.8,1.08c.47,1.07,0,2.32-1.08,2.8-1.07.47-2.32-.01-2.8-1.08Z"/>
    <polygon class="cls-6" points="193.68 338.31 191.58 348.78 187.88 341.11 175.14 340.37 187.13 334.58 187.6 325.08 192.07 334.33 199.99 334.31 193.68 338.31"/>
    <path class="cls-6" d="m330.25,340.26c-1.19-.16-2.02-1.26-1.86-2.45.16-1.19,1.26-2.02,2.45-1.86s2.02,1.26,1.86,2.45-1.26,2.02-2.45,1.86Z"/>
    <path class="cls-6" d="m325.49,349.45c-1.19-.16-2.02-1.26-1.86-2.45s1.26-2.02,2.45-1.86,2.02,1.26,1.86,2.45c-.16,1.19-1.26,2.02-2.45,1.86Z"/>
    <path class="cls-6" d="m320.57,358.97c-1.19-.16-2.02-1.26-1.86-2.45.16-1.19,1.26-2.02,2.45-1.86,1.19.16,2.02,1.26,1.86,2.45s-1.26,2.02-2.45,1.86Z"/>
    <path class="cls-6" d="m315.23,369.3c-1.19-.16-2.02-1.26-1.86-2.45s1.26-2.02,2.45-1.86c1.19.16,2.02,1.26,1.86,2.45-.16,1.19-1.26,2.02-2.45,1.86Z"/>
    <path class="cls-6" d="m309.53,378.49c-1.19-.16-2.02-1.26-1.86-2.45s1.26-2.02,2.45-1.86,2.02,1.26,1.86,2.45-1.26,2.02-2.45,1.86Z"/>
    <path class="cls-6" d="m304.61,388.01c-1.19-.16-2.02-1.26-1.86-2.45s1.26-2.02,2.45-1.86c1.19.16,2.02,1.26,1.86,2.45-.16,1.19-1.26,2.02-2.45,1.86Z"/>
    <path class="cls-6" d="m299.27,398.33c-1.19-.16-2.02-1.26-1.86-2.45s1.26-2.02,2.45-1.86c1.19.16,2.02,1.26,1.86,2.45-.16,1.19-1.26,2.02-2.45,1.86Z"/>
    <polygon class="cls-6" points="281.84 413.5 280.11 402.96 286.28 408.83 298.46 405.03 289.28 414.68 292.2 423.73 284.75 416.65 277.34 419.47 281.84 413.5"/>
    <path class="cls-6" d="m331.15,307.12c1.04.6,1.4,1.93.8,2.97-.6,1.04-1.93,1.4-2.97.8-1.04-.6-1.4-1.93-.8-2.97s1.93-1.4,2.97-.8Z"/>
    <path class="cls-6" d="m323.77,296.83c1.04.6,1.4,1.93.8,2.97s-1.93,1.4-2.97.8-1.4-1.93-.8-2.97c.6-1.04,1.93-1.4,2.97-.8Z"/>
    <path class="cls-6" d="m317.59,287.5c1.04.6,1.4,1.93.8,2.97s-1.93,1.4-2.97.8-1.4-1.93-.8-2.97,1.93-1.4,2.97-.8Z"/>
    <path class="cls-6" d="m310.55,277.27c1.04.6,1.4,1.93.8,2.97s-1.93,1.4-2.97.8c-1.04-.6-1.4-1.93-.8-2.97.6-1.04,1.93-1.4,2.97-.8Z"/>
    <polygon class="cls-6" points="223.76 461.5 233.05 463.42 223.74 467.13 223.37 473.24 220.63 466.37 210.31 466.87 217.57 463.97 214.65 454.87 218.9 458.18 224.53 454.5 223.76 461.5"/>
    <path class="cls-6" d="m231.83,450.61c-.1,1.2-1.15,2.08-2.35,1.98s-2.08-1.15-1.98-2.35,1.15-2.08,2.35-1.98c1.2.1,2.08,1.15,1.98,2.35Z"/>
    <path class="cls-6" d="m238.03,439.57c-.1,1.2-1.15,2.08-2.35,1.98s-2.08-1.15-1.98-2.35c.1-1.2,1.15-2.08,2.35-1.98,1.2.1,2.08,1.15,1.98,2.35Z"/>
    <path class="cls-6" d="m243.87,430.03c-.1,1.2-1.15,2.08-2.35,1.98-1.2-.1-2.08-1.15-1.98-2.35.1-1.2,1.15-2.08,2.35-1.98,1.2.1,2.08,1.15,1.98,2.35Z"/>
    <path class="cls-6" d="m250.17,419.32c-.1,1.2-1.15,2.08-2.35,1.98-1.2-.1-2.08-1.15-1.98-2.35s1.15-2.08,2.35-1.98c1.2.1,2.08,1.15,1.98,2.35Z"/>
    <polygon class="cls-6" points="300.22 269.67 289.95 266.74 297.88 263.66 299.63 251.03 304.46 263.44 313.89 264.65 304.31 268.38 303.71 276.28 300.22 269.67"/>
    <polygon class="cls-6" points="239.56 195.16 236.91 204.26 233.96 194.68 227.9 193.82 234.97 191.64 235.31 181.31 237.61 188.79 246.91 186.61 243.27 190.58 246.49 196.49 239.56 195.16"/>
    <polygon class="cls-6" points="293.04 173.25 296.76 164.53 298.55 174.39 304.46 175.97 297.19 177.29 295.62 187.5 294.23 179.81 284.73 180.87 288.82 177.35 286.33 171.1 293.04 173.25"/>
    <circle class="cls-6" cx="270.88" cy="408.35" r="2.17" transform="translate(-137.15 136.98) rotate(-22.82)"/>
    <polygon class="cls-6" points="253.87 406.42 244.81 405.32 253.45 401.02 253.32 395.12 256.49 401.5 266.37 400.19 259.62 403.55 263.16 412.06 258.81 409.22 253.7 413.21 253.87 406.42"/>
    <path class="cls-6" d="m304.61,104.37c1.14-.37,2.37.25,2.74,1.4.37,1.14-.25,2.37-1.4,2.74-1.14.37-2.37-.25-2.74-1.4-.37-1.14.25-2.37,1.4-2.74Z"/>
    <path class="cls-6" d="m304.94,92.76c1.14-.37,2.37.26,2.74,1.4.37,1.14-.25,2.37-1.4,2.74-1.14.37-2.37-.25-2.74-1.4-.37-1.14.26-2.37,1.4-2.74Z"/>
    <path class="cls-6" d="m305.28,81.03c1.14-.37,2.37.25,2.74,1.4.37,1.14-.25,2.37-1.4,2.74-1.14.37-2.37-.25-2.74-1.4-.37-1.14.26-2.37,1.4-2.74Z"/>
    <path class="cls-6" d="m305.59,70c1.14-.37,2.37.25,2.74,1.4.37,1.14-.25,2.37-1.4,2.74-1.14.37-2.37-.25-2.74-1.4-.37-1.14.26-2.37,1.4-2.74Z"/>
  </g>
</svg>