<?xml version="1.0" encoding="UTF-8"?>
<svg xmlns="http://www.w3.org/2000/svg" xmlns:xlink="http://www.w3.org/1999/xlink" viewBox="0 0 1200 800">
  <defs>
    <style>
      .cls-1 {
        fill: #fff;
      }

      .cls-2 {
        fill: #a1d9d4;
        opacity: .42;
      }

      .cls-3 {
        fill: url(#linear-gradient);
      }
    </style>
    <linearGradient id="linear-gradient" x1="602.81" y1="-184.53" x2="594.43" y2="1557.45" gradientUnits="userSpaceOnUse">
      <stop offset="0" stop-color="#000536"/>
      <stop offset=".49" stop-color="#30295e"/>
      <stop offset="1" stop-color="#215699"/>
    </linearGradient>
  </defs>
  <g id="bg">
    <rect class="cls-3" y="0" width="1200" height="800"/>
  </g>
  <g id="object">
    <g>
      <path class="cls-1" d="m346.6,203.76c2.75,0,2.76-4.28,0-4.28s-2.76,4.28,0,4.28h0Z"/>
      <path class="cls-1" d="m321.21,32.78c2.75,0,2.76-4.28,0-4.28s-2.76,4.28,0,4.28h0Z"/>
      <path class="cls-1" d="m96.06,64.41c2.06,0,2.07-3.21,0-3.21s-2.07,3.21,0,3.21h0Z"/>
      <path class="cls-1" d="m256.88,336.96c2.06,0,2.07-3.21,0-3.21s-2.07,3.21,0,3.21h0Z"/>
      <path class="cls-1" d="m612.38,639.97c2.06,0,2.07-3.21,0-3.21s-2.07,3.21,0,3.21h0Z"/>
      <path class="cls-1" d="m1080.97,293.15c2.75,0,2.76-4.28,0-4.28s-2.76,4.28,0,4.28h0Z"/>
      <path class="cls-1" d="m871.38,345.42c2.06,0,2.07-3.21,0-3.21s-2.07,3.21,0,3.21h0Z"/>
      <path class="cls-1" d="m839.22,86.95c2.75,0,2.76-4.28,0-4.28s-2.76,4.28,0,4.28h0Z"/>
      <path class="cls-1" d="m1145.62,161.43c2.75,0,2.76-4.28,0-4.28s-2.76,4.28,0,4.28h0Z"/>
      <path class="cls-1" d="m1157.47,421.06c1.38,0,1.38-2.14,0-2.14s-1.38,2.14,0,2.14h0Z"/>
      <path class="cls-1" d="m947.83,510.53c1.38,0,1.38-2.14,0-2.14s-1.38,2.14,0,2.14h0Z"/>
      <path class="cls-1" d="m608.03,408.8c1.38,0,1.38-2.14,0-2.14s-1.38,2.14,0,2.14h0Z"/>
      <path class="cls-1" d="m535.76,491.64c1.38,0,1.38-2.14,0-2.14s-1.38,2.14,0,2.14h0Z"/>
      <path class="cls-1" d="m899.67,670.96c1.38,0,1.38-2.14,0-2.14s-1.38,2.14,0,2.14h0Z"/>
      <path class="cls-1" d="m704.69,773.69c2.06,0,2.07-3.21,0-3.21s-2.07,3.21,0,3.21h0Z"/>
      <path class="cls-1" d="m185.78,757.94c1.38,0,1.38-2.14,0-2.14s-1.38,2.14,0,2.14h0Z"/>
      <path class="cls-1" d="m41.89,682.83c2.75,0,2.76-4.28,0-4.28s-2.76,4.28,0,4.28h0Z"/>
      <path class="cls-1" d="m886.04,624.79c2.75,0,2.76-4.28,0-4.28s-2.76,4.28,0,4.28h0Z"/>
      <path class="cls-1" d="m1126.01,730.65c2.75,0,2.76-4.28,0-4.28s-2.76,4.28,0,4.28h0Z"/>
      <path class="cls-1" d="m33.43,373.04c2.75,0,2.76-4.28,0-4.28s-2.76,4.28,0,4.28h0Z"/>
      <path class="cls-1" d="m662.82,509.46c2.75,0,2.76-4.28,0-4.28s-2.76,4.28,0,4.28h0Z"/>
      <path class="cls-1" d="m337.99,441.64c2.06,0,2.07-3.21,0-3.21s-2.07,3.21,0,3.21h0Z"/>
    </g>
    <g>
      <path class="cls-2" d="m858,217.51c2.72-4.31,4.06-9.22,3.85-14.32-.04-1-1.61-1.08-1.57-.07.19,4.83-1.02,9.44-3.6,13.53-.54.86.78,1.71,1.32.85h0Z"/>
      <path class="cls-2" d="m855.23,202.79c.94-4.19,1.68-8.41,2.22-12.67.13-1-1.44-1.07-1.57-.07-.52,4.12-1.23,8.2-2.14,12.25-.22.98,1.27,1.47,1.49.49h0Z"/>
      <path class="cls-2" d="m866.69,195.18c.64-5.61,1.18-11.36-.79-16.77-.34-.94-1.88-.6-1.53.35,1.92,5.3,1.37,10.87.75,16.35-.11,1.01,1.46,1.07,1.57.07h0Z"/>
      <path class="cls-2" d="m789.29,249.38c4.12-2.13,7.83-4.86,11.06-8.19.7-.72-.35-1.89-1.06-1.16-3.14,3.23-6.73,5.89-10.73,7.96-.9.46-.17,1.86.73,1.39h0Z"/>
      <path class="cls-2" d="m799.83,251.5c3.72-2.7,7.03-5.86,10.32-9.05,2.8-2.72,5.5-5.56,6.74-9.33.32-.96-1.18-1.45-1.49-.49-1.31,3.96-4.38,6.8-7.3,9.62-2.97,2.86-5.98,5.67-9.33,8.09-.82.59.25,1.75,1.06,1.16h0Z"/>
      <path class="cls-2" d="m795.95,102.73c4.4.4,7.67,3.39,10.73,6.3.73.69,1.89-.36,1.16-1.06-3.39-3.22-6.96-6.36-11.82-6.81-1.01-.09-1.08,1.48-.07,1.57h0Z"/>
      <path class="cls-2" d="m788.04,94.01c4.03.16,7.9.98,11.65,2.46.94.37,1.42-1.12.49-1.49-3.87-1.53-7.9-2.37-12.06-2.53-1.01-.04-1.08,1.53-.07,1.57h0Z"/>
      <path class="cls-2" d="m763.75,363.86c-.28-.66-.5-1.39-.33-2.09.78-.17,1.56.27,2.23.71.63.42,1.24.87,1.84,1.35.93.75,4.67,5.4,1.39,5.18-2.28-.16-4.35-3.34-5.12-5.15Z"/>
      <g>
        <path class="cls-2" d="m582.68,366.65c-.67,1.3-1.04,3.06,0,4.09.48.47,1.15.67,1.81.8,3.21.63,6.54-.11,9.62-1.2,1.79-.63,3.57-1.41,4.99-2.67,1.42-1.26,2.44-3.09,2.34-4.99-.08-1.49-.86-2.92-2.08-3.79-2.7-1.92-6.56-.06-9.23,1.14-3.08,1.38-5.88,3.58-7.45,6.61Z"/>
        <path class="cls-2" d="m572.73,390.87c-.28.64-.5,1.39-.23,2.04.27.65.97,1.02,1.63,1.27,2.49.94,5.32.97,7.83.08,2.23-.79,4.26-2.37,5.21-4.54.37-.83.57-1.77.34-2.64-.28-1.07-1.18-1.9-2.21-2.32-4.87-2.04-10.63,1.64-12.58,6.11Z"/>
        <path class="cls-2" d="m564.59,375.49c-.11.37-.15.82.11,1.11.21.22.54.27.85.28,2.65.12,5.32-1.13,6.92-3.25,1.78-2.35-2.51-2.29-3.83-1.92-1.68.48-3.56,2.1-4.05,3.77Z"/>
        <path class="cls-2" d="m546.41,390.23c-3.38,2.12-6.34,4.83-9.23,7.57-.73.69-1.51,1.53-1.43,2.53.07.85.78,1.54,1.58,1.83.8.29,1.68.24,2.53.15,6.44-.67,12.47-3.56,17.83-7.19,1.08-.73,2.15-1.51,2.91-2.57,2.01-2.8.11-6.51-3.33-6.26-3.8.28-7.68,1.95-10.86,3.94Z"/>
        <path class="cls-2" d="m545.46,377.72c.19.13.43.13.65.13,1.64,0,8.98-1.65,5.34-4.1-.94-.63-2.48-.72-3.48-.23-.77.37-3.79,3.34-2.51,4.2Z"/>
        <path class="cls-2" d="m594.69,379.55c1.46.4,3.08.12,4.32-.74,1.18-.81,3.78-4.9.81-4.39-1.12.19-6.22,4.84-5.13,5.13Z"/>
        <path class="cls-2" d="m610.74,370.58c-.2.35-.37.8-.14,1.13.12.18.34.27.55.34,1.5.47,3.14-.02,4.55-.72,1.82-.91,9.07-6.45,4.87-8.24-3.81-1.62-8.34,4.8-9.83,7.49Z"/>
        <path class="cls-2" d="m609.01,354.48c2.15.12,4.33-.45,6.15-1.6,3.76-2.38-.81-4.76-3.47-3.95-1.75.53-6.63,5.32-2.68,5.55Z"/>
        <path class="cls-2" d="m560.06,404.46c-.36.35-.73.72-.91,1.19-.36.95.21,2.06,1.07,2.58.87.52,1.95.56,2.95.4,1.95-.31,3.79-1.3,5.11-2.78.37-.41.7-.87.81-1.41.39-1.88-2.77-2.11-4.07-2.3-2.05-.31-3.56.94-4.96,2.31Z"/>
        <path class="cls-2" d="m527.9,383.9c-2.68,1.02-5.1,3.07-5.91,5.82-.27.91-.35,1.91.02,2.78.71,1.7,2.8,2.31,4.64,2.42,4.11.24,8.58-1.23,11.23-4.5,2.6-3.2,2.37-7.5-2.29-7.66-2.53-.09-5.31.25-7.68,1.15Z"/>
        <path class="cls-2" d="m489.25,391.04c-2.2,1.12-4.09,2.77-5.82,4.52-1.1,1.11-2.22,2.46-2.14,4.02.1,1.84,1.82,3.16,3.52,3.86,3.42,1.4,7.26,1.34,10.95,1.02,2.57-.22,5.12-.56,7.66-1.01,2.17-.38,4.38-.88,6.2-2.11,1.23-.83,2.23-1.97,3.11-3.17.88-1.19,1.68-2.52,1.81-3.99.19-2.11-1.07-4.16-2.78-5.4-1.4-1.02-4.02-2.32-5.81-2.06-1.44.21-2.61,1.27-4.15,1.51-4.23.68-8.65.81-12.55,2.8Z"/>
        <path class="cls-2" d="m522.58,401.64c-1.48-.15-3.01.28-4.2,1.17-.32.24-.64.57-.61.96.04.64.88.85,1.52.88,1.54.08,3.19.13,4.48-.71.34-.23.67-.54.75-.94.15-.7-.66-1.41-1.34-1.16l-.6-.2Z"/>
        <path class="cls-2" d="m522.08,415.59c-.81,1.12-1.45,2.79-.47,3.77.44.44,1.09.58,1.7.68,5.01.82,10.27.03,14.82-2.21,1.51-.75,3.07-1.82,3.43-3.47.91-4.2-5.4-6.29-8.6-5.78-4.22.67-8.4,3.61-10.88,7.01Z"/>
        <path class="cls-2" d="m500.55,417.75c-.51.39-1.02.84-1.27,1.44-.25.6-.16,1.38.35,1.77.23.18.53.26.81.32,2.56.54,5.22-.13,7.7-.98,2.83-.97,6.37-3.88,1.78-5.44-2.9-.98-7.13,1.19-9.37,2.9Z"/>
        <path class="cls-2" d="m485.81,412.58c-.58.27-1.22.87-.93,1.44.19.37.67.47,1.08.52,2.7.35,5.62.65,7.98-.69.47-.27.96-.74.82-1.26-.14-.52-.79-.67-1.32-.74-2.55-.31-5.24-.4-7.64.73Z"/>
        <path class="cls-2" d="m465.31,407.28c-1.15.69-2.3,1.68-2.45,3.02-.03.24-.01.5.16.68.14.14.35.19.55.22,3.04.55,6.17.63,9.23.25,2.58-.32,5.34-1.11,6.85-3.22.32-.45.59-.98.54-1.53-.42-4.74-12.94-.58-14.88.59Z"/>
        <path class="cls-2" d="m463.33,393.23c-.83.32-1.67,1.03-1.59,1.92.05.62.56,1.13,1.13,1.37.58.24,1.21.27,1.84.29,1.22.04,2.43.09,3.65.13.77.03,1.58.05,2.26-.31.68-.36,1.16-1.23.81-1.91-.9-1.78-6.5-2.11-8.09-1.49Z"/>
        <path class="cls-2" d="m455.2,402.39c-.67.41-1.39,1.1-1.16,1.85.18.61.9.88,1.53.99,1.36.23,2.78.14,4.1-.28.52-.17,1.05-.4,1.39-.82,1.01-1.24-.19-2.92-1.55-3.11-1.29-.18-3.27.74-4.31,1.38Z"/>
        <path class="cls-2" d="m457.94,417.72c-.48.16-.97.33-1.36.67s-.64.86-.51,1.35c.21.79,1.2,1.02,2.01,1.11,1.61.18,3.22.36,4.83.38,2.11.02,4.22-.23,6.26-.76,3.24-.84,3.79-3.67.23-4.26-3.88-.64-7.8.28-11.47,1.51Z"/>
        <path class="cls-2" d="m429.13,411.86c-1.27.37-2.53.88-3.48,1.8-.95.92-1.51,2.33-1.13,3.59.39,1.26,1.59,2.08,2.78,2.66,5.18,2.5,11.38,2.13,16.8.21,4.25-1.5,5.26-5.83.65-7.31-5.2-1.67-10.25-2.53-15.62-.95Z"/>
        <path class="cls-2" d="m440.78,401.5c-1.18.34-2.28,1.27-2.43,2.49-.02.17-.02.35.06.5.1.16.28.25.45.33,2.6,1.11,5.8.67,7.99-1.12.41-.33.82-.82.66-1.32-.11-.34-.44-.55-.77-.7-1.56-.7-4.36-.65-5.97-.18Z"/>
        <path class="cls-2" d="m427.57,394.58c-2.04.71-4.21,1.65-5.23,3.56-.14.26-.25.57-.11.83.11.2.34.31.55.38,2.53.88,5.27-.17,7.83-.95,2.37-.72,4.82-1.22,7.29-1.48,2.1-.22,4.24-.28,6.24-.97,1.28-.45,2.59-1.29,2.91-2.61.58-2.38-6.33-1.94-7.84-1.69-3.95.66-7.85,1.61-11.63,2.92Z"/>
        <path class="cls-2" d="m411.06,408.65c-.25.35-.46.77-.39,1.2.11.77,1,1.15,1.77,1.3,2.39.47,5.1.09,6.8-1.65,1.61-1.66-1.49-3.04-2.86-3.15-1.85-.15-4.22.8-5.31,2.31Z"/>
        <path class="cls-2" d="m398.46,398.48c-.99.78-1.95,1.63-2.66,2.67-.71,1.04-1.16,2.31-1.04,3.57.01.16.04.33.14.45.14.19.38.26.6.3,2.79.58,5.65-.44,8.2-1.71,1.17-.59,2.37-1.27,3.07-2.38.7-1.11.71-2.76-.3-3.59-2.03-1.66-6.18-.74-8,.68Z"/>
      </g>
      <path class="cls-2" d="m711.21,435.78c2.56,6.96,4.47,14.12,5.72,21.43.17,1,1.7.65,1.53-.35-1.25-7.31-3.16-14.47-5.72-21.43-.34-.94-1.88-.6-1.53.35h0Z"/>
      <path class="cls-2" d="m701.12,429.13c1.59,5.95,3.19,11.91,4.78,17.86.26.97,1.79.63,1.53-.35-1.59-5.95-3.19-11.91-4.78-17.86-.26-.97-1.79-.63-1.53.35h0Z"/>
      <path class="cls-2" d="m696.39,448.19c.37,3.42-.21,6.73-1.64,9.86-.42.92,1.08,1.4,1.49.49,1.55-3.4,2.08-6.98,1.67-10.69-.11-1-1.64-.65-1.53.35h0Z"/>
      <path class="cls-2" d="m626.04,329.94c2.08-4.47,4.17-8.95,6.25-13.42.43-.92-1.07-1.39-1.49-.49-2.08,4.47-4.17,8.95-6.25,13.42-.43.92,1.07,1.39,1.49.49h0Z"/>
      <path class="cls-2" d="m631.82,329.17c5.3-6.82,9.57-14.35,12.74-22.38.37-.94-1.13-1.42-1.49-.49-3.12,7.91-7.35,15.3-12.56,22.01-.62.8.7,1.65,1.32.85h0Z"/>
      <path class="cls-2" d="m308.69,403.16c4.78,7.03,10.72,13.1,17.66,18.01.83.59,1.68-.74.85-1.32-6.71-4.74-12.5-10.62-17.12-17.42-.56-.83-1.96-.11-1.39.73h0Z"/>
      <path class="cls-2" d="m322.85,408.87c6,6.49,12.93,12.02,20.59,16.43.88.5,1.73-.82.85-1.32-7.55-4.34-14.37-9.77-20.29-16.17-.69-.74-1.85.32-1.16,1.06h0Z"/>
      <path class="cls-2" d="m333.96,428.2c2.81,1.16,5.41,2.64,7.85,4.44.82.6,1.66-.72.85-1.32-2.55-1.88-5.29-3.41-8.22-4.61-.94-.39-1.41,1.11-.49,1.49h0Z"/>
      <path class="cls-2" d="m734.22,296.9c.22.93.53,1.85,1.05,2.65.54.84,1.28,1.52,2.04,2.17,1.79,1.54,3.69,2.95,5.69,4.22,1.3.83,2.74,1.62,4.28,1.52,1.77-.11,3.28-1.4,4.15-2.95.86-1.54,1.19-3.32,1.5-5.06.29-1.6.57-3.21.67-4.84.23-3.92-.8-8.09-3.58-10.87-1.44-1.44-3.27-2.44-5.15-3.22-1.35-.56-2.8-1.03-4.25-.9-2.06.18-3.81,1.76-4.55,3.62-1.11,2.77-1.97,5.73-2.19,8.71-.12,1.65-.03,3.32.35,4.93Z"/>
      <path class="cls-2" d="m680.16,509.63s.03.04,0,0h0Z"/>
      <path class="cls-2" d="m436.84,536.04c4.4-16.49,1.7-34.29-5.98-49.41-.6-1.18-1.22-2.37-1.93-3.49-.54-.85-1.94-.12-1.39.73,2.95,4.64,5.05,9.99,6.66,15.21,3.65,11.83,4.35,24.45,1.15,36.47-.26.97,1.23,1.46,1.49.49h0Z"/>
      <path class="cls-2" d="m357.84,507.08c2.13,7.62,5.03,14.99,8.67,22.01.46.9,1.86.17,1.39-.73-3.58-6.91-6.43-14.14-8.53-21.63-.27-.97-1.81-.63-1.53.35h0Z"/>
      <path class="cls-2" d="m358.61,473.08c.17,13.24,2.54,26.35,7.07,38.79.34.94,1.88.6,1.53-.35-4.48-12.31-6.87-25.27-7.04-38.37-.01-1.01-1.58-1.08-1.57-.07h0Z"/>
      <path class="cls-2" d="m355.75,486.85c-1.83-8.5-2.22-17.18-1.16-25.81.12-1-1.45-1.07-1.57-.07-1.07,8.76-.67,17.6,1.19,26.23.21.99,1.75.64,1.53-.35h0Z"/>
      <path class="cls-2" d="m368.76,517.66c.47,3.24,1.96,6.18,4.28,8.49.72.71,1.88-.35,1.16-1.06-2.15-2.14-3.47-4.78-3.91-7.78-.15-1-1.68-.65-1.53.35h0Z"/>
      <path class="cls-2" d="m704.7,312.54c-1.39-4.12-2.77-8.23-4.16-12.35-.32-.95-1.86-.61-1.53.35,1.39,4.12,2.77,8.23,4.16,12.35.32.95,1.86.61,1.53-.35h0Z"/>
      <path class="cls-2" d="m639.3,304.79c1.32-3.61,2.87-7.11,4.65-10.51.47-.89-.85-1.75-1.32-.85-1.85,3.52-3.46,7.15-4.83,10.88-.35.95,1.15,1.43,1.49.49h0Z"/>
      <path class="cls-2" d="m720.3,214.37c-3.95-2.06-5.32-7.74-5.58-11.84-.26-4.04.94-13.73,7.08-9.89,7.61,4.76,9.92,14.82,5.86,22.65-.46.89.85,1.75,1.32.85,2.52-4.86,3.06-10.55,1.09-15.7-.94-2.46-2.4-4.72-4.26-6.59-1.56-1.56-3.76-3.47-6.03-3.73-5.62-.66-6.7,7.37-6.66,11.32.06,4.87,1.6,11.78,6.34,14.25.89.46,1.75-.85.85-1.32h0Z"/>
      <path class="cls-2" d="m725.28,189.04c3.02,1.62,5.26,4.15,6.51,7.33.37.94,1.76.2,1.39-.73-1.34-3.4-3.83-6.19-7.05-7.92-.89-.48-1.74.84-.85,1.32h0Z"/>
      <path class="cls-2" d="m694.76,297.55c-.05-1.96-.1-3.92-.15-5.88-.03-1.01-1.6-1.08-1.57-.07.05,1.96.1,3.92.15,5.88.03,1.01,1.6,1.08,1.57.07h0Z"/>
      <path class="cls-2" d="m450.78,588.85c-.25,7.31,2.08,14.37,6.61,20.11.63.8,1.78-.27,1.16-1.06-4.27-5.41-6.44-12.1-6.2-18.98.04-1.01-1.53-1.08-1.57-.07h0Z"/>
      <path class="cls-2" d="m458.56,597.25c-1.21-2.73-1.99-5.57-2.37-8.53-.13-1-1.66-.65-1.53.35.4,3.1,1.24,6.06,2.51,8.91.41.92,1.8.19,1.39-.73h0Z"/>
      <path class="cls-2" d="m447.28,588.4c-.04-8.32,1.54-17.01,7.82-22.98.73-.7-.32-1.86-1.06-1.16-6.58,6.25-8.38,15.32-8.33,24.06,0,1.01,1.57,1.08,1.57.07h0Z"/>
      <path class="cls-2" d="m802.25,215.56c1.67-5.16,2.94-10.41,3.83-15.75.17-.99-1.4-1.06-1.57-.07-.88,5.2-2.14,10.32-3.76,15.33-.31.96,1.18,1.45,1.49.49h0Z"/>
      <path class="cls-2" d="m800.44,205.59c1.74-5.34,2.46-10.9,2.1-16.51-.06-1-1.63-1.08-1.57-.07.35,5.48-.32,10.87-2.03,16.09-.31.96,1.18,1.45,1.49.49h0Z"/>
      <path class="cls-2" d="m675.22,94.06c4.55-.99,9.15-1.47,13.8-1.43,1.01,0,1.08-1.56.07-1.57-4.79-.04-9.54.45-14.22,1.46-.99.21-.64,1.75.35,1.53h0Z"/>
      <path class="cls-2" d="m662.24,88.32c4.75-2.43,9.93-6.01,15.47-5.71,1.01.05,1.08-1.51.07-1.57-5.88-.32-11.25,3.31-16.27,5.88-.9.46-.17,1.85.73,1.39h0Z"/>
      <path class="cls-2" d="m756.29,278.03c3.66,4.02,3.96,9.53,3.77,14.71-.2,5.47-.41,11.01-1.94,16.29-.28.97,1.21,1.46,1.49.49,1.7-5.87,1.96-12.14,2.06-18.22.08-5.13-.65-10.4-4.22-14.33-.68-.75-1.84.31-1.16,1.06h0Z"/>
      <path class="cls-2" d="m764.19,276.77c3.02,2.49,4.12,6.38,4.3,10.15.05,1,1.62,1.08,1.57.07-.21-4.4-1.52-8.66-5.02-11.54-.78-.64-1.63.68-.85,1.32h0Z"/>
      <path class="cls-2" d="m755.63,271.31c.85.71,1.59,1.55,2.23,2.46.24.35.82.31,1.11.05.35-.32.29-.76.05-1.11-.72-1.03-1.57-1.91-2.53-2.72-.33-.27-.88-.09-1.09.23-.25.39-.09.81.23,1.09h0Z"/>
      <path class="cls-2" d="m762.91,268.74c2.11,1.55,3.85,3.48,5.17,5.75.51.87,1.9.15,1.39-.73-1.45-2.5-3.37-4.63-5.71-6.33-.82-.6-1.67.72-.85,1.32h0Z"/>
      <g>
        <path class="cls-2" d="m873.21,174.26c-.42-10.81-3.34-21.34-7.73-31.19-4.54-10.19-10.57-19.64-17.08-28.66-3.4-4.71-6.83-9.5-10.72-13.82-3.91-4.34-8.51-7.55-13.82-9.98-11.2-5.12-23.32-8.33-35.62-9.13-6.14-.4-12.3-.24-18.43.28-3.05.26-6.67.32-9.93,1.11-8-5.88-16.83-10.65-26.08-14.24-11.72-4.55-23.97-7.48-36.49-4.82-10.81,2.3-21.73,6.15-31.73,10.85-8.43,3.97-16.26,9.07-23.16,15.34-3.65,3.32-7.02,6.92-10.18,10.69-1.74,2.07-3.41,4.2-5.03,6.36-1.7,2.28-3.48,4.72-4.08,7.56-.91,4.36,1.89,7.88,6.12,8.66,4.86.9,8.97-1.81,12.31-5.05,2.14-2.09,4.21-4.17,6.37-6.14,1.43-1.17,2.83-2.32,4.11-3.37.66-.49,1.3-1,2.01-1.46,4.48-2.9,9.36-5.17,14.46-6.75,21.42-6.66,44.34-1.31,61.83,12.34,18.48,14.42,31.03,37.06,33.25,60.42.6,6.35.35,12.76-.76,19.04-1.21,6.37-3.34,12.54-6.47,18.22-1.36,2.47-2.85,4.81-4.76,6.89-.05.05-.1.1-.15.16-1.85-.45-3.71-.88-5.54-1.45-2.24-.7-5.12-1.68-6.31-3.89-1.6-2.97.24-7.11-.12-10.35-.71-6.43-4.88-13.01-8.8-18.01-3.54-4.53-8.64-7.04-14.36-5.31-14.18,4.27-13.94,20.59-12.55,32.62-1.61.47-3.98,2.18-4.6,2.53-2.96,1.64-6.04,3.25-8.81,5.21-5.35,3.78-10.26,8.8-14.8,13.5-4.93,5.12-9.26,10.79-13.24,16.67-8.51,12.59-15.96,25.96-23.66,39.05-3.95,6.72-7.95,13.42-11.81,20.2-3.15,5.54-5.99,11.26-9.4,16.64-3.61,5.7-7.9,10.83-13.47,14.71-5.43,3.78-11.54,6.44-17.79,8.54-11.85,3.99-24.28,6.12-35.87,10.89-13.75,5.65-26.83,12.64-40.93,17.51-14.05,4.85-28.38,7.54-43.25,7.93-30.05.79-62.08-4.17-87.92,14.65-18.25-21.23-48.61-8.24-72.41-10.28-8.13-.7-15.79-3.18-22.36-8.09-.63-.47-1.51.36-1.12,1.03,7.93,13.47,16.88,26.54,28.31,37.3,5.26,4.95,11.01,9.6,17.52,12.8,6.92,3.4,14.36,5.58,21.92,6.96-8.45,25.27-5.45,52.73,3.18,77.56,4.29,12.35,13.35,26.16,9.89,39.7-1.69,6.63-6.08,12.3-9.82,17.9-3.72,5.58-7.41,11.19-10.67,17.06-5.92,10.64-10.71,22.56-9.77,34.97.85,11.31,6.65,20.99,13.56,29.68,7.83,9.85,16.38,18.9,23.04,29.65,6.89,11.12,12.25,23.19,15.82,35.78,3.81,13.42,4.59,28.49,12.28,40.52,6,9.39,17.09,16.76,28.55,13.87.42-.11.67-.51.59-.94-6.97-36.67-20-72.13-38.49-104.55-4.7-8.24-9.77-16.26-15.13-24.09-2.71-3.96-5.95-8.46-5.43-13.52.49-4.69,4-8.23,7.5-11.03,6.54-5.24,13.47-9.78,19.65-15.49,6.16-5.69,11.81-11.92,16.89-18.59,11.33-14.85,19.72-31.85,24.62-49.87,4.39,4.42,9.35,8.09,14.78,11.15-9.14,13.05-13.09,29.52-9.34,45.15,3.41,14.24,12.25,26.33,21.77,37.15,10.52,11.96,22.18,22.89,31.6,35.78,5.38,7.36,10.1,15.2,14.11,23.39,3.83,7.8,6.59,16.04,10.27,23.91,3.55,7.59,8.28,14.85,15.64,19.21,6.59,3.9,14.57,5.26,21.62,1.81.4-.2.49-.68.33-1.06-10.86-25.62-23.74-50.36-38.55-73.91-7.25-11.52-14.95-22.76-23.09-33.68-2.05-2.75-4.13-5.48-6.23-8.2-1.85-2.38-3.66-4.73-4.51-7.68-1.26-4.34-.14-8.76,2.06-12.59,4.71-8.21,12.8-14.2,19.94-20.17,3.32-2.77,6.46-5.63,9.44-8.76,3.19-3.34,6.86-6.32,11.44-7.4,4.04-.95,8.29-.56,12.39-.3,6.35.4,12.71.6,19.07.61,14.61.03,29.06-1.08,43.41-3.86,13.08-2.53,27.17-4,38.79-11.06,11.96-7.26,22.91-18.67,36.84-22.11-.06.28-.13.57-.19.85-2.47,10.48-11.87,30.76-11.53,30.97-3.29,7.41-6.76,15.01-12.16,21.03-9.7,10.79-35.39,14.9-32.69,33.79.04.24.28.52.52.57,23.29,4.88,42.5-12.07,55.94-28.92,8.94-11.2,17.92-22.78,25.87-34.93.33.24,13.54-21.92,16.37-29.43.35-.91.67-1.83,1-2.75.57-.92,1.27-1.71,2.25-2.25,3.11-1.73,6.71-3.01,10.13-3.94,6.15-1.67,12.85-1.71,18.13,2.32,7.98,6.09,10.72,17.67,12.5,27.05,3.64,19.15,3.07,40.39-3.8,58.76-1.84,4.91-4.2,9.64-7.29,13.88-3.71,5.09-8.49,9.33-12.76,13.94-8.06,8.72-15.47,20.26-11.75,32.61.15.49.65.75,1.13.52,24.52-11.82,43.43-32.27,54.18-57.2,10.76-24.96,13.37-53.17,8.97-79.89-2.51-15.26-7.38-30.11-14.48-43.86-2.1-3.9-4.8-7.56-8.49-10.08-3.73-2.54-8.05-3.14-12.46-3.55-5.06-.47-10.15-.45-15.19-1.07-5.38-.66-10.58-2.26-15.94-3.08-.24-8.73-1.52-17.39-4.03-25.76-2.54-8.43-6.56-16.19-10.23-24.16-3.68-8-7.26-16.77-6.35-25.77.97-9.63,7.55-16.61,13.61-23.58.15.17.29.34.44.51.17.28,15.6,18.56,27.28,22.23,10.21,3.21,23.3,1.94,30.29-6.87,7.08-8.93,7.32-21.22,8-32.06.68-10.85,1.71-21.69,2.34-32.54.37-6.32.68-12.78.74-19.29,17.2-2.52,33.47-12.22,45.74-24.02,16.79-16.15,27.44-37.5,33.59-59.76,3.11-11.26,5.87-23.16,5.41-34.91Zm-248.66-58.52c.29-3.15,2.52-5.89,4.36-8.32,5.89-7.82,12.56-15.1,20.34-21.08,7.33-5.62,15.55-9.92,24.11-13.33,5.09-2.02,10.31-3.73,15.55-5.33,6.15-1.88,12.47-3.53,18.95-3.46,11.89.12,24.11,4.74,34.66,9.95,10.09,4.99,19.53,11.45,27.51,19.42,8.24,8.24,14.89,18.25,20.74,28.28,5.98,10.25,10.93,21.13,14.24,32.54,6.65,22.93,6.44,48.62-4.36,70.29-3.84,7.7-9.14,15.04-16.08,20.24-1.28.51-2.57.98-3.89,1.41.09.34.18.68.27,1.01-.01,0-.02.02-.03.02-.42.25-.85.5-1.28.73-3.98,2.15-8.55,3.74-13.12,3.72-3.74-.01-7.48-.85-10.98-2.16-4.88-1.83-10.31-5.22-12.64-10.04,1.46-1.11,5.42-4.91,12.84-17.25l3.63-7.47c-.12.31-.13.61-.1.91.86-1.33,1.74-2.63,2.4-3.84,1.35-2.48,3.02-8.41,6.09-8.68,1.74-.15,4.51,1.29,6.28,1.65,2.35.47,4.73.78,7.13.93,7.26.44,14.96-.81,20.67-5.32-1.63,1.13-3.7,1.4-5.68,1.55-6.86.51-13.79-.03-20.48-1.62-1.59-.38-3.74-.8-5.03-1.87-1.82-1.53-1.1-2.14-.36-4.26,1.13-3.24,1.06-10.66,5.25-11.25,2.68-.38,5.39.6,8.22,0,2.54-.54,4.97-1.58,7.21-2.87,3.74-2.16,7-5.04,10.24-7.89-6.89,3.99-15.02,5.81-22.95,5.14-3.5-.3-4.87-.64-5.14-4-.24-3.03-.86-6.02-1.11-9.04-.2-2.5.05-2.81,2.3-3.93,4.47-2.22,8.78-4.11,11.86-8.26.89-1.19,1.64-2.58,1.61-4.06-2.8,3.21-14.96,13.04-18.06,7.15-1.16-2.2-4.33-7.8-3.96-10.29.37-2.52,5.84-4.56,7.81-6.01,2.8-2.07,5.33-4.93,5.71-8.39-2.3,2.52-4.71,4.97-7.55,6.87-2.12,1.42-5.98,4-8.4,2.14-2.64-2.04-3.59-5.92-5.25-8.68-.8-1.33-2.87-3.24-2.74-4.92.14-1.89,2.78-3.44,4.07-4.57,2-1.74,3.96-3.87,4.21-6.5-1.97,2.26-4.12,4.36-6.41,6.29-2.49,2.08-3.42,3.17-5.4.57-.66-.87-1.29-1.75-1.99-2.6-1.65-1.98-3.48-3.79-5.37-5.54,1.69-1.29,2.78-3.36,3.66-5.36.97-2.19,1.91-4.59,1.39-6.93.05,1.86-1.04,3.56-2.22,5-1.57,1.9-3.44,3.51-5.46,4.92-10.77-9.16-23.48-16.01-36.32-21.79-39.73-17.87-77.45,31-77.45,31,.36.45.75.79,1.14,1.09-.08-.02-.15-.01-.23-.03-2.75-.73-4.67-2.92-4.4-5.87Zm186.38,63.84c-1.29-24.53-11.2-47.7-24.7-67.93-2.33-3.5-4.76-6.9-7.32-10.16,6.96,1.21,13.6,3.59,19.87,7.38,19.7,11.9,30.95,33.3,32.06,56.02,1.12,22.97-7.13,46.96-22.91,63.82-3.8,4.06-8.05,7.67-12.69,10.72-1.78,1.14-3.62,2.2-5.5,3.16,16.52-15.76,22.36-40.91,21.2-63.01Zm-136.24-82.25c6.45-1.45,12.57-1.62,18.06-1.09-6.03-.44-12.13-.09-18.06,1.09Zm-.74.17c.16-.04.32-.07.49-.11-.16.03-.32.08-.49.11Zm-346.24,332.5c-6.46-3.37-12.18-8.22-17.37-13.28-9.83-9.59-17.77-20.88-24.85-32.61,10.14,6.23,22.09,7.15,33.9,6.4,12.96-.83,26.43-3.75,39.34-1.06,7.46,1.56,13.82,5.42,18.69,11.26-.67.61-1.32,1.23-1.97,1.86-2.52,2.46-4.92,5.05-7.2,7.74-6.96,8.21-12.76,17.37-16.97,27.28-.05-.01-.09-.03-.14-.04-8.08-1.4-16.15-3.75-23.43-7.55Zm458.88-126.65c-.38,10.25-1.22,20.47-2.01,30.69-.78,10.06-.55,20.59-3.09,30.41-1.62,6.26-4.7,12.32-10.24,15.96-5.37,3.53-12.02,4.11-18.21,2.89-13.7-2.72-23.21-12.56-31.93-22.72-4.92-8.21-9.26-16.79-13.15-25.54-4.09-9.19-7.83-18.68-10.07-28.52-.22-.98-1.76-.64-1.53.35,2.22,9.76,5.91,19.19,9.95,28.32,3.67,8.3,7.73,16.45,12.32,24.29-5.47,6.31-11.59,12.59-13.7,20.92-2.04,8.07-.04,16.34,2.91,23.91,3.56,9.14,8.6,17.63,11.82,26.91,3.31,9.55,4.98,19.57,5.19,29.67,0,.45.3.76.75.82,4.91.68,9.63,2.11,14.51,2.89,4.35.69,8.76.82,13.15,1.07,4.69.27,10.04.34,14.26,2.61,4.29,2.3,7.31,6.28,9.58,10.49,12.35,23.9,17.83,51.19,15.99,78.02-1.8,26.21-10.78,52.24-27.68,72.59-9.71,11.69-21.83,21.08-35.44,27.79-4.41-17.03,11.68-29.5,21.64-40.79,7.74-8.77,11.92-20.11,14.16-31.46,2.41-12.2,2.74-24.82,1.37-37.17-1.24-11.19-3.54-24.46-10.93-33.39-4.14-5.01-10.05-7.49-16.53-7.08-3.62.23-7.14,1.2-10.53,2.45-1.83.68-4.49,1.42-6.55,2.51,1.05-3.17,2.01-6.37,2.88-9.6,1.49-5.56,2.93-11.25,3.5-16.99.66-6.72.02-14.05-4.17-19.61-4.73-6.28-12.83-8.37-20.36-8.07-3.3.13-6.67-.35-9.98-.48-5.77-.23-11.54-.27-17.3-.05-8.27.31-16.57,1.1-24.66,2.86-4.73,1.03-9.44,2.38-13.86,4.38-1.66.75-3.94,1.63-5.25,2.98-.05.06-.13.1-.19.15-.77.66.3,1.82,1.06,1.16,3.52-3.05,9.49-4.8,14.09-6.05,17.41-4.74,36.11-4.64,53.97-3.44,2.26.15,4.58-.09,7.15.21,4.08.47,8.15,1.84,11.36,4.47,4.86,3.98,6.67,10.24,6.79,16.32.1,5.18-.9,10.26-2.05,15.28-1.3,5.68-2.87,11.3-4.73,16.83-.15.44-.31.86-.46,1.3-.96,1.13-1.45,3.65-2.04,5.01-.84,1.92-1.72,3.83-2.64,5.72-1.92,3.92-4.02,7.76-6.23,11.53-4.29,7.3-9.03,14.33-13.96,21.22-9.35,13.05-18.8,26.91-30.49,38-5.67,5.38-12.1,9.97-19.38,12.89-3.69,1.48-7.58,2.52-11.52,2.96-1.92.22-3.86.28-5.79.19-2.75-.12-5.75-.17-5.34-3.71,1.12-9.67,10.84-14.84,18.49-18.9,7-3.72,12.98-7.92,17.5-14.56,4.64-6.81,7.86-14.64,11.21-22.13,1.6-3.58,3.14-7.2,4.55-10.85,1.75-4.37,3.24-8.85,4.39-13.41.03-.12.06-.24.09-.36.15-.59.29-1.19.43-1.78.13-.53.26-1.05.38-1.58.02-.09.02-.17.02-.25.83-4.04,1.38-8.12,1.58-12.22.03-.68.27-1.84.03-2.51-.72-1.97-4.84-2.35-6.56-2.51-7.07-.66-15.64.87-21.57,4.94-6.1,4.19-12.79,7.43-19.72,10.01-.95.35-.21,1.74.73,1.39,5.45-2.03,10.86-4.47,15.86-7.45,3.14-1.87,5.86-4.04,9.36-5.27,3.57-1.25,7.38-1.97,11.15-2.14,1.65-.07,3.31-.05,4.95.17,1.43.19,2.61.88,3.94,1.2.15.04.25.08.32.12,0,.01,0,.03,0,.04-.09.43-.01.95-.03,1.39-.15,4.11-.75,8.2-1.59,12.23-12.6,2.85-23.08,12.4-33.48,19.5-11.2,7.65-23.73,10.34-36.89,12.72-14.95,2.7-29.64,4.74-44.87,4.9-7.07.08-14.15-.04-21.21-.47-4.16-.25-8.39-.7-12.55-.17-8.92,1.12-13.8,8.23-20.11,13.76-7.23,6.34-15.25,12.03-21.21,19.68-5.16,6.62-7.62,14.77-2.89,22.35,3.38,5.41,7.84,10.32,11.61,15.47,4.44,6.07,8.75,12.23,12.92,18.49,17.78,26.68,33.02,55.01,45.58,84.51-7.26,3.19-15.39.98-21.64-3.51-6.47-4.65-10.48-11.81-13.66-18.96-3.18-7.16-5.77-14.56-9.21-21.61-3.55-7.31-7.68-14.33-12.31-21.01-8.47-12.19-18.9-22.64-28.94-33.5-9.41-10.2-18.73-21.09-23.88-34.15-6.96-17.64-3.86-37.09,7.16-52.38.24-.33.13-.89-.23-1.09-6-3.29-11.45-7.31-16.16-12.28-.39-.41-1.17-.3-1.33.29-4.48,17.14-12.13,33.33-22.5,47.7-5.2,7.21-11.07,13.93-17.52,20.05-6.36,6.04-13.44,10.89-20.33,16.24-5.76,4.46-10.52,10.47-8.07,18.12,1.31,4.08,4.06,7.56,6.43,11.06,2.66,3.93,5.24,7.91,7.73,11.95,10.06,16.29,18.71,33.45,25.86,51.21,8.08,20.07,14.17,40.91,18.26,62.15-11.93,2.53-22.85-6.48-27.98-16.63-5.7-11.27-6.71-24.21-10.08-36.24-3.24-11.56-7.95-22.71-13.97-33.1-5.89-10.16-13.22-19.06-20.8-27.98-7.54-8.87-15.1-18.45-17.24-30.21-2.4-13.19,2.47-26.21,8.75-37.61,3.15-5.72,6.72-11.2,10.34-16.64,3.2-4.81,6.72-9.53,9.07-14.84,5.06-11.45.44-22.98-4.04-33.77-11.52-27.73-17.24-59.01-7.4-88.11,10.4-23.38,28.31-38.99,28.25-39.21,23.76-16.85,53.21-13.54,80.85-13.7,13.79-.08,27.27-1.53,40.54-5.38,13.55-3.93,26.51-9.61,39.29-15.54,6.13-2.85,12.15-5.67,18.62-7.7,5.88-1.85,11.87-3.32,17.81-4.96,11.19-3.09,22.75-6.86,31.68-14.6,9.4-8.15,14.34-20.03,20.46-30.56,7.86-13.54,15.82-27.02,23.84-40.47,8.44-14.15,17.2-27.69,29.32-39,3.97-3.71,7.89-7.27,12.57-10.03,1.9-1.12,3.82-2.22,5.76-3.29.81-.45,1.63-.89,2.45-1.31.61-.31,1.54-.45,1.1-.81.59.49,1.26-.25,1.19-.83-.83-6.79-1.7-13.98.5-20.61,1.86-5.6,6.67-10.64,12.72-11.46,7.12-.97,11.15,5.25,14.35,10.54,1.71,2.83,3.39,5.74,4.34,8.93,1.01,3.42.35,6.15.14,9.56-.44,7.14,6.71,8.85,12.76,10.2-1.35,1.38-2.74,2.73-4.08,4.13-3.02,3.19-5.86,6.76-5.98,11.34-.08,3.51,1.34,6.79,3.6,9.42,4.9,5.72,12.98,8.83,20.33,9.52,5.95.56,11.78-1.21,16.95-4.16,6.05,17.13,6.21,36.36,5.54,54.21Zm84.8-119.85c-1.12,11.77-4.25,23.7-8.06,34.86-3.83,11.25-8.92,22.08-15.56,31.96-11.62,17.29-28.43,31.73-48.4,38.32-3.52,1.16-7.18,2.08-10.89,2.68.04-14.62-1.25-29.37-6.07-42.99,1-.62,1.97-1.3,2.91-1.99,3.71-1.5,7.27-3.35,10.65-5.51,17.57-11.53,29.23-30.68,34.05-50.91,4.95-20.78,2.78-43.93-9.23-62-9.84-14.81-25.79-25.96-43.51-28.43-4.07-4.95-8.5-9.56-13.57-13.67-.66-.54-1.35-1.05-2.03-1.57,5.7-1,11.64-1.3,17.41-1.39,5.92-.1,11.85.24,17.71,1.15,6.2.96,12.28,2.6,18.17,4.76,5.57,2.04,11.22,4.19,16.02,7.76,4.74,3.52,8.31,8.35,11.84,13.02,3.33,4.39,6.56,8.86,9.6,13.45,11.87,17.94,21.03,38.55,18.95,60.53Z"/>
        <path class="cls-2" d="m776.9,230.89c5.93.74,12.32-.25,16.98-3.99-5.17.4-10.46.79-15.48-.55-3.03-.81-5.85-2.22-8.65-3.62-2.48-1.24-4.95-2.48-7.42-3.72-1.36-.68-2.9-1.84-3.05-3.18-1.17,1.81-2.31,3.67-2.81,5.47-1.51,5.48,16.31,9.07,20.43,9.59Z"/>
      </g>
    </g>
    <g>
      <polygon class="cls-1" points="839.52 284.58 820.96 280.24 834.68 293.68 819.2 309.48 838.05 301.88 845.78 313.11 847.48 298.07 863.9 294.61 845.33 289.46 846.44 277.51 839.52 284.58"/>
      <polygon class="cls-1" points="701.32 329.21 683.03 311.29 690.26 334.67 672.27 345.56 693.86 344.31 696.79 369.58 703 353.26 719.35 362.35 715.08 346.76 733.53 341.22 714.57 337.3 720.98 320.78 701.32 329.21"/>
      <path class="cls-1" d="m459.77,248.18c-2.49-2.44-21.16-16.65-21.16-16.65l9.67,20.06-18.84,8.42,17.3,1.47-10.52,17.39,15.97-7.16.65,23.45,8.03-19.01,12.89,12.62-5.95-18.04,22.59-3.94-21.03-4.31,19.55-19.13-19.26,7.19-1.84-18.91-8.06,16.54Z"/>
      <polygon class="cls-1" points="319.64 581.23 299.05 579.8 311.94 592.42 300.94 603.64 318.6 600.58 331.12 616.91 332.58 598.79 353.48 590.76 332.86 586.86 328.54 566.33 319.64 581.23"/>
      <polygon class="cls-1" points="328.17 674.68 315.82 674.81 326.22 684.99 325.08 694.47 330.78 688.65 340.34 698.01 336.48 682.83 351.61 673.21 332.69 674.23 329.26 661.09 328.17 674.68"/>
      <path class="cls-1" d="m351.66,725.2c-2.29.71-12.05,3.55-12.05,3.55l12.2-.65.9,16.85,5.16-12.51,13.77,6.84-7.78-14.74,8.55-14.44-16.45,8.45-8.54-7.12,4.23,13.76Z"/>
      <path class="cls-1" d="m805.87,313.76c1.95,1.91,5.08,1.88,6.99-.07s1.88-5.08-.07-6.99c-1.95-1.91-5.08-1.88-6.99.07-1.91,1.95-1.88,5.08.07,6.99Z"/>
      <path class="cls-1" d="m781.98,320.03c1.95,1.91,5.08,1.88,6.99-.07s1.88-5.08-.07-6.99-5.08-1.88-6.99.07c-1.91,1.95-1.88,5.08.07,6.99Z"/>
      <path class="cls-1" d="m759.51,328.43c1.95,1.91,5.08,1.88,6.99-.07s1.88-5.08-.07-6.99-5.08-1.88-6.99.07c-1.91,1.95-1.88,5.08.07,6.99Z"/>
      <path class="cls-1" d="m736.14,335.63c1.95,1.91,5.08,1.88,6.99-.07,1.91-1.95,1.88-5.08-.07-6.99-1.95-1.91-5.08-1.88-6.99.07-1.91,1.95-1.88,5.08.07,6.99Z"/>
      <path class="cls-1" d="m660.26,336.22c1.95,1.91,5.08,1.88,6.99-.07,1.91-1.95,1.88-5.08-.07-6.99-1.95-1.91-5.08-1.88-6.99.07s-1.88,5.08.07,6.99Z"/>
      <path class="cls-1" d="m633.18,326.38c1.95,1.91,5.08,1.88,6.99-.07,1.91-1.95,1.88-5.08-.07-6.99-1.95-1.91-5.08-1.88-6.99.07-1.91,1.95-1.88,5.08.07,6.99Z"/>
      <path class="cls-1" d="m608.93,318.58c1.95,1.91,5.08,1.88,6.99-.07,1.91-1.95,1.88-5.08-.07-6.99s-5.08-1.88-6.99.07c-1.91,1.95-1.88,5.08.07,6.99Z"/>
      <path class="cls-1" d="m582.18,309.46c1.95,1.91,5.08,1.88,6.99-.07,1.91-1.95,1.88-5.08-.07-6.99-1.95-1.91-5.08-1.88-6.99.07-1.91,1.95-1.88,5.08.07,6.99Z"/>
      <path class="cls-1" d="m555.85,300.36c1.95,1.91,5.08,1.88,6.99-.07,1.91-1.95,1.88-5.08-.07-6.99-1.95-1.91-5.08-1.88-6.99.07-1.91,1.95-1.88,5.08.07,6.99Z"/>
      <path class="cls-1" d="m527.85,291.84c1.95,1.91,5.08,1.88,6.99-.07,1.91-1.95,1.88-5.08-.07-6.99s-5.08-1.88-6.99.07-1.88,5.08.07,6.99Z"/>
      <path class="cls-1" d="m502.09,282.93c1.95,1.91,5.08,1.88,6.99-.07,1.91-1.95,1.88-5.08-.07-6.99-1.95-1.91-5.08-1.88-6.99.07s-1.88,5.08.07,6.99Z"/>
      <path class="cls-1" d="m439.03,309.06c1.95,1.91,5.08,1.88,6.99-.07s1.88-5.08-.07-6.99c-1.95-1.91-5.08-1.88-6.99.07-1.91,1.95-1.88,5.08.07,6.99Z"/>
      <path class="cls-1" d="m428.58,331.09c1.95,1.91,5.08,1.88,6.99-.07,1.91-1.95,1.88-5.08-.07-6.99s-5.08-1.88-6.99.07c-1.91,1.95-1.88,5.08.07,6.99Z"/>
      <path class="cls-1" d="m419.7,354.29c1.95,1.91,5.08,1.88,6.99-.07,1.91-1.95,1.88-5.08-.07-6.99-1.95-1.91-5.08-1.88-6.99.07-1.91,1.95-1.88,5.08.07,6.99Z"/>
      <path class="cls-1" d="m410.69,376.24c1.95,1.91,5.08,1.88,6.99-.07,1.91-1.95,1.88-5.08-.07-6.99-1.95-1.91-5.08-1.88-6.99.07-1.91,1.95-1.88,5.08.07,6.99Z"/>
      <path class="cls-1" d="m401.36,397.88c1.95,1.91,5.08,1.88,6.99-.07,1.91-1.95,1.88-5.08-.07-6.99-1.95-1.91-5.08-1.88-6.99.07s-1.88,5.08.07,6.99Z"/>
      <path class="cls-1" d="m390.9,419.91c1.95,1.91,5.08,1.88,6.99-.07,1.91-1.95,1.88-5.08-.07-6.99-1.95-1.91-5.08-1.88-6.99.07-1.91,1.95-1.88,5.08.07,6.99Z"/>
      <path class="cls-1" d="m379.85,443.94c1.95,1.91,5.08,1.88,6.99-.07,1.91-1.95,1.88-5.08-.07-6.99s-5.08-1.88-6.99.07c-1.91,1.95-1.88,5.08.07,6.99Z"/>
      <path class="cls-1" d="m369.55,468.6c1.95,1.91,5.08,1.88,6.99-.07,1.91-1.95,1.88-5.08-.07-6.99-1.95-1.91-5.08-1.88-6.99.07-1.91,1.95-1.88,5.08.07,6.99Z"/>
      <path class="cls-1" d="m360.42,492.05c1.95,1.91,5.08,1.88,6.99-.07,1.91-1.95,1.88-5.08-.07-6.99-1.95-1.91-5.08-1.88-6.99.07-1.91,1.95-1.88,5.08.07,6.99Z"/>
      <path class="cls-1" d="m350.51,514.91c1.95,1.91,5.08,1.88,6.99-.07,1.91-1.95,1.88-5.08-.07-6.99-1.95-1.91-5.08-1.88-6.99.07-1.91,1.95-1.88,5.08.07,6.99Z"/>
      <path class="cls-1" d="m340.38,537.56c1.95,1.91,5.08,1.88,6.99-.07,1.91-1.95,1.88-5.08-.07-6.99-1.95-1.91-5.08-1.88-6.99.07-1.91,1.95-1.88,5.08.07,6.99Z"/>
      <path class="cls-1" d="m322.65,633.18c1.95,1.91,5.08,1.88,6.99-.07,1.91-1.95,1.88-5.08-.07-6.99s-5.08-1.88-6.99.07c-1.91,1.95-1.88,5.08.07,6.99Z"/>
      <path class="cls-1" d="m324.21,650.07c1.95,1.91,5.08,1.88,6.99-.07s1.88-5.08-.07-6.99c-1.95-1.91-5.08-1.88-6.99.07-1.91,1.95-1.88,5.08.07,6.99Z"/>
      <path class="cls-1" d="m335.11,713.23c2.73-.15,4.82-2.47,4.68-5.2-.15-2.73-2.47-4.82-5.2-4.68-2.73.15-4.82,2.47-4.68,5.2s2.47,4.82,5.2,4.68Z"/>
      <path class="cls-1" d="m332.8,559.43c1.95,1.91,5.08,1.88,6.99-.07s1.88-5.08-.07-6.99c-1.95-1.91-5.08-1.88-6.99.07-1.91,1.95-1.88,5.08.07,6.99Z"/>
    </g>
  </g>
</svg>