<?xml version="1.0" encoding="UTF-8"?>
<svg xmlns="http://www.w3.org/2000/svg" xmlns:xlink="http://www.w3.org/1999/xlink" viewBox="0 0 3538.37 1593.2">
  <defs>
    <style>
      .cls-1 {
        fill: url(#linear-gradient-2);
      }

      .cls-2 {
        fill: #fff;
      }

      .cls-3 {
        fill: url(#linear-gradient-3);
      }

      .cls-4 {
        fill: url(#linear-gradient);
      }
    </style>
    <linearGradient id="linear-gradient" x1="-553.65" y1="-367.5" x2="-570.35" y2="3101.66" gradientUnits="userSpaceOnUse">
      <stop offset="0" stop-color="#000536"/>
      <stop offset=".49" stop-color="#30295e"/>
      <stop offset="1" stop-color="#215699"/>
    </linearGradient>
    <linearGradient id="linear-gradient-2" x1="1835.01" x2="1818.3" xlink:href="#linear-gradient"/>
    <linearGradient id="linear-gradient-3" x1="4103.23" x2="4086.53" y2="3101.66" xlink:href="#linear-gradient"/>
  </defs>
  <g id="bg">
    <rect class="cls-4" x="-1754.16" width="2389.8" height="1593.2"/>
    <rect class="cls-1" x="634.5" width="2389.8" height="1593.2"/>
    <rect class="cls-3" x="2902.73" width="2389.8" height="1593.2"/>
  </g>
  <g id="object">
    <g>
      <path class="cls-2" d="m398.6,583.82c5.48,0,5.49-8.51,0-8.51s-5.49,8.51,0,8.51h0Z"/>
      <path class="cls-2" d="m527.35,321.5c5.48,0,5.49-8.51,0-8.51s-5.49,8.51,0,8.51h0Z"/>
      <path class="cls-2" d="m550.95,838.55c2.74,0,2.74-4.26,0-4.26s-2.74,4.26,0,4.26h0Z"/>
      <path class="cls-2" d="m133.46,1016.72c2.74,0,2.74-4.26,0-4.26s-2.74,4.26,0,4.26h0Z"/>
      <path class="cls-2" d="m37.55,1336.22c2.74,0,2.74-4.26,0-4.26s-2.74,4.26,0,4.26h0Z"/>
      <path class="cls-2" d="m10.4,1244.26c5.48,0,5.49-8.51,0-8.51s-5.49,8.51,0,8.51h0Z"/>
      <path class="cls-2" d="m488.3,1455.1c5.48,0,5.49-8.51,0-8.51s-5.49,8.51,0,8.51h0Z"/>
    </g>
    <g>
      <path class="cls-2" d="m1324.76,405.78c5.48,0,5.49-8.51,0-8.51s-5.49,8.51,0,8.51h0Z"/>
      <path class="cls-2" d="m1274.19,65.28c5.48,0,5.49-8.51,0-8.51s-5.49,8.51,0,8.51h0Z"/>
      <path class="cls-2" d="m825.81,128.27c4.11,0,4.12-6.39,0-6.39s-4.12,6.39,0,6.39h0Z"/>
      <path class="cls-2" d="m1146.08,671.05c4.11,0,4.12-6.39,0-6.39s-4.12,6.39,0,6.39h0Z"/>
      <path class="cls-2" d="m1854.05,1274.51c4.11,0,4.12-6.39,0-6.39s-4.12,6.39,0,6.39h0Z"/>
      <path class="cls-2" d="m2787.25,583.82c5.48,0,5.49-8.51,0-8.51s-5.49,8.51,0,8.51h0Z"/>
      <path class="cls-2" d="m2369.86,687.9c4.11,0,4.12-6.39,0-6.39s-4.12,6.39,0,6.39h0Z"/>
      <path class="cls-2" d="m2305.8,173.16c5.48,0,5.49-8.51,0-8.51s-5.49,8.51,0,8.51h0Z"/>
      <path class="cls-2" d="m2916.01,321.5c5.48,0,5.49-8.51,0-8.51s-5.49,8.51,0,8.51h0Z"/>
      <path class="cls-2" d="m2939.61,838.55c2.74,0,2.74-4.26,0-4.26s-2.74,4.26,0,4.26h0Z"/>
      <path class="cls-2" d="m2522.11,1016.72c2.74,0,2.74-4.26,0-4.26s-2.74,4.26,0,4.26h0Z"/>
      <path class="cls-2" d="m1845.4,814.12c2.74,0,2.74-4.26,0-4.26s-2.74,4.26,0,4.26h0Z"/>
      <path class="cls-2" d="m1701.47,979.11c2.74,0,2.74-4.26,0-4.26s-2.74,4.26,0,4.26h0Z"/>
      <path class="cls-2" d="m2426.2,1336.22c2.74,0,2.74-4.26,0-4.26s-2.74,4.26,0,4.26h0Z"/>
      <path class="cls-2" d="m2037.9,1540.82c4.11,0,4.12-6.39,0-6.39s-4.12,6.39,0,6.39h0Z"/>
      <path class="cls-2" d="m1004.49,1509.43c2.74,0,2.74-4.26,0-4.26s-2.74,4.26,0,4.26h0Z"/>
      <path class="cls-2" d="m717.93,1359.85c5.48,0,5.49-8.51,0-8.51s-5.49,8.51,0,8.51h0Z"/>
      <path class="cls-2" d="m2399.05,1244.26c5.48,0,5.49-8.51,0-8.51s-5.49,8.51,0,8.51h0Z"/>
      <path class="cls-2" d="m2876.95,1455.1c5.48,0,5.49-8.51,0-8.51s-5.49,8.51,0,8.51h0Z"/>
      <path class="cls-2" d="m701.07,742.91c5.48,0,5.49-8.51,0-8.51s-5.49,8.51,0,8.51h0Z"/>
      <path class="cls-2" d="m1954.51,1014.6c5.48,0,5.49-8.51,0-8.51s-5.49,8.51,0,8.51h0Z"/>
      <path class="cls-2" d="m1307.6,879.52c4.11,0,4.12-6.39,0-6.39s-4.12,6.39,0,6.39h0Z"/>
    </g>
    <g>
      <path class="cls-2" d="m3542.42,65.28c5.48,0,5.49-8.51,0-8.51s-5.49,8.51,0,8.51h0Z"/>
      <path class="cls-2" d="m3094.04,128.27c4.11,0,4.12-6.39,0-6.39s-4.12,6.39,0,6.39h0Z"/>
      <path class="cls-2" d="m3414.31,671.05c4.11,0,4.12-6.39,0-6.39s-4.12,6.39,0,6.39h0Z"/>
      <path class="cls-2" d="m3272.72,1509.43c2.74,0,2.74-4.26,0-4.26s-2.74,4.26,0,4.26h0Z"/>
      <path class="cls-2" d="m2986.16,1359.85c5.48,0,5.49-8.51,0-8.51s-5.49,8.51,0,8.51h0Z"/>
      <path class="cls-2" d="m2969.3,742.91c5.48,0,5.49-8.51,0-8.51s-5.49,8.51,0,8.51h0Z"/>
    </g>
  </g>
</svg>