<?xml version="1.0" encoding="UTF-8"?>
<svg xmlns="http://www.w3.org/2000/svg" xmlns:xlink="http://www.w3.org/1999/xlink" viewBox="0 0 1200 800">
  <defs>
    <style>
      .cls-1 {
        fill: #fff;
      }

      .cls-2 {
        fill: #a1d9d4;
        opacity: .42;
      }

      .cls-3 {
        fill: url(#linear-gradient);
      }
    </style>
    <linearGradient id="linear-gradient" x1="602.81" y1="-184.53" x2="594.43" y2="1557.45" gradientUnits="userSpaceOnUse">
      <stop offset="0" stop-color="#000536"/>
      <stop offset=".49" stop-color="#30295e"/>
      <stop offset="1" stop-color="#215699"/>
    </linearGradient>
  </defs>
  <g id="bg">
    <rect class="cls-3" y="0" width="1200" height="800"/>
  </g>
  <g id="object">
    <g>
      <path class="cls-1" d="m346.6,203.76c2.75,0,2.76-4.28,0-4.28s-2.76,4.28,0,4.28h0Z"/>
      <path class="cls-1" d="m321.21,32.78c2.75,0,2.76-4.28,0-4.28s-2.76,4.28,0,4.28h0Z"/>
      <path class="cls-1" d="m96.06,64.41c2.06,0,2.07-3.21,0-3.21s-2.07,3.21,0,3.21h0Z"/>
      <path class="cls-1" d="m256.88,336.96c2.06,0,2.07-3.21,0-3.21s-2.07,3.21,0,3.21h0Z"/>
      <path class="cls-1" d="m612.38,639.97c2.06,0,2.07-3.21,0-3.21s-2.07,3.21,0,3.21h0Z"/>
      <path class="cls-1" d="m1080.97,293.15c2.75,0,2.76-4.28,0-4.28s-2.76,4.28,0,4.28h0Z"/>
      <path class="cls-1" d="m871.38,345.42c2.06,0,2.07-3.21,0-3.21s-2.07,3.21,0,3.21h0Z"/>
      <path class="cls-1" d="m839.22,86.95c2.75,0,2.76-4.28,0-4.28s-2.76,4.28,0,4.28h0Z"/>
      <path class="cls-1" d="m1145.62,161.43c2.75,0,2.76-4.28,0-4.28s-2.76,4.28,0,4.28h0Z"/>
      <path class="cls-1" d="m1157.47,421.06c1.38,0,1.38-2.14,0-2.14s-1.38,2.14,0,2.14h0Z"/>
      <path class="cls-1" d="m947.83,510.53c1.38,0,1.38-2.14,0-2.14s-1.38,2.14,0,2.14h0Z"/>
      <path class="cls-1" d="m608.03,408.8c1.38,0,1.38-2.14,0-2.14s-1.38,2.14,0,2.14h0Z"/>
      <path class="cls-1" d="m535.76,491.64c1.38,0,1.38-2.14,0-2.14s-1.38,2.14,0,2.14h0Z"/>
      <path class="cls-1" d="m899.67,670.96c1.38,0,1.38-2.14,0-2.14s-1.38,2.14,0,2.14h0Z"/>
      <path class="cls-1" d="m704.69,773.69c2.06,0,2.07-3.21,0-3.21s-2.07,3.21,0,3.21h0Z"/>
      <path class="cls-1" d="m185.78,757.94c1.38,0,1.38-2.14,0-2.14s-1.38,2.14,0,2.14h0Z"/>
      <path class="cls-1" d="m41.89,682.83c2.75,0,2.76-4.28,0-4.28s-2.76,4.28,0,4.28h0Z"/>
      <path class="cls-1" d="m886.04,624.79c2.75,0,2.76-4.28,0-4.28s-2.76,4.28,0,4.28h0Z"/>
      <path class="cls-1" d="m1126.01,730.65c2.75,0,2.76-4.28,0-4.28s-2.76,4.28,0,4.28h0Z"/>
      <path class="cls-1" d="m33.43,373.04c2.75,0,2.76-4.28,0-4.28s-2.76,4.28,0,4.28h0Z"/>
      <path class="cls-1" d="m662.82,509.46c2.75,0,2.76-4.28,0-4.28s-2.76,4.28,0,4.28h0Z"/>
      <path class="cls-1" d="m337.99,441.64c2.06,0,2.07-3.21,0-3.21s-2.07,3.21,0,3.21h0Z"/>
    </g>
    <g>
      <path class="cls-2" d="m897.2,227.74c-3.44-6.88-9.97-11.16-17.11-13.49-9.07-2.96-18.79-3.5-28.05-5.7-9.57-2.28-18.92-5.5-27.86-9.61-13.14-6.04-40.11-18.8-33.04-37.56,3.29-8.74,12.51-14.73,19.88-19.74,7.83-5.34,16.15-9.97,24.8-13.84,4.09-1.83,8.25-3.46,12.47-4.92-.06-.51-.04-1.03.09-1.52-16.61,5.74-32.3,14.13-46.18,24.95-7.02,5.48-14.46,12.9-13.47,22.59.9,8.88,8.2,15.62,15.14,20.4,19.19,13.21,41.43,19.88,64.14,23.69,10.9,1.83,23.03,4.97,28.16,15.89,6.02,12.82-6.5,21.52-15.82,27.78-4.82,3.24-9.86,6.16-15.06,8.75-2.94,1.46-5.94,2.91-9.02,4.05-1.24.46-2.59.98-3.9,1.22-2.14.38-3.49-.48-5.39-1.31-9.83-4.27-20.08-7.92-30.45-10.61-9.99-2.59-20.55-4.29-30.86-2.93-5.43.72-10.69,2.47-16.05,3.57-6.02,1.24-12.1,2.16-18.22,2.67-12.24,1.01-24.71.38-36.6-2.86-4.94-1.34-9.63-3.37-14.5-4.91-7.4-2.34-15-4.03-22.63-5.4-21.44-3.84-43.39-5.07-65.13-3.98-26.32,1.32-52.6,6.16-77.3,15.47-27.2,10.25-52.2,26.02-72.49,46.91-17.26,17.77-31.14,39.07-41.24,61.91.49.19.98.38,1.48.55,1.34-2.99,2.73-5.95,4.16-8.88,12.06-24.58,28.65-46.87,49.52-64.67,18.36-15.66,39.7-27.58,62.38-35.7,20.85-7.47,42.76-11.82,64.82-13.59,18.94-1.52,38.06-1.19,56.94.96,13.61,1.55,27.35,3.92,40.39,8.21,4.08,1.34,8.02,3.02,12.15,4.2,9.05,2.59,18.51,3.68,27.91,3.65,9.47-.03,18.93-1.17,28.2-3.05,9.11-1.85,17.58-4.49,27-4.02,9.52.48,18.89,2.78,27.95,5.64,4.11,1.3,8.18,2.73,12.21,4.25,2.05.77,4.1,1.55,6.13,2.37,1.36.55,2.7,1.11,4.04,1.7,1.08.47,2.49,1.47,3.64,1.65,1.41.22,3.27-.68,4.6-1.11,2.02-.64,3.96-1.48,5.89-2.34,4.45-1.98,8.8-4.21,13.01-6.66,7.36-4.29,15.65-9.28,21.17-15.9,4.58-5.49,5.3-12.33,2.11-18.71Z"/>
      <path class="cls-2" d="m451.84,376.63c5.31-1.01,10.69-1.62,16.08-2.06,7.33-.6,14.67-.88,22.01-1.28.27-.49.58-.96.95-1.41-6.8.36-13.59.58-20.25,1.06-5.05.36-10.1.85-15.1,1.62-5.41.83-10.7,2.17-16.01,3.48.32.37.56.81.7,1.28,3.85-.97,7.7-1.95,11.6-2.69Z"/>
      <path class="cls-2" d="m912.21,378.03c-.54-12.74-1.58-25.68-3.87-38.23-2.29-12.58-6.28-25.08-14.13-35.34-.02-.02-.04-.04-.06-.07-.02-.03-.03-.05-.05-.08-7.36-9.34-16.27-17.19-26.16-23.74,7.43-4.51,14.5-9.54,21.75-14.33,6.32-4.17,13.13-7.75,17.83-13.9,10.45-13.64,1.64-31.23-11.48-39.25-8.26-5.05-17.83-7.32-27.17-9.42-10.36-2.33-20.59-4.99-30.62-8.5-10.02-3.51-20.44-7.39-29.58-12.88-3.82-2.29-7.63-5.24-9.49-9.41-2.12-4.74-.85-9.72,2.21-13.71,3.13-4.08,7.47-7.06,11.78-9.77,5.43-3.41,10.89-6.78,16.33-10.17,6.82-4.25,13.63-8.49,20.45-12.74-.48-.23-.86-.56-1.16-.95-5.44,3.39-10.88,6.78-16.32,10.17-8.72,5.43-18.09,10.39-26.19,16.72-5.44,4.25-10.66,10.28-9.43,17.7,1.26,7.64,8.71,12.36,15.08,15.55,18.83,9.44,38.79,15.26,59.23,19.97,10.02,2.31,20.66,5.11,28.67,11.91,6.89,5.86,12.23,15.05,10.8,24.35-1.68,10.89-11.74,16.88-20.28,22.22-8.14,5.09-15.82,10.86-24.07,15.8-.47.28-.45.94,0,1.23,10.16,6.6,19.27,14.58,26.78,24.11,13.92,18.27,15.65,42.69,17.21,64.78.44,6.22.81,12.37.29,18.61-.6,7.19-2.01,14.33-3.37,21.41-2.66,13.88-5.85,27.65-9.41,41.32-3.56,13.67-7.5,27.23-11.65,40.73-2.03,6.61-4.16,13.18-6.41,19.71-2.21,6.44-3.84,13.03-6.05,19.46-8.49,24.65-21.8,46.76-33.5,69.91-5.88,11.64-11.61,23.73-19.8,33.98-4.07,5.1-8.92,8.63-15.16,10.64-5.86,1.89-12.03,2.55-18.15,3.04,8.26-12.8,17.41-25.41,23.82-39.25,5.95-12.84,10.09-26.41,15.17-39.59,5.71-14.82,11.87-29.46,17.42-44.35,3.86-10.35,8.35-21.92,5.31-33.1-1-3.69-2.93-7.28-6.05-9.58-10.5-7.74-21.15-15.05-30.97-23.69-9.67-8.51-18.86-17.74-25.95-28.54-.85-1.3-1.41-1.29-3.25-1.67-4.57-.95-9.39-1.16-14.09-.6-.02-.03-.05-.07-.07-.1-.07.05-.16.09-.23.14-2.31.29-4.59.77-6.79,1.45-4.79,1.47-7.93,4.68-10.93,8.55-4.64,5.98-9.25,12.04-14.66,17.35-5.35,5.26-11.32,9.94-17.23,14.54-6.14,4.78-12.53,8.59-19.71,11.53-.14-.18-.29-.35-.42-.53-.54.07-1.09.11-1.65.11.25.32.51.63.76.95-6.61,2.61-13.05,5.32-19.43,8.48-7.47,3.71-15.05,6.64-22.99,9.17-14.03,4.46-27.59,10.16-41.06,16.08-5.25,2.31-10.53,5.11-13.98,9.84-3.89,5.34-6.53,11.73-9.96,17.39-17.19,28.35-34.6,56.57-51.99,84.79-10.06,16.33-19.89,32.85-30.2,49.03-4.96,7.77-10,15.6-15.82,22.76-2.2,2.71-4.56,5.62-7.78,7.15-5.04,2.39-11.16,1.8-16.44.63-2.29-.51-4.58-1.16-6.78-2.01,12.87-22.49,25.17-45.33,36.97-68.39,8.99-17.55,17.72-35.27,25.41-53.44,3.11-7.36,6.09-14.8,8.49-22.43,1.59-5.05,3.19-10.4,3.3-15.73.04-1.76-.07-3.73-.95-5.31-1.38-2.48-4.51-2.75-6.88-3.82-8.8-3.94-17.43-11.94-19.87-21.64,0-.04-.03-.07-.05-.11-.11-.8-.23-1.6-.35-2.39-.62-4.24-1.2-8.54-.85-12.83.33-4.03,1.65-7.87,3.5-11.45,3.4-6.6,8.26-12.29,12.02-18.67,4-6.79,6.31-14.35,7.24-22.15.96-8.04.5-16.18-.62-24.18-.58-4.12-1.39-8.2-2.24-12.27-.87-4.17-1.33-8.7,2.76-11.29,3.43-2.17,7.34-3.69,10.89-5.69,3.88-2.18,7.66-4.55,11.31-7.08,5.96-4.13,12.16-9.03,15.02-15.92.54-1.3.9-2.62,1.09-3.96-.44.24-.88.49-1.31.75-.09.05-.17.08-.26.12-.08.36-.18.72-.28,1.07-1.2,3.9-3.82,7.24-6.69,10.07-6.08,6-13.85,10.6-21.31,14.66-1.91,1.04-3.84,2.03-5.79,2.99-1.66.81-3.4,1.56-4.8,2.79-2.65,2.33-2.96,5.79-2.51,9.1.57,4.13,1.67,8.18,2.33,12.3.7,4.38,1.21,8.8,1.41,13.23.38,8.34-.31,16.8-2.93,24.77-2.59,7.86-7.39,14.35-11.97,21.12-4.23,6.24-7.93,12.9-8.34,20.59-.26,4.97.62,9.87,1.33,14.78-.16.22-.33.44-.51.64.22.01.43.02.6-.01.44,3.1.78,6.21.7,9.35-.22,8.4-4.65,15.27-11.85,19.46-7.67,4.46-16.71,5.01-25.36,4.14-4.61-.47-9.37-1.12-13.86-2.29-4.18-1.08-6.85-3.67-8.29-7.7-1.18-3.32-1.56-6.85-2.26-10.29-.73-3.56-1.86-7.01-3.3-10.34-1.64-3.79-3.66-7.39-5.88-10.86.06-.1.13-.2.19-.3-.18-.08-.36-.17-.54-.25-1.69-2.61-3.48-5.15-5.31-7.65-4.49-6.13-9.25-12.06-13.47-18.39-4.72-7.1-8.46-14.7-10.79-22.91-2.4-8.47-3.43-17.25-3.71-26.04-.13-4.25.09-8.5,0-12.75-.06-3.04-.54-6.1-1.75-8.91-2.16-5.03-6.5-8.33-10.99-11.19-.89-.57-1.8-1.13-2.7-1.69-.18.02-.36.04-.55.04-.87,0-1.58-.26-2.13-.67-.55-.02-1.04-.14-1.45-.34,0,0,0,0,0,0,3.08,1.95,6.22,3.81,9.18,5.94,4.9,3.52,8.15,8.14,8.81,14.24.42,3.92.05,7.92.09,11.86.05,4.29.25,8.59.68,12.86.48,4.72,1.25,9.41,2.38,14.02-.66.57-1.34,1.11-1.7,1.54-1.35,1.6-2.54,3.33-3.63,5.12-2.24,3.68-4.05,7.62-5.73,11.58-3.8,8.95-7.38,17.78-11.82,26.45-11.06,21.59-22.95,42.79-36.6,62.86-13.87,20.4-30.22,38.63-46,57.52-7.3,8.74-14.33,17.7-20.64,27.19-.23.35-.02.98.42,1.04,6.36.91,12.97,1.15,19.16-.87,6.21-2.03,10.8-6.4,15.15-11.09,10.8-11.63,21.52-23.35,32.27-35.03,10.87-11.8,21.63-23.71,32.65-35.36,10.13-10.7,21.2-20.02,32.41-29.53,9.8-8.31,18.43-17.4,25.3-28.03,2.79,4.45,5.21,9.09,6.93,14.09,1.14,3.32,1.79,6.71,2.42,10.15.57,3.12,1.21,6.33,2.77,9.13,1.59,2.86,4.1,4.73,7.22,5.67,4.06,1.23,8.47,1.76,12.67,2.3,8.2,1.05,16.8,1.08,24.56-2.13,6.17-2.55,11.78-7.05,14.52-13.26,2.02-4.58,2.18-9.46,1.75-14.34,2.06,4.13,4.95,7.86,8.38,10.94,2.79,2.5,5.95,4.58,9.33,6.2,1.97.94,4.7,1.29,6.39,2.66,3.2,2.6,1.25,9.72.53,12.94-1.87,8.36-4.98,16.47-8.18,24.39-4.24,10.5-8.95,20.8-13.82,31.01-10.09,21.14-20.93,41.92-32.08,62.52-4.14,7.66-8.33,15.29-12.58,22.89-2.06,3.68-4.81,7.44-6.4,11.36-.07.18-.2.35-.29.51-.25.44,0,.87.42,1.04,6.46,2.69,14.39,4.34,21.32,2.85,7.34-1.58,11.76-8.22,15.92-13.91,8.42-11.49,15.77-23.72,23.14-35.9,16.4-27.13,33.29-53.99,49.87-81.01,8.36-13.63,17.26-27.08,25-41.07,3.2-5.78,5.55-11.87,11.15-15.81,5.25-3.69,11.45-5.7,17.29-8.23,7.36-3.19,14.7-6.37,22.26-9.06,7.3-2.6,14.83-4.58,22.03-7.46,6.86-2.74,13.27-6.44,20.02-9.4,3.46-1.52,7.02-2.82,10.54-4.21,2.14,2.57,4.43,4.94,6.71,7.05,1.92,1.77,3.94,3.42,6.06,4.93,3.36,2.34,7.19,4.56,8.77,8.56,1.49,3.78.77,8.03-.34,11.81-1.14,3.89-2.78,7.64-4.27,11.41-1.59,4.03-3.19,8.07-4.8,12.09-6.59,16.45-13.43,32.81-21.2,48.75-4.38,8.98-9.05,17.82-14.1,26.44-.22.37-.03.96.42,1.04,11.71,2.21,21.45-5.95,28.07-14.71,4.05-5.35,7.14-11.31,10.15-17.28,3.38-6.72,6.55-13.54,9.8-20.32,3.24-6.77,6.58-13.51,10.29-20.04,3.72-6.54,7.91-12.78,12.26-18.91,8.61-12.12,17.83-24.01,24.05-37.6,5.66-12.35,9-26.28,6.26-39.82-1.24-6.12-3.72-12-7.22-17.19,1.21-.11,2.42-.17,3.63-.2,2.27-.05,4.56.08,6.81.42.83.12,3.77.26,4.31.67.14.11.17.4.3.53.76.74,1.3,2.07,1.91,2.95,3.18,4.59,6.85,8.84,10.66,12.91,7.11,7.57,14.9,14.48,22.99,20.97,5.48,4.39,11.1,8.58,16.85,12.61,2.11,1.48,4.51,2.75,6.36,4.59,4.89,4.86,5.55,12.65,4.86,19.12-.78,7.28-3.44,14.11-5.98,20.92-2.81,7.53-5.73,15.02-8.7,22.49-5.56,13.99-10.94,27.98-16.1,42.12-2.46,6.75-5.03,13.47-8.1,19.96-3.22,6.8-7.23,13.06-11.28,19.39l-12.85,20.07c-.28.43.08,1.11.61,1.07,10.24-.79,21.59-1.79,30-8.32,4.16-3.23,7.34-7.78,10.23-12.12,3.37-5.04,6.33-10.34,9.16-15.69,5.72-10.81,11.16-21.74,17.03-32.47,6.58-12.03,12.75-24.31,17.96-37,5.36-13.05,9.13-26.66,13.57-40.04,4.64-13.95,8.73-28.13,12.63-42.3,3.85-14.01,7.36-28.12,10.34-42.35,2.88-13.73,6.18-27.92,5.59-42.04Zm-498.83,154c-10.48,9.3-21.56,17.77-31.42,27.77-21.13,21.42-41.01,44.17-61.39,66.29-5.4,5.86-10.62,12.86-17.29,17.35-6.9,4.65-15.41,4.98-23.42,3.96,18.04-26.86,41.59-49.46,60.41-75.76,9.41-13.15,18-26.87,26.03-40.91,7.67-13.42,15.47-27.12,21.79-41.24,4.78-10.69,7.95-24.11,16.39-32.78.78,2.96,1.71,5.88,2.82,8.74,2.79,7.16,6.75,13.71,11.19,19.96,5.21,7.32,11.13,14.39,16.06,22-5.81,9.18-12.95,17.33-21.17,24.62Zm360.62-89.52c4.04,12.8,1.98,26.5-2.83,38.78-5.13,13.11-13.34,24.66-21.51,36.01-8.19,11.37-15.87,22.85-22.23,35.36-6.37,12.53-11.91,25.47-18.62,37.82-5.23,9.62-13.05,20.69-24.28,23.57-2.46.63-4.97.75-7.47.39,9.22-15.83,17.14-32.37,24.4-49.18,3.64-8.43,7.12-16.93,10.53-25.45,1.74-4.34,3.46-8.68,5.17-13.02,1.58-4,3.34-7.99,4.36-12.18.92-3.78,1.23-7.9-.4-11.54-1.81-4.02-5.67-6.31-9.14-8.73-4.36-3.09-8.59-6.93-12.18-11.27,2.89-1.17,5.74-2.42,8.48-3.94,6.14-3.42,11.6-7.93,17.05-12.32,5.73-4.62,11.28-9.37,16.15-14.91,4.44-5.05,8.16-10.75,12.7-15.69,3.58-3.9,8.52-5.57,13.64-6.24,2.68,3.84,4.8,8.09,6.2,12.54Z"/>
      <path class="cls-2" d="m539.28,343.15c16.68-7.66,34.25-13.17,51.53-19.31,16.49-5.86,32.89-12.02,48.99-18.9,16.09-6.87,31.89-14.47,47.07-23.19,13.97-8.02,27.64-16.88,39.74-27.56,12.6-11.13,23.38-24.51,29.24-40.41-.46-.13-.91-.25-1.37-.38-4.36,27.44-19.5,51.92-39.04,71.24-21.39,21.16-48,36.13-75.01,48.9-28.22,13.34-57.47,24.48-85.07,39.15-6.96,3.7-13.8,7.62-20.47,11.84-5.1,3.22-10.43,7.06-16.55,7.89-8.16,1.1-18.05-.48-25.08-4.9-2.94-1.85-5.64-4.69-5.36-8.41.37-4.76,4.87-8.15,8.4-10.74,4.43-3.25,9.2-5.97,13.87-8.85,6.12-3.77,12.1-7.68,18.45-11.07,3.5-1.87,7.06-3.63,10.66-5.3.83-.38.11-1.61-.72-1.23-12.92,5.98-24.92,13.58-36.95,21.15-6.16,3.88-18.55,11.04-14.37,20.16,1.53,3.33,4.88,5.53,8.1,7.02,4.14,1.91,8.64,2.98,13.15,3.52,3.99.47,8.18.59,12.12-.32,6.71-1.54,12.59-6.25,18.34-9.78,27.95-17.14,58.55-29.18,88.37-42.55,28.54-12.8,56.95-27.09,80.73-47.71,21.09-18.29,38.55-42.07,45.65-69.37.88-3.38,1.59-6.81,2.13-10.26.14-.9-1.05-1.25-1.37-.38-10.95,29.73-38.44,49.5-64.69,65-29.98,17.7-62.38,30.8-95.07,42.54-18.79,6.75-37.98,12.64-56.15,20.98-.83.38-.11,1.61.72,1.23Z"/>
      <path class="cls-2" d="m382.22,359.47c-17.89-2.85-36.03-3.48-54.08-4.7-17.76-1.21-35.5-2.71-53.16-5.01-17.76-2.31-35.43-5.42-52.79-9.82-15.6-3.95-31.16-8.76-45.69-15.75-15.18-7.3-29.33-17.24-39.28-31.02-.54-.74-1.61-.12-1.23.72,11.32,24.68,31.74,44.03,54.97,57.55,27.01,15.72,57.77,23.49,88.32,28.76,32.71,5.64,65.89,8.53,98.28,15.98,8.19,1.89,16.21,4.27,24.29,6.56,5.48,1.55,10.82,2.56,16.43,1.32,4.68-1.03,9.23-2.91,13.37-5.31,3.8-2.2,7.61-4.99,10-8.75,1.97-3.09,2.49-6.77.65-10.05-2.22-3.95-6.86-5.89-10.88-7.44-5.15-1.99-10.51-3.36-15.82-4.86-7.1-2.01-14.09-4.26-21.3-5.86-4-.89-8.02-1.66-12.07-2.31-.9-.15-1.28,1.22-.38,1.37,13.59,2.21,26.65,6.2,39.84,9.99,5.14,1.48,10.52,3.01,15.14,5.79,3.45,2.08,6.12,5.58,4.93,9.78-1.15,4.09-4.89,7.22-8.27,9.51-3.99,2.71-8.47,4.78-13.1,6.13-5.24,1.53-9.92,1.4-15.25.1-7.8-1.9-15.41-4.5-23.22-6.39-31.28-7.59-63.4-10.62-95.12-15.73-30.04-4.84-60.36-11.6-87.57-25.67-23.31-12.05-44.5-29.6-57.62-52.61-1.59-2.79-3.05-5.65-4.39-8.57-.41.24-.82.48-1.23.72,18.08,25.02,48.33,37.01,77.04,45.08,34.64,9.73,70.55,13.94,106.35,16.6,20.82,1.55,41.82,1.99,62.46,5.28.9.14,1.28-1.23.38-1.37Z"/>
      <path class="cls-2" d="m852.86,116.24c1.31-1.82,2.64-3.62,4.44-5,1.61-1.24,3.44-2.16,5.25-3.07,3.88-1.96,7.83-3.84,11.87-5.46,3.88-1.55,7.95-2.83,12.15-3.02.3-.01,3.43-.03,3.42.12,0,.12-1.59.45-2.06.55-1.4.29-2.65.59-3.7,1.62-.53.52.02,1.33.69,1.19,1.93-.4,3.86-.72,5.82-.91.9-.09,1.8-.15,2.7-.19.45-.02.9-.03,1.35-.04-.33.41-.73.73-1.19.98-2.01,1.37-5.19,1.8-6.34,4.14-.2.42-.04.91.43,1.04,2.98.9,5.26-1.92,8.17-1.55-.24-.24-.47-.47-.71-.71.02.91-2.45,2.01-3.09,2.42-1.03.65-2.06,1.31-3.09,1.96-.47.3-.47,1.19.17,1.3,1.05.19,2.07.26,3.14.08.5-.08,1.02-.34,1.51-.4.58-.29,1.12-.09,1.63.61-.31.24-.64.47-.97.68-2.17,1.4-4.62,2.32-6.98,3.34-5,2.16-9.78,4.68-14.62,7.18-5.12,2.65-10.47,3.97-16.25,3.77-2.32-.08-6.62-.03-7.78-2.58-.65-1.43.82-3.23,1.53-4.36.79-1.26,1.65-2.47,2.51-3.68.53-.75-.7-1.46-1.23-.72-1.5,2.11-3.36,4.38-4.29,6.82-.63,1.67.36,3.25,1.69,4.23,1.86,1.37,4.35,1.53,6.58,1.66,2.67.16,5.36.04,8-.4,5.67-.95,10.44-3.86,15.48-6.42,2.58-1.31,5.2-2.56,7.85-3.73,2.48-1.1,5.06-2.04,7.42-3.4,1.23-.71,3.81-2.15,2.5-3.92-.55-.75-1.5-.91-2.36-.77-1.8.3-3.11.97-5,.63.06.43.11.87.17,1.3,1.68-1.07,3.38-2.12,5.05-3.21.95-.62,1.86-1.16,1.83-2.4,0-.42-.32-.66-.71-.71-2.75-.35-5.14,2.4-7.79,1.6.14.35.28.7.43,1.04.89-1.82,3.93-2.48,5.58-3.48.93-.56,2.73-1.53,2.23-2.91-.53-1.47-3.13-.83-4.22-.76-2.54.18-5.06.55-7.55,1.07.23.4.46.79.69,1.19,1.56-1.51,3.98-1,5.75-2.12.85-.54,1.17-1.42.21-2.06-1.72-1.14-5.02-.57-6.91-.33-2.44.31-4.84.93-7.17,1.72-4.85,1.65-9.52,3.89-14.11,6.16-2.24,1.11-4.52,2.2-6.52,3.71-1.98,1.5-3.43,3.47-4.87,5.46-.53.74.7,1.46,1.23.72Z"/>
      <path class="cls-2" d="m425.22,470.4c2.01,1.92,4.64,3.33,7.42,3.35.29,0,.6-.02.82-.21.2-.17.28-.45.34-.71.88-4.03-.65-8.17-2.4-11.9-1.63-3.46-7.39-12.79-11.63-6.96-3.74,5.15,1.83,12.97,5.46,16.43Z"/>
      <path class="cls-2" d="m484.47,540.01c-.11-1.43-.04-2.87.21-4.28.14-.82.36-1.65.83-2.33.48-.68,1.27-1.19,2.1-1.13.68.99.11,2.32-.47,3.38-.73,1.33-1.45,2.65-2.18,3.98l-.49.38Z"/>
      <path class="cls-2" d="m467.17,539.34c-1.93-1.27-3.11-3.59-3.02-5.9,2.19.69,3.59,3.26,2.98,5.47l.04.43Z"/>
      <path class="cls-2" d="m494.54,464.46c.02.72.09,1.47.44,2.1.73,1.29,2.41,1.67,3.89,1.61,2.43-.09,4.78-.99,6.87-2.25,1.93-1.17,3.72-2.72,4.71-4.76.73-1.5,1-3.18,1.15-4.85.21-2.19.24-4.44-.4-6.55-1.52-5.02-7.84-7.67-11.04-2.76-3.41,5.22-5.83,11.12-5.62,17.45Z"/>
      <path class="cls-2" d="m387.26,503.92c2.2-4.42,4.68-8.68,7.42-12.79.51-.76-.72-1.48-1.23-.72-2.75,4.1-5.22,8.37-7.42,12.79-.41.82.82,1.54,1.23.72h0Z"/>
      <path class="cls-2" d="m385.88,518.31c3.16-4.41,4.65-9.75,7.86-14.13.54-.74-.69-1.45-1.23-.72-3.21,4.38-4.7,9.72-7.86,14.13-.53.75.7,1.46,1.23.72h0Z"/>
      <path class="cls-2" d="m381.08,512.72c-4.36,5.88-8.23,12.08-11.57,18.59-.42.81.81,1.53,1.23.72,3.35-6.51,7.21-12.72,11.57-18.59.55-.74-.69-1.45-1.23-.72h0Z"/>
      <path class="cls-2" d="m516.28,513.33c3.58,9.55,13.41,16.93,22.96,19.81.88.27,1.25-1.11.38-1.37-9.03-2.73-18.57-9.76-21.97-18.82-.32-.85-1.69-.48-1.37.38h0Z"/>
      <path class="cls-2" d="m530.72,522.15c2.4,2.34,5.95,3.48,9.01,4.68,3.74,1.46,7.49,2.92,11.42,3.81.89.2,1.27-1.17.38-1.37-3.51-.8-6.87-2.05-10.22-3.35-3.18-1.23-7.09-2.34-9.58-4.77-.66-.64-1.66.36-1.01,1.01h0Z"/>
      <path class="cls-2" d="m536.94,536.02c-.07-.05-.15-.1-.22-.15-.18.43-.37.87-.55,1.3,3.13,1.16,5.99,3.56,5.66,7.2-.08.91,1.34.91,1.42,0,.4-4.3-3.01-7.21-6.7-8.57-.79-.29-1.19.88-.55,1.3.07.05.15.1.22.15.77.51,1.48-.72.72-1.23h0Z"/>
      <path class="cls-2" d="m546.14,537.77c1.09,1.48,1.44,3.23,1.66,5.02.11.9,1.53.91,1.42,0-.25-2.03-.62-4.05-1.86-5.74-.54-.73-1.77-.02-1.23.72h0Z"/>
      <path class="cls-2" d="m524.86,513.2c-1.97-1.81-3.06-4.18-3.11-6.86-.02-.91-1.44-.92-1.42,0,.06,3.03,1.29,5.81,3.53,7.86.67.62,1.68-.39,1.01-1.01h0Z"/>
      <path class="cls-2" d="m514.27,651.93c2.04-3.8,4.27-7.5,6.67-11.08.51-.76-.72-1.47-1.23-.72-2.41,3.58-4.63,7.28-6.67,11.08-.43.81.79,1.53,1.23.72h0Z"/>
      <path class="cls-2" d="m515.39,641.96c1.59-3.56,3.65-6.82,6.2-9.77.6-.69-.41-1.7-1.01-1.01-2.63,3.04-4.78,6.39-6.43,10.06-.37.83.85,1.55,1.23.72h0Z"/>
      <path class="cls-2" d="m525.58,635.99c5.53-7.88,10.93-15.86,16.19-23.92.5-.77-.73-1.48-1.23-.72-5.26,8.06-10.66,16.04-16.19,23.92-.53.75.71,1.46,1.23.72h0Z"/>
      <path class="cls-2" d="m529,623.53c.63-1.08,1.23-2.17,1.83-3.27.43-.81-.79-1.53-1.23-.72-.59,1.1-1.2,2.19-1.83,3.27-.46.79.77,1.51,1.23.72h0Z"/>
      <path class="cls-2" d="m533.46,617.18c.83-1.78,1.77-3.49,2.83-5.13.5-.77-.73-1.49-1.23-.72-1.06,1.65-2.01,3.36-2.83,5.13-.38.82.84,1.55,1.23.72h0Z"/>
      <path class="cls-2" d="m639.83,500.21c3.29-.33,6.35-2.32,9.44-3.38,3.39-1.17,6.75-2.36,10.04-3.8,7.04-3.07,13.98-6.38,20.96-9.59.83-.38.11-1.61-.72-1.23-6.56,3.01-13.1,6.09-19.7,9.03-3.28,1.46-6.61,2.74-10.01,3.89-1.7.58-3.39,1.16-5.03,1.86-1.63.7-3.18,1.61-4.98,1.79-.9.09-.91,1.51,0,1.42h0Z"/>
      <path class="cls-2" d="m689.58,479.29c5.68-2.27,11.36-4.6,16.69-7.63,5.32-3.03,10.04-6.9,14.72-10.82.7-.59-.31-1.59-1.01-1.01-4.59,3.84-9.21,7.63-14.43,10.6-5.22,2.97-10.78,5.26-16.35,7.49-.84.34-.47,1.71.38,1.37h0Z"/>
      <path class="cls-2" d="m673.83,478.98c6.15-1.78,11.14-5.92,16.85-8.64.83-.39.11-1.62-.72-1.23-5.6,2.66-10.49,6.75-16.51,8.49-.88.25-.5,1.63.38,1.37h0Z"/>
      <path class="cls-2" d="m686.64,463.67c3.71-2.04,7.29-4.29,10.74-6.75.74-.53.03-1.76-.72-1.23-3.45,2.46-7.03,4.71-10.74,6.75-.8.44-.09,1.67.72,1.23h0Z"/>
      <path class="cls-2" d="m674,469.29c1.83-.82,3.6-1.75,5.32-2.79.78-.47.07-1.7-.72-1.23-1.72,1.04-3.49,1.97-5.32,2.79-.83.38-.11,1.6.72,1.23h0Z"/>
      <path class="cls-2" d="m435.3,445.26c2.17,1.06,3.99,2.27,5.33,4.33,1.09,1.67,2.18,3.42,3.1,5.18,2.24,4.27,3.05,9.85,3.25,14.61.04.91,1.46.92,1.42,0-.21-5.04-1.07-10.81-3.44-15.33-1.05-1.99-2.26-4.06-3.58-5.88-1.39-1.93-3.26-3.11-5.37-4.14-.82-.4-1.54.82-.72,1.23h0Z"/>
      <path class="cls-2" d="m451.96,457.82c.38,1.69.77,3.37,1.15,5.06.2.89,1.57.51,1.37-.38-.38-1.69-.77-3.38-1.15-5.06-.2-.89-1.57-.51-1.37.38h0Z"/>
      <path class="cls-2" d="m452.29,453.67c-.13-.61-.45-1.15-.91-1.57-.68-.61-1.69.39-1.01,1.01.3.26.46.55.55.94.19.89,1.56.52,1.37-.38h0Z"/>
      <path class="cls-2" d="m494.91,441.62c-2.87,2.32-4.35,5.71-5.58,9.1-1.61,4.46-2.8,9.06-3.92,13.66-.22.89,1.16,1.27,1.37.38,1.01-4.17,2.08-8.32,3.47-12.38,1.23-3.59,2.62-7.29,5.66-9.75.71-.58-.3-1.58-1.01-1.01h0Z"/>
      <path class="cls-2" d="m481.7,448.98c-1.37,4.13-2.26,8.35-2.72,12.67-.1.91,1.33.9,1.42,0,.44-4.19,1.34-8.29,2.67-12.3.29-.87-1.08-1.24-1.37-.38h0Z"/>
      <path class="cls-2" d="m477.66,467.89c-1.24,2.19-3.11,5.11-5.83,5.38-2.44.24-4.96-.53-6.32-2.67-.49-.77-1.72-.06-1.23.72,1.64,2.58,4.58,3.6,7.55,3.37,3.34-.26,5.54-3.38,7.06-6.08.45-.8-.78-1.52-1.23-.72h0Z"/>
      <path class="cls-2" d="m455.81,471.39c1.72,4.36,5.69,9.58,10.67,10.3.9.13,1.28-1.24.38-1.37-4.48-.65-8.12-5.36-9.68-9.3-.33-.84-1.71-.48-1.37.38h0Z"/>
      <path class="cls-2" d="m468.6,381.78c4.79-.19,9.59-.37,14.38-.55.91-.04.92-1.46,0-1.42-4.79.19-9.59.37-14.38.55-.91.04-.92,1.46,0,1.42h0Z"/>
      <path class="cls-2" d="m455.12,387.99c5.43.11,10.86.22,16.29.33.92.02.92-1.4,0-1.42-5.43-.11-10.86-.22-16.29-.33-.92-.02-.92,1.4,0,1.42h0Z"/>
      <path class="cls-2" d="m452.93,382.77c1.51-.03,3.01.08,4.5.35.9.16,1.28-1.21.38-1.37-1.61-.29-3.24-.43-4.88-.4-.91.02-.92,1.44,0,1.42h0Z"/>
      <path class="cls-2" d="m788.89,423.21c3.66,5.05,7.72,9.78,12.19,14.13.66.64,1.66-.36,1.01-1.01-4.38-4.27-8.38-8.89-11.97-13.85-.53-.73-1.77-.03-1.23.72h0Z"/>
      <path class="cls-2" d="m801.48,429.82c3.75,2.31,6.7,5.65,10.05,8.48,3.34,2.82,6.87,5.39,10.4,7.96.74.54,1.45-.69.72-1.23-3.79-2.76-7.58-5.52-11.12-8.6-3.07-2.67-5.84-5.69-9.33-7.84-.78-.48-1.5.75-.72,1.23h0Z"/>
      <path class="cls-2" d="m808.33,447.79c7.31,5.37,14.49,11.36,22.55,15.59.81.43,1.53-.8.72-1.23-8.05-4.23-15.24-10.22-22.55-15.59-.74-.54-1.45.69-.72,1.23h0Z"/>
      <path class="cls-2" d="m826.9,453.07c2.62,2.29,5.58,4.02,8.87,5.18.86.31,1.24-1.07.38-1.37-3.05-1.08-5.8-2.69-8.24-4.82-.69-.6-1.7.4-1.01,1.01h0Z"/>
      <path class="cls-2" d="m831.22,447.82c3.31,2.31,6.61,4.63,9.92,6.94,2.9,2.03,5.83,3.96,9.1,5.33.84.35,1.21-1.02.38-1.37-3.36-1.4-6.34-3.49-9.31-5.56-3.13-2.19-6.25-4.37-9.38-6.56-.75-.53-1.46.71-.72,1.23h0Z"/>
      <path class="cls-2" d="m843.3,463.14c1.48,1.14,3.11,2.01,4.87,2.65.86.31,1.23-1.06.38-1.37-1.64-.6-3.14-1.45-4.53-2.51-.73-.56-1.44.68-.72,1.23h0Z"/>
      <path class="cls-2" d="m834.6,470.6c.87,1.66,2.79,2.63,4.26,3.69,2.1,1.5,4.18,3.04,6.09,4.78,3.53,3.21,6.4,7.13,7.29,11.9.17.9,1.54.52,1.37-.38-.81-4.34-3.22-8.1-6.28-11.21-1.67-1.7-3.54-3.2-5.44-4.63-.93-.7-1.88-1.38-2.83-2.05-1.13-.8-2.58-1.55-3.24-2.81-.43-.81-1.65-.09-1.23.72h0Z"/>
      <path class="cls-2" d="m853.27,479.14c.65.96,1.25,1.94,1.81,2.95.44.8,1.67.09,1.23-.72-.56-1.01-1.16-2-1.81-2.95-.51-.75-1.74-.04-1.23.72h0Z"/>
      <path class="cls-2" d="m838.86,594.96c-2.77,4.51-5.13,9.22-7.1,14.13-.34.85,1.03,1.22,1.37.38,1.93-4.79,4.26-9.39,6.96-13.79.48-.78-.75-1.5-1.23-.72h0Z"/>
      <path class="cls-2" d="m835.3,595.71c1.73-2.99,3.54-5.92,5.44-8.81.5-.77-.73-1.48-1.23-.72-1.9,2.88-3.71,5.82-5.44,8.81-.46.79.77,1.51,1.23.72h0Z"/>
      <path class="cls-2" d="m843.54,587.84c.98-1.56,1.77-3.21,2.38-4.96.3-.87-1.07-1.24-1.37-.38-.57,1.63-1.31,3.16-2.23,4.62-.49.78.74,1.49,1.23.72h0Z"/>
      <path class="cls-2" d="m516.27,288.77c10.08-8.95,22.13-15.43,35.14-18.93.88-.24.51-1.61-.38-1.37-13.25,3.57-25.51,10.19-35.77,19.3-.69.61.32,1.61,1.01,1.01h0Z"/>
      <path class="cls-2" d="m545.69,281.78c16-7.22,33.1-11.85,50.56-13.69.9-.09.91-1.52,0-1.42-17.73,1.86-35.03,6.55-51.28,13.88-.83.38-.11,1.6.72,1.23h0Z"/>
      <path class="cls-2" d="m562.85,265.25c21.9-6.9,44.87-9.96,67.82-9.04.92.04.91-1.39,0-1.42-23.06-.93-46.18,2.15-68.19,9.09-.87.27-.5,1.65.38,1.37h0Z"/>
      <path class="cls-2" d="m605.83,264.68c3.21-.98,6.47-1.47,9.83-1.47.92,0,.92-1.42,0-1.42-3.48,0-6.88.5-10.21,1.52-.87.27-.5,1.64.38,1.37h0Z"/>
      <path class="cls-2" d="m590.84,277.83c8.12-2.7,16.5-4.5,25.02-5.34.9-.09.91-1.51,0-1.42-8.65.85-17.15,2.65-25.4,5.39-.86.29-.49,1.66.38,1.37h0Z"/>
      <path class="cls-2" d="m640.68,257.48c6.26-.45,12.47.2,18.5,1.96.88.26,1.26-1.11.38-1.37-6.14-1.8-12.5-2.48-18.88-2.01-.91.07-.91,1.49,0,1.42h0Z"/>
      <path class="cls-2" d="m852.71,121.81c-.15-.46,1.75-2.1,2.06-2.44.68-.73,1.38-1.45,2.09-2.16,1.42-1.42,2.88-2.79,4.38-4.12.69-.61-.32-1.61-1.01-1.01-2.08,1.85-4.09,3.78-6.01,5.8-.92.97-3.39,2.73-2.89,4.31.28.87,1.65.5,1.37-.38h0Z"/>
      <path class="cls-2" d="m863.28,110.97c5.99-3.6,12.39-6.39,19.11-8.33.88-.25.5-1.63-.38-1.37-6.83,1.97-13.35,4.81-19.45,8.47-.78.47-.07,1.7.72,1.23h0Z"/>
      <path class="cls-2" d="m857.55,121.63c2.72-2.79,6.64-4.72,10.15-6.33.83-.38.11-1.61-.72-1.23-3.63,1.66-7.63,3.66-10.44,6.55-.64.66.37,1.66,1.01,1.01h0Z"/>
      <path class="cls-2" d="m872.88,111.62c2.99-1.69,6.1-3.12,9.33-4.29.85-.31.49-1.68-.38-1.37-3.35,1.21-6.57,2.68-9.67,4.44-.8.45-.08,1.68.72,1.23h0Z"/>
      <path class="cls-2" d="m857.44,125.19c10.36-3.04,20.19-7.64,29.15-13.67.76-.51.04-1.74-.72-1.23-8.86,5.96-18.56,10.52-28.81,13.53-.88.26-.5,1.63.38,1.37h0Z"/>
      <path class="cls-2" d="m871.54,116.76c1.31-.62,2.61-1.23,3.92-1.85.83-.39.11-1.62-.72-1.23-1.31.62-2.61,1.23-3.92,1.85-.83.39-.11,1.62.72,1.23h0Z"/>
      <path class="cls-2" d="m217.25,343.07c5.05,1.89,10.31,3,15.69,3.35.91.06.91-1.36,0-1.42-5.26-.34-10.38-1.45-15.31-3.3-.86-.32-1.23,1.05-.38,1.37h0Z"/>
      <path class="cls-2" d="m225,349.97c6.56,1.41,13.19,2.43,19.88,3.07.91.09.9-1.34,0-1.42-6.56-.63-13.06-1.64-19.5-3.02-.89-.19-1.27,1.18-.38,1.37h0Z"/>
      <path class="cls-2" d="m240.8,347.96c3.92.82,7.87,1.46,11.84,1.95.91.11.9-1.31,0-1.42-3.85-.47-7.67-1.11-11.46-1.9-.89-.19-1.28,1.18-.38,1.37h0Z"/>
      <path class="cls-2" d="m252.21,354.33c1.74.15,3.48.3,5.22.45.91.08.91-1.34,0-1.42-1.74-.15-3.48-.3-5.22-.45-.91-.08-.91,1.34,0,1.42h0Z"/>
      <path class="cls-2" d="m370.97,391.4c4.64.98,9.29,1.95,13.93,2.93.89.19,1.27-1.18.38-1.37-4.64-.98-9.29-1.95-13.93-2.93-.89-.19-1.27,1.18-.38,1.37h0Z"/>
      <path class="cls-2" d="m361.63,384.89c2.85.72,5.73,1.24,8.65,1.57.91.1.9-1.32,0-1.42-2.8-.31-5.55-.82-8.28-1.52-.89-.23-1.27,1.15-.38,1.37h0Z"/>
      <path class="cls-2" d="m349,387.39c5.36.81,10.69,1.77,15.99,2.89.89.19,1.27-1.18.38-1.37-5.3-1.12-10.63-2.08-15.99-2.89-.9-.14-1.28,1.24-.38,1.37h0Z"/>
      <path class="cls-2" d="m351.27,383.79c1.12.29,2.25.59,3.37.88.89.23,1.26-1.14.38-1.37-1.12-.29-2.25-.59-3.37-.88-.89-.23-1.26,1.14-.38,1.37h0Z"/>
      <path class="cls-2" d="m343.15,382.63c1.24.53,2.51.84,3.85.94.91.06.91-1.36,0-1.42-1.08-.08-2.14-.32-3.13-.74-.83-.35-1.56.87-.72,1.23h0Z"/>
      <path class="cls-2" d="m520.49,356.67c3.17-2,6.53-3.61,10.08-4.8.86-.29.49-1.66-.38-1.37-3.67,1.23-7.15,2.87-10.42,4.94-.77.49-.06,1.72.72,1.23h0Z"/>
      <path class="cls-2" d="m527.89,358.62c6.11-3.48,12.47-6.45,19.06-8.88.85-.31.48-1.69-.38-1.37-6.71,2.48-13.19,5.49-19.4,9.02-.8.45-.08,1.68.72,1.23h0Z"/>
      <path class="cls-2" d="m535.76,350.08c3.78-1.75,7.57-3.5,11.35-5.26.83-.38.11-1.61-.72-1.23-3.78,1.75-7.57,3.5-11.35,5.26-.83.38-.11,1.61.72,1.23h0Z"/>
      <path class="cls-2" d="m554.09,341.67c3.71-1.18,7.36-2.52,10.96-4.01.83-.35.47-1.72-.38-1.37-3.6,1.49-7.25,2.82-10.96,4.01-.87.28-.5,1.65.38,1.37h0Z"/>
      <path class="cls-2" d="m553.31,347.32c9.6-4.33,19.23-8.57,28.91-12.72.84-.36.12-1.59-.72-1.23-9.67,4.15-19.31,8.39-28.91,12.72-.83.38-.11,1.6.72,1.23h0Z"/>
      <path class="cls-2" d="m574.44,334.15c1.68-.58,3.29-1.29,4.85-2.14.8-.44.09-1.67-.72-1.23-1.45.8-2.95,1.46-4.51,2-.86.3-.49,1.67.38,1.37h0Z"/>
      <path class="cls-2" d="m690.65,300.84c8.69-4.04,15.94-10.37,23.06-16.66.69-.61-.32-1.61-1.01-1.01-7.04,6.22-14.19,12.45-22.77,16.44-.83.39-.11,1.61.72,1.23h0Z"/>
      <path class="cls-2" d="m705.66,286.04c5.59-4.6,10.58-9.82,14.96-15.58.55-.73-.68-1.44-1.23-.72-4.3,5.66-9.25,10.78-14.73,15.29-.71.58.3,1.58,1.01,1.01h0Z"/>
      <path class="cls-2" d="m694.86,293.24c2.18-1.54,4.32-3.15,6.42-4.81.72-.57-.3-1.57-1.01-1.01-2,1.59-4.04,3.11-6.13,4.59-.74.52-.03,1.76.72,1.23h0Z"/>
      <path class="cls-2" d="m683.02,299.7c1.75-1.02,3.38-2.19,4.91-3.52.69-.6-.32-1.6-1.01-1.01-1.44,1.25-2.98,2.34-4.62,3.3-.79.46-.08,1.69.72,1.23h0Z"/>
      <path class="cls-2" d="m668.77,313.09c5.55-2.61,10.71-5.87,15.46-9.74.71-.58-.3-1.58-1.01-1.01-4.65,3.79-9.74,6.97-15.17,9.52-.83.39-.11,1.62.72,1.23h0Z"/>
      <path class="cls-2" d="m674.96,304.36c.76-.54,1.53-1.08,2.29-1.62.74-.52.03-1.76-.72-1.23-.76.54-1.53,1.08-2.29,1.62-.74.52-.03,1.76.72,1.23h0Z"/>
      <path class="cls-2" d="m857.64,289.25c5.61,4.18,11.1,8.57,16.44,13.09,5.13,4.35,9.59,9.18,12.16,15.49.34.84,1.72.47,1.37-.38-2.58-6.35-6.9-11.31-12.06-15.72-5.56-4.76-11.33-9.34-17.19-13.71-.73-.55-1.44.69-.72,1.23h0Z"/>
      <path class="cls-2" d="m886.54,305.15c3.47,5.78,6.96,11.66,8.88,18.16,2.06,6.97,1.97,14.28,1.87,21.47-.01.92,1.41.92,1.42,0,.1-7.32.18-14.77-1.92-21.85-1.96-6.62-5.49-12.62-9.02-18.5-.47-.78-1.7-.07-1.23.72h0Z"/>
      <path class="cls-2" d="m888.93,326.28c.38,3.31.77,6.62,1.15,9.93.1.9,1.53.91,1.42,0-.38-3.31-.77-6.62-1.15-9.93-.1-.9-1.53-.91-1.42,0h0Z"/>
      <path class="cls-2" d="m891.06,349.15c.05,2.21,0,4.43-.16,6.63-.16,2.14-.85,4.46-.62,6.59.09.9,1.52.91,1.42,0-.22-2.09.47-4.48.62-6.59.17-2.21.21-4.42.16-6.63-.02-.91-1.44-.92-1.42,0h0Z"/>
    </g>
    <g>
      <polygon class="cls-1" points="581.8 347.17 567.64 336.57 585.37 338.3 587.36 317.87 593.21 335.8 605.81 334.59 596.14 344.77 603.48 358.51 588.73 348.39 580.9 356.31 581.8 347.17"/>
      <path class="cls-1" d="m494.36,611.66c2.11.59,3.35,2.79,2.75,4.9-.59,2.11-2.79,3.35-4.9,2.75-2.11-.59-3.35-2.79-2.75-4.9.59-2.11,2.79-3.35,4.9-2.75Z"/>
      <path class="cls-1" d="m505.68,595.65c2.11.59,3.35,2.79,2.75,4.9s-2.79,3.35-4.9,2.75c-2.11-.59-3.35-2.79-2.75-4.9.59-2.11,2.79-3.35,4.9-2.75Z"/>
      <path class="cls-1" d="m517.19,579.39c2.11.59,3.35,2.79,2.75,4.9-.59,2.11-2.79,3.35-4.9,2.75-2.11-.59-3.35-2.79-2.75-4.9.59-2.11,2.79-3.35,4.9-2.75Z"/>
      <path class="cls-1" d="m528.2,563.82c2.11.59,3.35,2.79,2.75,4.9-.59,2.11-2.79,3.35-4.9,2.75-2.11-.59-3.35-2.79-2.75-4.9.59-2.11,2.79-3.35,4.9-2.75Z"/>
      <path class="cls-1" d="m539.15,548.36c2.11.59,3.35,2.79,2.75,4.9-.59,2.11-2.79,3.35-4.9,2.75-2.11-.59-3.35-2.79-2.75-4.9.59-2.11,2.79-3.35,4.9-2.75Z"/>
      <path class="cls-1" d="m550.47,532.36c2.11.59,3.35,2.79,2.75,4.9-.59,2.11-2.79,3.35-4.9,2.75-2.11-.59-3.35-2.79-2.75-4.9.59-2.11,2.79-3.35,4.9-2.75Z"/>
      <path class="cls-1" d="m562.75,514.99c2.11.59,3.35,2.79,2.75,4.9-.59,2.11-2.79,3.35-4.9,2.75-2.11-.59-3.35-2.79-2.75-4.9.59-2.11,2.79-3.35,4.9-2.75Z"/>
      <path class="cls-1" d="m575.15,497.47c2.11.59,3.35,2.79,2.75,4.9-.59,2.11-2.79,3.35-4.9,2.75-2.11-.59-3.35-2.79-2.75-4.9s2.79-3.35,4.9-2.75Z"/>
      <path class="cls-1" d="m586.82,480.99c2.11.59,3.35,2.79,2.75,4.9-.59,2.11-2.79,3.35-4.9,2.75-2.11-.59-3.35-2.79-2.75-4.9.59-2.11,2.79-3.35,4.9-2.75Z"/>
      <path class="cls-1" d="m598.39,464.63c2.11.59,3.35,2.79,2.75,4.9-.59,2.11-2.79,3.35-4.9,2.75-2.11-.59-3.35-2.79-2.75-4.9.59-2.11,2.79-3.35,4.9-2.75Z"/>
      <path class="cls-1" d="m609.91,448.35c2.11.59,3.35,2.79,2.75,4.9s-2.79,3.35-4.9,2.75c-2.11-.59-3.35-2.79-2.75-4.9.59-2.11,2.79-3.35,4.9-2.75Z"/>
      <path class="cls-1" d="m656.05,377.9c2.11.59,3.35,2.79,2.75,4.9-.59,2.11-2.79,3.35-4.9,2.75-2.11-.59-3.35-2.79-2.75-4.9s2.79-3.35,4.9-2.75Z"/>
      <path class="cls-1" d="m678.54,330.28c2.11.59,3.35,2.79,2.75,4.9-.59,2.11-2.79,3.35-4.9,2.75-2.11-.59-3.35-2.79-2.75-4.9.59-2.11,2.79-3.35,4.9-2.75Z"/>
      <path class="cls-1" d="m616.84,327.36c2.11.59,3.35,2.79,2.75,4.9-.59,2.11-2.79,3.35-4.9,2.75-2.11-.59-3.35-2.79-2.75-4.9.59-2.11,2.79-3.35,4.9-2.75Z"/>
      <path class="cls-1" d="m660.81,315.57c2.11.59,3.35,2.79,2.75,4.9-.59,2.11-2.79,3.35-4.9,2.75-2.11-.59-3.35-2.79-2.75-4.9.59-2.11,2.79-3.35,4.9-2.75Z"/>
      <path class="cls-1" d="m620.61,433.23c2.11.59,3.35,2.79,2.75,4.9-.59,2.11-2.79,3.35-4.9,2.75-2.11-.59-3.35-2.79-2.75-4.9.59-2.11,2.79-3.35,4.9-2.75Z"/>
      <path class="cls-1" d="m711.69,295.23c1.85,1.19,2.39,3.65,1.2,5.49-1.19,1.85-3.65,2.39-5.49,1.2-1.85-1.19-2.39-3.65-1.2-5.49,1.19-1.85,3.65-2.39,5.49-1.2Z"/>
      <path class="cls-1" d="m727.66,282.87c1.85,1.19,2.39,3.65,1.2,5.49-1.19,1.85-3.65,2.39-5.49,1.2-1.85-1.19-2.39-3.65-1.2-5.49,1.19-1.85,3.65-2.39,5.49-1.2Z"/>
      <path class="cls-1" d="m743.51,270.62c1.85,1.19,2.39,3.65,1.2,5.49-1.19,1.85-3.65,2.39-5.49,1.2-1.85-1.19-2.39-3.65-1.2-5.49,1.19-1.85,3.65-2.39,5.49-1.2Z"/>
      <path class="cls-1" d="m438.34,691.16c2.11.59,3.35,2.79,2.75,4.9-.59,2.11-2.79,3.35-4.9,2.75-2.11-.59-3.35-2.79-2.75-4.9.59-2.11,2.79-3.35,4.9-2.75Z"/>
      <path class="cls-1" d="m450,674.67c2.11.59,3.35,2.79,2.75,4.9-.59,2.11-2.79,3.35-4.9,2.75-2.11-.59-3.35-2.79-2.75-4.9.59-2.11,2.79-3.35,4.9-2.75Z"/>
      <path class="cls-1" d="m461.57,658.32c2.11.59,3.35,2.79,2.75,4.9-.59,2.11-2.79,3.35-4.9,2.75-2.11-.59-3.35-2.79-2.75-4.9.59-2.11,2.79-3.35,4.9-2.75Z"/>
      <path class="cls-1" d="m473.09,642.04c2.11.59,3.35,2.79,2.75,4.9-.59,2.11-2.79,3.35-4.9,2.75-2.11-.59-3.35-2.79-2.75-4.9.59-2.11,2.79-3.35,4.9-2.75Z"/>
      <path class="cls-1" d="m483.79,626.92c2.11.59,3.35,2.79,2.75,4.9-.59,2.11-2.79,3.35-4.9,2.75s-3.35-2.79-2.75-4.9c.59-2.11,2.79-3.35,4.9-2.75Z"/>
      <polygon class="cls-1" points="407.91 732.79 387.43 730.8 405.56 723.16 402.96 706.46 413.35 720.4 430.43 709.13 423.6 721.39 437.65 726.76 425.84 732.19 431.97 746.42 419.75 736.77 412.89 749.26 407.91 732.79"/>
      <path class="cls-1" d="m383.35,475.94c1.75,1.33,2.09,3.82.76,5.57-1.33,1.75-3.82,2.09-5.57.76-1.75-1.33-2.09-3.82-.76-5.57,1.33-1.75,3.82-2.09,5.57-.76Z"/>
      <path class="cls-1" d="m399.75,465.21c1.75,1.33,2.09,3.82.76,5.57-1.33,1.75-3.82,2.09-5.57.76-1.75-1.33-2.09-3.82-.76-5.57,1.33-1.75,3.82-2.09,5.57-.76Z"/>
      <path class="cls-1" d="m416.43,454.3c1.75,1.33,2.09,3.82.76,5.57-1.33,1.75-3.82,2.09-5.57.76-1.75-1.33-2.09-3.82-.76-5.57,1.33-1.75,3.82-2.09,5.57-.76Z"/>
      <path class="cls-1" d="m432.39,443.87c1.75,1.33,2.09,3.82.76,5.57-1.33,1.75-3.82,2.09-5.57.76-1.75-1.33-2.09-3.82-.76-5.57,1.33-1.75,3.82-2.09,5.57-.76Z"/>
      <path class="cls-1" d="m448.24,433.5c1.75,1.33,2.09,3.82.76,5.57-1.33,1.75-3.82,2.09-5.57.76-1.75-1.33-2.09-3.82-.76-5.57,1.33-1.75,3.82-2.09,5.57-.76Z"/>
      <path class="cls-1" d="m464.65,422.77c1.75,1.33,2.09,3.82.76,5.57-1.33,1.75-3.82,2.09-5.57.76-1.75-1.33-2.09-3.82-.76-5.57,1.33-1.75,3.82-2.09,5.57-.76Z"/>
      <path class="cls-1" d="m482.45,411.13c1.75,1.33,2.09,3.82.76,5.57-1.33,1.75-3.82,2.09-5.57.76-1.75-1.33-2.09-3.82-.76-5.57,1.33-1.75,3.82-2.09,5.57-.76Z"/>
      <path class="cls-1" d="m500.42,399.38c1.75,1.33,2.09,3.82.76,5.57-1.33,1.75-3.82,2.09-5.57.76s-2.09-3.82-.76-5.57c1.33-1.75,3.82-2.09,5.57-.76Z"/>
      <path class="cls-1" d="m517.32,388.33c1.75,1.33,2.09,3.82.76,5.57-1.33,1.75-3.82,2.09-5.57.76-1.75-1.33-2.09-3.82-.76-5.57,1.33-1.75,3.82-2.09,5.57-.76Z"/>
      <path class="cls-1" d="m534.08,377.36c1.75,1.33,2.09,3.82.76,5.57-1.33,1.75-3.82,2.09-5.57.76s-2.09-3.82-.76-5.57c1.33-1.75,3.82-2.09,5.57-.76Z"/>
      <path class="cls-1" d="m550.78,366.45c1.75,1.33,2.09,3.82.76,5.57-1.33,1.75-3.82,2.09-5.57.76-1.75-1.33-2.09-3.82-.76-5.57s3.82-2.09,5.57-.76Z"/>
      <path class="cls-1" d="m566.28,356.31c1.75,1.33,2.09,3.82.76,5.57-1.33,1.75-3.82,2.09-5.57.76-1.75-1.33-2.09-3.82-.76-5.57,1.33-1.75,3.82-2.09,5.57-.76Z"/>
      <path class="cls-1" d="m302.05,529.33c1.75,1.33,2.09,3.82.76,5.57-1.33,1.75-3.82,2.09-5.57.76-1.75-1.33-2.09-3.82-.76-5.57,1.33-1.75,3.82-2.09,5.57-.76Z"/>
      <path class="cls-1" d="m318.95,518.27c1.75,1.33,2.09,3.82.76,5.57-1.33,1.75-3.82,2.09-5.57.76-1.75-1.33-2.09-3.82-.76-5.57,1.33-1.75,3.82-2.09,5.57-.76Z"/>
      <path class="cls-1" d="m335.72,507.31c1.75,1.33,2.09,3.82.76,5.57-1.33,1.75-3.82,2.09-5.57.76-1.75-1.33-2.09-3.82-.76-5.57,1.33-1.75,3.82-2.09,5.57-.76Z"/>
      <path class="cls-1" d="m352.42,496.39c1.75,1.33,2.09,3.82.76,5.57-1.33,1.75-3.82,2.09-5.57.76-1.75-1.33-2.09-3.82-.76-5.57,1.33-1.75,3.82-2.09,5.57-.76Z"/>
      <path class="cls-1" d="m367.92,486.25c1.75,1.33,2.09,3.82.76,5.57-1.33,1.75-3.82,2.09-5.57.76-1.75-1.33-2.09-3.82-.76-5.57,1.33-1.75,3.82-2.09,5.57-.76Z"/>
      <path class="cls-1" d="m259.74,564.32c-2.79-.27-21.19-4.42-21.19-4.42l17.35-4.42-4.56-15.96,9.85,9.89,5.27-15.47,3.85,13.54,14.77-11.72-7.55,14.78,14.44,1.41-14.18,5.67,9.26,15.94-13.53-10.72-1.67,21.93-5.53-15.58-12.59,8.64,6.02-13.52Z"/>
      <path class="cls-1" d="m632.89,414.58l-14.64-12.95,15.53,1.19,12.88-19.46-1.85,24.29,14.6,9.47-18.75-1.43s-7.24,12.56-7.24,12.57c0,0-.53-13.67-.53-13.67Z"/>
      <path class="cls-1" d="m921.22,84.79l-19.42,2.21,11.27-10.75-5.85-22.59,16.82,17.63,16.8-4.52-13.61,12.98s4.49,13.79,4.49,13.79c0,0-10.51-8.75-10.51-8.75Z"/>
      <polygon class="cls-1" points="632.08 324.93 623.07 317.95 635.08 318.87 638.71 312.47 638.04 321.33 649.45 326.25 640.07 325.54 638.42 336.91 635.57 331.09 627.54 332.09 632.08 324.93"/>
      <polygon class="cls-1" points="873.77 80.91 864.76 73.94 876.77 74.85 880.4 68.45 879.73 77.32 891.14 82.24 881.76 81.52 880.11 92.89 877.26 87.07 869.24 88.07 873.77 80.91"/>
      <polygon class="cls-1" points="656.74 358.63 653.49 348.96 661.3 351.12 665.03 343.5 669.69 354.51 679.84 355.29 670.17 363.6 670.74 371.62 663.53 363.09 652.17 366.21 656.74 358.63"/>
      <polygon class="cls-1" points="677.02 309.89 670.61 300.36 679.84 303.03 682.27 292.61 684.04 300.21 700.36 307.74 687.96 310.72 687.36 323.64 682.85 315.84 672.2 316.37 677.02 309.89"/>
      <path class="cls-1" d="m762.18,260.01c-2.79-.27-21.19-4.42-21.19-4.42l17.35-4.42-4.56-15.96,9.85,9.89,5.27-15.47,3.85,13.54,14.77-11.72-7.55,14.78,14.44,1.41-14.18,5.67,9.26,15.94-13.53-10.72-1.67,21.93-5.53-15.58-12.59,8.64,6.02-13.52Z"/>
      <path class="cls-1" d="m797.43,224c2.06.77,3.11,3.06,2.34,5.11-.77,2.06-3.06,3.11-5.11,2.34-2.06-.77-3.11-3.06-2.34-5.11.77-2.06,3.06-3.11,5.11-2.34Z"/>
      <path class="cls-1" d="m809.69,209.4c2.06.77,3.11,3.06,2.34,5.11-.77,2.06-3.06,3.11-5.11,2.34-2.06-.77-3.11-3.06-2.34-5.11.77-2.06,3.06-3.11,5.11-2.34Z"/>
      <path class="cls-1" d="m821.87,194.9c2.06.77,3.11,3.06,2.34,5.11-.77,2.06-3.06,3.11-5.11,2.34-2.06-.77-3.11-3.06-2.34-5.11.77-2.06,3.06-3.11,5.11-2.34Z"/>
      <path class="cls-1" d="m834.48,179.89c2.06.77,3.11,3.06,2.34,5.11-.77,2.06-3.06,3.11-5.11,2.34-2.06-.77-3.11-3.06-2.34-5.11.77-2.06,3.06-3.11,5.11-2.34Z"/>
      <path class="cls-1" d="m848.17,163.6c2.06.77,3.11,3.06,2.34,5.11-.77,2.06-3.06,3.11-5.11,2.34-2.06-.77-3.11-3.06-2.34-5.11.77-2.06,3.06-3.11,5.11-2.34Z"/>
      <path class="cls-1" d="m861.97,147.16c2.06.77,3.11,3.06,2.34,5.11-.77,2.06-3.06,3.11-5.11,2.34-2.06-.77-3.11-3.06-2.34-5.11.77-2.06,3.06-3.11,5.11-2.34Z"/>
      <path class="cls-1" d="m874.96,131.7c2.06.77,3.11,3.06,2.34,5.11-.77,2.06-3.06,3.11-5.11,2.34-2.06-.77-3.11-3.06-2.34-5.11.77-2.06,3.06-3.11,5.11-2.34Z"/>
      <path class="cls-1" d="m887.85,116.36c2.06.77,3.11,3.06,2.34,5.11-.77,2.06-3.06,3.11-5.11,2.34-2.06-.77-3.11-3.06-2.34-5.11.77-2.06,3.06-3.11,5.11-2.34Z"/>
      <path class="cls-1" d="m900.68,101.09c2.06.77,3.11,3.06,2.34,5.11s-3.06,3.11-5.11,2.34c-2.06-.77-3.11-3.06-2.34-5.11.77-2.06,3.06-3.11,5.11-2.34Z"/>
    </g>
  </g>
</svg>